<svg width="36" height="36" viewBox="0 0 36 36" preserveAspectRatio="xMidYMid meet" xmlns="http://www.w3.org/2000/svg"><path d="M23.688 12.13c.164.104.25.282.204.422l-.769 2.332c.024.04.052.075.075.116.084.144.155.292.224.44l2.37.641c.142.04.243.209.24.404l-.063 3.334c-.005.194-.112.36-.256.393l-2.39.55c-.1.192-.21.378-.33.558l.674 2.362c.04.141-.053.315-.22.412l-2.89 1.668c-.169.097-.365.09-.468-.015l-1.707-1.765c-.336.02-.67.014-1.003-.02l-1.778 1.694c-.106.102-.302.1-.467-.004l-2.82-1.783c-.164-.104-.25-.28-.204-.422l.77-2.33c-.024-.04-.051-.077-.074-.117a5.796 5.796 0 0 1-.226-.441l-2.37-.642c-.142-.039-.242-.207-.238-.402l.062-3.334c.004-.195.111-.361.256-.393l2.39-.55c.1-.193.21-.378.331-.559l-.675-2.36c-.04-.142.052-.316.221-.413l2.89-1.668c.167-.097.364-.09.467.015l1.708 1.764c.335-.021.67-.014 1 .02l1.78-1.694c.105-.101.302-.1.467.004l2.819 1.783zm-4.187 8.468a3 3 0 1 0-3-5.196 3 3 0 0 0 3 5.196z" fill-rule="evenodd"/></svg>