<svg width="24" height="24" viewBox="0 0 24 24" preserveAspectRatio="xMidYMid meet" xmlns="http://www.w3.org/2000/svg"><path d="M19.86 15.2a1.09 1.09 0 0 0-.06-.1c-.27-.5-.8-1.11-1.58-1.83l-.02-.02-.01-.02h-.01a9.57 9.57 0 0 1-.68-.68c-.17-.22-.2-.44-.11-.67.06-.17.31-.53.75-1.08l.53-.7c.96-1.28 1.38-2.1 1.25-2.44l-.05-.09c-.03-.05-.12-.1-.26-.13a1.3 1.3 0 0 0-.53-.02l-2.39.01a.31.31 0 0 0-.16 0l-.11.03-.05.02-.03.03a.37.37 0 0 0-.09.08.57.57 0 0 0-.08.15 13.52 13.52 0 0 1-.89 1.86c-.2.35-.4.64-.56.9a4.29 4.29 0 0 1-.44.55 3 3 0 0 1-.31.29c-.1.07-.17.1-.22.09a6.09 6.09 0 0 1-.14-.04.55.55 0 0 1-.18-.2.9.9 0 0 1-.1-.32 3.56 3.56 0 0 1-.03-.34 7 7 0 0 1 0-.4 12 12 0 0 0 .03-1.03l.02-.58a9.43 9.43 0 0 0-.02-.83 1.29 1.29 0 0 0-.1-.27.45.45 0 0 0-.16-.2.96.96 0 0 0-.28-.11A5.53 5.53 0 0 0 11.67 7a5.44 5.44 0 0 0-1.98.2 1.1 1.1 0 0 0-.32.25c-.1.12-.11.19-.04.2.33.05.57.17.7.35l.05.1c.04.07.08.2.12.38.04.19.06.39.07.6a6.44 6.44 0 0 1 0 1.04c-.02.3-.05.52-.07.68a1.34 1.34 0 0 1-.22.57.14.14 0 0 1-.04.04.62.62 0 0 1-.22.04.53.53 0 0 1-.28-.12 1.99 1.99 0 0 1-.35-.32 4.26 4.26 0 0 1-.4-.56 9.9 9.9 0 0 1-.47-.87l-.13-.24-.34-.67a13.01 13.01 0 0 1-.38-.86.55.55 0 0 0-.2-.26l-.04-.03a.88.88 0 0 0-.32-.12l-2.28.01c-.23 0-.39.06-.47.16l-.04.05a.27.27 0 0 0-.02.13c0 .06.02.14.05.23a27.4 27.4 0 0 0 2.98 5.25 17.4 17.4 0 0 0 .82 1l.2.2a9.74 9.74 0 0 0 1.44 1.02c.32.19.68.33 1.1.45a3.78 3.78 0 0 0 1.21.13h.96c.19-.02.34-.08.44-.18l.03-.04a.55.55 0 0 0 .06-.16.84.84 0 0 0 .03-.22 2.73 2.73 0 0 1 .05-.65l.14-.42a1.06 1.06 0 0 1 .32-.37.54.54 0 0 1 .07-.03c.13-.04.3 0 .47.13s.35.29.5.48l.58.64c.22.24.41.42.58.53l.16.1a2 2 0 0 0 .43.18.93.93 0 0 0 .47.05l2.12-.04c.21 0 .38-.03.5-.1.11-.07.18-.15.2-.23a.64.64 0 0 0 0-.28 1.04 1.04 0 0 0-.05-.22z"/></svg>