<svg viewBox="0 0 24 24" xmlns="http://www.w3.org/2000/svg"><g fill-rule="evenodd"><path d="M12.029 4.24l-.523.288a.1.1 0 0 1-.147-.104l.101-.615-.431-.44a.1.1 0 0 1 .056-.169l.593-.09.26-.553a.1.1 0 0 1 .181 0l.262.553.592.09a.1.1 0 0 1 .056.169l-.431.44.1.615a.1.1 0 0 1-.146.104l-.523-.287zM10 11.5V8.518l1.916-2.964a.1.1 0 0 1 .168 0L14 8.518V11.5h1v6h1v-.9a.1.1 0 0 1 .1-.1h1.8a.1.1 0 0 1 .1.1v4.9H6v-4.9a.1.1 0 0 1 .1-.1h1.8a.1.1 0 0 1 .1.1v.9h1v-6h1zm2 4a1 1 0 1 0 0-2 1 1 0 0 0 0 2z"/></g></svg>