<svg xmlns="http://www.w3.org/2000/svg" width="180" height="80" fill="none" viewBox="0 0 180 80">
  <mask id="a" width="95" height="56" x="0" y="12" maskUnits="userSpaceOnUse">
    <path fill="#fff" fill-rule="evenodd" d="M72.054 13.64c-.067-.205.057-.3.186-.338l1.074-.29c.072-.018.258-.048.32.124.452 1.237 2.21 1.237 2.664 0 .063-.172.248-.142.32-.123l1.072.29c.129.037.252.132.187.337-.845 2.662-4.981 2.662-5.824 0zm5.226 13.053l3.091-.106.004.004a.29.29 0 0 0 .283-.284v-.582c0-.151-.135-.223-.283-.265l-.877-.26v-7.924c0-.154-.135-.282-.3-.282h-2.345c-.154 0-.467.06-.715.47-.247.408-3.338 6.165-3.338 6.165l-.132-.027c.132-.612.23-1.218.23-1.702v-4.798a.276.276 0 0 0-.307-.267l-3.374.312c-.17.017-.308.134-.308.287v.83c0 .153.14.247.307.267l1.186.134v7.614c0 .153.133.28.298.28H71.794c.297.003 1.254.014 2.331-1.738 1.122-1.818 2.927-5.06 2.927-5.06l.113.027c-.096.472-.169.89-.169 1.192v5.447c0 .15.128.272.284.266zm13.886 30.369c-.204.324-.424.782-.678 1.31-.91 1.889-2.246 4.663-4.76 5.305-1.009.259-1.9.256-2.72.254-.56-.001-1.086-.002-1.596.079-.627.1-1.08.337-1.533.574-.559.292-1.119.585-2.007.626-1.237.055-1.873-.145-2.34-.292-.767-.241-1.084-.341-2.855 1.05-3.51 2.753-6.758.716-6.607-3.626.067-1.889-1.05-3.01-2.177-4.14-1.373-1.378-2.762-2.771-2.043-5.588.577-2.259.521-4.3.472-6.136-.082-2.997-.148-5.45 2.568-7.416 1.152-.833 1.864-1.553 2.553-2.249.993-1.004 1.94-1.96 4.09-3.141 2.949-1.62 7.828-2.567 11.764-.956 2.298.942 3.833 2.557 5.517 4.33.212.223.425.448.643.674.197.205.403.415.613.63 1.637 1.673 3.562 3.64 4.183 5.82 1.166 4.11.312 7.498-3.086 12.892h-.001zm-7.207 4.548c1.662-.187 2.733-.87 3.322-2.173.21-.467.115-.838-.378-.37-.914.87-2.356 1.624-3.494 2.05-1.483.56-.258.583.55.492zm-5.691.607c1.136.102 1.74.157.227.64h.002c-1.502.48-4.333-.55-2.199-.63.12-.003.233-.008.342-.012h.003c.626-.026 1.099-.045 1.584-.002l.04.004zM64.3 54.925c-.07-.185-.096-.472-.124-.775-.056-.625-.119-1.32-.59-1.35-.619-.037-.657.9-.638 1.3.087 1.78 1.032 2.346 2.06 2.962 1.274.764 2.676 1.605 2.736 4.922.04 2.13.557 2.856 1.056 2.816.501-.04.985-.848.96-1.782-.07-2.36-1.73-3.938-3.23-5.364-.965-.917-1.863-1.77-2.23-2.73zm12.442-21.92c1.917-.326 4.55-.157 6.495 1.1.811.522 1.102.81-.665.156-2.313-.858-5.407-.144-5.932-.02-1.44.347-1.763-.923.102-1.236zm1.274 3.087c-7.167 0-12.975 5.45-12.975 12.173 0 6.722 5.809 12.173 12.976 12.173 7.17 0 12.98-5.45 12.98-12.173 0-6.724-5.81-12.173-12.981-12.173zM65.583 48.276c0 6.442 5.569 11.662 12.434 11.662 6.87 0 12.438-5.22 12.438-11.662 0-6.441-5.568-11.663-12.438-11.663-6.866 0-12.434 5.223-12.434 11.663zm11.749 10.322l5.586-9.15h-.954l-5.588 9.15h.956zm2.039-9.147l-5.255 8.6c-.261-.092-.517-.192-.768-.302l5.069-8.298h.954zm-8.776 6.597c2.33-1.503 4.023-3.818 4.608-6.512a11.849 11.849 0 0 0-3.136-.42c-1.792 0-3.484.397-4.984 1.102.463 2.298 1.727 4.33 3.511 5.83zm-3.683-8.38c.334-5.48 5.177-9.825 11.103-9.825.398 0 .792.018 1.177.058-.336 5.479-5.178 9.824-11.105 9.824-.4 0-.79-.02-1.175-.057zm14.915-8.535l-5.223 8.552h.955l5.224-8.552h-.956zm-.665 7.766c.431-2.65 1.926-4.97 4.06-6.57h.002c2.03 1.62 3.433 3.915 3.812 6.515-1.245.45-2.597.7-4.012.7-1.358 0-2.66-.228-3.862-.645zm4.34 2.55H85.5h.002zm0 0l-5.563 9.106c4.825-.788 8.582-4.494 9.132-9.105H85.5zM81 57.817h-.002.002zm7.462-7.87c-.677 3.75-3.601 6.81-7.462 7.87l4.806-7.87h2.656zM81.7 57.273h.001-.001zm.001 0l.845-1.382.372.856c-.388.199-.797.376-1.217.525zm5.802-7.025h.57c-.06.273-.135.542-.219.806l-.351-.806zm.194 1.252l-.541-1.253h-.827l.952 2.195c.157-.307.296-.62.418-.943h-.002zm-.612 1.3v-.001zm-1.099-2.542l1.1 2.541c-.151.266-.314.524-.492.776l-1.093-2.525.485-.792zm.388 3.617l-1.078-2.49-.482.792 1.018 2.35c.19-.21.372-.428.542-.652zm-1.763-1.364l.98 2.27a9.539 9.539 0 0 1-.585.556l-.88-2.033.485-.793zm.14 3.04l-.83-1.912-.485.792.69 1.59c.216-.147.422-.306.625-.47zm-2.002.004l.483-.79v-.001l.625 1.44c-.213.138-.434.27-.658.393l-.45-1.042zm-.992-8.987c.453-2.173 1.67-4.136 3.452-5.586 1.69 1.468 2.828 3.41 3.234 5.537-1.1.352-2.256.53-3.422.53-1.11 0-2.21-.16-3.266-.48l.002-.001zm2.976-1.323l-.468 1.473h.001a10.697 10.697 0 0 1-.876-.093l.27-.85 1.073-.53zm-1.664 1.327l.19-.597-.9.444c.234.06.472.11.71.154v-.001zm-.888-.408zm1.29-.636l-1.29.636c.07-.257.148-.511.239-.761l1.05.125zm-.94-.418l1.438.172 1.131-.56-2.276-.27a8.093 8.093 0 0 0-.293.658zm3.067-.634l-2.625-.312c.118-.222.245-.438.381-.648l3.376.4-1.132.56zm-.394-3.082c-.337.29-.65.6-.941.924l2.019.24c-.324-.41-.685-.8-1.078-1.164zm-1.178 1.202l2.509.298c.174.243.34.495.49.753l-3.481-.416c.152-.217.311-.43.482-.635zm4.046 3.718a9.165 9.165 0 0 0-.42-1.375l-.51 1.6c.313-.06.624-.137.928-.225h.002zm-.613-1.83l-.673 2.12c-.312.05-.625.088-.94.112l.76-2.396.62-.306c.084.155.161.312.233.47zm-1.253.034h-.001.001zm-.001 0l-1.075.53-.535 1.69a11.82 11.82 0 0 0 .905-.002l.705-2.217zM67.48 47.214c.201.009.404.017.605.017v-.001c5.436 0 9.97-3.857 10.538-8.877a13.578 13.578 0 0 0-.608-.015c-5.435 0-9.967 3.856-10.535 8.876zm2.966-.543l-1.883-.12-.474.377c.81 0 1.598-.09 2.357-.257zm-1.692-.667l-.873.694v-.001a9.11 9.11 0 0 1 .937-2.72l-.064 2.027zm2.61.42c.611-.193 1.198-.44 1.757-.734l-3.218-.203-.988.783 2.447.154h.002zm-2.278-.683l.072-2.354v-.001c.32-.5.682-.972 1.085-1.41l-.094 2.92-1.063.845zm1.489-4.108l-.095 3 1.064-.846.097-3.067c-.377.28-.733.584-1.067.912h.001zm1.3 1.89l.098-3.037h.001c.337-.23.69-.442 1.056-.634l-.09 2.826-1.064.845zm1.483-3.835l-.086 2.727 1.064-.846.076-2.316c-.362.127-.714.272-1.054.435zm1.31 1.619l.07-2.163v-.001a9.9 9.9 0 0 1 1.046-.273l-.05 1.59-1.066.847zm3.346-2.666c-.65 0-1.286.057-1.906.166l-.043 1.39 1.96-1.556h-.011zm-1.065 1.252l1.272-1.01c-.065.365-.151.722-.259 1.072l-1.013-.062zm.916.36l-1.272-.08-.983.782 1.93.12c.12-.267.23-.542.326-.823zm-.467 1.117v-.001zm0 0l-2.141-.136-.986.783 2.667.167c.166-.264.32-.533.46-.814zm-.65 1.106l-2.83-.18-.985.784 3.201.202c.22-.26.425-.527.615-.806h-.001zm-.869 1.093h.002l-.001-.001zm0 0l-3.3-.21-.984.782 3.468.22c.287-.25.56-.514.816-.792zm-4.639.854l-.985.78 3.349.213a10.67 10.67 0 0 0 1.12-.774l-3.484-.22zm-.602 10.984c1.942-1.363 3.338-3.311 3.936-5.518v-.001a11.298 11.298 0 0 0-2.507-.28c-1.516 0-3.005.3-4.38.887.454 1.872 1.483 3.575 2.95 4.912zm2.105-5.475l-.283.952 1.466-.815c-.39-.067-.784-.113-1.183-.137zm.358.947l1.006-.557c-.073.217-.154.432-.24.642l-.766-.085zm.636.375l-1.091-.12-1.206.67 1.905.21c.142-.248.273-.5.392-.76zm-2.754.803l2.19.242c-.159.256-.331.506-.515.746l-2.88-.318 1.204-.67zm-.32 2.948h.001zm.001 0c.288-.213.562-.44.82-.68l-1.613-.176c.246.3.51.584.793.855zm1.107-.953l-2.162-.237a9.884 9.884 0 0 1-.492-.721l.202-.114 3.117.345c-.209.252-.43.497-.665.727zm-3.708-3.381a9.01 9.01 0 0 0 .73 1.854l.688-2.306c-.483.117-.957.268-1.418.452zm.991 2.103l.787-2.636-.001-.001c.375-.08.754-.136 1.137-.173l-.622 2.088-1.3.722zm1.703-.946l1.301-.722.356-1.19a10.861 10.861 0 0 0-1.093.019l-.565 1.894.001-.001zm-12.87-30.06c0 3.236 1.425 5.036 4.879 5.036 3.455 0 4.878-1.8 4.878-5.035 0-3.236-1.424-5.034-4.879-5.034-3.454 0-4.879 1.798-4.879 5.034zm4.88-3.224c-1.887 0-2.358 1.296-2.358 3.225 0 1.93.47 3.226 2.358 3.226 1.886 0 2.354-1.296 2.354-3.226s-.47-3.225-2.354-3.225zM56.742 45.21h.79c.096 0 .178-.073.178-.165v-1.623c0-.092-.082-.167-.177-.167h-.302a1.298 1.298 0 0 1-.628-.24c-.415-.32-.79-.977-1.213-1.757-.422-.782-1.317-1.242-1.317-1.242v-.093s.92-.87 1.08-1.118l.017-.027.03-.047c.215-.343.815-1.301 1.419-1.301h.787c.1 0 .178-.075.178-.168v-1.624a.172.172 0 0 0-.178-.167h-.787c-.282 0-1.106.01-1.897.484-.607.366-1.09 1.203-1.499 1.914-.123.214-.24.417-.352.592-.482.753-.849.737-.849.737h-.598V35.64a.283.283 0 0 0-.294-.277l-3.217.192c-.159.009-.291.123-.291.276v.83c0 .153.133.252.29.276l1.014.16v7.717c0 .155.138.28.3.28h1.9c.162 0 .3-.125.3-.28v-3.72c.335.012.857.077 1.262.332.39.245.672.814.974 1.424.266.535.547 1.101.928 1.506.819.865 2.152.853 2.152.853zm-.532-18.54h-.786s-1.334.012-2.152-.853c-.385-.406-.667-.975-.933-1.512-.302-.608-.583-1.175-.971-1.418-.406-.255-.93-.32-1.265-.332v3.72c0 .153-.135.28-.302.28h-1.894c-.161 0-.297-.127-.297-.28v-7.72l-1.013-.157c-.158-.024-.291-.123-.291-.275l-.002-.832c0-.15.132-.266.294-.275l3.214-.19a.28.28 0 0 1 .295.275v3.559h.6s.366.015.846-.74c.113-.176.231-.38.356-.596.41-.71.892-1.544 1.498-1.907.79-.476 1.613-.484 1.895-.484h.787c.099 0 .178.075.178.166v1.623c0 .092-.08.166-.177.166h-.787c-.605 0-1.207.962-1.42 1.305a6.415 6.415 0 0 1-.046.07c-.16.248-1.078 1.117-1.078 1.117v.094s.89.46 1.313 1.24c.425.78.798 1.44 1.214 1.757.204.155.437.217.627.24h.302c.097 0 .176.076.176.168v1.625c0 .09-.078.167-.177.167l-.004-.001zm-9.506 18.118v-.589c-.007-.166-.12-.262-.303-.306a91.406 91.406 0 0 0-.772-.16l-.112-.023v-4.903c0-4.037-4.242-4.052-7.221-2.802-.135.07-.202.184-.173.357l.208 1.076c.087.246.42.131.68.041.062-.02.12-.04.17-.054 2.265-.602 3.936-.767 3.936 2.068-3.876-.255-5.786.776-5.687 3.122.137 1.504.8 2.618 2.842 2.718 1.31.099 2.272-.53 3.1-1.436.026.782.123 1.298.5 1.286l2.42-.09c.24-.012.407-.092.412-.305zm-3.589-3.748c-1.08-.063-3.321-.114-3.326 1.36-.005 1.542 2.474 1.48 3.326.177V41.04zm-1.192-14.253c.941.003 2.018-.164 3.061-.447l.001-.002c.244-.065.276-.22.231-.487l-.183-1.074c-.052-.302-.305-.274-.589-.174-2.815 1.005-5.028.053-4.968-3.105.039-2.087 1.277-3.245 3.43-2.863.261.03.472.116.511.296l.183.823c.037.128.104.195.2.188h.852c.13-.023.198-.145.202-.35l.088-2.016c.005-.225-.06-.371-.319-.435-4.082-1.163-7.75.164-7.736 4.73.01 2.699 1.603 4.908 5.036 4.916zM31.82 35.51c2.065 0 4.325 1.533 4.325 5.007 0 3.47-2.37 4.85-4.95 4.85-2.579 0-4.771-1.73-4.771-5.565 0-3.838 1.276-5.79 2.565-6.675.891-.61 1.92-.966 2.723-1.244.36-.124.675-.233.911-.342.735-.337.924-.838.98-.985l.005-.015c.048-.124.177-.313.45-.23.276.085 1.655.553 1.707.575l.005.002c.062.026.293.122.114.446l-.057.104c-.235.437-.814 1.514-1.968 1.996-.503.21-1.041.332-1.574.453-.806.183-1.601.363-2.247.842-1.078.793-1.604 2.354-1.604 2.354s1.318-1.573 3.384-1.573h.002zm1.744 4.954c0 1.676-.606 3.038-2.283 3.038-1.676 0-2.28-1.362-2.28-3.038 0-1.677.605-3.037 2.28-3.037 1.68 0 2.283 1.36 2.283 3.037zm.908-13.906h-1.9c-.162 0-.3-.127-.3-.28v-3.55h-3.573v3.55c0 .153-.135.28-.297.28h-1.9c-.164 0-.3-.127-.3-.28v-7.72L25.19 18.4c-.158-.024-.291-.123-.291-.275v-.832c0-.15.13-.266.29-.275l3.218-.19a.278.278 0 0 1 .293.275v3.769h3.574v-3.6c0-.155.135-.28.298-.28h1.902c.161 0 .297.127.297.28v9.004c0 .154-.135.28-.297.28h-.002zM25.209 44.79V44.2c-.007-.166-.12-.262-.303-.306-.273-.058-.544-.114-.814-.169l-.07-.014v-4.903c0-4.037-4.241-4.052-7.22-2.802-.136.07-.203.184-.173.357l.207 1.076c.087.245.417.132.679.042.063-.021.122-.041.172-.055 2.266-.602 3.934-.767 3.934 2.068-3.877-.255-5.784.776-5.687 3.122.138 1.504.803 2.618 2.845 2.718 1.31.099 2.272-.53 3.099-1.436.023.782.12 1.298.498 1.286l2.42-.09c.243-.012.409-.092.413-.305zm-3.589-3.748c-1.08-.063-3.32-.114-3.327 1.36-.003 1.542 2.475 1.48 3.327.177v-1.537zM13.84 21.77c0 3.235 1.426 5.035 4.879 5.035 3.455 0 4.88-1.8 4.88-5.035 0-3.236-1.425-5.034-4.88-5.034-3.452 0-4.88 1.798-4.88 5.034zm4.879-3.225c-1.886 0-2.355 1.296-2.355 3.225 0 1.93.47 3.226 2.355 3.226 1.886 0 2.356-1.296 2.356-3.226s-.471-3.225-2.356-3.225zM10.782 29.43h1.725c.147 0 .27-.112.27-.252v-4.254c0-.14-.123-.254-.27-.254h-1.034V13.897c0-.153-.135-.28-.296-.28H6.613c-2.304 0-3.376.919-3.667 3.117a28.076 28.076 0 0 0-.166 2.013c-.143 2.447-.287 4.914-2.61 6.362-.099.037-.17.13-.17.235v3.835c0 .139.122.252.27.252h1.724c.149 0 .27-.113.27-.253v-2.616h8.249v2.616c0 .139.121.252.27.252zM8.976 15.9c0-.228-.17-.356-.324-.356H6.788c-.847 0-1.358.49-1.466 1.4-.065.558-.09 1.19-.115 1.858-.078 2.006-.167 4.325-1.41 5.868h5.179V15.9zm6.41 16.256H5.104v-.001a.2.2 0 0 0-.204.195v2.92c0 .099.085.182.19.182h1.154c.104 0 .164-.085.19-.182l.304-1.11h2.238v9.076l-1.43.376c-.116.03-.217.095-.217.208v1.068c0 .114.1.207.219.207h5.398c.12 0 .22-.093.22-.207v-1.066c0-.115-.104-.18-.22-.21l-1.431-.376V34.16h2.24l.301 1.113c.028.097.087.182.19.182H15.4c.108 0 .194-.082.194-.182V32.35c0-.107-.094-.195-.207-.195z" clip-rule="evenodd"/>
  </mask>
  <g mask="url(#a)">
    <path fill="#222631" d="M0 0h180v80H0z"/>
  </g>
</svg>
