<svg xmlns="http://www.w3.org/2000/svg" width="180" height="80" fill="none" viewBox="0 0 180 80">
  <path fill="#151515" d="M46.614 26.021h-.133a1.776 1.776 0 0 0-.616-1.23 2.245 2.245 0 0 0-1.624-.43h-1.255v3.32h.944c1.12 0 1.378-.226 1.512-1.322h.133l-.02 2.96h-.135c-.123-1.106-.504-1.467-1.501-1.467h-.933v1.265c-.069.581.005 1.17.213 1.716.258.497.535.722 1.353.722 1.421 0 1.82-.53 2.145-2.033h.134l-.078 2.203h-6.12V31.6a1.084 1.084 0 0 0 .92-.395c.18-.226.236-.531.236-1.208v-4.078c0-.678-.056-.982-.235-1.208a1.098 1.098 0 0 0-.919-.395v-.125h5.891l.09 1.829-.002.001zm18.718 0h-.135a1.771 1.771 0 0 0-.616-1.23 2.248 2.248 0 0 0-1.624-.43h-1.255v3.32h.944c1.12 0 1.378-.226 1.512-1.322h.135l-.024 2.96h-.135c-.121-1.106-.504-1.467-1.5-1.467h-.932v1.265c-.07.581.004 1.17.213 1.716.258.497.535.722 1.353.722 1.422 0 1.821-.53 2.145-2.033h.134l-.077 2.203h-6.119V31.6a1.083 1.083 0 0 0 .919-.395c.179-.227.235-.531.235-1.208v-4.078c0-.678-.056-.982-.235-1.208a1.1 1.1 0 0 0-.919-.395v-.125h5.891l.09 1.829v.001zm21.488 0h-.136a1.772 1.772 0 0 0-.616-1.23 2.243 2.243 0 0 0-1.623-.43h-1.254v3.32h.942c1.12 0 1.378-.226 1.512-1.322h.135l-.021 2.96h-.136c-.123-1.106-.504-1.467-1.5-1.467h-.932v1.265c-.07.58.004 1.17.214 1.716.258.497.532.722 1.35.722 1.422 0 1.822-.53 2.146-2.033h.135l-.079 2.203h-6.119V31.6a1.083 1.083 0 0 0 .919-.395c.179-.227.235-.531.235-1.208v-4.078c0-.678-.056-.982-.235-1.208a1.098 1.098 0 0 0-.917-.395v-.125h5.89l.09 1.829v.001zm-38.863 3.412h.123c.404 1.546 1.065 2.302 2.04 2.302a1.4 1.4 0 0 0 1.05-.423 1.423 1.423 0 0 0 .405-1.066 1.82 1.82 0 0 0-.438-1.197 4.136 4.136 0 0 0-1.22-.802 4.026 4.026 0 0 1-1.29-.87 1.806 1.806 0 0 1-.423-1.208 2.131 2.131 0 0 1 .585-1.51 2.086 2.086 0 0 1 1.476-.648c.37.003.732.091 1.063.26.175.09.364.147.56.17.112 0 .201-.103.246-.283h.123l.045 2.192h-.134a4.775 4.775 0 0 0-.527-1.356 1.508 1.508 0 0 0-.546-.584 1.479 1.479 0 0 0-.764-.218 1.231 1.231 0 0 0-.916.358 1.248 1.248 0 0 0-.371.918 1.395 1.395 0 0 0 .526 1.073c.427.342.908.609 1.422.79 1.198.576 1.736 1.277 1.736 2.282a2.291 2.291 0 0 1-.693 1.677 2.255 2.255 0 0 1-1.693.626c-.605 0-1.202-.15-1.735-.44a.52.52 0 0 0-.19-.034.36.36 0 0 0-.225.073.37.37 0 0 0-.134.197h-.123l.022-2.28zm5.88 0h.122c.404 1.546 1.064 2.302 2.038 2.302.395.015.776-.139 1.052-.423a1.419 1.419 0 0 0 .405-1.066 1.819 1.819 0 0 0-.437-1.197 4.125 4.125 0 0 0-1.221-.802 4.045 4.045 0 0 1-1.288-.87 1.81 1.81 0 0 1-.426-1.208 2.133 2.133 0 0 1 .587-1.51 2.086 2.086 0 0 1 1.474-.648c.37.003.734.091 1.064.26.175.09.364.147.56.17.112 0 .202-.103.245-.283h.125l.045 2.192h-.136a4.778 4.778 0 0 0-.525-1.356 1.51 1.51 0 0 0-.547-.584 1.48 1.48 0 0 0-.764-.218 1.23 1.23 0 0 0-.917.358 1.252 1.252 0 0 0-.37.918 1.393 1.393 0 0 0 .526 1.073c.427.342.908.607 1.422.79 1.199.576 1.737 1.277 1.737 2.282.01.631-.241 1.24-.695 1.677a2.255 2.255 0 0 1-1.691.626c-.605 0-1.202-.15-1.737-.44a.52.52 0 0 0-.19-.034.36.36 0 0 0-.225.073.37.37 0 0 0-.134.197h-.123l.024-2.28zm13.787.564c0 .688.056.98.237 1.208.224.273.567.42.918.395v.124h-2.533V31.6a1.083 1.083 0 0 0 .919-.395c.179-.227.235-.531.235-1.208v-4.078c0-.678-.056-.982-.235-1.208a1.098 1.098 0 0 0-.919-.395v-.125h2.106l4.1 5.601V25.92c0-.69-.056-.982-.235-1.208a1.098 1.098 0 0 0-.919-.395v-.125h2.532v.125a1.095 1.095 0 0 0-.919.395c-.179.226-.235.53-.235 1.208v5.805h-.246l-4.806-6.529v4.802zm12.42-3.366h-.126c-.337-1.369-.764-2.45-2.131-2.45-1.966 0-2.401 2.31-2.401 3.795 0 2.446.83 3.76 2.4 3.76 1.386 0 2.1-1.43 2.36-2.45h.125l-.074 2.473h-.115c-.095-.227-.158-.294-.294-.294a.556.556 0 0 0-.22.044 4.403 4.403 0 0 1-1.834.404 3.506 3.506 0 0 1-1.494-.206 3.55 3.55 0 0 1-2.098-2.09 3.611 3.611 0 0 1-.221-1.506 4.456 4.456 0 0 1 1.049-3.028A3.752 3.752 0 0 1 77.61 24c.6.004 1.19.142 1.73.407.07.03.145.044.221.045.136 0 .199-.068.294-.294h.115l.073 2.473h.001zM12.186 55.602H.018a1.573 1.573 0 0 1 0-.47h1.974a.083.083 0 0 0 .067-.023.086.086 0 0 0 .025-.07V39.56a.087.087 0 0 0-.056-.09.084.084 0 0 0-.036-.004H.018a1.572 1.572 0 0 1 0-.47h7.08a.807.807 0 0 1 0 .47H5.174c-.093 0-.14.023-.14.094v15.48c0 .071.047.094.14.094h1.88c3.346 0 4.762-2.67 4.762-5.059.146-.023.296-.023.442 0v5.458a.06.06 0 0 1-.018.052.06.06 0 0 1-.052.018h-.001zm3.136 0a1.576 1.576 0 0 1 0-.47h1.951c.07 0 .116-.022.116-.093V39.56c0-.071-.046-.094-.116-.094h-1.95a1.575 1.575 0 0 1 0-.47h7.084a.8.8 0 0 1 0 .47h-1.95c-.094 0-.14.023-.14.094v15.48c0 .071.046.094.14.094h1.95a.801.801 0 0 1 0 .469h-7.085zM37.04 43.844a4.213 4.213 0 0 0-.257-1.672 4.162 4.162 0 0 0-2.279-2.386 4.096 4.096 0 0 0-1.645-.323h-1.88c-.117 0-.163.025-.163.096v7.283h.534c.39.016.78-.048 1.145-.188.366-.14.7-.353.983-.627.57-.554.892-1.316.892-2.113 0-.047.441-.047.441 0v6.325c0 .07-.441.07-.441 0a2.972 2.972 0 0 0-.236-1.147 2.934 2.934 0 0 0-1.64-1.59 2.89 2.89 0 0 0-1.144-.191h-.534v7.728c0 .071.046.094.162.094h1.929a.806.806 0 0 1 0 .469H25.82a1.576 1.576 0 0 1 0-.47h1.975a.085.085 0 0 0 .07-.023.085.085 0 0 0 .024-.07V39.56a.087.087 0 0 0-.024-.07.085.085 0 0 0-.07-.024H25.82a1.575 1.575 0 0 1 0-.47h11.59a.073.073 0 0 1 .049.023c.013.013.02.03.021.049v4.776a1.352 1.352 0 0 1-.44.001zm15.865 11.758H40.201a.8.8 0 0 1 0-.47h1.95c.07 0 .117-.022.117-.093V39.56c0-.071-.046-.094-.116-.094h-1.95a.8.8 0 0 1 0-.47h11.565c.093 0 .093.048.093.072v4.776a1.355 1.355 0 0 1-.441 0c0-2.178-1.139-4.378-3.903-4.378h-2.16c-.14 0-.185.023-.185.094v7.283h.58c.377.01.752-.059 1.1-.205a2.685 2.685 0 0 0 1.502-1.604c.124-.358.171-.74.14-1.12 0-.046.394-.046.394 0v6.326c0 .07-.395.07-.395 0a2.739 2.739 0 0 0-.724-2.08 2.663 2.663 0 0 0-2.016-.849h-.581v7.73c0 .07.046.093.186.093h2.23c3.623 0 4.994-2.436 4.994-4.847 0-.048.393-.048.393 0v5.245a.062.062 0 0 1-.068.071h-.002zm8.501.398c-1.625 0-2.81-.96-3.576-.96a1.222 1.222 0 0 0-.752.238c-.218.161-.378.39-.456.652-.023.07-.418.07-.418 0v-5.574c0-.047.418-.047.418 0 0 1.897 1.928 5.2 4.76 5.2 2.532 0 3.694-1.547 3.694-3.07 0-2.271-1.347-2.693-4.738-4.004-2.067-.796-3.693-1.967-3.693-4.754 0-2.904 1.997-5.13 4.204-5.13 1.44 0 1.672.632 2.672.632.65 0 .882-.304.928-.563-.022-.07.395-.07.395 0v4.287c0 .047-.395.047-.395 0a3.741 3.741 0 0 0-.98-2.699 3.703 3.703 0 0 0-1.181-.858 3.655 3.655 0 0 0-1.415-.33 2.71 2.71 0 0 0-1.108.173 2.745 2.745 0 0 0-.948.609 2.772 2.772 0 0 0-.825 2.05c0 1.688 1.209 2.53 3.972 3.584 2.834 1.102 4.622 2.18 4.622 5.036 0 2.436-1.72 5.481-5.18 5.481zm20.416-11.454c0-2.716-1.393-5.081-4.574-5.081h-.21c-.093 0-.14.023-.14.094v15.48c0 .071.047.094.14.094h1.928a.801.801 0 0 1 0 .469H71.95a.801.801 0 0 1 0-.47h1.928c.092 0 .14-.022.14-.093V39.56c0-.071-.048-.094-.14-.094h-.233c-3.18 0-4.46 2.365-4.46 5.081 0 .047-.394.047-.394 0v-5.48a.075.075 0 0 1 .07-.07H82.17c.047 0 .047.047.047.07v5.48c0 .047-.394.047-.394 0h-.002zm15.1-5.081c-.14 0-.257.094-.977 1.663l-3.159 7.26v6.653c0 .07.048.092.14.092h1.927a.8.8 0 0 1 0 .469h-7.06a.8.8 0 0 1 0-.47h1.974c.094 0 .117-.022.117-.093v-6.675l-4.25-8.805a.198.198 0 0 0-.163-.094h-2.16a.8.8 0 0 1 0-.47h7.733a1.55 1.55 0 0 1 0 .47h-2.159c-.094 0-.07.047-.094.094l3.88 8.032 3.136-7.142c.37-.914.395-.984.278-.984h-2.02a.8.8 0 0 1 0-.47h4.644a.8.8 0 0 1 0 .47H96.92zm15.167 16.137H99.917a1.57 1.57 0 0 1 0-.47h1.974a.085.085 0 0 0 .07-.023.083.083 0 0 0 .024-.07V39.56a.081.081 0 0 0-.005-.038.084.084 0 0 0-.089-.056h-1.974a1.569 1.569 0 0 1 0-.47H107a.798.798 0 0 1 0 .47h-1.926c-.093 0-.14.023-.14.094v15.48c0 .071.047.094.14.094h1.881c3.344 0 4.761-2.67 4.761-5.059.147-.023.295-.023.442 0v5.458c.001.01 0 .02-.003.028a.057.057 0 0 1-.015.023.058.058 0 0 1-.024.016.06.06 0 0 1-.028.003h-.001zm14.843 0h-12.706a.815.815 0 0 1 0-.47h1.952c.07 0 .116-.022.116-.093V39.56c0-.071-.048-.094-.116-.094h-1.952a.814.814 0 0 1 0-.47h11.566c.094 0 .094.048.094.072v4.776a1.354 1.354 0 0 1-.441 0c0-2.178-1.139-4.378-3.903-4.378h-2.159c-.14 0-.186.023-.186.094v7.283h.581c.376.01.75-.06 1.098-.205a2.68 2.68 0 0 0 1.501-1.604c.124-.358.172-.74.14-1.12 0-.046.396-.046.396 0v6.326c0 .07-.396.07-.396 0a2.74 2.74 0 0 0-.724-2.08 2.663 2.663 0 0 0-2.017-.849h-.579v7.73c0 .07.046.093.186.093h2.229c3.623 0 4.994-2.436 4.994-4.847 0-.048.394-.048.394 0v5.245c.002.01.001.02-.002.029a.072.072 0 0 1-.04.039.06.06 0 0 1-.028.003h.002z"/>
</svg>
