<svg xmlns="http://www.w3.org/2000/svg" width="180" height="80" fill="none" viewBox="0 0 180 80">
  <path fill="#151515" d="M57.15 32.064a7.955 7.955 0 0 0 3.06.093c.36-.058.871.262.91.612.034.32-.328.695-.726.7-1.044.011-2.087.004-3.131 0-.412-.003-.823-.029-1.235-.028a.574.574 0 0 0-.36.105c-1.09 1.019-2.168 2.047-3.252 3.073l.089.166.867.225c.06.407.123.87.199 1.334.16.988.325 1.975.49 2.963.066.394.12.793.206 1.186.28 1.293.573 2.585.861 3.878.27 1.214.658 2.391 1.268 3.483.582 1.039.874 1.186 1.705.254a19.78 19.78 0 0 0 2.324-3.222c1.27-2.199 2.434-4.455 3.613-6.701.657-1.248 1.257-2.524 1.883-3.787.055-.11.118-.22.186-.325.172-.272.433-.414.739-.315.272.088.486.279.493.614.06 2.793.12 5.585.184 8.376.056 2.416.117 4.833.183 7.247.006.19.1.38.19.699.252-.668.46-1.21.664-1.75.403-1.078.81-2.154 1.203-3.235.435-1.19.837-2.39 1.29-3.574.487-1.269 1.01-2.523 1.53-3.78.3-.726.59-1.46.952-2.157.148-.287.428-.607.719-.703.548-.179.877.152 1.014.782.206.943.46 1.876.675 2.817.147.64.253 1.288.397 1.928.144.636.32 1.267.468 1.904.142.61.266 1.227.4 1.84.158.721.326 1.442.481 2.165.094.431.17.869.336 1.32.196-.481.386-.966.584-1.446.424-1.039.786-2.107 1.29-3.108a47.322 47.322 0 0 1 2.266-4.047c.99-1.567 2.21-2.953 3.862-3.9.891-.513 1.865-.795 2.88-.732 1.165.087 2.309.368 3.38.835 1.782.74 3.449 1.728 4.949 2.933a54.612 54.612 0 0 1 2.969 2.636c.507.476.938 1.034 1.414 1.565.112-.182.168-.378.301-.462.174-.115.461-.252.601-.182.202.102.423.366.444.58.06.59.026 1.188.018 1.783-.004.325-.143.59-.469.69-.382.115-.72.055-.985-.3-.425-.57-.845-1.15-1.329-1.673-.896-.969-1.778-1.966-2.775-2.826-.946-.814-2.02-1.49-3.066-2.186a13.561 13.561 0 0 0-3.763-1.75c-.689-.2-1.369-.346-2.088-.327-.946.028-1.738.434-2.47.966-1.74 1.262-2.876 3.015-3.868 4.85-.73 1.348-1.35 2.756-1.955 4.165-.512 1.2-.937 2.434-1.39 3.658-.142.387-.232.79-.37 1.177-.178.494-.684.649-1.113.352a.288.288 0 0 1-.123-.148c-.126-.66-.232-1.321-.37-1.978-.14-.683-.316-1.36-.465-2.041-.142-.64-.263-1.286-.403-1.926-.157-.724-.332-1.442-.49-2.164-.14-.642-.258-1.289-.4-1.93-.146-.653-.315-1.302-.463-1.954-.108-.47-.202-.941-.315-1.477-.112.086-.222.124-.248.195-.487 1.224-.967 2.45-1.441 3.678-.462 1.191-.934 2.38-1.376 3.579-.502 1.36-.961 2.737-1.465 4.098a181.7 181.7 0 0 1-1.596 4.128c-.118.3-.397.544-.723.507-.326-.039-.578-.274-.665-.635-.326-1.355-.344-2.738-.365-4.12-.056-3.53-.116-7.061-.182-10.59a5.973 5.973 0 0 0-.259-1.512c-.435.88-.842 1.776-1.31 2.638-1.143 2.1-2.302 4.191-3.477 6.273-.672 1.197-1.482 2.3-2.519 3.216-1.19 1.048-2.313.896-3.148-.413-.545-.856-.909-1.84-1.257-2.8-.347-.956-.595-1.951-.845-2.939-.171-.679-.27-1.374-.402-2.063A23.71 23.71 0 0 0 52.561 41c-.136.574-.269 1.148-.406 1.721-.157.649-.323 1.293-.476 1.943-.14.595-.262 1.196-.406 1.791-.148.62-.317 1.234-.473 1.85-.138.553-.256 1.109-.407 1.656-.202.738-.417 1.47-.647 2.2-.172.548-.379 1.086-.57 1.628-.13.366-.378.636-.763.715-.469.095-.79-.235-.966-.562a19.095 19.095 0 0 1-.937-2.114c-.3-.775-.577-1.558-.831-2.348-.215-.657-.39-1.328-.588-1.99a283.228 283.228 0 0 0-1.402-4.534 422.04 422.04 0 0 0-.827-2.571 20.993 20.993 0 0 0-.903-2.39c-.188.472-.402.937-.554 1.42-.305.957-.59 1.92-.854 2.89-.215.794-.373 1.603-.58 2.4-.205.794-.438 1.582-.657 2.374-.193.7-.36 1.404-.575 2.097-.368 1.192-.72 2.408-1.476 3.422-.932 1.252-2.141.998-2.701-.324-.35-.828-.547-1.722-.756-2.601-.217-.925-.366-1.864-.562-2.888-.433.643-.808 1.205-1.19 1.765-1.19 1.754-2.524 3.38-4.254 4.658-.982.729-2.082 1.253-3.3 1.248-1.711-.009-3.554-.36-4.52-2.403-.308-.65-.33-.662-1.05-.483-.787.198-1.562.452-2.35.649-.63.157-1.268.273-1.905.395-.413.078-.838.11-1.241.219-.123.033-.291.273-.271.389.128.729.3 1.449.464 2.17.137.61.294 1.216.42 1.828.087.41-.158.65-.518.76-.313.095-.635-.157-.733-.552-.244-.98-.473-1.965-.712-2.947-.108-.442-.227-.884-.352-1.37-.705.063-1.399.162-2.094.179-1.205.027-2.419.085-3.615-.014-1.616-.134-3.245-.31-4.674-1.195C.462 51.533.004 50.708 0 49.72c-.003-.888.38-1.683 1.03-2.345 1.359-1.386 2.947-2.47 4.596-3.48 1.343-.822 2.698-1.627 4.035-2.458a.504.504 0 0 0 .177-.4c-.098-1.032-.221-2.06-.336-3.091-.07-.659-.151-1.317-.202-1.976-.025-.33.305-.652.644-.683.32-.03.694.29.728.648.072.773.127 1.55.197 2.324.059.646.123 1.29.194 1.933.042.38.304.304.518.198 1.181-.593 2.341-1.224 3.534-1.794 1.444-.69 2.91-1.339 4.373-1.992a98.475 98.475 0 0 1 3.071-1.319c.973-.394 1.96-.757 2.945-1.12.905-.334 1.805-.697 2.731-.962a26.42 26.42 0 0 1 2.739-.586c.355-.063.683.273.697.594.012.302-.288.548-.631.632-.99.243-1.978.494-2.95.795-.881.28-1.753.59-2.614.925-1.1.416-2.199.841-3.283 1.294a137.973 137.973 0 0 0-4.28 1.859c-1.37.629-2.717 1.304-4.066 1.973-.732.361-1.441.764-2.175 1.123-.24.117-.322.264-.288.508.11.78.217 1.56.326 2.34.062.44.129.88.189 1.32.133.983.245 1.968.403 2.947.141.873.333 1.74.518 2.693.595-.092 1.18-.16 1.756-.278.633-.135 1.262-.29 1.885-.464.756-.207 1.494-.523 2.264-.628.872-.118.894-.639.998-1.31.17-1.103.64-2.127 1.237-3.08a15.013 15.013 0 0 1 3.016-3.456 20.106 20.106 0 0 1 4.293-2.829c.905-.437 1.82-.881 2.772-1.186 1.008-.325 2.063-.472 3.137-.214.75.18 1.393.85 1.6 1.581.308 1.094-.11 2.015-.63 2.908-.199.342-.515.616-.78.92a.546.546 0 0 0-.125.57c.126.469.166.96.23 1.443.08.614.121 1.234.226 1.842.139.8.3 1.6.491 2.389.153.63.354 1.247.55 1.865.042.136.157.247.32.489.335-.686.668-1.267.91-1.882.32-.812.58-1.646.84-2.478.158-.501.268-1.017.401-1.525.224-.856.45-1.707.67-2.561.135-.525.25-1.056.391-1.579.216-.79.431-1.578.676-2.36.225-.723.46-1.447.75-2.147.163-.383.386-.738.665-1.05.481-.542 1.068-.517 1.427.102.353.637.65 1.302.89 1.987.37.991.693 1.997 1.019 3.003.206.634.38 1.278.574 1.915.217.714.447 1.424.66 2.14.26.869.494 1.743.764 2.607.295.944.61 1.884.934 2.82.165.471.365.93.599 1.374 1.578-4.991 2.644-10.105 3.778-15.201l-.115-.073c-.261.272-.525.542-.784.817-.716.754-1.42 1.517-2.145 2.263-.392.403-.866.343-1.13-.122-.206-.364.022-.615.254-.855l5.563-5.719c.087-.088.176-.173.308-.306-.597-.074-1.148-.166-1.703-.207-1.138-.087-2.281-.128-3.418-.225a69.062 69.062 0 0 1-3.04-.342 6.855 6.855 0 0 1-1.086-.255c-.423-.127-.366-.487-.314-.794.056-.332.378-.405.637-.378.926.1 1.847.246 2.768.374.043.007.088.014.131.015 1.037.07 2.076.133 3.113.213 1.267.098 2.532.225 3.802.306a.941.941 0 0 0 .632-.226c.927-.87 1.798-1.794 2.743-2.645a284.074 284.074 0 0 1 5.97-5.263c1.592-1.357 3.242-2.65 5.046-3.734.43-.258.893-.265 1.304.036.3.204.58.436.838.69.296.316.266.764-.01.99-.216.177-.743.119-.985-.117-.158-.156-.303-.322-.485-.515-4.649 3.105-8.66 6.897-12.751 10.788zM10.113 42.682c-.635.374-1.225.704-1.797 1.063-1.297.814-2.622 1.591-3.865 2.48a17.61 17.61 0 0 0-2.603 2.243c-.94 1.002-.648 2.11.549 2.708a5.3 5.3 0 0 0 1.582.532c1.21.187 2.43.304 3.653.35 1.152.03 2.309-.103 3.462-.152.278-.011.36-.133.322-.387-.135-.891-.262-1.784-.396-2.677-.06-.394-.126-.79-.193-1.186-.157-.93-.332-1.86-.47-2.793-.101-.697-.159-1.4-.244-2.18zm10.77 6.847c.274-.103.428-.157.579-.22 1.18-.486 2.382-.925 3.53-1.473a99.353 99.353 0 0 0 4.576-2.36c1.4-.76 2.732-1.63 3.845-2.776.673-.69 1.253-1.458 1.097-2.498a.968.968 0 0 0-.416-.633c-.646-.361-1.385-.276-2.043-.104-.905.248-1.786.58-2.63.983a19.17 19.17 0 0 0-5.29 3.588c-1.176 1.133-2.164 2.423-2.788 3.942-.19.463-.288.96-.462 1.551h.002zm.095 1.362a.575.575 0 0 0 .02.13c.019.037.06.068.07.106.29 1.252 1.245 1.775 2.388 1.978 1.451.258 2.71-.224 3.834-1.146 2.223-1.821 3.779-4.154 5.237-6.565.032-.054.004-.143.004-.22-3.624 2.425-7.522 4.216-11.553 5.717z"/>
  <path fill="#151515" d="M84.827 49.264c.746.092 1.518.1 2.236.296.992.27 1.718.933 2.175 1.845.523 1.046.505 2.182.327 3.268-.223 1.36-1.08 2.34-2.42 2.855-.344.128-.708.2-1.077.212-.867.033-1.736.008-2.603.029-.325.008-.465-.099-.465-.42.006-2.533.006-5.066.001-7.598 0-.285.103-.428.424-.416.464.02.927.006 1.392.006l.01-.077zm-.412 7.227c1.675.166 2.953-.166 3.475-1.218.573-1.155.613-2.35-.041-3.484-.77-1.337-2.116-1.216-3.434-1.201v5.903zm25.46-4.66l.089-.376h1.219c.01.139.028.263.028.388-.004 1.952.01 3.903-.023 5.854-.014.892-.335 1.696-1.261 2.04a4.397 4.397 0 0 1-1.673.26c-.2-.007-.381-.476-.628-.812.487-.089.836-.139 1.179-.218.7-.163 1.115-.635 1.087-1.64-.327.153-.635.309-.95.445-1.017.444-2.273-.075-2.719-1.013-.638-1.339-.671-2.74-.074-4.133.499-1.17 2.305-1.823 3.445-.9.059.05.154.059.281.103v.002zm.062 2.813v-.698c0-.749-.428-1.27-1.178-1.434-.679-.149-1.292.187-1.523.835-.276.771-.256 1.542-.019 2.322.247.817.735 1.141 1.588 1.025.644-.089 1.132-.69 1.132-1.397v-.653zm-13.78.476h-4.206c-.075.582.177 1.018.584 1.324.47.357 1.04.347 1.601.18a1.83 1.83 0 0 0 .197-.095c.507-.22.942-.089 1.184.384a.331.331 0 0 1-.09.314c-.821.622-1.714.86-2.761.57-1.228-.34-1.738-1.18-2.016-2.311-.26-1.061-.071-2.023.414-2.95.54-1.031 2.007-1.454 3.078-1.145 1.337.384 1.862 1.308 1.96 2.56.029.375.037.75.057 1.169h-.001zm-1.316-1.196c-.1-.537-.237-.995-.732-1.251-.478-.249-.981-.312-1.455-.02-.456.282-.751.677-.694 1.27h2.881zm17.845-2.414c.77-.188 1.194-.108 1.439.286.748-.555 1.572-.65 2.447-.34.556.197.951.594 1.09 1.128.169.667.273 1.348.313 2.035.05.9.008 1.806.015 2.709.001.305-.1.464-.445.44-.294-.021-.591-.005-.938-.005v-1.091c-.004-.977.019-1.953-.024-2.928-.047-1.105-1.024-1.557-1.968-1.063a1.02 1.02 0 0 0-.403.379.974.974 0 0 0-.142.527c-.023 1.193-.029 2.388-.04 3.583-.004.588-.009.593-.594.593h-.75V51.51zm-11.049.55l-.577.946a2.714 2.714 0 0 0-1.908-.518c-.276.024-.49.089-.56.37-.07.299.03.542.32.672.434.194.877.362 1.313.553.301.125.596.268.881.425.993.573 1.023 2.129.325 2.767-.356.325-.913.527-1.409.61-1.038.17-2.011-.127-2.893-.678-.073-.046-.1-.208-.093-.312.006-.085.092-.166.15-.244.422-.562.211-.617.882-.254.635.343 1.303.375 1.977.272.199-.032.436-.286.518-.49.135-.345-.166-.562-.437-.69-.556-.267-1.141-.476-1.706-.727-.793-.351-1.27-.9-1.248-1.81.014-.67.562-1.282 1.121-1.482 1.101-.392 2.14-.141 3.138.366.082.042.132.142.206.224zm2.86 5.7c-.368 0-.729.04-1.071-.02-.117-.02-.263-.287-.266-.444-.021-1.236-.013-2.472-.013-3.71 0-.582.005-1.163 0-1.744-.003-.291.117-.426.431-.407.295.018.592.005.919.005v6.322-.001zm.209-7.914a.841.841 0 0 1-.269.557.889.889 0 0 1-.584.236c-.485-.003-.89-.347-.857-.778.039-.531.42-.882.892-.86.446.02.83.492.818.846v-.001z"/>
</svg>
