<svg xmlns="http://www.w3.org/2000/svg" width="180" height="80" fill="none" viewBox="0 0 180 80">
  <path fill="#222631" d="M139.875 34.057v4.922h-6.42v-4.923h-3.21v12.907h3.21v-5.2h6.42v5.2h3.21V34.057h-3.21z"/>
  <path fill="#222631" fill-rule="evenodd" d="M84.474 33.78c1.01 0 2.02.556 2.57 1.763v.001l5.226 11.42h-3.394l-1.1-2.694h-6.603l-1.1 2.692H76.68l5.228-11.42c.46-1.207 1.56-1.763 2.567-1.763zm-.365 3.251l-1.926 4.64.002-.001h4.4l-1.926-4.64c-.092-.186-.185-.186-.275-.186-.091 0-.183 0-.275.187z" clip-rule="evenodd"/>
  <path fill="#222631" d="M49.255 31.736c-1.56 0-2.476.835-3.21 2.414l-4.127 9.657-4.127-9.657c-.734-1.58-1.65-2.414-3.12-2.414-1.375 0-2.842 1.02-2.842 3.157V46.87h3.21V35.265l4.128 9.565c.55 1.3 1.467 2.134 2.75 2.134 1.285 0 2.202-.835 2.753-2.135l4.127-9.566V46.87h3.21V34.987c0-2.23-1.376-3.25-2.75-3.25l-.002-.001zM57.601 44.18c-.183 0-.275-.094-.275-.28v-2.32h7.888v-2.51h-7.888v-1.95c0-.184.092-.277.275-.277h7.796v-2.786h-9.355c-1.1 0-1.926.93-1.926 1.95v9.007c0 1.022.825 1.95 1.926 1.95h9.355V44.27h-7.796v-.09zM70.81 46.964V37.12c0-.184.092-.277.275-.277h7.796v-2.786h-9.356c-1.1 0-1.925.93-1.925 1.95v10.957h3.21z"/>
  <path fill="#222631" fill-rule="evenodd" d="M120.98 33.871c5.411 0 7.244 2.136 7.244 6.593l.001.001c0 4.457-1.835 6.593-7.245 6.593-5.412 0-7.246-2.136-7.246-6.593s1.834-6.594 7.246-6.594zm-4.312 6.593c0 2.693 1.01 3.9 4.22 3.9s4.22-1.207 4.22-3.9c0-2.6-.918-3.9-4.22-3.9-3.394 0-4.22 1.3-4.22 3.9zM104.836 32.107h-6.329c-4.677 0-6.603 2.414-6.603 6.593 0 4.83 2.385 6.593 6.788 6.593h1.375v1.67h3.21v-1.67h1.376c4.402 0 6.787-1.857 6.787-6.593-.092-4.27-1.926-6.593-6.604-6.593zm-4.77 10.493H98.6c-2.293 0-3.577-.93-3.577-3.9 0-2.693 1.283-3.9 3.117-3.9h1.926v7.8zm3.119 0h1.467c2.293 0 3.577-1.02 3.577-3.9 0-2.786-1.284-3.9-3.118-3.9h-1.926v7.8zM14.31 40.37V27.093l-.001-.001c6.238.744 11.1 6.221 11.1 12.814 0 7.986-7.063 13.557-13.85 12.813v-11.14c0-.093.093-.186.183-.186h1.56c.55 0 1.008-.463 1.008-1.023zm-1.835 4.923c0 .837.643 1.577 1.56 1.577v.001c.918 0 1.56-.65 1.56-1.578 0-.836-.642-1.58-1.56-1.58-.825 0-1.56.65-1.56 1.58zm5.32 1.578c-.917 0-1.559-.74-1.559-1.577 0-.93.733-1.58 1.56-1.58.916 0 1.558.744 1.558 1.58 0 .928-.734 1.578-1.56 1.578v-.001zm2.11-1.576c0 .837.641 1.577 1.56 1.577v.001c.916 0 1.65-.65 1.56-1.578 0-.836-.644-1.58-1.56-1.58-.827 0-1.56.65-1.56 1.58z" clip-rule="evenodd"/>
  <path fill="#222631" fill-rule="evenodd" d="M10 52.537C4.31 51.237-.09 46.037 0 39.907.093 32.48 5.87 27 12.75 27v12.812c-.046 0-.069.023-.091.046-.024.024-.046.047-.093.047H11.01c-.552 0-1.01.463-1.01 1.023v11.609zm-1.286-16.53c0 .836.643 1.58 1.56 1.58v-.001c.917 0 1.56-.65 1.56-1.58 0-.837-.643-1.577-1.56-1.577-.826 0-1.56.65-1.56 1.578z" clip-rule="evenodd"/>
</svg>
