<svg xmlns="http://www.w3.org/2000/svg" width="180" height="81" fill="none" viewBox="0 0 180 81">
  <path fill="#222631" d="M8.265 29.532c-1.725 0-3.771 1.642-5.458 4.4C1.047 36.788 0 40.324 0 43.394c0 4.497 2.552 9.03 8.268 9.03 5.709 0 8.265-4.533 8.265-9.03 0-3.072-1.05-6.608-2.8-9.464-1.7-2.76-3.747-4.399-5.468-4.399zM52.908 36.277h5.786V51.2h6.2V36.277h5.786v-5.519H52.908v5.52zM83.906 36.277H93v-5.519h-9.094c-8.356 0-12.818 4.108-12.818 10.221s4.46 10.22 12.818 10.22H93v-5.518h-9.094c-3.867 0-6.409-1.368-6.409-4.702 0-3.334 2.545-4.702 6.409-4.702zM40.297 30.758L36.99 42.96l-3.305-12.202H22.733V51.2h6.2V34.573L33.438 51.2h7.109l4.506-16.639V51.2h6.2V30.758H40.296z"/>
</svg>
