<svg xmlns="http://www.w3.org/2000/svg" width="180" height="80" fill="none" viewBox="0 0 180 80">
  <path fill="#151515" d="M17.874 31.542v18.455h-1.732V31.542h1.733zm6.537 16.822h6.64l-.496 1.625h-7.878V31.542h1.733v16.822h.001zm11.948-6.281l-2.444 7.906h-1.808l5.706-18.447h3.671l5.702 18.447h-1.808l-2.444-7.906h-6.575zm2.761-8.926l-2.267 7.334h5.587l-2.267-7.334H39.12zm52.02-.016v8.788h7.407l-.498 1.6h-6.91v4.87h8.692l-.005 1.6H89.405V31.542h10.426l-.498 1.599h-8.195.001zM79.4 48.237l5.16-16.697h1.809l-5.703 18.448-2.533.001-5.703-18.447h1.809l5.16 16.696.001-.001zM8.221 38.396a5.902 5.902 0 0 1 4.425 5.706 5.902 5.902 0 0 1-1.735 4.169c-1.866 1.858-3.702 1.726-6.156 1.726H.825v-1.67h4.573c1.669 0 3.011-.005 4.286-1.275a4.175 4.175 0 0 0 1.229-2.95 4.175 4.175 0 0 0-3.793-4.15v3.385h-.546c-.973 0-1.797-.029-2.719-.372A5.902 5.902 0 0 1 0 37.44a5.902 5.902 0 0 1 4.008-5.58c.826-.282 1.68-.316 2.546-.316h4.498v1.668H7.86c-1.5 0-2.958-.111-4.263.76a4.175 4.175 0 0 0-1.864 3.47 4.176 4.176 0 0 0 3.654 4.135l-.001-3.37h.708c.74 0 1.404.005 2.126.191v-.001zM131.65 30c1.311.014 2.363 1.06 2.351 2.339 0 .617-.245 1.21-.686 1.651l-.866-.863c.209-.21.326-.493.325-.787 0-.292-.118-.572-.329-.778a1.14 1.14 0 0 0-1.592 0 1.087 1.087 0 0 0-.329.778c0 .294.116.576.327.788l-.867.862a2.328 2.328 0 0 1-.686-1.65 2.294 2.294 0 0 1 .68-1.646 2.4 2.4 0 0 1 1.671-.694h.001zm-14.003 12.083l-2.444 7.906h-1.808l5.704-18.447h3.672l5.702 18.447h-1.808l-2.445-7.906h-6.573zm2.761-8.926l-2.269 7.334h5.59l-2.268-7.334h-1.053zm-53.61 5.239a5.902 5.902 0 0 1 4.425 5.706 5.902 5.902 0 0 1-1.735 4.169c-1.866 1.858-3.7 1.726-6.156 1.726h-3.929v-1.67h4.573c1.67 0 3.012-.005 4.287-1.275a4.175 4.175 0 0 0 1.228-2.95 4.175 4.175 0 0 0-3.793-4.15v3.385h-.545c-.974 0-1.797-.029-2.72-.372a5.902 5.902 0 0 1-3.855-5.526 5.902 5.902 0 0 1 4.009-5.58c.826-.282 1.68-.316 2.545-.316h4.498v1.668h-3.192c-1.5 0-2.958-.111-4.263.76a4.176 4.176 0 0 0-1.863 3.47 4.177 4.177 0 0 0 3.653 4.135l-.001-3.37h.708c.74 0 1.404.005 2.126.191v-.001zm41.346-5.248V50h-1.733V33.148h-4.832v-1.606h11.397v1.605h-4.832z"/>
</svg>
