<svg xmlns="http://www.w3.org/2000/svg" width="180" height="80" fill="none" viewBox="0 0 180 80">
  <path fill="#222631" fill-rule="evenodd" d="M.003 21v4.773h35.293V21H.003zm35.293 9.127h.002l-.002.002v-.002zm0 0H18.445v24.87h-1.724V30.129H0v-3.48h35.296v3.478zM77.79 44.543l-.002.001h2.565l-4.059-6.026 3.665-4.305h-2.662l-2.726 3.218-.694.907v-8.459h-2.218v14.664h2.217v-3.37l.986-1.06 2.928 4.43zM60.913 32.591v-1.948l-.001-.001H50.375v1.948h4.105v11.953h2.29V32.591h4.143zm7.285 11.633l-.002-.001v-.001a4.05 4.05 0 0 0 1.584-1.435l-1.196-1.195a2.957 2.957 0 0 1-2.48 1.29 2.393 2.393 0 0 1-1.802-.745c-.477-.497-.75-1.172-.817-2.024h6.45v-.937c0-1.642-.367-2.911-1.1-3.81-.733-.896-1.77-1.345-3.116-1.345a4.093 4.093 0 0 0-2.297.679 4.478 4.478 0 0 0-1.602 1.895 6.443 6.443 0 0 0-.569 2.764v.286c0 1.54.435 2.774 1.308 3.7.872.925 2.011 1.389 3.416 1.389a4.79 4.79 0 0 0 2.223-.51zm-1.045-7.744h-.002c-.344-.397-.825-.596-1.44-.596a1.83 1.83 0 0 0-1.473.668c-.375.445-.612 1.066-.716 1.861h4.223v-.17c-.049-.778-.246-1.364-.592-1.763zm14.815-4.778V31.7h2.216v2.512h1.743v1.721h-1.743v5.765c0 .394.075.68.224.854.149.176.415.263.799.263.26 0 .521-.033.775-.095v1.793a5.184 5.184 0 0 1-1.461.22c-1.701 0-2.554-.982-2.554-2.95v-5.852h-1.624v-1.718h1.624v-2.51l.001-.001zm11.55 12.84h2.262v-.162c-.251-.553-.375-1.294-.375-2.223v-4.66c-.018-1.101-.371-1.955-1.057-2.563-.689-.607-1.61-.912-2.765-.912a4.945 4.945 0 0 0-2.067.42 3.61 3.61 0 0 0-1.463 1.161 2.654 2.654 0 0 0-.539 1.588h2.216c-.005-.396.175-.77.485-1.007a1.89 1.89 0 0 1 1.24-.395c.584 0 1.018.161 1.304.481.3.359.453.817.43 1.284v.678h-1.36c-1.453 0-2.57.296-3.352.884-.783.588-1.173 1.434-1.173 2.534a2.9 2.9 0 0 0 .94 2.196c.627.591 1.435.887 2.427.887a3.38 3.38 0 0 0 2.59-1.154c.042.331.129.655.257.963zm-3.573-2.066c.315.276.721.418 1.136.396.433 0 .86-.115 1.235-.335.37-.206.673-.517.871-.897v-1.948h-1.195c-.82 0-1.438.15-1.851.45-.404.28-.639.762-.62 1.27-.017.4.138.79.424 1.064zm22.831-5.065h-.001v-.001h-5.036v1.834h2.738v2.721c-.498.559-1.338.84-2.517.84-1.078 0-1.919-.414-2.522-1.244-.606-.831-.909-1.996-.909-3.496v-1.067c.018-1.509.296-2.65.835-3.43.537-.778 1.324-1.168 2.357-1.168 1.6 0 2.527.838 2.784 2.512h2.262c-.177-1.44-.7-2.543-1.57-3.31-.869-.767-2.042-1.15-3.521-1.15-1.721 0-3.063.591-4.023 1.77-.961 1.181-1.44 2.823-1.44 4.923v1.087a8.236 8.236 0 0 0 .723 3.443 5.194 5.194 0 0 0 1.985 2.266 5.519 5.519 0 0 0 2.956.792 7.827 7.827 0 0 0 2.901-.506 4.425 4.425 0 0 0 1.998-1.488v-5.328zm7.499-3.255l-.01 2.176a5.341 5.341 0 0 0-.904-.076c-1.015 0-1.7.408-2.052 1.223v7.065h-2.216V34.213h2.116l.055 1.156c.534-.898 1.276-1.347 2.226-1.347.267-.008.534.037.784.134h.001zm.646 5.126v.115c0 1.618.418 2.91 1.255 3.881.836.97 1.952 1.455 3.344 1.455.85.017 1.688-.21 2.412-.657a4.282 4.282 0 0 0 1.606-1.862c.386-.858.577-1.79.561-2.73l-.008-.546c-.068-1.483-.518-2.672-1.348-3.57-.829-.897-1.91-1.347-3.242-1.347a4.395 4.395 0 0 0-2.39.656 4.33 4.33 0 0 0-1.613 1.87 6.324 6.324 0 0 0-.577 2.735zm2.856-2.496c-.426.602-.638 1.5-.638 2.696-.001 1.064.209 1.895.628 2.496.4.593 1.06.933 1.753.904a1.996 1.996 0 0 0 1.746-.916c.417-.611.625-1.505.625-2.684 0-1.043-.214-1.871-.643-2.48a2.139 2.139 0 0 0-1.732-.919 2.136 2.136 0 0 0-1.74.902l.001.001zm14.175 6.745l.057 1.011-.001.001h2.09v-10.33h-2.218v7.418c-.376.808-1.102 1.212-2.18 1.212-1.039 0-1.559-.656-1.56-1.966v-6.664h-2.217v6.693c0 1.241.276 2.19.826 2.845.551.655 1.362.984 2.431.982 1.2 0 2.124-.401 2.772-1.202zM151 39.342v.14c0 1.598-.348 2.873-1.04 3.824-.65.928-1.694 1.462-2.791 1.427-1.084 0-1.95-.371-2.6-1.117v4.898h-2.218v-14.3h2.044l.09 1.05c.65-.827 1.536-1.241 2.656-1.241 1.203 0 2.148.47 2.831 1.41.685.935 1.028 2.24 1.028 3.908v.001zm-2.209-.06c0 1.21-.198 2.112-.596 2.707a1.886 1.886 0 0 1-1.656.893c-.913 0-1.57-.401-1.97-1.202v-4.583c.394-.783 1.044-1.175 1.951-1.175a1.89 1.89 0 0 1 1.683.906c.391.606.588 1.424.588 2.454zM25.903 37.787v17.21h-1.734v-20.17h11.129v2.96h-9.395zm-3.725-3.83h13.117v-2.96H20.44v24h1.738v-21.04zM.003 30.997h14.72v24h-1.735v-21.04H.003v-2.96zm0 7.662h7.273V55H5.47V41.605l-.022.002v-.002H.002v-2.947l.001.001zm.001-3.83H.003l.001-.001v.001zm0 2.957v-2.957H11V55H9.264V37.842l-.025.004v-.06H.004zm-.001 4.703h3.614V55H1.852V44.288H.003v-1.799zm29.621-.882v13.391h-1.732V38.66h7.406v2.947h-5.674zm5.672 2.681h.002l-.002.001v-.001zm-1.926 0h1.926V42.49h-3.68v12.508h1.754v-10.71z" clip-rule="evenodd"/>
</svg>
