<svg xmlns="http://www.w3.org/2000/svg" width="120" height="54" fill="none" viewBox="0 0 120 54">
  <path fill="#222631" fill-rule="evenodd" d="M4.686 26.106c2.588 0 4.685-2.165 4.685-4.835s-2.097-4.835-4.685-4.835C2.098 16.436 0 18.6 0 21.27s2.098 4.835 4.686 4.835zm14.387-4.835c0 2.091-1.643 3.787-3.67 3.787s-3.67-1.696-3.67-3.787c0-2.092 1.643-3.787 3.67-3.787s3.67 1.695 3.67 3.787zm-3.67 16.942c3.15 0 5.702-2.634 5.702-5.883 0-3.25-2.553-5.884-5.702-5.884S9.702 29.08 9.702 32.33c0 3.249 2.552 5.883 5.701 5.883zM4.686 35.068c1.465 0 2.654-1.226 2.654-2.738 0-1.513-1.189-2.739-2.654-2.739-1.466 0-2.654 1.226-2.654 2.739 0 1.512 1.188 2.738 2.654 2.738zm34.202-.032h-2.96l-1.047-2.94h-1.927l-2.346-2.317h3.448l-1.723-4.843-1.725 4.843 2.345 2.318h-3.17l-1.046 2.94h-2.96l5.482-15.401h2.147l5.482 15.4zm-5.935-2.94l2.975 2.94-2.975-2.94zm13.272-7.574l-2.724 7.65-2.723-7.65h-2.78l3.744 10.514h3.519l3.743-10.514h-2.78zm6.724 0h-2.78v10.514h2.78V24.522zm-1.38-1.194c.988 0 1.79-.827 1.79-1.848 0-1.02-.802-1.847-1.79-1.847-.99 0-1.791.827-1.791 1.847s.801 1.848 1.79 1.848zm11.2 1.194v2.317h-3.332v4.347c0 1.177.948 1.544 1.773 1.544.673 0 1.22-.17 1.22-.17l.338 2.271s-.977.422-2.092.422c-2.888 0-4.018-1.557-4.018-3.89v-4.524h-2.2v-2.317h2.2v-2.9h2.779v2.9h3.331zm6.376-.268c-3.014 0-5.458 2.467-5.458 5.508 0 3.042 2.444 5.508 5.458 5.508 3.013 0 5.457-2.466 5.457-5.508 0-3.041-2.444-5.509-5.457-5.509zM66.339 29.8c0 1.564 1.256 2.833 2.806 2.833s2.807-1.268 2.807-2.833c0-1.563-1.256-2.832-2.807-2.832-1.55 0-2.806 1.269-2.806 2.832z" clip-rule="evenodd"/>
</svg>
