<svg width="120" height="53" xmlns="http://www.w3.org/2000/svg" xmlns:xlink="http://www.w3.org/1999/xlink"><defs><path d="M14.313 27.206L8.02 33.15H0l9.989-9.646c3.714-3.577 5.497-4.162 11.83-4.162h25.002l-5.428 5.168H22.53c-4.729 0-5.733.355-8.216 2.695zm21.288 2.973H22.736c-2.355 0-2.877.105-4.049 1.246l-1.773 1.726H9.477l5.496-5.35c2.158-2.1 2.906-2.455 7.664-2.455h17.939L35.6 30.179zm-1.882 2.963l14.186-13.809h8.836L42.516 33.142H33.72zm12.442-1.717v.259h.562v1.467h.315v-1.467h.561v-.259h-1.438zm3.044 0h.443v1.726h-.295v-1.333h-.01l-.493 1.333h-.256l-.492-1.333h-.01v1.333h-.296v-1.726h.434l.492 1.352h.01l.473-1.352zm42.9 1.764h-33v-.191h33c.02 0 2.365-.039 2.365-2.302V19.381h.197v11.315c0 2.474-2.542 2.493-2.562 2.493zM59.332 20.254h2.098v.566h-1.39v.48h1.39v.565h-1.39v.978h-.708v-2.59zm4.62 1.668c0 .576-.365.95-1.035.95h-.246c-.66 0-1.034-.365-1.034-.95v-.249c0-.575.374-.95 1.034-.95h.246c.66 0 1.035.365 1.035.95v.25zm-1.044-.7h-.237c-.266 0-.355.125-.355.394v.354c0 .269.09.403.355.403h.237c.265 0 .344-.125.344-.403v-.354c0-.26-.079-.394-.344-.394zm2.058-.45h.621v.498h-.473c-.236 0-.305.077-.305.278v1.295h-.67v-1.304c.01-.393.236-.767.827-.767zm.749 0h2.522c.65 0 .916.316.916.844v1.227h-.67v-1.247c0-.21-.059-.297-.266-.297h-.443v1.534h-.67V21.3h-.71v1.534h-.67v-2.061h-.009zm5.24 0h.67v2.07h-1.32c-.62 0-.886-.325-.886-.843v-1.227h.67v1.246c0 .211.059.298.266.298h.59v-1.544h.01zm1.665-.518v2.589h-.67v-2.59h.67zm2.325 2.58h-1.458c-.433 0-.66-.192-.66-.49 0-.316.256-.47.572-.68l.6-.403h-1.122v-.499h.935c.818 0 1.133.345 1.133.95v1.121zm-.64-.5v-.69l-.64.49c-.08.057-.109.076-.109.124s.04.077.128.077h.621zm1.556-.028h.67v-1.38c0-.078-.04-.116-.108-.116h-.532v-.556h.68c.404 0 .66.259.66.633v1.429h.58v.527h-1.96v-.537h.01zm-14.45 3.98h-2.198v-.423c0-.44.168-.67.769-.978l.561-.287c.128-.058.168-.106.168-.202 0-.124-.099-.163-.246-.163h-1.192v-.546h1.25c.631 0 .917.24.917.623 0 .432-.266.585-.759.853l-.512.269c-.158.086-.187.144-.187.23v.067h1.428v.556zm1.674.038h-.266c-.798 0-1.182-.47-1.182-1.16v-.355c0-.681.384-1.132 1.182-1.132h.266c.798 0 1.182.46 1.182 1.141v.355c0 .69-.384 1.15-1.182 1.15zm-.217-.556h.168c.354 0 .492-.135.492-.49v-.565c0-.355-.128-.49-.492-.49h-.168c-.355 0-.492.135-.492.49v.556c0 .364.137.499.492.499zm1.724-.01h.67v-1.38c0-.078-.04-.116-.108-.116h-.532v-.556h.68c.403 0 .66.259.66.633v1.429h.58v.527h-1.96v-.537h.01zm2.236-1.16v-.115c0-.518.315-.796 1.064-.796h.138c.837 0 1.192.326 1.192 1.064v.45c0 .662-.384 1.084-1.27 1.084h-1.006v-.517h1.025c.414 0 .522-.115.522-.422v-.039h-.62c-.72 0-1.045-.24-1.045-.71zm1.665.201v-.21c0-.327-.099-.404-.443-.404h-.089c-.335 0-.414.096-.414.269v.077c0 .201.089.268.384.268h.562zm3.95.95h-1.241l-.217.546h-.719l.887-2.09c.138-.326.315-.547.67-.547.374 0 .561.21.69.537l.876 2.09h-.739l-.207-.537zm-1.034-.538h.827l-.344-.891c-.01-.039-.03-.058-.06-.058-.039 0-.049.029-.059.058l-.364.891zm2.748 1.074c-.512 0-.748-.24-.748-.565 0-.326.246-.518.59-.614l.75-.23c.058-.02.088-.048.088-.087 0-.047-.03-.076-.099-.076h-1.25v-.499h1.24c.572 0 .769.22.769.556 0 .346-.217.518-.562.624l-.778.23c-.059.019-.098.038-.098.086 0 .048.04.077.098.077h1.3v.498h-1.3zm2.158-.834v.01c0 .259.098.326.394.326h1.073v.498h-1.034c-.837 0-1.113-.374-1.113-.93v-.259c0-.546.295-.901 1.044-.901h.138c.798 0 1.015.384 1.015.959v.297h-1.517zm.305-.796c-.227 0-.305.087-.305.317v.048h.886v-.048c0-.22-.089-.317-.305-.317h-.276zm2.246-.431h.62v.498h-.472c-.237 0-.306.077-.306.278v1.295h-.67v-1.304c0-.393.237-.767.828-.767zm.739-.518h.67v.48h.837c.532 0 .837.373.837.93v.24c0 .565-.315.93-.837.93h-1.507v-2.58zm.67.988v1.083h.61c.296 0 .385-.124.385-.393v-.307c0-.268-.09-.383-.385-.383h-.61zm3.89 1.591h-1.457c-.434 0-.66-.191-.66-.489 0-.316.256-.47.571-.68l.601-.403h-1.123v-.499h.936c.817 0 1.133.345 1.133.95v1.121zm-.63-.498v-.69l-.64.488c-.079.058-.108.077-.108.125s.039.077.128.077h.62zm.946-1.745v-.403h.67v.403h-.67zm0 .182h.67v2.071h-.67v-2.071zm1.665 0v1.908c0 .46-.266.68-.71.68h-.285v-.44h.167c.099 0 .158-.048.158-.183v-1.965h.67zm-.67-.182v-.403h.67v.403h-.67zm2.985 2.243h-1.458c-.434 0-.66-.191-.66-.489 0-.316.256-.47.571-.68l.6-.403h-1.122v-.499h.936c.817 0 1.133.345 1.133.95v1.121zm-.64-.498v-.69l-.641.488c-.079.058-.108.077-.108.125s.04.077.128.077h.62zm.906-1.563h1.32c.62 0 .886.326.886.844v1.227h-.67v-1.247c0-.21-.059-.297-.266-.297h-.59v1.534h-.67v-2.061h-.01zm-26.814 3.5h-1.35c-.443 0-.571.153-.571.546v.393c0 .413.138.566.522.566h.433c.266 0 .375-.076.375-.24v-.23h-.72v-.546h1.36v.815c0 .518-.365.748-1.034.748h-.385c-.867 0-1.29-.422-1.29-1.15v-.365c0-.672.433-1.103 1.28-1.103h1.38v.566zm1.113-.048h.62v.498h-.473c-.236 0-.305.077-.305.279v1.294h-.67v-1.304c0-.393.237-.767.828-.767zm2.758 2.061h-1.458c-.433 0-.66-.191-.66-.489 0-.316.256-.47.571-.68l.601-.403h-1.123v-.499h.936c.818 0 1.133.345 1.133.95v1.121zm-.64-.498v-.69l-.64.488c-.08.058-.109.077-.109.125s.04.077.128.077h.62zm.916-1.563h1.32c.62 0 .886.326.886.844v1.227h-.67V28.5c0-.21-.059-.297-.265-.297h-.591v1.534h-.67v-2.061h-.01zm4.748 2.061H69.3c-.532 0-.838-.374-.838-.93v-.21c0-.566.316-.93.838-.93h.837v-.519h.67v2.59zm-.68-.508v-1.045h-.61c-.296 0-.385.125-.385.393v.269c0 .268.089.383.384.383h.611zm4.088-1.093c0 .566-.335.738-1.073.738h-.621v.863h-.71v-2.589h1.33c.74 0 1.074.202 1.074.73v.258zm-.709-.22c0-.163-.089-.26-.345-.26h-.64v.71h.64c.256 0 .345-.096.345-.25v-.2zm1.714-.24h.62v.498h-.472c-.237 0-.306.077-.306.279v1.294h-.67v-1.304c.01-.393.237-.767.828-.767zm.788-.182v-.403h.67v.403h-.67zm0 .182h.67v2.071h-.67v-2.071zm2.02 1.515l-.404.556h-.73l.789-.988-.808-1.083h.749l.413.594c.05.067.09.067.138 0l.414-.594h.729l-.749 1.026.779 1.045h-.75l-.403-.556c-.06-.067-.118-.077-.167 0z" /></defs><g fill="none" fill-rule="evenodd"><mask fill="#fff"><use xlink:href="#a"/></mask><use fill="#000" fill-rule="nonzero" xlink:href="#a"/><g mask="url(#b)" fill="#151515"><path d="M0 0h119.667v52.667H0z"/></g></g></svg>