<svg width="121" height="54" xmlns="http://www.w3.org/2000/svg" xmlns:xlink="http://www.w3.org/1999/xlink"><defs><path d="M59.007 32.893l.066.142v.134h.068l.14.075h.133l.141.067h.347v-.067l.275-.627.482-.634.688-.553.757-.492.896-.35.898-.277.83-.14h.69l.549.207.273.419.49-.77.407-.768.282-.905.066-.073v-.067l-.275-.35-.482-.21-.762-.067h-.896l-.964.141-1.032.277-1.036.349-.965.486-.896.56-.69.701-.414.836-.208.911.14 1.044.002.001zm8.617-6.91l-.28-1.397-.548-1.328-.624-.56-.824-.418-.97-.21-1.03-.073-1.106.14-1.104.277-1.101.426-1.032.627-.896.768-.764.903-.548 1.054-.414 1.253-.069 1.329.21 1.537.547 1.604.07.21.07.14.134.069.074-.069h.066l.142-.074.067-.067.069-.067v-.075l-.07-1.463.208-1.26.483-1.113.689-.978.83-.769 1.03-.56 1.037-.492 1.105-.276 1.03-.067h1.036l.965.134.822.352.697.492zm-3.036-5.1v.07h.14l.068.066h.14l.065.074v-.074l-.205-.209-.208-.134-1.722-.769-1.584-.425h-1.52l-1.447.35-1.244.561-1.17.837-.966 1.052-.761 1.185-.55 1.255-.342 1.396-.073 1.403.207 1.396.483 1.321.83 1.26 1.103 1.12.208.134.134.142.074.067h.067v.075h.068l.066.067h.14l.068.067.14.075h.066l.142.067h.135v-.276l-.07-.142-.133-.276-.14-.284-.757-1.463-.556-1.538-.131-1.536v-1.538l.34-1.395.482-1.33.762-1.118.896-.979 1.099-.694 1.245-.492 1.31-.134 1.513.207 1.588.56z" id="bcs-w"/><path d="M10.873 19.698v2.164H3.705v3.351h3.997l1.103.067 1.037.21.964.493.415.343.483.492.414.702.274.903.134 1.119-.134 1.045-.207.844-.416.693-.48.493-.483.418-1.037.486-1.098.209-1.037.074H.947V19.698h9.927-.001zM3.705 31.639h3.722l.689-.142.69-.207.48-.42.208-.416.14-.56.068-.418-.067-.492-.141-.486-.208-.493-.48-.35-.691-.277-.689-.073h-3.72v4.334zm17.58-11.941v5.166h1.862l3.586-5.166h3.172l-4.341 6.628 4.41 7.477h-3.307l-3.52-6.149h-1.861v6.15h-2.757V19.698h2.757zM45.97 29.751l3.379-.492-.69 1.329-.897 1.185-1.104.979-1.237.768-1.447.418-1.518.21-1.654-.21-1.587-.559-1.378-.837-1.101-1.186-.831-1.396-.55-1.537-.207-1.672.209-1.747.548-1.537.83-1.395 1.103-1.12 1.377-.91 1.588-.56 1.654-.134 1.518.134 1.447.492 1.237.7 1.104.98.897 1.186.69 1.322-3.38-.486-.69-.701-.822-.627-.897-.352-1.104-.134-1.24.21-1.101.485-.83.768-.691.979-.415 1.118-.134 1.33.134 1.253.415 1.187.69.978.83.769 1.102.493 1.24.134 1.103-.136.897-.35.823-.56.69-.769zm-31.095 5.374V18.37h.482v16.755h-.482zm18.132 0V18.37h.415v16.755h-.415zm18.07 0V18.37h.416v16.755h-.416zm15.721-11.867l-.277.35-.48.135h-.623l-.763-.208-.757-.277L63 22.84l-.756-.426-.829-.552-.616-.492-.556-.56-.34-.485-.074-.14h-.066v-.069l-.07.067-.073.067v.979l.281.842.614.905.766.842.962.835 1.03.694 1.18.56 1.095.35 1.105.067.97-.207v-.21l-.28-1.396-.548-1.254.001.001zm-8.83-2.237v-.42H57.9l-.068.074-.14.135-.14.142-.616 1.186-.206 1.255.132 1.329.417 1.26.687 1.187.965 1.112 1.105 1.052 1.17.77 1.31.627 1.314.35h1.31l1.24-.283.69-1.187.415-1.396-.757.351-.897.141-1.105-.14-1.104-.352-1.106-.485-1.102-.701-1.03-.77-.9-.91-.762-1.046-.548-1.044-.275-1.119.066-1.118zm-.896-.77l.07-.068.14-.14.065-.069.074-.067h-.14l-.07.067-.206.067-.142.075-1.237.905-.896 1.05-.622 1.254-.417 1.397-.134 1.395.134 1.47.417 1.464.622 1.328.896 1.262 1.106 1.045 1.378.835 1.585.56v.068h.617l1.176-.134 1.173-.285.55-.209.555-.276.548-.35.141-.068.065-.073-1.31.282-1.239-.073-1.31-.345-1.173-.634-1.103-.768-1.038-.978-.822-1.112-.69-1.188-.481-1.26-.208-1.33v-1.395l.275-1.255.62-1.26 1.033-1.187h-.002z" id="bcs-w_c"/></defs><g fill="none" fill-rule="evenodd"><mask id="bcs-w_b" fill="#fff"><use xlink:href="#bcs-w"/></mask><use fill-opacity=".2" fill="#000" fill-rule="nonzero" xlink:href="#bcs-w"/><g opacity=".1" mask="url(#bcs-w_b)" fill="#151515"><path d="M0 0h120.8v53.8H0z"/></g><mask id="bcs-w_d" fill="#fff"><use xlink:href="#c"/></mask><use fill="#151515" fill-rule="nonzero" xlink:href="#bcs-w_c"/><g mask="url(#bcs-w_d)" fill="#151515"><path d="M0 0h120.8v53.8H0z"/></g></g></svg>