<svg width="121" height="54" xmlns="http://www.w3.org/2000/svg" xmlns:xlink="http://www.w3.org/1999/xlink">
  <defs>
    <path d="M59.0069 32.89298l.06566.14204v.134h.06834l.13936.07504h.134l.1407.067h.34706v-.067l.2747-.62712.4824-.63382.68809-.55342.7571-.49178.89579-.35041.8978-.27671.82946-.1407h.6901l.5494.2077.27336.41875.4891-.76916.40736-.76849.28274-.9045.06566-.0737v-.067l-.2747-.35041-.4824-.20904-.76179-.067h-.89579l-.9648.1407-1.0318.27738-1.03582.3484-.9648.48642-.89646.56012-.6901.70082-.41406.83616-.2077.9112.1407 1.04386.00134.00067zm8.61754-6.91038l-.28006-1.39628-.54806-1.32794-.62444-.55945-.8241-.41942-.96949-.20904-1.03046-.0737-1.1055.1407-1.10416.27671-1.10148.42545-1.0318.62712-.89579.76849-.7638.90316-.54806 1.05324-.41406 1.2529-.06901 1.32928.20904 1.53698.54806 1.60465.06901.20904.07102.1407.134.06834.0737-.06834h.06566l.14271-.0737.067-.067.06834-.067v-.07504l-.06901-1.46328.2077-1.26094.4824-1.1122.68876-.9782.8308-.76849 1.02979-.55945 1.03649-.49245 1.1055-.27604 1.02979-.067h1.03582l.9648.134.82276.35175.6968.49178-.00067.00067zm-2.89708-5.03036l.27403.067-.20569-.20904-.2077-.134-1.7219-.76916-1.58455-.42478h-1.51889l-1.4472.35041-1.24486.56079-1.17049.83616-.9648 1.0519-.76179 1.1859-.5494 1.25424-.3417 1.39628-.0737 1.40298.2077 1.39561.4824 1.32191.8308 1.2596 1.10282 1.12024.2077.134.134.14204.0737.067h.067v.07504h.06834l.06566.067h.1407l.067.067.1407.07504h.06566l.14204.067h.13467v-.27671l-.06901-.14204-.134-.27604-.13936-.28341-.7571-1.46328-.5561-1.53765-.13132-1.53631v-1.53765l.33969-1.39561.4824-1.32928.76179-1.1189.89646-.9782 1.0988-.69412 1.24486-.49245 1.31052-.134 1.51286.2077 1.5879.56012.13936.06767z" id="a"/>
    <path d="M10.87276 19.698v2.1641H3.7051v3.35134h3.99655l1.10349.067 1.03716.20971.96346.49245.4154.34304.4824.49245.41406.70149.2747.90316.134 1.1189-.134 1.0452-.2077.8442-.4154.69345-.48106.49245-.4824.41808-1.03716.48575-1.09746.20904-1.03716.0737H.94738V19.698h9.92672-.00134zM3.7051 31.63941h3.72185l.68876-.14204.6901-.2077.48039-.41875.2077-.41741.1407-.56012.067-.41741-.067-.49245-.1407-.48575-.2077-.49245-.48106-.35041-.6901-.27671-.68876-.0737H3.7051v4.3349zM21.2859 19.698v5.1657h1.86126L26.733 19.698h3.17245l-4.3416 6.62764 4.40994 7.4772h-3.30645l-3.52018-6.14859H21.2859v6.14926h-2.75705V19.698h2.75705zm24.6828 10.05335l3.37881-.49245-.6901 1.32861-.89646 1.1859-1.10416.9782-1.23682.76849-1.4472.41808-1.51822.20971-1.65356-.20971-1.58656-.55878-1.37819-.8375-1.10148-1.1859-.8308-1.39561-.5494-1.53765-.2077-1.67165.20904-1.74669.54806-1.53765.8308-1.39494 1.10215-1.1189 1.37752-.9112 1.5879-.55945 1.65356-.134 1.51822.134 1.4472.49178 1.23682.70082 1.10349.9782.8978 1.18724.6901 1.32191-3.38015-.48575-.6901-.70149-.82276-.62712-.89646-.35175-1.10416-.134-1.2395.20904-1.10148.48575-.8308.76849-.6901.9782-.4154 1.1189-.134 1.32928.134 1.2529.4154 1.18724.6901.9782.82946.76849 1.10215.49312 1.2395.134 1.10416-.13534.89646-.35108.82276-.55878.6901-.76916zM14.874 35.12542V18.37006h.4824v16.75536h-.4824zm18.13154 0V18.37006h.4154v16.75536h-.4154zm18.07057 0V18.37006h.4154v16.75536h-.4154zm15.72088-11.86704l-.27671.35041-.47972.134h-.6231l-.7638-.2077-.7571-.27671-.89579-.41875-.75576-.42545-.82879-.55208-.6164-.49245-.5561-.55945-.34036-.48508-.0737-.1407H59.764v-.06834l-.06968.067-.0737.067v.97887l.2814.84219.61439.9045.76514.84219.96279.83549 1.02979.69412 1.1792.56012 1.09545.34974 1.1055.067.97016-.2077v-.20904l-.28006-1.39628-.54806-1.25424.00067.00134zm-8.8306-2.2378v-.41942h-.06499l-.06834.0737-.13936.13534-.1407.14204-.6164 1.1859-.20569 1.25491.13199 1.32861.41674 1.2596.68742 1.18791.9648 1.1122 1.1055 1.0519 1.17049.76916 1.30985.62712 1.3132.35041h1.30985l1.2395-.28274.6901-1.18724.4154-1.39561-.7571.35108-.89646.1407-1.1055-.1407-1.10416-.35108-1.1055-.48508-1.10215-.70149-1.02979-.76916-.89981-.9112-.76246-1.0452-.54806-1.04386-.2747-1.1189.06566-1.1189h.00067zm-.89512-.7705l.06901-.067.1407-.1407.06499-.06834.0737-.067h-.14003l-.06901.067-.20636.067-.14204.07504-1.23682.9045-.89646 1.05056-.62176 1.25424-.41674 1.39628-.134 1.39561.134 1.47065.41674 1.46261.62176 1.32861.89646 1.26161 1.1055 1.0452 1.37819.83549 1.58522.56012v.067h.6164l1.17652-.134 1.1725-.28408.5494-.20904.5561-.27604.54806-.35108.1407-.067.06499-.0737-1.31052.28274-1.23816-.0737-1.31052-.34438-1.1725-.63382-1.10282-.76849-1.0385-.9782-.82209-1.1122-.6901-1.18724-.48106-1.26094-.2077-1.32861V23.9525l.2747-1.25424.62109-1.26094 1.0318-1.1859-.00134-.00134z" id="b"/>
  </defs>
  <g fill="none" fill-rule="nonzero">
    <use fill-opacity=".2" fill="#000" xlink:href="#a"/>
    <use fill="#151515" xlink:href="#b"/>
  </g>
</svg>
