<svg width="121" height="54" viewBox="0 0 121 54" fill="none" xmlns="http://www.w3.org/2000/svg">
<path d="M59.0067 32.8931L59.0723 33.0352V33.1692H59.1407L59.28 33.2442H59.414L59.5547 33.3112H59.9018V33.2442L60.1765 32.6171L60.6589 31.9833L61.347 31.4299L62.1041 30.9381L62.9999 30.5877L63.8977 30.311L64.7271 30.1703H65.4172L65.9666 30.378L66.24 30.7967L66.7291 30.0276L67.1365 29.2591L67.4192 28.3546L67.4849 28.2809V28.2139L67.2102 27.8635L66.7278 27.6544L65.966 27.5874H65.0702L64.1054 27.7281L63.0736 28.0055L62.0378 28.3539L61.073 28.8403L60.1765 29.4004L59.4864 30.1013L59.0723 30.9374L58.8646 31.8486L59.0053 32.8925L59.0067 32.8931V32.8931ZM67.6242 25.9828L67.3442 24.5865L66.7961 23.2585L66.1717 22.6991L65.3476 22.2797L64.3781 22.0706L63.3476 21.9969L62.2421 22.1376L61.1379 22.4143L60.0365 22.8398L59.0047 23.4669L58.1089 24.2354L57.3451 25.1386L56.797 26.1918L56.383 27.4447L56.3139 28.774L56.523 30.311L57.071 31.9156L57.1401 32.1247L57.2111 32.2654L57.3451 32.3337L57.4188 32.2654H57.4844L57.6271 32.1917L57.6941 32.1247L57.7625 32.0577V31.9826L57.6935 30.5193L57.9012 29.2584L58.3836 28.1462L59.0723 27.168L59.9031 26.3995L60.9329 25.8401L61.9694 25.3476L63.0749 25.0716L64.1047 25.0046H65.1405L66.1053 25.1386L66.9281 25.4903L67.6249 25.9821L67.6242 25.9828ZM64.7271 20.9524L65.0012 21.0194L64.7955 20.8104L64.5878 20.6764L62.8659 19.9072L61.2813 19.4824H59.7624L58.3152 19.8328L57.0704 20.3936L55.8999 21.2298L54.9351 22.2817L54.1733 23.4676L53.6239 24.7218L53.2822 26.1181L53.2085 27.5211L53.4162 28.9167L53.8986 30.2386L54.7294 31.4982L55.8322 32.6184L56.0399 32.7524L56.1739 32.8945L56.2476 32.9615H56.3146V33.0365H56.383L56.4486 33.1035H56.5893L56.6563 33.1705L56.797 33.2456H56.8627L57.0047 33.3126H57.1394V33.0359L57.0704 32.8938L56.9364 32.6178L56.797 32.3344L56.0399 30.8711L55.4838 29.3334L55.3525 27.7971V26.2595L55.6922 24.8639L56.1746 23.5346L56.9364 22.4157L57.8328 21.4375L58.9316 20.7434L60.1765 20.2509L61.487 20.1169L62.9999 20.3246L64.5878 20.8847L64.7271 20.9524V20.9524Z" fill="white"/>
<path d="M10.8726 19.6981V21.8622H3.70499V25.2135H7.70154L8.80503 25.2805L9.84219 25.4902L10.8056 25.9827L11.221 26.3257L11.7034 26.8181L12.1175 27.5196L12.3922 28.4228L12.5262 29.5417L12.3922 30.5869L12.1845 31.4311L11.7691 32.1245L11.288 32.617L10.8056 33.0351L9.76849 33.5208L8.67103 33.7299L7.63387 33.8036H0.947266V19.6981H10.874H10.8726ZM3.70499 31.6395H7.42684L8.1156 31.4974L8.8057 31.2897L9.28609 30.871L9.49379 30.4536L9.63449 29.8934L9.70149 29.476L9.63449 28.9836L9.49379 28.4978L9.28609 28.0054L8.80503 27.655L8.11493 27.3783L7.42617 27.3046H3.70499V31.6395V31.6395ZM21.2858 19.6981V24.8638H23.147L26.7329 19.6981H29.9053L25.5637 26.3257L29.9737 33.8029H26.6672L23.147 27.6543H21.2858V33.8036H18.5287V19.6981H21.2858ZM45.9686 29.7514L49.3474 29.259L48.6573 30.5876L47.7608 31.7735L46.6567 32.7517L45.4199 33.5202L43.9727 33.9382L42.4544 34.1479L40.8009 33.9382L39.2143 33.3795L37.8361 32.542L36.7346 31.3561L35.9038 29.9604L35.3544 28.4228L35.1467 26.7511L35.3558 25.0045L35.9038 23.4668L36.7346 22.0719L37.8368 20.953L39.2143 20.0418L40.8022 19.4823L42.4558 19.3483L43.974 19.4823L45.4212 19.9741L46.658 20.6749L47.7615 21.6531L48.6593 22.8404L49.3494 24.1623L45.9693 23.6765L45.2792 22.975L44.4564 22.3479L43.5599 21.9962L42.4558 21.8622L41.2163 22.0712L40.1148 22.5569L39.284 23.3254L38.5939 24.3036L38.1785 25.4225L38.0445 26.7518L38.1785 28.0047L38.5939 29.192L39.284 30.1702L40.1135 30.9386L41.2156 31.4318L42.4551 31.5658L43.5593 31.4304L44.4557 31.0793L45.2785 30.5206L45.9686 29.7514V29.7514ZM14.8739 35.1255V18.3701H15.3563V35.1255H14.8739ZM33.0054 35.1255V18.3701H33.4208V35.1255H33.0054ZM51.076 35.1255V18.3701H51.4914V35.1255H51.076ZM66.7969 23.2584L66.5202 23.6088L66.0404 23.7428H65.4173L64.6535 23.5351L63.8964 23.2584L63.0007 22.8397L62.2449 22.4142L61.4161 21.8622L60.7997 21.3697L60.2436 20.8103L59.9032 20.3252L59.8295 20.1845H59.7639V20.1161L59.6942 20.1831L59.6205 20.2501V21.229L59.9019 22.0712L60.5163 22.9757L61.2814 23.8179L62.2442 24.6534L63.274 25.3475L64.4532 25.9076L65.5487 26.2574L66.6542 26.3244L67.6243 26.1167V25.9076L67.3443 24.5113L66.7962 23.2571L66.7969 23.2584V23.2584ZM57.9663 21.0206V20.6012H57.9013L57.8329 20.6749L57.6936 20.8103L57.5529 20.9523L56.9365 22.1382L56.7308 23.3931L56.8628 24.7217L57.2795 25.9813L57.9669 27.1692L58.9317 28.2814L60.0372 29.3333L61.2077 30.1025L62.5176 30.7296L63.8308 31.08H65.1406L66.3801 30.7973L67.0702 29.61L67.4856 28.2144L66.7285 28.5655L65.8321 28.7062L64.7266 28.5655L63.6224 28.2144L62.5169 27.7293L61.4148 27.0279L60.385 26.2587L59.4852 25.3475L58.7227 24.3023L58.1746 23.2584L57.8999 22.1395L57.9656 21.0206H57.9663ZM57.0712 20.2501L57.1402 20.1831L57.2809 20.0424L57.3459 19.9741L57.4196 19.9071H57.2795L57.2105 19.9741L57.0042 20.0411L56.8621 20.1161L55.6253 21.0206L54.7288 22.0712L54.1071 23.3254L53.6903 24.7217L53.5563 26.1173L53.6903 27.588L54.1071 29.0506L54.7288 30.3792L55.6253 31.6408L56.7308 32.686L58.109 33.5215L59.6942 34.0816V34.1486H60.3106L61.4871 34.0146L62.6596 33.7305L63.209 33.5215L63.7651 33.2455L64.3132 32.8944L64.4539 32.8274L64.5189 32.7537L63.2084 33.0364L61.9702 32.9627L60.6597 32.6183L59.4872 31.9845L58.3844 31.216L57.3459 30.2378L56.5238 29.1256L55.8337 27.9384L55.3526 26.6774L55.1449 25.3488V23.9526L55.4196 22.6983L56.0407 21.4374L57.0725 20.2515L57.0712 20.2501Z" fill="white"/>
</svg>
