<svg width="121" height="54" viewBox="0 0 121 54" fill="none" xmlns="http://www.w3.org/2000/svg">
<g clip-path="url(#clip0)">
<path d="M56.673 38.2328C56.093 39.2278 55.292 42.1148 53.293 42.6648C52.238 42.9558 51.392 42.7528 50.61 42.8878C49.74 43.0378 49.41 43.6428 48.409 43.6918C46.381 43.7898 46.954 42.6988 45.179 44.1998C42.997 46.0448 40.979 44.6798 41.072 41.7698C41.164 38.9628 37.635 38.6888 38.449 35.2528C39.392 31.2698 37.616 28.2978 40.339 26.1728C42.087 24.8098 42.205 23.9018 44.468 22.5618C46.302 21.4758 49.335 20.8418 51.782 21.9218C53.39 22.6318 54.396 23.9128 55.611 25.2738C56.688 26.4798 58.157 27.9468 58.592 29.5948C59.317 32.3488 58.786 34.6188 56.674 38.2328H56.673ZM52.193 41.2798C53.226 41.1548 53.893 40.6968 54.258 39.8238C54.388 39.5108 54.33 39.2628 54.023 39.5758C53.455 40.1588 52.559 40.6638 51.851 40.9498C50.929 41.3248 51.691 41.3398 52.193 41.2798ZM48.796 42.1158C49.748 41.7878 49.352 41.7538 48.63 41.6838C48.275 41.6508 47.931 41.6738 47.43 41.6938C46.104 41.7478 47.864 42.4378 48.797 42.1158H48.796ZM39.972 36.8008C39.838 36.4228 39.963 35.4058 39.529 35.3778C39.143 35.3528 39.12 35.9808 39.131 36.2488C39.253 38.9168 42.046 37.5138 42.113 41.5308C42.138 42.9578 42.459 43.4438 42.769 43.4168C43.081 43.3908 43.382 42.8488 43.366 42.2228C43.296 39.6268 40.556 38.4418 39.972 36.8008ZM51.744 22.8508C50.535 22.0098 48.899 21.8958 47.707 22.1148C46.547 22.3248 46.749 23.1748 47.643 22.9428C47.969 22.8598 49.893 22.3808 51.331 22.9558C52.43 23.3958 52.249 23.2018 51.745 22.8518L51.744 22.8508ZM48.5 24.1838C44.045 24.1838 40.433 27.8358 40.433 32.3398C40.433 36.8438 44.045 40.4958 48.5 40.4958C52.958 40.4958 56.57 36.8438 56.57 32.3398C56.57 27.8348 52.957 24.1838 48.5 24.1838V24.1838ZM48.5 40.1608C44.232 40.1608 40.77 36.6628 40.77 32.3468C40.77 28.0328 44.232 24.5328 48.5 24.5328C52.77 24.5328 56.232 28.0318 56.232 32.3468C56.232 36.6628 52.771 40.1608 48.5 40.1608ZM48.074 39.2628L51.547 33.1328H50.954L47.48 39.2628H48.074V39.2628ZM46.074 38.8968L49.342 33.1348H48.749L45.598 38.6948C45.754 38.7678 45.913 38.8348 46.075 38.8968H46.074ZM43.886 37.5548C45.3674 36.5239 46.3937 34.9609 46.751 33.1918C45.0717 32.6947 43.266 32.8579 41.703 33.6478C41.9841 35.1537 42.7509 36.5261 43.886 37.5548V37.5548ZM48.499 25.3568C44.815 25.3568 41.804 28.2678 41.597 31.9398C41.836 31.9648 42.079 31.9778 42.327 31.9778C46.012 31.9778 49.022 29.0668 49.231 25.3958C48.9879 25.3692 48.7435 25.3562 48.499 25.3568V25.3568ZM50.869 26.2218L47.622 31.9518H48.216L51.463 26.2218H50.868H50.869ZM52.979 27.0218C51.6168 28.1223 50.7163 29.6932 50.455 31.4248C51.203 31.7048 52.012 31.8568 52.856 31.8568C53.736 31.8568 54.576 31.6888 55.35 31.3868C55.1203 29.6912 54.2772 28.1387 52.98 27.0228L52.979 27.0218ZM53.153 33.1328L49.695 39.2338C52.695 38.7058 55.03 36.2238 55.372 33.1338H53.152H53.153V33.1328ZM50.355 38.7388L53.343 33.4658H54.993C54.573 35.9788 52.755 38.0288 50.354 38.7388H50.355ZM50.79 38.3748C51.052 38.2748 51.306 38.1558 51.547 38.0228L51.317 37.4488L50.791 38.3748H50.79ZM54.753 33.6688H54.398L54.616 34.2088C54.669 34.0308 54.7143 33.8507 54.752 33.6688H54.753ZM54.518 34.5068L54.182 33.6668H53.668L54.26 35.1388C54.357 34.9328 54.444 34.7228 54.52 34.5068H54.518V34.5068ZM54.138 35.3778L53.455 33.6748L53.153 34.2048L53.833 35.8978C53.9429 35.7294 54.0447 35.5559 54.138 35.3778V35.3778ZM53.696 36.0978L53.026 34.4298L52.726 34.9608L53.359 36.5358C53.477 36.3948 53.59 36.2488 53.696 36.0988V36.0978ZM53.21 36.7058L52.6 35.1848L52.299 35.7158L52.845 37.0778C52.973 36.9598 53.093 36.8348 53.21 36.7058ZM52.687 37.2218L52.171 35.9408L51.87 36.4708L52.299 37.5368C52.433 37.4378 52.561 37.3308 52.687 37.2218V37.2218ZM51.742 36.6948L51.442 37.2248L51.722 37.9218C51.862 37.8398 51.999 37.7518 52.131 37.6588L51.742 36.6938V36.6948ZM50.826 31.2028C51.106 29.7515 51.861 28.4347 52.972 27.4598C54.0256 28.4466 54.7309 29.7483 54.982 31.1698C54.2976 31.4054 53.5788 31.5254 52.855 31.5248C52.1656 31.5256 51.4805 31.4173 50.825 31.2038V31.2028H50.826ZM52.385 31.3028L52.675 30.3168L52.008 30.6718L51.841 31.2418C52.021 31.2698 52.203 31.2918 52.386 31.3038H52.385V31.3028ZM51.641 31.2058L51.76 30.8058L51.2 31.1028C51.346 31.1428 51.493 31.1768 51.642 31.2058H51.641ZM51.089 30.9318L51.891 30.5058L51.238 30.4218C51.1819 30.5902 51.1322 30.7606 51.089 30.9328V30.9318ZM51.307 30.2258L52.201 30.3408L52.904 29.9658L51.489 29.7858C51.422 29.9288 51.362 30.0758 51.307 30.2258ZM51.582 29.5918L53.214 29.8018L53.917 29.4258L51.819 29.1578C51.734 29.2978 51.655 29.4438 51.582 29.5918ZM52.969 27.7358C52.759 27.9308 52.565 28.1378 52.384 28.3558L53.639 28.5158C53.4362 28.2389 53.2122 27.9781 52.969 27.7358V27.7358ZM53.796 28.7408L52.236 28.5408C52.13 28.6788 52.031 28.8208 51.936 28.9668L54.101 29.2458C54.007 29.073 53.9053 28.9044 53.796 28.7408V28.7408ZM54.751 31.0328C54.6871 30.7198 54.6002 30.412 54.491 30.1118L54.174 31.1838C54.368 31.1438 54.561 31.0918 54.75 31.0328H54.751ZM53.952 31.2268L54.37 29.8068C54.3255 29.7003 54.2774 29.5952 54.226 29.4918L53.84 29.6968L53.367 31.3018C53.563 31.2858 53.758 31.2608 53.952 31.2268ZM53.592 29.8288L52.923 30.1848L52.59 31.3168C52.7776 31.3242 52.9654 31.3239 53.153 31.3158L53.591 29.8288H53.592ZM42.326 31.6468C42.2006 31.6458 42.0752 31.6418 41.95 31.6348C42.303 28.2718 45.12 25.6878 48.499 25.6878C48.626 25.6878 48.752 25.6918 48.877 25.6978C48.524 29.0618 45.705 31.6458 42.327 31.6458L42.326 31.6468ZM43.794 31.2708L42.624 31.1908L42.328 31.4438C42.832 31.4438 43.322 31.3838 43.794 31.2708V31.2708ZM42.199 31.2888L42.742 30.8238L42.782 29.4658C42.4978 30.041 42.3013 30.6555 42.199 31.2888V31.2888ZM44.364 31.1068C44.744 30.9768 45.109 30.8118 45.456 30.6138L43.456 30.4778L42.842 31.0028L44.363 31.1058H44.364V31.1068ZM42.993 29.0708L42.948 30.6478L43.609 30.0818L43.668 28.1258C43.417 28.4188 43.192 28.7358 42.994 29.0698L42.993 29.0708V29.0708ZM43.873 27.8958L43.815 29.9058L44.476 29.3388L44.536 27.2838C44.3011 27.4719 44.0796 27.676 43.873 27.8948V27.8958ZM44.743 27.1268L44.683 29.1618L45.343 28.5958L45.4 26.7028C45.1729 26.831 44.9539 26.973 44.744 27.1278H44.743V27.1268ZM45.603 26.5928L45.55 28.4198L46.212 27.8528L46.259 26.3008C46.0353 26.3855 45.8166 26.483 45.604 26.5928H45.603ZM46.461 26.2278L46.419 27.6778L47.081 27.1098L47.112 26.0448C46.892 26.0931 46.6749 26.1542 46.462 26.2278H46.461ZM48.498 25.8908C48.094 25.8908 47.699 25.9288 47.314 26.0018L47.287 26.9338L48.505 25.8908H48.498V25.8908ZM48.627 26.0528L47.837 26.7298L48.467 26.7718C48.533 26.5368 48.587 26.2978 48.627 26.0528ZM48.406 26.9708L47.616 26.9178L47.004 27.4418L48.204 27.5218C48.279 27.3428 48.347 27.1588 48.406 26.9708ZM48.116 27.7198L46.784 27.6288L46.171 28.1528L47.83 28.2648C47.9339 28.0874 48.0294 27.9052 48.116 27.7188V27.7198ZM47.711 28.4598L45.951 28.3398L45.34 28.8648L47.33 29.0008C47.466 28.8268 47.594 28.6478 47.712 28.4608H47.711V28.4598ZM47.172 29.1928L45.119 29.0528L44.508 29.5758L46.664 29.7238C46.843 29.5558 47.012 29.3788 47.172 29.1918V29.1928V29.1928ZM44.287 29.7648L43.675 30.2878L45.757 30.4298C46 30.2738 46.232 30.0998 46.453 29.9118L44.287 29.7648ZM46.36 33.4268C45.989 34.9018 45.1258 36.206 43.913 37.1238C42.9977 36.2264 42.3606 35.0841 42.078 33.8338C43.4186 33.2192 44.9276 33.0758 46.36 33.4268V33.4268ZM45.222 33.4568L45.046 34.0938L45.957 33.5478C45.714 33.5027 45.4686 33.4719 45.222 33.4558V33.4568ZM46.07 33.7168L45.444 34.0908L45.92 34.1478C45.974 34.0068 46.024 33.8628 46.07 33.7178V33.7168ZM45.84 34.3418L45.161 34.2618L44.412 34.7098L45.596 34.8508C45.684 34.6848 45.766 34.5158 45.84 34.3408V34.3418ZM45.489 35.0418L44.127 34.8798L43.379 35.3288L45.169 35.5418C45.2833 35.3801 45.3901 35.2133 45.489 35.0418ZM43.929 36.8548C44.108 36.7118 44.279 36.5598 44.439 36.3998L43.436 36.2818C43.589 36.4818 43.753 36.6718 43.93 36.8548H43.929ZM43.274 36.0578L44.618 36.2168C44.764 36.0628 44.901 35.8978 45.031 35.7298L43.093 35.4978L42.967 35.5748C43.063 35.7398 43.164 35.8998 43.274 36.0578V36.0578ZM42.312 33.9508C42.419 34.3808 42.573 34.7978 42.766 35.1938L43.194 33.6478C42.894 33.7268 42.599 33.8278 42.312 33.9508ZM43.418 33.5938L42.928 35.3598L43.738 34.8768L44.124 33.4768C43.8862 33.5017 43.6501 33.5408 43.417 33.5938H43.418ZM43.988 34.7268L44.796 34.2428L45.017 33.4448C44.7903 33.4368 44.5633 33.4412 44.337 33.4578L43.987 34.7278V34.7268H43.988ZM49.964 17.8158L48.042 17.8858C48.0187 17.8862 47.9955 17.8819 47.9739 17.8732C47.9523 17.8644 47.9327 17.8514 47.9163 17.8348C47.8999 17.8183 47.8869 17.7986 47.8783 17.777C47.8696 17.7553 47.8655 17.7321 47.866 17.7088V14.0588C47.866 13.8568 47.911 13.5768 47.97 13.2598L47.9 13.2418C47.9 13.2418 46.778 15.4138 46.08 16.6318C45.385 17.8518 44.77 17.7968 44.612 17.7968H43.952C43.9275 17.7967 43.9032 17.7917 43.8805 17.7822C43.8579 17.7727 43.8373 17.7588 43.8201 17.7413C43.8028 17.7239 43.7891 17.7032 43.7799 17.6805C43.7706 17.6577 43.7659 17.6334 43.766 17.6088V12.5078L43.029 12.4178C42.925 12.4048 42.839 12.3418 42.839 12.2388V11.6828C42.839 11.5808 42.924 11.5028 43.029 11.4908L45.127 11.2808C45.1517 11.2789 45.1764 11.2821 45.1998 11.2903C45.2231 11.2985 45.2444 11.3115 45.2624 11.3284C45.2804 11.3454 45.2947 11.3659 45.3042 11.3887C45.3138 11.4115 45.3185 11.4361 45.318 11.4608V14.6748C45.318 14.9998 45.257 15.4048 45.175 15.8148L45.257 15.8338C45.257 15.8338 47.178 11.9768 47.332 11.7038C47.487 11.4288 47.681 11.3878 47.777 11.3878H49.235C49.337 11.3878 49.421 11.4738 49.421 11.5778V16.8858L49.966 17.0608C50.058 17.0888 50.142 17.1368 50.142 17.2378V17.6278C50.142 17.7298 50.062 17.8158 49.966 17.8178L49.964 17.8158V17.8158ZM44.794 9.14081C44.752 9.00381 44.829 8.94082 44.909 8.91482L45.576 8.71982C45.621 8.70782 45.737 8.68781 45.776 8.80381C45.828 8.98325 45.9368 9.14096 46.0861 9.25319C46.2355 9.36542 46.4172 9.42611 46.604 9.42611C46.7908 9.42611 46.9726 9.36542 47.1219 9.25319C47.2712 9.14096 47.3801 8.98325 47.432 8.80381C47.47 8.68781 47.586 8.70781 47.631 8.72081L48.297 8.91482C48.377 8.93982 48.453 9.00381 48.413 9.14081C47.888 10.9248 45.316 10.9248 44.793 9.14081H44.794ZM39.02 17.9608C36.872 17.9608 35.986 16.7538 35.986 14.5868C35.986 12.4188 36.872 11.2138 39.019 11.2138C41.166 11.2138 42.052 12.4188 42.052 14.5868C42.052 16.7538 41.167 17.9598 39.019 17.9598L39.02 17.9608ZM39.02 12.4258C37.847 12.4258 37.555 13.2948 37.555 14.5868C37.555 15.8798 37.847 16.7478 39.02 16.7478C40.192 16.7478 40.484 15.8798 40.484 14.5868C40.484 13.2938 40.192 12.4268 39.02 12.4268V12.4258ZM35.766 30.2928H35.274C35.274 30.2928 34.446 30.3008 33.937 29.7218C33.429 29.1418 33.209 28.0668 32.755 27.7588C32.503 27.5878 32.178 27.5438 31.969 27.5358V30.0278C31.969 30.0773 31.9495 30.1248 31.9147 30.16C31.8798 30.1952 31.8325 30.2153 31.783 30.2158H30.602C30.5525 30.2153 30.5052 30.1952 30.4704 30.16C30.4355 30.1248 30.416 30.0773 30.416 30.0278V24.8578L29.786 24.7508C29.688 24.7348 29.605 24.6678 29.605 24.5658V24.0098C29.605 23.9068 29.687 23.8308 29.785 23.8248L31.785 23.6958C31.886 23.6908 31.969 23.7808 31.969 23.8818V26.2648H32.341C32.341 26.2648 32.568 26.2748 32.869 25.7708C33.168 25.2648 33.528 24.4108 34.019 24.0918C34.3729 23.8724 34.7827 23.7599 35.199 23.7678H35.687C35.75 23.7678 35.797 23.8178 35.797 23.8798V24.9678C35.7974 24.9825 35.7949 24.9971 35.7895 25.0108C35.7842 25.0245 35.7761 25.037 35.7659 25.0475C35.7556 25.0581 35.7434 25.0664 35.7298 25.0722C35.7163 25.0779 35.7017 25.0808 35.687 25.0808H35.198C34.791 25.0808 34.386 25.8358 34.287 26.0008C34.187 26.1678 33.616 26.7508 33.616 26.7508V26.8128C33.616 26.8128 34.172 27.1208 34.434 27.6448C34.697 28.1678 34.93 28.6088 35.188 28.8218C35.3005 28.9107 35.4356 28.9664 35.578 28.9828H35.766C35.826 28.9828 35.876 29.0328 35.876 29.0948V30.1828C35.876 30.2438 35.826 30.2928 35.766 30.2928V30.2928ZM34.944 17.8708H34.455C34.455 17.8708 33.626 17.8788 33.118 17.2998C32.608 16.7198 32.388 15.6428 31.934 15.3368C31.681 15.1658 31.356 15.1218 31.147 15.1138V17.6068C31.1467 17.6563 31.127 17.7037 31.0919 17.7388C31.0569 17.7738 31.0095 17.7936 30.96 17.7938H29.783C29.7338 17.793 29.6869 17.773 29.6524 17.7381C29.6178 17.7031 29.5983 17.656 29.598 17.6068V12.4338L28.968 12.3288C28.87 12.3128 28.787 12.2468 28.787 12.1448L28.786 11.5868C28.786 11.4868 28.868 11.4088 28.968 11.4028L30.966 11.2758C31.066 11.2688 31.15 11.3578 31.15 11.4598V13.8448H31.522C31.522 13.8448 31.75 13.8548 32.049 13.3488C32.349 12.8438 32.709 11.9888 33.202 11.6718C33.692 11.3518 34.204 11.3478 34.379 11.3478H34.869C34.93 11.3478 34.979 11.3978 34.979 11.4578V12.5458C34.9791 12.5603 34.9764 12.5748 34.9709 12.5882C34.9655 12.6017 34.9574 12.6139 34.9471 12.6242C34.9369 12.6346 34.9248 12.6428 34.9113 12.6483C34.8979 12.6539 34.8835 12.6568 34.869 12.6568H34.38C33.973 12.6568 33.568 13.4128 33.469 13.5788C33.369 13.7448 32.799 14.3268 32.799 14.3268V14.3898C32.799 14.3898 33.352 14.6978 33.615 15.2198C33.879 15.7428 34.111 16.1858 34.369 16.3978C34.4816 16.4864 34.6166 16.5419 34.759 16.5578H34.947C35.007 16.5578 35.057 16.6098 35.057 16.6708V17.7608C35.057 17.8208 35.007 17.8718 34.947 17.8718H34.944V17.8708ZM29.034 29.6158V30.0098C29.031 30.1528 28.928 30.2068 28.778 30.2148L27.274 30.2748C27.04 30.2828 26.979 29.9368 26.964 29.4128C26.449 30.0208 25.851 30.4418 25.036 30.3758C23.766 30.3088 23.355 29.5618 23.269 28.5538C23.208 26.9828 24.395 26.2918 26.804 26.4628C26.804 24.5628 25.766 24.6728 24.358 25.0768C24.197 25.1238 23.897 25.2898 23.83 25.0858L23.7 24.3648C23.682 24.2488 23.724 24.1728 23.807 24.1248C25.659 23.2878 28.297 23.2978 28.297 26.0028V29.2878C28.479 29.3278 28.662 29.3678 28.846 29.4108C28.96 29.4408 29.03 29.5048 29.035 29.6158H29.034ZM26.804 27.4988C26.132 27.4568 24.739 27.4228 24.736 28.4098C24.733 29.4438 26.274 29.4018 26.804 28.5288V27.4988ZM27.965 17.6498C27.317 17.8398 26.648 17.9518 26.063 17.9498C23.928 17.9438 22.938 16.4638 22.932 14.6558C22.923 11.5958 25.203 10.7078 27.741 11.4858C27.901 11.5298 27.942 11.6278 27.939 11.7778L27.884 13.1288C27.882 13.2658 27.84 13.3488 27.759 13.3638H27.229C27.169 13.3678 27.128 13.3238 27.105 13.2378L26.991 12.6858C26.967 12.5658 26.836 12.5078 26.674 12.4878C25.335 12.2318 24.565 13.0078 24.541 14.4058C24.504 16.5218 25.88 17.1598 27.63 16.4858C27.806 16.4188 27.963 16.4008 27.996 16.6028L28.11 17.3228C28.138 17.5028 28.118 17.6048 27.966 17.6488V17.6498H27.965ZM19.781 23.7938C21.065 23.7938 22.471 24.8208 22.471 27.1488C22.471 29.4738 20.996 30.3988 19.392 30.3988C17.79 30.3988 16.427 29.2388 16.427 26.6688C16.427 24.0988 17.22 22.7898 18.021 22.1978C18.824 21.6048 19.806 21.3708 20.281 21.1348C20.755 20.8998 20.863 20.5468 20.893 20.4648C20.923 20.3818 21.003 20.2548 21.173 20.3108C21.343 20.3678 22.201 20.6808 22.233 20.6958C22.266 20.7108 22.423 20.7718 22.307 20.9958C22.19 21.2208 21.833 22.0498 21.049 22.4028C20.263 22.7568 19.341 22.7378 18.673 23.2708C18.003 23.8018 17.676 24.8478 17.676 24.8478C17.676 24.8478 18.496 23.7938 19.78 23.7938H19.781V23.7938ZM19.446 29.1488C20.489 29.1488 20.866 28.2358 20.866 27.1128C20.866 25.9898 20.49 25.0788 19.446 25.0788C18.406 25.0788 18.029 25.9888 18.029 27.1128C18.029 28.2358 18.405 29.1488 19.446 29.1488ZM21.43 17.7958H20.248C20.1989 17.7948 20.1522 17.7747 20.1176 17.7398C20.0831 17.7049 20.0635 17.6579 20.063 17.6088V15.2298H17.84V17.6088C17.8398 17.658 17.8202 17.7051 17.7857 17.7401C17.7511 17.775 17.7042 17.795 17.655 17.7958H16.475C16.4255 17.7956 16.3781 17.7758 16.3431 17.7408C16.3081 17.7057 16.2883 17.6583 16.288 17.6088V12.4358L15.658 12.3308C15.561 12.3148 15.478 12.2488 15.478 12.1468V11.5888C15.478 11.4888 15.558 11.4108 15.658 11.4048L17.658 11.2778C17.759 11.2708 17.841 11.3598 17.841 11.4618V13.9868H20.062V11.5748C20.062 11.4708 20.146 11.3878 20.248 11.3878H21.43C21.53 11.3878 21.615 11.4728 21.615 11.5748V17.6078C21.6153 17.6572 21.596 17.7048 21.5613 17.74C21.5266 17.7752 21.4794 17.7953 21.43 17.7958H21.429H21.43ZM15.67 29.6168V30.0108C15.668 30.1528 15.564 30.2068 15.413 30.2148L13.909 30.2748C13.674 30.2828 13.614 29.9378 13.599 29.4138C13.085 30.0208 12.487 30.4418 11.673 30.3758C10.403 30.3088 9.99001 29.5628 9.90401 28.5548C9.84401 26.9828 11.03 26.2918 13.44 26.4628C13.44 24.5628 12.403 24.6738 10.994 25.0778C10.832 25.1238 10.532 25.2898 10.465 25.0858L10.336 24.3658C10.318 24.2488 10.359 24.1728 10.444 24.1258C12.296 23.2888 14.933 23.2988 14.933 26.0028V29.2878C15.115 29.3278 15.298 29.3678 15.482 29.4108C15.596 29.4408 15.666 29.5048 15.67 29.6158V29.6168ZM13.44 27.4998C12.768 27.4568 11.376 27.4228 11.37 28.4098C11.369 29.4438 12.91 29.4018 13.44 28.5298V27.4998ZM11.636 17.9598C9.48901 17.9598 8.60201 16.7548 8.60201 14.5868C8.60201 12.4188 9.49001 11.2148 11.636 11.2148C13.784 11.2148 14.669 12.4188 14.669 14.5868C14.669 16.7548 13.784 17.9608 11.636 17.9608V17.9598ZM11.636 12.4268C10.463 12.4268 10.172 13.2948 10.172 14.5868C10.172 15.8798 10.464 16.7488 11.636 16.7488C12.808 16.7488 13.1 15.8798 13.1 14.5868C13.1 13.2938 12.807 12.4268 11.636 12.4268ZM7.77501 19.7198H6.70301C6.68082 19.7197 6.65887 19.7152 6.63841 19.7066C6.61796 19.698 6.5994 19.6854 6.5838 19.6696C6.5682 19.6538 6.55586 19.6351 6.54749 19.6146C6.53912 19.594 6.53488 19.572 6.53501 19.5498V17.7978H1.40701V19.5508C1.40701 19.6438 1.33201 19.7208 1.24001 19.7208H0.167012C0.144818 19.7206 0.122893 19.7159 0.102489 19.7072C0.0820846 19.6985 0.0636009 19.6858 0.0480932 19.6699C0.0325855 19.654 0.0203576 19.6352 0.0121078 19.6146C0.00385794 19.594 -0.000252229 19.572 1.19745e-05 19.5498V16.9798C1.19745e-05 16.9098 0.044012 16.8478 0.106012 16.8228C1.95101 15.5838 1.58501 13.2298 1.83101 11.2128C2.01201 9.73982 2.67901 9.12282 4.11101 9.12282H6.94801C7.04801 9.12282 7.13201 9.20881 7.13201 9.31081V16.5288H7.77501C7.81975 16.5293 7.86248 16.5475 7.89393 16.5793C7.92538 16.6111 7.94301 16.6541 7.94301 16.6988V19.5488C7.94301 19.5936 7.92538 19.6365 7.89393 19.6683C7.86248 19.7001 7.81975 19.7183 7.77501 19.7188V19.7198ZM5.58001 10.6538C5.58001 10.5018 5.47401 10.4158 5.37901 10.4158H4.21901C3.69301 10.4158 3.37501 10.7438 3.30901 11.3538C3.14601 12.8508 3.39001 15.1528 2.36001 16.5298H5.58001V10.6538ZM3.17301 21.5458H9.56501C9.59932 21.5461 9.63213 21.5599 9.65629 21.5842C9.68045 21.6086 9.69401 21.6415 9.69401 21.6758V23.6338C9.69414 23.6498 9.69111 23.6656 9.68509 23.6804C9.67907 23.6952 9.67018 23.7087 9.65893 23.72C9.64768 23.7314 9.63429 23.7404 9.61955 23.7465C9.6048 23.7527 9.58899 23.7558 9.57301 23.7558H8.85601C8.79201 23.7558 8.75601 23.6988 8.73801 23.6338L8.55101 22.8888H7.15801V28.9688L8.04801 29.2208C8.12001 29.2408 8.18401 29.2848 8.18401 29.3618V30.0758C8.18428 30.0939 8.18097 30.1119 8.17428 30.1288C8.16759 30.1456 8.15764 30.161 8.14501 30.174C8.13238 30.187 8.11732 30.1974 8.10067 30.2045C8.08403 30.2117 8.06614 30.2156 8.04801 30.2158H4.69201C4.67389 30.2156 4.65599 30.2117 4.63935 30.2045C4.62271 30.1974 4.60764 30.187 4.59501 30.174C4.58238 30.161 4.57244 30.1456 4.56575 30.1288C4.55906 30.1119 4.55575 30.0939 4.55601 30.0758V29.3608C4.55601 29.2848 4.61901 29.2408 4.69101 29.2208L5.58001 28.9698V22.8888H4.18901L3.99901 23.6318C3.98401 23.6968 3.94601 23.7538 3.88101 23.7538H3.16401C3.14825 23.7536 3.1327 23.7502 3.11824 23.7439C3.10378 23.7376 3.0907 23.7286 3.07974 23.7173C3.06878 23.7059 3.06016 23.6926 3.05438 23.6779C3.04859 23.6632 3.04575 23.6476 3.04601 23.6318V21.6758C3.046 21.6419 3.05929 21.6092 3.08302 21.5849C3.10676 21.5606 3.13906 21.5466 3.17301 21.5458V21.5458Z" fill="white"/>
</g>
<defs>
<clipPath id="clip0">
<rect width="121" height="54" fill="white"/>
</clipPath>
</defs>
</svg>
