<svg width="121" height="54" xmlns="http://www.w3.org/2000/svg" xmlns:xlink="http://www.w3.org/1999/xlink"><defs><path d="M56.673 38.233c-.58.995-1.381 3.882-3.38 4.432-1.055.291-1.901.088-2.683.223-.87.15-1.2.755-2.201.804-2.028.098-1.455-.993-3.23.508-2.182 1.845-4.2.48-4.107-2.43.092-2.807-3.437-3.081-2.623-6.517.943-3.983-.833-6.955 1.89-9.08 1.748-1.363 1.866-2.271 4.129-3.611 1.834-1.086 4.867-1.72 7.314-.64 1.608.71 2.614 1.991 3.829 3.352 1.077 1.206 2.546 2.673 2.981 4.321.725 2.754.194 5.024-1.918 8.638zm-4.48 3.047c1.033-.125 1.7-.583 2.065-1.456.13-.313.072-.561-.235-.248-.568.583-1.464 1.088-2.172 1.374-.922.375-.16.39.342.33zm-3.397.836c.952-.328.556-.362-.166-.432-.355-.033-.699-.01-1.2.01-1.326.054.434.744 1.367.422zm-8.824-5.315c-.134-.378-.009-1.395-.443-1.423-.386-.025-.409.603-.398.871.122 2.668 2.915 1.265 2.982 5.282.025 1.427.346 1.913.656 1.886.312-.026.613-.568.597-1.194-.07-2.596-2.81-3.781-3.394-5.422zm11.772-13.95c-1.209-.841-2.845-.955-4.037-.736-1.16.21-.958 1.06-.064.828.326-.083 2.25-.562 3.688.013 1.099.44.918.246.414-.104zM48.5 24.184c-4.455 0-8.067 3.652-8.067 8.156 0 4.504 3.612 8.156 8.067 8.156 4.458 0 8.07-3.652 8.07-8.156 0-4.505-3.613-8.156-8.07-8.156zm0 15.977c-4.268 0-7.73-3.498-7.73-7.814 0-4.314 3.462-7.814 7.73-7.814 4.27 0 7.732 3.499 7.732 7.814 0 4.316-3.461 7.814-7.732 7.814zm-.426-.898l3.473-6.13h-.593l-3.474 6.13h.594zm-2-.366l3.268-5.762h-.593l-3.151 5.56c.156.073.315.14.477.202zm-2.188-1.342a7.005 7.005 0 0 0 2.865-4.363 6.869 6.869 0 0 0-5.048.456 7.008 7.008 0 0 0 2.183 3.907zm4.613-12.198c-3.684 0-6.695 2.911-6.902 6.583.239.025.482.038.73.038 3.685 0 6.695-2.911 6.904-6.582a6.586 6.586 0 0 0-.732-.039zm2.37.865l-3.247 5.73h.594l3.247-5.73h-.595zm2.11.8a7.004 7.004 0 0 0-2.524 4.403c.748.28 1.557.432 2.401.432.88 0 1.72-.168 2.494-.47a6.995 6.995 0 0 0-2.37-4.364zm.174 6.111l-3.458 6.101c3-.528 5.335-3.01 5.677-6.1h-2.22.001zm-2.798 5.606l2.988-5.273h1.65c-.42 2.513-2.238 4.563-4.639 5.273zm.435-.364c.262-.1.516-.219.757-.352l-.23-.574-.526.926zm3.963-4.706h-.355l.218.54a6.56 6.56 0 0 0 .136-.54zm-.235.838l-.336-.84h-.514l.592 1.472c.097-.206.184-.416.26-.632h-.002zm-.38.871l-.683-1.703-.302.53.68 1.693a6.32 6.32 0 0 0 .305-.52zm-.442.72l-.67-1.668-.3.531.633 1.575c.118-.141.231-.287.337-.437zm-.486.608l-.61-1.521-.301.531.546 1.362c.128-.118.248-.243.365-.372zm-.523.516l-.516-1.281-.301.53.429 1.066c.134-.099.262-.206.388-.315zm-.945-.527l-.3.53.28.697c.14-.082.277-.17.409-.263l-.389-.965v.001zm-.916-5.492a6.658 6.658 0 0 1 2.146-3.743 6.674 6.674 0 0 1 2.01 3.71 6.52 6.52 0 0 1-2.127.355 6.53 6.53 0 0 1-2.03-.321v-.001zm1.559.1l.29-.986-.667.355-.167.57c.18.028.362.05.545.062h-.001zm-.744-.097l.119-.4-.56.297c.146.04.293.074.442.103zm-.552-.274l.802-.426-.653-.084a6.967 6.967 0 0 0-.149.511zm.218-.706l.894.115.703-.375-1.415-.18c-.067.143-.127.29-.182.44zm.275-.634l1.632.21.703-.376-2.098-.268c-.085.14-.164.286-.237.434zm1.387-1.856c-.21.195-.404.402-.585.62l1.255.16a6.644 6.644 0 0 0-.67-.78zm.827 1.005l-1.56-.2c-.106.138-.205.28-.3.426l2.165.279a6.505 6.505 0 0 0-.305-.505zm.955 2.292a6.497 6.497 0 0 0-.26-.921l-.317 1.072c.194-.04.387-.092.576-.151h.001zm-.799.194l.418-1.42a5.304 5.304 0 0 0-.144-.315l-.386.205-.473 1.605c.196-.016.391-.041.585-.075zm-.36-1.398l-.669.356-.333 1.132a6.82 6.82 0 0 0 .563-.001l.438-1.487zm-11.266 1.818a7.85 7.85 0 0 1-.376-.012c.353-3.363 3.17-5.947 6.549-5.947.127 0 .253.004.378.01-.353 3.364-3.172 5.948-6.55 5.948zm1.468-.376l-1.17-.08-.296.253c.504 0 .994-.06 1.466-.173zm-1.595.018l.543-.465.04-1.358a6.43 6.43 0 0 0-.583 1.823zm2.165-.182c.38-.13.745-.295 1.092-.493l-2-.136-.614.525 1.521.103h.001zm-1.371-2.036l-.045 1.577.661-.566.059-1.956c-.251.293-.476.61-.674.944l-.001.001zm.88-1.175l-.058 2.01.661-.567.06-2.055a6.492 6.492 0 0 0-.663.611zm.87-.769l-.06 2.035.66-.566.057-1.893a6.43 6.43 0 0 0-.656.425h-.001zm.86-.534l-.053 1.827.662-.567.047-1.552a6.243 6.243 0 0 0-.655.292zm.858-.365l-.042 1.45.662-.568.031-1.065a5.8 5.8 0 0 0-.65.183zm2.037-.337c-.404 0-.799.038-1.184.111l-.027.932 1.218-1.043h-.007zm.129.162l-.79.677.63.042c.066-.235.12-.474.16-.719zm-.221.918l-.79-.053-.612.524 1.2.08c.075-.179.143-.363.202-.551zm-.29.749l-1.332-.091-.613.524 1.659.112a6.49 6.49 0 0 0 .286-.546zm-.405.74l-1.76-.12-.611.525 1.99.136c.136-.174.264-.353.382-.54h-.001zm-.539.733l-2.053-.14-.611.523 2.156.148c.179-.168.348-.345.508-.532v.001zm-2.885.572l-.612.523 2.082.142c.243-.156.475-.33.696-.518l-2.166-.147zm2.073 3.662a6.68 6.68 0 0 1-2.447 3.697 6.666 6.666 0 0 1-1.835-3.29 6.54 6.54 0 0 1 4.282-.407zm-1.138.03l-.176.637.911-.546a6.257 6.257 0 0 0-.735-.092zm.848.26l-.626.374.476.057c.054-.141.104-.285.15-.43zm-.23.625l-.679-.08-.749.448 1.184.141c.088-.166.17-.335.244-.51zm-.351.7l-1.362-.162-.748.449 1.79.213a6.46 6.46 0 0 0 .32-.5zm-1.56 1.813c.179-.143.35-.295.51-.455l-1.003-.118c.153.2.317.39.494.573h-.001zm-.655-.797l1.344.159c.146-.154.283-.319.413-.487l-1.938-.232-.126.077c.096.165.197.325.307.483zm-.962-2.107c.107.43.261.847.454 1.243l.428-1.546c-.3.079-.595.18-.882.303zm1.106-.357l-.49 1.766.81-.483.386-1.4a6 6 0 0 0-.707.117zm.57 1.133l.808-.484.221-.798a6.27 6.27 0 0 0-.68.013l-.35 1.27v-.001zm5.976-16.911l-1.922.07a.173.173 0 0 1-.176-.177v-3.65c0-.202.045-.482.104-.799l-.07-.018s-1.122 2.172-1.82 3.39c-.695 1.22-1.31 1.165-1.468 1.165h-.66a.187.187 0 0 1-.186-.188v-5.101l-.737-.09c-.104-.013-.19-.076-.19-.179v-.556c0-.102.085-.18.19-.192l2.098-.21a.177.177 0 0 1 .191.18v3.214c0 .325-.061.73-.143 1.14l.082.019s1.921-3.857 2.075-4.13c.155-.275.349-.316.445-.316h1.458c.102 0 .186.086.186.19v5.308l.545.175c.092.028.176.076.176.177v.39c0 .102-.08.188-.176.19l-.002-.002zm-5.17-8.675c-.042-.137.035-.2.115-.226l.667-.195c.045-.012.161-.032.2.084a.862.862 0 0 0 1.656 0c.038-.116.154-.096.199-.083l.666.194c.08.025.156.089.116.226-.525 1.784-3.097 1.784-3.62 0zm-5.774 8.82c-2.148 0-3.034-1.207-3.034-3.374 0-2.168.886-3.373 3.033-3.373s3.033 1.205 3.033 3.373c0 2.167-.885 3.373-3.033 3.373zm0-5.535c-1.173 0-1.465.869-1.465 2.161 0 1.293.292 2.161 1.465 2.161 1.172 0 1.464-.868 1.464-2.161 0-1.293-.292-2.16-1.464-2.16zm-3.254 17.867h-.492s-.828.008-1.337-.571c-.508-.58-.728-1.655-1.182-1.963-.252-.171-.577-.215-.786-.223v2.492a.188.188 0 0 1-.186.188h-1.181a.188.188 0 0 1-.186-.188v-5.17l-.63-.107c-.098-.016-.181-.083-.181-.185v-.556c0-.103.082-.179.18-.185l2-.129c.101-.005.184.085.184.186v2.383h.372s.227.01.528-.494c.299-.506.659-1.36 1.15-1.679a2.161 2.161 0 0 1 1.18-.324h.488c.063 0 .11.05.11.112v1.088a.11.11 0 0 1-.11.113h-.489c-.407 0-.812.755-.911.92-.1.167-.671.75-.671.75v.062s.556.308.818.832c.263.523.496.964.754 1.177a.772.772 0 0 0 .39.161h.188c.06 0 .11.05.11.112v1.088c0 .061-.05.11-.11.11zm-.822-12.422h-.489s-.829.008-1.337-.571c-.51-.58-.73-1.657-1.184-1.963-.253-.171-.578-.215-.787-.223v2.493a.188.188 0 0 1-.187.187h-1.177a.188.188 0 0 1-.185-.187v-5.173l-.63-.105c-.098-.016-.181-.082-.181-.184l-.001-.558c0-.1.082-.178.182-.184l1.998-.127c.1-.007.184.082.184.184v2.385h.372s.228.01.527-.496c.3-.505.66-1.36 1.153-1.677.49-.32 1.002-.324 1.177-.324h.49c.061 0 .11.05.11.11v1.088a.11.11 0 0 1-.11.111h-.489c-.407 0-.812.756-.911.922-.1.166-.67.748-.67.748v.063s.553.308.816.83c.264.523.496.966.754 1.178a.769.769 0 0 0 .39.16h.188c.06 0 .11.052.11.113v1.09c0 .06-.05.111-.11.111h-.003zm-5.91 11.745v.394c-.003.143-.106.197-.256.205l-1.504.06c-.234.008-.295-.338-.31-.862-.515.608-1.113 1.029-1.928.963-1.27-.067-1.681-.814-1.767-1.822-.061-1.571 1.126-2.262 3.535-2.091 0-1.9-1.038-1.79-2.446-1.386-.161.047-.461.213-.528.009l-.13-.721c-.018-.116.024-.192.107-.24 1.852-.837 4.49-.827 4.49 1.878v3.285c.182.04.365.08.549.123.114.03.184.094.189.205zm-2.23-2.117c-.672-.042-2.065-.076-2.068.911-.003 1.034 1.538.992 2.068.119v-1.03zm1.161-9.849c-.648.19-1.317.302-1.902.3-2.135-.006-3.125-1.486-3.131-3.294-.009-3.06 2.271-3.948 4.809-3.17.16.044.201.142.198.292l-.055 1.351c-.002.137-.044.22-.125.235h-.53c-.06.004-.101-.04-.124-.126l-.114-.552c-.024-.12-.155-.178-.317-.198-1.339-.256-2.109.52-2.133 1.918-.037 2.116 1.339 2.754 3.089 2.08.176-.067.333-.085.366.117l.114.72c.028.18.008.282-.144.326v.001zm-8.184 6.144c1.284 0 2.69 1.027 2.69 3.355 0 2.325-1.475 3.25-3.079 3.25-1.602 0-2.965-1.16-2.965-3.73 0-2.57.793-3.879 1.594-4.471.803-.593 1.785-.827 2.26-1.063.474-.235.582-.588.612-.67.03-.083.11-.21.28-.154.17.057 1.028.37 1.06.385.033.015.19.076.074.3-.117.225-.474 1.054-1.258 1.407-.786.354-1.708.335-2.376.868-.67.531-.997 1.577-.997 1.577s.82-1.054 2.104-1.054h.001zm-.335 5.355c1.043 0 1.42-.913 1.42-2.036s-.376-2.034-1.42-2.034c-1.04 0-1.417.91-1.417 2.034 0 1.123.376 2.036 1.417 2.036zm1.984-11.353h-1.182a.189.189 0 0 1-.185-.187v-2.379H17.84v2.379a.188.188 0 0 1-.185.187h-1.18a.188.188 0 0 1-.187-.187v-5.173l-.63-.105c-.097-.016-.18-.082-.18-.184v-.558c0-.1.08-.178.18-.184l2-.127c.101-.007.183.082.183.184v2.525h2.221v-2.412c0-.104.084-.187.186-.187h1.182c.1 0 .185.085.185.187v6.033a.187.187 0 0 1-.185.188h-.001zM15.67 29.617v.394c-.002.142-.106.196-.257.204l-1.504.06c-.235.008-.295-.337-.31-.861-.514.607-1.112 1.028-1.926.962-1.27-.067-1.683-.813-1.769-1.821-.06-1.572 1.126-2.263 3.536-2.092 0-1.9-1.037-1.789-2.446-1.385-.162.046-.462.212-.529.008l-.129-.72c-.018-.117.023-.193.108-.24 1.852-.837 4.489-.827 4.489 1.877v3.285c.182.04.365.08.549.123.114.03.184.094.188.205zm-2.23-2.117c-.672-.043-2.064-.077-2.07.91-.001 1.034 1.54.992 2.07.12V27.5zm-1.804-9.54c-2.147 0-3.034-1.205-3.034-3.373s.888-3.372 3.034-3.372c2.148 0 3.033 1.204 3.033 3.372s-.885 3.374-3.033 3.374zm0-5.533c-1.173 0-1.464.868-1.464 2.16 0 1.293.292 2.162 1.464 2.162s1.464-.869 1.464-2.162-.293-2.16-1.464-2.16zM7.775 19.72H6.703a.169.169 0 0 1-.168-.17v-1.752H1.407v1.753c0 .093-.075.17-.167.17H.167A.169.169 0 0 1 0 19.55v-2.57c0-.07.044-.132.106-.157 1.845-1.239 1.479-3.593 1.725-5.61.181-1.473.848-2.09 2.28-2.09h2.837c.1 0 .184.086.184.188v7.218h.643a.17.17 0 0 1 .168.17v2.85a.17.17 0 0 1-.168.17zM5.58 10.654c0-.152-.106-.238-.201-.238h-1.16c-.526 0-.844.328-.91.938-.163 1.497.081 3.799-.949 5.176h3.22v-5.876zM3.173 21.546h6.392a.13.13 0 0 1 .129.13v1.958a.121.121 0 0 1-.121.122h-.717c-.064 0-.1-.057-.118-.122l-.187-.745H7.158v6.08l.89.252c.072.02.136.064.136.141v.714a.138.138 0 0 1-.136.14H4.692a.138.138 0 0 1-.136-.14v-.715c0-.076.063-.12.135-.14l.889-.251v-6.081H4.189l-.19.743c-.015.065-.053.122-.118.122h-.717a.12.12 0 0 1-.118-.122v-1.956a.13.13 0 0 1 .127-.13z" id="dontabak-w"/></defs><g fill="none" fill-rule="evenodd"><mask id="dontabak-w_b" fill="#fff"><use xlink:href="#dontabak-w"/></mask><use fill="#151515" fill-rule="nonzero" xlink:href="#dontabak-w"/><g mask="url(#dontabak-w_b)" fill="#151515"><path d="M0 0h120.8v53.8H0z"/></g></g></svg>