<svg width="121" height="54" xmlns="http://www.w3.org/2000/svg"><path d="M33.29 15.492h-.095a1.235 1.235 0 0 0-.44-.866 1.621 1.621 0 0 0-1.16-.302h-.896v2.336h.674c.8 0 .984-.159 1.08-.93h.095l-.015 2.082h-.096c-.088-.778-.36-1.032-1.072-1.032h-.666v.89c-.049.408.003.823.152 1.207.184.35.382.508.966.508 1.015 0 1.3-.373 1.532-1.43h.096l-.056 1.55h-4.37v-.088a.785.785 0 0 0 .657-.278c.128-.159.168-.374.168-.85V15.42c0-.477-.04-.691-.168-.85a.783.783 0 0 0-.656-.278v-.088h4.207l.064 1.287zm13.367 0h-.096a1.232 1.232 0 0 0-.44-.866 1.623 1.623 0 0 0-1.16-.302h-.896v2.336h.674c.8 0 .984-.159 1.08-.93h.096l-.017 2.082h-.096c-.087-.778-.36-1.032-1.072-1.032h-.665v.89a2.5 2.5 0 0 0 .152 1.207c.184.35.382.508.966.508 1.016 0 1.301-.373 1.532-1.43h.096l-.055 1.55h-4.37v-.088a.785.785 0 0 0 .656-.278c.128-.16.168-.374.168-.85V15.42c0-.477-.04-.691-.168-.85a.784.784 0 0 0-.656-.278v-.088h4.207l.064 1.287zm15.346 0h-.097a1.233 1.233 0 0 0-.44-.866 1.62 1.62 0 0 0-1.159-.302h-.896v2.336h.673c.8 0 .984-.159 1.08-.93h.096l-.015 2.082h-.097c-.088-.778-.36-1.032-1.071-1.032h-.666v.89c-.05.408.003.823.153 1.207.184.35.38.508.964.508 1.016 0 1.301-.373 1.533-1.43h.096l-.056 1.55h-4.37v-.088a.784.784 0 0 0 .656-.278c.128-.16.168-.374.168-.85V15.42c0-.477-.04-.691-.168-.85a.783.783 0 0 0-.655-.278v-.088h4.207l.064 1.287zm-27.754 2.4h.088c.288 1.088.76 1.62 1.456 1.62.28.01.553-.099.75-.298a.998.998 0 0 0 .29-.75 1.269 1.269 0 0 0-.313-.842 2.959 2.959 0 0 0-.872-.564 2.878 2.878 0 0 1-.92-.612 1.259 1.259 0 0 1-.303-.85 1.48 1.48 0 0 1 .418-1.063 1.5 1.5 0 0 1 1.054-.455c.264.002.523.064.759.183.125.063.26.103.4.119.08 0 .144-.072.176-.199h.088l.032 1.542h-.096a3.328 3.328 0 0 0-.376-.954 1.068 1.068 0 0 0-.936-.564.89.89 0 0 0-.654.252.878.878 0 0 0-.265.646.97.97 0 0 0 .376.755c.305.24.648.428 1.015.556.856.405 1.24.898 1.24 1.605.008.445-.172.872-.495 1.18a1.614 1.614 0 0 1-1.209.44c-.432 0-.858-.106-1.239-.31a.378.378 0 0 0-.136-.023.26.26 0 0 0-.256.19h-.088l.016-1.604zm4.199 0h.087c.289 1.088.76 1.62 1.456 1.62.282.01.554-.098.751-.298a.998.998 0 0 0 .289-.75 1.268 1.268 0 0 0-.312-.842 2.951 2.951 0 0 0-.872-.564 2.89 2.89 0 0 1-.92-.612 1.261 1.261 0 0 1-.304-.85 1.48 1.48 0 0 1 .419-1.063 1.5 1.5 0 0 1 1.053-.455c.264.002.524.064.76.183.125.063.26.103.4.119.08 0 .144-.072.175-.199h.089l.032 1.542h-.097a3.33 3.33 0 0 0-.375-.954 1.069 1.069 0 0 0-.936-.564.89.89 0 0 0-.655.252.879.879 0 0 0-.265.646.968.968 0 0 0 .376.755c.305.24.649.427 1.016.556.856.405 1.24.898 1.24 1.605.007.444-.172.872-.496 1.18a1.614 1.614 0 0 1-1.208.44c-.432 0-.858-.106-1.24-.31a.378.378 0 0 0-.136-.023.26.26 0 0 0-.256.19h-.088l.017-1.604zm9.846.397c0 .484.04.69.169.85.16.192.405.296.656.278v.087H47.31v-.087a.785.785 0 0 0 .656-.278c.128-.16.168-.374.168-.85V15.42c0-.477-.04-.691-.168-.85a.783.783 0 0 0-.656-.278v-.088h1.504l2.928 3.941v-2.725c0-.485-.04-.691-.168-.85a.783.783 0 0 0-.656-.278v-.088h1.808v.088a.793.793 0 0 0-.656.278c-.128.159-.168.373-.168.85v4.084h-.176l-3.432-4.593v3.377zm8.87-2.368h-.09c-.241-.963-.546-1.724-1.522-1.724-1.404 0-1.715 1.626-1.715 2.67 0 1.721.593 2.645 1.714 2.645.99 0 1.5-1.006 1.685-1.723h.09l-.053 1.74h-.082c-.068-.16-.113-.207-.21-.207a.403.403 0 0 0-.157.031 3.185 3.185 0 0 1-1.31.284 2.54 2.54 0 0 1-1.978-.718 2.505 2.505 0 0 1-.745-1.957 3.106 3.106 0 0 1 .749-2.13 2.7 2.7 0 0 1 1.886-.762c.428.003.85.1 1.235.286a.42.42 0 0 0 .158.032c.097 0 .142-.048.21-.207h.082l.052 1.74zM8.703 36.303H.013a1.09 1.09 0 0 1 0-.33h1.41a.061.061 0 0 0 .048-.017.06.06 0 0 0 .018-.049V25.016a.06.06 0 0 0-.018-.049.061.061 0 0 0-.048-.017H.013a1.09 1.09 0 0 1 0-.33H5.07a.56.56 0 0 1 0 .33H3.695c-.067 0-.1.016-.1.066v10.891c0 .05.033.066.1.066h1.343c2.389 0 3.4-1.878 3.4-3.559a1.02 1.02 0 0 1 .316 0v3.84a.043.043 0 0 1-.013.036.044.044 0 0 1-.037.013zm2.24 0a1.09 1.09 0 0 1 0-.33h1.393c.05 0 .083-.016.083-.066V25.016c0-.05-.033-.066-.083-.066h-1.393a1.09 1.09 0 0 1 0-.33h5.059a.555.555 0 0 1 0 .33H14.61c-.067 0-.1.016-.1.066v10.891c0 .05.033.066.1.066h1.393a.555.555 0 0 1 0 .33h-5.059zm15.509-8.272a2.923 2.923 0 0 0-.822-2.182 2.963 2.963 0 0 0-2.164-.9h-1.343c-.083 0-.116.017-.116.067v5.124h.381a2.081 2.081 0 0 0 1.52-.573c.407-.39.637-.926.637-1.487 0-.033.315-.033.315 0v4.45c0 .049-.315.049-.315 0a2.063 2.063 0 0 0-.64-1.484 2.091 2.091 0 0 0-1.517-.576h-.381v5.437c0 .05.033.066.116.066h1.377a.559.559 0 0 1 0 .33h-5.06a1.09 1.09 0 0 1 0-.33h1.41a.061.061 0 0 0 .05-.017.06.06 0 0 0 .017-.049V25.016a.06.06 0 0 0-.017-.049.061.061 0 0 0-.05-.017h-1.41a1.09 1.09 0 0 1 0-.33h8.277a.053.053 0 0 1 .05.05v3.36c-.104.017-.21.018-.315.001zm11.33 8.272H28.71a.555.555 0 0 1 0-.33h1.393c.05 0 .083-.016.083-.066V25.016c0-.05-.033-.066-.083-.066H28.71a.555.555 0 0 1 0-.33h8.26c.066 0 .066.033.066.05v3.36c-.104.017-.21.017-.315 0 0-1.532-.813-3.08-2.787-3.08h-1.542c-.1 0-.133.016-.133.066v5.124h.415a1.917 1.917 0 0 0 1.443-.595 1.89 1.89 0 0 0 .514-1.465c0-.033.282-.033.282 0v4.45c0 .049-.282.049-.282 0a1.9 1.9 0 0 0-.517-1.463 1.926 1.926 0 0 0-1.44-.597h-.415v5.437c0 .05.033.066.133.066h1.592c2.588 0 3.567-1.714 3.567-3.41 0-.034.281-.034.281 0v3.69a.043.043 0 0 1-.012.037.044.044 0 0 1-.037.013zm6.071.28c-1.161 0-2.007-.676-2.554-.676a.882.882 0 0 0-.863.627c-.016.049-.298.049-.298 0v-3.922c0-.033.298-.033.298 0 0 1.335 1.377 3.658 3.4 3.658 1.808 0 2.638-1.088 2.638-2.159 0-1.598-.962-1.895-3.384-2.817-1.476-.56-2.637-1.384-2.637-3.345 0-2.043 1.426-3.609 3.002-3.609 1.028 0 1.194.445 1.908.445.464 0 .63-.214.663-.396-.016-.049.282-.049.282 0v3.016c0 .033-.282.033-.282 0 .032-.7-.22-1.385-.7-1.899a2.644 2.644 0 0 0-1.854-.836 1.963 1.963 0 0 0-1.468.55c-.39.378-.604.901-.589 1.443 0 1.187.863 1.78 2.836 2.521 2.024.775 3.301 1.533 3.301 3.543 0 1.714-1.228 3.856-3.699 3.856zm14.58-8.058c0-1.911-.995-3.575-3.267-3.575h-.15c-.066 0-.099.016-.099.066v10.891c0 .05.033.066.1.066h1.376a.555.555 0 0 1 0 .33h-5.009a.555.555 0 0 1 0-.33h1.377c.066 0 .1-.016.1-.066V25.016c0-.05-.034-.066-.1-.066h-.166c-2.272 0-3.185 1.664-3.185 3.575 0 .033-.282.033-.282 0V24.67a.053.053 0 0 1 .05-.05h9.504c.034 0 .034.033.034.05v3.855c0 .033-.282.033-.282 0zm10.783-3.575c-.1 0-.183.066-.697 1.17l-2.256 5.108v4.68c0 .049.034.065.1.065h1.376a.555.555 0 0 1 0 .33h-5.042a.555.555 0 0 1 0-.33h1.41c.067 0 .083-.016.083-.066v-4.696l-3.035-6.195a.14.14 0 0 0-.116-.066h-1.543a.555.555 0 0 1 0-.33h5.523c.017.11.017.22 0 .33h-1.542c-.067 0-.05.033-.067.066l2.77 5.651 2.24-5.025c.265-.643.282-.692.199-.692h-1.443a.555.555 0 0 1 0-.33h3.317a.555.555 0 0 1 0 .33h-1.277zm10.832 11.353h-8.692a1.09 1.09 0 0 1 0-.33h1.41a.061.061 0 0 0 .05-.017.06.06 0 0 0 .017-.049V25.016a.06.06 0 0 0-.018-.049.061.061 0 0 0-.049-.017h-1.41a1.09 1.09 0 0 1 0-.33h5.059a.555.555 0 0 1 0 .33H75.04c-.067 0-.1.016-.1.066v10.891c0 .05.033.066.1.066h1.343c2.388 0 3.4-1.878 3.4-3.559.105-.016.211-.016.316 0v3.84a.044.044 0 0 1-.013.036.044.044 0 0 1-.037.013zm10.6 0h-9.074a.562.562 0 0 1 0-.33h1.394c.05 0 .083-.016.083-.066V25.016c0-.05-.034-.066-.083-.066h-1.394a.562.562 0 0 1 0-.33h8.26c.067 0 .067.033.067.05v3.36c-.105.017-.211.017-.315 0 0-1.532-.813-3.08-2.787-3.08h-1.542c-.1 0-.133.016-.133.066v5.124h.415a1.917 1.917 0 0 0 1.442-.595 1.89 1.89 0 0 0 .514-1.465c0-.033.283-.033.283 0v4.45c0 .049-.283.049-.283 0a1.9 1.9 0 0 0-.517-1.463 1.926 1.926 0 0 0-1.44-.597h-.414v5.437c0 .05.033.066.133.066h1.592c2.587 0 3.566-1.714 3.566-3.41 0-.034.282-.034.282 0v3.69a.043.043 0 0 1-.013.037.044.044 0 0 1-.037.013z" fill="#231F20" fill-rule="nonzero"/></svg>