<svg width="121" height="54" viewBox="0 0 121 54" fill="none" xmlns="http://www.w3.org/2000/svg">
<path d="M33.2901 15.4918H33.195C33.1841 15.3252 33.1394 15.1626 33.0638 15.0138C32.9881 14.8649 32.8831 14.7329 32.7551 14.6258C32.4212 14.3806 32.0061 14.2726 31.595 14.3238H30.699V16.6598H31.373C32.173 16.6598 32.357 16.5008 32.453 15.7298H32.548L32.5331 17.8118H32.437C32.349 17.0338 32.077 16.7798 31.365 16.7798H30.699V17.6698C30.65 18.0778 30.702 18.4928 30.851 18.8768C31.035 19.2268 31.233 19.3848 31.817 19.3848C32.832 19.3848 33.117 19.0118 33.349 17.9548H33.445L33.389 19.5048H29.019V19.4168C29.1427 19.4257 29.2668 19.4051 29.381 19.3568C29.4952 19.3085 29.5963 19.2338 29.6761 19.1388C29.8041 18.9798 29.844 18.7648 29.844 18.2888V15.4198C29.844 14.9428 29.8041 14.7288 29.6761 14.5698C29.5965 14.4749 29.4955 14.4002 29.3815 14.3519C29.2675 14.3036 29.1436 14.283 29.0201 14.2918V14.2038H33.2271L33.291 15.4908L33.2901 15.4918ZM46.6571 15.4918H46.5611C46.5502 15.3252 46.5056 15.1625 46.43 15.0136C46.3544 14.8648 46.2492 14.7328 46.121 14.6258C45.7871 14.3808 45.3721 14.2728 44.961 14.3238H44.065V16.6598H44.739C45.539 16.6598 45.723 16.5008 45.819 15.7298H45.9151L45.898 17.8118H45.802C45.715 17.0338 45.442 16.7798 44.73 16.7798H44.065V17.6698C44.0156 18.0785 44.0678 18.4932 44.217 18.8768C44.401 19.2268 44.599 19.3848 45.183 19.3848C46.199 19.3848 46.484 19.0118 46.715 17.9548H46.8111L46.7561 19.5048H42.3861V19.4168C42.5096 19.4255 42.6334 19.4049 42.7474 19.3565C42.8614 19.3082 42.9624 19.2336 43.042 19.1388C43.17 18.9788 43.21 18.7648 43.21 18.2888V15.4198C43.21 14.9428 43.17 14.7288 43.042 14.5698C42.9624 14.475 42.8615 14.4003 42.7475 14.352C42.6334 14.3037 42.5096 14.2831 42.3861 14.2918V14.2038H46.593L46.6571 15.4908V15.4918ZM62.003 15.4918H61.906C61.8952 15.3252 61.8506 15.1625 61.7749 15.0137C61.6993 14.8648 61.5942 14.7329 61.466 14.6258C61.1325 14.3808 60.7178 14.2727 60.307 14.3238H59.411V16.6598H60.084C60.884 16.6598 61.0681 16.5008 61.1641 15.7298H61.26L61.245 17.8118H61.148C61.06 17.0338 60.788 16.7798 60.077 16.7798H59.411V17.6698C59.361 18.0778 59.414 18.4928 59.564 18.8768C59.748 19.2268 59.944 19.3848 60.528 19.3848C61.544 19.3848 61.8291 19.0118 62.0611 17.9548H62.1571L62.1011 19.5048H57.731V19.4168C57.8546 19.4256 57.9784 19.405 58.0925 19.3567C58.2065 19.3083 58.3074 19.2337 58.3871 19.1388C58.5151 18.9788 58.555 18.7648 58.555 18.2888V15.4198C58.555 14.9428 58.5151 14.7288 58.3871 14.5698C58.3076 14.4751 58.2068 14.4005 58.093 14.3521C57.9791 14.3038 57.8554 14.2831 57.732 14.2918V14.2038H61.939L62.003 15.4908V15.4918ZM34.2491 17.8918H34.3371C34.6251 18.9798 35.097 19.5118 35.793 19.5118C36.073 19.5218 36.346 19.4128 36.543 19.2138C36.6408 19.1158 36.717 18.9984 36.7669 18.8693C36.8169 18.7402 36.8394 18.6021 36.833 18.4638C36.8349 18.1544 36.7236 17.8549 36.5201 17.6218C36.2649 17.3839 35.9697 17.193 35.648 17.0578C35.3047 16.9152 34.9923 16.7073 34.7281 16.4458C34.5255 16.2097 34.4176 15.9069 34.425 15.5958C34.4208 15.3998 34.4556 15.2049 34.5274 15.0224C34.5991 14.8399 34.7064 14.6735 34.843 14.5328C35.1201 14.2474 35.4993 14.0837 35.897 14.0778C36.161 14.0798 36.42 14.1418 36.656 14.2608C36.781 14.3238 36.916 14.3638 37.056 14.3798C37.136 14.3798 37.2 14.3078 37.232 14.1808H37.32L37.3521 15.7228H37.2561C37.1808 15.3873 37.0539 15.0655 36.8801 14.7688C36.7893 14.5992 36.6544 14.4573 36.4896 14.3581C36.3249 14.2588 36.1364 14.2058 35.944 14.2048C35.8237 14.2004 35.7036 14.2204 35.5912 14.2637C35.4788 14.3071 35.3763 14.3727 35.2901 14.4568C35.204 14.5407 35.1362 14.6412 35.0906 14.7524C35.045 14.8635 35.0227 14.9828 35.0251 15.1028C35.0268 15.2489 35.0616 15.3926 35.1267 15.5233C35.1918 15.6541 35.2856 15.7684 35.4011 15.8578C35.7061 16.0978 36.049 16.2858 36.416 16.4138C37.272 16.8188 37.656 17.3118 37.656 18.0188C37.664 18.4638 37.484 18.8908 37.161 19.1988C37.0005 19.3511 36.8103 19.4688 36.6023 19.5445C36.3943 19.6202 36.173 19.6523 35.952 19.6388C35.52 19.6388 35.0941 19.5328 34.7131 19.3288C34.6695 19.3129 34.6234 19.3051 34.577 19.3058C34.5193 19.3046 34.4629 19.3226 34.4165 19.357C34.3702 19.3914 34.3366 19.4402 34.321 19.4958H34.2331L34.2491 17.8918V17.8918ZM38.4481 17.8918H38.535C38.824 18.9798 39.2951 19.5118 39.9911 19.5118C40.2731 19.5218 40.5451 19.4138 40.7421 19.2138C40.8396 19.1157 40.9156 18.9983 40.9654 18.8692C41.0151 18.7401 41.0375 18.602 41.031 18.4638C41.0332 18.1545 40.9223 17.855 40.7191 17.6218C40.464 17.3838 40.1688 17.1928 39.847 17.0578C39.5039 16.9149 39.1915 16.7071 38.927 16.4458C38.7243 16.2097 38.616 15.907 38.6231 15.5958C38.619 15.3997 38.6539 15.2048 38.7258 15.0223C38.7978 14.8398 38.9053 14.6734 39.042 14.5328C39.3189 14.2476 39.6976 14.084 40.0951 14.0778C40.3591 14.0798 40.619 14.1418 40.855 14.2608C40.98 14.3238 41.1151 14.3638 41.2551 14.3798C41.3351 14.3798 41.399 14.3078 41.43 14.1808H41.5191L41.551 15.7228H41.454C41.379 15.3874 41.2525 15.0656 41.079 14.7688C40.9882 14.5993 40.8533 14.4575 40.6886 14.3582C40.5238 14.2589 40.3354 14.2059 40.1431 14.2048C40.0225 14.2002 39.9023 14.2202 39.7897 14.2635C39.6771 14.3069 39.5744 14.3726 39.488 14.4568C39.4021 14.5407 39.3342 14.6413 39.2887 14.7524C39.2431 14.8635 39.2207 14.9828 39.223 15.1028C39.2247 15.2489 39.2594 15.3927 39.3245 15.5234C39.3896 15.6542 39.4835 15.7685 39.599 15.8578C39.904 16.0978 40.2481 16.2848 40.6151 16.4138C41.4711 16.8188 41.855 17.3118 41.855 18.0188C41.862 18.4628 41.6831 18.8908 41.3591 19.1988C41.1986 19.351 41.0086 19.4686 40.8008 19.5443C40.5929 19.62 40.3718 19.6522 40.1511 19.6388C39.7191 19.6388 39.293 19.5328 38.911 19.3288C38.8675 19.3129 38.8214 19.3051 38.7751 19.3058C38.7173 19.3046 38.6609 19.3226 38.6145 19.357C38.5682 19.3914 38.5346 19.4402 38.5191 19.4958H38.431L38.4481 17.8918V17.8918ZM48.294 18.2888C48.294 18.7728 48.3341 18.9788 48.4631 19.1388C48.6231 19.3308 48.868 19.4348 49.119 19.4168V19.5038H47.3101V19.4168C47.4336 19.4255 47.5574 19.4049 47.6714 19.3565C47.7854 19.3082 47.8864 19.2336 47.966 19.1388C48.094 18.9788 48.134 18.7648 48.134 18.2888V15.4198C48.134 14.9428 48.094 14.7288 47.966 14.5698C47.8865 14.4749 47.7855 14.4002 47.6715 14.3519C47.5575 14.3036 47.4336 14.283 47.3101 14.2918V14.2038H48.814L51.7421 18.1448V15.4198C51.7421 14.9348 51.7021 14.7288 51.5741 14.5698C51.4945 14.4749 51.3935 14.4002 51.2795 14.3519C51.1655 14.3036 51.0416 14.283 50.918 14.2918V14.2038H52.7261V14.2918C52.6026 14.2838 52.479 14.3047 52.3651 14.353C52.2512 14.4013 52.1501 14.4755 52.07 14.5698C51.942 14.7288 51.9021 14.9428 51.9021 15.4198V19.5038H51.7261L48.294 14.9108V18.2878V18.2888ZM57.1641 15.9208H57.0741C56.8331 14.9578 56.528 14.1968 55.552 14.1968C54.148 14.1968 53.8371 15.8228 53.8371 16.8668C53.8371 18.5878 54.43 19.5118 55.551 19.5118C56.541 19.5118 57.051 18.5058 57.236 17.7888H57.326L57.273 19.5288H57.1911C57.1231 19.3688 57.078 19.3218 56.981 19.3218C56.9272 19.3216 56.8738 19.3321 56.8241 19.3528C56.4125 19.5394 55.9659 19.6362 55.514 19.6368C55.1522 19.6654 54.7884 19.6162 54.4472 19.4923C54.106 19.3684 53.7953 19.1729 53.536 18.9188C53.278 18.6657 53.0779 18.3597 52.9493 18.0219C52.8207 17.6841 52.7667 17.3225 52.791 16.9618C52.7647 16.183 53.032 15.4227 53.5401 14.8318C54.0453 14.3417 54.7221 14.0683 55.426 14.0698C55.854 14.0728 56.276 14.1698 56.661 14.3558C56.7112 14.3766 56.7648 14.3875 56.819 14.3878C56.916 14.3878 56.961 14.3398 57.029 14.1808H57.111L57.163 15.9208H57.1641ZM8.70305 36.3028H0.0130492C-0.00369869 36.1935 -0.00369869 36.0822 0.0130492 35.9728H1.42305C1.4318 35.9736 1.44062 35.9725 1.44891 35.9696C1.45719 35.9666 1.46475 35.962 1.47105 35.9558C1.47755 35.9495 1.48254 35.9419 1.48566 35.9334C1.48877 35.9249 1.48993 35.9158 1.48905 35.9068V25.0158C1.48993 25.0068 1.48877 24.9978 1.48566 24.9893C1.48254 24.9808 1.47755 24.9731 1.47105 24.9668C1.46475 24.9607 1.45719 24.956 1.44891 24.9531C1.44062 24.9501 1.4318 24.949 1.42305 24.9498H0.0130492C-0.00369869 24.8405 -0.00369869 24.7292 0.0130492 24.6198H5.07005C5.1032 24.7273 5.1032 24.8423 5.07005 24.9498H3.69505C3.62805 24.9498 3.59505 24.9658 3.59505 25.0158V35.9068C3.59505 35.9568 3.62805 35.9728 3.69505 35.9728H5.03805C7.42705 35.9728 8.43805 34.0948 8.43805 32.4138C8.54274 32.3974 8.64936 32.3974 8.75405 32.4138V36.2538C8.75481 36.2604 8.75403 36.2671 8.75178 36.2734C8.74952 36.2796 8.74585 36.2852 8.74105 36.2898C8.73631 36.2947 8.7305 36.2984 8.72408 36.3007C8.71766 36.3029 8.7108 36.3037 8.70405 36.3028H8.70305ZM10.943 36.3028C10.9263 36.1935 10.9263 36.0822 10.943 35.9728H12.3361C12.3861 35.9728 12.419 35.9568 12.419 35.9068V25.0158C12.419 24.9658 12.3861 24.9498 12.3361 24.9498H10.943C10.9263 24.8405 10.9263 24.7292 10.943 24.6198H16.0021C16.0355 24.7273 16.0355 24.8424 16.0021 24.9498H14.61C14.543 24.9498 14.51 24.9658 14.51 25.0158V35.9068C14.51 35.9568 14.543 35.9728 14.61 35.9728H16.003C16.0365 36.0803 16.0365 36.1954 16.003 36.3028H10.944H10.943ZM26.452 28.0308C26.4721 27.6302 26.4095 27.2297 26.268 26.8543C26.1266 26.4789 25.9095 26.1367 25.63 25.8488C25.3495 25.5595 25.0129 25.3305 24.6408 25.1758C24.2687 25.021 23.869 24.9438 23.466 24.9488H22.123C22.04 24.9488 22.007 24.9658 22.007 25.0158V30.1398H22.3881C22.6669 30.1511 22.9451 30.1062 23.2063 30.0078C23.4674 29.9093 23.7061 29.7594 23.9081 29.5668C24.3151 29.1768 24.545 28.6408 24.545 28.0798C24.545 28.0468 24.8601 28.0468 24.8601 28.0798V32.5298C24.8601 32.5788 24.545 32.5788 24.545 32.5298C24.5437 32.2521 24.4864 31.9776 24.3764 31.7226C24.2664 31.4676 24.1061 31.2374 23.9051 31.0458C23.7033 30.8536 23.4652 30.7036 23.2047 30.6047C22.9442 30.5058 22.6665 30.4599 22.3881 30.4698H22.007V35.9068C22.007 35.9568 22.04 35.9728 22.123 35.9728H23.5C23.5333 36.0803 23.5333 36.1953 23.5 36.3028H18.4401C18.4233 36.1935 18.4233 36.0822 18.4401 35.9728H19.85C19.8591 35.9739 19.8683 35.973 19.877 35.97C19.8856 35.9671 19.8935 35.9622 19.9 35.9558C19.9064 35.9495 19.9112 35.9417 19.9141 35.9333C19.9171 35.9248 19.9181 35.9158 19.917 35.9068V25.0158C19.9181 25.0069 19.9171 24.9979 19.9141 24.9894C19.9112 24.9809 19.9064 24.9732 19.9 24.9668C19.8935 24.9604 19.8856 24.9556 19.877 24.9526C19.8683 24.9497 19.8591 24.9487 19.85 24.9498H18.4401C18.4233 24.8405 18.4233 24.7292 18.4401 24.6198H26.717C26.7301 24.6206 26.7424 24.626 26.7516 24.6353C26.7608 24.6445 26.7663 24.6568 26.767 24.6698V28.0298C26.663 28.0468 26.557 28.0478 26.452 28.0308V28.0308ZM37.7821 36.3028H28.71C28.6766 36.1954 28.6766 36.0803 28.71 35.9728H30.1031C30.1531 35.9728 30.1861 35.9568 30.1861 35.9068V25.0158C30.1861 24.9658 30.1531 24.9498 30.1031 24.9498H28.71C28.6766 24.8424 28.6766 24.7273 28.71 24.6198H36.9701C37.0361 24.6198 37.036 24.6528 37.036 24.6698V28.0298C36.932 28.0468 36.8261 28.0468 36.7211 28.0298C36.7211 26.4978 35.908 24.9498 33.934 24.9498H32.392C32.292 24.9498 32.259 24.9658 32.259 25.0158V30.1398H32.674C32.9429 30.1474 33.2102 30.0984 33.4588 29.9958C33.7075 29.8933 33.9317 29.7397 34.1171 29.5448C34.3016 29.351 34.4428 29.1201 34.5314 28.8675C34.62 28.615 34.654 28.3465 34.6311 28.0798C34.6311 28.0468 34.913 28.0468 34.913 28.0798V32.5298C34.913 32.5788 34.6311 32.5788 34.6311 32.5298C34.6527 32.2633 34.6178 31.9953 34.5287 31.7432C34.4396 31.491 34.2983 31.2606 34.114 31.0668C33.9289 30.8725 33.7051 30.7189 33.4571 30.6161C33.2092 30.5133 32.9424 30.4635 32.674 30.4698H32.259V35.9068C32.259 35.9568 32.292 35.9728 32.392 35.9728H33.9841C36.5721 35.9728 37.551 34.2588 37.551 32.5628C37.551 32.5288 37.8321 32.5288 37.8321 32.5628V36.2528C37.8331 36.2595 37.8326 36.2663 37.8305 36.2728C37.8284 36.2792 37.8248 36.285 37.82 36.2898C37.8153 36.2947 37.8095 36.2984 37.8031 36.3007C37.7967 36.3029 37.7898 36.3037 37.7831 36.3028H37.7821ZM43.8531 36.5828C42.6921 36.5828 41.846 35.9068 41.299 35.9068C41.1065 35.9028 40.9179 35.9619 40.762 36.0751C40.6062 36.1883 40.4917 36.3494 40.4361 36.5338C40.4201 36.5828 40.1381 36.5828 40.1381 36.5338V32.6118C40.1381 32.5788 40.4361 32.5788 40.4361 32.6118C40.4361 33.9468 41.813 36.2698 43.836 36.2698C45.644 36.2698 46.474 35.1818 46.474 34.1108C46.474 32.5128 45.512 32.2158 43.09 31.2938C41.614 30.7338 40.453 29.9098 40.453 27.9488C40.453 25.9058 41.8791 24.3398 43.4551 24.3398C44.4831 24.3398 44.649 24.7848 45.363 24.7848C45.827 24.7848 45.9931 24.5708 46.0261 24.3888C46.0101 24.3398 46.308 24.3398 46.308 24.3888V27.4048C46.308 27.4378 46.0261 27.4378 46.0261 27.4048C46.0581 26.7048 45.806 26.0198 45.326 25.5058C45.0875 25.251 44.8009 25.0459 44.4826 24.9024C44.1644 24.759 43.821 24.6799 43.472 24.6698C43.2027 24.6557 42.9333 24.6973 42.6808 24.7919C42.4282 24.8866 42.1978 25.0322 42.0041 25.2198C41.6141 25.5978 41.4001 26.1208 41.4151 26.6628C41.4151 27.8498 42.278 28.4428 44.251 29.1838C46.275 29.9588 47.552 30.7168 47.552 32.7268C47.552 34.4408 46.3241 36.5828 43.8531 36.5828V36.5828ZM58.433 28.5248C58.433 26.6138 57.4381 24.9498 55.166 24.9498H55.016C54.95 24.9498 54.917 24.9658 54.917 25.0158V35.9068C54.917 35.9568 54.95 35.9728 55.017 35.9728H56.3931C56.4265 36.0803 56.4265 36.1954 56.3931 36.3028H51.384C51.3506 36.1954 51.3506 36.0803 51.384 35.9728H52.7611C52.8271 35.9728 52.861 35.9568 52.861 35.9068V25.0158C52.861 24.9658 52.8271 24.9498 52.7611 24.9498H52.5951C50.3231 24.9498 49.41 26.6138 49.41 28.5248C49.41 28.5578 49.128 28.5578 49.128 28.5248V24.6698C49.1288 24.6568 49.1343 24.6445 49.1435 24.6353C49.1527 24.626 49.165 24.6206 49.1781 24.6198H58.682C58.716 24.6198 58.716 24.6528 58.716 24.6698V28.5248C58.716 28.5578 58.434 28.5578 58.434 28.5248H58.433ZM69.216 24.9498C69.116 24.9498 69.033 25.0158 68.519 26.1198L66.263 31.2278V35.9078C66.263 35.9568 66.297 35.9728 66.363 35.9728H67.739C67.7725 36.0803 67.7725 36.1954 67.739 36.3028H62.697C62.6636 36.1954 62.6636 36.0803 62.697 35.9728H64.107C64.174 35.9728 64.19 35.9568 64.19 35.9068V31.2108L61.155 25.0158C61.1427 24.996 61.1257 24.9796 61.1054 24.9681C61.0852 24.9566 61.0624 24.9503 61.0391 24.9498H59.496C59.4626 24.8424 59.4626 24.7273 59.496 24.6198H65.019C65.036 24.7298 65.036 24.8398 65.019 24.9498H63.4771C63.4101 24.9498 63.427 24.9828 63.41 25.0158L66.18 30.6668L68.42 25.6418C68.685 24.9988 68.702 24.9498 68.619 24.9498H67.176C67.1426 24.8424 67.1426 24.7273 67.176 24.6198H70.493C70.5265 24.7273 70.5265 24.8424 70.493 24.9498H69.216V24.9498ZM80.048 36.3028H71.356C71.3393 36.1935 71.3393 36.0822 71.356 35.9728H72.766C72.7751 35.9739 72.7843 35.973 72.793 35.97C72.8016 35.9671 72.8095 35.9622 72.816 35.9558C72.8224 35.9495 72.8272 35.9417 72.8301 35.9333C72.8331 35.9248 72.8341 35.9158 72.833 35.9068V25.0158C72.8339 25.0068 72.8328 24.9978 72.8297 24.9893C72.8265 24.9808 72.8215 24.9731 72.815 24.9668C72.8086 24.9606 72.8009 24.9558 72.7924 24.9529C72.784 24.9499 72.775 24.9489 72.766 24.9498H71.356C71.3393 24.8405 71.3393 24.7292 71.356 24.6198H76.415C76.4485 24.7273 76.4485 24.8424 76.415 24.9498H75.04C74.973 24.9498 74.94 24.9658 74.94 25.0158V35.9068C74.94 35.9568 74.973 35.9728 75.04 35.9728H76.383C78.771 35.9728 79.783 34.0948 79.783 32.4138C79.888 32.3978 79.994 32.3978 80.099 32.4138V36.2538C80.0997 36.2604 80.0989 36.2671 80.0967 36.2733C80.0944 36.2796 80.0908 36.2852 80.086 36.2898C80.0813 36.2947 80.0755 36.2984 80.0691 36.3007C80.0627 36.3029 80.0558 36.3037 80.049 36.3028H80.048ZM90.648 36.3028H81.574C81.541 36.1953 81.541 36.0804 81.574 35.9728H82.968C83.018 35.9728 83.051 35.9568 83.051 35.9068V25.0158C83.051 24.9658 83.017 24.9498 82.968 24.9498H81.574C81.541 24.8423 81.541 24.7274 81.574 24.6198H89.834C89.901 24.6198 89.901 24.6528 89.901 24.6698V28.0298C89.796 28.0468 89.69 28.0468 89.586 28.0298C89.586 26.4978 88.773 24.9498 86.799 24.9498H85.257C85.157 24.9498 85.124 24.9658 85.124 25.0158V30.1398H85.539C85.8077 30.1473 86.0749 30.0981 86.3233 29.9956C86.5717 29.8931 86.7958 29.7395 86.981 29.5448C87.1656 29.351 87.3068 29.1201 87.3954 28.8675C87.484 28.615 87.518 28.3465 87.495 28.0798C87.495 28.0468 87.778 28.0468 87.778 28.0798V32.5298C87.778 32.5788 87.495 32.5788 87.495 32.5298C87.5167 32.2633 87.4818 31.9953 87.3927 31.7432C87.3036 31.491 87.1623 31.2606 86.978 31.0668C86.7929 30.8725 86.5691 30.7189 86.3211 30.6161C86.0732 30.5133 85.8064 30.4635 85.538 30.4698H85.124V35.9068C85.124 35.9568 85.157 35.9728 85.257 35.9728H86.849C89.436 35.9728 90.415 34.2588 90.415 32.5628C90.415 32.5288 90.697 32.5288 90.697 32.5628V36.2528C90.698 36.2596 90.6973 36.2665 90.695 36.2729C90.6927 36.2793 90.689 36.2851 90.684 36.2898C90.6793 36.2947 90.6735 36.2984 90.6671 36.3007C90.6607 36.3029 90.6538 36.3037 90.647 36.3028H90.648Z" fill="white"/>
</svg>
