<svg width="121" height="54" xmlns="http://www.w3.org/2000/svg"><g fill="#000" fill-rule="nonzero"><path d="M22.81 31.471c-.442-.852-1.066-2.964-1.102-3.967-.03-.839-.01-2.782.59-4.243.485-1.176 1.822-3.021 1.812-3.94-.016-1.486-.517-2.333-1.429-3.247-.86-.86-1.94-1.376-3.188-1.331-1.037.036-1.966.82-3.096 1.44-1.131.621-2.15.912-3.426 1.022-1.276.11-2.588-.037-3.936-.476-1.348-.437-2.492-1.302-3.351-1.676-.547-.237-1.366-.533-2.705-.02-.562.217-1.74 1.076-2.25 1.882-.513.802-.729 1.57-.729 2.028 0 .732.181 1.354.524 1.901.328.526 1.254 2.336 1.442 3.002.199.681.474 1.933.44 2.882-.038.95-.107 2.22-.51 3.247-.41 1.034-.982 2.216-1.456 3.018-.47.802-.491 2.174-.204 2.857.273.656 1.119 1.73 1.847 2.205.727.475 1.336.832 2.428.796 1.094-.036 2.157-.886 2.81-1.212.66-.33 1.867-.98 2.88-1.133 1.016-.15 2.91-.218 3.762.02.842.235 1.932.601 2.756 1.071.814.466 1.99 1.303 2.823 1.262.957-.05 2.107-.313 2.974-1.184.876-.88 1.594-1.897 1.604-2.92.012-1.209-.84-2.375-1.31-3.284zM32.812 32.072h2.395v-4.22h5.196V25.67h-5.196V23.35h5.896v-2.18h-8.29v10.902zm11.93.156c1.151 0 1.945-.42 2.52-1.06v.904h2.287v-4.844c0-1.121-.28-2.04-.902-2.663-.591-.592-1.525-.935-2.816-.935-1.415 0-2.317.265-3.235.67l.591 1.807c.762-.28 1.4-.452 2.302-.452 1.182 0 1.789.545 1.789 1.526v.14a5.919 5.919 0 0 0-2.038-.342c-1.975 0-3.36.841-3.36 2.663 0 1.682 1.291 2.586 2.862 2.586zm.716-1.636c-.762 0-1.291-.373-1.291-1.012 0-.779.622-1.184 1.633-1.184.576 0 1.105.125 1.509.312v.42c0 .857-.746 1.464-1.851 1.464zm6.128 1.48h2.365v-4.657c0-1.121.575-1.698 1.477-1.698.902 0 1.431.577 1.431 1.698v4.657h2.365v-5.405c0-1.915-1.042-3.1-2.831-3.1-1.198 0-1.898.64-2.442 1.34v-1.183h-2.365v8.348zm12.506.14c.794 0 1.37-.187 1.867-.483v-1.9a2.402 2.402 0 0 1-1.167.296c-.529 0-.762-.265-.762-.81V25.75h1.96v-2.025h-1.96V21.59h-2.364v2.134h-.996v2.025h.996v3.956c0 1.931.98 2.507 2.426 2.507zm6.004.016c1.151 0 1.945-.42 2.52-1.06v.904h2.287v-4.844c0-1.121-.28-2.04-.903-2.663-.59-.592-1.524-.935-2.815-.935-1.415 0-2.317.265-3.235.67l.59 1.807c.763-.28 1.4-.452 2.303-.452 1.182 0 1.789.545 1.789 1.526v.14a5.917 5.917 0 0 0-2.038-.342c-1.976 0-3.36.841-3.36 2.663 0 1.682 1.291 2.586 2.862 2.586zm.716-1.636c-.762 0-1.291-.373-1.291-1.012 0-.779.622-1.184 1.633-1.184.576 0 1.104.125 1.509.312v.42c0 .857-.747 1.464-1.851 1.464zm9.052 1.636c1.805 0 3.19-.841 3.19-2.695 0-1.557-1.354-2.118-2.52-2.507-.903-.312-1.696-.53-1.696-.997 0-.358.295-.607.871-.607.607 0 1.431.295 2.255.778l.903-1.635c-.903-.608-2.054-.966-3.111-.966-1.68 0-3.05.95-3.05 2.648 0 1.651 1.323 2.196 2.49 2.539.918.28 1.726.452 1.726.965 0 .405-.31.655-.995.655-.778 0-1.727-.343-2.63-.997l-1.01 1.557a5.837 5.837 0 0 0 3.577 1.262zm6.642 2.383c1.416 0 2.1-.639 2.738-2.336l3.204-8.551h-2.457l-1.82 5.685-1.898-5.685h-2.504l3.266 8.38c-.202.42-.42.544-.824.544-.311 0-.7-.14-1.011-.327l-.794 1.714a3.91 3.91 0 0 0 2.1.576z"/></g></svg>