<svg width="121" height="54" viewBox="0 0 121 54" fill="none" xmlns="http://www.w3.org/2000/svg">
<path d="M22.81 31.471C22.368 30.619 21.744 28.507 21.708 27.504C21.678 26.665 21.698 24.722 22.298 23.261C22.783 22.085 24.12 20.24 24.11 19.321C24.094 17.835 23.593 16.988 22.681 16.074C21.821 15.214 20.741 14.698 19.493 14.743C18.456 14.779 17.527 15.563 16.397 16.183C15.266 16.804 14.247 17.095 12.971 17.205C11.695 17.315 10.383 17.168 9.035 16.729C7.687 16.292 6.543 15.427 5.684 15.053C5.137 14.816 4.318 14.52 2.979 15.033C2.417 15.25 1.239 16.109 0.729 16.915C0.216 17.717 0 18.485 0 18.943C0 19.675 0.181 20.297 0.524 20.844C0.852 21.37 1.778 23.18 1.966 23.846C2.165 24.527 2.44 25.779 2.406 26.728C2.368 27.678 2.299 28.948 1.896 29.975C1.486 31.009 0.914 32.191 0.44 32.993C-0.03 33.795 -0.051 35.167 0.236 35.85C0.509 36.506 1.355 37.58 2.083 38.055C2.81 38.53 3.419 38.887 4.511 38.851C5.605 38.815 6.668 37.965 7.321 37.639C7.981 37.309 9.188 36.659 10.201 36.506C11.217 36.356 13.111 36.288 13.963 36.526C14.805 36.761 15.895 37.127 16.719 37.597C17.533 38.063 18.709 38.9 19.542 38.859C20.499 38.809 21.649 38.546 22.516 37.675C23.392 36.795 24.11 35.778 24.12 34.755C24.132 33.546 23.28 32.38 22.81 31.471V31.471ZM32.812 32.072H35.207V27.852H40.403V25.67H35.207V23.35H41.103V21.17H32.813V32.072H32.812ZM44.742 32.228C45.893 32.228 46.687 31.808 47.262 31.168V32.072H49.549V27.228C49.549 26.107 49.269 25.188 48.647 24.565C48.056 23.973 47.122 23.63 45.831 23.63C44.416 23.63 43.514 23.895 42.596 24.3L43.187 26.107C43.949 25.827 44.587 25.655 45.489 25.655C46.671 25.655 47.278 26.2 47.278 27.181V27.321C46.624 27.0883 45.9341 26.9726 45.24 26.979C43.265 26.979 41.88 27.82 41.88 29.642C41.88 31.324 43.171 32.228 44.742 32.228V32.228ZM45.458 30.592C44.696 30.592 44.167 30.219 44.167 29.58C44.167 28.801 44.789 28.396 45.8 28.396C46.376 28.396 46.905 28.521 47.309 28.708V29.128C47.309 29.985 46.563 30.592 45.458 30.592V30.592ZM51.586 32.072H53.951V27.415C53.951 26.294 54.526 25.717 55.428 25.717C56.33 25.717 56.859 26.294 56.859 27.415V32.072H59.224V26.667C59.224 24.752 58.182 23.567 56.393 23.567C55.195 23.567 54.495 24.207 53.951 24.907V23.724H51.586V32.072V32.072ZM64.092 32.212C64.886 32.212 65.462 32.025 65.959 31.729V29.829C65.6014 30.0251 65.1998 30.127 64.792 30.125C64.263 30.125 64.03 29.86 64.03 29.315V25.75H65.99V23.725H64.03V21.59H61.666V23.724H60.67V25.749H61.666V29.705C61.666 31.636 62.646 32.212 64.092 32.212V32.212ZM70.096 32.228C71.247 32.228 72.041 31.808 72.616 31.168V32.072H74.903V27.228C74.903 26.107 74.623 25.188 74 24.565C73.41 23.973 72.476 23.63 71.185 23.63C69.77 23.63 68.868 23.895 67.95 24.3L68.54 26.107C69.303 25.827 69.94 25.655 70.843 25.655C72.025 25.655 72.632 26.2 72.632 27.181V27.321C71.978 27.0883 71.2881 26.9725 70.594 26.979C68.618 26.979 67.234 27.82 67.234 29.642C67.234 31.324 68.525 32.228 70.096 32.228ZM70.812 30.592C70.05 30.592 69.521 30.219 69.521 29.58C69.521 28.801 70.143 28.396 71.154 28.396C71.73 28.396 72.258 28.521 72.663 28.708V29.128C72.663 29.985 71.916 30.592 70.812 30.592ZM79.864 32.228C81.669 32.228 83.054 31.387 83.054 29.533C83.054 27.976 81.7 27.415 80.534 27.026C79.631 26.714 78.838 26.496 78.838 26.029C78.838 25.671 79.133 25.422 79.709 25.422C80.316 25.422 81.14 25.717 81.964 26.2L82.867 24.565C81.964 23.957 80.813 23.599 79.756 23.599C78.076 23.599 76.706 24.549 76.706 26.247C76.706 27.898 78.029 28.443 79.196 28.786C80.114 29.066 80.922 29.238 80.922 29.751C80.922 30.156 80.612 30.406 79.927 30.406C79.149 30.406 78.2 30.063 77.297 29.409L76.287 30.966C77.3056 31.7731 78.5644 32.2172 79.864 32.228V32.228ZM86.506 34.611C87.922 34.611 88.606 33.972 89.244 32.275L92.448 23.724H89.991L88.171 29.409L86.273 23.724H83.769L87.035 32.104C86.833 32.524 86.615 32.648 86.211 32.648C85.9 32.648 85.511 32.508 85.2 32.321L84.406 34.035C85.0373 34.4219 85.7656 34.6217 86.506 34.611V34.611Z" fill="white"/>
</svg>
