<svg width="121" height="54" xmlns="http://www.w3.org/2000/svg"><g fill="#000" fill-rule="nonzero"><path d="M76.048 26.107c.24 0 .458-.145.55-.368a.6.6 0 0 0-.127-.653.591.591 0 0 0-.648-.13.598.598 0 0 0-.194.976.59.59 0 0 0 .42.175zM0 25.524V14.31h1.902v4.76h4.599v-4.76h1.902v11.215H6.501v-4.773H1.902v4.773H0zm13.478-4.372h3.044l-1.506-4.277-1.538 4.277zm-3.33 4.372v-.64l3.964-10.575h1.872l3.964 10.575v.64h-1.871l-.984-2.77h-4.185l-1 2.77h-1.76zm13.447-5.942h2.522c1.173 0 1.76-.595 1.76-1.795s-.588-1.794-1.76-1.794h-2.522v3.589zm-1.903 5.942V14.31h4.773c2.156 0 3.346 1.268 3.346 3.446 0 1.49-.666 2.675-1.95 3.237l2.077 3.892v.64h-1.871l-2.284-4.31h-2.188v4.31h-1.903zm12.37-1.683h2.885c1.062 0 1.586-.512 1.586-1.536 0-1.057-.524-1.586-1.586-1.586H34.06v3.122zm0-4.724h2.457c1.046 0 1.57-.529 1.57-1.57 0-1.042-.524-1.554-1.57-1.554H34.06v3.124zm-1.904 6.407V14.31h4.678c1.981 0 3.17 1.027 3.17 3.014 0 1.138-.443 1.922-1.33 2.385 1.172.434 1.759 1.332 1.759 2.71 0 2.033-1.158 3.107-3.172 3.107h-5.106zm16.999-7.512c0-1.266-.873-2.179-2.458-2.179-1.585 0-2.458.913-2.458 2.179v3.813c0 1.265.872 2.179 2.458 2.179 1.586 0 2.458-.914 2.458-2.179v-3.813zm-6.82.096c0-2.517 1.682-4.038 4.362-4.038s4.36 1.521 4.36 4.038v3.62c0 2.515-1.68 4.038-4.36 4.038-2.68 0-4.361-1.523-4.361-4.038v-3.62zM59.94 14.31h1.902v7.561c0 1.218-.38 2.18-1.142 2.868-.745.688-1.776 1.025-3.06 1.025-1.285 0-2.315-.337-3.077-1.025-.744-.689-1.126-1.65-1.126-2.868v-7.56h1.904v7.656c0 1.17.824 2.036 2.299 2.036 1.474 0 2.3-.866 2.3-2.036v-7.657zm6.5 5.271h2.522c1.173 0 1.76-.595 1.76-1.795s-.587-1.794-1.76-1.794H66.44v3.589zm-1.902 5.942V14.31h4.773c2.156 0 3.346 1.268 3.346 3.446 0 1.49-.667 2.675-1.95 3.237l2.076 3.892v.64h-1.87l-2.284-4.31h-2.188v4.31h-1.903zM1.22 38.842C.414 38.169 0 37.208 0 35.957h1.903c0 .53.143.947.412 1.283.57.658 1.284.834 2.109.834 1.332 0 2.077-.61 2.077-1.459 0-.4-.174-.705-.523-.913-.348-.224-.983-.512-1.902-.865l-.144-.048-.254-.097c-1.204-.464-2.076-.914-2.6-1.345-.523-.449-.777-1.09-.777-1.938 0-.977.35-1.777 1.063-2.37.713-.594 1.696-.899 2.933-.899 2.49 0 4.123 1.203 4.123 3.782H6.517c0-1.41-.951-2.019-2.236-2.019-1.253 0-2.061.576-2.061 1.362 0 .433.158.768.491.976.333.21.967.48 1.903.817l.222.08c.602.209 1.078.402 1.427.562.395.177.772.391 1.126.64.777.529 1.125 1.234 1.125 2.178 0 1.971-1.49 3.317-4.2 3.317-1.238 0-2.269-.337-3.094-.993zm11.576-5.255h2.57c.871 0 1.522-.625 1.522-1.762s-.65-1.762-1.522-1.762h-2.57v3.524zm-1.903 6.007V28.38h4.805c1.95 0 3.123 1.333 3.123 3.446 0 2.114-1.172 3.446-3.123 3.446h-2.902v4.323h-1.902zm11.497-4.372h3.045l-1.506-4.277-1.539 4.277zm-3.33 4.372v-.64l3.965-10.574h1.87l3.965 10.574v.64H26.99l-.983-2.77H21.82l-.999 2.77h-1.76zm11.227-3.796v-3.62c0-2.563 1.57-4.038 4.313-4.038 1.174 0 2.14.321 2.918.978.777.656 1.173 1.618 1.173 2.9v.16H36.79v-.16c0-.69-.222-1.217-.683-1.57a2.367 2.367 0 0 0-1.522-.545c-1.602 0-2.394.785-2.394 2.147v3.877c0 1.361.792 2.147 2.394 2.147a2.439 2.439 0 0 0 1.522-.53c.46-.368.683-.897.683-1.587v-.16h1.902v.16c0 1.283-.396 2.244-1.173 2.9-.778.656-1.744.978-2.918.978-2.743 0-4.313-1.474-4.313-4.037zm10.783 3.796V28.38h7.12v1.684h-5.217v3.108h4.471v1.601h-4.471v3.14h5.233v1.682H41.07z"/></g></svg>