<svg width="121" height="54" viewBox="0 0 121 54" fill="none" xmlns="http://www.w3.org/2000/svg">
<path d="M76.048 26.1068C76.288 26.1068 76.506 25.9618 76.598 25.7388C76.6436 25.6296 76.6559 25.5093 76.6333 25.3931C76.6107 25.2769 76.5542 25.17 76.471 25.0858C76.3882 25.0021 76.2823 24.9449 76.1669 24.9218C76.0514 24.8986 75.9317 24.9105 75.823 24.9558C75.732 24.9934 75.6517 25.0529 75.5892 25.129C75.5268 25.205 75.484 25.2954 75.4649 25.3919C75.4457 25.4885 75.4506 25.5883 75.4792 25.6825C75.5079 25.7766 75.5593 25.8623 75.629 25.9318C75.6839 25.9873 75.7494 26.0314 75.8214 26.0614C75.8935 26.0915 75.9709 26.1069 76.049 26.1068H76.048ZM0 25.5238V14.3098H1.902V19.0698H6.501V14.3098H8.403V25.5248H6.501V20.7518H1.902V25.5248H0V25.5238ZM13.478 21.1518H16.522L15.016 16.8748L13.478 21.1518V21.1518ZM10.148 25.5238V24.8838L14.112 14.3088H15.984L19.948 24.8838V25.5238H18.077L17.093 22.7538H12.908L11.908 25.5238H10.148V25.5238ZM23.595 19.5818H26.117C27.29 19.5818 27.877 18.9868 27.877 17.7868C27.877 16.5868 27.289 15.9928 26.117 15.9928H23.595V19.5818V19.5818ZM21.692 25.5238V14.3098H26.465C28.621 14.3098 29.811 15.5778 29.811 17.7558C29.811 19.2458 29.145 20.4308 27.861 20.9928L29.938 24.8848V25.5248H28.067L25.783 21.2148H23.595V25.5248H21.692V25.5238ZM34.062 23.8408H36.947C38.009 23.8408 38.533 23.3288 38.533 22.3048C38.533 21.2478 38.009 20.7188 36.947 20.7188H34.06V23.8408H34.062ZM34.062 19.1168H36.519C37.565 19.1168 38.089 18.5878 38.089 17.5468C38.089 16.5048 37.565 15.9928 36.519 15.9928H34.06V19.1168H34.062ZM32.158 25.5238V14.3098H36.836C38.817 14.3098 40.006 15.3368 40.006 17.3238C40.006 18.4618 39.563 19.2458 38.676 19.7088C39.848 20.1428 40.435 21.0408 40.435 22.4188C40.435 24.4518 39.277 25.5258 37.263 25.5258H32.157L32.158 25.5238ZM49.157 18.0118C49.157 16.7458 48.284 15.8328 46.699 15.8328C45.114 15.8328 44.241 16.7458 44.241 18.0118V21.8248C44.241 23.0898 45.113 24.0038 46.699 24.0038C48.285 24.0038 49.157 23.0898 49.157 21.8248V18.0118ZM42.337 18.1078C42.337 15.5908 44.019 14.0698 46.699 14.0698C49.379 14.0698 51.059 15.5908 51.059 18.1078V21.7278C51.059 24.2428 49.379 25.7658 46.699 25.7658C44.019 25.7658 42.338 24.2428 42.338 21.7278V18.1078H42.337ZM59.94 14.3098H61.842V21.8708C61.842 23.0888 61.462 24.0508 60.7 24.7388C59.955 25.4268 58.924 25.7638 57.64 25.7638C56.355 25.7638 55.325 25.4268 54.563 24.7388C53.819 24.0498 53.437 23.0888 53.437 21.8708V14.3108H55.341V21.9668C55.341 23.1368 56.165 24.0028 57.64 24.0028C59.114 24.0028 59.94 23.1368 59.94 21.9668V14.3098V14.3098ZM66.44 19.5808H68.962C70.135 19.5808 70.722 18.9858 70.722 17.7858C70.722 16.5858 70.135 15.9918 68.962 15.9918H66.44V19.5808ZM64.538 25.5228V14.3098H69.311C71.467 14.3098 72.657 15.5778 72.657 17.7558C72.657 19.2458 71.99 20.4308 70.707 20.9928L72.783 24.8848V25.5248H70.913L68.629 21.2148H66.441V25.5248H64.538V25.5228ZM1.22 38.8418C0.414 38.1688 0 37.2078 0 35.9568H1.903C1.903 36.4868 2.046 36.9038 2.315 37.2398C2.885 37.8978 3.599 38.0738 4.424 38.0738C5.756 38.0738 6.501 37.4638 6.501 36.6148C6.501 36.2148 6.327 35.9098 5.978 35.7018C5.63 35.4778 4.995 35.1898 4.076 34.8368L3.932 34.7888L3.678 34.6918C2.474 34.2278 1.602 33.7778 1.078 33.3468C0.555 32.8978 0.301 32.2568 0.301 31.4088C0.301 30.4318 0.651 29.6318 1.364 29.0388C2.077 28.4448 3.06 28.1398 4.297 28.1398C6.787 28.1398 8.42 29.3428 8.42 31.9218H6.517C6.517 30.5118 5.566 29.9028 4.281 29.9028C3.028 29.9028 2.22 30.4788 2.22 31.2648C2.22 31.6978 2.378 32.0328 2.711 32.2408C3.044 32.4508 3.678 32.7208 4.614 33.0578L4.836 33.1378C5.438 33.3468 5.914 33.5398 6.263 33.6998C6.658 33.8768 7.035 34.0908 7.389 34.3398C8.166 34.8688 8.514 35.5738 8.514 36.5178C8.514 38.4888 7.024 39.8348 4.314 39.8348C3.076 39.8348 2.045 39.4978 1.22 38.8418V38.8418ZM12.796 33.5868H15.366C16.237 33.5868 16.888 32.9618 16.888 31.8248C16.888 30.6878 16.238 30.0628 15.366 30.0628H12.796V33.5868ZM10.893 39.5938V28.3798H15.698C17.648 28.3798 18.821 29.7128 18.821 31.8258C18.821 33.9398 17.649 35.2718 15.698 35.2718H12.796V39.5948H10.894L10.893 39.5938ZM22.39 35.2218H25.435L23.929 30.9448L22.39 35.2218ZM19.06 39.5938V38.9538L23.025 28.3798H24.895L28.86 38.9538V39.5938H26.99L26.007 36.8238H21.82L20.821 39.5938H19.061H19.06ZM30.287 35.7978V32.1778C30.287 29.6148 31.857 28.1398 34.6 28.1398C35.774 28.1398 36.74 28.4608 37.518 29.1178C38.295 29.7738 38.691 30.7358 38.691 32.0178V32.1778H36.79V32.0178C36.79 31.3278 36.568 30.8008 36.107 30.4478C35.6793 30.0932 35.1406 29.9002 34.585 29.9028C32.983 29.9028 32.191 30.6878 32.191 32.0498V35.9268C32.191 37.2878 32.983 38.0738 34.585 38.0738C35.1377 38.0747 35.6744 37.8878 36.107 37.5438C36.567 37.1758 36.79 36.6468 36.79 35.9568V35.7968H38.692V35.9568C38.692 37.2398 38.296 38.2008 37.519 38.8568C36.741 39.5128 35.775 39.8348 34.601 39.8348C31.858 39.8348 30.288 38.3608 30.288 35.7978H30.287ZM41.07 39.5938V28.3798H48.19V30.0638H42.973V33.1718H47.444V34.7728H42.973V37.9128H48.206V39.5948H41.07V39.5938Z" fill="white"/>
</svg>
