<svg width="120" height="54" viewBox="0 0 120 54" fill="none" xmlns="http://www.w3.org/2000/svg">
<path d="M19.885 33.288L17.78 30.071H15.673V33.288H12.913V22.184H17.763C20.523 22.184 22.367 23.687 22.367 26.086C22.367 27.541 21.665 28.716 20.491 29.401L23.102 33.288H19.886H19.885ZM15.673 27.589H17.715C18.776 27.589 19.608 27.002 19.608 26.087C19.608 25.189 18.776 24.617 17.715 24.617H15.673V27.589V27.589ZM27.213 24.585V26.61H32.144V28.96H27.214V30.887H32.847V33.288H24.454V22.184H32.847V24.584H27.214L27.213 24.585ZM45.152 27.705C45.152 31.002 42.654 33.288 39.16 33.288H34.7V22.184H39.16C42.654 22.184 45.152 24.454 45.152 27.704V27.705ZM42.359 27.705C42.359 25.989 40.971 24.666 39.16 24.666H37.461V30.806H39.161C40.971 30.806 42.359 29.467 42.359 27.704V27.705ZM46.669 33.288V22.184H49.43V33.288H46.67H46.669ZM60 24.651H56.815V33.288H54.072V24.65H50.888V22.183H60V24.65V24.651ZM8.415 29.29H11.338C10.764 31.827 8.68 33.499 5.878 33.499C2.53 33.5 0 31.083 0 27.736C0 24.388 2.53 21.971 5.878 21.971C8.679 21.971 10.765 23.644 11.338 26.181H8.415C7.99 25.158 7.101 24.551 5.861 24.551C4.049 24.551 2.791 25.891 2.791 27.736C2.791 29.581 4.049 30.92 5.861 30.92C7.101 30.92 7.99 30.315 8.415 29.291V29.29ZM10.356 43.908C10.356 45.757 8.867 46.999 6.366 46.999H0.772V35.88H6.038C8.458 35.88 9.865 37.023 9.865 38.84C9.865 39.87 9.291 40.933 8.329 41.276C9.685 41.57 10.356 42.714 10.356 43.909V43.908ZM3.536 38.135V40.457H5.613C6.66 40.457 7.233 39.935 7.233 39.215C7.233 38.511 6.677 38.135 5.613 38.135H3.536V38.135ZM7.658 43.549C7.658 42.862 7.086 42.469 6.055 42.469H3.535V44.709H6.005C7.15 44.709 7.656 44.203 7.656 43.549H7.658V43.549ZM18.894 45.086H14.185L13.448 47H10.505L15.231 35.88H17.881L22.59 47H19.646L18.893 45.087L18.894 45.086ZM17.996 42.78L16.539 39.035L15.083 42.779H17.995V42.78H17.996ZM33.732 35.877V47H31.605L26.274 40.9V47H23.51V35.88H25.62L30.984 42.144V35.88H33.732V35.877ZM40.42 42.845L38.785 44.741V46.998H36.02V35.88H38.784V40.983L43.217 35.88H46.487L42.253 40.754L46.849 47H43.398L40.42 42.847V42.846V42.845ZM10.682 8.488V19.593H7.94V15.428H3.416V19.593H0.656V8.488H3.416V12.947H7.939V8.488H10.682ZM42.411 19.593H39.651V14.025L37.185 17.828V17.845H35.65V17.828L33.169 13.992L33.184 19.592H30.425V8.489H32.483L36.417 14.417L40.353 8.49H42.411V19.594V19.593ZM47.459 10.889V12.914H52.392V15.266H47.459V17.191H53.093V19.593H44.7V8.488H53.093V10.888H47.459V10.889ZM20.554 8C24.946 8 28.504 11.39 28.504 15.575C28.504 17.003 28.084 18.399 27.294 19.593H23.461C24.0577 19.1433 24.5421 18.5614 24.876 17.893C25.1997 17.2413 25.3719 16.5249 25.3797 15.7973C25.3875 15.0697 25.2307 14.3498 24.9211 13.6913C24.6114 13.0329 24.1569 12.4529 23.5915 11.9949C23.0262 11.5369 22.3645 11.2126 21.6562 11.0463C20.9478 10.88 20.211 10.876 19.5008 11.0346C18.7907 11.1932 18.1256 11.5103 17.5553 11.9622C16.985 12.4141 16.5242 12.989 16.2074 13.6441C15.8907 14.2992 15.7261 15.0174 15.726 15.745C15.726 17.317 16.482 18.711 17.646 19.593H13.812C13.0229 18.4015 12.6021 17.0041 12.602 15.575C12.602 11.39 16.163 8 20.554 8ZM17.946 16.816H23.161C22.788 17.926 21.761 18.723 20.553 18.723C19.345 18.723 18.32 17.926 17.946 16.816Z" fill="white"/>
</svg>
