<svg width="121" height="54" xmlns="http://www.w3.org/2000/svg" xmlns:xlink="http://www.w3.org/1999/xlink"><defs><path d="M56.503 30.46c.27.527.631.755.631.755h-7.412s.304-.333.197-.737l-.484-1.194H46.48l-.483 1.194c-.106.404.197.737.197.737H40.22s.335-.282.551-.755l3.17-8.195c.213-.517-.14-.818-.14-.818h9.508s-.337.306-.158.833l3.352 8.18h.001zm-8.49-4.74c-.09-.206-.101-.503-.101-.503H47.9s-.012.297-.103.502c-.026.067-.738 1.79-.738 1.79h1.693l-.74-1.79zm-20.129 4.599v-8.263c0-.438-.293-.616-.293-.616h11.46v3.158s-.424-.438-1.047-.438H33.78v.78h3.241c.181 0 .735-.047.88-.246l-.005 2.981c-.138-.179-.693-.241-.874-.241h-3.24v.779h4.221c.624 0 1.05-.435 1.05-.435v3.437H27.53c.382-.185.356-.814.356-.897h-.002zm-9.559.29l-2.097-3.398v3.108c0 .084-.086.712.295.896H9.775c.38-.185.355-.812.355-.896v-8.263c0-.438-.292-.616-.292-.616h6.684s-.295.178-.295.616l.003 3.275 2.309-3.157c.33-.473-.045-.734-.045-.734h6.765c0 .018-.32.19-.618.572l-2.518 3.412 3.172 4.975c.276.361.512.533.706.676.119.09.2.141.2.141h-7.902s.224-.131.027-.606zM0 31.216c.38-.184.355-.813.355-.896v-8.263c0-.44-.293-.616-.293-.616H6.93s-.29.178-.29.616v8.261c0 .084-.026.713.355.897H0v.001z" id="ikea-w_a"/></defs><g fill="none" fill-rule="evenodd"><mask id="ikea-w_b" fill="#fff"><use xlink:href="#ikea-w_a"/></mask><use fill="#151515" fill-rule="nonzero" xlink:href="#ikea-w_a"/><g mask="url(#ikea-w_b)" fill="#151515"><path d="M0 0h120.8v53.8H0z"/></g></g></svg>