<svg width="121" height="54" xmlns="http://www.w3.org/2000/svg"><g fill="#000" fill-rule="nonzero"><path d="M40.84 18.793c.717.166 1.46.188 2.186.067.257-.042.623.19.65.444.025.232-.234.503-.518.507-.746.008-1.492.003-2.238 0-.294-.002-.588-.021-.882-.02a.406.406 0 0 0-.257.076c-.779.738-1.55 1.483-2.324 2.227l.063.12.62.163c.042.295.088.631.142.967.114.716.232 1.431.35 2.147.047.286.086.575.147.86.2.937.41 1.873.616 2.81.193.88.47 1.733.906 2.524.416.753.624.86 1.218.184.63-.721 1.187-1.503 1.661-2.335.907-1.593 1.739-3.228 2.582-4.856.469-.904.898-1.829 1.345-2.744.04-.08.085-.16.133-.236.123-.197.31-.3.528-.228.195.064.348.202.353.445.042 2.024.086 4.047.131 6.07.04 1.751.084 3.502.131 5.252.004.138.071.275.135.506.181-.484.33-.876.475-1.268.288-.781.579-1.561.86-2.344.311-.863.598-1.733.922-2.59.348-.92.722-1.829 1.093-2.74.215-.526.422-1.058.68-1.563.106-.208.306-.44.514-.509.392-.13.627.11.725.566.147.684.328 1.36.482 2.042.105.463.181.933.284 1.397.103.461.229.918.334 1.38.102.442.19.889.286 1.333.113.523.233 1.045.344 1.569.067.313.121.63.24.957.14-.349.276-.7.417-1.048.303-.753.562-1.527.922-2.252.496-1 1.028-1.986 1.619-2.933.708-1.136 1.579-2.14 2.76-2.827.637-.371 1.333-.576 2.058-.53.833.063 1.65.267 2.415.605a14.534 14.534 0 0 1 3.537 2.126 39.27 39.27 0 0 1 2.122 1.91c.362.345.67.749 1.01 1.134.08-.132.12-.274.215-.335.125-.083.33-.182.43-.132.144.074.302.266.317.421.043.427.019.861.013 1.292-.003.235-.102.427-.335.5-.273.083-.515.04-.704-.217-.304-.414-.604-.834-.95-1.213-.64-.702-1.27-1.425-1.983-2.048-.676-.59-1.443-1.08-2.191-1.584a9.628 9.628 0 0 0-2.689-1.269c-.492-.144-.978-.25-1.492-.236-.676.02-1.242.314-1.765.7-1.244.914-2.055 2.185-2.764 3.514-.522.977-.965 1.998-1.397 3.019-.366.869-.67 1.764-.993 2.651-.102.28-.166.572-.265.853-.127.358-.489.47-.795.255a.208.208 0 0 1-.088-.107c-.09-.478-.166-.958-.264-1.434-.101-.495-.226-.985-.333-1.479-.101-.464-.188-.932-.288-1.396-.112-.524-.237-1.045-.35-1.568-.1-.465-.184-.934-.286-1.399-.104-.473-.225-.943-.331-1.416-.077-.34-.144-.682-.225-1.07-.08.062-.158.09-.177.141-.348.887-.691 1.776-1.03 2.666-.33.863-.667 1.724-.983 2.593-.359.986-.687 1.984-1.047 2.97-.366 1.002-.75 1.999-1.14 2.992-.085.217-.284.394-.517.367-.233-.028-.413-.198-.475-.46-.233-.982-.246-1.984-.261-2.986-.04-2.558-.083-5.117-.13-7.675a4.382 4.382 0 0 0-.185-1.095c-.311.638-.602 1.287-.937 1.912a335.628 335.628 0 0 1-2.484 4.546c-.48.867-1.059 1.667-1.8 2.33-.851.76-1.653.65-2.25-.299-.389-.62-.649-1.333-.898-2.029-.248-.693-.425-1.414-.604-2.13-.122-.492-.193-.996-.287-1.495a17.386 17.386 0 0 0-.339-1.539c-.097.416-.192.832-.29 1.247-.112.47-.231.937-.34 1.408-.1.431-.187.867-.29 1.298-.106.449-.227.894-.338 1.341-.099.4-.183.803-.291 1.2a44.202 44.202 0 0 1-.462 1.594c-.123.397-.271.787-.408 1.18-.093.265-.27.461-.545.518-.335.069-.564-.17-.69-.407a13.94 13.94 0 0 1-.67-1.532 32 32 0 0 1-.594-1.702c-.153-.476-.278-.962-.42-1.442a206.792 206.792 0 0 0-1.002-3.286c-.195-.622-.392-1.242-.591-1.863a15.33 15.33 0 0 0-.645-1.732c-.134.342-.287.679-.396 1.029a51.829 51.829 0 0 0-.61 2.094c-.154.576-.267 1.162-.414 1.74-.147.575-.314 1.146-.47 1.72-.138.507-.258 1.018-.411 1.52-.263.864-.514 1.745-1.055 2.48-.666.907-1.53.723-1.93-.235-.25-.6-.391-1.248-.54-1.885-.155-.67-.262-1.351-.402-2.093-.309.466-.577.873-.85 1.279-.85 1.271-1.804 2.449-3.04 3.376-.702.528-1.488.908-2.358.904-1.223-.006-2.54-.26-3.23-1.741-.22-.471-.236-.48-.75-.35-.563.143-1.117.327-1.68.47-.45.114-.906.198-1.361.286-.295.057-.599.08-.887.159-.088.024-.208.198-.194.282.092.528.215 1.05.332 1.573.098.442.21.881.3 1.324.062.297-.113.472-.37.551-.224.069-.454-.114-.524-.4-.174-.71-.338-1.424-.509-2.136-.077-.32-.162-.64-.251-.992-.504.045-1 .117-1.497.129-.861.02-1.728.062-2.583-.01-1.155-.097-2.319-.225-3.34-.866-.634-.397-.961-.995-.964-1.71-.002-.644.272-1.22.736-1.7.971-1.004 2.106-1.79 3.284-2.521.96-.596 1.928-1.18 2.884-1.782a.366.366 0 0 0 .126-.29c-.07-.748-.158-1.493-.24-2.24-.05-.477-.108-.954-.144-1.432-.018-.239.218-.472.46-.495.228-.021.496.21.52.47.052.56.091 1.123.141 1.684.042.468.088.935.139 1.401.03.275.217.22.37.143.844-.429 1.673-.887 2.525-1.3 1.032-.5 2.08-.97 3.125-1.443a69.838 69.838 0 0 1 2.195-.956c.695-.286 1.4-.549 2.104-.812.647-.242 1.29-.505 1.952-.697a18.665 18.665 0 0 1 1.957-.425c.254-.045.488.198.498.431.009.219-.206.397-.451.458-.707.176-1.413.358-2.108.576a31.11 31.11 0 0 0-1.868.67c-.786.302-1.571.61-2.346.938a97.838 97.838 0 0 0-3.058 1.347c-.979.456-1.942.945-2.906 1.43-.523.262-1.03.554-1.554.814-.172.085-.23.191-.206.368.079.565.155 1.13.233 1.696.044.319.092.638.135.957.095.712.175 1.426.288 2.135.101.633.238 1.261.37 1.952.425-.067.844-.116 1.255-.202.453-.094.901-.213 1.347-.336.54-.15 1.068-.379 1.618-.455.623-.086.639-.463.713-.949.122-.8.458-1.542.884-2.233a10.836 10.836 0 0 1 2.155-2.504 14.355 14.355 0 0 1 3.068-2.05c.647-.317 1.3-.639 1.981-.86.72-.235 1.474-.342 2.242-.155.535.131.995.616 1.143 1.146.22.793-.078 1.46-.45 2.107-.142.248-.368.447-.557.667a.397.397 0 0 0-.09.413c.09.34.119.696.164 1.046.057.445.087.894.162 1.335.099.58.215 1.159.351 1.731.109.456.253.904.393 1.352.03.098.112.179.228.354.24-.497.478-.918.651-1.364.228-.588.414-1.193.6-1.796.113-.363.192-.737.287-1.105.16-.62.321-1.237.478-1.856.097-.38.179-.765.28-1.144.154-.572.308-1.144.483-1.71.161-.524.329-1.049.536-1.556.116-.278.276-.535.475-.761.344-.393.763-.375 1.02.074.252.461.465.943.636 1.44.264.718.495 1.447.728 2.176.147.459.271.926.41 1.388.155.517.32 1.032.472 1.55.185.63.353 1.264.546 1.89.211.684.436 1.365.667 2.043.118.342.261.675.428.996 1.128-3.617 1.89-7.323 2.7-11.016l-.082-.053c-.187.197-.375.393-.56.592-.512.547-1.015 1.1-1.533 1.64-.28.292-.619.249-.808-.088-.147-.264.016-.446.182-.62l3.975-4.144c.062-.064.126-.126.22-.222-.426-.054-.82-.12-1.217-.15-.813-.063-1.63-.093-2.442-.163a48.653 48.653 0 0 1-2.173-.248 4.838 4.838 0 0 1-.776-.185c-.302-.092-.261-.353-.224-.575.04-.241.27-.294.455-.274.662.073 1.32.178 1.978.271.031.005.063.01.094.011.741.051 1.483.096 2.224.154.906.071 1.81.163 2.717.222a.667.667 0 0 0 .452-.164c.662-.63 1.285-1.3 1.96-1.917a203.882 203.882 0 0 1 4.266-3.814c1.138-.983 2.317-1.92 3.606-2.706.307-.187.638-.192.932.026.214.148.415.316.599.5.211.229.19.554-.008.718-.154.128-.53.086-.703-.085-.113-.113-.217-.233-.347-.373-3.322 2.25-6.188 4.998-9.112 7.818zM7.226 26.488c-.454.271-.875.51-1.284.77-.927.59-1.874 1.153-2.762 1.797a12.638 12.638 0 0 0-1.86 1.626c-.672.726-.463 1.529.392 1.962.354.188.736.319 1.131.386.865.135 1.736.22 2.61.253.823.022 1.65-.074 2.474-.11.199-.008.258-.096.23-.28-.096-.646-.187-1.293-.283-1.94-.043-.286-.09-.573-.138-.86-.112-.674-.237-1.347-.335-2.024-.073-.505-.114-1.015-.175-1.58zm7.696 4.962c.196-.075.306-.114.414-.16.843-.352 1.702-.67 2.523-1.067a70.592 70.592 0 0 0 3.27-1.711c1-.55 1.952-1.181 2.747-2.011.481-.501.896-1.057.784-1.811a.708.708 0 0 0-.297-.458c-.462-.262-.99-.2-1.46-.076-.647.18-1.276.42-1.88.713a13.692 13.692 0 0 0-3.78 2.6c-.84.821-1.546 1.756-1.992 2.857-.136.335-.206.696-.33 1.124zm.068.987a.423.423 0 0 0 .014.094c.014.027.044.049.05.077.208.907.89 1.286 1.707 1.433 1.037.187 1.936-.162 2.74-.83 1.588-1.32 2.7-3.011 3.742-4.758.023-.039.003-.104.003-.16-2.59 1.758-5.375 3.056-8.256 4.144z"/><path d="M61.153 31.098c.523.066 1.064.072 1.567.213.696.195 1.205.673 1.525 1.33.367.754.354 1.573.229 2.356-.156.98-.757 1.687-1.696 2.058a2.348 2.348 0 0 1-.755.153c-.608.024-1.217.006-1.825.021-.228.006-.326-.071-.326-.303.004-1.826.004-3.652.001-5.477 0-.206.072-.309.297-.3.325.014.65.004.976.004l.007-.055zm-.289 5.21c1.174.119 2.07-.12 2.436-.878.402-.833.43-1.694-.029-2.512-.54-.964-1.483-.877-2.407-.866v4.256zm17.848-3.36l.063-.271h.854c.007.1.02.19.02.28-.003 1.407.007 2.814-.016 4.22-.01.643-.235 1.223-.884 1.471-.375.14-.773.203-1.173.187-.14-.005-.267-.343-.44-.585.341-.064.586-.1.826-.157.491-.118.782-.458.762-1.182-.229.11-.445.222-.666.32-.713.32-1.593-.054-1.906-.73-.447-.965-.47-1.975-.052-2.98.35-.843 1.616-1.314 2.415-.648.042.035.108.042.197.074zm.044 2.028v-.503c0-.54-.3-.916-.826-1.034-.476-.107-.906.135-1.068.602-.193.556-.179 1.112-.013 1.674.173.589.515.823 1.113.739.452-.064.794-.497.794-1.007v-.471zm-9.66.343h-2.949c-.053.42.124.734.409.955.33.257.73.25 1.123.13.047-.02.093-.043.138-.069.355-.159.66-.064.83.277a.246.246 0 0 1-.063.226c-.576.449-1.202.62-1.936.411-.861-.245-1.218-.85-1.413-1.666-.182-.765-.05-1.458.29-2.127.379-.743 1.407-1.048 2.158-.825.937.277 1.305.943 1.374 1.846.02.27.026.54.04.842zm-.923-.862c-.07-.387-.166-.717-.513-.902-.335-.179-.688-.225-1.02-.014-.32.203-.527.488-.487.916h2.02zm12.51-1.74c.54-.136.837-.078 1.009.206.524-.4 1.102-.469 1.715-.245.39.142.667.428.764.813.119.481.192.972.22 1.467.035.649.005 1.302.01 1.953.001.22-.07.335-.312.317-.206-.015-.414-.003-.657-.003v-.787c-.003-.704.013-1.408-.017-2.111-.033-.796-.718-1.122-1.38-.766a.727.727 0 0 0-.382.653c-.016.86-.02 1.722-.028 2.583-.003.424-.006.428-.416.428h-.526v-4.508zm-7.746.396l-.404.682a1.865 1.865 0 0 0-1.338-.373c-.193.017-.344.064-.392.267-.05.215.02.39.224.484.304.14.615.261.92.399.211.09.418.193.618.306.696.413.717 1.535.228 1.995-.25.234-.64.38-.988.44-.728.122-1.41-.092-2.028-.489-.051-.033-.07-.15-.065-.225.004-.061.064-.12.105-.176.296-.405.148-.445.618-.183.445.247.914.27 1.386.196.14-.023.306-.206.363-.353.095-.249-.116-.405-.306-.498-.39-.192-.8-.343-1.196-.524-.556-.253-.89-.648-.875-1.304.01-.484.394-.925.786-1.069.772-.283 1.5-.102 2.2.264.057.03.092.102.144.161zm2.005 4.11c-.258 0-.511.028-.751-.015-.082-.014-.184-.207-.186-.32-.015-.891-.009-1.782-.009-2.674 0-.42.003-.839 0-1.258-.002-.21.082-.307.302-.293.207.013.415.003.644.003v4.558zm.147-5.706a.616.616 0 0 1-.598.572c-.34-.002-.624-.25-.601-.561.027-.383.294-.636.625-.62.313.014.582.355.574.61z"/></g></svg>