<svg width="121" height="54" viewBox="0 0 121 54" fill="none" xmlns="http://www.w3.org/2000/svg">
<g clip-path="url(#clip0)">
<path d="M40.84 18.7928C41.557 18.9588 42.3 18.9808 43.026 18.8598C43.283 18.8178 43.649 19.0498 43.676 19.3038C43.701 19.5358 43.442 19.8068 43.158 19.8108C42.412 19.8188 41.666 19.8138 40.92 19.8108C40.626 19.8088 40.332 19.7898 40.038 19.7908C39.9462 19.7863 39.8556 19.8131 39.781 19.8668C39.002 20.6048 38.231 21.3498 37.457 22.0938L37.52 22.2138L38.14 22.3768C38.182 22.6718 38.228 23.0078 38.282 23.3438C38.396 24.0598 38.514 24.7748 38.632 25.4908C38.679 25.7768 38.718 26.0658 38.779 26.3508C38.979 27.2878 39.189 28.2238 39.395 29.1608C39.588 30.0408 39.865 30.8938 40.301 31.6848C40.717 32.4378 40.925 32.5448 41.519 31.8688C42.149 31.1478 42.706 30.3658 43.18 29.5338C44.087 27.9408 44.919 26.3058 45.762 24.6778C46.231 23.7738 46.66 22.8488 47.107 21.9338C47.147 21.8538 47.192 21.7738 47.24 21.6978C47.363 21.5008 47.55 21.3978 47.768 21.4698C47.963 21.5338 48.116 21.6718 48.121 21.9148C48.163 23.9388 48.207 25.9618 48.252 27.9848C48.292 29.7358 48.336 31.4868 48.383 33.2368C48.387 33.3748 48.454 33.5118 48.518 33.7428C48.699 33.2588 48.848 32.8668 48.993 32.4748C49.281 31.6938 49.572 30.9138 49.853 30.1308C50.164 29.2678 50.451 28.3978 50.775 27.5408C51.123 26.6208 51.497 25.7118 51.868 24.8008C52.083 24.2748 52.29 23.7428 52.548 23.2378C52.654 23.0298 52.854 22.7978 53.062 22.7288C53.454 22.5988 53.689 22.8388 53.787 23.2948C53.934 23.9788 54.115 24.6548 54.269 25.3368C54.374 25.7998 54.45 26.2698 54.553 26.7338C54.656 27.1948 54.782 27.6518 54.887 28.1138C54.989 28.5558 55.077 29.0028 55.173 29.4468C55.286 29.9698 55.406 30.4918 55.517 31.0158C55.584 31.3288 55.638 31.6458 55.757 31.9728C55.897 31.6238 56.033 31.2728 56.174 30.9248C56.477 30.1718 56.736 29.3978 57.096 28.6728C57.592 27.6728 58.124 26.6868 58.715 25.7398C59.423 24.6038 60.294 23.5998 61.475 22.9128C62.112 22.5418 62.808 22.3368 63.533 22.3828C64.366 22.4458 65.183 22.6498 65.948 22.9878C67.2221 23.5246 68.4131 24.2405 69.485 25.1138C70.2153 25.7245 70.9231 26.3616 71.607 27.0238C71.969 27.3688 72.277 27.7728 72.617 28.1578C72.697 28.0258 72.737 27.8838 72.832 27.8228C72.957 27.7398 73.162 27.6408 73.262 27.6908C73.406 27.7648 73.564 27.9568 73.579 28.1118C73.622 28.5388 73.598 28.9728 73.592 29.4038C73.589 29.6388 73.49 29.8308 73.257 29.9038C72.984 29.9868 72.742 29.9438 72.553 29.6868C72.249 29.2728 71.949 28.8528 71.603 28.4738C70.963 27.7718 70.333 27.0488 69.62 26.4258C68.944 25.8358 68.177 25.3458 67.429 24.8418C66.6038 24.2821 65.6966 23.854 64.74 23.5728C64.248 23.4288 63.762 23.3228 63.248 23.3368C62.572 23.3568 62.006 23.6508 61.483 24.0368C60.239 24.9508 59.428 26.2218 58.719 27.5508C58.197 28.5278 57.754 29.5488 57.322 30.5698C56.956 31.4388 56.652 32.3338 56.329 33.2208C56.227 33.5008 56.163 33.7928 56.064 34.0738C55.937 34.4318 55.575 34.5438 55.269 34.3288C55.2283 34.3042 55.1973 34.2665 55.181 34.2218C55.091 33.7438 55.015 33.2638 54.917 32.7878C54.816 32.2928 54.691 31.8028 54.584 31.3088C54.483 30.8448 54.396 30.3768 54.296 29.9128C54.184 29.3888 54.059 28.8678 53.946 28.3448C53.846 27.8798 53.762 27.4108 53.66 26.9458C53.556 26.4728 53.435 26.0028 53.329 25.5298C53.252 25.1898 53.185 24.8478 53.104 24.4598C53.024 24.5218 52.946 24.5498 52.927 24.6008C52.579 25.4878 52.236 26.3768 51.897 27.2668C51.567 28.1298 51.23 28.9908 50.914 29.8598C50.555 30.8458 50.227 31.8438 49.867 32.8298C49.501 33.8318 49.117 34.8288 48.727 35.8218C48.642 36.0388 48.443 36.2158 48.21 36.1888C47.977 36.1608 47.797 35.9908 47.735 35.7288C47.502 34.7468 47.489 33.7448 47.474 32.7428C47.434 30.1848 47.391 27.6258 47.344 25.0678C47.329 24.6964 47.2669 24.3285 47.159 23.9728C46.848 24.6108 46.557 25.2598 46.222 25.8848C45.4057 27.4065 44.5777 28.9219 43.738 30.4308C43.258 31.2978 42.679 32.0978 41.938 32.7608C41.087 33.5208 40.285 33.4108 39.688 32.4618C39.299 31.8418 39.039 31.1288 38.79 30.4328C38.542 29.7398 38.365 29.0188 38.186 28.3028C38.064 27.8108 37.993 27.3068 37.899 26.8078C37.8093 26.2899 37.6962 25.7764 37.56 25.2688C37.463 25.6848 37.368 26.1008 37.27 26.5158C37.158 26.9858 37.039 27.4528 36.93 27.9238C36.83 28.3548 36.743 28.7908 36.64 29.2218C36.534 29.6708 36.413 30.1158 36.302 30.5628C36.203 30.9628 36.119 31.3658 36.011 31.7628C35.867 32.297 35.713 32.8284 35.549 33.3568C35.426 33.7538 35.278 34.1438 35.141 34.5368C35.048 34.8018 34.871 34.9978 34.596 35.0548C34.261 35.1238 34.032 34.8848 33.906 34.6478C33.6522 34.151 33.4285 33.6394 33.236 33.1158C33.0221 32.5541 32.824 31.9866 32.642 31.4138C32.489 30.9378 32.364 30.4518 32.222 29.9718C31.8971 28.8737 31.5631 27.7783 31.22 26.6858C31.025 26.0638 30.828 25.4438 30.629 24.8228C30.449 24.233 30.2336 23.6546 29.984 23.0908C29.85 23.4328 29.697 23.7698 29.588 24.1198C29.37 24.8134 29.1666 25.5116 28.978 26.2138C28.824 26.7898 28.711 27.3758 28.564 27.9538C28.417 28.5288 28.25 29.0998 28.094 29.6738C27.956 30.1808 27.836 30.6918 27.683 31.1938C27.42 32.0578 27.169 32.9388 26.628 33.6738C25.962 34.5808 25.098 34.3968 24.698 33.4388C24.448 32.8388 24.307 32.1908 24.158 31.5538C24.003 30.8838 23.896 30.2028 23.756 29.4608C23.447 29.9268 23.179 30.3338 22.906 30.7398C22.056 32.0108 21.102 33.1888 19.866 34.1158C19.164 34.6438 18.378 35.0238 17.508 35.0198C16.285 35.0138 14.968 34.7598 14.278 33.2788C14.058 32.8078 14.042 32.7988 13.528 32.9288C12.965 33.0718 12.411 33.2558 11.848 33.3988C11.398 33.5128 10.942 33.5968 10.487 33.6848C10.192 33.7418 9.88801 33.7648 9.60001 33.8438C9.51201 33.8678 9.39201 34.0418 9.40601 34.1258C9.49801 34.6538 9.62101 35.1758 9.73801 35.6988C9.83601 36.1408 9.94801 36.5798 10.038 37.0228C10.1 37.3198 9.92501 37.4948 9.66801 37.5738C9.44401 37.6428 9.21401 37.4598 9.14401 37.1738C8.97001 36.4638 8.80601 35.7498 8.63501 35.0378C8.55801 34.7178 8.47301 34.3978 8.38401 34.0458C7.88001 34.0908 7.38401 34.1628 6.88701 34.1748C6.02601 34.1948 5.15901 34.2368 4.30401 34.1648C3.14901 34.0678 1.98501 33.9398 0.964011 33.2988C0.330011 32.9018 0.00301087 32.3038 1.08737e-05 31.5888C-0.00198913 30.9448 0.272011 30.3688 0.736011 29.8888C1.70701 28.8848 2.84201 28.0988 4.02001 27.3678C4.98001 26.7718 5.94801 26.1878 6.90401 25.5858C6.94536 25.5499 6.97814 25.5053 6.99994 25.4551C7.02175 25.4049 7.03202 25.3505 7.03001 25.2958C6.96001 24.5478 6.87201 23.8028 6.79001 23.0558C6.74001 22.5788 6.68201 22.1018 6.64601 21.6238C6.62801 21.3848 6.86401 21.1518 7.10601 21.1288C7.33401 21.1078 7.60201 21.3388 7.62601 21.5988C7.67801 22.1588 7.71701 22.7218 7.76701 23.2828C7.80901 23.7508 7.85501 24.2178 7.90601 24.6838C7.93601 24.9588 8.12301 24.9038 8.27601 24.8268C9.12001 24.3978 9.94901 23.9398 10.801 23.5268C11.833 23.0268 12.881 22.5568 13.926 22.0838C14.6522 21.7526 15.3839 21.4339 16.121 21.1278C16.816 20.8418 17.521 20.5788 18.225 20.3158C18.872 20.0738 19.515 19.8108 20.177 19.6188C20.8213 19.4422 21.4745 19.3003 22.134 19.1938C22.388 19.1488 22.622 19.3918 22.632 19.6248C22.641 19.8438 22.426 20.0218 22.181 20.0828C21.474 20.2588 20.768 20.4408 20.073 20.6588C19.4434 20.8622 18.8204 21.0856 18.205 21.3288C17.419 21.6308 16.634 21.9388 15.859 22.2668C14.8321 22.6983 13.8126 23.1474 12.801 23.6138C11.822 24.0698 10.859 24.5588 9.89501 25.0438C9.37201 25.3058 8.86501 25.5978 8.34101 25.8578C8.16901 25.9428 8.11101 26.0488 8.13501 26.2258C8.21401 26.7908 8.29001 27.3558 8.36801 27.9218C8.41201 28.2408 8.46001 28.5598 8.50301 28.8788C8.59801 29.5908 8.67801 30.3048 8.79101 31.0138C8.89201 31.6468 9.02901 32.2748 9.16101 32.9658C9.58601 32.8988 10.005 32.8498 10.416 32.7638C10.869 32.6698 11.317 32.5508 11.763 32.4278C12.303 32.2778 12.831 32.0488 13.381 31.9728C14.004 31.8868 14.02 31.5098 14.094 31.0238C14.216 30.2238 14.552 29.4818 14.978 28.7908C15.5641 27.8509 16.2909 27.0064 17.133 26.2868C18.0632 25.4743 19.0944 24.7853 20.201 24.2368C20.848 23.9198 21.501 23.5978 22.182 23.3768C22.902 23.1418 23.656 23.0348 24.424 23.2218C24.959 23.3528 25.419 23.8378 25.567 24.3678C25.787 25.1608 25.489 25.8278 25.117 26.4748C24.975 26.7228 24.749 26.9218 24.56 27.1418C24.5076 27.1952 24.4714 27.2622 24.4555 27.3353C24.4396 27.4084 24.4446 27.4845 24.47 27.5548C24.56 27.8948 24.589 28.2508 24.634 28.6008C24.691 29.0458 24.721 29.4948 24.796 29.9358C24.895 30.5158 25.011 31.0948 25.147 31.6668C25.256 32.1228 25.4 32.5708 25.54 33.0188C25.57 33.1168 25.652 33.1978 25.768 33.3728C26.008 32.8758 26.246 32.4548 26.419 32.0088C26.647 31.4208 26.833 30.8158 27.019 30.2128C27.132 29.8498 27.211 29.4758 27.306 29.1078C27.466 28.4878 27.627 27.8708 27.784 27.2518C27.881 26.8718 27.963 26.4868 28.064 26.1078C28.218 25.5358 28.372 24.9638 28.547 24.3978C28.708 23.8738 28.876 23.3488 29.083 22.8418C29.199 22.5638 29.359 22.3068 29.558 22.0808C29.902 21.6878 30.321 21.7058 30.578 22.1548C30.83 22.6158 31.043 23.0978 31.214 23.5948C31.478 24.3128 31.709 25.0418 31.942 25.7708C32.089 26.2298 32.213 26.6968 32.352 27.1588C32.507 27.6758 32.672 28.1908 32.824 28.7088C33.009 29.3388 33.177 29.9728 33.37 30.5988C33.581 31.2828 33.806 31.9638 34.037 32.6418C34.155 32.9838 34.298 33.3168 34.465 33.6378C35.593 30.0208 36.355 26.3148 37.165 22.6218L37.083 22.5688C36.896 22.7658 36.708 22.9618 36.523 23.1608C36.011 23.7078 35.508 24.2608 34.99 24.8008C34.71 25.0928 34.371 25.0498 34.182 24.7128C34.035 24.4488 34.198 24.2668 34.364 24.0928L38.339 19.9488C38.401 19.8848 38.465 19.8228 38.559 19.7268C38.133 19.6728 37.739 19.6068 37.342 19.5768C36.529 19.5138 35.712 19.4838 34.9 19.4138C34.1739 19.3474 33.4494 19.2647 32.727 19.1658C32.4637 19.1256 32.2041 19.0637 31.951 18.9808C31.649 18.8888 31.69 18.6278 31.727 18.4058C31.767 18.1648 31.997 18.1118 32.182 18.1318C32.844 18.2048 33.502 18.3098 34.16 18.4028C34.191 18.4078 34.223 18.4128 34.254 18.4138C34.995 18.4648 35.737 18.5098 36.478 18.5678C37.384 18.6388 38.288 18.7308 39.195 18.7898C39.3608 18.7932 39.522 18.7347 39.647 18.6258C40.309 17.9958 40.932 17.3258 41.607 16.7088C43.0111 15.4176 44.4332 14.1461 45.873 12.8948C47.011 11.9118 48.19 10.9748 49.479 10.1888C49.786 10.0018 50.117 9.99678 50.411 10.2148C50.625 10.3628 50.826 10.5308 51.01 10.7148C51.221 10.9438 51.2 11.2688 51.002 11.4328C50.848 11.5608 50.472 11.5188 50.299 11.3478C50.186 11.2348 50.082 11.1148 49.952 10.9748C46.63 13.2248 43.764 15.9728 40.84 18.7928V18.7928ZM7.22601 26.4878C6.77201 26.7588 6.35101 26.9978 5.94201 27.2578C5.01501 27.8478 4.06801 28.4108 3.18001 29.0548C2.5084 29.5347 1.88542 30.0793 1.32001 30.6808C0.648011 31.4068 0.857011 32.2098 1.71201 32.6428C2.06601 32.8308 2.44801 32.9618 2.84301 33.0288C3.70801 33.1638 4.57901 33.2488 5.45301 33.2818C6.27601 33.3038 7.10301 33.2078 7.92701 33.1718C8.12601 33.1638 8.18501 33.0758 8.15701 32.8918C8.06101 32.2458 7.97001 31.5988 7.87401 30.9518C7.83101 30.6658 7.78401 30.3788 7.73601 30.0918C7.62401 29.4178 7.49901 28.7448 7.40101 28.0678C7.32801 27.5628 7.28701 27.0528 7.22601 26.4878ZM14.922 31.4498C15.118 31.3748 15.228 31.3358 15.336 31.2898C16.179 30.9378 17.038 30.6198 17.859 30.2228C18.9637 29.681 20.0541 29.1105 21.129 28.5118C22.129 27.9618 23.081 27.3308 23.876 26.5008C24.357 25.9998 24.772 25.4438 24.66 24.6898C24.6433 24.5976 24.6084 24.5096 24.5574 24.431C24.5064 24.3524 24.4404 24.2847 24.363 24.2318C23.901 23.9698 23.373 24.0318 22.903 24.1558C22.256 24.3358 21.627 24.5758 21.023 24.8688C19.6257 25.5167 18.3478 26.3957 17.243 27.4688C16.403 28.2898 15.697 29.2248 15.251 30.3258C15.115 30.6608 15.045 31.0218 14.921 31.4498H14.922ZM14.99 32.4368C14.9911 32.4685 14.9958 32.5001 15.004 32.5308C15.018 32.5578 15.048 32.5798 15.054 32.6078C15.262 33.5148 15.944 33.8938 16.761 34.0408C17.798 34.2278 18.697 33.8788 19.501 33.2108C21.089 31.8908 22.201 30.1998 23.243 28.4528C23.266 28.4138 23.246 28.3488 23.246 28.2928C20.656 30.0508 17.871 31.3488 14.99 32.4368V32.4368Z" fill="white"/>
<path d="M61.1531 31.0979C61.6761 31.1639 62.2171 31.1699 62.7201 31.3109C63.4161 31.5059 63.9251 31.9839 64.2451 32.6409C64.6121 33.3949 64.5991 34.2139 64.4741 34.9969C64.3181 35.9769 63.7171 36.6839 62.7781 37.0549C62.5365 37.1472 62.2814 37.1989 62.0231 37.2079C61.4151 37.2319 60.8061 37.2139 60.1981 37.2289C59.9701 37.2349 59.8721 37.1579 59.8721 36.9259C59.8761 35.0999 59.8761 33.2739 59.8731 31.4489C59.8731 31.2429 59.9451 31.1399 60.1701 31.1489C60.4951 31.1629 60.8201 31.1529 61.1461 31.1529L61.1531 31.0979V31.0979ZM60.8641 36.3079C62.0381 36.4269 62.9341 36.1879 63.3001 35.4299C63.7021 34.5969 63.7301 33.7359 63.2711 32.9179C62.7311 31.9539 61.7881 32.0409 60.8641 32.0519V36.3079V36.3079ZM78.7121 32.9479L78.7751 32.6769H79.6291C79.6361 32.7769 79.6491 32.8669 79.6491 32.9569C79.6461 34.3639 79.6561 35.7709 79.6331 37.1769C79.6231 37.8199 79.3981 38.3999 78.7491 38.6479C78.3741 38.7879 77.9761 38.8509 77.5761 38.8349C77.4361 38.8299 77.3091 38.4919 77.1361 38.2499C77.4771 38.1859 77.7221 38.1499 77.9621 38.0929C78.4531 37.9749 78.7441 37.6349 78.7241 36.9109C78.4951 37.0209 78.2791 37.1329 78.0581 37.2309C77.3451 37.5509 76.4651 37.1769 76.1521 36.5009C75.7051 35.5359 75.6821 34.5259 76.1001 33.5209C76.4501 32.6779 77.7161 32.2069 78.5151 32.8729C78.5571 32.9079 78.6231 32.9149 78.7121 32.9469V32.9479ZM78.7561 34.9759V34.4729C78.7561 33.9329 78.4561 33.5569 77.9301 33.4389C77.4541 33.3319 77.0241 33.5739 76.8621 34.0409C76.6691 34.5969 76.6831 35.1529 76.8491 35.7149C77.0221 36.3039 77.3641 36.5379 77.9621 36.4539C78.4141 36.3899 78.7561 35.9569 78.7561 35.4469V34.9759ZM69.0961 35.3189H66.1471C66.0941 35.7389 66.2711 36.0529 66.5561 36.2739C66.8861 36.5309 67.2861 36.5239 67.6791 36.4039C67.7261 36.3839 67.7721 36.3609 67.8171 36.3349C68.1721 36.1759 68.4771 36.2709 68.6471 36.6119C68.6562 36.6519 68.6553 36.6935 68.6442 36.7329C68.6332 36.7724 68.6126 36.8085 68.5841 36.8379C68.0081 37.2869 67.3821 37.4579 66.6481 37.2489C65.7871 37.0039 65.4301 36.3989 65.2351 35.5829C65.0531 34.8179 65.1851 34.1249 65.5251 33.4559C65.9041 32.7129 66.9321 32.4079 67.6831 32.6309C68.6201 32.9079 68.9881 33.5739 69.0571 34.4769C69.0771 34.7469 69.0831 35.0169 69.0971 35.3189H69.0961ZM68.1731 34.4569C68.1031 34.0699 68.0071 33.7399 67.6601 33.5549C67.3251 33.3759 66.9721 33.3299 66.6401 33.5409C66.3201 33.7439 66.1131 34.0289 66.1531 34.4569H68.1731V34.4569ZM80.6831 32.7169C81.2231 32.5809 81.5201 32.6389 81.6921 32.9229C82.2161 32.5229 82.7941 32.4539 83.4071 32.6779C83.7971 32.8199 84.0741 33.1059 84.1711 33.4909C84.2901 33.9719 84.3631 34.4629 84.3911 34.9579C84.4261 35.6069 84.3961 36.2599 84.4011 36.9109C84.4021 37.1309 84.3311 37.2459 84.0891 37.2279C83.8831 37.2129 83.6751 37.2249 83.4321 37.2249V36.4379C83.4291 35.7339 83.4451 35.0299 83.4151 34.3269C83.3821 33.5309 82.6971 33.2049 82.0351 33.5609C81.9176 33.6242 81.8198 33.7187 81.7524 33.8338C81.6851 33.949 81.6507 34.0805 81.6531 34.2139C81.6371 35.0739 81.6331 35.9359 81.6251 36.7969C81.6221 37.2209 81.6191 37.2249 81.2091 37.2249H80.6831V32.7169V32.7169ZM72.9371 33.1129L72.5331 33.7949C72.1517 33.503 71.6725 33.3694 71.1951 33.4219C71.0021 33.4389 70.8511 33.4859 70.8031 33.6889C70.7531 33.9039 70.8231 34.0789 71.0271 34.1729C71.3311 34.3129 71.6421 34.4339 71.9471 34.5719C72.1581 34.6619 72.3651 34.7649 72.5651 34.8779C73.2611 35.2909 73.2821 36.4129 72.7931 36.8729C72.5431 37.1069 72.1531 37.2529 71.8051 37.3129C71.0771 37.4349 70.3951 37.2209 69.7771 36.8239C69.7261 36.7909 69.7071 36.6739 69.7121 36.5989C69.7161 36.5379 69.7761 36.4789 69.8171 36.4229C70.1131 36.0179 69.9651 35.9779 70.4351 36.2399C70.8801 36.4869 71.3491 36.5099 71.8211 36.4359C71.9611 36.4129 72.1271 36.2299 72.1841 36.0829C72.2791 35.8339 72.0681 35.6779 71.8781 35.5849C71.4881 35.3929 71.0781 35.2419 70.6821 35.0609C70.1261 34.8079 69.7921 34.4129 69.8071 33.7569C69.8171 33.2729 70.2011 32.8319 70.5931 32.6879C71.3651 32.4049 72.0931 32.5859 72.7931 32.9519C72.8501 32.9819 72.8851 33.0539 72.9371 33.1129V33.1129ZM74.9421 37.2229C74.6841 37.2229 74.4311 37.2509 74.1911 37.2079C74.1091 37.1939 74.0071 37.0009 74.0051 36.8879C73.9901 35.9969 73.9961 35.1059 73.9961 34.2139C73.9961 33.7939 73.9991 33.3749 73.9961 32.9559C73.9941 32.7459 74.0781 32.6489 74.2981 32.6629C74.5051 32.6759 74.7131 32.6659 74.9421 32.6659V37.2239V37.2229ZM75.0891 31.5169C75.0782 31.6695 75.011 31.8126 74.9004 31.9183C74.7899 32.024 74.644 32.0849 74.4911 32.0889C74.1511 32.0869 73.8671 31.8389 73.8901 31.5279C73.9171 31.1449 74.1841 30.8919 74.5151 30.9079C74.8281 30.9219 75.0971 31.2629 75.0891 31.5179V31.5169Z" fill="white"/>
</g>
<defs>
<clipPath id="clip0">
<rect width="121" height="54" fill="white"/>
</clipPath>
</defs>
</svg>
