<svg width="121" height="54" viewBox="0 0 121 54" fill="none" xmlns="http://www.w3.org/2000/svg">
<path d="M93.716 22.8178V26.1158H89.414V22.8178H87.264V31.4648H89.414V27.9808H93.716V31.4648H95.866V22.8178H93.716V22.8178ZM58.32 23.8138C57.951 23.0048 57.275 22.6318 56.598 22.6318C55.922 22.6318 55.185 23.0038 54.878 23.8128L51.375 31.4648H53.649L54.386 29.6608H58.81L59.547 31.4658H61.821L58.32 23.8138V23.8138ZM55.062 27.9198L56.352 24.8098C56.414 24.6848 56.476 24.6848 56.537 24.6848C56.597 24.6848 56.659 24.6848 56.721 24.8098L58.011 27.9188H55.062V27.9198ZM33 21.2628C31.955 21.2628 31.342 21.8228 30.85 22.8798L28.085 29.3498L25.32 22.8798C24.828 21.8218 24.214 21.2628 23.23 21.2628C22.308 21.2628 21.325 21.9468 21.325 23.3778V31.4028H23.475V23.6278L26.241 30.0358C26.61 30.9068 27.224 31.4658 28.084 31.4658C28.944 31.4658 29.559 30.9058 29.929 30.0358L32.694 23.6258V31.4028H34.844V23.4398C34.844 21.9458 33.922 21.2628 33.002 21.2628H33ZM38.593 29.6008C38.47 29.6008 38.409 29.5378 38.409 29.4128V27.8588H43.694V26.1768H38.409V24.8698C38.409 24.7468 38.47 24.6848 38.593 24.6848H43.816V22.8178H37.548C36.811 22.8178 36.258 23.4408 36.258 24.1248V30.1588C36.258 30.8438 36.811 31.4658 37.548 31.4658H43.816V29.6598H38.593V29.5998V29.6008ZM47.443 31.4658V24.8698C47.443 24.7468 47.503 24.6848 47.627 24.6848H52.85V22.8178H46.58C45.843 22.8178 45.29 23.4408 45.29 24.1248V31.4648H47.441L47.443 31.4658ZM85.91 27.1098C85.91 24.1238 84.682 22.6928 81.057 22.6928C77.431 22.6928 76.202 24.1238 76.202 27.1108C76.202 30.0968 77.431 31.5278 81.057 31.5278C84.682 31.5278 85.911 30.0968 85.911 27.1108V27.1098H85.91ZM80.995 29.7228C78.845 29.7228 78.168 28.9138 78.168 27.1098C78.168 25.3678 78.721 24.4968 80.995 24.4968C83.208 24.4968 83.823 25.3668 83.823 27.1098C83.823 28.9138 83.146 29.7228 80.995 29.7228ZM70.241 21.5108H66C62.866 21.5108 61.576 23.1278 61.576 25.9278C61.576 29.1638 63.174 30.3448 66.124 30.3448H67.045V31.4648H69.195V30.3448H70.118C73.068 30.3448 74.665 29.1008 74.665 25.9278C74.603 23.0678 73.375 21.5108 70.24 21.5108H70.241V21.5108ZM67.045 28.5408H66.062C64.526 28.5408 63.666 27.9178 63.666 25.9278C63.666 24.1238 64.526 23.3148 65.754 23.3148H67.044V28.5408H67.045ZM70.118 28.5408H69.134V23.3148H70.424C71.653 23.3148 72.513 24.0608 72.513 25.9278C72.513 27.8578 71.653 28.5408 70.116 28.5408H70.118ZM9.588 18.1508V27.0468C9.58776 27.2269 9.51674 27.3996 9.39027 27.5278C9.26381 27.6559 9.09203 27.7292 8.912 27.7318H7.867C7.807 27.7318 7.744 27.7948 7.744 27.8568V35.3208C12.291 35.8188 17.024 32.0868 17.024 26.7358C17.024 22.3188 13.766 18.6488 9.587 18.1508H9.588ZM9.403 31.4008C9.26469 31.4014 9.12765 31.3744 8.9999 31.3214C8.87215 31.2683 8.75624 31.1904 8.65895 31.0921C8.56166 30.9938 8.48494 30.8771 8.43326 30.7488C8.38159 30.6205 8.35601 30.4831 8.358 30.3448C8.358 29.7218 8.85 29.2868 9.403 29.2868C10.018 29.2868 10.448 29.7848 10.448 30.3448C10.448 30.9668 10.018 31.4028 9.403 31.4028V31.4018V31.4008ZM11.923 31.4028C11.309 31.4028 10.878 30.9068 10.878 30.3458C10.878 29.7228 11.37 29.2868 11.924 29.2868C12.537 29.2868 12.967 29.7858 12.967 30.3458C12.967 30.9678 12.476 31.4028 11.922 31.4028H11.923ZM14.381 31.4028C14.2427 31.4034 14.1057 31.3764 13.9779 31.3234C13.8501 31.2703 13.7342 31.1924 13.6369 31.0941C13.5397 30.9958 13.4629 30.8791 13.4113 30.7508C13.3596 30.6225 13.334 30.4851 13.336 30.3468C13.336 29.7238 13.828 29.2878 14.381 29.2878C14.996 29.2878 15.426 29.7868 15.426 30.3468C15.486 30.9678 14.996 31.4038 14.381 31.4038V31.4028ZM0.001 26.7378C-0.061 30.8448 2.889 34.3278 6.7 35.1998V27.4218C6.7 27.0468 7.006 26.7358 7.376 26.7358H8.42C8.482 26.7358 8.482 26.6738 8.543 26.6738V18.0898C3.933 18.0898 0.063 21.7618 0 26.7378H0.001ZM6.884 25.1828C6.269 25.1828 5.839 24.6848 5.839 24.1248C5.839 23.5028 6.33 23.0668 6.884 23.0668C7.498 23.0668 7.929 23.5628 7.929 24.1238C7.929 24.7468 7.499 25.1828 6.884 25.1828Z" fill="white"/>
</svg>
