<svg width="121" height="54" xmlns="http://www.w3.org/2000/svg" xmlns:xlink="http://www.w3.org/1999/xlink"><defs><path d="M93.716 22.818v3.298h-4.302v-3.298h-2.15v8.647h2.15v-3.484h4.302v3.484h2.15v-8.647h-2.15zm-35.396.996c-.369-.809-1.045-1.182-1.722-1.182-.676 0-1.413.372-1.72 1.181l-3.503 7.652h2.274l.737-1.804h4.424l.737 1.805h2.274l-3.501-7.652zm-3.258 4.106l1.29-3.11c.062-.125.124-.125.185-.125.06 0 .122 0 .184.125l1.29 3.109h-2.949zM33 21.263c-1.045 0-1.658.56-2.15 1.617l-2.765 6.47-2.765-6.47c-.492-1.058-1.106-1.617-2.09-1.617-.922 0-1.905.684-1.905 2.115v8.025h2.15v-7.775l2.766 6.408c.369.871.983 1.43 1.843 1.43s1.475-.56 1.845-1.43l2.765-6.41v7.777h2.15V23.44c0-1.494-.922-2.177-1.842-2.177H33zm5.593 8.338c-.123 0-.184-.063-.184-.188v-1.554h5.285v-1.682h-5.285V24.87c0-.123.061-.185.184-.185h5.223v-1.867h-6.268c-.737 0-1.29.623-1.29 1.307v6.034c0 .685.553 1.307 1.29 1.307h6.268V29.66h-5.223v-.06zm8.85 1.865V24.87c0-.123.06-.185.184-.185h5.223v-1.867H46.58c-.737 0-1.29.623-1.29 1.307v7.34h2.151zM85.91 27.11c0-2.986-1.228-4.417-4.853-4.417-3.626 0-4.855 1.431-4.855 4.418 0 2.986 1.229 4.417 4.855 4.417 3.625 0 4.854-1.431 4.854-4.417v-.001zm-4.915 2.613c-2.15 0-2.827-.809-2.827-2.613 0-1.742.553-2.613 2.827-2.613 2.213 0 2.828.87 2.828 2.613 0 1.804-.677 2.613-2.828 2.613zm-10.754-8.212H66c-3.134 0-4.424 1.617-4.424 4.417 0 3.236 1.598 4.417 4.548 4.417h.921v1.12h2.15v-1.12h.923c2.95 0 4.547-1.244 4.547-4.417-.062-2.86-1.29-4.417-4.425-4.417h.001zm-3.196 7.03h-.983c-1.536 0-2.396-.623-2.396-2.613 0-1.804.86-2.613 2.088-2.613h1.29v5.226h.001zm3.073 0h-.984v-5.226h1.29c1.229 0 2.089.746 2.089 2.613 0 1.93-.86 2.613-2.397 2.613h.002zm-60.53-10.39v8.896a.686.686 0 0 1-.676.685H7.867c-.06 0-.123.063-.123.125v7.464c4.547.498 9.28-3.234 9.28-8.585 0-4.417-3.258-8.087-7.437-8.585zm-.185 13.25a1.041 1.041 0 0 1-1.045-1.056c0-.623.492-1.058 1.045-1.058.615 0 1.045.498 1.045 1.058 0 .622-.43 1.058-1.045 1.058v-.001zm2.52.002c-.614 0-1.045-.496-1.045-1.057 0-.623.492-1.059 1.046-1.059.613 0 1.043.499 1.043 1.059 0 .622-.491 1.057-1.045 1.057zm2.458 0a1.041 1.041 0 0 1-1.045-1.056c0-.623.492-1.059 1.045-1.059.615 0 1.045.499 1.045 1.059.06.621-.43 1.057-1.045 1.057zM.001 26.738c-.062 4.107 2.888 7.59 6.699 8.462v-7.778c0-.375.306-.686.676-.686H8.42c.062 0 .062-.062.123-.062V18.09c-4.61 0-8.48 3.672-8.543 8.648m6.884-1.555c-.615 0-1.045-.498-1.045-1.058 0-.622.491-1.058 1.045-1.058.614 0 1.045.496 1.045 1.057 0 .623-.43 1.059-1.045 1.059"/></defs><g fill="none" fill-rule="evenodd"><mask fill="#fff"><use xlink:href="#a"/></mask><use fill="#151515" fill-rule="nonzero" xlink:href="#a"/><g mask="url(#b)" fill="#151515"><path d="M0 0h120.8v53.8H0z"/></g></g></svg>