<svg width="120" height="54" viewBox="0 0 120 54" fill="none" xmlns="http://www.w3.org/2000/svg">
<path fill-rule="evenodd" clip-rule="evenodd" d="M22.409 20.1665L22.2677 21.0006C19.407 21.3999 16.7063 21.9084 14.253 22.49C8.20303 23.915 3.63503 25.83 2.00203 27.503C1.37603 28.138 1.10003 28.745 1.10003 29.33V39C1.10003 39.5639 1.31703 40.09 1.71103 40.49C2.10803 40.89 2.62703 41.105 3.18703 41.108H68.083C68.6386 41.1032 69.1697 40.8787 69.5602 40.4835C69.9507 40.0883 70.1689 39.5545 70.167 38.999V29.33C70.167 28.745 69.896 28.138 69.267 27.503C67.633 25.831 63.067 23.915 57.016 22.49C54.588 21.9144 51.9172 21.4103 49.0891 21.0129L48.947 20.1786C51.8915 20.5845 54.6723 21.1059 57.198 21.705C63.324 23.168 67.923 25.0269 69.832 26.9319C70.556 27.6619 70.968 28.475 70.968 29.33V39C70.968 40.61 69.674 41.912 68.083 41.914H3.18703V41.9129C2.41703 41.9129 1.68903 41.61 1.14503 41.061C0.603449 40.511 0.300241 39.7698 0.301027 38.998V29.33C0.301027 28.475 0.712027 27.6619 1.43903 26.9319C3.34503 25.0269 7.94203 23.168 14.072 21.705C16.622 21.0999 19.4321 20.5741 22.409 20.1665ZM43.8415 21.186C42.217 21.0237 37.6354 20.5903 35.6735 20.6597C33.7157 20.5904 29.1399 21.023 27.5116 21.1856L27.5458 21.2826C30.1812 21.058 32.8994 20.9333 35.638 20.9341C38.4022 20.9341 41.1459 21.0612 43.8049 21.2897L43.8415 21.186ZM49.1469 21.3524C56.7996 22.4291 63.2755 24.2803 66.843 26.2011C68.679 27.2071 69.808 28.2011 69.839 29.3311V38.9991C69.839 39.9821 69.053 40.7771 68.083 40.7771H3.18697V40.7761C2.71823 40.7729 2.26989 40.584 1.94032 40.2506C1.61074 39.9173 1.42684 39.4669 1.42897 38.9981V29.3301C1.45897 28.2001 2.58897 27.2061 4.42597 26.2001C6.27597 25.2031 8.89997 24.2301 12.068 23.3721C15.0382 22.5656 18.4858 21.861 22.2102 21.3402L22.1157 21.8979C14.5351 22.973 8.13276 24.808 4.67597 26.6771C2.86897 27.6351 1.93097 28.6371 1.96297 29.3301V39.0001C1.96138 39.3264 2.08941 39.64 2.31892 39.872C2.54844 40.1039 2.86066 40.2353 3.18697 40.2371H68.083C68.758 40.2371 69.304 39.6831 69.306 38.9991V29.3301C69.336 28.6371 68.4 27.6351 66.595 26.6771C64.8 25.7081 62.201 24.7421 59.061 23.8901C56.1834 23.1091 52.8466 22.4233 49.2418 21.9095L49.1469 21.3524Z" fill="white"/>
<path fill-rule="evenodd" clip-rule="evenodd" d="M43.4792 21.1534L43.1971 21.952V21.953L49.7881 23.023L49.1921 19.521L51.3141 17.181L46.4143 16.0859L46.2848 16.422L50.6401 17.398L48.8131 19.406L49.3551 22.588L43.6761 21.668L43.845 21.1896C43.7359 21.1787 43.6134 21.1665 43.4792 21.1534ZM24.9375 16.0863L20.0381 17.181L22.1591 19.52L21.5651 23.023L28.1531 21.953L27.871 21.1533C27.738 21.1663 27.6165 21.1783 27.5081 21.1892L27.6771 21.668L22.0011 22.588L22.5401 19.406L20.7151 17.398L25.0669 16.4226L24.9375 16.0863Z" fill="white"/>
<path fill-rule="evenodd" clip-rule="evenodd" d="M44.3585 21.588C44.3777 21.5899 44.3877 21.591 44.3879 21.591L44.6599 21.618L47.0439 15.423L46.9359 15.269L46.9334 15.2658C46.7858 15.0775 45.2439 13.11 35.6759 13.105C26.1908 13.11 24.5618 15.0926 24.4272 15.2564L24.4259 15.258L24.3059 15.418L26.6949 21.618L26.9619 21.591C26.9624 21.591 26.98 21.5892 27.0133 21.5857C27.5823 21.5272 32.7292 20.998 35.2129 20.998C35.2989 20.998 35.3813 20.9994 35.4597 21.0007C35.5308 21.0018 35.5987 21.003 35.6629 21.003L35.6749 21.007L35.6869 21.003C35.7414 21.0026 35.7985 21.0017 35.858 21.0008C35.948 20.9994 36.0431 20.998 36.1419 20.998C38.6562 20.998 43.9183 21.5424 44.3585 21.588ZM44.427 21.2319C44.427 21.2319 38.081 20.5609 35.675 20.6459C35.6749 20.6459 35.6749 20.6459 35.6749 20.6459C33.2719 20.5609 26.925 21.2319 26.925 21.2319L24.71 15.4739C24.71 15.4739 26.201 13.4639 35.675 13.4639C45.262 13.4639 46.645 15.4739 46.645 15.4739L44.427 21.2319Z" fill="white"/>
<path fill-rule="evenodd" clip-rule="evenodd" d="M6.23808 38.68V36.79C6.52508 36.618 6.49608 36.343 6.49608 36.07V29.94L5.58608 30.347L5.57908 36.071C5.57908 36.343 5.55708 36.618 5.84408 36.79V38.682H2.93408V36.79C3.21808 36.618 3.19208 36.343 3.19208 36.364V32.629C3.19208 32.059 3.21808 32.082 2.93408 31.907V29.744C5.59608 27.831 9.14408 26.884 9.14408 26.884V28.932C8.85808 29.102 8.88408 29.473 8.88408 29.747V36.071C8.88408 36.343 8.85808 36.618 9.14408 36.79V38.682H6.23808V38.68ZM19.6681 38.68V36.79C19.9551 36.618 20.1121 36.618 20.1121 36.343V26.315L18.8571 26.508L18.8851 36.356C18.8851 36.629 18.9851 36.617 19.2751 36.789V38.681H16.3631V36.789C16.6481 36.617 16.6251 36.342 16.6251 36.069V27.792C16.6251 27.517 16.3881 27.202 16.1041 27.029L16.0071 25.191C18.0821 24.631 22.9661 23.998 22.9661 23.998V25.892C22.8359 25.971 22.7279 26.0819 22.6523 26.2142C22.5768 26.3464 22.5361 26.4957 22.5341 26.648L22.3201 36.07C22.3201 36.342 22.2901 36.617 22.5771 36.789V38.681H19.6681V38.68ZM12.5851 28.684H12.5651L12.1901 32.974H12.9781L12.5851 28.684V28.684ZM9.67708 38.68V36.787C9.93408 36.617 10.0961 35.356 10.1691 35.073L11.2101 26.272C12.9331 25.73 14.2321 25.586 14.2321 25.586L15.1251 35.183C15.1671 35.415 15.3921 36.71 15.6571 36.787V38.68H12.9501V36.787C13.1411 36.721 13.2281 35.992 13.2281 35.797L13.1931 34.699H12.0381L12.0031 35.796C12.0031 36.001 12.1081 36.738 12.3151 36.787V38.68H9.67708ZM26.2101 26.983H26.1891L25.6631 32.091H26.7601L26.2101 26.983ZM23.1471 38.68V36.787C23.4071 36.617 23.5691 35.356 23.6411 35.073L24.6051 23.789C25.7721 23.649 27.6411 23.476 27.6411 23.476L29.1711 35.184C29.2161 35.416 29.4411 36.71 29.7091 36.787V38.68H26.7291V36.787C26.9211 36.721 27.0091 35.992 27.0091 35.797L26.9731 34.111H25.5111L25.4741 35.796C25.4741 36.003 25.5831 36.738 25.7901 36.787V38.68H23.1471V38.68ZM36.4091 25.015H35.1881V34.819C35.1881 35.472 35.1181 35.694 34.9811 36.072H36.4091V25.015ZM32.8191 35.374V25.763C32.8191 25.491 32.8451 25.214 32.5611 25.043V23.223C35.5281 23.069 38.8861 23.223 38.8861 23.223V25.043C38.6001 25.214 38.6231 25.491 38.6231 25.766V36.07C38.6231 36.428 38.9971 36.633 39.4551 36.788V39.408H37.2291V38.909C37.2291 38.573 37.1461 38.681 36.8091 38.681H35.0391C34.6991 38.681 34.6181 38.573 34.6181 38.909V39.409H31.9421V36.747C32.8281 36.739 32.8181 35.889 32.8181 35.374H32.8191ZM46.2551 25.546C45.9651 25.718 45.9951 25.99 45.9951 26.264L45.9251 29.882L47.1411 26.882C47.3711 26.33 47.3141 25.787 47.1731 25.65V23.77C47.9741 23.835 49.7721 24.085 49.7721 24.085V25.946C49.4191 26.096 49.1811 26.295 49.0581 26.716L47.4811 31.282L48.6311 35.988C48.7531 36.232 48.9411 36.706 49.6341 36.774L49.6301 38.975H46.8901L46.8871 36.774C47.0621 36.498 46.9591 36.387 46.8211 35.836L45.9441 32.569H45.9261V35.969C45.9261 36.243 45.9101 36.602 46.1961 36.774L46.1841 38.975H43.2741L43.2871 36.774C43.5741 36.602 43.5341 36.214 43.5341 35.939V33.136L43.5151 32.569L42.6231 35.789C42.4841 36.392 42.3971 36.533 42.5451 36.774L42.5661 38.975H39.9201V36.847C40.2511 36.683 40.6121 36.552 40.8061 36.057L41.9001 31.34L40.4721 26.596C40.1121 25.208 39.9291 25.299 39.6661 25.078V23.237C40.2131 23.232 42.5661 23.371 42.5661 23.371L42.5601 25.226C42.4591 25.322 41.9091 25.443 42.4761 27.082L43.5341 29.882L43.6041 26.065C43.6041 25.787 43.6291 25.409 43.3431 25.238V23.426C43.7771 23.432 46.2551 23.66 46.2551 23.66V25.546V25.546ZM52.8421 37.016C53.3181 37.016 53.2921 36.508 53.2921 36.459V27.1C53.2921 27.05 53.3181 26.547 52.8421 26.547C52.3581 26.547 52.3851 27.049 52.3851 27.1V36.458C52.3851 36.507 52.3581 37.015 52.8421 37.015V37.016ZM52.8421 39.133C51.1881 39.133 50.0521 38.123 50.0521 36.35V26.914C50.0521 25.141 51.1941 24.264 52.8421 24.358C55.0691 24.48 55.6251 25.456 55.6251 27.229V36.349C55.6251 38.123 54.4891 39.133 52.8421 39.133V39.133ZM59.8051 38.68V36.79C60.0921 36.618 60.0641 36.343 60.0641 36.07V33.516H59.1491V36.071C59.1491 36.343 59.1261 36.618 59.4111 36.79V38.682H56.5001V36.79C56.7901 36.618 56.7621 36.343 56.7621 35.775V27.642C56.7621 27.662 56.7901 27.389 56.5001 27.216V25.24L59.4101 25.95V27.91C59.1261 28.081 59.1501 28.286 59.1501 28.562V32.084H60.0641V28.742C60.0641 28.47 60.0921 28.194 59.8051 28.022V26.03L62.7151 26.786V28.875C62.4271 29.045 62.4551 29.319 62.4551 29.3V35.773C62.4551 36.341 62.4271 36.616 62.7151 36.788V38.68H59.8051V38.68ZM66.2531 30.335C65.7521 30.335 65.8131 30.849 65.8131 31.148V36.426C65.8131 36.726 65.7521 37.242 66.2531 37.242C66.7521 37.242 66.8601 36.726 66.8601 36.426V35.593H68.6961V38.047C68.0761 38.536 67.3911 38.801 66.4211 38.827C65.4611 38.852 64.5351 38.647 64.0611 38.22C63.3971 37.628 63.4241 36.855 63.4241 36.05V30.76C63.4241 30.1 63.5141 29.27 64.0741 28.823C64.5951 28.412 65.4481 28.428 66.3521 28.463C67.2641 28.498 67.9211 29.199 68.6961 29.687V31.896H66.8601V31.148C66.8601 30.848 66.7521 30.335 66.2531 30.335V30.335ZM64.4601 26.96C64.6341 27.096 64.6931 27.303 64.6461 27.525C64.5761 27.91 64.1751 28.2 63.8701 28.463C63.7841 28.405 63.6391 28.295 63.7561 28.186C63.8261 28.061 64.0001 27.977 63.9701 27.816C63.7981 27.689 63.5241 27.606 63.5241 27.359C63.4821 27.18 63.5811 27.069 63.6391 26.946C63.8561 26.751 64.2441 26.806 64.4591 26.96H64.4601ZM30.3461 15.975C30.1081 16.035 30.0161 16.097 30.0501 16.375L30.2911 18.361C30.3321 18.685 30.4131 18.757 30.6811 18.724L30.7011 18.889L29.3511 19.067L29.3371 18.909C29.6711 18.854 29.6501 18.662 29.6321 18.519L29.3771 16.454C29.3521 16.249 29.2871 16.15 29.0931 16.179L28.6021 16.246C28.4061 16.276 28.3711 16.388 28.3941 16.589L28.6451 18.655C28.6791 18.922 28.7831 18.983 29.0251 18.954L29.0601 19.104L27.7041 19.332L27.6801 19.143C28.0201 19.088 27.9901 18.888 27.9761 18.75L27.7261 16.698C27.6911 16.42 27.5881 16.39 27.3421 16.392L27.3271 16.28C28.3351 16.076 30.3221 15.81 30.3221 15.81L30.3461 15.975V15.975ZM33.9311 15.556L33.9441 15.723C33.7031 15.766 33.6071 15.82 33.6241 16.099L33.7491 18.14C33.7661 18.419 33.8661 18.46 34.1121 18.469L34.1221 18.634L32.7661 18.719L32.7591 18.564C33.0431 18.534 33.0891 18.396 33.0751 18.19L32.9451 16.066L32.9041 16.07L32.0371 18.775L31.0031 18.867L30.9951 18.685C31.2381 18.643 31.3351 18.589 31.3181 18.311L31.1921 16.269C31.1721 15.99 31.0741 15.953 30.8291 15.941L30.8181 15.776L32.1581 15.648L32.1781 15.846C31.9301 15.905 31.8481 15.948 31.8641 16.22L31.9911 18.261L32.0311 18.255L32.8921 15.611L33.9311 15.556V15.556ZM37.5561 15.706C37.3111 15.732 37.2121 15.778 37.2121 16.051V18.081C37.2121 18.354 37.3381 18.414 37.5841 18.404L37.6491 19.511H37.4371C37.4131 19.256 37.3721 19.028 37.2251 18.824C37.1321 18.698 36.9651 18.568 36.6231 18.568C36.6231 18.568 35.0431 18.535 34.5261 18.583L34.5231 18.403C34.7661 18.399 34.8651 18.326 34.8651 18.062V16.05C34.8651 15.777 34.7651 15.73 34.5231 15.705V15.561L35.8831 15.541V15.705C35.6381 15.731 35.5391 15.777 35.5391 16.05V18.1C35.5391 18.253 35.5611 18.403 35.7901 18.403H36.2881C36.5131 18.403 36.5381 18.253 36.5381 18.101V16.05C36.5381 15.777 36.4381 15.73 36.1951 15.705V15.541L37.5551 15.575V15.705L37.5561 15.706ZM41.0971 16.007C40.8511 16.017 40.7521 16.057 40.7371 16.325L40.6031 18.345C40.5851 18.613 40.7081 18.682 40.9541 18.689L40.9461 19.794L40.7341 19.779C40.7261 19.526 40.7021 19.3 40.5681 19.082C40.4841 18.952 40.3231 18.807 39.9831 18.782C39.9831 18.782 38.3891 18.624 37.8851 18.625L37.8951 18.465C38.1411 18.478 38.2441 18.414 38.2591 18.15L38.3911 16.15C38.4091 15.882 38.3141 15.83 38.0731 15.782L38.0831 15.622L39.4411 15.722L39.4271 15.884C39.1841 15.892 39.0811 15.93 39.0631 16.204L38.9331 18.241C38.9231 18.391 38.9331 18.54 39.1611 18.559L39.6601 18.595C39.8861 18.61 39.9171 18.465 39.9301 18.316L40.0611 16.276C40.0781 16.004 39.9831 15.956 39.7411 15.908L39.7511 15.746L41.1061 15.876L41.0971 16.007V16.007ZM42.9791 17.856L42.7601 16.6L42.6981 16.589L42.1841 17.738L42.9791 17.856ZM44.1151 19.352C43.6353 19.2627 43.1527 19.1893 42.6681 19.132L42.6921 18.967C42.8651 18.982 43.0861 18.997 43.1121 18.804L43.1071 18.645L43.0171 18.082L42.0971 17.946L41.9381 18.311L41.8801 18.491C41.8673 18.5815 41.89 18.6734 41.9435 18.7474C41.997 18.8214 42.0772 18.8718 42.1671 18.888L42.1471 19.053L41.2261 18.913L41.2491 18.75C41.5151 18.69 41.6671 18.382 41.7511 18.203L42.7511 16.007L43.3521 16.101L43.7881 18.538C43.8331 18.8 43.9021 19.208 44.1371 19.186L44.1151 19.352V19.352Z" fill="white"/>
</svg>
