<svg xmlns="http://www.w3.org/2000/svg" width="120" height="54">
  <g fill="none" fill-rule="evenodd">
    <path fill="#151515" d="M3.187 41.913c-.77 0-1.498-.303-2.042-.852a2.936 2.936 0 0 1-.844-2.063V29.33c0-.855.411-1.668 1.138-2.398 1.906-1.905 6.503-3.764 12.633-5.227 6.12-1.452 13.738-2.448 21.564-2.448v.806c-7.758 0-15.325.991-21.383 2.427-6.05 1.425-10.618 3.34-12.251 5.013-.626.635-.902 1.242-.902 1.827V39c0 .564.217 1.09.611 1.49.397.4.916.615 1.476.618h64.896a2.102 2.102 0 0 0 2.084-2.109V29.33c0-.585-.271-1.192-.9-1.827-1.634-1.672-6.2-3.588-12.251-5.013-6.058-1.436-13.627-2.427-21.38-2.427v-.806c7.82 0 15.44.996 21.562 2.448 6.126 1.463 10.725 3.322 12.634 5.227.724.73 1.136 1.543 1.136 2.398V39c0 1.61-1.294 2.912-2.885 2.914H3.187"/>
    <path fill="#FFFFFE" d="M35.636 20.663c17.403 0 33.938 5.024 33.938 8.666V39c0 .833-.669 1.505-1.491 1.505H3.187a1.497 1.497 0 0 1-1.491-1.506V29.33c0-3.642 16.533-8.666 33.94-8.666"/>
    <path fill="#151515" d="M3.187 40.776a1.77 1.77 0 0 1-1.758-1.778V29.33c.03-1.13 1.16-2.124 2.997-3.13 1.85-.997 4.474-1.97 7.642-2.828 6.334-1.72 14.839-2.976 23.57-2.976v.538c-13.016-.004-25.571 2.828-30.962 5.743-1.807.958-2.745 1.96-2.713 2.653V39a1.231 1.231 0 0 0 1.224 1.237h64.896c.675 0 1.221-.554 1.223-1.238V29.33c.03-.693-.906-1.695-2.711-2.653-1.795-.969-4.394-1.935-7.534-2.787-6.282-1.705-14.752-2.956-23.423-2.956v-.538c13.093.003 25.661 2.82 31.205 5.805 1.836 1.006 2.965 2 2.996 3.13v9.668c0 .983-.786 1.778-1.756 1.778H3.187"/>
    <path fill="#FFF" d="M25.77 16.265l-5.055 1.133 1.825 2.008-.539 3.182 5.676-.92zM45.584 16.265l5.056 1.133-1.827 2.008.542 3.182-5.679-.92z"/>
    <path fill="#151515" d="M25.436 16.388l.334-.119-.334.12zm-4.044 1.226l1.526 1.683-.486 2.86 4.769-.775-1.66-4.695-4.149.927zm.767 1.906l-2.121-2.339 5.657-1.264.305-.068 2.153 6.104-6.588 1.07.594-3.503zM44.152 21.382l4.767.775-.482-2.86 1.524-1.683-4.152-.927-1.657 4.695zm-.955.57l2.05-5.804.107-.299 5.96 1.332-2.122 2.34.596 3.502-6.591-1.07z"/>
    <path fill="#FFF" d="M35.675 20.646c2.406-.085 8.752.586 8.752.586l2.218-5.758s-1.383-2.01-10.97-2.01c-9.474 0-10.965 2.01-10.965 2.01l2.215 5.758s6.347-.671 8.75-.586"/>
    <path fill="#151515" d="M35.675 20.646l.015-.357-.015.357zm8.521.201l2.033-5.284-.147-.107c-.247-.167-.688-.405-1.435-.646-1.494-.486-4.204-.988-8.972-.988-7.65-.002-10.004 1.324-10.546 1.746l2.03 5.28c1.152-.114 5.7-.566 8.054-.566.164 0 .32.002.464.007.143-.004.297-.007.465-.007 2.351 0 6.902.452 8.054.565zm.192.744c-.005 0-5.622-.593-8.246-.593-.164 0-.318.004-.455.005l-.012.004-.012-.004c-.135 0-.286-.005-.45-.005-2.629 0-8.242.593-8.251.593l-.267.027-2.389-6.2.12-.16c.125-.152 1.733-2.148 11.25-2.153 9.625.005 11.128 1.996 11.26 2.164l.108.154-2.384 6.195-.272-.027z"/>
    <path fill="#7F7F7F" d="M5.917 38.83V36.94c.284-.174.257-.445.257-.722v-6.13l-.908.407-.003 5.723c0 .277-.029.548.257.722v1.891H2.61V36.94c.287-.174.261-.445.261-.426v-3.737c0-.568.026-.549-.26-.72v-2.163c2.664-1.916 6.214-2.862 6.214-2.862v2.047c-.287.173-.261.54-.261.819v6.32c0 .277-.026.548.26.722v1.891H5.918M19.347 38.83V36.94c.286-.174.444-.174.444-.445v-10.03l-1.254.193.028 9.846c0 .274.102.262.388.436v1.891h-2.91V36.94c.285-.174.259-.445.259-.722v-8.275c0-.274-.232-.592-.52-.763v-1.88c2.076-.559 6.648-1.152 6.648-1.152v1.894a.895.895 0 0 0-.432.756v9.42c0 .277-.03.548.256.722v1.891h-2.907M12.263 28.832h-.018l-.375 4.289h.789l-.396-4.29zM9.355 38.83V36.94c.255-.174.42-1.436.493-1.716l1.042-8.804c1.724-.538 2.936-.741 2.936-.741l.975 9.659c.046.228.27 1.524.538 1.602v1.891h-2.71V36.94c.19-.07.279-.796.279-.991l-.037-1.1h-1.153l-.036 1.1c0 .206.106.94.311.99v1.892H9.355zM25.886 27.13h-.016l-.53 5.107h1.098l-.552-5.106zm-3.06 11.7V36.94c.258-.173.423-1.436.493-1.716l.97-11.284c1.165-.143 3.031-.309 3.031-.309l1.532 11.707c.047.229.268 1.524.537 1.602v1.891H26.41V36.94c.19-.07.278-.796.278-.991l-.038-1.69h-1.46l-.039 1.69c0 .206.11.94.316.99v1.892h-2.642zM36.09 25.163h-1.223v9.805c0 .653-.07.875-.206 1.251h1.428V25.163zm-3.592 10.36v-9.612c0-.273.028-.548-.26-.716v-1.822c2.97-.154 6.325-.002 6.325-.002v1.824c-.285.168-.26.443-.26.719v10.303c0 .36.374.568.831.722v2.62h-2.223v-.503c0-.333-.082-.226-.424-.226H34.72c-.341 0-.424-.107-.424.226v.503h-2.674v-2.665c.887-.006.876-.856.876-1.37zM45.932 25.695c-.285.171-.256.446-.256.722l-.071 3.62 1.216-3.006c.23-.552.174-1.095.033-1.23v-1.883c.8.067 2.598.315 2.598.315v1.861c-.353.15-.595.35-.715.768l-1.576 4.567 1.148 4.71c.124.238.31.716 1.004.782l-.004 2.203H46.57l-.003-2.203c.174-.276.07-.384-.066-.936l-.881-3.267h-.016v3.401c0 .273-.016.631.27.802l-.012 2.203h-2.909l.014-2.203c.285-.17.244-.56.244-.833v-2.802l-.017-.568-.888 3.22c-.14.604-.235.744-.082.983l.02 2.203h-2.647v-2.13c.331-.163.692-.295.886-.787l1.094-4.718-1.427-4.744c-.36-1.386-.543-1.297-.807-1.519v-1.84c.546-.009 2.902.133 2.902.133l-.006 1.858c-.102.094-.653.213-.085 1.853l1.057 2.806.075-3.825c0-.275.023-.65-.264-.824v-1.812c.433.005 2.909.236 2.909.236v1.884M52.517 37.169c.483 0 .456-.51.456-.562V27.25c0-.05.027-.553-.456-.553-.478 0-.453.503-.453.553v9.357c0 .052-.025.562.453.562m0 2.114c-1.65 0-2.783-1.01-2.783-2.782v-9.437c0-1.775 1.139-2.648 2.783-2.558 2.233.126 2.787 1.099 2.787 2.872V36.5c0 1.772-1.135 2.782-2.787 2.782M59.484 38.83V36.94c.285-.174.262-.445.262-.722v-2.551h-.915v2.551c0 .277-.028.548.259.722v1.891h-2.906V36.94c.284-.174.26-.445.26-1.016v-8.135c0 .02.024-.254-.26-.425v-1.976l2.906.711v1.96c-.287.172-.259.38-.259.654v3.52h.915v-3.34c0-.275.023-.55-.262-.721v-1.993l2.913.758v2.09c-.29.17-.262.446-.262.427v6.47c0 .57-.027.842.262 1.016v1.891h-2.913M65.931 30.484c-.502 0-.438.512-.438.813v5.278c0 .303-.064.815.438.815.501 0 .61-.512.61-.815v-.83h1.832v2.45c-.615.49-1.302.757-2.271.78-.955.026-1.89-.18-2.361-.607-.666-.593-.639-1.363-.639-2.171v-5.289c0-.661.09-1.49.654-1.937.518-.412 1.37-.393 2.276-.359.912.032 1.57.734 2.34 1.224v2.208H66.54v-.747c0-.301-.108-.813-.609-.813M64.14 27.109c.173.137.228.345.187.564-.072.387-.476.676-.777.94-.087-.056-.23-.169-.115-.277.072-.122.246-.208.214-.374-.174-.122-.445-.206-.445-.454-.044-.18.058-.29.115-.412.216-.192.606-.141.822.013" opacity=".5"/>
    <path fill="#151515" d="M6.238 38.68V36.79c.287-.172.258-.447.258-.72v-6.13l-.91.407-.007 5.724c0 .272-.022.547.265.719v1.892h-2.91v-1.892c.284-.172.258-.447.258-.426v-3.735c0-.57.026-.547-.258-.722v-2.163c2.662-1.913 6.21-2.86 6.21-2.86v2.048c-.286.17-.26.541-.26.815v6.324c0 .272-.026.547.26.719v1.892H6.238M19.668 38.68V36.79c.287-.172.444-.172.444-.447V26.315l-1.255.193.028 9.848c0 .273.1.261.39.433v1.892h-2.912v-1.892c.285-.172.262-.447.262-.72v-8.277c0-.275-.237-.59-.521-.763l-.097-1.838c2.075-.56 6.959-1.193 6.959-1.193v1.894a.898.898 0 0 0-.432.756l-.214 9.422c0 .272-.03.547.257.719v1.892h-2.909M12.585 28.684h-.02l-.375 4.29h.788l-.393-4.29zM9.677 38.68v-1.893c.257-.17.419-1.431.492-1.714l1.041-8.801c1.723-.542 3.022-.686 3.022-.686l.893 9.597c.042.232.267 1.527.532 1.604v1.893H12.95v-1.893c.191-.066.278-.795.278-.99l-.035-1.098h-1.155l-.035 1.097c0 .205.105.942.312.991v1.893H9.677zM26.21 26.983h-.021l-.526 5.108h1.097l-.55-5.108zM23.147 38.68v-1.893c.26-.17.422-1.431.494-1.714l.964-11.284c1.167-.14 3.036-.313 3.036-.313l1.53 11.708c.045.232.27 1.526.538 1.603v1.893h-2.98v-1.893c.192-.066.28-.795.28-.99l-.036-1.686h-1.462l-.037 1.685c0 .207.109.942.316.991v1.893h-2.643zM36.409 25.015h-1.221v9.804c0 .653-.07.875-.207 1.253h1.428V25.015zm-3.59 10.359v-9.611c0-.272.026-.549-.258-.72v-1.82c2.967-.154 6.325 0 6.325 0v1.82c-.286.171-.263.448-.263.723V36.07c0 .358.374.563.832.718v2.62h-2.226v-.499c0-.336-.083-.228-.42-.228h-1.77c-.34 0-.421-.108-.421.228v.5h-2.676v-2.662c.886-.008.876-.858.876-1.373zM46.255 25.546c-.29.172-.26.444-.26.718l-.07 3.618 1.216-3c.23-.552.173-1.095.032-1.232v-1.88c.801.065 2.599.315 2.599.315v1.861c-.353.15-.591.349-.714.77l-1.577 4.566 1.15 4.706c.122.244.31.718 1.003.786l-.004 2.201h-2.74l-.003-2.201c.175-.276.072-.387-.066-.938l-.877-3.267h-.018v3.4c0 .274-.016.633.27.805l-.012 2.201h-2.91l.013-2.201c.287-.172.247-.56.247-.835v-2.803l-.019-.567-.892 3.22c-.139.603-.226.744-.078.985l.021 2.201H39.92v-2.128c.331-.164.692-.295.886-.79L41.9 31.34l-1.428-4.744c-.36-1.388-.543-1.297-.806-1.518v-1.841c.547-.005 2.9.134 2.9.134l-.006 1.855c-.101.096-.651.217-.084 1.856l1.058 2.8.07-3.817c0-.278.025-.656-.261-.827v-1.812c.434.006 2.912.234 2.912.234v1.886M52.842 37.016c.476 0 .45-.508.45-.557V27.1c0-.05.026-.553-.45-.553-.484 0-.457.502-.457.553v9.358c0 .049-.027.557.457.557m0 2.118c-1.654 0-2.79-1.01-2.79-2.783v-9.436c0-1.773 1.142-2.65 2.79-2.556 2.227.122 2.783 1.098 2.783 2.871v9.12c0 1.774-1.136 2.784-2.783 2.784M59.805 38.68V36.79c.287-.172.259-.447.259-.72v-2.554h-.915v2.555c0 .272-.023.547.262.719v1.892H56.5v-1.892c.29-.172.262-.447.262-1.015v-8.133c0 .02.028-.253-.262-.426V25.24l2.91.71v1.96c-.284.171-.26.376-.26.652v3.522h.914v-3.342c0-.272.028-.548-.259-.72V26.03l2.91.756v2.089c-.288.17-.26.444-.26.425v6.473c0 .568-.028.843.26 1.015v1.892h-2.91M66.253 30.335c-.501 0-.44.514-.44.813v5.278c0 .3-.061.816.44.816.499 0 .607-.516.607-.816v-.833h1.836v2.454c-.62.489-1.305.754-2.275.78-.96.025-1.886-.18-2.36-.607-.664-.592-.637-1.365-.637-2.17v-5.29c0-.66.09-1.49.65-1.937.521-.411 1.374-.395 2.278-.36.912.035 1.569.736 2.344 1.224v2.209H66.86v-.748c0-.3-.108-.813-.607-.813M64.46 26.96c.174.136.233.343.186.565-.07.385-.471.675-.776.938-.086-.058-.231-.168-.114-.277.07-.125.244-.209.214-.37-.172-.127-.446-.21-.446-.457-.042-.179.057-.29.115-.413.217-.195.605-.14.82.014M30.346 15.975c-.238.06-.33.122-.296.4l.241 1.986c.041.324.122.396.39.363l.02.165-1.35.178-.014-.158c.334-.055.313-.247.295-.39l-.255-2.065c-.025-.205-.09-.304-.284-.275l-.491.067c-.196.03-.231.142-.208.343l.251 2.066c.034.267.138.328.38.299l.035.15-1.356.228-.024-.189c.34-.055.31-.255.296-.393l-.25-2.052c-.035-.278-.138-.308-.384-.306l-.015-.112c1.008-.204 2.995-.47 2.995-.47l.024.165M33.931 15.556l.013.167c-.241.043-.337.097-.32.376l.125 2.041c.017.279.117.32.363.329l.01.165-1.356.085-.007-.155c.284-.03.33-.168.316-.374l-.13-2.124-.041.004-.867 2.705-1.034.092-.008-.182c.243-.042.34-.096.323-.374l-.126-2.042c-.02-.279-.118-.316-.363-.328l-.011-.165 1.34-.128.02.198c-.248.059-.33.102-.314.374l.127 2.041.04-.006.861-2.644 1.039-.055M37.556 15.706c-.245.026-.344.072-.344.345v2.03c0 .273.126.333.372.323l.065 1.107h-.212c-.024-.255-.065-.483-.212-.687-.093-.126-.26-.256-.602-.256 0 0-1.58-.033-2.097.015l-.003-.18c.243-.004.342-.077.342-.341V16.05c0-.273-.1-.32-.342-.345v-.144l1.36-.02v.164c-.245.026-.344.072-.344.345v2.05c0 .153.022.303.251.303h.498c.225 0 .25-.15.25-.302V16.05c0-.273-.1-.32-.343-.345v-.164l1.36.034v.13M41.097 16.007c-.246.01-.345.05-.36.318l-.134 2.02c-.018.268.105.337.351.344l-.008 1.105-.212-.015c-.008-.253-.032-.479-.166-.697-.084-.13-.245-.275-.585-.3 0 0-1.594-.158-2.098-.157l.01-.16c.246.013.349-.051.364-.315l.132-2c.018-.268-.077-.32-.318-.368l.01-.16 1.358.1-.014.162c-.243.008-.346.046-.364.32l-.13 2.037c-.01.15 0 .299.228.318l.499.036c.226.015.257-.13.27-.279l.131-2.04c.017-.272-.078-.32-.32-.368l.01-.162 1.355.13-.009.131M42.979 17.856L42.76 16.6l-.062-.011-.514 1.149.795.118zm1.136 1.496a22.048 22.048 0 0 0-1.447-.22l.024-.165c.173.015.394.03.42-.163l-.005-.159-.09-.563-.92-.136-.159.365-.058.18a.353.353 0 0 0 .287.397l-.02.165-.921-.14.023-.163c.266-.06.418-.368.502-.547l1-2.196.601.094.436 2.437c.045.262.114.67.349.648l-.022.166z"/>
  </g>
</svg>
