<svg width="121" height="54" viewBox="0 0 121 54" fill="none" xmlns="http://www.w3.org/2000/svg">
<g clip-path="url(#clip0)">
<path fill-rule="evenodd" clip-rule="evenodd" d="M29.9031 32.2901V25.2921C29.906 25.2521 29.9007 25.2119 29.8875 25.1741C29.8742 25.1362 29.8533 25.1015 29.8261 25.0721C29.7969 25.0459 29.7627 25.026 29.7256 25.0136C29.6884 25.0012 29.6491 24.9966 29.6101 25.0001H29.4931C29.3124 24.9829 29.1447 24.8985 29.0231 24.7638C28.9015 24.629 28.8347 24.4536 28.8361 24.2721C28.8352 24.0959 28.8994 23.9255 29.0164 23.7938C29.1334 23.662 29.295 23.5781 29.4701 23.5581H30.5801C30.8141 23.5381 31.0491 23.6021 31.2401 23.7401C31.3711 23.8601 31.4421 24.0301 31.4361 24.2071V24.4741H31.4621C31.4621 24.4741 31.4851 24.4341 31.5341 24.3641C31.7082 24.1291 31.9267 23.9304 32.1771 23.7791C32.3656 23.6588 32.5708 23.5669 32.7861 23.5061C33.1931 23.3941 33.6188 23.3669 34.0367 23.4261C34.4547 23.4852 34.8561 23.6296 35.2161 23.8501C35.6761 24.1591 36.0391 24.5911 36.2631 25.0971C36.5201 25.6851 36.6481 26.3211 36.6371 26.9621C36.6491 27.6151 36.5091 28.2621 36.2281 28.8521C35.9818 29.3598 35.5997 29.7894 35.1241 30.0931C34.6441 30.3901 34.0881 30.5431 33.5231 30.5351C33.2271 30.5351 32.9331 30.4891 32.6531 30.3991C32.4377 30.3234 32.2338 30.2184 32.0471 30.0871C31.9185 29.9988 31.8001 29.8965 31.6941 29.7821C31.6524 29.7372 31.614 29.6894 31.5791 29.6391H31.5521L31.5661 29.8011C31.5751 29.9051 31.5781 30.0541 31.5791 30.2301V32.2961C31.5518 32.4996 31.4515 32.6862 31.2967 32.8211C31.1419 32.956 30.9433 33.03 30.738 33.0291C30.5327 33.0283 30.3347 32.9527 30.181 32.8165C30.0274 32.6803 29.9286 32.4928 29.9031 32.2891V32.2901ZM34.0761 28.8601C34.3451 28.6831 34.5601 28.4351 34.6961 28.1441C34.8601 27.7841 34.9411 27.3911 34.9341 26.9941C34.9414 26.6046 34.8679 26.2177 34.7181 25.8581C34.593 25.5612 34.3881 25.3047 34.1261 25.1171C33.8663 24.9384 33.5572 24.8454 33.2421 24.8511C32.9356 24.8457 32.6342 24.9301 32.3751 25.0939C32.116 25.2578 31.9105 25.4939 31.7841 25.7731C31.5149 26.4081 31.4656 27.1149 31.6441 27.7811C31.7091 28.0211 31.8161 28.2471 31.9591 28.4501C32.0951 28.6461 32.2741 28.8091 32.4831 28.9241C32.7071 29.0471 32.9601 29.1101 33.2161 29.1061C33.5205 29.1084 33.8192 29.0226 34.0761 28.8591V28.8601ZM37.6621 30.1651C37.5025 29.9705 37.4263 29.7207 37.4501 29.4701V22.6161C37.4525 22.576 37.447 22.5358 37.4338 22.4979C37.4205 22.4599 37.3999 22.425 37.3731 22.3951C37.3125 22.3451 37.2355 22.3194 37.1571 22.3231H36.9501C36.7708 22.2931 36.6093 22.1968 36.4975 22.0535C36.3858 21.9101 36.3318 21.7301 36.3464 21.5489C36.361 21.3677 36.443 21.1986 36.5763 21.0749C36.7095 20.9513 36.8843 20.8821 37.0661 20.8811H38.2361C38.3602 20.8589 38.4879 20.8672 38.6081 20.9052C38.7284 20.9432 38.8376 21.0098 38.9265 21.0992C39.0154 21.1887 39.0812 21.2984 39.1184 21.4189C39.1556 21.5394 39.163 21.6671 39.1401 21.7911V28.6511C39.137 28.6903 39.1422 28.7296 39.1553 28.7667C39.1684 28.8037 39.1891 28.8376 39.2161 28.8661C39.2451 28.8934 39.2794 28.9144 39.3169 28.9278C39.3544 28.9412 39.3943 28.9468 39.4341 28.9441H39.6281C39.7952 28.9766 39.9457 29.0666 40.0536 29.1983C40.1614 29.3301 40.2198 29.4955 40.2186 29.6658C40.2174 29.836 40.1568 30.0005 40.0471 30.1308C39.9374 30.2611 39.7856 30.3489 39.6181 30.3791H38.3521C38.1022 30.4017 37.8535 30.3248 37.6601 30.1651H37.6621ZM41.7911 30.3921C41.521 30.3046 41.2704 30.1658 41.0531 29.9831C40.8344 29.8006 40.6592 29.5718 40.5401 29.3131C40.4101 29.0302 40.3435 28.7224 40.3451 28.4111C40.3401 28.0911 40.4161 27.7761 40.5671 27.4951C40.7111 27.2421 40.9081 27.0251 41.1461 26.8581C41.3931 26.6861 41.6641 26.5481 41.9491 26.4481C42.2391 26.3481 42.5391 26.2721 42.8421 26.2211C43.1451 26.1691 43.4271 26.1371 43.6971 26.1171C43.9671 26.0971 44.1921 26.0911 44.3801 26.0981H44.5931V26.0391C44.6301 25.6691 44.5231 25.2991 44.2911 25.0071C44.1618 24.8945 44.0107 24.8098 43.8473 24.7582C43.6838 24.7066 43.5115 24.6892 43.3411 24.7071C43.1484 24.6981 42.9558 24.7266 42.7741 24.7911C42.6849 24.819 42.603 24.8661 42.5341 24.9291C42.5025 24.9578 42.4774 24.9929 42.4603 25.032C42.4432 25.0711 42.4346 25.1134 42.4351 25.1561V25.3641C42.3945 25.5448 42.2924 25.7058 42.1464 25.8197C42.0003 25.9335 41.8193 25.9932 41.6341 25.9885C41.449 25.9837 41.2712 25.9149 41.1312 25.7938C40.9911 25.6726 40.8974 25.5066 40.8661 25.3241V24.8001C40.8615 24.5732 40.9279 24.3505 41.0561 24.1631C41.1814 23.9914 41.3469 23.853 41.5381 23.7601C41.7381 23.6551 41.9511 23.5761 42.1721 23.5261C42.3851 23.4741 42.6021 23.4391 42.8221 23.4221C43.0301 23.4021 43.2051 23.3961 43.3521 23.3961C43.8312 23.3842 44.3087 23.4545 44.7641 23.6041C45.1074 23.7196 45.4169 23.9182 45.6651 24.1821C45.8881 24.4281 46.0501 24.7221 46.1411 25.0401C46.2381 25.3891 46.2851 25.7501 46.2791 26.1121V28.6521C46.2751 28.6916 46.2801 28.7315 46.2935 28.7689C46.3069 28.8063 46.3284 28.8403 46.3566 28.8683C46.3847 28.8964 46.4187 28.9178 46.4562 28.9311C46.4936 28.9444 46.5335 28.9491 46.5731 28.9451H46.7741C46.9423 28.9723 47.0958 29.0575 47.2078 29.186C47.3199 29.3144 47.3834 29.4781 47.3875 29.6485C47.3915 29.8189 47.3358 29.9853 47.2299 30.119C47.1241 30.2526 46.9749 30.345 46.8081 30.3801H45.5951C45.4214 30.3838 45.2493 30.3461 45.0931 30.2701C44.9728 30.2126 44.8753 30.1165 44.8161 29.9971C44.7561 29.8832 44.7265 29.7558 44.7301 29.6271C44.7301 29.5421 44.7301 29.4711 44.7371 29.4191C44.7431 29.3671 44.7431 29.3341 44.7431 29.3341H44.7171C44.7171 29.3341 44.6951 29.3801 44.6521 29.4581C44.5894 29.5637 44.5178 29.6637 44.4381 29.7571C44.3228 29.8894 44.1937 30.0091 44.0531 30.1141C43.8731 30.2401 43.6761 30.3411 43.4681 30.4131C43.2091 30.4971 42.9381 30.5391 42.6661 30.5361C42.369 30.5386 42.0738 30.4902 41.7931 30.3931L41.7911 30.3921ZM43.7011 29.0471C43.8911 28.9421 44.0571 28.7971 44.1891 28.6251C44.3251 28.4511 44.4331 28.2551 44.5081 28.0471C44.5821 27.8451 44.6201 27.6321 44.6211 27.4171V27.2611H44.3291C44.0866 27.2563 43.8441 27.267 43.6031 27.2931C43.3511 27.3161 43.1031 27.3641 42.8611 27.4361C42.6453 27.4977 42.447 27.609 42.2821 27.7611C42.2071 27.8346 42.148 27.9226 42.1083 28.0198C42.0685 28.1169 42.0491 28.2212 42.0511 28.3261C42.0511 28.4791 42.0891 28.6281 42.1631 28.7621C42.2431 28.8981 42.3611 29.0091 42.5031 29.0801C42.6791 29.1711 42.8771 29.2161 43.0761 29.2101C43.2951 29.2101 43.5101 29.1541 43.7011 29.0471V29.0471ZM47.9011 33.0751C47.7131 33.0151 47.5311 32.9351 47.3611 32.8351C47.2627 32.7777 47.1675 32.715 47.0761 32.6471C46.9706 32.5292 46.9085 32.3789 46.8998 32.221C46.8912 32.0631 46.9366 31.9069 47.0286 31.7783C47.1206 31.6496 47.2537 31.5561 47.4059 31.5132C47.5581 31.4703 47.7204 31.4805 47.8661 31.5421C47.9501 31.5981 48.0421 31.6441 48.1371 31.6791C48.3059 31.7478 48.4898 31.7714 48.6706 31.7476C48.8513 31.7237 49.0228 31.6533 49.1681 31.5431C49.3833 31.3711 49.5481 31.1441 49.6451 30.8861L49.8691 30.3601L49.0861 28.5931L47.6071 25.2401C47.5993 25.2006 47.5838 25.1631 47.5615 25.1297C47.5392 25.0962 47.5104 25.0675 47.477 25.0452C47.4435 25.0229 47.406 25.0074 47.3665 24.9997C47.3271 24.992 47.2865 24.9921 47.2471 25.0001C47.0751 24.9738 46.918 24.8876 46.8033 24.7569C46.6886 24.6261 46.6237 24.459 46.6201 24.2851C46.6197 24.19 46.638 24.0958 46.674 24.0078C46.71 23.9198 46.763 23.8398 46.83 23.7723C46.8969 23.7048 46.9765 23.6511 47.0642 23.6144C47.1519 23.5776 47.246 23.5585 47.3411 23.5581H48.1651C48.3623 23.5436 48.5589 23.5938 48.7251 23.7011C48.8841 23.8281 49.0001 24.0011 49.0581 24.1941L49.9321 26.4361L50.3861 27.6061C50.4301 27.7291 50.4701 27.8591 50.5081 27.9951C50.5431 28.1381 50.5731 28.2551 50.5941 28.3591L50.6241 28.5151H50.6531L50.6851 28.3591C50.7051 28.2551 50.7331 28.1381 50.7671 27.9951C50.8011 27.8521 50.8381 27.7291 50.8771 27.6051L52.0381 24.1951C52.0929 23.9981 52.2109 23.8245 52.3741 23.7011C52.5442 23.5952 52.7431 23.5452 52.9431 23.5581H53.7721C53.8671 23.5585 53.9612 23.5776 54.0489 23.6144C54.1366 23.6511 54.2162 23.7048 54.2831 23.7723C54.3501 23.8398 54.4031 23.9198 54.4391 24.0078C54.4751 24.0958 54.4935 24.19 54.4931 24.2851C54.4889 24.4601 54.4228 24.628 54.3066 24.7589C54.1903 24.8899 54.0314 24.9753 53.8581 25.0001C53.7866 24.9966 53.7154 25.0099 53.6501 25.0391C53.5807 25.0887 53.5289 25.1591 53.5021 25.2401L51.0651 31.4061C50.9263 31.7801 50.7142 32.1224 50.4411 32.4131C50.2041 32.6656 49.916 32.8647 49.5961 32.9971C49.057 33.2182 48.4581 33.2457 47.9011 33.0751V33.0751ZM55.0861 29.6711H55.0751V22.6161C55.078 22.5759 55.0725 22.5355 55.0591 22.4975C55.0457 22.4594 55.0246 22.4246 54.9971 22.3951C54.9371 22.3448 54.8602 22.3191 54.7821 22.3231H54.6351C54.4558 22.2931 54.2943 22.1968 54.1825 22.0535C54.0708 21.9101 54.0168 21.7301 54.0314 21.5489C54.046 21.3677 54.128 21.1986 54.2613 21.0749C54.3945 20.9513 54.5693 20.8821 54.7511 20.8811H55.8611C56.0343 20.8769 56.2073 20.8967 56.3751 20.9401C56.4991 20.9781 56.6051 21.0611 56.6711 21.1731C56.7431 21.3231 56.7761 21.4881 56.7671 21.6541V25.9621H57.2731C57.3891 25.9621 57.5051 25.9471 57.6171 25.9161C57.7362 25.8824 57.8403 25.809 57.9121 25.7081L59.3191 23.5121C59.4433 23.3765 59.6108 23.2883 59.793 23.2626C59.9751 23.2369 60.1605 23.2753 60.3174 23.3713C60.4743 23.4672 60.593 23.6147 60.6532 23.7886C60.7133 23.9624 60.7111 24.1517 60.6471 24.3241L59.4561 26.1241C59.3543 26.28 59.2326 26.4218 59.0941 26.5461C59.051 26.5884 59.003 26.6254 58.9511 26.6561V26.6831C59.0071 26.7071 59.0571 26.7431 59.0991 26.7871C59.2351 26.9081 59.3471 27.0531 59.4291 27.2151L60.2001 28.6901C60.24 28.7798 60.3115 28.8517 60.4011 28.8921C60.5153 28.9374 60.6386 28.9552 60.7611 28.9441H60.9351C61.2771 29.0111 61.5251 29.3091 61.5281 29.6581C61.5281 29.7591 61.5051 29.8591 61.4631 29.9511C61.4145 30.0611 61.3398 30.1575 61.2456 30.2321C61.1513 30.3067 61.0402 30.3571 60.9221 30.3791H59.9591C59.8001 30.3801 59.6421 30.3651 59.4871 30.3341C59.3658 30.3033 59.2541 30.2429 59.1621 30.1581C59.0533 30.0503 58.9631 29.9253 58.8951 29.7881L58.8371 29.6781L57.7641 27.6441C57.7343 27.5906 57.6936 27.5439 57.6447 27.5071C57.5958 27.4702 57.5397 27.444 57.4801 27.4301C57.3687 27.3979 57.2528 27.3844 57.1371 27.3901H56.7651V29.8011C56.7298 30.009 56.618 30.1961 56.4518 30.3258C56.2856 30.4555 56.0769 30.5184 55.8667 30.5021C55.6565 30.4858 55.46 30.3916 55.3157 30.2378C55.1715 30.084 55.0899 29.8819 55.0871 29.6711H55.0861ZM61.3611 26.9621C61.3581 27.4601 61.4561 27.9521 61.6511 28.4111C61.8331 28.8371 62.1031 29.2201 62.4431 29.5351C62.7851 29.8551 63.1861 30.1071 63.6241 30.2751C64.5631 30.6219 65.595 30.6219 66.534 30.2751C66.972 30.1071 67.3741 29.8551 67.7181 29.5351C68.0581 29.2201 68.3301 28.8371 68.5131 28.4111C68.704 27.9541 68.8023 27.4638 68.8023 26.9686C68.8023 26.4734 68.704 25.9831 68.5131 25.5261C68.3283 25.0989 68.0577 24.7143 67.7181 24.3961C67.3761 24.0746 66.9732 23.825 66.5331 23.6621C65.5959 23.307 64.5612 23.307 63.6241 23.6621C63.1851 23.8251 62.7841 24.0751 62.4441 24.3961C62.1054 24.7147 61.8355 25.0993 61.6511 25.5261C61.4579 25.9801 61.3592 26.4687 61.3611 26.9621V26.9621ZM63.0641 26.9621C63.0599 26.5763 63.1557 26.196 63.3421 25.8581C63.5129 25.5483 63.7639 25.2901 64.0688 25.1106C64.3737 24.9311 64.7213 24.837 65.0751 24.8381C65.4321 24.8371 65.7831 24.9311 66.0911 25.1101C66.3971 25.2901 66.6491 25.5471 66.8211 25.8581C67.0039 26.1997 67.0996 26.5811 67.0996 26.9686C67.0996 27.3561 67.0039 27.7375 66.8211 28.0791C66.6476 28.3882 66.3958 28.6462 66.0911 28.8271C65.7811 29.0011 65.4311 29.0931 65.0751 29.0931C64.7214 29.0972 64.3732 29.0051 64.0679 28.8264C63.7626 28.6478 63.5117 28.3895 63.3421 28.0791C63.1533 27.7375 63.0575 27.3523 63.0641 26.9621V26.9621ZM72.2891 30.3921C72.0339 30.3568 71.7838 30.2914 71.5441 30.1971C71.2863 30.0969 71.0496 29.9493 70.8461 29.7621C70.6192 29.5577 70.4415 29.3048 70.326 29.0221C70.1831 28.6559 70.1137 28.2651 70.1221 27.8721V24.9021H69.5721C69.4129 24.8809 69.2663 24.8043 69.158 24.6858C69.0497 24.5673 68.9866 24.4144 68.9798 24.254C68.973 24.0936 69.0229 23.9359 69.1208 23.8087C69.2187 23.6814 69.3583 23.5927 69.5151 23.5581H70.1681V22.2581C70.1765 22.0518 70.2615 21.8561 70.4065 21.7091C70.5515 21.5622 70.746 21.4745 70.9522 21.4633C71.1583 21.452 71.3612 21.518 71.5213 21.6483C71.6814 21.7787 71.7872 21.964 71.8181 22.1681V23.5581H73.118C73.2755 23.5922 73.4158 23.6809 73.5142 23.8084C73.6126 23.9359 73.6627 24.0941 73.6558 24.255C73.6489 24.416 73.5853 24.5693 73.4763 24.6878C73.3672 24.8064 73.2198 24.8827 73.0601 24.9031H71.8201V27.6571C71.8116 27.8909 71.8611 28.1231 71.9641 28.3331C72.0451 28.4931 72.1671 28.6271 72.3181 28.7231C72.4521 28.8081 72.6021 28.8671 72.7581 28.8981C72.8911 28.9281 73.0281 28.9431 73.1641 28.9441C73.228 28.9459 73.292 28.9416 73.3551 28.9311C73.5373 28.9339 73.7117 29.006 73.8428 29.1326C73.9739 29.2593 74.0519 29.431 74.0611 29.6131C74.072 29.8 74.0133 29.9843 73.8965 30.1305C73.7796 30.2767 73.6127 30.3745 73.4281 30.4051C73.3949 30.4144 73.3605 30.4188 73.326 30.4181C73.202 30.4331 73.076 30.4391 72.951 30.4381C72.731 30.4401 72.5111 30.4251 72.2941 30.3921H72.2891ZM8.63906 32.9521C8.44763 32.6317 8.36966 32.2562 8.41774 31.8861C8.46582 31.516 8.63713 31.1729 8.90406 30.9121C9.04954 30.8102 9.21473 30.7398 9.38903 30.7054C9.56332 30.6711 9.74287 30.6736 9.91615 30.7128C10.0894 30.752 10.2526 30.8269 10.3952 30.9329C10.5377 31.0389 10.6566 31.1735 10.7441 31.3281C11.8641 32.9001 12.4341 34.5961 13.7481 35.2001C16.9921 36.6941 20.5661 35.2131 23.1991 30.6331L23.5651 29.9891C25.6111 26.4361 25.6931 23.4151 24.5021 21.3421C23.3121 19.2701 20.6691 17.8341 16.5801 17.8341H15.8421C11.0631 17.8341 8.06206 19.7841 7.32206 22.8561C6.98606 24.2531 7.21206 25.8771 9.12406 25.6301L9.16206 25.6171C9.84877 25.5517 10.5382 25.5193 11.2281 25.5201H11.6371C11.6182 25.3977 11.6115 25.2738 11.6171 25.1501C11.6711 24.6616 11.8612 24.198 12.1656 23.8121C12.47 23.4262 12.8765 23.1334 13.3391 22.9671C13.5464 21.9037 13.9806 20.8975 14.6121 20.0171C15.4683 20.6651 16.1318 21.5343 16.5311 22.5311C16.8231 22.5681 17.1121 22.6221 17.3971 22.6941C17.5771 22.7461 17.7471 22.7981 17.9091 22.8501C18.3799 22.4055 18.9357 22.0606 19.5431 21.8361C19.8851 22.5761 20.0331 23.3891 19.9741 24.2011C20.3541 24.6251 20.5671 25.1711 20.5741 25.7411C20.562 26.0575 20.4826 26.3677 20.3412 26.651C20.1998 26.9343 19.9996 27.1842 19.7541 27.3841L19.6561 27.4621C20.2361 27.7821 20.7811 28.1621 21.2841 28.5921C22.4741 29.6261 21.4741 30.3141 18.5391 28.8791C21.6701 30.5421 21.1141 31.6591 19.8451 31.1521C17.5238 30.279 15.061 29.843 12.5811 29.8661C8.55306 29.8661 4.86006 30.7361 2.57106 32.3931C1.68406 33.0361 1.02906 33.1791 0.984057 32.6471C0.898057 31.6531 1.97606 30.5161 4.55306 28.9761C3.3726 29.2261 2.26122 29.7316 1.29706 30.4571C-0.239943 31.4451 -0.407943 30.0091 0.777057 28.9571C2.33263 27.5402 4.23415 26.5582 6.29006 26.1101C5.46706 25.3561 5.28506 23.8821 5.62406 22.4591C6.54206 18.6191 10.2341 16.0851 15.8421 16.0851L16.5771 16.0791C25.8031 16.0791 29.6831 22.8491 25.0751 30.8661L24.7071 31.5021C20.4271 38.9541 13.3311 39.5391 8.63706 32.9511L8.63906 32.9521ZM17.9441 26.7091C17.8053 26.6074 17.6421 26.5442 17.4711 26.5259C17.3 26.5076 17.1271 26.535 16.9701 26.6051C16.9825 26.7421 17.0296 26.8736 17.1069 26.9873C17.1843 27.101 17.2893 27.1932 17.4121 27.2551C17.5334 27.2048 17.6434 27.1305 17.7353 27.0367C17.8272 26.9429 17.8993 26.8315 17.9471 26.7091H17.9441ZM17.1941 26.1491C17.2031 25.7224 17.1249 25.2984 16.9641 24.9031C16.9309 24.9616 16.891 25.016 16.8451 25.0651C16.778 25.1391 16.6962 25.1983 16.605 25.2388C16.5137 25.2793 16.4149 25.3002 16.3151 25.3002C16.2152 25.3002 16.1164 25.2793 16.0252 25.2388C15.9339 25.1983 15.8521 25.1391 15.7851 25.0651C15.6444 24.9088 15.5671 24.7057 15.5682 24.4954C15.5693 24.2852 15.6488 24.0829 15.7911 23.9281C15.8604 23.8533 15.9445 23.7937 16.0381 23.7531C15.6512 23.5203 15.2069 23.4006 14.7555 23.4075C14.3041 23.4144 13.8636 23.5476 13.4841 23.7921C12.8241 25.4941 15.0491 26.5461 17.1941 26.1501V26.1491ZM19.8841 24.6561C19.8494 24.6187 19.8119 24.5839 19.7721 24.5521C19.8101 24.6688 19.8194 24.7929 19.799 24.914C19.7786 25.035 19.7292 25.1493 19.6551 25.2471C19.6133 25.3045 19.5586 25.3513 19.4953 25.3835C19.432 25.4157 19.3621 25.4325 19.2911 25.4325C19.2201 25.4325 19.1501 25.4157 19.0868 25.3835C19.0235 25.3513 18.9688 25.3045 18.9271 25.2471C18.8388 25.128 18.7878 24.9855 18.7803 24.8374C18.7728 24.6894 18.8093 24.5425 18.8851 24.4151C18.5627 24.5512 18.2983 24.7961 18.1381 25.1071C17.9778 25.4182 17.9318 25.7756 18.0081 26.1171C19.1011 26.2081 20.3021 25.4811 19.8841 24.6561Z" fill="white"/>
</g>
<defs>
<clipPath id="clip0">
<rect width="121" height="54" fill="white"/>
</clipPath>
</defs>
</svg>
