<svg height="54" width="121" xmlns="http://www.w3.org/2000/svg"><path d="M29.903 32.29v-6.998a.292.292 0 0 0-.077-.22.285.285 0 0 0-.216-.072h-.117a.726.726 0 0 1-.657-.728.715.715 0 0 1 .634-.714h1.11c.234-.02.469.044.66.182.131.12.202.29.196.467v.267h.026s.023-.04.072-.11a2.246 2.246 0 0 1 .643-.585 2.29 2.29 0 0 1 .609-.273 3.085 3.085 0 0 1 2.43.344c.46.309.823.741 1.047 1.247.257.588.385 1.224.374 1.865.012.653-.128 1.3-.409 1.89a3.053 3.053 0 0 1-1.104 1.241c-.48.297-1.036.45-1.601.442-.296 0-.59-.046-.87-.136a2.49 2.49 0 0 1-.606-.312 2.11 2.11 0 0 1-.353-.305 1.3 1.3 0 0 1-.115-.143h-.027l.014.162c.009.104.012.253.013.429v2.066a.845.845 0 0 1-1.676-.007zm4.173-3.43c.269-.177.484-.425.62-.716.164-.36.245-.753.238-1.15a2.816 2.816 0 0 0-.216-1.136 1.744 1.744 0 0 0-.592-.741 1.512 1.512 0 0 0-.884-.266 1.57 1.57 0 0 0-1.458.922 3.094 3.094 0 0 0-.14 2.008c.065.24.172.466.315.669.136.196.315.359.524.474.224.123.477.186.733.182a1.58 1.58 0 0 0 .86-.247zm3.586 1.305a.954.954 0 0 1-.212-.695v-6.854a.303.303 0 0 0-.077-.221.316.316 0 0 0-.216-.072h-.207a.726.726 0 0 1 .116-1.442h1.17a.78.78 0 0 1 .904.91v6.86a.281.281 0 0 0 .076.215.29.29 0 0 0 .218.078h.194a.73.73 0 0 1-.01 1.435h-1.266a.952.952 0 0 1-.692-.214zm4.129.227a2.201 2.201 0 0 1-.738-.409 1.917 1.917 0 0 1-.513-.67 2.135 2.135 0 0 1-.195-.902c-.005-.32.071-.635.222-.916.144-.253.341-.47.579-.637.247-.172.518-.31.803-.41.29-.1.59-.176.893-.227.303-.052.585-.084.855-.104s.495-.026.683-.019h.213v-.059c.037-.37-.07-.74-.302-1.032a1.248 1.248 0 0 0-.95-.3 1.488 1.488 0 0 0-.567.084.639.639 0 0 0-.24.138.303.303 0 0 0-.099.227v.208a.8.8 0 0 1-1.569-.04V24.8a1.09 1.09 0 0 1 .19-.637 1.3 1.3 0 0 1 .482-.403c.2-.105.413-.184.634-.234.213-.052.43-.087.65-.104.208-.02.383-.026.53-.026a4.19 4.19 0 0 1 1.412.208 2.2 2.2 0 0 1 .901.578c.223.246.385.54.476.858.097.349.144.71.138 1.072v2.54a.268.268 0 0 0 .294.293h.201a.73.73 0 0 1 .034 1.435h-1.213a1.095 1.095 0 0 1-.502-.11.596.596 0 0 1-.277-.273.75.75 0 0 1-.086-.37c0-.085 0-.156.007-.208.006-.052.006-.085.006-.085h-.026s-.022.046-.065.124a2.16 2.16 0 0 1-.214.299 2.469 2.469 0 0 1-.385.357c-.18.126-.377.227-.585.299-.259.084-.53.126-.802.123a2.603 2.603 0 0 1-.873-.143zm1.91-1.345c.19-.105.356-.25.488-.422.136-.174.244-.37.319-.578.074-.202.112-.415.113-.63v-.156h-.292a5.713 5.713 0 0 0-.726.032c-.252.023-.5.071-.742.143a1.435 1.435 0 0 0-.579.325.771.771 0 0 0-.231.565c0 .153.038.302.112.436.08.136.198.247.34.318.176.091.374.136.573.13.219 0 .434-.056.625-.163zm4.2 4.028c-.188-.06-.37-.14-.54-.24a3.087 3.087 0 0 1-.285-.188.696.696 0 0 1 .79-1.105c.084.056.176.102.271.137a1.051 1.051 0 0 0 1.031-.136 1.53 1.53 0 0 0 .477-.657l.224-.526-.783-1.767-1.479-3.353a.305.305 0 0 0-.36-.24.739.739 0 0 1-.627-.715.724.724 0 0 1 .721-.727h.824a.91.91 0 0 1 .56.143c.159.127.275.3.333.493l.874 2.242.454 1.17c.044.123.084.253.122.389.035.143.065.26.086.364l.03.156h.029l.032-.156c.02-.104.048-.221.082-.364s.071-.266.11-.39l1.161-3.41a.933.933 0 0 1 .336-.494.96.96 0 0 1 .569-.143h.829a.724.724 0 0 1 .721.727.74.74 0 0 1-.635.715.455.455 0 0 0-.208.039.403.403 0 0 0-.148.201l-2.437 6.166a2.988 2.988 0 0 1-.624 1.007 2.436 2.436 0 0 1-.845.584 2.521 2.521 0 0 1-1.695.078zm7.185-3.404h-.011v-7.055a.293.293 0 0 0-.078-.221.31.31 0 0 0-.215-.072h-.147a.726.726 0 0 1 .116-1.442h1.11a1.87 1.87 0 0 1 .514.059c.124.038.23.121.296.233.072.15.105.315.096.481v4.308h.506c.116 0 .232-.015.344-.046a.543.543 0 0 0 .295-.208l1.407-2.196a.793.793 0 0 1 1.328.812l-1.191 1.8a2.132 2.132 0 0 1-.362.422.742.742 0 0 1-.143.11v.027c.056.024.106.06.148.104.136.121.248.266.33.428l.771 1.475a.4.4 0 0 0 .201.202.785.785 0 0 0 .36.052h.174c.342.067.59.365.593.714 0 .101-.023.201-.065.293a.739.739 0 0 1-.541.428h-.963c-.159.001-.317-.014-.472-.045a.753.753 0 0 1-.325-.176 1.39 1.39 0 0 1-.267-.37l-.058-.11-1.073-2.034a.439.439 0 0 0-.284-.214 1.049 1.049 0 0 0-.343-.04h-.372v2.411a.845.845 0 0 1-1.678-.13zm6.275-2.709c-.003.498.095.99.29 1.449.182.426.452.809.792 1.124.342.32.743.572 1.181.74a4.2 4.2 0 0 0 2.91 0c.438-.168.84-.42 1.184-.74.34-.315.612-.698.795-1.124a3.742 3.742 0 0 0 0-2.885 3.396 3.396 0 0 0-.795-1.13 3.508 3.508 0 0 0-1.185-.734 4.105 4.105 0 0 0-2.909 0c-.439.163-.84.413-1.18.734a3.408 3.408 0 0 0-.793 1.13 3.632 3.632 0 0 0-.29 1.436zm1.703 0a2.236 2.236 0 0 1 .278-1.104 1.972 1.972 0 0 1 1.733-1.02c.357-.001.708.093 1.016.272.306.18.558.437.73.748a2.353 2.353 0 0 1 0 2.221 2.019 2.019 0 0 1-.73.748c-.31.174-.66.266-1.016.266a1.949 1.949 0 0 1-1.733-1.014 2.232 2.232 0 0 1-.278-1.117zm9.225 3.43a3.253 3.253 0 0 1-.745-.195 2.218 2.218 0 0 1-.698-.435 2.028 2.028 0 0 1-.52-.74 2.988 2.988 0 0 1-.204-1.15v-2.97h-.55a.683.683 0 0 1-.057-1.344h.653v-1.3a.83.83 0 0 1 1.65-.09v1.39h1.3a.683.683 0 0 1-.058 1.345H71.82v2.754a1.42 1.42 0 0 0 .144.676c.081.16.203.294.354.39.134.085.284.144.44.175.133.03.27.045.406.046a.997.997 0 0 0 .191-.013.718.718 0 0 1 .706.682.758.758 0 0 1-.633.792.352.352 0 0 1-.102.013c-.124.015-.25.021-.375.02-.22.002-.44-.013-.657-.046zm-63.65 2.56a1.661 1.661 0 0 1 .265-2.04 1.274 1.274 0 0 1 1.84.416c1.12 1.572 1.69 3.268 3.004 3.872 3.244 1.494 6.818.013 9.451-4.567l.366-.644c2.046-3.553 2.128-6.574.937-8.647-1.19-2.072-3.833-3.508-7.922-3.508h-.738c-4.779 0-7.78 1.95-8.52 5.022-.336 1.397-.11 3.021 1.802 2.774l.038-.013a21.516 21.516 0 0 1 2.066-.097h.409a1.884 1.884 0 0 1-.02-.37 2.627 2.627 0 0 1 1.722-2.183 7.536 7.536 0 0 1 1.273-2.95 5.907 5.907 0 0 1 1.919 2.514c.292.037.581.091.866.163.18.052.35.104.512.156a4.808 4.808 0 0 1 1.634-1.014c.342.74.49 1.553.431 2.365.38.424.593.97.6 1.54a2.228 2.228 0 0 1-.82 1.643l-.098.078c.58.32 1.125.7 1.628 1.13 1.19 1.034.19 1.722-2.745.287 3.131 1.663 2.575 2.78 1.306 2.273a20.102 20.102 0 0 0-7.264-1.286c-4.028 0-7.721.87-10.01 2.527-.887.643-1.542.786-1.587.254-.086-.994.992-2.131 3.569-3.671a8.262 8.262 0 0 0-3.256 1.481c-1.537.988-1.705-.448-.52-1.5A11.973 11.973 0 0 1 6.29 26.11c-.823-.754-1.005-2.228-.666-3.651.918-3.84 4.61-6.374 10.218-6.374l.735-.006c9.226 0 13.106 6.77 8.498 14.787l-.368.636c-4.28 7.452-11.376 8.037-16.07 1.449zm9.305-6.243a.975.975 0 0 0-.974-.104.81.81 0 0 0 .442.65.975.975 0 0 0 .535-.546zm-.75-.56a3.13 3.13 0 0 0-.23-1.246.85.85 0 0 1-.119.162.715.715 0 0 1-1.06 0 .845.845 0 0 1 .006-1.137.737.737 0 0 1 .247-.175 2.416 2.416 0 0 0-2.554.039c-.66 1.702 1.565 2.754 3.71 2.358zm2.69-1.493a1.02 1.02 0 0 0-.112-.104.76.76 0 0 1-.117.695.45.45 0 0 1-.728 0 .752.752 0 0 1-.042-.832 1.494 1.494 0 0 0-.877 1.702c1.093.091 2.294-.636 1.876-1.461z" fill-rule="evenodd"/></svg>