<svg width="121" height="54" xmlns="http://www.w3.org/2000/svg" xmlns:xlink="http://www.w3.org/1999/xlink"><defs><path d="M0 15.8h22.508v22.387H0V15.8zm1.776 17.478l6.616-6.487-1.302-1.295V22.92l-.664-.499v1.97l-1.07.89-2.997-3.21-.976.808c.095-3.263 2.848-6.608 5.532-4.41l3.566 3.426-.84.755 1.599 1.565 1.654-1.605-.664-.796 3.254-3.21c2.793-2.697 6.17 2.172 5.586 4.316l-.99-.755-3.077 3.061-1.03-.836v-2.05l-.8.675v2.616l-1.275 1.227 6.63 6.595-2.806 2.764-6.698-6.675-6.482 6.54-2.766-2.804zM.651 16.446V37.54h21.206V16.446H.65zm61.177 2.792h2.481v6.11h-2.48v-6.11zm-35.958 6.11v-8.793h3.499c3.05.04 4.135 3.87 1.234 5.273l2.508 3.52h-2.82l-2.035-2.86v2.86H25.87zm2.386-6.865v1.942h.841c1.152-.216.84-1.861 0-1.942h-.84zm8.15.526c.65 0 1.26.215 1.762.566v-.337H40.5l.013 6.11h-2.36l.015-.378a3.07 3.07 0 0 1-1.763.553c-1.736 0-3.159-1.457-3.159-3.25 0-1.794 1.424-3.264 3.16-3.264zm.501 1.942c-.773 0-1.41.593-1.41 1.322 0 .728.637 1.321 1.41 1.321.786 0 1.423-.593 1.423-1.321 0-.729-.637-1.322-1.423-1.322zm4.84-1.713h2.482v6.11h-2.481v-6.11zm1.248-3.493c.719 0 1.302.593 1.302 1.308a1.31 1.31 0 0 1-1.302 1.308 1.313 1.313 0 0 1-1.316-1.308c0-.714.584-1.308 1.316-1.308zm20.067 0c.732 0 1.315.593 1.315 1.308 0 .715-.583 1.308-1.315 1.308a1.31 1.31 0 0 1-1.302-1.308 1.31 1.31 0 0 1 1.302-1.308zM44.69 19.238v1.942h.854v4.167h2.4V21.18h2.25v4.167h2.482v-4.194h1.546v-1.888h-1.614v-1.362c-.04-.499 1.14-.701 1.546-.296V15.61c-2.278-.715-4.122.567-4.109 2.55v1.078H47.93v-1.335c-.027-.499 1.004-.701 1.6-.296V15.61c-1.98-.58-4.095.378-4.081 2.536v1.078l-.76.014zm13.07 6.285c2.13-.014 2.915-.89 3.377-2.172H58.98c-.977 1.241-2.4.338-2.332-.674h4.556c0-2.481-1.33-3.655-3.444-3.655-2.115 0-3.444 1.484-3.444 3.291 0 1.808 1.545 3.223 3.443 3.21zm-.8-4.289c.028-.742 1.655-.742 1.763 0H56.96zm17.695 4.289c2.142-.014 2.929-.89 3.389-2.172h-2.17c-.975 1.241-2.4.338-2.33-.674h4.555c0-2.481-1.315-3.655-3.444-3.655-2.115 0-3.444 1.484-3.444 3.291 0 1.808 1.545 3.223 3.444 3.21zm-.8-4.289c.027-.742 1.654-.742 1.762 0h-1.763zM70.56 19.36l-.732 1.483c-.922-.283-1.817-.229-1.79.027.027.162-.122.445 1.315.647 2.142.337 1.966 4.302-1.627 4.006-.99-.068-1.79-.324-2.454-.715l.8-1.592c1.126.553 2.21.877 2.291.324.095-.688-1.18-.445-1.952-1.025-1.383-.85-.597-3.48 1.668-3.507.8-.053 1.627.082 2.481.352zm8.488-.122v6.11h2.319V21.61c.067-.93 1.911-1.092 1.925 0v3.736h2.345v-3.83c-.054-2.144-2.318-3.182-4.366-1.82v-.459h-2.223zM25.694 38.146l1.546-9.063 3.85-.04c1.94.027 2.861 2.522 1.058 4.181 2.115 1.254.895 4.922-2.075 4.922h-4.38zm3.01-2.157h1.017c1.152.053 1.017-1.498.352-1.498h-1.057l-.312 1.498zm.57-3.534l.311.013c.936.054 1.478-1.227.353-1.227h-.407l-.258 1.214zm3.863 5.705l4.732-9.023h2.509l2.128 9.05h-2.454l-.447-1.619h-3.01l-.8 1.592h-2.658zm5.98-3.493l-.528-2.388-1.126 2.388h1.654zm4.23 3.52h2.455l.623-5.678 3.512 5.651h2.63l1.098-9.077h-2.454l-.691 5.678-3.512-5.705h-2.536l-1.125 9.131zm12.081-9.13l-1.722 9.103h2.59l.692-3.4 2.318 3.4h3.403l-3.322-4.775 4.244-4.342h-3.294l-2.902 3.21.46-3.21-2.467.013z" id="raiffeisen-w_a"/></defs><g fill="none" fill-rule="evenodd"><mask id="raiffeisen-w_b" fill="#fff"><use xlink:href="#raiffeisen-w_a"/></mask><use fill="#151515" fill-rule="nonzero" xlink:href="#raiffeisen-w_a"/><g mask="url(#raiffeisen-w_b)" fill="#151515"><path d="M0 0h120.8v53.8H0z"/></g></g></svg>