<svg width="121" height="54" viewBox="0 0 121 54" fill="none" xmlns="http://www.w3.org/2000/svg">
<path d="M0 15.7998H22.508V38.1868H0V15.7998ZM1.776 33.2778L8.392 26.7908L7.09 25.4958V22.9198L6.426 22.4208V24.3908L5.356 25.2808L2.359 22.0708L1.383 22.8788C1.478 19.6158 4.231 16.2708 6.915 18.4688L10.481 21.8948L9.641 22.6498L11.24 24.2148L12.894 22.6098L12.23 21.8138L15.484 18.6038C18.277 15.9068 21.654 20.7758 21.07 22.9198L20.08 22.1648L17.003 25.2258L15.973 24.3898V22.3398L15.173 23.0148V25.6308L13.898 26.8578L20.528 33.4528L17.722 36.2168L11.024 29.5418L4.542 36.0818L1.776 33.2778V33.2778ZM0.651 16.4458V37.5398H21.857V16.4458H0.65H0.651ZM61.828 19.2378H64.309V25.3478H61.829V19.2378H61.828ZM25.87 25.3478V16.5548H29.369C32.419 16.5948 33.504 20.4248 30.603 21.8278L33.111 25.3478H30.291L28.256 22.4878V25.3478H25.87V25.3478ZM28.256 18.4828V20.4248H29.097C30.249 20.2088 29.937 18.5638 29.097 18.4828H28.257H28.256ZM36.406 19.0088C37.056 19.0088 37.666 19.2238 38.168 19.5748V19.2378H40.5L40.513 25.3478H38.153L38.168 24.9698C37.6511 25.3308 37.0355 25.5239 36.405 25.5228C34.669 25.5228 33.246 24.0658 33.246 22.2728C33.246 20.4788 34.67 19.0088 36.406 19.0088ZM36.907 20.9508C36.134 20.9508 35.497 21.5438 35.497 22.2728C35.497 23.0008 36.134 23.5938 36.907 23.5938C37.693 23.5938 38.33 23.0008 38.33 22.2728C38.33 21.5438 37.693 20.9508 36.907 20.9508ZM41.747 19.2378H44.229V25.3478H41.748V19.2378H41.747ZM42.995 15.7448C43.714 15.7448 44.297 16.3378 44.297 17.0528C44.2965 17.3985 44.1593 17.73 43.9154 17.975C43.6716 18.2201 43.3407 18.3587 42.995 18.3608C42.6471 18.3616 42.3131 18.2243 42.0664 17.9791C41.8197 17.7339 41.6803 17.4007 41.679 17.0528C41.679 16.3388 42.263 15.7448 42.995 15.7448V15.7448ZM63.062 15.7448C63.794 15.7448 64.377 16.3378 64.377 17.0528C64.377 17.7678 63.794 18.3608 63.062 18.3608C62.7163 18.3587 62.3855 18.2201 62.1416 17.975C61.8977 17.73 61.7605 17.3985 61.76 17.0528C61.7605 16.7071 61.8977 16.3756 62.1416 16.1306C62.3855 15.8856 62.7163 15.7469 63.062 15.7448V15.7448ZM44.69 19.2378V21.1798H45.544V25.3468H47.944V21.1798H50.194V25.3468H52.676V21.1528H54.222V19.2648H52.608V17.9028C52.568 17.4038 53.748 17.2018 54.154 17.6068V15.6098C51.876 14.8948 50.032 16.1768 50.045 18.1598V19.2378H47.93V17.9028C47.903 17.4038 48.934 17.2018 49.53 17.6068V15.6098C47.55 15.0298 45.435 15.9878 45.449 18.1458V19.2238L44.689 19.2378H44.69ZM57.76 25.5228C59.89 25.5088 60.675 24.6328 61.137 23.3508H58.98C58.003 24.5918 56.58 23.6888 56.648 22.6768H61.204C61.204 20.1958 59.874 19.0218 57.76 19.0218C55.645 19.0218 54.316 20.5058 54.316 22.3128C54.316 24.1208 55.861 25.5358 57.759 25.5228H57.76ZM56.96 21.2338C56.988 20.4918 58.615 20.4918 58.723 21.2338H56.96ZM74.655 25.5228C76.797 25.5088 77.584 24.6328 78.044 23.3508H75.874C74.899 24.5918 73.474 23.6888 73.544 22.6768H78.099C78.099 20.1958 76.784 19.0218 74.655 19.0218C72.54 19.0218 71.211 20.5058 71.211 22.3128C71.211 24.1208 72.756 25.5358 74.655 25.5228V25.5228ZM73.855 21.2338C73.882 20.4918 75.509 20.4918 75.617 21.2338H73.854H73.855ZM70.56 19.3598L69.828 20.8428C68.906 20.5598 68.011 20.6138 68.038 20.8698C68.065 21.0318 67.916 21.3148 69.353 21.5168C71.495 21.8538 71.319 25.8188 67.726 25.5228C66.736 25.4548 65.936 25.1988 65.272 24.8078L66.072 23.2158C67.198 23.7688 68.282 24.0928 68.363 23.5398C68.458 22.8518 67.183 23.0948 66.411 22.5148C65.028 21.6648 65.814 19.0348 68.079 19.0078C68.879 18.9548 69.706 19.0898 70.56 19.3598V19.3598ZM79.048 19.2378V25.3478H81.367V21.6098C81.434 20.6798 83.278 20.5178 83.292 21.6098V25.3458H85.637V21.5158C85.583 19.3718 83.319 18.3338 81.271 19.6958V19.2368H79.048V19.2378ZM25.694 38.1458L27.24 29.0828L31.09 29.0428C33.03 29.0698 33.951 31.5648 32.148 33.2238C34.263 34.4778 33.043 38.1458 30.073 38.1458H25.693H25.694ZM28.704 35.9888H29.721C30.873 36.0418 30.738 34.4908 30.073 34.4908H29.016L28.704 35.9888ZM29.274 32.4548L29.585 32.4678C30.521 32.5218 31.063 31.2408 29.938 31.2408H29.531L29.273 32.4548H29.274ZM33.137 38.1598L37.869 29.1368H40.378L42.506 38.1868H40.052L39.605 36.5678H36.595L35.795 38.1598H33.137ZM39.117 34.6668L38.589 32.2788L37.463 34.6668H39.117ZM43.347 38.1868H45.802L46.425 32.5088L49.937 38.1598H52.567L53.665 29.0828H51.211L50.52 34.7608L47.008 29.0558H44.472L43.347 38.1868V38.1868ZM55.428 29.0568L53.706 38.1598H56.296L56.988 34.7598L59.306 38.1598H62.709L59.387 33.3848L63.631 29.0428H60.337L57.435 32.2528L57.895 29.0428L55.428 29.0558V29.0568Z" fill="white"/>
</svg>
