<svg width="121" height="54" xmlns="http://www.w3.org/2000/svg"><path d="M26.141 15.339c-.116-.36-.03-.783.118-1.18a10.77 10.77 0 0 0-.293.657 5.33 5.33 0 0 0-.22.61v.003c-.043.16-.14.533-.094.721a.673.673 0 0 0 .136-.052 1.53 1.53 0 0 0 .206-.134c.033-.212.082-.42.147-.625zm1.488-2.241c.196-.343.399-.683.607-1.018.24-.381.483-.76.707-1.146-.548.654-1.284 1.54-1.314 2.164zM31.624 7.8l-.021.055c-.14.381-.313.75-.517 1.1a.784.784 0 0 1-.056.239 6.75 6.75 0 0 1-.373.85c.024.174.015.351-.026.522a1.38 1.38 0 0 1-.03.09c.665-.877 1.614-2.22 1.54-2.755-.019-.169-.31-.13-.422-.115l-.094.013h-.001zm-.996-.237c.192-.074.39-.135.59-.182.012-.222-.181-.244-.392-.178-.07.023-.136.052-.2.088.005.088.005.178.002.272zm-.534.24l.031-.017c.004-.042.007-.083.008-.127-.04.042-.085.085-.127.13.03.002.059.007.088.014zm-2.023 1.664c.207-.375.47-.715.782-1.009.337-.495.769-1.05 1.253-1.412a1.034 1.034 0 0 0-.081-.269.453.453 0 0 0-.233-.229.617.617 0 0 0-.242-.028l-.013.002c-.593.077-1.28 2.315-1.426 2.802l-.04.143zm2.477-2.682a.888.888 0 0 1 .131-.045c.217-.075.452-.078.67-.007.052.02.103.046.148.079l.063.052c.105.118.16.272.153.43.424-.046.847.049.914.543.122.919-1.562 3.025-2.143 3.767-.106.137-.217.274-.319.415l-.001.005c-.166.229-.316.464-.47.701-.267.438-.562.858-.884 1.256a6.463 6.463 0 0 1-.17.247c-.14.2-.292.392-.455.574a2.74 2.74 0 0 1-.224.274l-.025.046c-.167.298-.494.876-.769 1.09-.13.097-.286.162-.422.089a1.605 1.605 0 0 1-.135.121c-.163.124-.402.234-.535.074a.62.62 0 0 1-.064.034.803.803 0 0 1-.437.108.444.444 0 0 1-.387-.334c-.09-.286.013-.724.09-1.004V15.3c.065-.227.144-.45.235-.667.113-.274.234-.54.362-.802.344-.695.728-1.37 1.149-2.022.006-.047.016-.097.024-.145-.06.09-.122.178-.18.266-.206.3-.409.6-.622.891v.003l-.063.095-.401-.29.067-.09c.208-.29.41-.588.615-.885.277-.404.553-.805.841-1.2.102-.425.215-.849.342-1.267.215-.731.922-3.031 1.828-3.15a1.073 1.073 0 0 1 .488.056.908.908 0 0 1 .501.47c.035.072.064.146.085.223zm1.717 24.562c.041-.7.085-1.4.127-2.1l-.127 2.1zm-3.26 4.937l-.06.43c-.023.201.016.685.094 1.225-.006-.554-.02-1.105-.033-1.655zm.89-5.4c-.054.264-.106.528-.158.793-.013.584-.02 1.168-.02 1.756 0 .249-.023 1.23-.055 2.356.02.667.046 1.33.09 1.989.303-1.984.275-4.444.144-6.893zm1.014-5.024l-.095.545-.075.435-.002.01c-.127.603-.244 1.163-.36 1.726l-.146.678c.24 3.587.378 7.435-.36 10.03.027.313.08.622.157.925.128-.352.228-.712.3-1.08.453-2.094.875-5.925.875-6.861 0-.23.004-.728.007-1.248 0-.355 0-.704.003-1.052-.046-.607-.092-1.21-.136-1.815-.057-.767-.116-1.53-.168-2.293zm1.443-7.41l.075.032c.023-.118.036-.174.013-.174-.02 0-.052.05-.088.142zm.782 3.637c.242-.424.203-1.049.033-1.637-.01.546-.02 1.092-.033 1.637zm-3.795 5.336l-.247.368c.028 1.238.079 2.465.134 3.695l.009-.32c.029-1.263.066-2.504.104-3.743zm1.138-1.625c-.15.204-.296.41-.444.62l.063.903.023.349c.068-.312.133-.62.192-.91l.002-.008.073-.42.09-.534zm.997-1.263l-.068.065c.027.158.048.32.068.48v-.545zm.885-1.019a14.8 14.8 0 0 0-.462.507v11.27c0 .35.007.697.021 1.026l.004.075.006-.085c.113-1.656.23-3.308.337-4.962a360.537 360.537 0 0 0 .093-7.831zm-1.031.498c.046-.052.088-.104.132-.155v-1.122c-.06.332-.12.664-.175.983.015.1.03.194.043.294zm-2.69 2.03l-.19.282c-2.155 3.222-4.395 6.574-5.987 9.706 1.962-1.855 3.564-4.324 5.156-6.78.346-.533.69-1.064 1.036-1.59a88.506 88.506 0 0 1-.011-1.448l-.003-.171zm.76-1.14l-.34.512.005.201c.006.301.013.524.013.597 0 .272.001.543.005.814.093-.137.186-.276.28-.412.014-.567.029-1.14.037-1.713zm1.298-1.978c-.2.313-.406.623-.612.94-.03.62-.062 1.241-.095 1.863.216-.296.432-.586.653-.869.047-.264.1-.546.154-.835a37.46 37.46 0 0 1-.041-.807c-.018-.096-.036-.195-.059-.292zm1.663-2.681c-.15.263-.314.533-.462.78v2.344c.15-.163.306-.323.462-.48v-2.644zm-.899.293c-.113.19-.224.386-.332.578l.007.32.255-.416.07-.319v-.163zm.899-1.235c-.107.107-.207.22-.3.34a28.14 28.14 0 0 0-.083.395l.08-.14c.088-.142.19-.275.303-.396v-.198zM29.41 23.58c-.13.165-.257.33-.384.502.003.198.006.393.011.577l.37-.557c.002-.173.003-.347.003-.522zm.767-.947v.002l-.041.044-.013.334c.148-.229.297-.456.443-.685l-.04-.175a5.374 5.374 0 0 1-.346.476l-.003.004zm.11-1.351l-.106.168-.015.457c.069-.106.136-.218.205-.332-.028-.1-.054-.196-.085-.293zm.403-.663l-.1.166a8.1 8.1 0 0 0 .08.262l.022-.04v-.374h-.002v-.015zm.797-1.31l-.422.698c.016.1.028.191.04.278.115-.193.232-.381.356-.564.003-.152.011-.29.026-.412zm-1.155.742c.08-.116.16-.227.237-.337a9.187 9.187 0 0 0-.339-1.229v.165c0 .373-.003.748-.01 1.126.036.084.074.175.111.275zm-.95 2.696a6.662 6.662 0 0 1-.15.357l.178-.223v-.175l-.028.041zm.028-2.813c-.105.194-.216.4-.342.614a33.337 33.337 0 0 0-.054 1.946c.061-.165.108-.336.14-.509.019-.1.115-.29.256-.528v-1.523zm-1.177.04c-.884.802-1.33 2.336-1.712 3.756.619-.906 1.481-2.207 2.082-3.244.04-.067.075-.13.11-.193.026-.267.068-.532.126-.794a3.45 3.45 0 0 0-.606.475zm-2.248 5.615c-.449 1.26-.986 2.508-1.552 3.757l.458-.602c.471-.615.969-1.267 1.454-1.92.396-.642.795-1.284 1.191-1.925l1.052-1.697c.002-.634.013-1.301.048-1.916-.896 1.461-2.079 3.165-2.42 3.654h-.001l-.002.001v.002h-.001l-.04.059c-.06.205-.12.399-.185.58l-.001.006h-.001zm-2.429 5.676l-.216.473c.213-.357.428-.715.646-1.075-.155.213-.3.414-.43.602zm-.38-.219l.246-.533c.555-1.205 1.108-2.408 1.599-3.62-.45.818-.887 1.684-1.33 2.56-.511 1.018-1.029 2.044-1.578 3.015.283-.324.547-.664.792-1.018l.003-.005c.082-.126.172-.259.269-.399zm-.924-13.112c.131-.397.414-.064.328.81l-.328-.81zM20.27 38.51l.03.067.003-.011c0-.064 0-.14.004-.23l.004-.18a9.177 9.177 0 0 1-.041.354zm-.614-2.604c.072.497.16.978.272 1.44-.005-.2-.007-.418-.007-.655 0-.353.002-.71.007-1.07a6.53 6.53 0 0 1-.272.285zm1.785.878l-.005-.219-.088.12c-.028.09-.059.18-.085.27.06-.057.12-.112.178-.17zm.416-.827l.008.293.003-.005c1.612-3.27 3.964-6.783 6.22-10.163l.53-.795c-.004-.193-.01-.407-.013-.636-1.585 2.17-3.22 4.782-4.593 7.236-.352.63-.689 1.258-1.01 1.872a53.207 53.207 0 0 0-.872 1.742v.001a4.67 4.67 0 0 1-.273.455zm-.092-2.423l.03.672c.185-.463.381-.919.58-1.376-.189.225-.397.464-.61.704zm-1.404 2.283c.012-.25.031-.498.048-.748l-.036.036c-.006.235-.008.474-.012.712zm.443 2.794l-.024.084-.015.055a.592.592 0 0 1-.011.041c.032.185.02.164-.014.043a1.963 1.963 0 0 1-.16.418c.142.273.278.452.403.543a.2.2 0 0 0 .14.052.233.233 0 0 0 .117-.106c.135-.207.22-.615.22-1.189 0-.366-.003-.733-.008-1.103-.054.04-.106.077-.16.114v.002l-.259.188-.042.154-.002.003-.026.106-.159.595zm-.255-5.776a51.25 51.25 0 0 0-.102-.971l-.007.33c-.02.73-.04 1.455-.055 2.178l.06-.082c.032-.485.066-.97.104-1.455zm.55 1.656c.013.344.023.686.026 1.029l.265-.468c-.011-.348-.026-.698-.04-1.05l-.228.254-.003.03-.02.205zm-1.76-15.662c.002-.026-.017-.05-.047-.06v-.002c-.062 0-.02.047.04.153l.008-.091zm.591 4.33c.066.923.094 1.843.097 2.76l.054.352a48.45 48.45 0 0 0-.15-3.111zm-.523 7.9c.1-1.61.18-3.214.185-4.816l-.023.474c-.07 1.418-.142 2.89-.162 4.341zm.337 1.543c-.055.897-.115 1.794-.164 2.695l.359-.387c.014-.898.042-1.81.067-2.725.026-1.022.057-2.047.072-3.07l-.1-.661a153.47 153.47 0 0 1-.234 4.148zm-17.61 5.076c.24.554.326 1.073.259 1.548-.205-.564-.29-1.079-.259-1.548zm.692-5.598l.05.847.083.708a8.686 8.686 0 0 0-.005 1.633l-.142-.073.06-.128-.047-.386-.004-.52.014-.46-.063-.515a5.33 5.33 0 0 1-.024-1.307l.078.2zm-.684-2.48c.13.669.212 1.346.244 2.027.008.412.039.823.094 1.23-.008.353.034.704.124 1.044-.051.43-.067.862-.046 1.293.026.22.028.441.005.66l-.017 1.424-.113-.32-.01-.715-.08-.66.023-.315-.106-.387c.086-.275.095-.568.025-.847l-.03-.258.043-.141-.094-.777.028-.389a2.42 2.42 0 0 0-.042-.915l.013-.39-.06-1.564zm2.902-.257c.08.065.136.155.157.257.002.307.02.613.055.918l.077.188c-.034.151-.059.304-.073.458.069.496.086.997.052 1.497l.07.585c.017.132.008.22-.027.255-.01.283 0 .566.028.848l.001.586-.003.462-.035.327.025.706c.019.175.017.352-.007.527l-.098.721-.077 1.032-.147-.133a2.855 2.855 0 0 0-.11-.9c.035-.132.023-.225-.03-.272a.942.942 0 0 0-.063-.517c.053-.211.072-.43.055-.646a1.396 1.396 0 0 1-.02-.718 4.244 4.244 0 0 1-.124-1.043 3.96 3.96 0 0 1 0-1.107 1.992 1.992 0 0 1-.054-.905l.041-.257-.103-.259.018-.459-.098-1.894a1.5 1.5 0 0 1 .49-.257zM3.458 28.11a.905.905 0 0 1 .386.46l-.026.256.14.72-.022.26.062.512-.043.262.095.787-.093.9c.038.307.064.7.08 1.182.018.435.004.87-.042 1.302.03.248.039.499.024.749-.015.205-.01.411.012.616l-.09 1.42-.037.2-.053.718a3.387 3.387 0 0 0-.192 1.03l-.14-.057-.135-1.622a3.565 3.565 0 0 1-.005-.655l.003-1.034a4.054 4.054 0 0 1-.02-.66l.03-.32-.044-.385.072-1.563-.015-.718c.06-.321.084-.648.07-.974-.03-.262-.024-.414.014-.463l-.069-.586a2.373 2.373 0 0 1 .007-.44l.018-.462a4.766 4.766 0 0 1 .013-1.435zm1.448-.519c.208.307.115.461-.278.461-.188-.132-.1-.29.278-.46zm-2.419-.513c-.03.083-.011.234.053.444l-.033.202.155 1.301-.034.782c-.347-1.044-.419-2.025-.224-2.929l.083.2zm5.651-.662a.1.1 0 0 1-.113.127l-.479.335-1.65.846c-.12-.26-.078-.457.118-.59l.766-.189.11-.14 1.248-.39zm1.113-.513c.066.132-.011.22-.222.253a.31.31 0 0 1 .222-.253zm4.102-.073c-1.529 1.776-3.4 2.665-5.614 2.667.131-.106.277-.193.432-.26l.699-.127.175-.131c.77-.133 1.41-.373 1.94-.716l.12-.06.683-.258.296-.199a6.848 6.848 0 0 0 1.269-.916zM2.503 24.67c.125.427.16.876.1 1.318-.076-.303-.106-.535-.083-.687l-.018-.631zm9.683-.92c-.256.782-.8 1.285-1.643 1.506l.11-.13.356-.269.244-.262.121-.058a3.52 3.52 0 0 0 .812-.786zm1.064-.315c.03.214.038.43.026.647-.941 1.607-2.44 2.54-4.496 2.797l.193-.073.228-.262.137.074c.152-.105.316-.193.488-.26l.67-.386.194-.069.478-.333.435-.187c.15-.11.314-.196.488-.258l.295-.268c.12-.242.33-.428.584-.522.174-.269.27-.58.28-.9zm-9.875.127l.03.262c.039.28.054.563.044.845l.09.257a6.67 6.67 0 0 0 .057.977c.028.646.07 1.19.123 1.62a.483.483 0 0 1-.298.257l-.09-.257.028-.26-.105-2.538c0-.15.026-.3.075-.443a2.876 2.876 0 0 1-.053-1.048l.099.328zm-1.607-1.433c.091.139.154.295.183.46l.044.388c.085.294.122.6.11.906.1.46.167.926.2 1.395.024.337.01.677-.04 1.012l-.088-.258c-.118-.563-.166-.955-.141-1.174l-.157-1.296.036-.2-.16-.847.013-.386zm11.377-1.748c.36.474.617.932.751 1.36-.362-.48-.612-.928-.75-1.36zm-8.216-.132l.004.518-.023.387-.03.849c-.22-.702-.265-1.31-.147-1.822l.196.068zm-.64.057l.063.52.09.27-.02.316.03.255c.068.234.097.477.085.72.157.562.217 1.064.18 1.496l.114.453-.013.389.054.458c.167.653.19 1.216.076 1.697a1.592 1.592 0 0 0-.52.067c-.16-.264-.22-.612-.186-1.043l-.103-.26c.048-.305.055-.614.022-.92l-.13-2.264.015-.39.013-.457a4.678 4.678 0 0 1 .013-1.432l.218.125zm-1.507-.125l-.308.2-.021.386a3.6 3.6 0 0 0-.147 1.435l-.143-.132-.137-.53-.206-1.234.235-.185.727.06zm4.607 0c.591.22.807.174.649-.134a4.058 4.058 0 0 0-.672-.067l.023.201zm-1.075-.848c.188.08.395.102.596.067l.144.132c.488.137.966.309 1.429.515.152.17.175.348.062.519.23.06.445.173.627.328l.57.333.155.185c.172.173.362.327.568.458.204.139.382.314.523.517.24.067.455.202.62.389-.152.48-.345.845-.572 1.107l-.135.069-.697.643-.97.53-.195.058a3.398 3.398 0 0 1-.987.521c-.367.111-.72.263-1.052.453a5.339 5.339 0 0 1-1.25.333l-.043-.846-.293-3.515.059-.126-.156-1.754a3.61 3.61 0 0 1 1.94-.128 2.556 2.556 0 0 0-1.422-.46c-.13-.048-.182-.112-.153-.202.218.009.435-.035.632-.126zm-3.756 1.493c-.12-.04-.145-.097-.081-.177l.081.177zM2.18 19.59c-.327.132-.487.026-.484-.317l.484.317zm7.088-.646c2.535.867 3.609 2.038 3.22 3.515l-.138-.073c-.76-.91-1.595-1.557-2.517-1.954-.753-.562-1.447-.93-2.082-1.1.608-.041 1.113-.169 1.517-.388zm-7.296-.586c.276.196.581.349.903.454L2.77 19c-.455-.124-.814-.056-1.082.2-.075-.256.007-.426.255-.515l.03-.327zm6.394-.462c1.1.123 2.162.48 3.111 1.048L11.23 19l-.148-.129-1.07-.186-.136-.074-1.483-.511-.026-.203zm-1.113.074l1.028.388a3.24 3.24 0 0 1-1.083.199H6.81c-.236.04-.476.059-.715.054a4.387 4.387 0 0 1-1.16 0l-.097.26c-.704-.43-.635-.73.206-.9h1.108c.324.003.647-.041.957-.133l.144.132zM43.65 36.922c.199.069.406.112.617.128l-.03.33.442.343c.455.443.753.705.9.788h-.203l-.573-.325-.142-.132-1.318-.93.307-.202zm1.857-.677c.645.182 1.229.229 1.753.142l.911.407c.809.123 1.473.318 1.992.586l-.12.07-.209-.07a7.798 7.798 0 0 1-.962-.257c-.35.01-.696-.058-1.015-.201a3.18 3.18 0 0 1-2.35-.677zM39.056 25.8c1.224 3.903 3.268 7.056 6.134 9.459-.178.036-.36.036-.538 0-.664 0-1.14-.046-1.418-.13l-.138-.073-.442-.329-.984-1.002c-1.695-2.658-2.567-5.3-2.615-7.925zm-.858-1.659c.052.132.065.222.03.27l-.086.46L37.95 26c.017.138 0 .221-.042.262l.096.801-.028.275-.004.53c.076.551.099 1.11.067 1.665-.972-2.22-.919-4.017.16-5.393zm-.49-.734l-.127.13-.211.404-.115.127-.226.402-.082-.127c.269-.359.458-.664.558-.935l.347-.477-.144.476zm5.247-3.456c.069.22-.307.395-1.134.528a3.062 3.062 0 0 1 1.134-.528zm.8-1.077c.33-.082.677-.082 1.007 0l-.254.2a3.19 3.19 0 0 0-1.217.349c-.827.122-1.486.386-1.974.786l-.34-.059-1.32.736-.032-.273c.975-1.158 2.173-1.76 3.594-1.794l.536.055zm9.915-.055c-.357.305-.51.278-.465-.073l.465.073zm-6.47-1.263c.137 0 .22-.023.251-.074.512.086 1.031.11 1.549.074.24.078.492.122.746.129.158.01.316.034.47.072l.476.06 1.499.27c-.507.22-.99.288-1.443.2-.904.258-1.735.189-2.488-.2a4.896 4.896 0 0 0-1.201-.007c-.273.03-.536.12-.77.264l-1.314.142c-3.062-.4-5.116.597-6.161 2.987a4.99 4.99 0 0 0-.724.672c-.313.25-.594.539-.834.86a1.604 1.604 0 0 1 .01-.526c1.901-3.42 4.699-5.085 8.392-4.997l1.541.074zm-.325-.476c-5.713-.22-9.15 2.068-10.31 6.862-.894 2.129-1.035 4.26-.429 6.38l.47.289-.36.112c.538 1.562 1.414 2.763 2.627 3.604.196.533.749 1.021 1.654 1.458.172 0 .27-.088.296-.268-.3-.258-.6-.368-.918-.332a2.647 2.647 0 0 0-.79-1.131c-.63-.443-.553-.55.229-.329l.05-.073c-1.65-1.547-2.651-3.23-3.001-5.05l.24.328c.07.308.197.6.374.862.458.853.933 1.498 1.427 1.934l.083.132c.308.705.64 1.285.997 1.733l-.13.463a.693.693 0 0 0 .549.142l.144.13 1.087 1.26a.563.563 0 0 0-.21.533l1.126.4.226.203c1.943 1.865 4.024 3.151 6.245 3.857l.146-.458-.146-.144c-.185-.04-.424-.171-.723-.4a2.556 2.556 0 0 1-.786-.463c-.147-.082-.365-.263-.651-.527l-.38-.274-1.108-.991a.43.43 0 0 1 .265.059h.202c.194.073.382.163.56.27l.91.261c.334.04.661.133.968.275l.85-.073.126-.06c.625.038 1.132.013 1.525-.07l.057-.132-.047-.4c.13-.221.19-.475.174-.73-.5.006-.993-.108-1.439-.333.921-.092 1.481-.408 1.687-.93a2.99 2.99 0 0 0-.959-.2l-3.044.126a2.63 2.63 0 0 0-.746-.126c-3.396-2.71-5.576-5.884-6.54-9.525a4.285 4.285 0 0 1-.036-.79c1.211-2.487 3.05-4.084 5.5-4.793l.266.058h1.936c.316-.002.63.021.943.07.364-.005.727.04 1.08.131l.118-.073a2.95 2.95 0 0 0 1.03.203l.21.073a3.1 3.1 0 0 0 .877.128c.61.105 1.21.263 1.792.474l.193-.076c.247.13.529.176.804.133.36-.356.309-.664-.167-.935a.32.32 0 0 0 .05.404l-.184.145h-.334l-.287-.145h-.333l-.761-.262h-.402l-1.088-.2a2.652 2.652 0 0 0-.938-.07l-.34-.058-.419-.141-1.824-.133.458-.126.208.058H49.8c.64.03 1.276.12 1.899.268.141-.156.256-.334.34-.527a6.466 6.466 0 0 1 1.864 0c.822-.183 1.357-.516 1.6-1.005l-.222-.201-.262-.057a5.789 5.789 0 0 0-1.09-.2l-.281-.07-.269-.072h-.27c-1.442-.49-2.728-.687-3.877-.59l-.754-.201-1.603-.074zm-41.692.372c-1.077.432-2.124.58-3.134.445l.028-.26c-.355.26-.697.285-1.025.074-.18.343-.528.495-1.052.46.164.344.49.536.975.573l-.03.256.056.458c-.01.547.013 1.093.069 1.637l.03.26-.02.446.087.713-.035.201.21 1.753c-.055.325-.038.657.049.974-.02.262-.025.582-.018.975l-.005 1.636-.005.445.155 1.31-.02.384c-.027.435-.02.871.022 1.305l-.013.331.046.386-.043.257c.016.179.062.353.136.517a1.862 1.862 0 0 0-.016.974c-.01.35.01.7.059 1.048-.006.285.027.57.1.847l-.027.26.033.9.14 1.176c.153 1.647.421 2.251.808 1.822.122-.045.148-.175.085-.388.157-.523.185-1.004.087-1.434l.216-.328c.059.48.12.804.191.974l-.059.133.301 1.89h.187c.136-.201.24-.422.31-.655l-.065-.52.058-.715a4.11 4.11 0 0 0 .068-.98l.13-1.101.011-.517.072-.458c.138.083.198.28.202.589L4.87 39.3c.01.505.09 1.007.236 1.491.193-.22.32-.49.367-.778a.524.524 0 0 0 .31.445c.02-.352.089-.7.207-1.032l-.025-.2-.011-.717-.023-.185.031-1.308-.027-.846-.033-.714c-.076-.3-.077-.686-.007-1.167l-.074-.128c.068-.388.083-.784.046-1.176l.026-.384c-.019-.37 0-.74.054-1.107l-.088-.261c.095-.272.103-.566.024-.842.042-.348.044-.7.007-1.048l.312-.133.947-.253c4.341.043 6.898-1.799 7.67-5.524l-.374-2.023c-2.092-3.03-4.721-4.33-7.889-3.902l-1.373-.058zM18.52 39.553c-1.285-3.883-1.366-13.784-1.186-19.067.04-1.192.095-2.15.152-2.75.139-1.473.347-1.787.597-.626.035.165.066.55.092 1.182l.383 10.01c.047 1.204.332 4.62.57 7.315l.014-.299c-.303-2.702-.152-5.773-.008-8.619.054-1.11.108-2.184.131-3.198a34.68 34.68 0 0 1-.244-3.922c0-.894.103-1.245.264-1.245v-.001a.107.107 0 0 1 .08.054c.013-.118.028-.234.044-.352.022-.147.097-.21.249-.19.055.007.103.084.14.213a.032.032 0 0 1 .043.04l-.013.076c.074.311.12.811.172 1.362.074.78.157 1.68.226 2.229h-.002l.002.01h.001c.287 2.362.324 4.834.285 7.311.079.512.15 1.017.22 1.527l.02-.237c.086-1.013.175-2.025.248-3.043-.102-2.037-.182-4.076-.182-6.114v-.01c0-.674.107-2.255.21-3.087.017-.169.045-.336.083-.502.198-.693.367-.754.488.056.035.4.048.803.04 1.205v3.61c0 1.631-.086 3.247-.202 4.854l.046.894c.129-.852.255-1.705.368-2.557.025-1.376.123-4.224.215-5.86.026-.488.052-.872.076-1.077.015-.142.031-.274.048-.395.003-.14.024-.28.062-.416.144-.858.275-.688.381.805.018.271.032.897.032 2.008 0 1.607-.16 3.28-.378 4.966-.005.205-.007.375-.007.502 0 1.717-.298 3.398-.628 5.077l.052 1.017c.555-.978 1.08-2.02 1.599-3.05.803-1.592 1.592-3.157 2.475-4.446.086-.298.171-.618.256-.944.413-1.545.876-3.28 1.909-4.216 1.021-.929 1.602-1.321 1.86-1.336a1.24 1.24 0 0 1 .089-.438c.14-.27.31-.262.498-.043v-.002c.09.124.163.26.214.406.124.329.226.666.304 1.008.122-.162.223-.294.292-.377l.001-.002c.035-.043.067-.079.098-.118.09-.22.197-.3.279-.294.175-.158.257-.144.226.067a.498.498 0 0 1 .281-.124c.126-.334.246-.527.344-.527.158 0 .271.19.329.627.172-.072.268-.053.3.031h.122l-.002.819c.062.113.123.234.179.361.435.978.605 2.28-.121 2.938-.04.04-.079.074-.12.113-.08 2.892-.237 5.761-.42 8.624a235.152 235.152 0 0 1-.158 4.732c-.057 1.283-.135 2-.219 2.302a.822.822 0 0 1-.12.275l-.047.688a.511.511 0 0 1-.021.136c-.175.498-.303.536-.391.202-.053-.033-.08-.111-.046-.25a2.98 2.98 0 0 1-.021-.142c-.015-.118-.028-.3-.045-.51a76.937 76.937 0 0 1-.12-1.989c-.012-.2-.024-.412-.032-.629l-.001-.023v-.008a16.467 16.467 0 0 1-.013-.41h-.002c0-.375-.005-.754-.011-1.13-.166 1.506-.426 3.353-.696 4.593-.116.53-.232.96-.354 1.213-.226.487-.466.578-.705.12-.057-.127-.1-.26-.128-.397a.316.316 0 0 1-.079.121c-.003.455-.055.73-.124.842-.085.513-.162.473-.237-.229a3.038 3.038 0 0 1-.067-.686.66.66 0 0 1-.068-.13h.002a3.135 3.135 0 0 1-.146-.5c-.201-.893-.378-2.48-.335-2.908.097-.933.232-1.884.39-2.837l-.07-1.481c-.06-1.308-.122-2.614-.16-3.924-.232.352-.46.707-.69 1.06-1.837 2.835-3.686 5.684-6.1 7.632.008.478.012.957.011 1.435 0 .66-.11 1.151-.29 1.426a.626.626 0 0 1-.395.294.609.609 0 0 1-.481-.127c-.257-.19-.535-.607-.794-1.282h.002l-.002-.004c-.182-.482-.33-.977-.444-1.48a54.118 54.118 0 0 0-.03 1.87v.029l-.007.027c-.14.557-.269.627-.369.223-.078.046-.126-.025-.062-.3l.002-.037a10.297 10.297 0 0 1-.048-.39c-.027-.305-.068-.74-.114-1.266-.244-2.69-.678-7.702-.737-9.22l-.329-8.549c-.01.23-.018.478-.028.733-.178 5.251-.098 15.087 1.167 18.916l-.414.136z" fill="#000" fill-rule="nonzero"/></svg>