<svg width="121" height="54" viewBox="0 0 121 54" fill="none" xmlns="http://www.w3.org/2000/svg">
<g clip-path="url(#clip0)">
<path d="M26.141 15.3391C26.025 14.9791 26.111 14.5561 26.259 14.1591C26.154 14.3748 26.0563 14.5939 25.966 14.8161C25.8804 15.0148 25.8069 15.2185 25.746 15.4261V15.4291C25.703 15.5891 25.606 15.9621 25.652 16.1501C25.6991 16.1377 25.7447 16.1203 25.788 16.0981C25.8601 16.059 25.929 16.0142 25.994 15.9641C26.027 15.7521 26.076 15.5441 26.141 15.3391V15.3391ZM27.629 13.0981C27.825 12.7551 28.028 12.4151 28.236 12.0801C28.476 11.6991 28.719 11.3201 28.943 10.9341C28.395 11.5881 27.659 12.4741 27.629 13.0981ZM31.624 7.80008L31.603 7.85508C31.463 8.23608 31.29 8.60508 31.086 8.95508C31.08 9.03719 31.0611 9.11785 31.03 9.19408C30.9253 9.48564 30.8007 9.76964 30.657 10.0441C30.681 10.2181 30.672 10.3951 30.631 10.5661C30.622 10.5964 30.612 10.6264 30.601 10.6561C31.266 9.77908 32.215 8.43608 32.141 7.90108C32.122 7.73208 31.831 7.77108 31.719 7.78608L31.625 7.79908H31.624V7.80008ZM30.628 7.56308C30.82 7.48908 31.018 7.42808 31.218 7.38108C31.23 7.15908 31.037 7.13708 30.826 7.20308C30.756 7.22608 30.69 7.25508 30.626 7.29108C30.631 7.37908 30.631 7.46908 30.628 7.56308ZM30.094 7.80308L30.125 7.78608C30.129 7.74408 30.132 7.70308 30.133 7.65908C30.093 7.70108 30.048 7.74408 30.006 7.78908C30.036 7.79108 30.065 7.79608 30.094 7.80308ZM28.071 9.46708C28.278 9.09208 28.541 8.75208 28.853 8.45808C29.19 7.96308 29.622 7.40808 30.106 7.04608C30.0914 6.95315 30.0641 6.86265 30.025 6.77708C29.9785 6.67442 29.8954 6.59278 29.792 6.54808C29.714 6.52276 29.6317 6.51324 29.55 6.52008L29.537 6.52208C28.944 6.59908 28.257 8.83708 28.111 9.32408L28.071 9.46708ZM30.548 6.78508C30.5904 6.76669 30.6342 6.75165 30.679 6.74008C30.896 6.66508 31.131 6.66208 31.349 6.73308C31.401 6.75308 31.452 6.77908 31.497 6.81208L31.56 6.86408C31.665 6.98208 31.72 7.13608 31.713 7.29408C32.137 7.24808 32.56 7.34308 32.627 7.83708C32.749 8.75608 31.065 10.8621 30.484 11.6041C30.378 11.7411 30.267 11.8781 30.165 12.0191L30.164 12.0241C29.998 12.2531 29.848 12.4881 29.694 12.7251C29.427 13.1631 29.132 13.5831 28.81 13.9811C28.7553 14.0647 28.6986 14.1471 28.64 14.2281C28.5 14.4281 28.348 14.6201 28.185 14.8021C28.1163 14.8981 28.0415 14.9897 27.961 15.0761L27.936 15.1221C27.769 15.4201 27.442 15.9981 27.167 16.2121C27.037 16.3091 26.881 16.3741 26.745 16.3011C26.7023 16.3439 26.6572 16.3843 26.61 16.4221C26.447 16.5461 26.208 16.6561 26.075 16.4961C26.0543 16.5087 26.033 16.52 26.011 16.5301C25.8786 16.607 25.727 16.6445 25.574 16.6381C25.4829 16.6291 25.3969 16.5922 25.3276 16.5324C25.2583 16.4726 25.2092 16.3928 25.187 16.3041C25.097 16.0181 25.2 15.5801 25.277 15.3001V15.3001C25.342 15.0731 25.421 14.8501 25.512 14.6331C25.625 14.3591 25.746 14.0931 25.874 13.8311C26.218 13.1361 26.602 12.4611 27.023 11.8091C27.029 11.7621 27.039 11.7121 27.047 11.6641C26.987 11.7541 26.925 11.8421 26.867 11.9301C26.661 12.2301 26.458 12.5301 26.245 12.8211V12.8241L26.182 12.9191L25.781 12.6291L25.848 12.5391C26.056 12.2491 26.258 11.9511 26.463 11.6541C26.74 11.2501 27.016 10.8491 27.304 10.4541C27.406 10.0291 27.519 9.60508 27.646 9.18708C27.861 8.45608 28.568 6.15608 29.474 6.03708C29.6388 6.01776 29.8059 6.03693 29.962 6.09308C30.1841 6.17809 30.364 6.34685 30.463 6.56308C30.498 6.63508 30.527 6.70908 30.548 6.78608V6.78508ZM32.265 31.3471C32.306 30.6471 32.35 29.9471 32.392 29.2471L32.265 31.3471ZM29.005 36.2841L28.945 36.7141C28.922 36.9151 28.961 37.3991 29.039 37.9391C29.033 37.3851 29.019 36.8341 29.006 36.2841H29.005ZM29.895 30.8841C29.841 31.1481 29.789 31.4121 29.737 31.6771C29.724 32.2611 29.717 32.8451 29.717 33.4331C29.717 33.6821 29.694 34.6631 29.662 35.7891C29.682 36.4561 29.708 37.1191 29.752 37.7781C30.055 35.7941 30.027 33.3341 29.896 30.8851L29.895 30.8841ZM30.909 25.8601L30.814 26.4051L30.739 26.8401L30.737 26.8501C30.61 27.4531 30.493 28.0131 30.377 28.5761L30.231 29.2541C30.471 32.8411 30.609 36.6891 29.871 39.2841C29.898 39.5971 29.951 39.9061 30.028 40.2091C30.156 39.8571 30.256 39.4971 30.328 39.1291C30.781 37.0351 31.203 33.2041 31.203 32.2681C31.203 32.0381 31.207 31.5401 31.21 31.0201C31.21 30.6651 31.21 30.3161 31.213 29.9681C31.167 29.3611 31.121 28.7581 31.077 28.1531C31.02 27.3861 30.961 26.6231 30.909 25.8601V25.8601ZM32.352 18.4501L32.427 18.4821C32.45 18.3641 32.463 18.3081 32.44 18.3081C32.42 18.3081 32.388 18.3581 32.352 18.4501ZM33.134 22.0871C33.376 21.6631 33.337 21.0381 33.167 20.4501C33.157 20.9961 33.147 21.5421 33.134 22.0871ZM29.339 27.4231L29.092 27.7911C29.12 29.0291 29.171 30.2561 29.226 31.4861L29.235 31.1661C29.264 29.9031 29.301 28.6621 29.339 27.4231ZM30.477 25.7981C30.327 26.0021 30.181 26.2081 30.033 26.4181L30.096 27.3211L30.119 27.6701C30.187 27.3581 30.252 27.0501 30.311 26.7601L30.313 26.7521L30.386 26.3321L30.476 25.7981H30.477ZM31.474 24.5351L31.406 24.6001C31.433 24.7581 31.454 24.9201 31.474 25.0801V24.5351ZM32.359 23.5161C32.2011 23.6815 32.0471 23.8505 31.897 24.0231V35.2931C31.897 35.6431 31.904 35.9901 31.918 36.3191L31.922 36.3941L31.928 36.3091C32.041 34.6531 32.158 33.0011 32.265 31.3471C32.3244 28.7372 32.3554 26.1267 32.358 23.5161H32.359ZM31.328 24.0141C31.374 23.9621 31.416 23.9101 31.46 23.8591V22.7371C31.4 23.0691 31.34 23.4011 31.285 23.7201C31.3 23.8201 31.315 23.9141 31.328 24.0141ZM28.638 26.0441L28.448 26.3261C26.293 29.5481 24.053 32.9001 22.461 36.0321C24.423 34.1771 26.025 31.7081 27.617 29.2521C27.963 28.7191 28.307 28.1881 28.653 27.6621C28.6454 27.1795 28.6417 26.6968 28.642 26.2141L28.639 26.0431L28.638 26.0441ZM29.398 24.9041L29.058 25.4161L29.063 25.6171C29.069 25.9181 29.076 26.1411 29.076 26.2141C29.076 26.4861 29.077 26.7571 29.081 27.0281C29.174 26.8911 29.267 26.7521 29.361 26.6161C29.375 26.0491 29.39 25.4761 29.398 24.9031V24.9041ZM30.696 22.9261C30.496 23.2391 30.29 23.5491 30.084 23.8661C30.054 24.4861 30.022 25.1071 29.989 25.7291C30.205 25.4331 30.421 25.1431 30.642 24.8601C30.689 24.5961 30.742 24.3141 30.796 24.0251C30.7794 23.7562 30.7658 23.4872 30.755 23.2181C30.737 23.1221 30.719 23.0231 30.696 22.9261ZM32.359 20.2451C32.209 20.5081 32.045 20.7781 31.897 21.0251V23.3691C32.047 23.2061 32.203 23.0461 32.359 22.8891V20.2451ZM31.46 20.5381C31.347 20.7281 31.236 20.9241 31.128 21.1161L31.135 21.4361L31.39 21.0201L31.46 20.7011V20.5381ZM32.359 19.3031C32.252 19.4101 32.152 19.5231 32.059 19.6431C32.0304 19.7745 32.0027 19.9062 31.976 20.0381L32.056 19.8981C32.144 19.7561 32.246 19.6231 32.359 19.5021V19.3041V19.3031ZM29.41 23.5801C29.28 23.7451 29.153 23.9101 29.026 24.0821C29.029 24.2801 29.032 24.4751 29.037 24.6591L29.407 24.1021C29.409 23.9291 29.41 23.7551 29.41 23.5801V23.5801ZM30.177 22.6331V22.6351L30.136 22.6791L30.123 23.0131C30.271 22.7841 30.42 22.5571 30.566 22.3281L30.526 22.1531C30.4194 22.3179 30.3039 22.4769 30.18 22.6291L30.177 22.6331ZM30.287 21.2821L30.181 21.4501L30.166 21.9071C30.235 21.8011 30.302 21.6891 30.371 21.5751C30.343 21.4751 30.317 21.3791 30.286 21.2821H30.287ZM30.69 20.6191L30.59 20.7851C30.6152 20.8729 30.6419 20.9602 30.67 21.0471L30.692 21.0071V20.6331H30.69V20.6181V20.6191ZM31.487 19.3091L31.065 20.0071C31.081 20.1071 31.093 20.1981 31.105 20.2851C31.22 20.0921 31.337 19.9041 31.461 19.7211C31.464 19.5691 31.472 19.4311 31.487 19.3091ZM30.332 20.0511C30.412 19.9351 30.492 19.8241 30.569 19.7141C30.4846 19.2971 30.3713 18.8864 30.23 18.4851V18.6501C30.23 19.0231 30.227 19.3981 30.22 19.7761C30.256 19.8601 30.294 19.9511 30.331 20.0511H30.332ZM29.382 22.7471C29.3355 22.8675 29.2854 22.9866 29.232 23.1041L29.41 22.8811V22.7061L29.382 22.7471V22.7471ZM29.41 19.9341C29.305 20.1281 29.194 20.3341 29.068 20.5481C29.0311 21.1961 29.0131 21.845 29.014 22.4941C29.075 22.3291 29.122 22.1581 29.154 21.9851C29.173 21.8851 29.269 21.6951 29.41 21.4571V19.9341V19.9341ZM28.233 19.9741C27.349 20.7761 26.903 22.3101 26.521 23.7301C27.14 22.8241 28.002 21.5231 28.603 20.4861C28.643 20.4191 28.678 20.3561 28.713 20.2931C28.739 20.0261 28.781 19.7611 28.839 19.4991C28.6199 19.6343 28.4166 19.7936 28.233 19.9741V19.9741ZM25.985 25.5891C25.536 26.8491 24.999 28.0971 24.433 29.3461L24.891 28.7441C25.362 28.1291 25.86 27.4771 26.345 26.8241C26.741 26.1821 27.14 25.5401 27.536 24.8991L28.588 23.2021C28.59 22.5681 28.601 21.9011 28.636 21.2861C27.74 22.7471 26.557 24.4511 26.216 24.9401H26.215L26.213 24.9411V24.9431H26.212L26.172 25.0021C26.112 25.2071 26.052 25.4011 25.987 25.5821L25.986 25.5881H25.985V25.5891ZM23.556 31.2651L23.34 31.7381C23.553 31.3811 23.768 31.0231 23.986 30.6631C23.831 30.8761 23.686 31.0771 23.556 31.2651ZM23.176 31.0461L23.422 30.5131C23.977 29.3081 24.53 28.1051 25.021 26.8931C24.571 27.7111 24.134 28.5771 23.691 29.4531C23.18 30.4711 22.662 31.4971 22.113 32.4681C22.396 32.1441 22.66 31.8041 22.905 31.4501L22.908 31.4451C22.99 31.3191 23.08 31.1861 23.177 31.0461H23.176ZM22.252 17.9341C22.383 17.5371 22.666 17.8701 22.58 18.7441L22.252 17.9341ZM20.27 38.5101L20.3 38.5771L20.303 38.5661C20.303 38.5021 20.303 38.4261 20.307 38.3361L20.311 38.1561C20.2996 38.2743 20.286 38.3924 20.27 38.5101V38.5101ZM19.656 35.9061C19.728 36.4031 19.816 36.8841 19.928 37.3461C19.923 37.1461 19.921 36.9281 19.921 36.6911C19.921 36.3381 19.923 35.9811 19.928 35.6211C19.8402 35.7188 19.7495 35.8138 19.656 35.9061V35.9061ZM21.441 36.7841L21.436 36.5651L21.348 36.6851C21.32 36.7751 21.289 36.8651 21.263 36.9551C21.323 36.8981 21.383 36.8431 21.441 36.7851V36.7841ZM21.857 35.9571L21.865 36.2501L21.868 36.2451C23.48 32.9751 25.832 29.4621 28.088 26.0821L28.618 25.2871C28.614 25.0941 28.608 24.8801 28.605 24.6511C27.02 26.8211 25.385 29.4331 24.012 31.8871C23.66 32.5171 23.323 33.1451 23.002 33.7591C22.7007 34.3344 22.41 34.9151 22.13 35.5011V35.5021C22.0477 35.6588 21.9566 35.8107 21.857 35.9571V35.9571ZM21.765 33.5341L21.795 34.2061C21.98 33.7431 22.176 33.2871 22.375 32.8301C22.186 33.0551 21.978 33.2941 21.765 33.5341ZM20.361 35.8171C20.373 35.5671 20.392 35.3191 20.409 35.0691L20.373 35.1051C20.367 35.3401 20.365 35.5791 20.361 35.8171V35.8171ZM20.804 38.6111L20.78 38.6951L20.765 38.7501C20.7618 38.7639 20.7582 38.7775 20.754 38.7911C20.786 38.9761 20.774 38.9551 20.74 38.8341C20.7028 38.9791 20.6491 39.1193 20.58 39.2521C20.722 39.5251 20.858 39.7041 20.983 39.7951C21.0212 39.8298 21.0714 39.8485 21.123 39.8471C21.1731 39.8264 21.2145 39.789 21.24 39.7411C21.375 39.5341 21.46 39.1261 21.46 38.5521C21.46 38.1861 21.457 37.8191 21.452 37.4491C21.398 37.4891 21.346 37.5261 21.292 37.5631V37.5651L21.033 37.7531L20.991 37.9071L20.989 37.9101L20.963 38.0161L20.804 38.6111ZM20.549 32.8351C20.5181 32.5111 20.4841 32.1874 20.447 31.8641L20.44 32.1941C20.42 32.9241 20.4 33.6491 20.385 34.3721L20.445 34.2901C20.477 33.8051 20.511 33.3201 20.549 32.8351V32.8351ZM21.099 34.4911C21.112 34.8351 21.122 35.1771 21.125 35.5201L21.39 35.0521C21.379 34.7041 21.364 34.3541 21.35 34.0021L21.122 34.2561L21.119 34.2861L21.099 34.4911ZM19.339 18.8291C19.341 18.8031 19.322 18.7791 19.292 18.7691V18.7671C19.23 18.7671 19.272 18.8141 19.332 18.9201L19.34 18.8291H19.339ZM19.93 23.1591C19.996 24.0821 20.024 25.0021 20.027 25.9191L20.081 26.2711C20.0644 25.2327 20.0143 24.1952 19.931 23.1601L19.93 23.1591ZM19.407 31.0591C19.507 29.4491 19.587 27.8451 19.592 26.2431L19.569 26.7171C19.499 28.1351 19.427 29.6071 19.407 31.0581V31.0591ZM19.744 32.6021C19.689 33.4991 19.629 34.3961 19.58 35.2971L19.939 34.9101C19.953 34.0121 19.981 33.1001 20.006 32.1851C20.032 31.1631 20.063 30.1381 20.078 29.1151L19.978 28.4541C19.9187 29.8377 19.8407 31.2205 19.744 32.6021V32.6021ZM2.134 37.6781C2.374 38.2321 2.46 38.7511 2.393 39.2261C2.188 38.6621 2.103 38.1471 2.134 37.6781ZM2.826 32.0801L2.876 32.9271L2.959 33.6351C2.90606 34.178 2.90438 34.7248 2.954 35.2681L2.812 35.1951L2.872 35.0671L2.825 34.6811L2.821 34.1611L2.835 33.7011L2.772 33.1861C2.7104 32.7531 2.70234 32.3141 2.748 31.8791L2.826 32.0791V32.0801ZM2.142 29.6001C2.272 30.2691 2.354 30.9461 2.386 31.6271C2.394 32.0391 2.425 32.4501 2.48 32.8571C2.472 33.2101 2.514 33.5611 2.604 33.9011C2.553 34.3311 2.537 34.7631 2.558 35.1941C2.584 35.4141 2.586 35.6351 2.563 35.8541L2.546 37.2781L2.433 36.9581L2.423 36.2431L2.343 35.5831L2.366 35.2681L2.26 34.8811C2.346 34.6061 2.355 34.3131 2.285 34.0341L2.255 33.7761L2.298 33.6351L2.204 32.8581L2.232 32.4691C2.27637 32.1642 2.26212 31.8536 2.19 31.5541L2.203 31.1641L2.143 29.6001H2.142ZM5.044 29.3431C5.124 29.4081 5.18 29.4981 5.201 29.6001C5.203 29.9071 5.221 30.2131 5.256 30.5181L5.333 30.7061C5.299 30.8571 5.274 31.0101 5.26 31.1641C5.329 31.6601 5.346 32.1611 5.312 32.6611L5.382 33.2461C5.399 33.3781 5.39 33.4661 5.355 33.5011C5.345 33.7841 5.355 34.0671 5.383 34.3491L5.384 34.9351L5.381 35.3971L5.346 35.7241L5.371 36.4301C5.39 36.6051 5.388 36.7821 5.364 36.9571L5.266 37.6781L5.189 38.7101L5.042 38.5771C5.05351 38.2731 5.01637 37.9693 4.932 37.6771C4.967 37.5451 4.955 37.4521 4.902 37.4051C4.93 37.2303 4.90817 37.0511 4.839 36.8881C4.892 36.6771 4.911 36.4581 4.894 36.2421C4.82482 36.0086 4.81793 35.7611 4.874 35.5241C4.78964 35.1829 4.74799 34.8325 4.75 34.4811C4.69817 34.1139 4.69817 33.7413 4.75 33.3741C4.66268 33.0806 4.6442 32.7709 4.696 32.4691L4.737 32.2121L4.634 31.9531L4.652 31.4941L4.554 29.6001C4.69998 29.4848 4.86614 29.3976 5.044 29.3431V29.3431ZM3.458 28.1101C3.63527 28.215 3.77144 28.3773 3.844 28.5701L3.818 28.8261L3.958 29.5461L3.936 29.8061L3.998 30.3181L3.955 30.5801L4.05 31.3671L3.957 32.2671C3.995 32.5741 4.021 32.9671 4.037 33.4491C4.055 33.8841 4.041 34.3191 3.995 34.7511C4.025 34.9991 4.034 35.2501 4.019 35.5001C4.004 35.7051 4.009 35.9111 4.031 36.1161L3.941 37.5361L3.904 37.7361L3.851 38.4541C3.73396 38.7854 3.66919 39.1329 3.659 39.4841L3.519 39.4271L3.384 37.8051C3.36224 37.5874 3.36056 37.3681 3.379 37.1501L3.382 36.1161C3.3574 35.897 3.35071 35.6763 3.362 35.4561L3.392 35.1361L3.348 34.7511L3.42 33.1881L3.405 32.4701C3.465 32.1491 3.489 31.8221 3.475 31.4961C3.445 31.2341 3.451 31.0821 3.489 31.0331L3.42 30.4471C3.4087 30.3005 3.41104 30.1532 3.427 30.0071L3.445 29.5451C3.37688 29.0688 3.38126 28.585 3.458 28.1101V28.1101ZM4.906 27.5911C5.114 27.8981 5.021 28.0521 4.628 28.0521C4.44 27.9201 4.528 27.7621 4.906 27.5921V27.5911ZM2.487 27.0781C2.457 27.1611 2.476 27.3121 2.54 27.5221L2.507 27.7241L2.662 29.0251L2.628 29.8071C2.281 28.7631 2.209 27.7821 2.404 26.8781L2.487 27.0781ZM8.138 26.4161C8.14285 26.4324 8.14345 26.4497 8.13975 26.4663C8.13605 26.4829 8.12817 26.4983 8.11685 26.511C8.10553 26.5238 8.09116 26.5334 8.07508 26.539C8.05901 26.5446 8.04177 26.546 8.025 26.5431L7.546 26.8781L5.896 27.7241C5.776 27.4641 5.818 27.2671 6.014 27.1341L6.78 26.9451L6.89 26.8051L8.138 26.4151V26.4161ZM9.251 25.9031C9.317 26.0351 9.24 26.1231 9.029 26.1561C9.03771 26.097 9.06329 26.0417 9.10267 25.9968C9.14205 25.9519 9.19356 25.9194 9.251 25.9031ZM13.353 25.8301C11.824 27.6061 9.953 28.4951 7.739 28.4971C7.87 28.3911 8.016 28.3041 8.171 28.2371L8.87 28.1101L9.045 27.9791C9.815 27.8461 10.455 27.6061 10.985 27.2631L11.105 27.2031L11.788 26.9451L12.084 26.7461C12.5406 26.4902 12.9664 26.1829 13.353 25.8301V25.8301ZM2.503 24.6701C2.628 25.0971 2.663 25.5461 2.603 25.9881C2.527 25.6851 2.497 25.4531 2.52 25.3011L2.502 24.6701H2.503ZM12.186 23.7501C11.93 24.5321 11.386 25.0351 10.543 25.2561L10.653 25.1261L11.009 24.8571L11.253 24.5951L11.374 24.5371C11.6852 24.3205 11.9594 24.0551 12.186 23.7511V23.7501ZM13.25 23.4351C13.28 23.6491 13.288 23.8651 13.276 24.0821C12.335 25.6891 10.836 26.6221 8.78 26.8791L8.973 26.8061L9.201 26.5441L9.338 26.6181C9.49 26.5131 9.654 26.4251 9.826 26.3581L10.496 25.9721L10.69 25.9031L11.168 25.5701L11.603 25.3831C11.753 25.2731 11.917 25.1871 12.091 25.1251L12.386 24.8571C12.506 24.6151 12.716 24.4291 12.97 24.3351C13.144 24.0661 13.24 23.7551 13.25 23.4351V23.4351ZM3.375 23.5621L3.405 23.8241C3.444 24.1041 3.459 24.3871 3.449 24.6691L3.539 24.9261C3.53405 25.2527 3.5531 25.5793 3.596 25.9031C3.624 26.5491 3.666 27.0931 3.719 27.5231C3.69015 27.5844 3.6487 27.639 3.59736 27.6833C3.54602 27.7276 3.48593 27.7606 3.421 27.7801L3.331 27.5231L3.359 27.2631L3.254 24.7251C3.254 24.5751 3.28 24.4251 3.329 24.2821C3.24721 23.939 3.22925 23.5837 3.276 23.2341L3.375 23.5621V23.5621ZM1.768 22.1291C1.859 22.2681 1.922 22.4241 1.951 22.5891L1.995 22.9771C2.08 23.2711 2.117 23.5771 2.105 23.8831C2.205 24.3431 2.272 24.8091 2.305 25.2781C2.329 25.6151 2.315 25.9551 2.265 26.2901L2.177 26.0321C2.059 25.4691 2.011 25.0771 2.036 24.8581L1.879 23.5621L1.915 23.3621L1.755 22.5151L1.768 22.1291V22.1291ZM13.145 20.3811C13.505 20.8551 13.762 21.3131 13.896 21.7411C13.534 21.2611 13.284 20.8131 13.146 20.3811H13.145ZM4.929 20.2491L4.933 20.7671L4.91 21.1541L4.88 22.0031C4.66 21.3011 4.615 20.6931 4.733 20.1811L4.929 20.2491V20.2491ZM4.289 20.3061L4.352 20.8261L4.442 21.0961L4.422 21.4121L4.452 21.6671C4.52 21.9011 4.549 22.1441 4.537 22.3871C4.694 22.9491 4.754 23.4511 4.717 23.8831L4.831 24.3361L4.818 24.7251L4.872 25.1831C5.039 25.8361 5.062 26.3991 4.948 26.8801C4.77215 26.8735 4.59644 26.8962 4.428 26.9471C4.268 26.6831 4.208 26.3351 4.242 25.9041L4.139 25.6441C4.187 25.3391 4.194 25.0301 4.161 24.7241L4.031 22.4601L4.046 22.0701L4.059 21.6131C3.98981 21.1379 3.9942 20.6549 4.072 20.1811L4.29 20.3061H4.289ZM2.782 20.1811L2.474 20.3811L2.453 20.7671C2.30769 21.2306 2.25768 21.7187 2.306 22.2021L2.163 22.0701L2.026 21.5401L1.82 20.3061L2.055 20.1211L2.782 20.1811V20.1811ZM7.389 20.1811C7.98 20.4011 8.196 20.3551 8.038 20.0471C7.81625 20.0061 7.59147 19.9837 7.366 19.9801L7.389 20.1811V20.1811ZM6.314 19.3331C6.502 19.4131 6.709 19.4351 6.91 19.4001L7.054 19.5321C7.542 19.6691 8.02 19.8411 8.483 20.0471C8.635 20.2171 8.658 20.3951 8.545 20.5661C8.775 20.6261 8.99 20.7391 9.172 20.8941L9.742 21.2271L9.897 21.4121C10.069 21.5851 10.259 21.7391 10.465 21.8701C10.669 22.0091 10.847 22.1841 10.988 22.3871C11.228 22.4541 11.443 22.5891 11.608 22.7761C11.456 23.2561 11.263 23.6211 11.036 23.8831L10.901 23.9521L10.204 24.5951L9.234 25.1251L9.039 25.1831C8.74096 25.41 8.40747 25.586 8.052 25.7041C7.685 25.8151 7.332 25.9671 7 26.1571C6.59837 26.3183 6.17862 26.4302 5.75 26.4901L5.707 25.6441L5.414 22.1291L5.473 22.0031L5.317 20.2491C5.93979 20.0298 6.6108 19.9855 7.257 20.1211C6.83942 19.8295 6.34424 19.6693 5.835 19.6611C5.705 19.6131 5.653 19.5491 5.682 19.4591C5.9 19.4681 6.117 19.4241 6.314 19.3331V19.3331ZM2.558 20.8261C2.438 20.7861 2.413 20.7291 2.477 20.6491L2.558 20.8261ZM2.18 19.5901C1.853 19.7221 1.693 19.6161 1.696 19.2731L2.18 19.5901ZM9.268 18.9441C11.803 19.8111 12.877 20.9821 12.488 22.4591L12.35 22.3861C11.59 21.4761 10.755 20.8291 9.833 20.4321C9.08 19.8701 8.386 19.5021 7.751 19.3321C8.359 19.2911 8.864 19.1631 9.268 18.9441V18.9441ZM1.972 18.3581C2.248 18.5541 2.553 18.7071 2.875 18.8121L2.77 19.0001C2.315 18.8761 1.956 18.9441 1.688 19.2001C1.613 18.9441 1.695 18.7741 1.943 18.6851L1.973 18.3581H1.972ZM8.366 17.8961C9.466 18.0191 10.528 18.3761 11.477 18.9441L11.23 19.0001L11.082 18.8711L10.012 18.6851L9.876 18.6111L8.393 18.1001L8.367 17.8971L8.366 17.8961ZM7.253 17.9701L8.281 18.3581C7.934 18.4857 7.56771 18.553 7.198 18.5571H6.81C6.574 18.5971 6.334 18.6161 6.095 18.6111C5.71004 18.6624 5.31996 18.6624 4.935 18.6111L4.838 18.8711C4.134 18.4411 4.203 18.1411 5.044 17.9711H6.152C6.476 17.9741 6.799 17.9301 7.109 17.8381L7.253 17.9701V17.9701ZM43.65 36.9221C43.849 36.9911 44.056 37.0341 44.267 37.0501L44.237 37.3801L44.679 37.7231C45.134 38.1661 45.432 38.4281 45.579 38.5111H45.376L44.803 38.1861L44.661 38.0541L43.343 37.1241L43.65 36.9221V36.9221ZM45.507 36.2451C46.152 36.4271 46.736 36.4741 47.26 36.3871L48.171 36.7941C48.98 36.9171 49.644 37.1121 50.163 37.3801L50.043 37.4501L49.834 37.3801C49.5082 37.315 49.1869 37.2292 48.872 37.1231C48.522 37.1331 48.176 37.0651 47.857 36.9221C47.44 36.9699 47.0177 36.9347 46.6143 36.8185C46.211 36.7023 45.8346 36.5074 45.507 36.2451V36.2451ZM39.056 25.8001C40.28 29.7031 42.324 32.8561 45.19 35.2591C45.012 35.2951 44.83 35.2951 44.652 35.2591C43.988 35.2591 43.512 35.2131 43.234 35.1291L43.096 35.0561L42.654 34.7271L41.67 33.7251C39.975 31.0671 39.103 28.4251 39.055 25.8001H39.056ZM38.198 24.1411C38.25 24.2731 38.263 24.3631 38.228 24.4111L38.142 24.8711L37.95 26.0001C37.967 26.1381 37.95 26.2211 37.908 26.2621L38.004 27.0631L37.976 27.3381L37.972 27.8681C38.048 28.4191 38.071 28.9781 38.039 29.5331C37.067 27.3131 37.12 25.5161 38.199 24.1401L38.198 24.1411ZM37.708 23.4071L37.581 23.5371L37.37 23.9411L37.255 24.0681L37.029 24.4701L36.947 24.3431C37.216 23.9841 37.405 23.6791 37.505 23.4081L37.852 22.9311L37.708 23.4071ZM42.955 19.9511C43.024 20.1711 42.648 20.3461 41.821 20.4791C42.1586 20.2269 42.5447 20.0472 42.955 19.9511ZM43.755 18.8741C44.085 18.7921 44.432 18.7921 44.762 18.8741L44.508 19.0741C44.0831 19.1079 43.6693 19.2266 43.291 19.4231C42.464 19.5451 41.805 19.8091 41.317 20.2091L40.977 20.1501L39.657 20.8861L39.625 20.6131C40.6 19.4551 41.798 18.8531 43.219 18.8191L43.755 18.8741V18.8741ZM53.67 18.8191C53.313 19.1241 53.16 19.0971 53.205 18.7461L53.67 18.8191ZM47.2 17.5561C47.337 17.5561 47.42 17.5331 47.451 17.4821C47.963 17.5681 48.482 17.5921 49 17.5561C49.24 17.6341 49.492 17.6781 49.746 17.6851C49.904 17.6951 50.062 17.7191 50.216 17.7571L50.692 17.8171L52.191 18.0871C51.684 18.3071 51.201 18.3751 50.748 18.2871C49.844 18.5451 49.013 18.4761 48.26 18.0871C47.8615 18.0355 47.4581 18.0331 47.059 18.0801C46.786 18.1101 46.523 18.2001 46.289 18.3441L44.975 18.4861C41.913 18.0861 39.859 19.0831 38.814 21.4731C38.551 21.6726 38.3085 21.8977 38.09 22.1451C37.777 22.3951 37.496 22.6841 37.256 23.0051C37.2304 22.8304 37.2337 22.6527 37.266 22.4791C39.167 19.0591 41.965 17.3941 45.658 17.4821L47.199 17.5561H47.2ZM46.875 17.0801C41.162 16.8601 37.725 19.1481 36.565 23.9421C35.671 26.0711 35.53 28.2021 36.136 30.3221L36.606 30.6111L36.246 30.7231C36.784 32.2851 37.66 33.4861 38.873 34.3271C39.069 34.8601 39.622 35.3481 40.527 35.7851C40.699 35.7851 40.797 35.6971 40.823 35.5171C40.523 35.2591 40.223 35.1491 39.905 35.1851C39.7463 34.7449 39.4737 34.3546 39.115 34.0541C38.485 33.6111 38.562 33.5041 39.344 33.7251L39.394 33.6521C37.744 32.1051 36.743 30.4221 36.393 28.6021L36.633 28.9301C36.703 29.2381 36.83 29.5301 37.007 29.7921C37.465 30.6451 37.94 31.2901 38.434 31.7261L38.517 31.8581C38.825 32.5631 39.157 33.1431 39.514 33.5911L39.384 34.0541C39.4603 34.1151 39.5487 34.1593 39.6433 34.1838C39.7379 34.2083 39.8367 34.2125 39.933 34.1961L40.077 34.3261L41.164 35.5861C41.0845 35.648 41.0231 35.7301 40.9861 35.8239C40.9492 35.9176 40.9381 36.0196 40.954 36.1191L42.08 36.5191L42.306 36.7221C44.249 38.5871 46.33 39.8731 48.551 40.5791L48.697 40.1211L48.551 39.9771C48.366 39.9371 48.127 39.8061 47.828 39.5771C47.5404 39.4711 47.2741 39.3143 47.042 39.1141C46.895 39.0321 46.677 38.8511 46.391 38.5871L46.011 38.3131L44.903 37.3221C44.9954 37.3126 45.0884 37.3333 45.168 37.3811H45.37C45.564 37.4541 45.752 37.5441 45.93 37.6511L46.84 37.9121C47.174 37.9521 47.501 38.0451 47.808 38.1871L48.658 38.1141L48.784 38.0541C49.409 38.0921 49.916 38.0671 50.309 37.9841L50.366 37.8521L50.319 37.4521C50.449 37.2311 50.509 36.9771 50.493 36.7221C49.993 36.7281 49.5 36.6141 49.054 36.3891C49.975 36.2971 50.535 35.9811 50.741 35.4591C50.4345 35.3401 50.1105 35.2726 49.782 35.2591L46.738 35.3851C46.4967 35.3073 46.2454 35.2649 45.992 35.2591C42.596 32.5491 40.416 29.3751 39.452 25.7341C39.4157 25.4724 39.4036 25.208 39.416 24.9441C40.627 22.4571 42.466 20.8601 44.916 20.1511L45.182 20.2091H47.118C47.434 20.2071 47.748 20.2301 48.061 20.2791C48.425 20.2741 48.788 20.3191 49.141 20.4101L49.259 20.3371C49.5874 20.4658 49.9363 20.5345 50.289 20.5401L50.499 20.6131C50.7837 20.6975 51.079 20.7406 51.376 20.7411C51.986 20.8461 52.586 21.0041 53.168 21.2151L53.361 21.1391C53.608 21.2691 53.89 21.3151 54.165 21.2721C54.525 20.9161 54.474 20.6081 53.998 20.3371C53.9582 20.3998 53.9414 20.4743 53.9505 20.5481C53.9596 20.6218 53.9941 20.69 54.048 20.7411L53.864 20.8861H53.53L53.243 20.7411H52.91L52.149 20.4791H51.747L50.659 20.2791C50.353 20.2 50.0353 20.1763 49.721 20.2091L49.381 20.1511L48.962 20.0101L47.138 19.8771L47.596 19.7511L47.804 19.8091H49.8C50.44 19.8391 51.076 19.9291 51.699 20.0771C51.84 19.9211 51.955 19.7431 52.039 19.5501C52.6571 19.4601 53.2849 19.4601 53.903 19.5501C54.725 19.3671 55.26 19.0341 55.503 18.5451L55.281 18.3441L55.019 18.2871C54.6629 18.1857 54.2979 18.1187 53.929 18.0871L53.648 18.0171L53.379 17.9451H53.109C51.667 17.4551 50.381 17.2581 49.232 17.3551L48.478 17.1541L46.875 17.0801V17.0801ZM5.183 17.4521C4.106 17.8841 3.059 18.0321 2.049 17.8971L2.077 17.6371C1.722 17.8971 1.38 17.9221 1.052 17.7111C0.872 18.0541 0.524 18.2061 0 18.1711C0.164 18.5151 0.49 18.7071 0.975 18.7441L0.945 19.0001L1.001 19.4581C0.991 20.0051 1.014 20.5511 1.07 21.0951L1.1 21.3551L1.08 21.8011L1.167 22.5141L1.132 22.7151L1.342 24.4681C1.287 24.7931 1.304 25.1251 1.391 25.4421C1.371 25.7041 1.366 26.0241 1.373 26.4171L1.368 28.0531L1.363 28.4981L1.518 29.8081L1.498 30.1921C1.471 30.6271 1.478 31.0631 1.52 31.4971L1.507 31.8281L1.553 32.2141L1.51 32.4711C1.526 32.6501 1.572 32.8241 1.646 32.9881C1.55433 33.3056 1.54881 33.6417 1.63 33.9621C1.62 34.3121 1.64 34.6621 1.689 35.0101C1.683 35.2951 1.716 35.5801 1.789 35.8571L1.762 36.1171L1.795 37.0171L1.935 38.1931C2.088 39.8401 2.356 40.4441 2.743 40.0151C2.865 39.9701 2.891 39.8401 2.828 39.6271C2.985 39.1041 3.013 38.6231 2.915 38.1931L3.131 37.8651C3.19 38.3451 3.251 38.6691 3.322 38.8391L3.263 38.9721L3.564 40.8621H3.751C3.887 40.6611 3.991 40.4401 4.061 40.2071L3.996 39.6871L4.054 38.9721C4.11576 38.6493 4.13859 38.3203 4.122 37.9921L4.252 36.8911L4.263 36.3741L4.335 35.9161C4.473 35.9991 4.533 36.1961 4.537 36.5051L4.87 39.3001C4.88 39.8051 4.96 40.3071 5.106 40.7911C5.299 40.5711 5.426 40.3011 5.473 40.0131C5.47917 40.1085 5.51131 40.2004 5.56595 40.2788C5.62059 40.3572 5.69565 40.4192 5.783 40.4581C5.803 40.1061 5.872 39.7581 5.99 39.4261L5.965 39.2261L5.954 38.5091L5.931 38.3241L5.962 37.0161L5.935 36.1701L5.902 35.4561C5.826 35.1561 5.825 34.7701 5.895 34.2891L5.821 34.1611C5.889 33.7731 5.904 33.3771 5.867 32.9851L5.893 32.6011C5.874 32.2311 5.893 31.8611 5.947 31.4941L5.859 31.2331C5.954 30.9611 5.962 30.6671 5.883 30.3911C5.925 30.0431 5.927 29.6911 5.89 29.3431L6.202 29.2101L7.149 28.9571C11.49 29.0001 14.047 27.1581 14.819 23.4331L14.445 21.4101C12.353 18.3801 9.724 17.0801 6.556 17.5081L5.183 17.4501V17.4521ZM18.52 39.5531C17.235 35.6701 17.154 25.7691 17.334 20.4861C17.374 19.2941 17.429 18.3361 17.486 17.7361C17.625 16.2631 17.833 15.9491 18.083 17.1101C18.118 17.2751 18.149 17.6601 18.175 18.2921L18.558 28.3021C18.605 29.5061 18.89 32.9221 19.128 35.6171L19.142 35.3181C18.839 32.6161 18.99 29.5451 19.134 26.6991C19.188 25.5891 19.242 24.5151 19.265 23.5011C19.1096 22.1994 19.0281 20.89 19.021 19.5791C19.021 18.6851 19.124 18.3341 19.285 18.3341V18.3331C19.3016 18.3352 19.3175 18.3412 19.3314 18.3505C19.3453 18.3599 19.3568 18.3724 19.365 18.3871C19.378 18.2691 19.393 18.1531 19.409 18.0351C19.431 17.8881 19.506 17.8251 19.658 17.8451C19.713 17.8521 19.761 17.9291 19.798 18.0581C19.8037 18.0556 19.81 18.0548 19.8162 18.0558C19.8223 18.0569 19.8281 18.0597 19.8326 18.064C19.8372 18.0682 19.8404 18.0737 19.8419 18.0798C19.8434 18.0858 19.8431 18.0922 19.841 18.0981L19.828 18.1741C19.902 18.4851 19.948 18.9851 20 19.5361C20.074 20.3161 20.157 21.2161 20.226 21.7651H20.224L20.226 21.7751H20.227C20.514 24.1371 20.551 26.6091 20.512 29.0861C20.591 29.5981 20.662 30.1031 20.732 30.6131L20.752 30.3761C20.838 29.3631 20.927 28.3511 21 27.3331C20.898 25.2961 20.818 23.2571 20.818 21.2191V21.2091C20.818 20.5351 20.925 18.9541 21.028 18.1221C21.045 17.9531 21.073 17.7861 21.111 17.6201C21.309 16.9271 21.478 16.8661 21.599 17.6761C21.634 18.0761 21.647 18.4791 21.639 18.8811V22.4911C21.639 24.1221 21.553 25.7381 21.437 27.3451L21.483 28.2391C21.612 27.3871 21.738 26.5341 21.851 25.6821C21.876 24.3061 21.974 21.4581 22.066 19.8221C22.092 19.3341 22.118 18.9501 22.142 18.7451C22.157 18.6031 22.173 18.4711 22.19 18.3501C22.193 18.2101 22.214 18.0701 22.252 17.9341C22.396 17.0761 22.527 17.2461 22.633 18.7391C22.651 19.0101 22.665 19.6361 22.665 20.7471C22.665 22.3541 22.505 24.0271 22.287 25.7131C22.282 25.9181 22.28 26.0881 22.28 26.2151C22.28 27.9321 21.982 29.6131 21.652 31.2921L21.704 32.3091C22.259 31.3311 22.784 30.2891 23.303 29.2591C24.106 27.6671 24.895 26.1021 25.778 24.8131C25.864 24.5151 25.949 24.1951 26.034 23.8691C26.447 22.3241 26.91 20.5891 27.943 19.6531C28.964 18.7241 29.545 18.3321 29.803 18.3171C29.8059 18.1669 29.836 18.0185 29.892 17.8791C30.032 17.6091 30.202 17.6171 30.39 17.8361V17.8341C30.48 17.9581 30.553 18.0941 30.604 18.2401C30.728 18.5691 30.83 18.9061 30.908 19.2481C31.03 19.0861 31.131 18.9541 31.2 18.8711L31.201 18.8691C31.236 18.8261 31.268 18.7901 31.299 18.7511C31.389 18.5311 31.496 18.4511 31.578 18.4571C31.753 18.2991 31.835 18.3131 31.804 18.5241C31.8823 18.4542 31.9806 18.4108 32.085 18.4001C32.211 18.0661 32.331 17.8731 32.429 17.8731C32.587 17.8731 32.7 18.0631 32.758 18.5001C32.93 18.4281 33.026 18.4471 33.058 18.5311H33.18L33.178 19.3501C33.24 19.4631 33.301 19.5841 33.357 19.7111C33.792 20.6891 33.962 21.9911 33.236 22.6491C33.196 22.6891 33.157 22.7231 33.116 22.7621C33.036 25.6541 32.879 28.5231 32.696 31.3861C32.6592 32.9639 32.6065 34.5413 32.538 36.1181C32.481 37.4011 32.403 38.1181 32.319 38.4201C32.2962 38.5183 32.2555 38.6116 32.199 38.6951L32.152 39.3831C32.1512 39.4292 32.1441 39.4749 32.131 39.5191C31.956 40.0171 31.828 40.0551 31.74 39.7211C31.687 39.6881 31.66 39.6101 31.694 39.4711C31.6859 39.4239 31.6789 39.3766 31.673 39.3291C31.658 39.2111 31.645 39.0291 31.628 38.8191C31.5794 38.1566 31.5394 37.4936 31.508 36.8301C31.496 36.6301 31.484 36.4181 31.476 36.2011L31.475 36.1781V36.1701C31.469 36.0335 31.4646 35.8968 31.462 35.7601H31.46C31.46 35.3851 31.455 35.0061 31.449 34.6301C31.283 36.1361 31.023 37.9831 30.753 39.2231C30.637 39.7531 30.521 40.1831 30.399 40.4361C30.173 40.9231 29.933 41.0141 29.694 40.5561C29.637 40.4291 29.594 40.2961 29.566 40.1591C29.5494 40.205 29.5223 40.2464 29.487 40.2801C29.484 40.7351 29.432 41.0101 29.363 41.1221C29.278 41.6351 29.201 41.5951 29.126 40.8931C29.0777 40.6677 29.0552 40.4375 29.059 40.2071C29.0316 40.1664 29.0088 40.1228 28.991 40.0771H28.993C28.9305 39.9148 28.8817 39.7475 28.847 39.5771C28.646 38.6841 28.469 37.0971 28.512 36.6691C28.609 35.7361 28.744 34.7851 28.902 33.8321L28.832 32.3511C28.772 31.0431 28.71 29.7371 28.672 28.4271C28.44 28.7791 28.212 29.1341 27.982 29.4871C26.145 32.3221 24.296 35.1711 21.882 37.1191C21.89 37.5971 21.894 38.0761 21.893 38.5541C21.893 39.2141 21.783 39.7051 21.603 39.9801C21.5605 40.0532 21.5035 40.117 21.4356 40.1675C21.3677 40.2181 21.2903 40.2543 21.208 40.2741C21.1234 40.288 21.0368 40.2838 20.9539 40.2619C20.8711 40.2401 20.7937 40.2009 20.727 40.1471C20.47 39.9571 20.192 39.5401 19.933 38.8651H19.935L19.933 38.8611C19.751 38.3791 19.603 37.8841 19.489 37.3811C19.4682 38.0042 19.4582 38.6276 19.459 39.2511V39.2801L19.452 39.3071C19.312 39.8641 19.183 39.9341 19.083 39.5301C19.005 39.5761 18.957 39.5051 19.021 39.2301L19.023 39.1931C19.0045 39.0634 18.9885 38.9334 18.975 38.8031C18.948 38.4981 18.907 38.0631 18.861 37.5371C18.617 34.8471 18.183 29.8351 18.124 28.3171L17.795 19.7681C17.785 19.9981 17.777 20.2461 17.767 20.5011C17.589 25.7521 17.669 35.5881 18.934 39.4171L18.52 39.5531V39.5531Z" fill="white"/>
</g>
<defs>
<clipPath id="clip0">
<rect width="121" height="54" fill="white"/>
</clipPath>
</defs>
</svg>
