<svg xmlns="http://www.w3.org/2000/svg" width="120" height="54" fill="none" viewBox="0 0 120 54">
  <g fill="#151515">
    <path d="M35.063 17.497v.812h6.874c.459 0 1.146 0 1.605.464.458.465.458 1.16.458 1.625v6.96c0 .465 0 1.16-.458 1.625-.459.464-1.146.464-1.605.464h-3.322c-.573 0-1.318 0-1.604-.638-.287-.638.114-1.218.458-1.682l4.469-6.033h-6.876l-2.75 3.712c-.46.622-.859 1.16-.859 1.856 0 .696.371 1.198.86 1.857l.687.928c.687.928 1.375 1.856 2.292 2.32.916.464 2.005.464 3.494.464h2.98c1.718 0 4.297 0 6.015-1.74 1.72-1.74 1.72-4.293 1.72-5.22v-2.785c0-.928 0-3.48-1.72-5.22-1.718-1.741-4.297-1.739-6.015-1.74l-4.756-.001c-.458 0-1.03 0-1.49.464-.458.464-.458 1.044-.458 1.508z"/>
    <path d="M26.813 21.094h6.875l-8.25 11.137h-6.875zM0 23.066c0-.464 0-1.044.458-1.508.459-.464 1.032-.464 1.49-.464h11.516c1.49 0 2.578 0 3.494.464.917.464 1.605 1.392 2.292 2.32l.688.928c.488.66.859 1.16.859 1.856 0 .696-.399 1.235-.86 1.857l-2.75 3.712h-6.875l4.47-6.033c.343-.464.744-1.044.458-1.682-.287-.638-1.032-.638-1.605-.638H8.25V37.8h-5.5V23.878H0z"/>
  </g>
</svg>
