<svg width="121" height="54" viewBox="0 0 121 54" fill="none" xmlns="http://www.w3.org/2000/svg">
<g clip-path="url(#clip0)">
<path d="M10.788 16.0798C16.721 16.0418 21.581 21.0288 21.603 27.1948C21.625 33.0818 16.761 38.2328 10.776 38.1898C4.832 38.1458 0.00400245 33.2298 2.45275e-06 27.1638C-0.00399755 21.0638 4.885 16.0398 10.788 16.0798V16.0798ZM2.99 33.0308C3.737 33.4008 4.79 33.5288 6.355 33.4708C7.35996 33.4424 8.33258 33.1094 9.144 32.5158C11.11 31.0848 11.17 28.7758 9.447 27.3958C8.651 26.7588 7.797 26.1958 6.979 25.5878C6.79346 25.4537 6.65149 25.2679 6.57076 25.0536C6.49003 24.8393 6.47412 24.6061 6.525 24.3828C6.55115 24.1842 6.63814 23.9986 6.77405 23.8514C6.90995 23.7042 7.08809 23.6027 7.284 23.5608C7.623 23.4588 7.971 23.3908 8.323 23.3578C9.016 23.3228 9.713 23.3578 10.406 23.3238C10.5027 23.3169 10.5966 23.2884 10.6809 23.2405C10.7651 23.1926 10.8376 23.1264 10.893 23.0468C11.136 22.5268 11.317 21.9768 11.578 21.2898C9.965 21.3988 8.411 21.3298 6.934 21.6428C4.911 22.0718 3.754 23.7668 4.274 25.8238C4.534 26.8578 5.339 27.4168 6.134 27.9738C6.72 28.3848 7.336 28.7598 7.89 29.2128C8.56 29.7628 8.501 30.6228 7.846 31.1758C7.341 31.6008 6.736 31.5428 6.17 31.5658C5.39 31.5958 4.607 31.4918 3.824 31.4758C3.74605 31.4793 3.67003 31.5012 3.60222 31.5398C3.53441 31.5784 3.47675 31.6325 3.434 31.6978C3.258 32.1308 3.134 32.5868 2.991 33.0308H2.99ZM15.338 23.3288L12.373 31.0548C12.96 31.0548 13.429 31.0028 13.883 31.0678C14.444 31.1478 14.66 30.8618 14.84 30.3888C15.918 27.5598 17.008 24.7358 18.11 21.9158C18.265 21.5158 18.158 21.3778 17.761 21.3788C16.177 21.3838 14.591 21.3778 13.007 21.3858C12.881 21.3858 12.677 21.4278 12.641 21.5088C12.391 22.0838 12.176 22.6748 11.923 23.3288H15.338V23.3288ZM25.838 21.4768C27.545 21.4768 29.203 21.3868 30.848 21.5028C32.415 21.6128 33.395 23.0488 33.333 24.6898C33.255 26.7718 31.641 27.6748 30.227 27.6348C29.447 27.6128 28.667 27.6298 27.829 27.6298V31.0208H25.838V21.4768V21.4768ZM27.846 25.9798C28.667 25.9798 29.465 26.0248 30.256 25.9668C30.886 25.9198 31.317 25.3198 31.34 24.6198C31.364 23.8808 30.978 23.2338 30.323 23.1688C29.505 23.0868 28.673 23.1488 27.846 23.1488V25.9798V25.9798ZM48.281 27.6058C48.243 29.8468 46.776 31.3028 44.575 31.2518C42.618 31.2058 41.094 29.6488 41.178 27.3218C41.23 25.3518 42.819 23.7898 44.744 23.8168C46.841 23.8318 48.318 25.4148 48.281 27.6068V27.6058ZM46.43 27.5308C46.43 27.3838 46.44 27.2368 46.428 27.0908C46.343 26.0458 45.683 25.2938 44.803 25.2348C43.994 25.1788 43.352 25.7718 43.094 26.7978C42.9107 27.5097 42.9887 28.2637 43.314 28.9228C43.476 29.2856 43.7722 29.5715 44.1404 29.7206C44.5086 29.8698 44.9202 29.8706 45.289 29.7228C46.09 29.4048 46.435 28.7458 46.429 27.5308H46.43ZM67 24.0098C66.612 25.1948 66.26 26.2798 65.903 27.3618C65.462 28.7038 65.045 30.0538 64.565 31.3818C63.967 33.0348 63.166 33.4418 61.149 33.1918V31.8458C61.4868 31.8212 61.8226 31.7738 62.154 31.7038C62.699 31.5538 62.902 31.2368 62.747 30.6838C62.492 29.7778 62.185 28.8878 61.88 27.9978C61.652 27.3288 61.39 26.6728 61.148 26.0078C60.915 25.3648 60.69 24.7178 60.438 24.0108C61.026 24.0108 61.558 23.9818 62.083 24.0298C62.225 24.0428 62.416 24.2628 62.469 24.4268C62.887 25.7378 63.276 27.0588 63.677 28.3748C63.7097 28.4451 63.7506 28.5113 63.799 28.5718C64.219 27.1648 64.644 25.7918 65.029 24.4048C65.117 24.0898 65.241 23.9918 65.539 24.0048C65.999 24.0248 66.462 24.0098 67 24.0098V24.0098ZM57.02 25.2748L56.106 25.2258V24.0298L57.012 23.9868V21.8398H58.785V23.9938H59.902V25.1868C59.812 25.2138 59.719 25.2328 59.626 25.2428C58.806 25.2778 58.806 25.2758 58.806 26.1008C58.806 26.9788 58.803 27.8578 58.806 28.7348C58.81 29.5648 58.874 29.6248 59.696 29.6448C59.781 29.6468 59.866 29.6588 59.983 29.6668V31.0268C59.396 31.0268 58.808 31.0868 58.236 31.0118C57.519 30.9178 57.029 30.2638 57.024 29.5018C57.013 28.1128 57.021 26.7248 57.021 25.2758L57.02 25.2748ZM35.838 24.0558V25.1188C36.355 24.2018 36.997 23.7928 37.946 24.0288V25.6268C37.806 25.6328 37.686 25.6398 37.568 25.6438C36.634 25.6698 36.038 26.1528 35.955 27.1038C35.868 28.1018 35.892 29.1098 35.871 30.1138C35.865 30.4028 35.871 30.6918 35.871 31.0168H34.106V24.0558H35.838V24.0558ZM50.816 31.0258H49.038V24.0508H50.705L50.763 25.1528C51.306 24.2318 51.93 23.7518 52.906 24.0438V25.6038C52.6041 25.6097 52.3031 25.6398 52.006 25.6938C51.292 25.8808 50.83 26.6118 50.819 27.5608C50.806 28.7068 50.816 29.8518 50.816 31.0248V31.0258ZM38.653 24.0358H40.433V31.0198H38.653V24.0368V24.0358ZM55.371 31.0298H53.627V24.0418H55.371V31.0298ZM55.384 23.0268H53.624V21.4068H55.384V23.0268ZM38.657 21.3948H40.429V23.0148H38.657V21.3948Z" fill="white"/>
</g>
<defs>
<clipPath id="clip0">
<rect width="121" height="54" fill="white"/>
</clipPath>
</defs>
</svg>
