<svg width="120" height="54" viewBox="0 0 120 54" xmlns="http://www.w3.org/2000/svg">
    <g fill="none" fill-rule="evenodd">
        <path
            d="M16.541 31.66c-.725 0-1.523-.143-2.176-.501-.653-.359-1.161-.861-1.451-1.435a4.528 4.528 0 0 1 0-4.304c.362-.646.87-1.148 1.45-1.435.654-.359 1.38-.574 2.177-.502 1.234 0 2.394.502 3.192 1.434 0 0 .073.072.145.072.073 0 .073 0 .146-.072l1.668-1.578c.073-.072.073-.143 0-.215-.653-.79-1.378-1.363-2.176-1.65a7.497 7.497 0 0 0-3.047-.646c-1.234 0-2.54.287-3.628.861-1.016.574-1.959 1.363-2.539 2.368-.653 1.076-.943 2.223-.943 3.443 0 1.22.29 2.367.943 3.443a6.173 6.173 0 0 0 2.54 2.368c1.087.574 2.393.86 3.627.86a8.516 8.516 0 0 0 3.047-.573 5.342 5.342 0 0 0 1.959-1.363c.072-.072.072-.144 0-.215l-1.524-1.722c0-.072-.073-.072-.145-.072-.073 0-.073 0-.145.072-.726.86-1.886 1.363-3.12 1.363z"
            fill="#151515" />
        <path
            d="M35.549 32.307c-1.306 1.004-2.902 1.506-4.57 1.506v2.51c0 .073-.073.144-.146.144H28.73c-.072 0-.145-.071-.145-.143v-2.511c-1.668 0-3.192-.574-4.57-1.506-1.089-.933-1.669-2.296-1.596-3.66-.073-1.362.507-2.725 1.596-3.586 1.306-.933 2.902-1.435 4.57-1.507v-2.726c0-.071.073-.143.145-.143h2.104c.073 0 .145.072.145.143v2.726c1.597 0 3.193.574 4.498 1.507 1.016.86 1.597 2.224 1.524 3.587.218 1.363-.363 2.726-1.451 3.659zm-9.504-1.65c.726.573 1.596.86 2.54.932V25.85c-.871 0-1.814.359-2.54.86a2.756 2.756 0 0 0-.798 1.938c0 .717.29 1.506.798 2.009zm7.545 0a3.106 3.106 0 0 0 .798-2.08c.073-.718-.217-1.436-.798-1.938-.725-.502-1.596-.789-2.539-.86v5.738c.943 0 1.814-.287 2.54-.86zM48.97 29.509h-7.617c.145.574.435 1.148.943 1.506.58.359 1.233.574 1.886.574a5.08 5.08 0 0 0 1.451-.215c.363-.144.653-.359.943-.646 0 0 .073-.071.146-.071.072 0 .072 0 .145.071l1.306 1.435c.072.072.072.144 0 .215a5.27 5.27 0 0 1-3.99 1.507c-1.016 0-2.105-.215-2.975-.646-.87-.43-1.524-1.076-2.032-1.865-.507-.79-.725-1.722-.725-2.726 0-.933.218-1.865.725-2.655a4.459 4.459 0 0 1 1.96-1.865c1.668-.86 3.7-.86 5.368 0 .798.43 1.45 1.005 1.886 1.794.508.86.726 1.793.726 2.798-.073 0-.145.287-.145.789zm-6.819-3.3c-.435.43-.726.932-.798 1.578h5.006c-.073-.574-.363-1.148-.798-1.507a2.605 2.605 0 0 0-1.669-.573 2.396 2.396 0 0 0-1.741.502zM58.982 24.2c.726.43 1.379 1.004 1.814 1.793.435.79.653 1.722.653 2.655 0 .932-.218 1.865-.653 2.726a5.39 5.39 0 0 1-1.814 1.793 5.34 5.34 0 0 1-2.539.646 3.776 3.776 0 0 1-3.047-1.22v3.73c0 .073-.072.144-.145.144h-2.467c-.072 0-.145-.071-.145-.143V23.84c0-.071.073-.143.145-.143h2.322c.072 0 .145.072.145.143v1.005c.798-.861 1.959-1.363 3.12-1.292 1.015 0 1.886.216 2.611.646zm-1.16 6.457c.507-.574.725-1.292.725-2.01.073-.717-.218-1.434-.725-2.008a2.648 2.648 0 0 0-3.7 0c-.508.574-.726 1.291-.726 2.009-.072.717.218 1.435.726 2.009a2.648 2.648 0 0 0 3.7 0zM73.637 23.841v9.542c0 .071-.072.143-.145.143h-2.321c-.073 0-.146-.072-.146-.143v-1.005c-.798.861-1.958 1.363-3.12 1.292-.87 0-1.813-.216-2.538-.646-.726-.43-1.379-1.004-1.814-1.794a5.82 5.82 0 0 1-.653-2.726c0-.932.218-1.865.653-2.654a4.347 4.347 0 0 1 1.814-1.793 5.34 5.34 0 0 1 2.539-.646c1.16-.072 2.249.359 2.974 1.22v-.933c0-.072.073-.144.145-.144h2.395c.145.144.217.216.217.287zm-3.482 6.816c.508-.574.725-1.292.725-2.01.073-.717-.217-1.434-.725-2.008-.508-.502-1.16-.789-1.814-.717-.725 0-1.378.215-1.814.717-.507.574-.725 1.291-.725 2.009-.073.717.218 1.435.725 2.009.508.502 1.161.717 1.814.717s1.379-.215 1.814-.717z"
            fill="#151515" fill-rule="nonzero" />
        <path
            d="M24.667 20.254l-1.451 1.363s-.073.072-.145.072c-.073 0-.073 0-.146-.072-2.756-3.156-7.4-4.017-11.172-2.08-3.773 1.937-5.659 6.17-4.643 10.259 1.088 4.017 4.788 6.815 8.996 6.815.072 0 .145 0 .145.072 0 .502-.073 2.008-.073 2.008 0 .072-.072.144-.145.144-4.933.072-9.358-3.085-10.882-7.748A11.134 11.134 0 0 1 6.747 20.9c2.177-2.941 5.586-4.735 9.286-4.735 3.265 0 6.385 1.363 8.561 3.874.145.072.145.215.073.215z"
            fill="#B8B8B8" />
        <path
            d="M15.67 43.354C8.707 43.14 2.685 38.548.726 31.948c-1.958-6.6.653-13.702 6.385-17.576 2.612-1.794 5.804-2.726 8.996-2.655.072 0 .145.072.145.144v2.009c0 .071-.073.071-.073.071a13.2 13.2 0 0 0-7.69 2.224c-5.006 3.3-7.255 9.398-5.513 15.137 1.74 5.74 6.964 9.613 12.986 9.685h.145a14.08 14.08 0 0 0 6.747-1.722c.072-.072.218 0 .218.072l1.015 1.65v.143c0 .072-.072.072-.072.144-2.394 1.363-5.079 2.009-7.836 2.009l-.507.071z"
            fill="#151515" />
    </g>
</svg>