<svg width="121" height="54" viewBox="0 0 121 54" fill="none" xmlns="http://www.w3.org/2000/svg">
<path d="M12.9201 20.5642V34.1382H11.6751V20.5642H12.9211H12.9201ZM17.6201 32.9372H22.3941L22.0371 34.1322H16.3731V20.5642H17.6191V32.9372H17.6201ZM26.2101 28.3172L24.4531 34.1322H23.1531L27.2551 20.5642H29.8951L33.9941 34.1322H32.6941L30.9371 28.3172H26.2101ZM28.1951 21.7522L26.5651 27.1462H30.5821L28.9521 21.7522H28.1951ZM65.5951 21.7402V28.2042H70.9211L70.5631 29.3802H65.5941V32.9622H71.8441L71.8401 34.1392H64.3481V20.5642H71.8441L71.4861 21.7402H65.5941H65.5951ZM57.1551 32.8432L60.8651 20.5632H62.1651L58.0651 34.1312L56.2441 34.1322L52.1441 20.5642H53.4441L57.1541 32.8442L57.1551 32.8432ZM5.9801 25.6052C6.7144 25.8017 7.38238 26.192 7.9141 26.7352C8.71409 27.5555 9.16186 28.6559 9.16186 29.8017C9.16186 30.9475 8.71409 32.0479 7.9141 32.8682C6.5721 34.2352 5.2521 34.1382 3.4881 34.1382H0.663096V32.9102H3.9501C5.1501 32.9102 6.1151 32.9062 7.0321 31.9722C7.59814 31.3919 7.91497 30.6133 7.91497 29.8027C7.91497 28.992 7.59814 28.2135 7.0321 27.6332C6.54084 27.1304 5.88774 26.8173 5.1881 26.7492V29.2392H4.7961C4.0961 29.2392 3.5041 29.2182 2.8411 28.9662C2.26701 28.7474 1.74709 28.407 1.3171 27.9682C0.517102 27.1479 0.0693359 26.0475 0.0693359 24.9017C0.0693359 23.7559 0.517102 22.6555 1.3171 21.8352C1.77466 21.3681 2.33383 21.0129 2.9511 20.7972C3.5451 20.5902 4.1591 20.5652 4.7811 20.5652H8.0151V21.7922H5.7211C4.6431 21.7922 3.5941 21.7102 2.6561 22.3502C2.4911 22.4622 2.3381 22.5902 2.1991 22.7322C1.63305 23.3125 1.31622 24.091 1.31622 24.9017C1.31622 25.7123 1.63305 26.4909 2.1991 27.0712C2.6661 27.5492 3.2791 27.8562 3.9431 27.9442L3.9421 25.4662H4.4511C4.9831 25.4662 5.4611 25.4692 5.9801 25.6062V25.6052ZM94.7201 19.4302C95.6621 19.4402 96.4191 20.2102 96.4101 21.1502C96.4101 21.6042 96.2341 22.0402 95.9171 22.3652L95.2941 21.7302C95.4448 21.5752 95.5288 21.3673 95.5281 21.1512C95.5281 20.9366 95.4429 20.7308 95.2911 20.5791C95.1394 20.4274 94.9337 20.3422 94.7191 20.3422C94.5045 20.3422 94.2988 20.4274 94.147 20.5791C93.9953 20.7308 93.9101 20.9366 93.9101 21.1512C93.9101 21.3672 93.9941 21.5752 94.1451 21.7312L93.5221 22.3652C93.205 22.0408 93.0279 21.6048 93.0291 21.1512C93.0251 20.6989 93.2009 20.2635 93.5178 19.9408C93.8347 19.6181 94.2668 19.4344 94.7191 19.4302H94.7201ZM84.6521 28.3172L82.8951 34.1322H81.5951L85.6961 20.5642H88.3361L92.4361 34.1322H91.1361L89.3781 28.3172H84.6521V28.3172ZM86.6371 21.7522L85.0061 27.1462H89.0251L87.3941 21.7522H86.6371V21.7522ZM48.0941 25.6052C48.8284 25.8016 49.4964 26.1919 50.0281 26.7352C50.8281 27.5555 51.2759 28.6559 51.2759 29.8017C51.2759 30.9475 50.8281 32.0479 50.0281 32.8682C48.6861 34.2352 47.3671 34.1382 45.6021 34.1382H42.7771V32.9102H46.0651C47.2651 32.9102 48.2301 32.9062 49.1471 31.9722C49.7131 31.3919 50.03 30.6133 50.03 29.8027C50.03 28.992 49.7131 28.2135 49.1471 27.6332C48.6558 27.1304 48.0027 26.8174 47.3031 26.7492V29.2392H46.9111C46.2111 29.2392 45.6191 29.2182 44.9561 28.9662C44.382 28.7474 43.8621 28.4069 43.4321 27.9682C42.6321 27.1479 42.1843 26.0475 42.1843 24.9017C42.1843 23.7559 42.6321 22.6555 43.4321 21.8352C43.8897 21.3681 44.4488 21.0129 45.0661 20.7972C45.6601 20.5902 46.2741 20.5652 46.8961 20.5652H50.1301V21.7922H47.8351C46.7571 21.7922 45.7081 21.7102 44.7701 22.3502C44.6051 22.4622 44.4521 22.5902 44.3131 22.7322C43.7473 23.3126 43.4306 24.0911 43.4306 24.9017C43.4306 25.7123 43.7473 26.4908 44.3131 27.0712C44.7803 27.5492 45.3944 27.8567 46.0571 27.9442L46.0561 25.4662H46.5651C47.0971 25.4662 47.5751 25.4692 48.0941 25.6062V25.6052ZM77.8201 21.7452V34.1402H76.5741V21.7452H73.1001V20.5642H81.2941V21.7452H77.8201Z" fill="white"/>
</svg>
