<svg width="121" height="54" xmlns="http://www.w3.org/2000/svg"><path d="M12.92 20.564v13.574h-1.245V20.564h1.246zm4.7 12.373h4.774l-.357 1.195h-5.664V20.564h1.246v12.373zm8.59-4.62l-1.757 5.815h-1.3l4.102-13.568h2.64l4.099 13.568h-1.3l-1.757-5.815H26.21zm1.985-6.565l-1.63 5.394h4.017l-1.63-5.394h-.757zm37.4-.012v6.464h5.326l-.358 1.176h-4.969v3.582h6.25l-.004 1.177h-7.492V20.564h7.496l-.358 1.176h-5.892zm-8.44 11.103l3.71-12.28h1.3l-4.1 13.568-1.821.001-4.1-13.568h1.3l3.71 12.28zM5.98 25.605a4.24 4.24 0 0 1 1.934 1.13 4.392 4.392 0 0 1 0 6.133c-1.342 1.367-2.662 1.27-4.426 1.27H.663V32.91H3.95c1.2 0 2.165-.004 3.082-.938a3.107 3.107 0 0 0 0-4.339 2.982 2.982 0 0 0-1.844-.884v2.49h-.392c-.7 0-1.292-.021-1.955-.273a4.255 4.255 0 0 1-1.524-.998 4.392 4.392 0 0 1 0-6.133 4.25 4.25 0 0 1 1.634-1.038c.594-.207 1.208-.232 1.83-.232h3.234v1.227H5.721c-1.078 0-2.127-.082-3.065.558-.165.112-.318.24-.457.382a3.107 3.107 0 0 0 0 4.339c.467.478 1.08.785 1.744.873l-.001-2.478h.509c.532 0 1.01.003 1.529.14zm88.74-6.175c.942.01 1.699.78 1.69 1.72 0 .454-.176.89-.493 1.215l-.623-.635a.827.827 0 0 0 .234-.579.808.808 0 0 0-1.618 0c0 .216.084.424.235.58l-.623.634a1.73 1.73 0 0 1-.493-1.214 1.706 1.706 0 0 1 1.69-1.721zm-10.068 8.887l-1.757 5.815h-1.3l4.101-13.568h2.64l4.1 13.568h-1.3l-1.758-5.815h-4.726zm1.985-6.565l-1.631 5.394h4.019l-1.631-5.394h-.757zm-38.543 3.853a4.238 4.238 0 0 1 1.934 1.13 4.392 4.392 0 0 1 0 6.133c-1.342 1.367-2.661 1.27-4.426 1.27h-2.825V32.91h3.288c1.2 0 2.165-.004 3.082-.938a3.107 3.107 0 0 0 0-4.339 2.983 2.983 0 0 0-1.844-.884v2.49h-.392c-.7 0-1.292-.021-1.955-.273a4.256 4.256 0 0 1-1.524-.998 4.392 4.392 0 0 1 0-6.133 4.25 4.25 0 0 1 1.634-1.038c.594-.207 1.208-.232 1.83-.232h3.234v1.227h-2.295c-1.078 0-2.127-.082-3.065.558-.165.112-.318.24-.457.382a3.108 3.108 0 0 0 0 4.339 2.985 2.985 0 0 0 1.744.873l-.001-2.478h.509c.532 0 1.01.003 1.529.14zm29.726-3.86V34.14h-1.246V21.745H73.1v-1.181h8.194v1.181H77.82z" fill="#000" fill-rule="nonzero"/></svg>