<svg width="120" height="54" viewBox="0 0 120 54" fill="none" xmlns="http://www.w3.org/2000/svg">
<path fill-rule="evenodd" clip-rule="evenodd" d="M22.454 32.176C22.3658 32.1559 22.2754 32.1468 22.185 32.149H22.01L20.384 32.231C19.597 32.231 18.902 32.143 18.303 31.971C17.6277 31.7841 17.0003 31.4547 16.463 31.005C15.9019 30.5415 15.4579 29.9522 15.167 29.285C14.8721 28.6052 14.7233 27.871 14.73 27.13C14.73 26.512 14.841 25.926 15.065 25.367C15.2763 24.8259 15.6205 24.3468 16.066 23.974C16.5091 23.6014 17.0266 23.3277 17.584 23.171C18.1761 23.004 18.7888 22.9215 19.404 22.926L20.882 23.049L21.312 23.089C21.4226 23.0935 21.5327 23.0726 21.634 23.028C21.7245 22.9776 21.7955 22.8984 21.836 22.803L22.454 25.373L22.347 25.415C22.105 24.853 21.716 24.415 21.177 24.102C20.6386 23.7899 20.0263 23.6279 19.404 23.633C18.929 23.633 18.516 23.703 18.161 23.837C17.808 23.974 17.491 24.209 17.209 24.545C16.9233 24.8843 16.7041 25.2745 16.563 25.695C16.415 26.125 16.34 26.572 16.34 27.033C16.34 28.259 16.708 29.301 17.444 30.162C18.214 31.069 19.194 31.524 20.384 31.524C21.066 31.524 21.654 31.336 22.151 30.958C22.649 30.582 23.049 30.063 23.353 29.401L23.489 29.455L22.454 32.175V32.176ZM25.329 30.979C24.8729 30.5449 24.5114 30.0213 24.267 29.441C24.018 28.8614 23.89 28.2369 23.891 27.606C23.891 26.256 24.345 25.136 25.255 24.252C26.165 23.368 27.29 22.926 28.634 22.926C30.012 22.926 31.156 23.373 32.065 24.265C32.975 25.16 33.428 26.305 33.428 27.701C33.428 28.997 32.945 30.085 31.978 30.965C31.047 31.809 29.932 32.23 28.634 32.23C27.997 32.23 27.401 32.129 26.84 31.925C26.2762 31.7179 25.7616 31.3957 25.329 30.979V30.979ZM28.942 31.524C29.838 31.524 30.55 31.174 31.078 30.474C31.569 29.832 31.817 29.044 31.817 28.108C31.817 26.902 31.472 25.856 30.782 24.968C30.092 24.077 29.274 23.634 28.324 23.634C27.421 23.634 26.713 23.992 26.202 24.708C25.737 25.362 25.502 26.163 25.502 27.117C25.504 28.24 25.793 29.228 26.376 30.081C27.029 31.043 27.884 31.524 28.942 31.524V31.524ZM39.434 23.104C40.052 23.104 40.509 23.152 40.804 23.252C41.333 23.425 41.597 23.761 41.597 24.26C41.597 24.722 41.362 25.135 40.898 25.496C40.745 25.616 40.312 25.869 39.595 26.259C40.42 26.531 41.082 26.897 41.583 27.359C42.201 27.932 42.51 28.598 42.51 29.359C42.51 30.512 41.995 31.287 40.965 31.686C40.481 31.877 39.946 31.986 39.36 32.013C38.774 32.04 38.278 32.053 37.875 32.053H34.504V31.931C34.799 31.886 35.017 31.766 35.163 31.57C35.304 31.375 35.377 30.975 35.377 30.366V24.884C35.377 24.242 35.31 23.815 35.174 23.605C35.04 23.397 34.818 23.271 34.504 23.225V23.104H39.434V23.104ZM36.854 30.352C36.854 30.816 36.913 31.111 37.027 31.237C37.146 31.365 37.436 31.429 37.903 31.429C38.2941 31.431 38.6846 31.3985 39.07 31.332C39.439 31.269 39.764 31.146 40.045 30.965C40.3378 30.7731 40.5728 30.5052 40.725 30.19C40.894 29.856 40.979 29.515 40.979 29.169C40.979 28.582 40.765 28.04 40.333 27.55C39.966 27.124 39.483 26.786 38.883 26.53L36.855 27.306V30.352H36.854ZM36.854 26.668C37.616 26.44 38.247 26.196 38.749 25.932C39.581 25.488 39.999 25.017 39.999 24.518C39.999 24.173 39.787 23.942 39.366 23.823C39.134 23.761 38.78 23.728 38.306 23.728C37.965 23.728 37.686 23.742 37.465 23.77C37.246 23.797 37.087 23.874 36.988 24.002C36.934 24.064 36.899 24.188 36.881 24.368C36.865 24.5309 36.8564 24.6944 36.855 24.858V26.668H36.854ZM44.256 24.884C44.256 24.251 44.188 23.826 44.055 23.612C43.92 23.4 43.697 23.27 43.384 23.224V23.104H46.606V23.224C46.312 23.251 46.092 23.366 45.949 23.566C45.805 23.766 45.733 24.173 45.733 24.792V26.454L46.891 25.513C47.509 24.996 47.948 24.596 48.206 24.314C48.527 23.971 48.689 23.716 48.689 23.552C48.689 23.434 48.661 23.354 48.602 23.314C48.5184 23.2634 48.4243 23.2326 48.327 23.224V23.104H51.563V23.224C51.107 23.224 50.655 23.366 50.207 23.647C50.092 23.72 49.705 24.023 49.051 24.559L48.044 25.403C48.7126 26.036 49.2956 26.7538 49.778 27.538C50.242 28.272 50.655 29.098 51.014 30.014L51.267 30.638C51.447 31.083 51.563 31.351 51.617 31.441C51.797 31.731 52.02 31.896 52.289 31.931V32.055H49.335V31.931C49.648 31.886 49.805 31.709 49.805 31.401C49.805 31.066 49.688 30.606 49.455 30.027C49.285 29.609 49.072 29.177 48.815 28.728C48.5705 28.2943 48.2993 27.8761 48.003 27.476C47.6913 27.0589 47.3596 26.6571 47.009 26.272L45.733 27.306V30.271C45.733 30.798 45.769 31.161 45.841 31.359C45.967 31.704 46.222 31.896 46.606 31.931V32.055H43.384V31.931C43.759 31.867 44.01 31.681 44.135 31.373C44.215 31.173 44.255 30.838 44.255 30.366V24.884H44.256ZM53.834 30.979C53.3784 30.5445 53.0169 30.021 52.772 29.441C52.5234 28.8613 52.3961 28.2368 52.398 27.606C52.398 26.256 52.852 25.136 53.76 24.252C54.669 23.368 55.796 22.926 57.138 22.926C58.518 22.926 59.661 23.373 60.57 24.265C61.481 25.16 61.934 26.305 61.934 27.701C61.934 28.997 61.45 30.085 60.483 30.965C59.553 31.809 58.439 32.23 57.138 32.23C56.503 32.23 55.904 32.129 55.345 31.925C54.7811 31.7181 54.2665 31.3959 53.834 30.979V30.979ZM57.447 31.524C58.342 31.524 59.055 31.174 59.583 30.474C60.075 29.832 60.322 29.044 60.322 28.108C60.322 26.902 59.977 25.856 59.287 24.968C58.597 24.077 57.779 23.634 56.831 23.634C55.925 23.634 55.218 23.992 54.708 24.708C54.242 25.362 54.009 26.163 54.009 27.117C54.009 28.24 54.299 29.228 54.883 30.081C55.535 31.043 56.391 31.524 57.447 31.524V31.524ZM64.781 24.042V30.272C64.781 30.798 64.817 31.16 64.889 31.36C65.014 31.705 65.269 31.896 65.654 31.931V32.054H63.037V31.931C63.412 31.877 63.663 31.696 63.788 31.387C63.869 31.188 63.909 30.848 63.909 30.367V24.884C63.909 24.242 63.843 23.815 63.706 23.606C63.573 23.398 63.349 23.271 63.036 23.225V23.103H66.435V23.225C66.282 23.261 66.205 23.353 66.205 23.498C66.205 23.616 66.265 23.782 66.382 24.001L67.921 26.851L69.454 24.338C69.689 23.958 69.807 23.682 69.807 23.509C69.807 23.357 69.725 23.261 69.564 23.225V23.103H72.789V23.225C72.412 23.288 72.162 23.475 72.037 23.783C71.957 23.983 71.916 24.319 71.916 24.789V30.271C71.916 30.906 71.982 31.331 72.118 31.543C72.251 31.757 72.475 31.887 72.788 31.931V32.054H69.564V31.931C69.942 31.887 70.191 31.709 70.317 31.401C70.397 31.191 70.438 30.848 70.438 30.367V24.042L67.497 28.872L64.781 24.042ZM5.921 31.236H6.161V33.509C6.081 33.512 6.001 33.514 5.921 33.514C2.652 33.514 0 30.83 0 27.517C0 24.205 2.651 21.52 5.922 21.52C6.001 21.52 6.082 21.522 6.16 21.525V23.8H5.922C3.894 23.8 2.25 25.465 2.25 27.518C2.25 29.571 3.894 31.237 5.922 31.237L5.921 31.236Z" fill="white"/>
<path fill-rule="evenodd" clip-rule="evenodd" d="M76.19 30.4112C76.19 30.9262 76.23 31.2252 76.31 31.3052C76.39 31.3872 76.736 31.4292 77.344 31.4292C78.178 31.4292 78.832 31.2432 79.307 30.8722C79.781 30.5012 80.017 30.0262 80.017 29.4472C80.017 28.7252 79.731 28.1272 79.157 27.6572C78.478 27.0972 77.488 26.8172 76.19 26.8172V30.4112ZM74.71 24.7892C74.71 24.3192 74.677 23.9882 74.602 23.7972C74.479 23.4702 74.228 23.2802 73.853 23.2252V23.1042H79.695C79.831 23.1042 79.941 23.0912 80.026 23.0682C80.1098 23.0466 80.1834 22.9964 80.234 22.9262L80.891 25.6182L80.771 25.6602C80.521 25.0072 80.139 24.5362 79.624 24.2472C79.111 23.9552 78.441 23.8112 77.61 23.8112C76.95 23.8112 76.546 23.8352 76.403 23.8852C76.261 23.9352 76.19 24.0802 76.19 24.3152V26.2062C77.909 26.2062 79.26 26.5452 80.247 27.2242C81.134 27.8292 81.577 28.5842 81.577 29.4912C81.577 30.3132 81.287 30.9372 80.704 31.3622C80.077 31.8242 79.128 32.0562 77.855 32.0562H73.84V31.9322C74.135 31.8872 74.355 31.7672 74.497 31.5722C74.64 31.3762 74.712 30.9762 74.712 30.3672V24.7902L74.71 24.7892ZM83.96 30.2322C83.8963 30.4061 83.8409 30.583 83.794 30.7622C83.7584 30.9048 83.7406 31.0512 83.741 31.1982C83.741 31.4152 83.813 31.5922 83.954 31.7272C84.0236 31.7942 84.1059 31.8468 84.196 31.8818C84.2862 31.9169 84.3823 31.9336 84.479 31.9312V32.0542H81.737V31.9312C81.9 31.8962 82.032 31.8472 82.134 31.7882C82.239 31.7282 82.339 31.6252 82.443 31.4812C82.548 31.3362 82.656 31.1382 82.773 30.8832C82.853 30.7022 82.943 30.4832 83.041 30.2312L85.203 24.4492C85.276 24.2512 85.328 24.1002 85.357 24.0022C85.39 23.9022 85.405 23.7862 85.405 23.6622C85.4073 23.6089 85.3983 23.5557 85.3785 23.5063C85.3586 23.4568 85.3285 23.4121 85.29 23.3752C85.2061 23.2979 85.1021 23.2459 84.99 23.2252V23.1032H87.972V23.2242C87.712 23.2982 87.582 23.4612 87.582 23.7152C87.582 23.7862 87.595 23.8702 87.616 23.9602C87.639 24.0502 87.666 24.1452 87.702 24.2472L90 30.9382C90.062 31.1012 90.129 31.2632 90.204 31.4282C90.338 31.6902 90.542 31.8582 90.82 31.9312V32.0542H87.771V31.9312C88.004 31.8782 88.17 31.7682 88.272 31.6072C88.376 31.4412 88.43 31.2342 88.43 30.9802C88.43 30.3092 88.084 29.6702 87.397 29.0632C86.645 28.4022 85.76 28.0712 84.74 28.0712L83.96 30.2322V30.2322ZM86.156 24.1322L84.939 27.3882C85.4461 27.3846 85.9495 27.4744 86.424 27.6532C86.892 27.8302 87.301 28.1062 87.646 28.4762L86.156 24.1322ZM93.668 30.2722C93.668 30.7982 93.703 31.1602 93.775 31.3592C93.901 31.7042 94.155 31.8962 94.541 31.9312V32.0552H91.316V31.9312C91.612 31.8862 91.831 31.7662 91.976 31.5712C92.117 31.3752 92.19 30.9752 92.19 30.3662V24.8842C92.19 24.2422 92.123 23.8152 91.988 23.6052C91.855 23.3972 91.628 23.2702 91.316 23.2252V23.1032H94.542V23.2252C94.164 23.2702 93.914 23.4482 93.789 23.7552C93.707 23.9652 93.668 24.3102 93.668 24.7892V25.5922H97.672V24.8842C97.672 24.3412 97.635 23.9642 97.563 23.7562C97.445 23.4032 97.192 23.2252 96.798 23.2252V23.1032H100.021V23.2252C99.645 23.2702 99.394 23.4532 99.27 23.7702C99.19 23.9782 99.148 24.3192 99.148 24.7902V30.2722C99.148 30.7882 99.184 31.1462 99.255 31.3452C99.382 31.6912 99.637 31.8862 100.021 31.9312V32.0552H96.798V31.9312C97.173 31.9312 97.424 31.7682 97.551 31.4412C97.631 31.2332 97.672 30.8762 97.672 30.3662V26.2462H93.668V30.2722V30.2722ZM101.863 24.8842C101.863 24.2512 101.795 23.8262 101.661 23.6122C101.526 23.4002 101.303 23.2702 100.989 23.2242V23.1042H104.212V23.2242C103.918 23.2512 103.697 23.3662 103.555 23.5662C103.412 23.7662 103.34 24.1732 103.34 24.7922V26.4542L104.498 25.5132C105.115 24.9962 105.554 24.5962 105.813 24.3142C106.134 23.9712 106.294 23.7162 106.294 23.5522C106.294 23.4342 106.264 23.3542 106.21 23.3142C106.126 23.2638 106.031 23.233 105.933 23.2242V23.1042H109.171V23.2242C108.714 23.2242 108.261 23.3662 107.813 23.6472C107.696 23.7202 107.313 24.0232 106.659 24.5592L105.65 25.4032C106.318 26.0367 106.901 26.7544 107.384 27.5382C107.849 28.2722 108.262 29.0982 108.62 30.0142L108.875 30.6382C109.055 31.0832 109.171 31.3512 109.223 31.4412C109.403 31.7312 109.627 31.8962 109.895 31.9312V32.0552H106.941V31.9312C107.254 31.8862 107.411 31.7092 107.411 31.4012C107.411 31.0662 107.294 30.6062 107.061 30.0272C106.679 29.123 106.192 28.267 105.61 27.4772C105.298 27.06 104.966 26.6578 104.615 26.2722L103.34 27.3062V30.2712C103.34 30.7982 103.376 31.1612 103.445 31.3592C103.573 31.7042 103.828 31.8962 104.212 31.9312V32.0552H100.989V31.9312C101.365 31.8672 101.617 31.6812 101.741 31.3732C101.822 31.1732 101.863 30.8382 101.863 30.3662V24.8842V24.8842ZM7.107 21.6392C9.811 22.1962 11.844 24.6162 11.844 27.5172C11.844 30.4172 9.811 32.8392 7.107 33.3932V30.2772H5.922C4.418 30.2772 3.198 29.0412 3.198 27.5172C3.198 25.9932 4.418 24.7592 5.922 24.7592H7.107V21.6392V21.6392Z" fill="white"/>
</svg>
