<svg width="121" height="54" viewBox="0 0 121 54" fill="none" xmlns="http://www.w3.org/2000/svg">
<path d="M38.908 22.6469H32.181V23.8329H34.802V31.1099H36.264V23.8329H38.908V22.6469ZM43.558 30.9149C43.9668 30.7187 44.3158 30.417 44.569 30.0409L43.806 29.3139C43.438 29.8179 42.846 30.1109 42.222 30.0989C42.0096 30.1052 41.798 30.0682 41.6003 29.9902C41.4026 29.9121 41.2229 29.7946 41.072 29.6449C40.767 29.3429 40.593 28.9319 40.55 28.4129H44.668V27.8429C44.668 26.8429 44.434 26.0699 43.966 25.5229C43.498 24.9769 42.836 24.7039 41.977 24.7039C41.4586 24.6982 40.9494 24.8415 40.51 25.1169C40.066 25.3969 39.712 25.7969 39.487 26.2709C39.2378 26.7963 39.1135 27.3724 39.124 27.9539V28.1279C39.124 29.0659 39.402 29.8169 39.959 30.3809C40.516 30.9439 41.243 31.2259 42.14 31.2259C42.63 31.2339 43.116 31.1269 43.559 30.9159L43.558 30.9149ZM42.892 26.2009C43.113 26.4439 43.239 26.8009 43.27 27.2739V27.3779H40.574C40.64 26.8939 40.792 26.5159 41.031 26.2449C41.267 25.9749 41.613 25.8249 41.971 25.8379C42.364 25.8379 42.671 25.9589 42.891 26.2009H42.892ZM49.682 31.1109H51.319L48.728 27.4419L51.068 24.8209H49.368L47.628 26.7799L47.185 27.3319V22.1819H45.769V31.1099H47.184V29.0579L47.814 28.4129L49.683 31.1099L49.682 31.1109ZM52.35 23.2919V24.8209H51.313V25.8669H52.35V29.4299C52.35 30.6279 52.894 31.2259 53.98 31.2259C54.296 31.2239 54.61 31.1789 54.913 31.0919V29.9999C54.7508 30.038 54.5847 30.0575 54.418 30.0579C54.173 30.0579 54.003 30.0049 53.908 29.8979C53.813 29.7919 53.765 29.6179 53.765 29.3779V25.8679H54.878V24.8199H53.765V23.2909H52.35V23.2919ZM61.168 31.1099V31.0109C61.008 30.6739 60.929 30.2229 60.929 29.6569V26.8199C60.917 26.1499 60.692 25.6299 60.254 25.2599C59.814 24.8899 59.226 24.7049 58.489 24.7049C58.0362 24.6981 57.5868 24.7849 57.169 24.9599C56.8017 25.1106 56.4798 25.3542 56.235 25.6669C56.015 25.9419 55.894 26.2819 55.891 26.6339H57.306C57.3048 26.5143 57.3323 26.3963 57.3863 26.2896C57.4402 26.1829 57.519 26.0907 57.616 26.0209C57.844 25.8529 58.123 25.7679 58.407 25.7799C58.78 25.7799 59.057 25.8779 59.24 26.0729C59.4298 26.2879 59.5281 26.5685 59.514 26.8549V27.2679H58.646C57.718 27.2679 57.005 27.4479 56.506 27.8059C56.006 28.1639 55.757 28.6789 55.757 29.3489C55.753 29.6021 55.8046 29.8531 55.9083 30.0841C56.012 30.3152 56.1651 30.5206 56.357 30.6859C56.757 31.0459 57.273 31.2259 57.907 31.2259C58.2165 31.2313 58.5236 31.1715 58.8083 31.0503C59.0931 30.9292 59.3493 30.7495 59.56 30.5229C59.587 30.7249 59.642 30.9229 59.724 31.1099H61.168ZM57.443 29.8519C57.3531 29.7704 57.2823 29.67 57.2357 29.558C57.189 29.446 57.1676 29.3251 57.173 29.2039C57.1668 29.0519 57.1999 28.901 57.2691 28.7656C57.3383 28.6301 57.4413 28.5149 57.568 28.4309C57.832 28.2479 58.226 28.1569 58.75 28.1569H59.513V29.3429C59.3849 29.5752 59.1916 29.765 58.957 29.8889C58.7158 30.0233 58.4441 30.0936 58.168 30.0929C57.9047 30.1064 57.6458 30.0204 57.443 29.8519V29.8519ZM72.018 26.7679H68.803V27.8839H70.551V29.5409C70.233 29.8809 69.697 30.0519 68.944 30.0519C68.256 30.0519 67.719 29.7999 67.334 29.2949C66.947 28.7889 66.754 28.0799 66.754 27.1659V26.5159C66.765 25.5979 66.943 24.9029 67.287 24.4279C67.63 23.9539 68.132 23.7169 68.792 23.7169C69.813 23.7169 70.405 24.2269 70.569 25.2459H72.013C71.9 24.3699 71.566 23.6979 71.011 23.2309C70.456 22.7639 69.707 22.5309 68.763 22.5309C67.664 22.5309 66.808 22.8909 66.195 23.6089C65.581 24.3279 65.275 25.3269 65.275 26.6059V27.2679C65.2695 27.9924 65.4274 28.7088 65.737 29.3639C66.013 29.9394 66.4541 30.4198 67.004 30.7439C67.5778 31.0723 68.23 31.2388 68.891 31.2259C69.5219 31.2361 70.1494 31.1318 70.743 30.9179C71.245 30.7429 71.688 30.4279 72.019 30.0119V26.7679H72.018ZM76.806 24.7859C76.646 24.7269 76.476 24.6999 76.305 24.7049C75.699 24.7049 75.225 24.9779 74.884 25.5249L74.849 24.8209H73.498V31.1109H74.913V26.8089C75.138 26.3129 75.575 26.0649 76.223 26.0649C76.417 26.0649 76.61 26.0799 76.8 26.1109L76.806 24.7859ZM77.219 27.9769C77.219 28.9619 77.486 29.7489 78.02 30.3399C78.554 30.9309 79.266 31.2259 80.155 31.2259C80.6954 31.2371 81.2284 31.0987 81.695 30.8259C82.1408 30.557 82.4974 30.1625 82.72 29.6919C82.966 29.1719 83.088 28.6039 83.078 28.0299L83.073 27.6979C83.03 26.7949 82.743 26.0709 82.213 25.5239C81.683 24.9779 80.993 24.7039 80.143 24.7039C79.6073 24.6939 79.0793 24.8319 78.617 25.1029C78.1698 25.3738 77.8117 25.7697 77.587 26.2419C77.336 26.7619 77.21 27.3319 77.219 27.9069V27.9769V27.9769ZM79.042 26.3869C79.1718 26.2154 79.3397 26.0766 79.5325 25.9813C79.7252 25.886 79.9375 25.8369 80.1525 25.8379C80.3675 25.8388 80.5794 25.8899 80.7713 25.9869C80.9631 26.0839 81.1298 26.2243 81.258 26.3969C81.532 26.7679 81.669 27.2719 81.669 27.9069C81.669 28.6249 81.536 29.1689 81.27 29.5409C81.1463 29.7203 80.9792 29.8656 80.7842 29.9632C80.5893 30.0607 80.3728 30.1074 80.155 30.0989C79.9374 30.1077 79.7211 30.062 79.5257 29.9659C79.3303 29.8699 79.162 29.7265 79.036 29.5489C78.768 29.1829 78.634 28.6769 78.635 28.0289C78.635 27.3009 78.77 26.7539 79.042 26.3879V26.3869ZM88.128 31.1099H89.462V24.8209H88.046V29.3369C87.806 29.8289 87.342 30.0749 86.654 30.0749C85.991 30.0749 85.659 29.6759 85.658 28.8779V24.8209H84.243V28.8959C84.243 29.6509 84.419 30.2289 84.77 30.6279C85.122 31.0269 85.64 31.2269 86.322 31.2259C87.088 31.2259 87.678 30.9819 88.092 30.4939L88.128 31.1099V31.1099ZM96.422 27.9429C96.422 26.9269 96.203 26.1329 95.766 25.5629C95.33 24.9909 94.726 24.7049 93.958 24.7049C93.243 24.7049 92.678 24.9569 92.263 25.4609L92.205 24.8209H90.9V33.5279H92.316V30.5459C92.731 30.9999 93.284 31.2259 93.976 31.2259C94.3213 31.2365 94.6639 31.163 94.9744 31.0116C95.2849 30.8602 95.5538 30.6355 95.758 30.3569C96.2 29.7779 96.422 29.0019 96.422 28.0289V27.9419V27.9429ZM94.631 29.5549C94.5158 29.7282 94.3583 29.8691 94.1733 29.9643C93.9883 30.0595 93.782 30.1059 93.574 30.0989C92.991 30.0989 92.572 29.8549 92.316 29.3669V26.5769C92.568 26.0999 92.983 25.8609 93.562 25.8609C93.992 25.8429 94.401 26.0529 94.636 26.4129C94.886 26.7819 95.012 27.2799 95.012 27.9069C95.012 28.6439 94.885 29.1929 94.631 29.5549ZM16.557 26.9969V37.4749H15.45V25.1949H22.555V26.9969H16.558H16.557ZM14.182 24.6649H14.179V37.4749H13.07V22.8629H22.554V24.6649H14.182V24.6649ZM0.0220195 22.8629H9.42002V37.4749H8.31202V24.6649H0.0220195V22.8629ZM22.555 22.3329H11.796V37.4749H10.695V22.3339H0.0200195V20.2159H22.554V22.3339L22.555 22.3329ZM0.0220195 27.5279H4.66502V37.4759H3.51302V29.3219L3.49902 29.3229V29.3219H0.0220195V27.5279ZM0.0220195 25.1959H7.04202V37.4759H5.93402V27.0309L5.91802 27.0329V26.9969H0.0220195V25.1949V25.1959ZM0.0220195 29.8599H2.32902V37.4769H1.20202V30.9549H0.0220195V29.8599ZM0.0220195 19.6819V16.7759H22.554V19.6819H0.0210195H0.0220195ZM18.933 29.3219V37.4759H17.827V27.5279H22.555V29.3219H18.933ZM22.555 30.9549H21.325V37.4759H20.205V29.8599H22.555V30.9549Z" fill="white"/>
</svg>
