<svg width="121" height="54" xmlns="http://www.w3.org/2000/svg"><g fill="#000" fill-rule="nonzero"><path d="M38.908 22.647h-6.727v1.186h2.621v7.277h1.462v-7.277h2.644v-1.186zm4.65 8.268a2.547 2.547 0 0 0 1.011-.874l-.763-.727c-.368.504-.96.797-1.584.785a1.566 1.566 0 0 1-1.15-.454c-.305-.302-.479-.713-.522-1.232h4.118v-.57c0-1-.234-1.773-.702-2.32-.468-.546-1.13-.819-1.989-.819a2.706 2.706 0 0 0-1.467.413c-.444.28-.798.68-1.023 1.154a3.768 3.768 0 0 0-.363 1.683v.174c0 .938.278 1.689.835 2.253.557.563 1.284.845 2.181.845.49.008.976-.099 1.419-.31zm-.666-4.714c.221.243.347.6.378 1.073v.104h-2.696c.066-.484.218-.862.457-1.133.236-.27.582-.42.94-.407.393 0 .7.121.92.363zm6.79 4.91h1.637l-2.591-3.669 2.34-2.621h-1.7l-1.74 1.959-.443.552v-5.15h-1.416v8.928h1.415v-2.052l.63-.645 1.869 2.697zm2.668-7.819v1.529h-1.037v1.046h1.037v3.563c0 1.198.544 1.796 1.63 1.796.316-.002.63-.047.933-.134V30a2.186 2.186 0 0 1-.495.058c-.245 0-.415-.053-.51-.16-.095-.106-.143-.28-.143-.52v-3.51h1.113V24.82h-1.113v-1.529H52.35zm8.818 7.818v-.099c-.16-.337-.239-.788-.239-1.354V26.82c-.012-.67-.237-1.19-.675-1.56-.44-.37-1.028-.555-1.765-.555a3.29 3.29 0 0 0-1.32.255 2.29 2.29 0 0 0-.934.707c-.22.275-.341.615-.344.967h1.415a.746.746 0 0 1 .31-.613c.228-.168.507-.253.791-.241.373 0 .65.098.833.293a1.1 1.1 0 0 1 .274.782v.413h-.868c-.928 0-1.641.18-2.14.538-.5.358-.749.873-.749 1.543a1.728 1.728 0 0 0 .6 1.337c.4.36.916.54 1.55.54a2.205 2.205 0 0 0 1.653-.703c.027.202.082.4.164.587h1.444zm-3.725-1.258a.825.825 0 0 1-.27-.648.884.884 0 0 1 .395-.773c.264-.183.658-.274 1.182-.274h.763v1.186a1.36 1.36 0 0 1-.556.546 1.612 1.612 0 0 1-.789.204 1.05 1.05 0 0 1-.725-.241zm14.575-3.084h-3.215v1.116h1.748v1.657c-.318.34-.854.511-1.607.511-.688 0-1.225-.252-1.61-.757-.387-.506-.58-1.215-.58-2.129v-.65c.011-.918.189-1.613.533-2.088.343-.474.845-.711 1.505-.711 1.021 0 1.613.51 1.777 1.529h1.444c-.113-.876-.447-1.548-1.002-2.015-.555-.467-1.304-.7-2.248-.7-1.099 0-1.955.36-2.568 1.078-.614.719-.92 1.718-.92 2.997v.662a4.82 4.82 0 0 0 .462 2.096 3.216 3.216 0 0 0 1.267 1.38 3.655 3.655 0 0 0 1.887.482 5.213 5.213 0 0 0 1.852-.308c.502-.175.945-.49 1.276-.906v-3.244zm4.788-1.982c-.16-.059-.33-.086-.501-.081-.606 0-1.08.273-1.421.82l-.035-.704h-1.351v6.29h1.415v-4.302c.225-.496.662-.744 1.31-.744.194 0 .387.015.577.046l.006-1.325zm.413 3.191c0 .985.267 1.772.801 2.363s1.246.886 2.135.886a2.93 2.93 0 0 0 1.54-.4 2.645 2.645 0 0 0 1.025-1.134c.246-.52.368-1.088.358-1.662l-.005-.332c-.043-.903-.33-1.627-.86-2.174-.53-.546-1.22-.82-2.07-.82a2.91 2.91 0 0 0-1.526.399 2.676 2.676 0 0 0-1.03 1.139c-.251.52-.377 1.09-.368 1.665v.07zm1.823-1.59a1.385 1.385 0 0 1 2.216.01c.274.371.411.875.411 1.51 0 .718-.133 1.262-.399 1.634a1.293 1.293 0 0 1-1.115.558 1.307 1.307 0 0 1-1.119-.55c-.268-.366-.402-.872-.401-1.52 0-.728.135-1.275.407-1.641zm9.086 4.723h1.334v-6.289h-1.416v4.516c-.24.492-.704.738-1.392.738-.663 0-.995-.399-.996-1.197v-4.057h-1.415v4.075c0 .755.176 1.333.527 1.732.352.399.87.599 1.552.598.766 0 1.356-.244 1.77-.732l.036.616zm8.294-3.167c0-1.016-.219-1.81-.656-2.38-.436-.572-1.04-.858-1.808-.858-.715 0-1.28.252-1.695.756l-.058-.64H90.9v8.707h1.416v-2.982c.415.454.968.68 1.66.68a2.128 2.128 0 0 0 1.782-.869c.442-.579.664-1.355.664-2.328v-.087zm-1.791 1.612a1.22 1.22 0 0 1-1.057.544c-.583 0-1.002-.244-1.258-.732v-2.79c.252-.477.667-.716 1.246-.716.43-.018.839.192 1.074.552.25.369.376.867.376 1.494 0 .737-.127 1.286-.381 1.648zM16.557 26.997v10.478H15.45v-12.28h7.105v1.802h-5.997zm-2.375-2.332h-.003v12.81H13.07V22.863h9.484v1.802h-8.372zM.022 22.863H9.42v14.612H8.312v-12.81H.022v-1.802zm22.533-.53H11.796v15.142h-1.101V22.334H.02v-2.118h22.534v2.118zM.022 27.528h4.643v9.948H3.513v-8.154l-.014.001v-.001H.022v-1.794zm0-2.332h7.02v12.28H5.934V27.031l-.016.002v-.036H.022v-1.802zm0 4.664h2.307v7.617H1.202v-6.522H.022V29.86zm0-10.178v-2.906h22.532v2.906H.021zm18.911 9.64v8.154h-1.106v-9.948h4.728v1.794h-3.622zm3.622 1.633h-1.23v6.521h-1.12V29.86h2.35v1.095z"/></g></svg>