<svg width="120" height="54" viewBox="0 0 120 54" fill="none" xmlns="http://www.w3.org/2000/svg">
<path d="M53.0637 39.9918L53.0591 34.4274L71 33.8789V39.9927H53.0637V39.9918Z" fill="#222631"/>
<path d="M62.9935 33.1657L54.1511 33.4589C54.1511 33.4589 60.3112 27.789 62.6282 25.0207C64.1321 23.2263 64.7675 21.2886 64.1506 19.9964C63.7594 19.1779 62.8834 18.7728 61.8013 18.8338V12.9901C64.4716 12.6034 66.9134 13.2564 68.5829 14.852C70.1035 16.3087 70.873 18.376 70.689 20.5181C70.3412 24.5693 68.4007 27.8158 62.9944 33.1648L62.9935 33.1657Z" fill="#222631"/>
<path d="M58.8501 23.969L53.2931 24.4685C52.9971 18.1308 55.5573 14.248 60.7684 13.1223L60.7712 19.0724C59.6797 19.5404 58.5976 20.3895 58.8501 23.969V23.969Z" fill="#222631"/>
<path d="M43.6775 34.7169L51.3545 34.4829V39.9918H43.6775V34.7169Z" fill="#222631"/>
<path d="M43.6775 16.2052L51.3545 15.1101V20.6135L43.6775 21.469V16.2052Z" fill="#222631"/>
<path d="M37.4209 17.0932L42.693 16.344V39.9918H37.4209V17.0941V17.0932Z" fill="#222631"/>
<path d="M29.3757 35.1542L36.0232 34.9507V39.9916H29.3757V35.1542Z" fill="#222631"/>
<path d="M23.9419 19.0172L28.5222 18.3679V39.9929H23.9419V19.0172H23.9419Z" fill="#222631"/>
<path d="M16.6011 35.5455L22.405 35.3679V39.9926H16.6011V35.5464V35.5455Z" fill="#222631"/>
<path d="M16.6011 20.065L22.405 19.239V23.8452L16.6011 24.4926V20.0659V20.065Z" fill="#222631"/>
<path d="M11.8298 20.7438L15.8478 20.1731V39.9917H11.8298V20.7438Z" fill="#222631"/>
<path d="M0 22.4273L10.4203 20.9446V25.1808L0 26.3434V22.4273Z" fill="#222631"/>
<path d="M7.14055 39.9919H3.3252V26.5803L7.1424 26.1863V39.9919H7.14055Z" fill="#222631"/>
<path d="M20.4131 32.0882L16.5996 32.2963V27.79L20.4122 27.457V32.0882H20.4131Z" fill="#222631"/>
<path d="M48.7119 30.5177L43.6775 30.7952V25.4306L48.7119 24.9958V30.5177Z" fill="#222631"/>
</svg>
