<svg width="120" height="53" xmlns="http://www.w3.org/2000/svg" xmlns:xlink="http://www.w3.org/1999/xlink"><defs><path d="M38.247 36.207l-.004-4.01 12.932-.396v4.407H38.247v-.001zm7.157-4.92l-6.373.211s4.44-4.086 6.11-6.082c1.084-1.293 1.542-2.69 1.097-3.621-.282-.59-.913-.882-1.693-.838v-4.212c1.924-.279 3.684.192 4.888 1.342a5.028 5.028 0 0 1 1.518 4.084c-.251 2.92-1.65 5.26-5.546 9.115h-.001zm-2.987-6.629l-4.005.36c-.213-4.568 1.632-7.366 5.388-8.178l.002 4.289c-.787.337-1.567.95-1.385 3.53zm-10.936 7.747l5.534-.169v3.97H31.48v-3.801zm0-13.343l5.534-.79v3.968l-5.534.616v-3.794zm-4.509.64l3.8-.54v17.045h-3.8V19.703zM21.173 32.72l4.792-.146v3.633h-4.792V32.72zM17.257 21.09l3.301-.468v15.587h-3.301v-15.12zm-5.292 11.913l4.184-.128v3.334h-4.184v-3.205zm0-11.158l4.184-.595v3.32l-4.184.467v-3.191zm-3.438.49l2.896-.412v14.285H8.527V22.334zM0 23.547l7.51-1.069v3.054L0 26.37v-2.823zm5.147 12.66h-2.75V26.54l2.751-.284v9.95h-.001zm9.566-5.697l-2.748.15v-3.248l2.748-.24v3.338zm20.397-1.132l-3.629.2v-3.866l3.629-.314v3.98z" id="a"/></defs><use fill="#151515" fill-rule="nonzero" xlink:href="#a"/></svg>