<svg width="120" height="54" viewBox="0 0 120 54" fill="none" xmlns="http://www.w3.org/2000/svg">
<path d="M53.0637 39.9918L53.0591 34.4274L71 33.8789V39.9927H53.0637V39.9918Z" fill="white"/>
<path d="M62.9935 33.1659L54.1511 33.4591C54.1511 33.4591 60.3112 27.7892 62.6282 25.0209C64.1321 23.2265 64.7675 21.2888 64.1506 19.9966C63.7594 19.1781 62.8834 18.773 61.8013 18.834V12.9903C64.4716 12.6036 66.9134 13.2566 68.5829 14.8522C70.1035 16.3089 70.873 18.3762 70.689 20.5183C70.3412 24.5695 68.4007 27.816 62.9944 33.165L62.9935 33.1659Z" fill="white"/>
<path d="M58.8501 23.9688L53.2931 24.4683C52.9971 18.1306 55.5573 14.2478 60.7684 13.1221L60.7712 19.0722C59.6797 19.5402 58.5976 20.3893 58.8501 23.9688Z" fill="white"/>
<path d="M43.6775 34.7169L51.3545 34.4829V39.9918H43.6775V34.7169Z" fill="white"/>
<path d="M43.6775 16.205L51.3545 15.1099V20.6133L43.6775 21.4688V16.205Z" fill="white"/>
<path d="M37.4209 17.0934L42.693 16.3442V39.992H37.4209V17.0943V17.0934Z" fill="white"/>
<path d="M29.3757 35.1542L36.0232 34.9507V39.9916H29.3757V35.1542Z" fill="white"/>
<path d="M23.9419 19.017L28.5222 18.3677V39.9927H23.9419V19.017Z" fill="white"/>
<path d="M16.6011 35.5453L22.405 35.3677V39.9924H16.6011V35.5462V35.5453Z" fill="white"/>
<path d="M16.6011 20.0648L22.405 19.2388V23.845L16.6011 24.4924V20.0657V20.0648Z" fill="white"/>
<path d="M11.8298 20.744L15.8478 20.1733V39.9919H11.8298V20.744Z" fill="white"/>
<path d="M0 22.4275L10.4203 20.9448V25.181L0 26.3436V22.4275Z" fill="white"/>
<path d="M7.14055 39.9921H3.3252V26.5805L7.1424 26.1865V39.9921H7.14055Z" fill="white"/>
<path d="M20.4131 32.0882L16.5996 32.2963V27.79L20.4122 27.457V32.0882H20.4131Z" fill="white"/>
<path d="M48.7119 30.5175L43.6775 30.795V25.4304L48.7119 24.9956V30.5175Z" fill="white"/>
</svg>
