<svg width="121" height="54" xmlns="http://www.w3.org/2000/svg"><path d="M75.784 30.73c.107-.056.186-.193.264-.814l.103-.873h1.701v1.686h.36v.43l-.065.846h-.575v-.763h-1.29v.763h-.577l-.063-.845v-.43h.142zm.656 0h.743v-1.176h-.502l-.056.51c-.033.285-.096.503-.185.665zM33.766 20.81v1.393h-6.652V23h6.671c0 .41.032.773-.011 1.127-.028.233-.25.308-.49.307-1.096-.005-2.192-.002-3.287-.002h-2.892v.63h6.666v1.414c-.116.008-.238.024-.36.024-1.993.001-3.986-.005-5.979.004-.599.002-1.408-.61-1.657-1.094-.176-.342-.153-.656-.162-.987-.017-.579.028-1.16-.013-1.737-.055-.764.383-1.252.937-1.652.227-.163.568-.239.859-.242 2.039-.02 4.078-.011 6.118-.01.084.006.168.016.252.03zM79.323 26.5h-3.727c-.758 0-1.516-.015-2.273.004-.789.02-1.416-.293-1.87-.886-.175-.23-.257-.57-.272-.864a16.588 16.588 0 0 1 .001-2.18c.048-.595.258-1.127.89-1.44a3.148 3.148 0 0 1 1.473-.362c1.911.016 3.823.007 5.768.007v1.446h-.421c-1.912 0-3.823.005-5.735-.005-.236-.001-.412.082-.504.264-.114.225.118.504.408.513.291.009.583.002.874.002h5.41c0 .42.002.804 0 1.187-.001.247-.176.247-.363.246-1.2-.003-2.401-.001-3.602-.001-.746 0-1.492-.001-2.238.001-.15 0-.3.014-.474.023v.583h6.655V26.5zm-22.447-.008c-.665 0-1.33-.012-1.994.003-.61.023-1.2-.205-1.63-.629a1.63 1.63 0 0 1-.342-.544c-.248-.588-.16-1.214-.197-1.828-.032-.536.012-1.07.219-1.547.13-.301.438-.58.737-.752.761-.437 1.622-.43 2.48-.405.64.018 1.285.044 1.922-.008.622-.052 1.202.125 1.792.226.218.037.411.268.593.435.353.324.466.733.45 1.206-.03.828.002 1.659-.033 2.487-.018.435-.33.71-.675.974-.577.442-1.233.381-1.888.382h-1.434zm-2.504-1.46h5.014V22.41h-5.014v2.623zm34.852 1.444v-3.13c0-.704.006-1.408-.002-2.112-.003-.299.166-.421.435-.437a8.43 8.43 0 0 1 .77-.002c.284.01.435.168.44.44.008.465.007.93 0 1.397-.003.26.075.377.382.375 1.631-.011 3.263 0 4.895.008.556.003.943.328 1.244.723.19.25.348.57.377.873.027.283-.119.588-.22.872a1.008 1.008 0 0 1-.263.381c-.16.163-.344.3-.548.405-.246.112-.524.218-.789.22-2.121.018-4.242.01-6.364.01-.103 0-.206-.013-.357-.023zm1.662-1.428h5.25v-.594h-5.25v.594zm-20.555-.017v1.434a.868.868 0 0 1-.166.033c-2.25 0-4.5.014-6.75-.017-.61-.008-1.136-.322-1.461-.833-.15-.236-.213-.558-.218-.843-.024-1.182-.011-2.364-.01-3.546 0-.318.146-.459.477-.465.198-.003.4.022.594-.005.35-.049.411.129.41.412-.008 1.091-.004 2.182-.003 3.273 0 .455.118.571.582.571 1.352 0 2.705-.01 4.057.008.316.004.404-.106.402-.388-.008-1.125-.004-2.25-.003-3.375 0-.354.148-.493.52-.496.198-.002.396-.002.595 0 .339.002.512.172.513.516.003 1.09.003 2.182 0 3.273 0 .283 0 .558.46.448zm-27.5 1.457H41.35v-.373c0-1.158-.006-2.317.005-3.475.003-.298-.08-.424-.416-.421-1.583.014-3.167.006-4.807.006v4.245h-1.507c-.005-.109-.017-.228-.017-.347v-4.838c0-.491.002-.491.501-.491l7.34-.002c.195 0 .384-.02.384.253v5.443zm9.214-.01H50.4v-.384c0-1.148-.006-2.296.004-3.444.003-.302-.066-.443-.426-.434-1.014.026-2.029.008-3.043.01-.361 0-.516.151-.518.503-.002.659-.044 1.321.009 1.976.05.636-.327 1.017-.729 1.394-.566.532-1.288.396-2.004.394v-1.416h1.237c0-.737.017-1.438-.004-2.137-.024-.777.36-1.325.958-1.774a1.924 1.924 0 0 1 1.167-.368c1.48-.012 2.961-.005 4.442-.004.428 0 .553.12.553.528v5.156zm34.864-4.25c-1.296 0-2.518-.002-3.74.001-.26 0-.246.195-.247.367-.002.704-.012 1.41 0 2.114.01.59-.322 1-.72 1.379-.576.546-1.295.401-2.005.405v-1.416h1.223c.01-.135.022-.233.022-.331.002-.637.046-1.277-.011-1.909-.062-.668.27-1.171.696-1.568.285-.267.771-.443 1.174-.456 1.584-.05 3.171-.015 4.757-.026.25-.002.334.095.334.312v5.375H86.91v-4.247zm-65.495 4.265h-1.473v-.364-3.375c0-.528 0-.529-.526-.529h-2.8v-1.431h.377c2.46 0 4.92.007 7.379-.009.339-.002.423.115.41.408-.014.327-.003.655-.003 1.032h-.43c-.84 0-1.68.014-2.518-.007-.324-.008-.425.094-.421.405.014 1.159.005 2.318.005 3.477v.393zM1.277 20.77c.244 0 .489-.002.733 0 .34.005.506.163.508.492.004.454.003.907.001 1.361-.001.475-.127.6-.612.602-.43.002-.861.002-1.292 0-.48-.003-.612-.132-.614-.6v-1.294c.002-.43.136-.559.577-.561h.699zm8.775 11.049h-.7c-.385-.004-.532-.15-.534-.536-.003-.454-.003-.909 0-1.364.002-.423.14-.554.583-.555.455-.002.91-.002 1.365 0 .436.001.568.133.57.57v1.33c-.002.424-.138.553-.584.555h-.7zm-8.372 0H.945c-.35-.004-.521-.168-.523-.512a107.43 107.43 0 0 1 0-1.398c.001-.398.15-.544.559-.545.466-.002.932-.002 1.399 0 .408.001.557.146.559.546.002.454.002.91 0 1.364-.002.399-.15.542-.56.544-.233.002-.466 0-.7 0zm8.389-2.865h-.665c-.462-.002-.585-.125-.587-.587v-1.296c.002-.45.13-.57.603-.572h1.33c.461.002.584.125.586.588v1.296c-.002.45-.128.57-.603.571h-.664zm-5.886 0c-.244 0-.49.002-.734 0-.338-.004-.505-.164-.508-.492-.004-.466-.003-.932-.001-1.398.002-.434.134-.563.575-.565h1.364c.445.002.577.13.58.561v1.33c-.003.436-.132.562-.576.564h-.7zm.007-8.184c.256 0 .512-.003.768 0 .332.005.497.168.5.5.003.465.002.93 0 1.396-.002.417-.147.556-.585.558-.443.003-.885.003-1.328 0-.467-.002-.603-.131-.605-.574-.002-.443-.002-.885 0-1.328.002-.405.147-.549.551-.552.233-.002.466 0 .699 0zm7.146 4.095c0 .238.003.476 0 .715-.005.33-.184.505-.532.508a94.06 94.06 0 0 1-1.362.001c-.497-.002-.623-.13-.625-.624v-1.26c.002-.448.13-.57.602-.57.454-.002.908-.001 1.362 0 .406.002.552.147.555.549.002.227 0 .454 0 .68zm-2.939-.015c0 .238.003.477 0 .715-.005.37-.16.52-.551.524-.466.004-.932.004-1.397 0-.426-.004-.568-.149-.57-.575-.002-.443-.002-.885 0-1.328.002-.404.147-.55.551-.551.466-.002.932-.002 1.397 0 .436.001.567.133.57.568v.647zm0-2.85c0 .239.003.477 0 .715-.005.331-.184.505-.531.509-.454.004-.908.003-1.362 0-.497-.001-.624-.13-.625-.623v-1.26c.002-.448.13-.57.601-.571h1.363c.405.002.55.147.554.55.002.226 0 .453 0 .68zm1.711-1.23c.245 0 .489-.003.733 0 .31.005.49.175.493.472.005.476.004.953.001 1.43-.001.4-.15.548-.556.552-.442.004-.885.002-1.327 0-.521-.001-.633-.11-.635-.614 0-.431-.002-.862 0-1.294.003-.397.153-.543.558-.546h.733zm6.48 9.373c0-.733.555-1.155 1.15-1.155.596 0 1.151.422 1.151 1.155 0 .73-.555 1.151-1.15 1.151-.596 0-1.151-.422-1.151-1.151zm1.616 0c0-.382-.157-.628-.465-.628-.309 0-.466.246-.466.628 0 .38.157.625.466.625.308 0 .465-.245.465-.625zm2.487-.59h-.8v-.511h2.272v.511h-.8v1.688h-.672v-1.688zm2.473.59c0-.733.556-1.155 1.151-1.155s1.15.422 1.15 1.155c0 .73-.555 1.151-1.15 1.151-.595 0-1.15-.422-1.15-1.151zm1.617 0c0-.382-.158-.628-.466-.628-.308 0-.465.246-.465.628 0 .38.157.625.465.625.308 0 .466-.245.466-.625zm1.786-1.101h2.073v2.2h-.67v-1.689h-.734v1.688h-.67v-2.2zm3.294 0h.646v.61c0 .221-.033.513-.056.781h.014c.073-.133.193-.331.262-.46l.588-.931h.608v2.2h-.646v-.612c0-.22.032-.509.059-.782h-.018c-.072.133-.19.336-.258.461l-.591.932h-.608v-2.2zm3.984.511h-.802v-.511h2.273v.511h-.8v1.688h-.671v-1.688zm2.509.587c0-.72.57-1.152 1.174-1.152.696 0 1.062.458 1.062 1.056-.001.098-.01.196-.028.292H36.85V29.9h1.26l-.106.124c0-.353-.157-.538-.454-.538-.33 0-.547.218-.547.655 0 .456.254.657.693.657.204-.004.403-.056.581-.153l.222.393a1.759 1.759 0 0 1-.894.257c-.704 0-1.251-.423-1.251-1.154zm3.101 1.106l.112-.588c.037.011.075.017.113.018.122 0 .212-.09.243-.327.06-.434.104-.87.156-1.307h1.7v2.2h-.67v-1.689h-.5c-.04.322-.08.657-.126.978-.074.492-.323.763-.758.763a.722.722 0 0 1-.27-.048zm3.594-2.204h.67v.7h.477c.57 0 1.006.19 1.006.738 0 .569-.436.761-1.006.761H43.05v-2.2zm1.117 1.702c.267 0 .394-.086.394-.264 0-.171-.127-.255-.394-.255h-.448v.519h.448zm2.13-1.702h.67v.793h.734v-.793h.67v2.2h-.67v-.837h-.734v.836h-.67v-2.2zm3.175 1.1c0-.732.555-1.154 1.15-1.154.596 0 1.15.422 1.15 1.155 0 .73-.554 1.151-1.15 1.151-.595 0-1.15-.422-1.15-1.151zm1.616 0c0-.38-.158-.627-.466-.627-.308 0-.465.246-.465.628 0 .38.157.625.465.625.308 0 .466-.245.466-.625zm1.708-.002c0-.72.57-1.152 1.174-1.152.696 0 1.062.458 1.062 1.056-.001.098-.01.196-.028.292h-1.712V29.9h1.26l-.106.124c0-.353-.157-.539-.454-.539-.33 0-.547.219-.547.656 0 .456.255.657.693.657.204-.004.404-.056.582-.153l.221.393a1.76 1.76 0 0 1-.894.257c-.703 0-1.25-.423-1.25-1.154zm6.54.003c0-.733.556-1.155 1.151-1.155s1.15.422 1.15 1.155c0 .73-.555 1.151-1.15 1.151-.595 0-1.15-.422-1.15-1.151zm1.617 0c0-.382-.158-.628-.466-.628-.308 0-.465.246-.465.628 0 .38.157.625.465.625.308 0 .466-.245.466-.625zm1.73-.277c0-1.312.588-1.62 1.431-1.732.278-.036.405-.066.549-.13l.127.567c-.12.092-.33.14-.536.167-.81.104-.931.129-.931 1.282 0 .498.178.748.478.748.259 0 .388-.232.388-.599 0-.392-.15-.537-.392-.537a.569.569 0 0 0-.476.273l-.03-.415a.848.848 0 0 1 .706-.337c.478 0 .878.342.878 1.016 0 .678-.447 1.125-1.066 1.125-.72 0-1.126-.534-1.126-1.428zm3.23.277c0-.733.555-1.155 1.15-1.155.596 0 1.151.422 1.151 1.155 0 .73-.555 1.151-1.15 1.151-.596 0-1.151-.422-1.151-1.151zm1.616 0c0-.382-.157-.628-.465-.628-.308 0-.466.246-.466.628 0 .38.157.625.466.625.308 0 .465-.245.465-.625zm1.786-1.101h.546l.048.223h.017c.182-.168.421-.267.672-.277.563 0 .905.44.905 1.12 0 .753-.473 1.186-.98 1.186a.815.815 0 0 1-.554-.238h-.016l.032.357v.644h-.67v-3.015zm1.502 1.071c0-.394-.132-.59-.416-.59-.143 0-.275.059-.416.204v.887a.594.594 0 0 0 .386.146c.247 0 .446-.191.446-.647zm1.763 1.943l.12-.497a.614.614 0 0 0 .174.028c.26 0 .4-.117.474-.287l.044-.115-.975-2.143h.664l.379.945c.08.206.152.43.224.66h.018c.06-.22.137-.446.207-.66l.33-.945h.633l-.89 2.223c-.22.55-.487.835-1.058.835-.116.001-.232-.014-.344-.044zm6.486-1.913c0-.733.555-1.155 1.15-1.155.596 0 1.151.422 1.151 1.155 0 .73-.555 1.151-1.15 1.151-.596 0-1.151-.422-1.151-1.151zm1.616 0c0-.382-.157-.628-.465-.628-.308 0-.466.246-.466.628 0 .38.157.625.466.625.308 0 .465-.245.465-.625zm1.84-1.101h1.066c.529 0 .954.142.954.58 0 .188-.114.38-.383.455v.016c.282.069.469.218.469.516 0 .451-.448.632-.984.632H82.52v-2.2zm1.025.857c.252 0 .356-.077.356-.21 0-.132-.1-.208-.352-.208h-.376v.418h.372zm.059.902c.272 0 .373-.093.373-.237 0-.13-.114-.228-.38-.228h-.424v.465h.431zm2.101-.17c0-.493.418-.744 1.484-.807-.023-.196-.175-.317-.478-.317-.218 0-.434.082-.688.206l-.239-.427c.32-.187.684-.29 1.056-.298.635 0 1.019.322 1.019.996v1.257h-.547l-.048-.248h-.017c-.228.167-.51.301-.8.301-.457 0-.742-.293-.742-.663zm1.484-.052v-.36c-.664.032-.842.172-.842.36 0 .142.123.21.312.21.2 0 .37-.09.53-.21zm1.854-1.537h.67v.793h.733v-.793h.67v2.2h-.67v-.837h-.734v.836h-.67v-2.2zm3.293 0h.647v.61c0 .221-.033.513-.057.781h.015c.072-.133.193-.331.262-.46l.587-.931h.609v2.2h-.646v-.612c0-.22.032-.509.059-.782h-.018c-.072.133-.19.336-.259.461l-.59.932h-.609v-2.2zm3.205 1.098c0-.72.57-1.152 1.174-1.152.696 0 1.063.458 1.063 1.056-.002.098-.011.196-.028.292h-1.712V29.9h1.259l-.105.124c0-.353-.158-.538-.454-.538-.33 0-.548.218-.548.655 0 .456.255.657.694.657.203-.004.403-.056.58-.153l.223.393a1.76 1.76 0 0 1-.895.257c-.703 0-1.25-.423-1.25-1.154z" fill="#000" fill-rule="nonzero"/></svg>