<svg width="121" height="54" xmlns="http://www.w3.org/2000/svg" xmlns:xlink="http://www.w3.org/1999/xlink"><defs><path d="M13.809 31.534a.099.099 0 0 0-.106.092.098.098 0 0 0 .094.106.1.1 0 0 0 .107-.093.1.1 0 0 0-.095-.105zm4.515 7.71l-.445-1.228c.53-.162 1.44-.51 1.848-.741l-.272.893.922.308a11.07 11.07 0 0 1-2.053.768zm-2.763 1.104c-1.072 0-2.295-.247-2.657-.376l.548-1.487c.455.133 1.4.274 2.086.27h.044c.686.004 1.63-.137 2.087-.27l.547 1.487c-.36.129-1.584.376-2.655.376zm-4.817-1.872l.923-.308-.273-.893c.407.231 1.319.58 1.847.74l-.446 1.23a11.115 11.115 0 0 1-2.051-.769zm9.674-.273l-.561-.215.155-.583.17-.634s-.994.542-2.395.948c-.398.114-.698.166-.698.166v.433s-.75.13-1.507.13h-.044c-.758 0-1.506-.13-1.506-.13v-.433s-.302-.052-.698-.166a13.185 13.185 0 0 1-2.395-.948l.168.634.158.583-.563.215-.624.235c.715.346 1.707.85 2.614 1.1l-.214.587s1.152.526 3.069.531v.001h.026c1.92-.006 3.07-.532 3.07-.532l-.216-.587c.908-.25 1.901-.754 2.613-1.1l-.622-.235zm-7.201-23.676l.255.027.11-.233.322-.69.596.31.23.118.185-.183.644-.64.645.64.185.183.23-.119.594-.31.326.69.108.234.255-.027.244-.03a5.811 5.811 0 0 0-.253.691c-.643-.36-1.48-.565-2.334-.565-.85 0-1.686.205-2.332.565a5.875 5.875 0 0 0-.253-.69l.243.03zm2.342.456c1.143 0 2.056.38 2.561.785 0 0 .15-.906.662-1.706l-.92.105-.482-1.026-.924.478-.897-.889-.894.89-.927-.479-.48 1.026-.92-.105c.512.8.661 1.706.661 1.706.509-.405 1.42-.785 2.56-.785zm14.477 15.242s-.397.694-1.31.694h-.01c-1.097-.006-1.538-.677-1.538-.677s.064.873-.331 2.05c-.475 1.42.004 2.433.004 2.433s-.256.07-.55.07c-.113 0-.23-.012-.342-.041-.914-.218-1.142-1.054-1.142-1.054s.084 2.823-3.197 2.823h-.025s.29-.394.374-1.53c.156-2.095 1.57-2.382 1.57-2.382s-.755-.095-1.082-.389c-.511-.465-.474-1.002-.474-1.002 1.153-.016 1.91-.41 2.485-1.08.625-.723.727-1.504.727-1.504s-.62.565-1.82.565a3.42 3.42 0 0 1-.334-.017c-.568-.046-.96-.408-.96-.408 1.249-.804 2.125-2.206 1.348-4.318-.623-1.693-2.118-2.957-3.625-3.91-.5-.314-.78-.663-.78-.963 0-.708 1.003-.73 1.413-1.205.475-.553.177-1.448-.234-1.988 0 0 .139-.028.357-.028.433 0 1.183.11 1.8.75.819.85.48 1.777.48 1.777l.218.043c.131.028.262.033.398.04l.087.002c1.19 0 1.722-1.249 1.722-1.249s1.264 1.561-.597 2.785c-.32.209-.462.403-.425.61l.029.135.133.024c1.349.367 2.032 1.302 2.866 2.364 1.266 1.615 3.057 1.667 3.278 1.667h.024s-.408 1.295-1.613 1.295l-.057-.001c-.554-.02-.838-.233-.838-.233s-.215 2.94 1.971 3.852zm-1.076-3.221c1.477 0 1.971-1.508 1.991-1.573l.166-.531-.554.017h-.002a3.958 3.958 0 0 1-2.98-1.517l-.11-.137c-.755-.964-1.47-1.88-2.751-2.298.037-.034.09-.075.163-.122.679-.448 1.074-.993 1.173-1.625.146-.952-.46-1.71-.486-1.741l-.411-.51-.257.605c-.017.038-.45 1.007-1.359 1.007h-.067l-.18-.01c.032-.433-.047-1.102-.652-1.73-.727-.755-1.618-.869-2.084-.869-.25 0-.415.031-.433.033l-.621.123.383.508c.3.39.573 1.112.25 1.488-.104.12-.316.217-.52.315-.417.193-.99.462-.99 1.148 0 .443.344.907.965 1.301 1.84 1.16 2.974 2.372 3.464 3.71.759 2.056-.231 3.23-1.192 3.848l-.43.278.377.347c.051.045.511.453 1.193.512.13.008.253.016.369.016.436 0 .809-.07 1.111-.162a2.836 2.836 0 0 1-.314.445c-.549.639-1.225.93-2.196.945l-.361.006-.028.363c-.003.074-.03.748.605 1.32.097.089.215.162.338.221-.431.39-.869 1.068-.954 2.23-.071.97-.302 1.329-.305 1.332l-.398.612.72.01c1.192 0 2.104-.33 2.736-.984.374-.387.587-.824.714-1.21a1.935 1.935 0 0 0 1.258.463c.336 0 .618-.072.65-.08l.46-.121-.204-.432c-.015-.034-.399-.9.014-2.134.178-.535.27-1.013.314-1.385.29.152.678.277 1.18.279 1.139 0 1.642-.855 1.664-.89l.224-.393-.415-.172c-1.359-.566-1.66-2.086-1.72-2.908.123.024.263.046.422.05l.07.002zm-1.66-6.452c.275 0 .596.094.9.408.951.97 1.837 1.024 1.837 1.024-.161.358-.628.672-1.11.672-.113 0-.225-.017-.336-.056-.655-.222-.89-1.208-2.04-1.822 0 0 .321-.226.749-.226zm-.936.577c.551.294.872.689 1.153 1.039.277.342.54.67.95.807.146.05.3.074.46.074.615 0 1.234-.378 1.469-.902l.236-.526-.571-.034c-.027 0-.762-.068-1.58-.907-.336-.343-.743-.524-1.181-.524-.536 0-.933.269-.976.296l-.525.371.565.306zm.259 5.236v.02c-.332-2.685-2.274-4.624-4.436-5.802-.2-.108-.385-.199-.563-.286.657.103 1.717.115 2.536-.597 0 0-1.252.924-3.816.085.71.462 2.088 1.114 3.348 2.17 3.147 2.776.896 5.484.896 5.484 1.13-1.185 1.178-2.454.845-3.49.595.994.976 2.202.917 3.691-.087 2.134-1.255 3.979-2.485 5.461-.59.72-.723 1.604-.723 1.604s.239-.78.923-1.583c1.317-1.548 2.444-3.156 2.591-5.474.136.421.698 1.59 1.588 2.03 0 0-1.119-.676-1.621-3.313zM9.499 36.523c-3.28 0-3.196-2.823-3.196-2.823s-.23.836-1.143 1.054c-.11.03-.227.04-.34.04-.295 0-.55-.069-.55-.069s.477-1.014.002-2.433c-.393-1.177-.33-2.05-.33-2.05s-.44.67-1.537.677h-.011c-.912 0-1.31-.694-1.31-.694 2.185-.911 1.971-3.852 1.971-3.852s-.284.213-.838.233l-.058.001c-1.205 0-1.613-1.295-1.613-1.295H.57c.223 0 2.012-.052 3.278-1.667.834-1.062 1.518-1.996 2.865-2.364l.135-.024.03-.135c.037-.207-.104-.401-.425-.61-1.861-1.224-.597-2.784-.597-2.784s.529 1.248 1.722 1.248l.086-.002c.134-.007.267-.012.397-.04l.22-.043s-.34-.926.48-1.776a2.472 2.472 0 0 1 2.155-.723c-.41.54-.707 1.435-.233 1.988.41.475 1.412.497 1.412 1.205 0 .3-.279.65-.78.963-1.507.953-3.002 2.217-3.624 3.91-.776 2.112.1 3.514 1.35 4.318 0 0-.393.362-.962.408a3.416 3.416 0 0 1-.335.017c-1.198 0-1.819-.565-1.819-.565s.103.78.724 1.505c.58.669 1.335 1.063 2.489 1.079 0 0 .036.537-.474 1.002-.328.294-1.082.389-1.082.389s1.414.288 1.57 2.382c.084 1.136.37 1.53.37 1.53H9.5zm.35-.226c-.002-.003-.231-.362-.305-1.332-.085-1.162-.523-1.84-.955-2.23.124-.059.24-.132.338-.22.635-.573.608-1.248.604-1.32l-.025-.364-.363-.006c-.97-.015-1.646-.306-2.195-.945-.127-.15-.23-.299-.314-.445.302.093.672.162 1.11.162.117 0 .24-.008.369-.016a2.172 2.172 0 0 0 1.194-.512l.378-.347-.43-.278c-.965-.619-1.95-1.792-1.194-3.849.49-1.337 1.624-2.548 3.466-3.709.621-.394.962-.858.962-1.301 0-.686-.57-.955-.989-1.148-.203-.098-.416-.195-.519-.315-.324-.376-.05-1.098.25-1.488l.386-.508-.625-.123c-.018-.002-.182-.033-.432-.033-.466 0-1.356.114-2.082.87-.606.627-.686 1.296-.654 1.729l-.18.01h-.066c-.912 0-1.343-.97-1.36-1.007l-.256-.605-.415.51c-.023.03-.63.79-.482 1.74.097.633.494 1.178 1.173 1.626.074.047.125.088.162.122-1.282.418-1.997 1.334-2.752 2.298l-.109.137a3.96 3.96 0 0 1-2.982 1.517L0 24.9l.17.531c.02.065.512 1.573 1.99 1.573l.071-.002c.157-.004.297-.026.421-.05-.06.822-.362 2.342-1.72 2.908l-.416.172.225.392c.021.036.526.89 1.667.89a2.53 2.53 0 0 0 1.178-.278c.044.372.135.85.313 1.385.413 1.234.028 2.1.014 2.134l-.204.432.46.122c.031.007.315.08.65.08a1.933 1.933 0 0 0 1.258-.463c.125.385.34.822.713 1.209.634.654 1.545.984 2.736.984l.721-.01-.399-.612zM2.92 20.96c.304-.314.625-.409.901-.409.426 0 .748.227.748.227-1.15.615-1.386 1.6-2.043 1.822a.986.986 0 0 1-.333.055c-.482 0-.95-.313-1.109-.671 0 0 .885-.054 1.836-1.024zm-.727 2.089c.159 0 .313-.024.46-.074.411-.137.673-.465.95-.807.283-.35.6-.745 1.152-1.04l.567-.304-.526-.372c-.045-.028-.44-.296-.975-.296-.439 0-.846.18-1.183.525-.818.838-1.551.906-1.578.907l-.57.033.234.526c.236.524.854.902 1.47.902zm2.578 4.591c-.061-1.49.32-2.697.916-3.692-.332 1.037-.287 2.306.845 3.49 0 0-2.252-2.707.897-5.483 1.26-1.056 2.637-1.708 3.347-2.17-2.564.839-3.815-.085-3.815-.085.818.712 1.878.7 2.535.597-.177.087-.365.178-.563.286-2.162 1.178-4.104 3.117-4.437 5.802v-.02c-.502 2.637-1.62 3.313-1.62 3.313.89-.44 1.45-1.609 1.586-2.03.148 2.318 1.275 3.926 2.593 5.474.683.802.924 1.583.924 1.583s-.133-.884-.727-1.604c-1.227-1.482-2.395-3.327-2.48-5.46zm10.048-5.432v.532c.183-.223.536-.178.536-.178v.768s-.012.378-.146.541h.766c-.132-.163-.146-.541-.146-.541v-.768s.355-.045.536.178v-.532H14.82zm-.329-3.158c.246.195.387.228.391.23l.096.045v-.501l-.9-.38s.008.291.413.606zm2.139 0c.406-.315.414-.605.414-.605l-.9.379v.501l.095-.044c.005-.003.146-.036.39-.23zm-1.07-1.335l-2.166-.858c.185-.438 1.034-.81 2.166-.812 1.134.002 1.983.374 2.166.812l-2.166.858zm1.615 2.69l-1.456.77v-3.117l1.976-.673-.52 3.02zm.902.828l.666.388h.009l.167.098a1.962 1.962 0 0 0-.904.54c-.01.008-.017.017-.026.027-.056.06-.11.123-.163.188l-.031.04c-.052.067-.1.135-.147.206l-.024.036c-.055.082-.108.17-.161.262-.474.82-1.23 1.31-1.903 1.31-.672 0-1.429-.49-1.902-1.31a5.321 5.321 0 0 0-.158-.258c-.011-.016-.02-.032-.031-.045a4.562 4.562 0 0 0-.141-.198l-.035-.045a3.933 3.933 0 0 0-.158-.184l-.029-.03a1.965 1.965 0 0 0-.905-.54l.17-.097h.007l.667-.388.684-.393 1.827.998.004-.004.005.004 1.828-.998.684.393zm2.626 2.773c-.15.395-.272.822-.272 1.247v2.744c-.57-.096-.638-.713-.64-.74l-.01-.126-.124-.01a.87.87 0 0 1-.552-.265c-.28-.281-.28-.737-.28-.74-.004.022-.308.45.045.918.149.196.364.318.643.366.065.342.32.826.919.9v1.342h-1.686c-.777-.434-.448-1.198-.433-1.23l.066-.146-.148-.056c-.842-.313-.61-1.156-.6-1.192l.035-.123-.115-.055c-.695-.323-.6-1.193-.592-1.23-.213.174-.29.528-.143.876-.08.092-.187.202-.304.324a.947.947 0 0 1-.742-.878l-.002-.103-.094-.036c-.282-.105-.474-.261-.57-.472a.93.93 0 0 1-.04-.594 2.363 2.363 0 0 0 .49.052h.013c.083 0 .165-.006.246-.014.449-.045.95-.238 1.474-.759h3.416zm-2.106 11.957l.188-.984c.01-.059.022-.126.03-.183a1.045 1.045 0 0 0 .364.073c.288 0 .455-.152.567-.281l.144-.17-.118-.184a17.9 17.9 0 0 0-.472-.717 3.686 3.686 0 0 1-.116-.171c-.228-.343-.514-.773-1.088-.773l-.05.001a.826.826 0 0 0-.242.05 1.306 1.306 0 0 0-.56-.129 1.72 1.72 0 0 0-.57.112c-.038.01-.071.022-.099.028l-1.07-.106c-.014-.003-.058-.029-.111-.092v-.005l.231-.093c-.065-.776-.807-1.252-1.22-1.414a.436.436 0 0 0-.12-.218l-.23-.22-.203.244-.1.125-1.5-.62.976 1.23-.385.587c-.141.15.015.3.015.3l.398.276.412-.154c.014 0 .027.003.04.004-.019.063-.045.31-.062.38l-.716-.142-.753.426a.897.897 0 0 0-.296 1.08l.084.183.119.259.263-.11a.02.02 0 0 0 .01-.004c-.095.303-.056.592.112.78l.16.202.212.27.234-.252c.068-.068.292-.319.36-.533l.05-.164-.113-.125-.02-.024.13-.212.934.221.21.05.112-.186.06-.101c.012-.022.015-.025.059-.025.032 0 .066.003.101.011.353.067.678.1.967.1.28 0 .447-.01.647-.077 0 0 .502.572.519.594l-.307.952-.014.058c-.582.047-.865.175-1.208.518-.497-.495-.85-.547-2.186-.547-1.6 0-2.686-.941-2.686-2.446v-3.677h9.742l.001 3.677c0 1.22-.712 2.07-1.836 2.348zm-6-2.079l.05.127c-.033.111-.413.268-.413.268l-.082-.18a.602.602 0 0 1 .196-.715l.616-.377.654.14a.587.587 0 0 0 .112.363l-.685-.132-.41.284c-.07.049-.074.138-.038.222zm5.897 1.039l-.21 1.1a4.407 4.407 0 0 1-.422.035L18.08 35c.067-.313-.773-.412-1.189-1.03-.202.23-.584.298-.968.298-.35 0-.7-.056-.913-.098a.945.945 0 0 0-.155-.015c-.123 0-.235.039-.313.169l-.06.103-1.146-.27-.285.473c-.04.077-.043.141.022.213l.077.085c-.053.167-.291.42-.291.42l-.17-.213c-.135-.151-.113-.428.027-.684l.455-.77.97.14-.15-.344c-.203-.456.105-1.036.138-1.37-.01.1-.103.123-.211.123-.098 0-.207-.019-.28-.019-.028 0-.053.003-.066.013l-.263.16-.207-.184c-.025-.035-.033-.118.028-.18l.48-.54-.567-.665.794.4.242-.295c.067.066.038.237.038.237.248.006.943.392.98 1.292.002.028.002.059.002.088l.018.03c.049.068.185.241.357.258l1.097.109h.004c.12 0 .36-.142.667-.142.168 0 .354.042.553.168 0 0 .1-.08.261-.088l.038-.001c.492 0 .697.447.961.817.199.283.464.702.464.702-.098.117-.189.182-.342.182a.712.712 0 0 1-.141-.015c-.528-.097-.604-1.186-.905-1.272a.183.183 0 0 0-.048-.006c-.098 0-.14.086-.14.086.138.371.057.521.206.808.11.212.307.386.388.47 0 0-.022.16-.045.28zm-1.01 1.142c-.148 0-.285.002-.406.006l.32-1.004c.051-.14-.203-.318-.308-.475.159.1.569.318.766.405-.02.033-.372 1.068-.372 1.068zm-4.78-9.054l.046-1.747.39-.415.246.516-.484 1.677-.198-.031zm.281.541a.689.689 0 0 0 .26.275 3.17 3.17 0 0 1-.048.494c-.008.039-.018.074-.028.11-.006.022-.013.04-.018.055-.119 0-.353-.015-.545-.084-.212-.08-.529-.47-.456-.9.092-.057.305-.177.504-.177.153 0 .258.072.331.227zm4.523.469c-.3.222-1.073.79-1.355.986l-2.701-.487.019-.072c.035-.141.071-.333.073-.559l2.27.037.044-.045c.035-.034.754-.732 1.121-1.133.087.11.196.214.34.306-.05.267-.029.647.19.967zm-3.673-4.015c.324.324.642.526.944.636-.039.157-.09.48.055.8.12.26.335.46.647.593.033.32.236.802.794 1.015-.245.247-.483.481-.579.575l-2.266-.036a.408.408 0 0 1-.179-.166c-.004-.011-.011-.018-.016-.029l.37.06.023.001c.072 0 .134-.05.146-.123a.148.148 0 0 0-.122-.17l-.455-.072.504-1.75-.478-1.01-.766.813-.047 1.82-.515-.083c-.08-.015-.156.043-.17.124a.15.15 0 0 0 .124.17l.216.033a1.6 1.6 0 0 0-.135.084l-.044.03-.012.055c-.125.51.159.995.465 1.212l-.011.064a.287.287 0 0 0 .052.22.283.283 0 0 0 .237.122.29.29 0 0 0 .28-.227c.115.014.22.017.29.017h.061l2.973.539.05-.034c.237-.166 1.141-.826 1.437-1.046.082.071.173.135.282.187-.096.323-.102.82.277 1.212H10.69v-4.389c0-.425-.123-.852-.27-1.247h3.415zm-.41-6.621l1.977.673v3.117l-1.456-.77-.52-3.02zm4.824-.376c0-.761-1.276-1.446-2.684-1.446h-.009c-1.408 0-2.683.685-2.683 1.446l.028.187.562 3.24-.565.328-1.461.857h.005s-.329.17-.482.273c-.556.388-.674.955-.35 1.188.078-.461.442-.943 1.123-.943.49 0 .864.254 1.165.634.078.096.152.2.22.31.085.138.17.261.254.378H9.606c.277.559.54 1.15.54 1.792v8.362c0 2.025 1.55 2.99 3.229 2.99 1.296 0 1.47-.06 2.186.657.712-.716.887-.657 2.185-.657 1.678 0 3.227-.965 3.227-2.99v-8.362c0-.642.263-1.233.54-1.792h-3.765c.084-.117.169-.24.253-.379.07-.11.143-.213.22-.309.303-.382.676-.634 1.167-.634.68 0 1.043.482 1.124.943.323-.233.206-.8-.354-1.188-.15-.104-.48-.273-.48-.273h.006l-1.463-.857-.563-.329.563-3.24.027-.186zm26.886 6.844c.11-.172.22-.342.338-.51h.068v3.81h1.725v-6.47H45.54l-1.931 2.951c-.109.168-.217.331-.325.489-.107.159-.217.328-.324.503h-.068v-3.942h-1.725v6.47h1.725c.325-.451.642-.911.952-1.383.311-.472.624-.938.939-1.397.126-.175.244-.35.351-.521zm5.483.614h2.566v2.686h1.725v-6.47h-1.725v2.462h-2.566v-2.461h-1.725v6.47h1.725v-2.687zm9.432 1.205c-.171.123-.397.185-.675.185h-1.113V24.27h1.1c.288 0 .517.067.688.198.17.133.255.332.255.596 0 .282-.085.485-.255.609zm1.98-.594c0-.664-.229-1.177-.685-1.544-.458-.365-1.07-.549-1.84-.549H58.26v-2.302h-1.725v6.47h3.044c.743 0 1.338-.166 1.782-.496.446-.332.668-.857.668-1.58zm20.43.78a1.932 1.932 0 0 1-.666.17v-4.18c.566.044 1.002.257 1.307.64.306.385.46.86.46 1.423 0 .337-.05.632-.15.888a2.01 2.01 0 0 1-.39.647 1.745 1.745 0 0 1-.56.411zm-2.285.158a2.077 2.077 0 0 1-.69-.172 1.724 1.724 0 0 1-.572-.411 1.944 1.944 0 0 1-.387-.642 2.468 2.468 0 0 1-.143-.88c0-.563.157-1.038.469-1.422.313-.384.754-.597 1.323-.642v4.169zm4.046.29c.303-.29.541-.638.718-1.045a3.48 3.48 0 0 0 .264-1.39c0-.484-.086-.925-.258-1.322a3.072 3.072 0 0 0-.71-1.025 3.287 3.287 0 0 0-1.081-.675 4.425 4.425 0 0 0-1.36-.285v-2.433l-1.619.623v1.81c-.479.028-.93.126-1.35.298-.421.173-.787.402-1.094.689a3.137 3.137 0 0 0-.726 1.018 3.138 3.138 0 0 0-.264 1.302c0 .521.081.986.244 1.397.163.41.396.763.7 1.057.302.297.664.527 1.085.69.422.162.89.257 1.405.283v2.741l1.633-.623v-2.13a4.16 4.16 0 0 0 1.338-.291 3.304 3.304 0 0 0 1.075-.69zm8.558-1.507c-.099.255-.23.47-.39.647-.161.176-.35.314-.56.411a1.936 1.936 0 0 1-.667.172v-4.182c.565.045 1.001.258 1.307.642.306.384.458.859.458 1.423 0 .335-.048.631-.148.887zm-3.234 1.217a2.066 2.066 0 0 1-.693-.172 1.717 1.717 0 0 1-.57-.412 1.926 1.926 0 0 1-.387-.641 2.466 2.466 0 0 1-.142-.88c0-.563.155-1.038.468-1.422.312-.384.754-.597 1.324-.642v4.169zm4.763-.755c.175-.406.263-.869.263-1.39 0-.484-.085-.925-.257-1.322a3.066 3.066 0 0 0-.71-1.025 3.29 3.29 0 0 0-1.082-.675 4.394 4.394 0 0 0-1.36-.285v-2.433l-1.617.622v1.811a4.18 4.18 0 0 0-1.352.298c-.42.173-.785.402-1.093.689-.307.285-.55.626-.726 1.018a3.137 3.137 0 0 0-.265 1.302c0 .521.08.987.245 1.397.163.41.395.762.7 1.058.302.296.664.526 1.085.689.42.162.89.256 1.406.283v2.74l1.631-.621v-2.132a4.19 4.19 0 0 0 1.339-.29 3.334 3.334 0 0 0 1.075-.69c.302-.29.542-.637.718-1.044zM34.179 19.44h2.511v7.72h1.794v-7.72h2.427v-1.507h-6.732v1.507zm35.028 1.277H67.24l-2.31 2.75v-2.783h-1.711v6.476h1.71v-3.15l2.257 3.15h2.034l-2.538-3.465 2.525-2.978zm4.805 3.995a2.17 2.17 0 0 1-.272.63c-.12.18-.267.321-.444.422a1.192 1.192 0 0 1-.607.153c-.463 0-.818-.176-1.065-.523-.245-.348-.369-.84-.369-1.476 0-.563.12-1.031.356-1.401.237-.371.582-.557 1.036-.557.482 0 .846.184 1.092.55.247.366.368.845.368 1.436 0 .273-.031.528-.095.766zm.946-3.241a2.746 2.746 0 0 0-.996-.668 3.414 3.414 0 0 0-1.273-.232c-.461 0-.885.077-1.273.232-.39.154-.723.375-1.004.66-.28.288-.496.642-.65 1.06-.153.418-.23.893-.23 1.423 0 .51.074.974.223 1.389.148.415.36.767.63 1.058.272.29.599.516.984.676a3.37 3.37 0 0 0 1.293.237c.46 0 .885-.078 1.274-.232a2.82 2.82 0 0 0 1.003-.668c.28-.291.5-.646.656-1.065.159-.418.238-.893.238-1.423 0-.51-.077-.975-.231-1.388a3.065 3.065 0 0 0-.644-1.06zM40.563 35.12c0-.373-.114-.663-.342-.872-.228-.208-.544-.313-.95-.313h-1.878v2.36h1.879c.411 0 .729-.1.953-.3.225-.198.338-.49.338-.876zm-1.33-1.823c.636 0 1.135.152 1.498.455.363.303.545.76.545 1.372 0 .594-.177 1.048-.53 1.364-.353.315-.848.473-1.484.473H36.69v-6.294h3.998v.667h-3.295v1.963h1.84zm5.81 1.644a3.27 3.27 0 0 0-.576-.261 2.184 2.184 0 0 0-.691-.097c-.307 0-.566.082-.777.247-.212.164-.317.4-.317.71 0 .31.09.545.269.706.179.161.438.242.777.242.249-.013.487-.08.715-.204.227-.122.426-.27.6-.444v-.9zm-1.012-2.785c.546 0 .965.128 1.257.382.292.255.438.637.438 1.146v3.277h-.684v-.464h-.019c-.25.226-.5.374-.747.445-.247.071-.483.106-.708.106-.186 0-.372-.027-.558-.081a1.484 1.484 0 0 1-.506-.26 1.322 1.322 0 0 1-.366-.458 1.518 1.518 0 0 1-.14-.685c0-.23.043-.44.13-.626.087-.187.208-.345.366-.477.157-.132.344-.233.559-.304a2.25 2.25 0 0 1 .708-.106c.205 0 .412.02.622.062.208.041.428.125.66.252v-.585c0-.364-.092-.63-.274-.795-.183-.166-.456-.248-.82-.248-.23 0-.445.028-.643.086a3.776 3.776 0 0 0-.595.232l-.231-.537c.225-.108.462-.195.713-.262.25-.066.53-.1.838-.1zm5.905 4.805v-2.175H47.47v2.175h-.684v-4.728h.684v1.953h2.466v-1.953h.684v4.728h-.684zm5.212-4.708l-2.13 2.175 2.188 2.533h-.82l-2.042-2.407v2.407h-.684v-4.708h.684v2.088l2.023-2.088h.78z"/></defs><g fill="none" fill-rule="evenodd"><mask fill="#fff"><use xlink:href="#a"/></mask><use fill="#151515" fill-rule="nonzero" xlink:href="#a"/><g mask="url(#b)" fill="#151515"><path d="M0 0h120.8v53.8H0z"/></g></g></svg>