<svg width="121" height="54" viewBox="0 0 121 54" fill="none" xmlns="http://www.w3.org/2000/svg">
<path d="M13.809 31.534C13.796 31.533 13.7829 31.5347 13.7705 31.5388C13.7582 31.5429 13.7467 31.5494 13.7369 31.5579C13.727 31.5665 13.719 31.5769 13.7132 31.5886C13.7073 31.6003 13.7039 31.613 13.703 31.626C13.7019 31.6392 13.7035 31.6525 13.7077 31.665C13.7119 31.6776 13.7186 31.6892 13.7273 31.6991C13.7361 31.709 13.7468 31.717 13.7588 31.7227C13.7708 31.7283 13.7838 31.7315 13.797 31.732C13.8101 31.7329 13.8233 31.7313 13.8358 31.7271C13.8483 31.723 13.8599 31.7164 13.8698 31.7077C13.8798 31.6991 13.8879 31.6886 13.8938 31.6768C13.8996 31.665 13.9031 31.6521 13.904 31.639C13.9047 31.6258 13.9027 31.6127 13.8983 31.6003C13.8939 31.5879 13.8871 31.5765 13.8783 31.5668C13.8695 31.557 13.8588 31.5491 13.8469 31.5435C13.835 31.5378 13.8221 31.5346 13.809 31.534V31.534ZM18.324 39.244L17.879 38.016C18.409 37.854 19.319 37.506 19.727 37.275L19.455 38.168L20.377 38.476C19.7198 38.7993 19.0321 39.0565 18.324 39.244ZM15.561 40.348C14.489 40.348 13.266 40.101 12.904 39.972L13.452 38.485C13.907 38.618 14.852 38.759 15.538 38.755H15.582C16.268 38.759 17.212 38.618 17.669 38.485L18.216 39.972C17.856 40.101 16.632 40.348 15.561 40.348V40.348ZM10.744 38.476L11.667 38.168L11.394 37.275C11.801 37.506 12.713 37.855 13.241 38.015L12.795 39.245C12.0877 39.0568 11.4007 38.7992 10.744 38.476V38.476ZM20.418 38.203L19.857 37.988L20.012 37.405L20.182 36.771C20.182 36.771 19.188 37.313 17.787 37.719C17.389 37.833 17.089 37.885 17.089 37.885V38.318C17.089 38.318 16.339 38.448 15.582 38.448H15.538C14.78 38.448 14.032 38.318 14.032 38.318V37.885C14.032 37.885 13.73 37.833 13.334 37.719C12.5066 37.4819 11.7045 37.1644 10.939 36.771L11.107 37.405L11.265 37.988L10.702 38.203L10.078 38.438C10.793 38.784 11.785 39.288 12.692 39.538L12.478 40.125C12.478 40.125 13.63 40.651 15.547 40.656V40.657H15.573C17.493 40.651 18.643 40.125 18.643 40.125L18.427 39.538C19.335 39.288 20.328 38.784 21.04 38.438L20.418 38.203ZM13.217 14.527L13.472 14.554L13.582 14.321L13.904 13.631L14.5 13.941L14.73 14.059L14.915 13.876L15.559 13.236L16.204 13.876L16.389 14.059L16.619 13.94L17.213 13.63L17.539 14.32L17.647 14.554L17.902 14.527L18.146 14.497C18.0472 14.7217 17.9626 14.9525 17.893 15.188C17.25 14.828 16.413 14.623 15.559 14.623C14.709 14.623 13.873 14.828 13.227 15.188C13.1571 14.9529 13.0727 14.7225 12.974 14.498L13.217 14.528V14.527ZM15.559 14.983C16.702 14.983 17.615 15.363 18.12 15.768C18.12 15.768 18.27 14.862 18.782 14.062L17.862 14.167L17.38 13.141L16.456 13.619L15.559 12.73L14.665 13.62L13.738 13.141L13.258 14.167L12.338 14.062C12.85 14.862 12.999 15.768 12.999 15.768C13.508 15.363 14.419 14.983 15.559 14.983V14.983ZM30.036 30.225C30.036 30.225 29.639 30.919 28.726 30.919H28.716C27.619 30.913 27.178 30.242 27.178 30.242C27.178 30.242 27.242 31.115 26.847 32.292C26.372 33.712 26.851 34.725 26.851 34.725C26.851 34.725 26.595 34.795 26.301 34.795C26.188 34.795 26.071 34.783 25.959 34.754C25.045 34.536 24.817 33.7 24.817 33.7C24.817 33.7 24.901 36.523 21.62 36.523H21.595C21.595 36.523 21.885 36.129 21.969 34.993C22.125 32.898 23.539 32.611 23.539 32.611C23.539 32.611 22.784 32.516 22.457 32.222C21.946 31.757 21.983 31.22 21.983 31.22C23.136 31.204 23.893 30.81 24.468 30.14C25.093 29.417 25.195 28.636 25.195 28.636C25.195 28.636 24.575 29.201 23.375 29.201C23.2635 29.2008 23.152 29.1951 23.041 29.184C22.473 29.138 22.081 28.776 22.081 28.776C23.33 27.972 24.206 26.57 23.429 24.458C22.806 22.765 21.311 21.501 19.804 20.548C19.304 20.234 19.024 19.885 19.024 19.585C19.024 18.877 20.027 18.855 20.437 18.38C20.912 17.827 20.614 16.932 20.203 16.392C20.203 16.392 20.342 16.364 20.56 16.364C20.993 16.364 21.743 16.474 22.36 17.114C23.179 17.964 22.84 18.891 22.84 18.891L23.058 18.934C23.189 18.962 23.32 18.967 23.456 18.974L23.543 18.976C24.733 18.976 25.265 17.727 25.265 17.727C25.265 17.727 26.529 19.288 24.668 20.512C24.348 20.721 24.206 20.915 24.243 21.122L24.272 21.257L24.405 21.281C25.754 21.648 26.437 22.583 27.271 23.645C28.537 25.26 30.328 25.312 30.549 25.312H30.573C30.573 25.312 30.165 26.607 28.96 26.607L28.903 26.606C28.349 26.586 28.065 26.373 28.065 26.373C28.065 26.373 27.85 29.313 30.036 30.225V30.225ZM28.96 27.004C30.437 27.004 30.931 25.496 30.951 25.431L31.117 24.9L30.563 24.917H30.561C29.9837 24.8969 29.4177 24.7507 28.9029 24.4886C28.3881 24.2266 27.9369 23.855 27.581 23.4L27.471 23.263C26.716 22.299 26.001 21.383 24.72 20.965C24.757 20.931 24.81 20.89 24.883 20.843C25.562 20.395 25.957 19.85 26.056 19.218C26.202 18.266 25.596 17.508 25.57 17.477L25.159 16.967L24.902 17.572C24.885 17.61 24.452 18.579 23.543 18.579H23.476L23.296 18.569C23.328 18.136 23.249 17.467 22.644 16.839C21.917 16.084 21.026 15.97 20.56 15.97C20.31 15.97 20.145 16.001 20.127 16.003L19.506 16.126L19.889 16.634C20.189 17.024 20.462 17.746 20.139 18.122C20.035 18.242 19.823 18.339 19.619 18.437C19.202 18.63 18.629 18.899 18.629 19.585C18.629 20.028 18.973 20.492 19.594 20.886C21.434 22.046 22.568 23.258 23.058 24.596C23.817 26.652 22.827 27.826 21.866 28.444L21.436 28.722L21.813 29.069C21.864 29.114 22.324 29.522 23.006 29.581C23.136 29.589 23.259 29.597 23.375 29.597C23.811 29.597 24.184 29.527 24.486 29.435C24.3959 29.593 24.2907 29.7421 24.172 29.88C23.623 30.519 22.947 30.81 21.976 30.825L21.615 30.831L21.587 31.194C21.584 31.268 21.557 31.942 22.192 32.514C22.289 32.603 22.407 32.676 22.53 32.735C22.099 33.125 21.661 33.803 21.576 34.965C21.505 35.935 21.274 36.294 21.271 36.297L20.873 36.909L21.593 36.919C22.785 36.919 23.697 36.589 24.329 35.935C24.703 35.548 24.916 35.111 25.043 34.725C25.3938 35.0243 25.8399 35.1885 26.301 35.188C26.637 35.188 26.919 35.116 26.951 35.108L27.411 34.987L27.207 34.555C27.192 34.521 26.808 33.655 27.221 32.421C27.399 31.886 27.491 31.408 27.535 31.036C27.825 31.188 28.213 31.313 28.715 31.315C29.854 31.315 30.357 30.46 30.379 30.425L30.603 30.032L30.188 29.86C28.829 29.294 28.528 27.774 28.468 26.952C28.591 26.976 28.731 26.998 28.89 27.002L28.96 27.004V27.004ZM27.3 20.552C27.575 20.552 27.896 20.646 28.2 20.96C29.151 21.93 30.037 21.984 30.037 21.984C29.876 22.342 29.409 22.656 28.927 22.656C28.814 22.656 28.702 22.639 28.591 22.6C27.936 22.378 27.701 21.392 26.551 20.778C26.551 20.778 26.872 20.552 27.3 20.552V20.552ZM26.364 21.129C26.915 21.423 27.236 21.818 27.517 22.168C27.794 22.51 28.057 22.838 28.467 22.975C28.613 23.025 28.767 23.049 28.927 23.049C29.542 23.049 30.161 22.671 30.396 22.147L30.632 21.621L30.061 21.587C30.034 21.587 29.299 21.519 28.481 20.68C28.145 20.337 27.738 20.156 27.3 20.156C26.764 20.156 26.367 20.425 26.324 20.452L25.799 20.823L26.364 21.129V21.129ZM26.623 26.365V26.385C26.291 23.7 24.349 21.761 22.187 20.583C21.987 20.475 21.802 20.384 21.624 20.297C22.281 20.4 23.341 20.412 24.16 19.7C24.16 19.7 22.908 20.624 20.344 19.785C21.054 20.247 22.432 20.899 23.692 21.955C26.839 24.731 24.588 27.439 24.588 27.439C25.718 26.254 25.766 24.985 25.433 23.949C26.028 24.943 26.409 26.151 26.35 27.64C26.263 29.774 25.095 31.619 23.865 33.101C23.275 33.821 23.142 34.705 23.142 34.705C23.142 34.705 23.381 33.925 24.065 33.122C25.382 31.574 26.509 29.966 26.656 27.648C26.792 28.069 27.354 29.238 28.244 29.678C28.244 29.678 27.125 29.002 26.623 26.365V26.365ZM9.499 36.523C6.219 36.523 6.303 33.7 6.303 33.7C6.303 33.7 6.073 34.536 5.16 34.754C5.05 34.784 4.933 34.794 4.82 34.794C4.525 34.794 4.27 34.725 4.27 34.725C4.27 34.725 4.747 33.711 4.272 32.292C3.879 31.115 3.942 30.242 3.942 30.242C3.942 30.242 3.502 30.912 2.405 30.919H2.394C1.482 30.919 1.084 30.225 1.084 30.225C3.269 29.314 3.055 26.373 3.055 26.373C3.055 26.373 2.771 26.586 2.217 26.606L2.159 26.607C0.954 26.607 0.546 25.312 0.546 25.312H0.57C0.793 25.312 2.582 25.26 3.848 23.645C4.682 22.583 5.366 21.649 6.713 21.281L6.848 21.257L6.878 21.122C6.915 20.915 6.774 20.721 6.453 20.512C4.592 19.288 5.856 17.728 5.856 17.728C5.856 17.728 6.385 18.976 7.578 18.976L7.664 18.974C7.798 18.967 7.931 18.962 8.061 18.934L8.281 18.891C8.281 18.891 7.941 17.965 8.761 17.115C9.03616 16.8309 9.37549 16.6169 9.75047 16.4911C10.1255 16.3653 10.5252 16.3313 10.916 16.392C10.506 16.932 10.209 17.827 10.683 18.38C11.093 18.855 12.095 18.877 12.095 19.585C12.095 19.885 11.816 20.235 11.315 20.548C9.808 21.501 8.313 22.765 7.691 24.458C6.915 26.57 7.791 27.972 9.041 28.776C9.041 28.776 8.648 29.138 8.079 29.184C7.96768 29.1951 7.85588 29.2008 7.744 29.201C6.546 29.201 5.925 28.636 5.925 28.636C5.925 28.636 6.028 29.416 6.649 30.141C7.229 30.81 7.984 31.204 9.138 31.22C9.138 31.22 9.174 31.757 8.664 32.222C8.336 32.516 7.582 32.611 7.582 32.611C7.582 32.611 8.996 32.899 9.152 34.993C9.236 36.129 9.522 36.523 9.522 36.523H9.5H9.499ZM9.849 36.297C9.847 36.294 9.618 35.935 9.544 34.965C9.459 33.803 9.021 33.125 8.589 32.735C8.713 32.676 8.829 32.603 8.927 32.515C9.562 31.942 9.535 31.267 9.531 31.195L9.506 30.831L9.143 30.825C8.173 30.81 7.497 30.519 6.948 29.88C6.821 29.73 6.718 29.581 6.634 29.435C6.936 29.528 7.306 29.597 7.744 29.597C7.861 29.597 7.984 29.589 8.113 29.581C8.55391 29.5361 8.97056 29.3575 9.307 29.069L9.685 28.722L9.255 28.444C8.29 27.825 7.305 26.652 8.061 24.595C8.551 23.258 9.685 22.047 11.527 20.886C12.148 20.492 12.489 20.028 12.489 19.585C12.489 18.899 11.919 18.63 11.5 18.437C11.297 18.339 11.084 18.242 10.981 18.122C10.657 17.746 10.931 17.024 11.231 16.634L11.617 16.126L10.992 16.003C10.974 16.001 10.81 15.97 10.56 15.97C10.094 15.97 9.204 16.084 8.478 16.84C7.872 17.467 7.792 18.136 7.824 18.569L7.644 18.579H7.578C6.666 18.579 6.235 17.609 6.218 17.572L5.962 16.967L5.547 17.477C5.524 17.507 4.917 18.267 5.065 19.217C5.162 19.85 5.559 20.395 6.238 20.843C6.312 20.89 6.363 20.931 6.4 20.965C5.118 21.383 4.403 22.299 3.648 23.263L3.539 23.4C3.18277 23.8551 2.73123 24.2268 2.21607 24.4889C1.70092 24.7509 1.13464 24.8971 0.557 24.917L0 24.9L0.17 25.431C0.19 25.496 0.682 27.004 2.16 27.004L2.231 27.002C2.388 26.998 2.528 26.976 2.652 26.952C2.592 27.774 2.29 29.294 0.932 29.86L0.516 30.032L0.741 30.424C0.762 30.46 1.267 31.314 2.408 31.314C2.81738 31.318 3.22161 31.2226 3.586 31.036C3.63 31.408 3.721 31.886 3.899 32.421C4.312 33.655 3.927 34.521 3.913 34.555L3.709 34.987L4.169 35.109C4.2 35.116 4.484 35.189 4.819 35.189C5.28014 35.1896 5.72632 35.0254 6.077 34.726C6.202 35.111 6.417 35.548 6.79 35.935C7.424 36.589 8.335 36.919 9.526 36.919L10.247 36.909L9.848 36.297H9.849ZM2.92 20.96C3.224 20.646 3.545 20.551 3.821 20.551C4.247 20.551 4.569 20.778 4.569 20.778C3.419 21.393 3.183 22.378 2.526 22.6C2.41899 22.6373 2.30634 22.6559 2.193 22.655C1.711 22.655 1.243 22.342 1.084 21.984C1.084 21.984 1.969 21.93 2.92 20.96ZM2.193 23.049C2.352 23.049 2.506 23.025 2.653 22.975C3.064 22.838 3.326 22.51 3.603 22.168C3.886 21.818 4.203 21.423 4.755 21.128L5.322 20.824L4.796 20.452C4.751 20.424 4.356 20.156 3.821 20.156C3.382 20.156 2.975 20.336 2.638 20.681C1.82 21.519 1.087 21.587 1.06 21.588L0.49 21.621L0.724 22.147C0.96 22.671 1.578 23.049 2.194 23.049H2.193ZM4.771 27.64C4.71 26.15 5.091 24.943 5.687 23.948C5.355 24.985 5.4 26.254 6.532 27.438C6.532 27.438 4.28 24.731 7.429 21.955C8.689 20.899 10.066 20.247 10.776 19.785C8.212 20.624 6.961 19.7 6.961 19.7C7.779 20.412 8.839 20.4 9.496 20.297C9.319 20.384 9.131 20.475 8.933 20.583C6.771 21.761 4.829 23.7 4.496 26.385V26.365C3.994 29.002 2.876 29.678 2.876 29.678C3.766 29.238 4.326 28.069 4.462 27.648C4.61 29.966 5.737 31.574 7.055 33.122C7.738 33.924 7.979 34.705 7.979 34.705C7.979 34.705 7.846 33.821 7.252 33.101C6.025 31.619 4.857 29.774 4.772 27.641L4.771 27.64ZM14.819 22.208V22.74C15.002 22.517 15.355 22.562 15.355 22.562V23.33C15.355 23.33 15.343 23.708 15.209 23.871H15.975C15.843 23.708 15.829 23.33 15.829 23.33V22.562C15.829 22.562 16.184 22.517 16.365 22.74V22.208H14.82H14.819ZM14.49 19.05C14.736 19.245 14.877 19.278 14.881 19.28L14.977 19.325V18.824L14.077 18.444C14.077 18.444 14.085 18.735 14.49 19.05V19.05ZM16.629 19.05C17.035 18.735 17.043 18.445 17.043 18.445L16.143 18.824V19.325L16.238 19.281C16.243 19.278 16.384 19.245 16.628 19.051L16.629 19.05ZM15.559 17.715L13.393 16.857C13.578 16.419 14.427 16.047 15.559 16.045C16.693 16.047 17.542 16.419 17.725 16.857L15.559 17.715ZM17.174 20.405L15.718 21.175V18.058L17.694 17.385L17.174 20.405ZM18.076 21.233L18.742 21.621H18.751L18.918 21.719C18.5731 21.8132 18.2605 22 18.014 22.259C18.004 22.267 17.997 22.276 17.988 22.286C17.932 22.346 17.878 22.409 17.825 22.474L17.794 22.514C17.742 22.581 17.694 22.649 17.647 22.72L17.623 22.756C17.568 22.838 17.515 22.926 17.462 23.018C16.988 23.838 16.232 24.328 15.559 24.328C14.887 24.328 14.13 23.838 13.657 23.018C13.6068 22.9305 13.5541 22.8445 13.499 22.76C13.488 22.744 13.479 22.728 13.468 22.715C13.4228 22.6477 13.3757 22.5817 13.327 22.517L13.292 22.472C13.2412 22.409 13.1885 22.3477 13.134 22.288L13.105 22.258C12.8581 21.9989 12.5452 21.8122 12.2 21.718L12.37 21.621H12.377L13.044 21.233L13.728 20.84L15.555 21.838L15.559 21.834L15.564 21.838L17.392 20.84L18.076 21.233V21.233ZM20.702 24.006C20.552 24.401 20.43 24.828 20.43 25.253V27.997C19.86 27.901 19.792 27.284 19.79 27.257L19.78 27.131L19.656 27.121C19.446 27.1025 19.2498 27.0083 19.104 26.856C18.824 26.575 18.824 26.119 18.824 26.116C18.82 26.138 18.516 26.566 18.869 27.034C19.018 27.23 19.233 27.352 19.512 27.4C19.577 27.742 19.832 28.226 20.431 28.3V29.642H18.745C17.968 29.208 18.297 28.444 18.312 28.412L18.378 28.266L18.23 28.21C17.388 27.897 17.62 27.054 17.63 27.018L17.665 26.895L17.55 26.84C16.855 26.517 16.95 25.647 16.958 25.61C16.745 25.784 16.668 26.138 16.815 26.486C16.735 26.578 16.628 26.688 16.511 26.81C16.3081 26.7653 16.1256 26.6551 15.9915 26.4964C15.8575 26.3378 15.7793 26.1394 15.769 25.932L15.767 25.829L15.673 25.793C15.391 25.688 15.199 25.532 15.103 25.321C15.0249 25.1327 15.0109 24.924 15.063 24.727C15.2241 24.7613 15.3883 24.7788 15.553 24.779H15.566C15.649 24.779 15.731 24.773 15.812 24.765C16.261 24.72 16.762 24.527 17.286 24.006H20.702V24.006ZM18.596 35.963L18.784 34.979C18.794 34.92 18.806 34.853 18.814 34.796C18.93 34.8418 19.0533 34.8666 19.178 34.869C19.466 34.869 19.633 34.717 19.745 34.588L19.889 34.418L19.771 34.234C19.6194 33.9912 19.462 33.7522 19.299 33.517C19.2587 33.4611 19.2201 33.4041 19.183 33.346C18.955 33.003 18.669 32.573 18.095 32.573L18.045 32.574C17.9623 32.5784 17.8807 32.5953 17.803 32.624C17.6282 32.5399 17.4369 32.4959 17.243 32.495C17.048 32.4997 16.8553 32.5376 16.673 32.607C16.635 32.617 16.602 32.629 16.574 32.635L15.504 32.529C15.49 32.526 15.446 32.5 15.393 32.437V32.432L15.624 32.339C15.559 31.563 14.817 31.087 14.404 30.925C14.386 30.8422 14.3443 30.7664 14.284 30.707L14.054 30.487L13.851 30.731L13.751 30.856L12.251 30.236L13.227 31.466L12.842 32.053C12.701 32.203 12.857 32.353 12.857 32.353L13.255 32.629L13.667 32.475C13.681 32.475 13.694 32.478 13.707 32.479C13.688 32.542 13.662 32.789 13.645 32.859L12.929 32.717L12.176 33.143C12.0115 33.2627 11.8926 33.4349 11.8388 33.6311C11.785 33.8274 11.7995 34.0361 11.88 34.223L11.964 34.406L12.083 34.665L12.346 34.555C12.3496 34.5546 12.3531 34.5532 12.356 34.551C12.261 34.854 12.3 35.143 12.468 35.331L12.628 35.533L12.84 35.803L13.074 35.551C13.142 35.483 13.366 35.232 13.434 35.018L13.484 34.854L13.371 34.729L13.351 34.705L13.481 34.493L14.415 34.714L14.625 34.764L14.737 34.578L14.797 34.477C14.809 34.455 14.812 34.452 14.856 34.452C14.888 34.452 14.922 34.455 14.957 34.463C15.31 34.53 15.635 34.563 15.924 34.563C16.204 34.563 16.371 34.553 16.571 34.486C16.571 34.486 17.073 35.058 17.09 35.08L16.783 36.032L16.769 36.09C16.187 36.137 15.904 36.265 15.561 36.608C15.064 36.113 14.711 36.061 13.375 36.061C11.775 36.061 10.689 35.12 10.689 33.615V29.938H20.431L20.432 33.615C20.432 34.835 19.72 35.685 18.596 35.963V35.963ZM12.596 33.884L12.646 34.011C12.613 34.122 12.233 34.279 12.233 34.279L12.151 34.099C12.0992 33.975 12.0904 33.8373 12.1259 33.7077C12.1614 33.5782 12.2392 33.4642 12.347 33.384L12.963 33.007L13.617 33.147C13.6131 33.277 13.6525 33.4047 13.729 33.51L13.044 33.378L12.634 33.662C12.564 33.711 12.56 33.8 12.596 33.884V33.884ZM18.493 34.923L18.283 36.023C18.143 36.0414 18.0021 36.0531 17.861 36.058L18.08 35C18.147 34.687 17.307 34.588 16.891 33.97C16.689 34.2 16.307 34.268 15.923 34.268C15.573 34.268 15.223 34.212 15.01 34.17C14.9588 34.1607 14.907 34.1557 14.855 34.155C14.732 34.155 14.62 34.194 14.542 34.324L14.482 34.427L13.336 34.157L13.051 34.63C13.011 34.707 13.008 34.771 13.073 34.843L13.15 34.928C13.097 35.095 12.859 35.348 12.859 35.348L12.689 35.135C12.554 34.984 12.576 34.707 12.716 34.451L13.171 33.681L14.141 33.821L13.991 33.477C13.788 33.021 14.096 32.441 14.129 32.107C14.119 32.207 14.026 32.23 13.918 32.23C13.82 32.23 13.711 32.211 13.638 32.211C13.61 32.211 13.585 32.214 13.572 32.224L13.309 32.384L13.102 32.2C13.077 32.165 13.069 32.082 13.13 32.02L13.61 31.48L13.043 30.815L13.837 31.215L14.079 30.92C14.146 30.986 14.117 31.157 14.117 31.157C14.365 31.163 15.06 31.549 15.097 32.449C15.099 32.477 15.099 32.508 15.099 32.537L15.117 32.567C15.166 32.635 15.302 32.808 15.474 32.825L16.571 32.934H16.575C16.695 32.934 16.935 32.792 17.242 32.792C17.41 32.792 17.596 32.834 17.795 32.96C17.795 32.96 17.895 32.88 18.056 32.872L18.094 32.871C18.586 32.871 18.791 33.318 19.055 33.688C19.254 33.971 19.519 34.39 19.519 34.39C19.421 34.507 19.33 34.572 19.177 34.572C19.1296 34.5717 19.0824 34.5667 19.036 34.557C18.508 34.46 18.432 33.371 18.131 33.285C18.1153 33.2809 18.0992 33.2788 18.083 33.279C17.985 33.279 17.943 33.365 17.943 33.365C18.081 33.736 18 33.886 18.149 34.173C18.259 34.385 18.456 34.559 18.537 34.643C18.537 34.643 18.515 34.803 18.492 34.923H18.493ZM17.483 36.065C17.335 36.065 17.198 36.067 17.077 36.071L17.397 35.067C17.448 34.927 17.194 34.749 17.089 34.592C17.248 34.692 17.658 34.91 17.855 34.997C17.835 35.03 17.483 36.065 17.483 36.065V36.065ZM12.703 27.011L12.749 25.264L13.139 24.849L13.385 25.365L12.901 27.042L12.703 27.011ZM12.984 27.552C13.0433 27.6661 13.1334 27.7614 13.244 27.827C13.2409 27.9926 13.2249 28.1578 13.196 28.321C13.188 28.36 13.178 28.395 13.168 28.431C13.162 28.453 13.155 28.471 13.15 28.486C13.031 28.486 12.797 28.471 12.605 28.402C12.393 28.322 12.076 27.932 12.149 27.502C12.241 27.445 12.454 27.325 12.653 27.325C12.806 27.325 12.911 27.397 12.984 27.552V27.552ZM17.507 28.021C17.207 28.243 16.434 28.811 16.152 29.007L13.451 28.52L13.47 28.448C13.505 28.307 13.541 28.115 13.543 27.889L15.813 27.926L15.857 27.881C15.892 27.847 16.611 27.149 16.978 26.748C17.065 26.858 17.174 26.962 17.318 27.054C17.268 27.321 17.289 27.701 17.508 28.021H17.507ZM13.834 24.006C14.158 24.33 14.476 24.532 14.778 24.642C14.739 24.799 14.688 25.122 14.833 25.442C14.953 25.702 15.168 25.902 15.48 26.035C15.513 26.355 15.716 26.837 16.274 27.05C16.029 27.297 15.791 27.531 15.695 27.625L13.429 27.589C13.3538 27.5532 13.2913 27.4953 13.25 27.423C13.246 27.412 13.239 27.405 13.234 27.394L13.604 27.454L13.627 27.455C13.699 27.455 13.761 27.405 13.773 27.332C13.7794 27.2933 13.7701 27.2536 13.7472 27.2217C13.7243 27.1898 13.6897 27.1684 13.651 27.162L13.196 27.09L13.7 25.34L13.222 24.33L12.456 25.143L12.409 26.963L11.894 26.88C11.814 26.865 11.738 26.923 11.724 27.004C11.7182 27.0429 11.728 27.0826 11.7512 27.1144C11.7744 27.1462 11.8092 27.1676 11.848 27.174L12.064 27.207C12.0176 27.2327 11.9726 27.2608 11.929 27.291L11.885 27.321L11.873 27.376C11.748 27.886 12.032 28.371 12.338 28.588L12.327 28.652C12.3203 28.6903 12.3215 28.7295 12.3304 28.7673C12.3394 28.8051 12.3559 28.8407 12.379 28.872C12.4054 28.9102 12.4409 28.9414 12.4822 28.9626C12.5236 28.9839 12.5695 28.9947 12.616 28.994C12.6814 28.9933 12.7447 28.9705 12.7956 28.9293C12.8464 28.8881 12.8818 28.8309 12.896 28.767C13.011 28.781 13.116 28.784 13.186 28.784H13.247L16.22 29.323L16.27 29.289C16.507 29.123 17.411 28.463 17.707 28.243C17.789 28.314 17.88 28.378 17.989 28.43C17.893 28.753 17.887 29.25 18.266 29.642H10.69V25.253C10.69 24.828 10.567 24.401 10.42 24.006H13.835H13.834ZM13.424 17.385L15.401 18.058V21.175L13.945 20.405L13.425 17.385H13.424ZM18.248 17.009C18.248 16.248 16.972 15.563 15.564 15.563H15.555C14.147 15.563 12.872 16.248 12.872 17.009L12.9 17.196L13.462 20.436L12.897 20.764L11.436 21.621H11.441C11.441 21.621 11.112 21.791 10.959 21.894C10.403 22.282 10.285 22.849 10.609 23.082C10.687 22.621 11.051 22.139 11.732 22.139C12.222 22.139 12.596 22.393 12.897 22.773C12.975 22.869 13.049 22.973 13.117 23.083C13.202 23.221 13.287 23.344 13.371 23.461H9.606C9.883 24.02 10.146 24.611 10.146 25.253V33.615C10.146 35.64 11.696 36.605 13.375 36.605C14.671 36.605 14.845 36.545 15.561 37.262C16.273 36.546 16.448 36.605 17.746 36.605C19.424 36.605 20.973 35.64 20.973 33.615V25.253C20.973 24.611 21.236 24.02 21.513 23.461H17.748C17.832 23.344 17.917 23.221 18.001 23.082C18.071 22.972 18.144 22.869 18.221 22.773C18.524 22.391 18.897 22.139 19.388 22.139C20.068 22.139 20.431 22.621 20.512 23.082C20.835 22.849 20.718 22.282 20.158 21.894C20.008 21.79 19.678 21.621 19.678 21.621H19.684L18.221 20.764L17.658 20.435L18.221 17.195L18.248 17.009V17.009ZM45.134 23.853C45.244 23.681 45.354 23.511 45.472 23.343H45.54V27.153H47.265V20.683H45.54L43.609 23.634C43.5 23.802 43.392 23.965 43.284 24.123C43.177 24.282 43.067 24.451 42.96 24.626H42.892V20.684H41.167V27.154H42.892C43.217 26.703 43.534 26.243 43.844 25.771C44.155 25.299 44.468 24.833 44.783 24.374C44.909 24.199 45.027 24.024 45.134 23.853V23.853ZM50.617 24.467H53.183V27.153H54.908V20.683H53.183V23.145H50.617V20.684H48.892V27.154H50.617V24.467ZM60.049 25.672C59.878 25.795 59.652 25.857 59.374 25.857H58.261V24.27H59.361C59.649 24.27 59.878 24.337 60.049 24.468C60.219 24.601 60.304 24.8 60.304 25.064C60.304 25.346 60.219 25.549 60.049 25.673V25.672ZM62.029 25.078C62.029 24.414 61.8 23.901 61.344 23.534C60.886 23.169 60.274 22.985 59.504 22.985H58.26V20.683H56.535V27.153H59.579C60.322 27.153 60.917 26.987 61.361 26.657C61.807 26.325 62.029 25.8 62.029 25.077V25.078ZM82.459 25.858C82.2489 25.954 82.0234 26.0116 81.793 26.028V21.848C82.359 21.892 82.795 22.105 83.1 22.488C83.406 22.873 83.56 23.348 83.56 23.911C83.56 24.248 83.51 24.543 83.41 24.799C83.3221 25.0374 83.1897 25.2569 83.02 25.446C82.8628 25.6191 82.6723 25.7589 82.46 25.857L82.459 25.858ZM80.174 26.016C79.9358 25.9987 79.7024 25.9406 79.484 25.844C79.2671 25.7478 79.0724 25.6079 78.912 25.433C78.7426 25.2461 78.6111 25.0281 78.525 24.791C78.4243 24.5088 78.3759 24.2106 78.382 23.911C78.382 23.348 78.539 22.873 78.851 22.489C79.164 22.105 79.605 21.892 80.174 21.847V26.016V26.016ZM84.22 26.306C84.523 26.016 84.761 25.668 84.938 25.261C85.1203 24.8206 85.2101 24.3475 85.202 23.871C85.202 23.387 85.116 22.946 84.944 22.549C84.7799 22.1624 84.5382 21.8135 84.234 21.524C83.9212 21.2306 83.5539 21.0013 83.153 20.849C82.7175 20.683 82.2585 20.5868 81.793 20.564V18.131L80.174 18.754V20.564C79.695 20.592 79.244 20.69 78.824 20.862C78.403 21.035 78.037 21.264 77.73 21.551C77.4221 21.8382 77.1752 22.1844 77.004 22.569C76.8241 22.9792 76.7341 23.4231 76.74 23.871C76.74 24.392 76.821 24.857 76.984 25.268C77.147 25.678 77.38 26.031 77.684 26.325C77.986 26.622 78.348 26.852 78.769 27.015C79.191 27.177 79.659 27.272 80.174 27.298V30.039L81.807 29.416V27.286C82.266 27.2636 82.7181 27.1652 83.145 26.995C83.5448 26.8371 83.91 26.6027 84.22 26.305V26.306ZM92.778 24.799C92.679 25.054 92.548 25.269 92.388 25.446C92.227 25.622 92.038 25.76 91.828 25.857C91.6177 25.9537 91.3918 26.012 91.161 26.029V21.847C91.726 21.892 92.162 22.105 92.468 22.489C92.774 22.873 92.926 23.348 92.926 23.912C92.926 24.247 92.878 24.543 92.778 24.799V24.799ZM89.544 26.016C89.3048 25.9993 89.0703 25.9411 88.851 25.844C88.6346 25.7474 88.4405 25.6072 88.281 25.432C88.1113 25.2457 87.9798 25.0279 87.894 24.791C87.7936 24.5087 87.7455 24.2105 87.752 23.911C87.752 23.348 87.907 22.873 88.22 22.489C88.532 22.105 88.974 21.892 89.544 21.847V26.016V26.016ZM94.307 25.261C94.482 24.855 94.57 24.392 94.57 23.871C94.57 23.387 94.485 22.946 94.313 22.549C94.149 22.1623 93.9074 21.8134 93.603 21.524C93.2898 21.2306 92.9222 21.0013 92.521 20.849C92.0857 20.6824 91.6266 20.5862 91.161 20.564V18.131L89.544 18.753V20.564C89.0799 20.5875 88.623 20.6882 88.192 20.862C87.772 21.035 87.407 21.264 87.099 21.551C86.792 21.836 86.549 22.177 86.373 22.569C86.1927 22.9791 86.1024 23.423 86.108 23.871C86.108 24.392 86.188 24.858 86.353 25.268C86.516 25.678 86.748 26.03 87.053 26.326C87.355 26.622 87.717 26.852 88.138 27.015C88.558 27.177 89.028 27.271 89.544 27.298V30.038L91.175 29.417V27.285C91.6342 27.2624 92.0866 27.1645 92.514 26.995C92.9135 26.8364 93.2785 26.6021 93.589 26.305C93.891 26.015 94.131 25.668 94.307 25.261V25.261ZM34.179 19.44H36.69V27.16H38.484V19.44H40.911V17.933H34.179V19.44ZM69.207 20.717H67.24L64.93 23.467V20.684H63.219V27.16H64.929V24.01L67.186 27.16H69.22L66.682 23.695L69.207 20.717V20.717ZM74.012 24.712C73.9553 24.9351 73.8635 25.1477 73.74 25.342C73.62 25.522 73.473 25.663 73.296 25.764C73.1109 25.8681 72.9014 25.921 72.689 25.917C72.226 25.917 71.871 25.741 71.624 25.394C71.379 25.046 71.255 24.554 71.255 23.918C71.255 23.355 71.375 22.887 71.611 22.517C71.848 22.146 72.193 21.96 72.647 21.96C73.129 21.96 73.493 22.144 73.739 22.51C73.986 22.876 74.107 23.355 74.107 23.946C74.107 24.219 74.076 24.474 74.012 24.712V24.712ZM74.958 21.471C74.6793 21.1777 74.3392 20.9495 73.962 20.803C73.5563 20.6452 73.1242 20.5665 72.689 20.571C72.228 20.571 71.804 20.648 71.416 20.803C71.026 20.957 70.693 21.178 70.412 21.463C70.132 21.751 69.916 22.105 69.762 22.523C69.609 22.941 69.532 23.416 69.532 23.946C69.532 24.456 69.606 24.92 69.755 25.335C69.903 25.75 70.115 26.102 70.385 26.393C70.657 26.683 70.984 26.909 71.369 27.069C71.7803 27.2321 72.2196 27.3126 72.662 27.306C73.122 27.306 73.547 27.228 73.936 27.074C74.3146 26.9262 74.6567 26.6983 74.939 26.406C75.219 26.115 75.439 25.76 75.595 25.341C75.754 24.923 75.833 24.448 75.833 23.918C75.833 23.408 75.756 22.943 75.602 22.53C75.4618 22.1365 75.2427 21.7757 74.958 21.47V21.471ZM40.563 35.12C40.563 34.747 40.449 34.457 40.221 34.248C39.993 34.04 39.677 33.935 39.271 33.935H37.393V36.295H39.272C39.683 36.295 40.001 36.195 40.225 35.995C40.45 35.797 40.563 35.505 40.563 35.119V35.12ZM39.233 33.297C39.869 33.297 40.368 33.449 40.731 33.752C41.094 34.055 41.276 34.512 41.276 35.124C41.276 35.718 41.099 36.172 40.746 36.488C40.393 36.803 39.898 36.961 39.262 36.961H36.69V30.667H40.688V31.334H37.393V33.297H39.233V33.297ZM45.043 34.941C44.8599 34.8356 44.667 34.7482 44.467 34.68C44.2434 34.6108 44.01 34.5781 43.776 34.583C43.469 34.583 43.21 34.665 42.999 34.83C42.787 34.994 42.682 35.23 42.682 35.54C42.682 35.85 42.772 36.085 42.951 36.246C43.13 36.407 43.389 36.488 43.728 36.488C43.977 36.475 44.215 36.408 44.443 36.284C44.67 36.162 44.869 36.014 45.043 35.84V34.94V34.941ZM44.031 32.156C44.577 32.156 44.996 32.284 45.288 32.538C45.58 32.793 45.726 33.175 45.726 33.684V36.961H45.042V36.497H45.023C44.773 36.723 44.523 36.871 44.276 36.942C44.029 37.013 43.793 37.048 43.568 37.048C43.382 37.048 43.196 37.021 43.01 36.967C42.8261 36.9138 42.6543 36.8255 42.504 36.707C42.3493 36.5836 42.2242 36.4271 42.138 36.249C42.0387 36.0347 41.9907 35.8001 41.998 35.564C41.998 35.334 42.041 35.124 42.128 34.938C42.215 34.751 42.336 34.593 42.494 34.461C42.651 34.329 42.838 34.228 43.053 34.157C43.2818 34.0841 43.5209 34.0483 43.761 34.051C43.966 34.051 44.173 34.071 44.383 34.113C44.591 34.154 44.811 34.238 45.043 34.365V33.78C45.043 33.416 44.951 33.15 44.769 32.985C44.586 32.819 44.313 32.737 43.949 32.737C43.719 32.737 43.504 32.765 43.306 32.823C43.1015 32.8834 42.9024 32.961 42.711 33.055L42.48 32.518C42.705 32.41 42.942 32.323 43.193 32.256C43.443 32.19 43.723 32.156 44.031 32.156ZM49.936 36.961V34.786H47.47V36.961H46.786V32.233H47.47V34.186H49.936V32.233H50.62V36.961H49.936V36.961ZM55.148 32.253L53.018 34.428L55.206 36.961H54.386L52.344 34.554V36.961H51.66V32.253H52.344V34.341L54.367 32.253H55.147H55.148Z" fill="white"/>
</svg>
