<svg width="121" height="54" viewBox="0 0 121 54" fill="none" xmlns="http://www.w3.org/2000/svg">
<g clip-path="url(#clip0)">
<path d="M10.055 20.3628C10.467 20.3698 10.859 20.5408 11.145 20.8388C11.432 21.1378 11.588 21.5388 11.578 21.9538C11.578 22.2018 11.516 22.4458 11.4 22.6638L8.37401 29.7168C7.08201 32.1198 5.38301 32.8428 3.59401 32.8428C2.40901 32.8428 1.84201 32.3428 1.84201 31.4548C1.84201 30.6908 2.42701 30.1548 3.32701 30.1548C3.66018 30.172 3.99296 30.1138 4.30049 29.9845C4.60801 29.8551 4.88235 29.658 5.10301 29.4078L1.77601 22.6638C1.65926 22.4453 1.59781 22.2015 1.59701 21.9538C1.5889 21.6002 1.70173 21.2544 1.91685 20.9736C2.13196 20.6929 2.43647 20.4939 2.78001 20.4098C3.12299 20.3272 3.48394 20.3648 3.80248 20.5164C4.12103 20.6681 4.37785 20.9245 4.53001 21.2428L6.67501 25.8658H6.73601L8.59101 21.3408V21.3048L8.62601 21.2378C8.75163 20.9699 8.95119 20.7435 9.20118 20.5853C9.45116 20.4271 9.74116 20.3437 10.037 20.3448L10.056 20.3618L10.055 20.3628ZM63.021 24.2628C64.455 24.2628 66.173 24.9778 66.173 25.9908C66.193 26.3058 66.083 26.6138 65.868 26.8448C65.654 27.0748 65.354 27.2038 65.041 27.2018C64.597 27.2018 63.785 26.7918 63.265 26.7918C63.0368 26.7751 62.8077 26.8087 62.5938 26.89C62.3799 26.9714 62.1865 27.0986 62.027 27.2628C61.8667 27.428 61.7441 27.626 61.6676 27.8432C61.5911 28.0604 61.5626 28.2915 61.584 28.5208C61.584 29.7838 62.205 30.3068 63.336 30.3068C64.06 30.3068 64.63 29.9138 65.072 29.9138C65.385 29.9138 65.683 30.0408 65.902 30.2658C66.122 30.4898 66.242 30.7928 66.24 31.1058C66.24 32.0848 65.02 32.7988 63.178 32.7988C60.418 32.7988 58.628 31.2848 58.628 28.5068C58.628 25.7288 60.665 24.2498 63.036 24.2498L63.022 24.2628H63.021V24.2628ZM53.232 24.2488C55.833 24.2488 57.67 26.1748 57.67 28.5238C57.67 30.8738 55.828 32.7988 53.233 32.7988C52.662 32.8119 52.094 32.7118 51.5619 32.5041C51.0298 32.2964 50.5441 31.9853 50.133 31.5888C49.2995 30.7841 48.8188 29.682 48.796 28.5238C48.7993 27.948 48.9177 27.3786 49.1444 26.8493C49.3711 26.32 49.7015 25.8414 50.116 25.4418C50.5286 25.0432 51.0175 24.7321 51.5533 24.5271C52.0891 24.3221 52.6607 24.2274 53.234 24.2488H53.232V24.2488ZM53.232 30.3778C54.12 30.3778 54.773 29.7348 54.773 28.5238C54.773 27.4568 54.275 26.6708 53.233 26.6708C52.19 26.6708 51.675 27.4568 51.675 28.5238C51.675 29.7338 52.332 30.3778 53.233 30.3778H53.232ZM46.132 24.2488C46.905 24.2558 47.532 24.8788 47.548 25.6558V31.4628C47.548 32.2548 46.911 32.8968 46.123 32.8968C45.7441 32.8952 45.3813 32.7433 45.1143 32.4744C44.8473 32.2055 44.6979 31.8417 44.699 31.4628V29.8598H42.036V31.4808C42.0259 31.8459 41.8746 32.1928 41.6138 32.4485C41.353 32.7042 41.0032 32.8488 40.638 32.8518C40.2656 32.8568 39.9059 32.7166 39.6352 32.4608C39.3645 32.205 39.2041 31.8538 39.188 31.4818V25.6738C39.1967 25.2959 39.3536 24.9365 39.6248 24.6733C39.8961 24.4101 40.26 24.264 40.638 24.2668C41.407 24.2738 42.028 24.9008 42.036 25.6738V27.2418H44.698V25.6918C44.7033 25.3157 44.8569 24.9569 45.1255 24.6935C45.3941 24.4302 45.7559 24.2836 46.132 24.2858V24.2488V24.2488ZM33.535 24.2858C36.135 24.2858 37.973 26.2098 37.973 28.5598C37.973 30.9098 36.13 32.8348 33.536 32.8348C32.965 32.8478 32.397 32.7475 31.865 32.5399C31.3329 32.3322 30.8472 32.0212 30.436 31.6248C29.6022 30.8208 29.1214 29.7188 29.099 28.5608C29.102 27.9849 29.2203 27.4155 29.447 26.8862C29.6738 26.3568 30.0043 25.8783 30.419 25.4788C30.8315 25.0803 31.3202 24.7693 31.8558 24.5643C32.3914 24.3593 32.9629 24.2646 33.536 24.2858H33.535V24.2858ZM33.535 30.4128C34.423 30.4128 35.075 29.7698 35.075 28.5598C35.075 27.4918 34.578 26.7058 33.535 26.7058C32.492 26.7058 31.978 27.4918 31.978 28.5598C31.978 29.7698 32.634 30.4128 33.536 30.4128H33.535V30.4128ZM27.078 24.2808C27.447 24.2878 27.798 24.4448 28.048 24.7158C28.299 24.9898 28.43 25.3528 28.41 25.7228C28.3754 26.1317 28.1993 26.5157 27.912 26.8088L26.672 28.3408V28.4658L28.089 30.2528C28.394 30.5838 28.573 31.0128 28.595 31.4628C28.594 31.8328 28.445 32.1868 28.182 32.4438C28.0522 32.5712 27.8981 32.6714 27.729 32.7384C27.5598 32.8054 27.3789 32.8378 27.197 32.8338C26.9819 32.8414 26.7681 32.7967 26.5741 32.7035C26.3801 32.6103 26.2115 32.4714 26.083 32.2988L24.23 29.7698H23.608V31.4808C23.5979 31.8457 23.4467 32.1925 23.1862 32.4482C22.9256 32.7039 22.5761 32.8485 22.211 32.8518C21.8383 32.8573 21.4781 32.7173 21.2069 32.4615C20.9358 32.2057 20.7751 31.8542 20.759 31.4818V25.6738C20.7684 25.2959 20.9257 24.9369 21.197 24.6738C21.4684 24.4107 21.8321 24.2646 22.21 24.2668C22.978 24.2738 23.6 24.9008 23.607 25.6738V27.2418H24.215C24.681 26.5938 25.75 25.1118 25.945 24.8918C26.0696 24.7041 26.2377 24.5493 26.435 24.4405C26.6322 24.3317 26.8528 24.2721 27.078 24.2668V24.2808H27.079H27.078ZM18.389 24.4768C18.734 24.4838 19.061 24.6298 19.297 24.8818C19.533 25.1338 19.658 25.4718 19.645 25.8168C19.644 26.1503 19.5116 26.47 19.2765 26.7066C19.0414 26.9432 18.7225 27.0776 18.389 27.0808H16.83V31.4808C16.8202 31.8458 16.669 32.1927 16.4084 32.4484C16.1478 32.7042 15.7981 32.8488 15.433 32.8518C15.0607 32.8565 14.7011 32.7162 14.4305 32.4605C14.1598 32.2048 13.9993 31.8538 13.983 31.4818V27.0818H12.388C12.0542 27.0749 11.7366 26.9363 11.5046 26.6961C11.2727 26.4559 11.1452 26.1336 11.15 25.7998C11.1424 25.6303 11.1684 25.4609 11.2267 25.3016C11.2849 25.1422 11.3742 24.996 11.4893 24.8714C11.6045 24.7468 11.7432 24.6462 11.8974 24.5756C12.0517 24.5049 12.2184 24.4655 12.388 24.4598H18.388V24.4768H18.389V24.4768ZM10.055 18.7598C9.49045 18.7589 8.93611 18.9103 8.45038 19.1981C7.96465 19.4858 7.56551 19.8992 7.29501 20.3948C7.25058 20.4675 7.21212 20.5438 7.18001 20.6228L7.14901 20.6938L6.62101 21.9538L5.96401 20.5598C5.93738 20.5032 5.90767 20.4481 5.87501 20.3948C5.53557 19.7882 5.00402 19.3117 4.36405 19.0403C3.72409 18.7689 3.01204 18.7181 2.34001 18.8958C1.66737 19.0762 1.07323 19.4738 0.650023 20.0269C0.226819 20.5799 -0.00170557 21.2574 9.5845e-06 21.9538C0.00100958 22.4298 0.11001 22.8988 0.32001 23.3238L0.34601 23.3828L2.91901 28.5638C2.19478 28.6225 1.51908 28.9513 1.02598 29.485C0.532872 30.0186 0.258397 30.7182 0.25701 31.4448C0.25701 32.8248 1.14501 34.4428 3.60301 34.4428C6.29301 34.4428 8.37301 33.1028 9.78501 30.4848C9.80801 30.4428 9.82901 30.4018 9.84701 30.3598L10.783 28.1758C11.2534 28.5097 11.8161 28.689 12.393 28.6888V31.4808C12.4202 32.2644 12.75 33.007 13.3131 33.5526C13.8762 34.0982 14.6289 34.4044 15.413 34.4068C16.1972 34.4046 16.95 34.0986 17.5132 33.5529C18.0764 33.0072 18.4061 32.2645 18.433 31.4808V28.6848C18.683 28.6828 18.93 28.6488 19.17 28.5818V31.4768C19.1856 32.1182 19.4035 32.7383 19.7927 33.2484C20.1819 33.7584 20.7225 34.1324 21.337 34.3168C21.9506 34.499 22.6062 34.4812 23.2091 34.266C23.8119 34.0508 24.3305 33.6494 24.69 33.1198L24.78 33.2448C25.0532 33.6262 25.4146 33.9358 25.8334 34.1474C26.2522 34.359 26.7159 34.4661 27.185 34.4598C27.6846 34.4668 28.178 34.3478 28.6193 34.1135C29.0607 33.8793 29.4358 33.5375 29.71 33.1198C30.8825 34.0573 32.3552 34.5378 33.855 34.4721C35.3548 34.4065 36.7799 33.7991 37.866 32.7628C38.1172 33.2851 38.5126 33.7246 39.0056 34.0294C39.4986 34.3342 40.0685 34.4915 40.648 34.4828C41.2274 34.4723 41.7917 34.2963 42.2744 33.9756C42.757 33.6549 43.1379 33.2028 43.372 32.6728C43.6146 33.2058 44.0061 33.6573 44.4993 33.9731C44.9925 34.2889 45.5664 34.4555 46.152 34.4528C46.7379 34.4483 47.31 34.2746 47.7995 33.9526C48.2889 33.6306 48.6749 33.174 48.911 32.6378C50.0552 33.7782 51.6003 34.4256 53.2157 34.4415C54.8311 34.4574 56.3886 33.8405 57.555 32.7228C57.747 32.5328 57.927 32.3298 58.091 32.1148C59.139 33.5848 60.918 34.4378 63.186 34.4378C64.2276 34.4667 65.2596 34.2317 66.186 33.7548C66.6749 33.5111 67.0879 33.1384 67.3803 32.677C67.6728 32.2155 67.8334 31.6829 67.845 31.1368C67.845 30.0368 67.207 29.0368 66.212 28.5818C66.6971 28.353 67.1049 27.9878 67.3856 27.5308C67.6662 27.0738 67.8074 26.5448 67.792 26.0088C67.792 24.9148 67.092 23.9408 65.871 23.3288C64.9906 22.9023 64.0253 22.6798 63.047 22.6778C61.5227 22.6512 60.0423 23.1886 58.89 24.1868C58.6 24.4448 58.338 24.7338 58.108 25.0488C57.9374 24.8241 57.7506 24.6122 57.549 24.4148C56.3779 23.3024 54.8214 22.6871 53.2063 22.6979C51.5912 22.7087 50.0431 23.3448 48.887 24.4728C48.6471 23.943 48.2597 23.4934 47.7712 23.1778C47.2827 22.8621 46.7136 22.6938 46.132 22.6928C45.5502 22.6933 44.9808 22.8615 44.492 23.1772C44.0033 23.4928 43.6158 23.9426 43.376 24.4728C43.1417 23.9425 42.7588 23.4916 42.2736 23.1744C41.7884 22.8573 41.2217 22.6875 40.642 22.6858C40.0648 22.6849 39.4992 22.8476 39.0108 23.155C38.5223 23.4625 38.1309 23.902 37.882 24.4228C36.7715 23.3712 35.3145 22.7625 33.786 22.7115C32.2575 22.6604 30.7632 23.1706 29.585 24.1458C29.3299 23.7119 28.9669 23.3515 28.5313 23.0995C28.0957 22.8475 27.6023 22.7126 27.099 22.7078C26.6455 22.7148 26.1995 22.8245 25.7946 23.0287C25.3896 23.2329 25.0362 23.5263 24.761 23.8868L24.677 23.9848C24.4023 23.5911 24.0368 23.2694 23.6113 23.0471C23.1858 22.8248 22.713 22.7084 22.233 22.7078C21.4718 22.6971 20.7339 22.971 20.164 23.4758C19.6596 23.0761 19.0325 22.863 18.389 22.8728H13.034C13.1266 22.5748 13.1745 22.2648 13.176 21.9528C13.188 20.2108 11.8 18.7858 10.069 18.7638L10.055 18.7598V18.7598Z" fill="white"/>
</g>
<defs>
<clipPath id="clip0">
<rect width="121" height="54" fill="white"/>
</clipPath>
</defs>
</svg>
