<svg width="121" height="54" xmlns="http://www.w3.org/2000/svg" xmlns:xlink="http://www.w3.org/1999/xlink"><defs><path d="M10.055 20.363c.412.007.804.178 1.09.476.287.299.443.7.433 1.115 0 .248-.062.492-.178.71l-3.026 7.053c-1.292 2.403-2.991 3.126-4.78 3.126-1.185 0-1.752-.5-1.752-1.388 0-.764.585-1.3 1.485-1.3a2.215 2.215 0 0 0 1.776-.747l-3.327-6.744a1.517 1.517 0 0 1-.179-.71A1.553 1.553 0 0 1 2.78 20.41a1.54 1.54 0 0 1 1.75.833l2.145 4.623h.061l1.855-4.525v-.036l.035-.067a1.552 1.552 0 0 1 1.411-.893l.019.017zm52.966 3.9c1.434 0 3.152.715 3.152 1.728.02.315-.09.623-.305.854-.214.23-.514.359-.827.357-.444 0-1.256-.41-1.776-.41a1.567 1.567 0 0 0-1.238.471 1.594 1.594 0 0 0-.443 1.258c0 1.263.621 1.786 1.752 1.786.724 0 1.294-.393 1.736-.393.313 0 .611.127.83.352.22.224.34.527.338.84 0 .979-1.22 1.693-3.062 1.693-2.76 0-4.55-1.514-4.55-4.292 0-2.778 2.037-4.257 4.408-4.257l-.014.013h-.001zm-9.789-.014c2.601 0 4.438 1.926 4.438 4.275 0 2.35-1.842 4.275-4.437 4.275a4.322 4.322 0 0 1-3.1-1.21 4.38 4.38 0 0 1-1.337-3.065 4.315 4.315 0 0 1 1.32-3.082 4.26 4.26 0 0 1 3.118-1.193h-.002zm0 6.129c.888 0 1.541-.643 1.541-1.854 0-1.067-.498-1.853-1.54-1.853-1.043 0-1.558.786-1.558 1.853 0 1.21.657 1.854 1.558 1.854zm-7.1-6.129c.773.007 1.4.63 1.416 1.407v5.807c0 .792-.637 1.434-1.425 1.434a1.43 1.43 0 0 1-1.424-1.434V29.86h-2.663v1.621a1.41 1.41 0 0 1-1.398 1.371 1.432 1.432 0 0 1-1.45-1.37v-5.808a1.44 1.44 0 0 1 1.45-1.407c.769.007 1.39.634 1.398 1.407v1.568h2.662v-1.55a1.426 1.426 0 0 1 1.434-1.406v-.037zm-12.597.037c2.6 0 4.438 1.924 4.438 4.274s-1.843 4.275-4.437 4.275a4.325 4.325 0 0 1-3.1-1.21 4.374 4.374 0 0 1-1.337-3.064 4.31 4.31 0 0 1 1.32-3.082 4.26 4.26 0 0 1 3.117-1.193h-.001zm0 6.127c.888 0 1.54-.643 1.54-1.853 0-1.068-.497-1.854-1.54-1.854-1.043 0-1.557.786-1.557 1.854 0 1.21.656 1.853 1.558 1.853h-.001zm-6.457-6.132c.369.007.72.164.97.435.251.274.382.637.362 1.007a1.764 1.764 0 0 1-.498 1.086l-1.24 1.532v.125l1.417 1.787c.305.331.484.76.506 1.21-.001.37-.15.724-.413.981a1.363 1.363 0 0 1-.985.39 1.33 1.33 0 0 1-1.114-.535L24.23 29.77h-.622v1.711a1.41 1.41 0 0 1-1.397 1.371 1.432 1.432 0 0 1-1.452-1.37v-5.808a1.443 1.443 0 0 1 1.451-1.407c.768.007 1.39.634 1.397 1.407v1.568h.608c.466-.648 1.535-2.13 1.73-2.35a1.4 1.4 0 0 1 1.133-.625v.014h.001zm-8.689.196c.345.007.672.153.908.405s.361.59.348.935a1.268 1.268 0 0 1-1.256 1.264H16.83v4.4a1.409 1.409 0 0 1-1.397 1.371 1.433 1.433 0 0 1-1.45-1.37v-4.4h-1.595A1.264 1.264 0 0 1 11.15 25.8a1.283 1.283 0 0 1 1.238-1.34h6v.017h.001zm-8.334-5.717a3.139 3.139 0 0 0-2.76 1.635 1.578 1.578 0 0 0-.115.228l-.031.071-.528 1.26-.657-1.394a1.709 1.709 0 0 0-.089-.165 3.133 3.133 0 0 0-3.535-1.499A3.158 3.158 0 0 0 0 21.954c.001.476.11.945.32 1.37l.026.059 2.573 5.181a2.896 2.896 0 0 0-2.662 2.881c0 1.38.888 2.998 3.346 2.998 2.69 0 4.77-1.34 6.182-3.958.023-.042.044-.083.062-.125l.936-2.184a2.78 2.78 0 0 0 1.61.513v2.792a3.031 3.031 0 0 0 3.02 2.926 3.03 3.03 0 0 0 3.02-2.926v-2.796c.25-.002.497-.036.737-.103v2.895a3.042 3.042 0 0 0 2.167 2.84 3.015 3.015 0 0 0 3.353-1.197l.09.125a2.91 2.91 0 0 0 2.405 1.215 2.97 2.97 0 0 0 2.525-1.34 6.203 6.203 0 0 0 8.156-.357 3.036 3.036 0 0 0 2.782 1.72 3.038 3.038 0 0 0 2.724-1.81 3.039 3.039 0 0 0 2.78 1.78 3.04 3.04 0 0 0 2.759-1.815 6.184 6.184 0 0 0 8.644.085c.192-.19.372-.393.536-.608 1.048 1.47 2.827 2.323 5.095 2.323a6.18 6.18 0 0 0 3-.683 2.996 2.996 0 0 0 1.659-2.618c0-1.1-.638-2.1-1.633-2.555a2.757 2.757 0 0 0 1.58-2.573c0-1.094-.7-2.068-1.921-2.68a6.508 6.508 0 0 0-2.824-.651 6.184 6.184 0 0 0-4.157 1.509c-.29.258-.552.547-.782.862a5.785 5.785 0 0 0-.559-.634 6.245 6.245 0 0 0-8.662.058 3.03 3.03 0 0 0-2.755-1.78 3.028 3.028 0 0 0-2.756 1.78 2.999 2.999 0 0 0-2.734-1.787 3.054 3.054 0 0 0-2.76 1.737 6.261 6.261 0 0 0-8.297-.277 2.916 2.916 0 0 0-2.486-1.438 3 3 0 0 0-2.338 1.179l-.084.098a2.985 2.985 0 0 0-2.444-1.277 3.056 3.056 0 0 0-2.069.768 2.79 2.79 0 0 0-1.775-.603h-5.355a3.15 3.15 0 0 0 .142-.92c.012-1.742-1.376-3.167-3.107-3.189l-.014-.004z" id="a"/></defs><g fill="none" fill-rule="evenodd"><mask id="b" fill="#fff"><use xlink:href="#a"/></mask><use fill="#151515" fill-rule="nonzero" xlink:href="#a"/><g mask="url(#b)" fill="#151515"><path d="M0 0h120.8v53.8H0z"/></g></g></svg>