<svg width="121" height="54" xmlns="http://www.w3.org/2000/svg" xmlns:xlink="http://www.w3.org/1999/xlink"><defs><path d="M28.557 46.15a.727.727 0 1 1-1.341.562l-.574-1.397h-3.207l-.574 1.397a.74.74 0 0 1-.952.39.732.732 0 0 1-.392-.951l2.835-6.862c.17-.406.469-.5.685-.5.308 0 .558.172.69.502l2.83 6.86zm-2.508-2.284l-1.012-2.445-1.005 2.445h2.017zm-11.243-.817c0 2.106-1.152 4.23-3.725 4.23h-.015c-1.22 0-2.219-.43-2.897-1.246-.618-.742-.945-1.779-.943-3.01.01-2.647 1.52-4.359 3.856-4.359 2.335.007 3.725 1.649 3.725 4.386v-.001zm-1.534 0c0-1.886-.736-2.846-2.184-2.853-2.022 0-2.32 1.775-2.33 2.833-.007.862.198 1.56.586 2.023.387.458.964.694 1.726.697h.012c1.614 0 2.19-1.396 2.19-2.7zm7.75-4.25h-4.926a.745.745 0 0 0 0 1.487h1.712v6.11c0 .412.333.751.746.751.204 0 .389-.08.524-.223a.718.718 0 0 0 .221-.526l-.003-6.11h1.726a.742.742 0 0 0 .74-.745.742.742 0 0 0-.74-.743v-.001zm-14.884.097a.745.745 0 0 0-1.017.273l-1.867 3.236-1.867-3.236a.742.742 0 1 0-1.285.742l2.412 4.179v2.332a.743.743 0 1 0 1.484 0V44.09l2.41-4.18a.737.737 0 0 0-.269-1.014v.001zM20.768 6.03c.9 0 1.624.732 1.624 1.632v1.605a8.095 8.095 0 0 1-2.325 5.714 7.875 7.875 0 0 1-3.866 2.177l-.145.03v4.148l.145.035a7.91 7.91 0 0 1 3.873 2.176 8.114 8.114 0 0 1 2.318 5.712v1.605c0 .902-.724 1.634-1.623 1.634a1.628 1.628 0 0 1-1.627-1.634V29.26a4.857 4.857 0 0 0-1.392-3.424 4.626 4.626 0 0 0-3.316-1.408 4.654 4.654 0 0 0-3.326 1.408A4.88 4.88 0 0 0 9.72 29.26v1.605a1.63 1.63 0 0 1-1.623 1.634 1.633 1.633 0 0 1-1.628-1.634V29.26a8.08 8.08 0 0 1 2.322-5.711 7.886 7.886 0 0 1 3.862-2.176l.149-.036V17.19l-.149-.03a7.889 7.889 0 0 1-3.862-2.177 8.09 8.09 0 0 1-2.323-5.714V7.662A1.63 1.63 0 0 1 8.094 6.03a1.63 1.63 0 0 1 1.624 1.632v1.605c0 1.29.496 2.512 1.39 3.43a4.63 4.63 0 0 0 6.643 0 4.879 4.879 0 0 0 1.391-3.43V7.662c0-.9.724-1.632 1.628-1.632h-.002zm-6.336 19.96a3.157 3.157 0 0 0 0 6.315 3.155 3.155 0 0 0 3.148-3.157 3.157 3.157 0 0 0-3.147-3.157z" id="yota-w_a"/></defs><g fill="none" fill-rule="evenodd"><mask id="yota-w_b" fill="#fff"><use xlink:href="#yota-w_a"/></mask><use fill="#151515" fill-rule="nonzero" xlink:href="#yota-w_a"/><g mask="url(#yota-w_b)" fill="#151515"><path d="M0 0h120.8v53.8H0z"/></g></g></svg>