<svg xmlns="http://www.w3.org/2000/svg" width="193" height="80" fill="none" viewBox="0 0 193 80">
  <path fill="#151515" d="M51.125 71.5h16.2V0h-14.2l-16.5 11.7v13.8l14.5-9.5v55.5zM27 61.54c3.42 0 6.03-2.22 6.03-5.82v-.15c0-3.57-2.61-5.76-6-5.76-3.45 0-6.06 2.25-6.06 5.85v.18c0 3.54 2.61 5.7 6.03 5.7zm.03-2.76c-1.53 0-2.37-1.08-2.37-3.09v-.15c0-1.92.87-3 2.37-3s2.34 1.11 2.34 3.06v.15c0 1.92-.84 3.03-2.34 3.03zM1.68 71.5H6V56.47l7.92 15.03h4.86V50.05h-4.32v13.92L7.32 50.05H1.68V71.5zm19.71-5.43h11.22v-2.55H21.39v2.55z"/>
</svg>
