<svg width="193" height="81" fill="none" xmlns="http://www.w3.org/2000/svg"><path d="M79.5 74.082c16.5 0 27.4-9.7 27.4-24.9s-8.9-24.1-21.9-24.1c-8.1 0-13.1 3.2-15.9 6.6l.3-17.9h33.2v-12.3H57.3l-1 40.7h9c2.9-3.3 7-5.7 13.7-5.7 7.2 0 11.6 4.8 11.6 12.5 0 7.6-3.9 12.7-11.2 12.7-8.2 0-10.6-4-11.5-10H53c.7 12.8 8.9 22.4 26.5 22.4zM5.573 72.793h4.944V59.424h4.44v-3.791H1.133v3.791h4.44v13.369zm15.551.287c3.864 0 6.864-2.448 6.864-6.528v-.192c0-3.983-2.976-6.456-6.84-6.456-3.888 0-6.888 2.544-6.888 6.577v.192c0 4.055 3 6.407 6.864 6.407zm.024-3.192c-1.656 0-2.496-1.175-2.496-3.336v-.192c0-2.111.888-3.24 2.496-3.24 1.632 0 2.472 1.176 2.472 3.289v.191c0 2.089-.864 3.288-2.472 3.288zm16.538 2.904h4.272V60.24H29.886v12.553h4.272v-9.625h3.528v9.625zm6.8-5.231h6.72v-3.24h-6.72v3.24z" fill="#151515"/></svg>