<svg xmlns="http://www.w3.org/2000/svg" width="193" height="80" fill="none" viewBox="0 0 193 80">
  <path fill="#151515" d="M47.417 0v21.389a4.362 4.362 0 0 1-2.298 3.844L.203 49.402v-21.02a6.08 6.08 0 0 1 3.261-5.386L47.417 0V0zM18.056 54.346L43.84 40.202 62.87 50.441c-.256 1.67-1.057 2.378-3.158 3.64L15.76 79.579V58.19a4.363 4.363 0 0 1 2.297-3.844h-.001zm30.142 7.565v17.825l-15.362-8.913 15.362-8.913v.001zM30.934 46.237l-13.373 7.336a5.06 5.06 0 0 0-2.663 4.46v2.343l-11.12-6.452C1.676 52.661.873 51.954.62 50.284l19.028-10.238 11.288 6.191h-.002zm-.64-38.223L14.977 0v16.026l15.317-8.014v.002zm29.573 15.138l-11.59-6.064v4.458c0 1.81-.99 3.468-2.586 4.326l-13.293 7.153 30.729 16.534v-21.02a6.08 6.08 0 0 0-3.261-5.387h.001z"/>
</svg>
