<svg xmlns="http://www.w3.org/2000/svg" width="193" height="80" fill="none" viewBox="0 0 193 80">
  <path fill="#151515" d="M136.636 51.92h23.78v-7.617h-23.78v7.617zm43.6-23.692h-3.082v-2.962c0-6.775-5.719-12.266-12.77-12.266h-39.642c-5.055 0-9.352 2.816-11.434 6.818l-4.414 8.477-4.435-8.514C102.376 15.786 98.052 13 93.039 13c-5.061 0-9.36 2.816-11.441 6.818l-4.414 8.477-4.432-8.518C70.67 15.784 66.347 13 61.332 13H29.625c-7.052 0-12.77 5.493-12.77 12.266v2.962H13.77C6.716 28.228 1 33.722 1 40.498s5.716 12.27 12.77 12.27h3.082v2.966c0 6.775 5.717 12.266 12.77 12.266s12.77-5.493 12.77-12.266v-2.966H53.4a13.053 13.053 0 0 0 6.935-1.967l5.424 10.421c2.083 3.989 6.401 6.776 11.42 6.776s9.337-2.782 11.422-6.781l4.435-8.514 4.431 8.52c2.084 3.988 6.402 6.775 11.426 6.775 5.014 0 9.335-2.782 11.421-6.781l.495-.947c1.88 4.526 6.484 7.726 11.862 7.726h31.71c7.053 0 12.77-5.493 12.77-12.266v-2.965h3.082c7.048.001 12.766-5.493 12.766-12.267 0-6.776-5.718-12.27-12.77-12.27h.006zm0 16.078h-11.891v11.428c0 2.1-1.772 3.802-3.961 3.802h-31.71c-2.189 0-3.963-1.701-3.963-3.802V40.5c0-2.103 1.776-3.808 3.963-3.808h27.746v-7.617h-33.222L112.444 57.43a3.979 3.979 0 0 1-1.478 1.545 4.002 4.002 0 0 1-2.068.56 3.969 3.969 0 0 1-3.546-2.105L93.041 33.786 80.731 57.43a3.972 3.972 0 0 1-1.478 1.547 3.994 3.994 0 0 1-2.07.558 3.988 3.988 0 0 1-2.066-.559 3.965 3.965 0 0 1-1.476-1.546L58.884 29.075H33.592v7.617h19.816c2.19 0 3.963 1.701 3.963 3.808 0 2.105-1.776 3.808-3.963 3.808H33.592v11.428c0 2.1-1.776 3.802-3.963 3.802-2.19 0-3.963-1.701-3.963-3.802V44.308h-11.89c-2.19 0-3.963-1.701-3.963-3.808 0-2.105 1.776-3.808 3.963-3.808h11.89V25.268c0-2.103 1.772-3.808 3.963-3.808h31.707a3.988 3.988 0 0 1 2.067.559 3.965 3.965 0 0 1 1.475 1.546l12.31 23.65L89.48 23.598a3.978 3.978 0 0 1 1.479-1.568 4 4 0 0 1 2.083-.571c1.55 0 2.893.858 3.546 2.105l12.311 23.65 12.288-23.616a3.988 3.988 0 0 1 3.558-2.14h39.638c2.189 0 3.961 1.706 3.961 3.81v11.423h11.891c2.189 0 3.959 1.701 3.959 3.808 0 2.105-1.77 3.808-3.959 3.808v-.002z"/>
</svg>
