<svg width="180" height="80" viewBox="0 0 180 80" preserveAspectRatio="xMidYMid meet" xmlns="http://www.w3.org/2000/svg" fill="#fff"><path d="M115.522 39.64c-.79 0-1.43.646-1.43 1.435a1.43 1.43 0 1 0 2.858 0c0-.79-.64-1.435-1.428-1.435zM65.98 41.004s.713-2.395.822-2.77c.288-.974.72-2.508.72-2.508h.07s.397 1.59.656 2.494c.102.352.783 2.784.783 2.784H65.98zm4.342 4.348h2.58l-3.897-11.95a4.725 4.725 0 0 0-1.464-.224c-.59 0-.8.078-1.264.225l-4.133 11.95h2.472s.332-1.047.737-2.347h4.274l.696 2.346h-.001zm83.486 0s-1.222-2.616-1.52-3.207c-.338-.672-.65-1.135-1.34-1.3v-.04c.463-.086.83-.367 1.228-1.222.383-.836.496-1.014.72-1.212.22-.2.52-.123.52-.123l.114-1.556a5.945 5.945 0 0 0-1.042-.022c-.605.038-.922.21-1.218.514-.232.23-.392.576-.59.98-.21.432-.375.78-.586 1.22-.215.452-.32.653-.9.653h-.376v-3.23h-2.25v8.547h2.25V41.86l.306-.006c.64 0 .748.16 1.088.837.4.81 1.155 2.662 1.155 2.662h2.44l.001-.001zm-9.193 0v-8.548h-2.24v3.232h-2.537v-3.232H137.6v8.548h2.238v-3.49h2.536v3.49h2.241zm-61.56-8.625l-.008 8.176c1.062.45 2.23.652 3.265.652 2.38 0 3.652-1.233 3.652-3.266 0-1.84-1.127-2.978-3.233-2.978-.534 0-.847.07-1.435.213v-2.798h-2.24l-.001.001zm4.592 5.666c0 .844-.296 1.422-1.37 1.422-.364 0-.513 0-.983-.133v-2.465c.584-.114.635-.133.982-.133 1.028 0 1.37.502 1.37 1.31l.001-.001zm48.78 2.14c-.593-.903-.746-1.435-.746-2.57v-2.302c0-1.243-.14-1.7-.47-2.155-.455-.64-1.212-.916-2.61-.916-.988 0-1.955.106-2.88.342l.33 1.65c.628-.09 1.29-.165 1.762-.165 1.48 0 1.65.217 1.65 1.33v.42a4.193 4.193 0 0 0-1.13-.154c-2.24 0-3.418 1.096-3.418 2.904 0 1.7 1.26 2.628 2.803 2.628.574 0 1.17-.107 1.644-.3.287-.125.41-.196.78-.44.224.328.672.66.854.72l1.434-.993-.003.001zm-2.847-.986c-.49.17-.815.21-1.206.21-.802 0-1.253-.318-1.253-1.142 0-.858.575-1.148 1.685-1.148.27 0 .536.04.658.084v.617c0 .663.036 1.097.117 1.38l-.001-.001zm-21.864.985c-.59-.902-.745-1.434-.745-2.568V39.66c0-1.243-.142-1.7-.47-2.155-.454-.64-1.213-.916-2.61-.916-.986 0-1.956.106-2.882.342l.332 1.65c.63-.09 1.286-.165 1.76-.165 1.484 0 1.655.217 1.655 1.33v.42c-.33-.09-.7-.154-1.133-.154-2.24 0-3.42 1.096-3.42 2.904 0 1.7 1.26 2.628 2.804 2.628.574 0 1.172-.107 1.645-.3.286-.125.41-.196.78-.44.224.328.67.66.853.72l1.433-.993-.002.001zm-2.846-.985c-.492.17-.816.21-1.205.21-.8 0-1.257-.318-1.257-1.142 0-.858.575-1.148 1.685-1.148.267 0 .536.04.662.084v.617c0 .663.032 1.097.115 1.38v-.001zm-27.59 1.805v-8.236c-1.23-.368-2.175-.527-3.41-.527-1.232 0-2.155.158-3.385.526v4.217c0 1.147-.02 1.49-.144 1.86-.123.326-.29.716-.74 1.018l.61 1.316c1.8-.51 2.476-1.295 2.476-3.79v-3.102c.594-.087.712-.107 1.185-.107.478 0 .577.02 1.17.107v6.718h2.24-.002zm16.95 2.8v-3.07c.283.167.85.416 1.803.416 1.897 0 3.295-1.58 3.295-4.47 0-3.113-1.39-4.445-3.67-4.445-.58 0-.96.06-1.43.284v-3.67H96v3.67c-.468-.224-.848-.284-1.427-.284-2.282 0-3.67 1.387-3.67 4.498 0 2.89 1.255 4.418 3.29 4.418.96 0 1.525-.25 1.81-.417v3.072h2.23l-.003-.002zm-5.03-7.07c0-1.717.514-2.624 1.542-2.624.434 0 .722-.003 1.257.254v4.72c-.487.16-.717.18-1.15.18-1.17 0-1.65-.958-1.65-2.53h.001zm7.828-.055c0 1.572-.624 2.586-1.65 2.586-.432 0-.66-.022-1.15-.182v-4.718c.536-.257.824-.254 1.257-.254 1.028 0 1.543.853 1.543 2.57v-.002zm27.032.615c0-2.118-1.237-3.577-3.836-3.577-.638 0-1.084.06-1.773.224l-.003-3.05c.428-.06 1.16-.114 1.97-.114.763 0 1.732.042 2.58.146l.06-1.767c-.965-.217-2.366-.35-3.452-.35-1.07 0-2.736.27-3.53.484v11.267c1.236.454 2.443.66 3.68.66 2.834 0 4.305-1.505 4.305-3.925l-.001.002zm-2.383.17c0 1.142-.63 1.894-1.79 1.894-.46 0-.836 0-1.436-.163v-3.457c.266-.043.813-.13 1.436-.106 1.18.045 1.79.598 1.79 1.832zM38.122 27L34.77 37.093h6.757L38.164 27h-.042zM26.376 53.874a.381.381 0 0 0-.376.386v4.292a.38.38 0 0 0 .376.386h23.532a.38.38 0 0 0 .373-.386V54.26a.379.379 0 0 0-.372-.386H26.376zM38.142 21c2.575 0 3.385 1.85 4.06 3.702.288.783 6.978 19.157 7.178 19.708.056.152.02.406-.217.496-.237.09-3.714 1.447-3.905 1.52a.38.38 0 0 1-.48-.227c-.07-.192-1.512-4.197-1.675-4.645h-9.91c-.164.448-1.62 4.46-1.686 4.644-.067.182-.275.306-.478.225-.205-.082-3.697-1.438-3.904-1.52a.388.388 0 0 1-.22-.495c.246-.69 6.833-18.767 7.17-19.708.655-1.82 1.495-3.7 4.068-3.7h-.001z" fill-rule="nonzero"/></svg>