<svg xmlns="http://www.w3.org/2000/svg" width="180" height="80"><path fill-rule="nonzero" d="M57.105 56.612c-4.724 0-8.553-3.902-8.553-8.716 0-4.814 3.83-8.716 8.553-8.716 4.723 0 8.552 3.902 8.552 8.716 0 4.814-3.829 8.716-8.552 8.716zm-16.076-4.66c-2.199 0-3.981-1.815-3.981-4.056 0-2.24 1.782-4.057 3.98-4.057 2.2 0 3.982 1.816 3.982 4.057 0 2.24-1.783 4.057-3.981 4.057zm16.076-14.83c-3.04 0-5.505-2.511-5.505-5.61 0-3.098 2.465-5.61 5.505-5.61s5.505 2.512 5.505 5.61c0 3.099-2.465 5.61-5.505 5.61zm-16.076 1.553c-3.882 0-7.029-3.207-7.029-7.163 0-3.956 3.147-7.163 7.029-7.163 3.881 0 7.028 3.207 7.028 7.163 0 3.956-3.147 7.163-7.028 7.163zm46.863 13.23l-7.98-7.787h5.172L82.5 36.943l-2.587 7.175 7.98 7.788-1.57-4.355h-7.646l-1.57 4.355h-4.44l8.223-22.816h3.22l8.222 22.816h-4.44zm15.445-15.576h4.17l-5.616 15.577h-5.279l-5.616-15.577h4.172l4.083 11.334 4.086-11.334zm5.916 0h4.171v15.577h-4.171V36.329zm2.1-1.769c-1.484 0-2.686-1.225-2.686-2.737s1.202-2.737 2.685-2.737c1.484 0 2.686 1.225 2.686 2.737s-1.202 2.737-2.686 2.737zm16.8 5.202h-4.998v6.44c0 1.743 1.423 2.286 2.66 2.286 1.01 0 1.83-.25 1.83-.25l.507 3.364s-1.466.625-3.139.625c-4.33 0-6.026-2.307-6.026-5.764v-6.701h-3.3v-3.433h3.3v-4.297h4.168v4.297h4.997v3.433zm9.565-3.83c4.519 0 8.185 3.654 8.185 8.16 0 4.507-3.666 8.16-8.185 8.16-4.521 0-8.188-3.653-8.188-8.16 0-4.506 3.667-8.16 8.188-8.16zm0 12.413c2.326 0 4.21-1.879 4.21-4.196a4.203 4.203 0 0 0-4.21-4.196 4.203 4.203 0 0 0-4.21 4.195 4.203 4.203 0 0 0 4.21 4.197z"/></svg>