<svg xmlns="http://www.w3.org/2000/svg" width="180" height="80" viewBox="0 0 180 80">
  <path fill-rule="nonzero" d="M100.106 36.41h3.674l-4.949 13.47h-4.65l-4.95-13.47h3.676l3.6 9.8 3.599-9.8zm7.052-6.315a2.37 2.37 0 1 0 0 4.738 2.37 2.37 0 0 0 0-4.738zm30.462 13.027a7.217 7.217 0 1 1-7.217-7.058 7.142 7.142 0 0 1 7.217 7.058zm-3.508.05a3.71 3.71 0 1 0-3.709 3.627 3.669 3.669 0 0 0 3.71-3.627zm-16.54-10.478h-3.675v3.715h-2.908v2.968h2.908v5.795c0 2.99 1.497 4.984 5.31 4.984a8.086 8.086 0 0 0 2.767-.538l-.445-2.91a6.325 6.325 0 0 1-1.614.215c-1.09 0-2.344-.468-2.344-1.978v-5.568h4.403V36.41h-4.403v-3.715zm-12.256 17.185h3.678V36.41h-3.678v13.47zm-60.122-6.971a3.506 3.506 0 1 0 .005 7.011 3.506 3.506 0 0 0-.005-7.011zm14.153-5.8a4.85 4.85 0 1 0 .006-9.7 4.85 4.85 0 0 0-.006 9.7zm23.812-6.96l7.248 19.73h-3.912l-1.387-3.763h-6.737l-1.382 3.764h-3.914l7.248-19.73h2.837zm-3.697 12.994h4.56l-2.279-6.202-2.28 6.202zm-20.115-4.263a7.534 7.534 0 1 0 .003 15.068 7.534 7.534 0 0 0-.003-15.068zM45.194 26.066a6.193 6.193 0 1 0-.002 12.386 6.193 6.193 0 0 0 .002-12.386z"/>
</svg>
