<svg xmlns="http://www.w3.org/2000/svg" width="180" height="80" fill="#fff"><path fill-rule="nonzero" d="M39.47 40.938l-9.442 8.918H18l14.983-14.47c5.57-5.365 8.245-6.242 17.746-6.242h37.503l-8.142 7.753H51.793c-7.092 0-8.6.532-12.323 4.041zm31.931 4.46H52.104c-3.532 0-4.315.157-6.073 1.87l-2.66 2.588H32.215l8.245-8.026c3.236-3.15 4.359-3.682 11.496-3.682h26.907l-7.462 7.25zm-2.822 4.444l21.278-20.713h13.254L81.774 49.842H68.58zm18.663-2.575v.388h.842v2.201h.473v-2.2h.842v-.389h-2.157zm4.565 0h.665v2.59h-.443v-2h-.015l-.738 2h-.385l-.738-2h-.015v2h-.444v-2.59h.65l.74 2.028h.014l.71-2.028zm64.351 2.647h-49.5v-.288h49.5c.03 0 3.546-.058 3.546-3.452V29.201H160v16.973c0 3.71-3.812 3.74-3.842 3.74zm-49.16-19.404h3.147v.849h-2.084v.72h2.084v.848h-2.084v1.467h-1.063V30.51zm6.93 2.503c0 .863-.547 1.424-1.552 1.424h-.37c-.99 0-1.55-.547-1.55-1.424v-.374c0-.863.56-1.424 1.55-1.424h.37c.99 0 1.552.547 1.552 1.424v.374zm-1.567-1.05h-.354c-.4 0-.532.187-.532.59v.532c0 .403.133.604.532.604h.354c.4 0 .517-.187.517-.604v-.532c0-.389-.118-.59-.517-.59zm3.089-.676h.93v.748h-.709c-.354 0-.458.115-.458.417v1.942h-1.005v-1.956c.015-.59.355-1.151 1.242-1.151zm1.123 0h3.782c.975 0 1.374.475 1.374 1.266v1.84h-1.004v-1.869c0-.316-.089-.446-.4-.446h-.664v2.301h-1.005v-2.3h-1.064v2.3h-1.005v-3.092h-.014zm7.86 0h1.005v3.107h-1.98c-.93 0-1.33-.49-1.33-1.266v-1.841h1.005v1.87c0 .316.089.446.4.446h.886v-2.316h.015zm2.498-.777v3.884h-1.005V30.51h1.005zm3.487 3.87h-2.187c-.65 0-.99-.288-.99-.734 0-.475.384-.705.857-1.021l.901-.604h-1.684v-.748h1.404c1.226 0 1.699.517 1.699 1.424v1.682zm-.96-.748v-1.036l-.961.733c-.118.087-.163.116-.163.187 0 .072.06.116.193.116h.93zm2.334-.044h1.005v-2.07c0-.116-.06-.173-.163-.173h-.798v-.835h1.02c.606 0 .99.389.99.95v2.143h.872v.79h-2.94v-.805h.014zm-21.677 5.97h-3.295v-.633c0-.662.251-1.007 1.153-1.467l.842-.432c.192-.086.251-.158.251-.302 0-.187-.148-.245-.37-.245h-1.787v-.82h1.876c.946 0 1.375.36 1.375.936 0 .647-.4.877-1.138 1.28l-.769.402c-.236.13-.28.216-.28.346v.1h2.142v.835zm2.512.057h-.399c-1.197 0-1.773-.705-1.773-1.74v-.533c0-1.02.576-1.697 1.773-1.697h.4c1.196 0 1.772.69 1.772 1.712v.532c0 1.036-.576 1.726-1.773 1.726zm-.325-.834h.251c.532 0 .74-.202.74-.734V37.2c0-.533-.193-.734-.74-.734h-.25c-.533 0-.74.201-.74.734v.834c0 .546.207.748.74.748zm2.586-.015h1.005v-2.07c0-.116-.06-.173-.163-.173h-.798v-.835h1.02c.606 0 .99.389.99.95v2.143h.872v.79h-2.94v-.805h.014zm3.354-1.74v-.173c0-.776.473-1.193 1.596-1.193h.207c1.256 0 1.788.489 1.788 1.596v.676c0 .993-.576 1.626-1.906 1.626h-1.507v-.777h1.536c.62 0 .783-.173.783-.633v-.058h-.93c-1.08 0-1.567-.36-1.567-1.064zm2.497.302v-.316c0-.49-.147-.604-.664-.604h-.133c-.503 0-.621.143-.621.402v.115c0 .302.133.403.576.403h.842zm5.926 1.424h-1.862l-.325.82h-1.079l1.33-3.136c.207-.489.473-.82 1.005-.82.561 0 .842.317 1.034.806l1.315 3.136h-1.108l-.31-.806zm-1.552-.805h1.241l-.517-1.338c-.015-.058-.044-.086-.088-.086-.06 0-.074.043-.09.086l-.546 1.338zm4.123 1.61c-.769 0-1.123-.36-1.123-.848 0-.49.37-.777.886-.92l1.123-.346c.089-.029.133-.072.133-.13 0-.071-.044-.114-.147-.114h-1.877v-.748h1.862c.857 0 1.152.33 1.152.834 0 .518-.325.777-.842.935l-1.167.345c-.089.029-.148.058-.148.13 0 .071.06.115.148.115h1.95v.748h-1.95zm3.236-1.25v.014c0 .388.148.489.59.489h1.611v.748h-1.551c-1.256 0-1.67-.561-1.67-1.396v-.388c0-.82.444-1.352 1.567-1.352h.206c1.197 0 1.522.575 1.522 1.438v.446h-2.275zm.458-1.195c-.34 0-.458.13-.458.475v.072h1.33v-.072c0-.33-.133-.475-.458-.475h-.414zm3.369-.647h.93v.748h-.709c-.354 0-.458.115-.458.417v1.942h-1.004v-1.956c0-.59.354-1.15 1.24-1.15zm1.108-.777h1.005v.72h1.256c.798 0 1.256.56 1.256 1.395v.36c0 .848-.473 1.395-1.256 1.395h-2.26v-3.87zm1.005 1.482v1.625h.916c.443 0 .576-.187.576-.59v-.46c0-.403-.133-.575-.576-.575h-.916zm5.836 2.388h-2.186c-.65 0-.99-.288-.99-.734 0-.475.384-.705.857-1.021l.901-.604h-1.685v-.748h1.404c1.227 0 1.7.517 1.7 1.424v1.683zm-.945-.748v-1.036l-.96.734c-.119.086-.163.115-.163.187 0 .071.059.115.192.115h.93zm1.418-2.618v-.604h1.005v.604h-1.005zm0 .273h1.005v3.107h-1.005v-3.107zm2.498 0v2.862c0 .69-.4 1.022-1.064 1.022h-.429v-.662h.251c.148 0 .237-.072.237-.273v-2.949h1.005zm-1.005-.273v-.604h1.005v.604h-1.005zm4.477 3.366h-2.187c-.65 0-.99-.288-.99-.734 0-.475.384-.705.857-1.021l.901-.604h-1.684v-.748h1.404c1.226 0 1.699.517 1.699 1.424v1.683zm-.96-.748v-1.036l-.961.734c-.118.086-.163.115-.163.187 0 .071.06.115.193.115h.93zm1.359-2.345h1.98c.93 0 1.33.49 1.33 1.266v1.84h-1.005v-1.869c0-.316-.089-.446-.399-.446h-.887v2.302h-1.004v-3.093h-.015zm-40.221 5.25h-2.024c-.665 0-.857.23-.857.82v.59c0 .618.206.848.783.848h.65c.399 0 .561-.115.561-.36v-.345h-1.078v-.82h2.039v1.223c0 .777-.547 1.122-1.552 1.122h-.576c-1.3 0-1.936-.633-1.936-1.726v-.546c0-1.007.65-1.655 1.921-1.655h2.069v.85zm1.67-.072h.93v.748h-.709c-.354 0-.458.115-.458.417v1.942h-1.005v-1.956c0-.59.355-1.15 1.242-1.15zm4.137 3.093h-2.187c-.65 0-.99-.288-.99-.734 0-.475.384-.705.857-1.021l.901-.604h-1.684v-.748h1.404c1.226 0 1.699.518 1.699 1.424v1.683zm-.96-.748v-1.036l-.961.734c-.118.086-.162.115-.162.187s.059.115.192.115h.93zm1.374-2.345h1.98c.93 0 1.33.49 1.33 1.266v1.841h-1.005v-1.87c0-.316-.089-.446-.4-.446h-.886v2.302h-1.005v-3.093h-.014zm7.122 3.093h-2.26c-.799 0-1.257-.561-1.257-1.396v-.316c0-.849.473-1.395 1.256-1.395h1.256v-.777h1.005v3.884zm-1.02-.763v-1.568h-.916c-.443 0-.576.187-.576.59v.403c0 .403.133.575.576.575h.916zm6.132-1.64c0 .85-.502 1.108-1.61 1.108h-.931v1.295h-1.064v-3.884h1.995c1.108 0 1.61.302 1.61 1.093v.389zm-1.063-.33c0-.245-.133-.389-.518-.389h-.96v1.065h.96c.385 0 .518-.144.518-.374v-.302zm2.57-.36h.932v.748h-.71c-.354 0-.458.115-.458.417v1.942h-1.005v-1.956c.015-.59.355-1.15 1.242-1.15zm1.183-.273v-.604h1.005v.604h-1.005zm0 .273h1.005v3.107h-1.005v-3.107zm3.029 2.273l-.606.834h-1.093l1.182-1.482-1.212-1.625h1.123l.62.892c.075.1.134.1.208 0l.62-.892h1.094l-1.123 1.54 1.167 1.567H135.9l-.606-.834c-.089-.1-.177-.115-.251 0z"/></svg>