<svg width="180" height="80" xmlns="http://www.w3.org/2000/svg"><path d="M24.859 28.186c-1.284 0-1.682 1.573-2.359 2.364.677.791 1.075 2.364 2.359 2.364h3.064v-4.728H24.86zM22.5 49.46c.677.79 1.075 2.364 2.359 2.364h3.064v-4.728H24.86c-1.284 0-1.682 1.573-2.359 2.364zm10.14-7.091h-4.717V37.64h4.717v4.728h4.716a2.36 2.36 0 0 1 2.358 2.363 2.36 2.36 0 0 1-2.358 2.364H32.64v4.728h4.716c3.907 0 7.074-3.175 7.074-7.092a7.072 7.072 0 0 0-1.803-4.727 7.07 7.07 0 0 0 1.803-4.727c0-3.917-3.167-7.091-7.074-7.091H32.64v4.727h4.716a2.36 2.36 0 0 1 2.358 2.364 2.36 2.36 0 0 1-2.358 2.363H32.64v-4.727h-4.717v4.727H24.86c-1.284 0-1.682 1.573-2.359 2.364.677.791 1.075 2.364 2.359 2.364h3.064v4.727h4.717v-4.727zm44.672 3.546h-2.855l-2.767-3.531-.967 1.01v2.521H68.48V34.096h2.243v6.233l2.871-3.185h3.093l-3.503 3.679 4.128 5.092zm-.118-3.644v-5.127h2.243v5.127c0 .494.17 1.72 1.631 1.72 1.002 0 1.7-.75 1.7-1.72v-5.127h2.242v8.771h-2.14v-.8c-.544.63-1.31 1.004-2.227 1.004-2.072 0-3.449-1.55-3.449-3.848zm-13.61-5.348c-2.294 0-3.891 1.243-4.112 2.912h2.242c.204-.75 1.122-1.106 1.92-1.106 1.003 0 1.597.374 1.597.834 0 .715-1.036.886-2.497 1.022-1.937.17-3.585.68-3.585 2.656 0 1.908 1.699 2.844 3.55 2.844 1.147 0 1.991-.329 2.568-.875l-.002.705h2.141V39.92c0-.698-.272-2.997-3.823-2.997zm1.732 5.586c0 1.124-1.087 1.584-2.43 1.584-.9 0-1.477-.34-1.477-.835 0-.647.68-.885 1.784-1.004.917-.103 1.648-.256 2.123-.562v.817zm-8.336-2.895c.73-.528 1.155-1.328 1.155-2.316 0-1.976-1.19-3.202-3.551-3.202h-5.437v11.819h5.743c2.276 0 3.704-1.362 3.704-3.474 0-1.345-.612-2.299-1.614-2.827zm-2.396 4.24H51.39v-3.048h3.143c1.138 0 1.767.562 1.767 1.55 0 1.158-.85 1.498-1.716 1.498zM51.39 36.14h3.194c.85 0 1.376.51 1.376 1.294 0 .783-.611 1.311-1.376 1.311H51.39V36.14zm68.694 9.97c-2.412 0-4.366-2.044-4.366-4.565 0-2.554 1.954-4.632 4.366-4.632 1.937 0 3.45 1.158 4.044 2.93h-.68c-.56-1.397-1.8-2.283-3.364-2.283-2.056 0-3.738 1.789-3.738 3.985 0 2.164 1.682 3.934 3.738 3.934 1.614 0 2.854-.885 3.381-2.299h.663c-.578 1.772-2.107 2.93-4.044 2.93zm12.152-8.584c-1.155-.102-2.039.222-2.583.75-.628.562-.968 1.413-.968 2.333v5.296h-.646v-8.77h.646v1.464c.153-.29.34-.562.578-.783.764-.681 1.783-1.005 2.973-.869v.58zm4.084 8.584c-2.412 0-4.366-2.044-4.366-4.565 0-2.554 1.954-4.632 4.366-4.632 1.937 0 3.45 1.158 4.044 2.93h-.68c-.56-1.397-1.8-2.283-3.364-2.283-2.056 0-3.738 1.789-3.738 3.985 0 2.164 1.682 3.934 3.738 3.934 1.615 0 2.855-.885 3.381-2.299h.663c-.578 1.772-2.107 2.93-4.044 2.93zm12.916-.205h-.63v-1.447c-.594 1.021-1.681 1.652-3.058 1.652-2.123 0-3.67-1.55-3.67-3.679v-5.296h.63v5.296c0 1.771 1.29 3.048 3.04 3.048 1.785 0 3.059-1.277 3.059-3.048v-5.296h.629v8.77zm5.648-3.031c0 1.498.697 2.52 2.362 2.452v.58c-1.886.17-2.99-1.074-2.99-3.032v-5.11h-1.19v-.63h1.19v-1.982h.628v1.983h2.362v.63h-2.362v5.109zm-3.904 3.033h.63v-8.77h-.63v8.77zm0-9.84h.63v-.913h-.63v.914zm-25.315 0h.628v-.913h-.628v.914zm0 9.84h.628v-8.77h-.628v8.77zm-32.153.203c-2.412 0-4.366-2.044-4.366-4.565 0-2.554 1.954-4.632 4.366-4.632 1.937 0 3.45 1.158 4.044 2.93h-.68c-.56-1.397-1.8-2.283-3.364-2.283-2.056 0-3.738 1.789-3.738 3.985 0 2.164 1.682 3.934 3.738 3.934 1.614 0 2.855-.885 3.381-2.299h.663c-.578 1.772-2.107 2.93-4.044 2.93zm9.277-3.236c0 1.499.697 2.52 2.362 2.452v.58c-1.886.17-2.99-1.074-2.99-3.032v-5.11h-1.19v-.63h1.19v-1.982h.628v1.983h2.362v.63h-2.362v5.11zm-3.696-6.809h.629v-.911h-.629v.911zm0 9.843h.629v-8.771h-.629v8.77zm10.418.608c-.629 1.67-1.852 2.3-3.398 2.01v-.596c1.359.204 2.276-.222 2.803-1.635l.153-.404-3.296-8.754h.679l2.94 7.868 2.973-7.868h.662l-3.516 9.38z" fill-rule="evenodd"/></svg>