<svg width="120" height="54" xmlns="http://www.w3.org/2000/svg" xmlns:xlink="http://www.w3.org/1999/xlink" fill="#fff"><defs><path d="M26.642 27.633l-6.373 6.02H12.15l10.114-9.767c3.76-3.622 5.565-4.214 11.978-4.214h25.314l-5.495 5.233h-19.1c-4.788 0-5.805.36-8.319 2.728zm21.554 3.01H35.17c-2.384 0-2.912.107-4.1 1.262l-1.795 1.748h-7.53l5.565-5.418c2.185-2.126 2.943-2.485 7.76-2.485h18.163l-5.037 4.893zm-1.905 3l14.362-13.98H69.6l-14.402 13.98H46.29zm12.597-1.738v.262h.569v1.486h.319v-1.486h.568v-.262h-1.456zm3.082 0h.449v1.748h-.3v-1.35h-.01l-.498 1.35h-.26l-.498-1.35h-.01v1.35h-.3v-1.748h.44l.498 1.37h.01l.48-1.37zm43.437 1.787H71.994v-.194h33.413c.02 0 2.394-.04 2.394-2.33V19.71H108v11.456c0 2.505-2.573 2.525-2.593 2.525zM72.223 20.594h2.125v.573H72.94v.486h1.407v.573H72.94v.99h-.718v-2.622zm4.678 1.69c0 .582-.369.961-1.047.961h-.25c-.668 0-1.047-.369-1.047-.961v-.253c0-.582.38-.96 1.047-.96h.25c.668 0 1.047.368 1.047.96v.253zm-1.057-.709h-.24c-.269 0-.359.126-.359.398v.36c0 .271.09.407.36.407h.239c.27 0 .349-.126.349-.408v-.359c0-.262-.08-.398-.35-.398zm2.084-.456h.629v.505h-.479c-.24 0-.31.077-.31.281v1.31h-.677v-1.32c.01-.398.239-.776.837-.776zm.758 0h2.554c.658 0 .927.32.927.854v1.243h-.678v-1.262c0-.214-.06-.301-.27-.301h-.448v1.553h-.678v-1.553h-.718v1.553h-.679V21.12h-.01zm5.307 0h.678v2.097h-1.337c-.628 0-.897-.33-.897-.855V21.12h.678v1.262c0 .213.06.3.27.3h.598V21.12h.01zm1.685-.525v2.622H85v-2.622h.678zm2.354 2.612h-1.476c-.439 0-.668-.194-.668-.495 0-.32.259-.476.578-.69l.609-.407h-1.137v-.505h.947c.828 0 1.147.35 1.147.961v1.136zm-.648-.505v-.699l-.649.495c-.08.059-.11.078-.11.127 0 .048.04.077.13.077h.629zm1.576-.029h.678v-1.398c0-.078-.04-.116-.11-.116h-.538v-.564h.688c.409 0 .668.263.668.641v1.447h.589v.534H88.95v-.544h.01zm-14.632 4.03h-2.224v-.428c0-.446.17-.68.778-.99l.568-.291c.13-.059.17-.107.17-.204 0-.127-.1-.165-.25-.165h-1.207v-.554h1.267c.639 0 .928.243.928.631 0 .437-.27.593-.768.864l-.519.272c-.16.088-.19.146-.19.233v.068h1.447v.563zm1.695.038h-.269c-.808 0-1.197-.476-1.197-1.175v-.359c0-.69.39-1.145 1.197-1.145h.27c.807 0 1.196.466 1.196 1.155v.36c0 .698-.389 1.164-1.197 1.164zm-.219-.563h.17c.359 0 .498-.136.498-.495v-.573c0-.36-.13-.495-.498-.495h-.17c-.36 0-.499.136-.499.495v.563c0 .37.14.505.499.505zm1.745-.01h.679V24.77c0-.077-.04-.116-.11-.116h-.539v-.563h.689c.408 0 .668.262.668.64v1.447h.588v.534H77.54v-.544h.01zm2.265-1.174v-.117c0-.524.319-.806 1.077-.806h.14c.847 0 1.206.33 1.206 1.078v.456c0 .67-.389 1.097-1.286 1.097h-1.018v-.524h1.037c.42 0 .53-.116.53-.427v-.039h-.63c-.727 0-1.056-.243-1.056-.718zm1.685.203v-.213c0-.33-.1-.408-.449-.408h-.09c-.339 0-.418.097-.418.272v.078c0 .203.09.271.389.271h.568zm4 .962h-1.257l-.22.553h-.728l.898-2.116c.14-.33.32-.554.678-.554.38 0 .569.214.699.544l.887 2.116h-.748l-.21-.543zm-1.048-.544h.838l-.349-.903c-.01-.039-.03-.058-.06-.058-.04 0-.05.029-.06.058l-.369.903zm2.783 1.087c-.518 0-.758-.242-.758-.572 0-.33.25-.525.599-.622l.758-.233c.06-.02.09-.048.09-.087 0-.049-.03-.078-.1-.078h-1.267v-.505h1.257c.578 0 .778.224.778.563 0 .35-.22.525-.569.631l-.788.233c-.06.02-.1.04-.1.088 0 .048.04.077.1.077h1.317v.505h-1.317zm2.184-.844v.01c0 .262.1.33.4.33h1.087v.504h-1.048c-.847 0-1.127-.378-1.127-.941v-.263c0-.553.3-.912 1.058-.912h.14c.807 0 1.026.388 1.026.97v.302h-1.536zm.31-.806c-.23 0-.31.087-.31.32v.049h.898v-.049c0-.223-.09-.32-.31-.32h-.278zm2.274-.437h.628v.505h-.479c-.239 0-.309.077-.309.281v1.311h-.678v-1.32c0-.398.24-.777.838-.777zm.748-.524h.678v.485h.848c.538 0 .848.379.848.942v.243c0 .572-.32.941-.848.941H92.75V24.09zm.678 1v1.097h.618c.3 0 .39-.126.39-.398v-.311c0-.272-.09-.388-.39-.388h-.618zm3.94 1.611h-1.476c-.44 0-.669-.194-.669-.495 0-.32.26-.476.579-.69l.608-.407h-1.137v-.505h.948c.828 0 1.147.35 1.147.961v1.136zm-.639-.505v-.699l-.648.496c-.08.058-.11.077-.11.126 0 .048.04.077.13.077h.628zm.958-1.767v-.407h.678v.407h-.678zm0 .185h.678v2.097h-.678v-2.097zm1.686 0v1.932c0 .466-.27.69-.719.69h-.289v-.447h.17c.1 0 .16-.049.16-.185v-1.99h.678zm-.679-.185v-.407h.679v.407h-.679zm3.022 2.272h-1.476c-.439 0-.668-.194-.668-.495 0-.32.26-.476.578-.69l.609-.407h-1.137v-.505h.947c.828 0 1.147.35 1.147.961v1.136zm-.648-.505v-.699l-.648.496c-.08.058-.11.077-.11.126 0 .048.04.077.13.077h.628zm.918-1.582h1.336c.629 0 .898.33.898.854v1.243h-.678v-1.262c0-.214-.06-.301-.27-.301h-.598V26.7h-.678v-2.087h-.01zm-27.15 3.544H73.47c-.449 0-.578.155-.578.553v.398c0 .418.14.573.528.573h.439c.27 0 .38-.078.38-.243v-.233h-.729v-.553h1.376v.825c0 .524-.369.757-1.047.757h-.389c-.878 0-1.306-.427-1.306-1.165v-.369c0-.68.438-1.116 1.296-1.116h1.396v.573zm1.128-.049h.628v.505h-.479c-.24 0-.309.078-.309.282v1.31h-.678v-1.32c0-.398.24-.777.838-.777zm2.792 2.088H77.28c-.439 0-.668-.195-.668-.496 0-.32.26-.475.578-.689l.609-.408h-1.137V28.1h.947c.828 0 1.147.35 1.147.962v1.136zm-.648-.505v-.7l-.648.496c-.08.058-.11.077-.11.126s.04.078.13.078h.628zm.928-1.583h1.336c.628 0 .898.33.898.855v1.242h-.679v-1.262c0-.214-.06-.3-.269-.3h-.598v1.553h-.678v-2.088h-.01zm4.807 2.088h-1.526c-.539 0-.848-.38-.848-.942v-.214c0-.573.32-.942.848-.942h.848v-.524h.678v2.622zm-.688-.515v-1.058h-.619c-.299 0-.389.126-.389.398v.272c0 .271.09.388.39.388h.618zm4.139-1.107c0 .573-.34.748-1.087.748h-.629v.874h-.718v-2.622h1.347c.748 0 1.087.204 1.087.738v.262zm-.718-.223c0-.165-.09-.262-.35-.262h-.648v.718h.649c.26 0 .349-.097.349-.252v-.204zm1.735-.243h.629v.505h-.479c-.24 0-.31.078-.31.282v1.31h-.677v-1.32c.01-.398.239-.777.837-.777zm.798-.184v-.408h.679v.408h-.679zm0 .184h.679v2.097h-.679V28.11zm2.045 1.534l-.409.563h-.738l.798-1-.818-1.097h.758l.419.602c.05.068.09.068.14 0l.418-.602h.739l-.758 1.039.787 1.058h-.758l-.409-.563c-.06-.068-.12-.078-.17 0z" id="a"/></defs><g fill="none" fill-rule="evenodd"><mask id="b" fill="#fff"><use xlink:href="#a"/></mask><use fill="#000" fill-rule="nonzero" xlink:href="#a"/><g mask="url(#b)" fill="#151515"><path d="M0 0h122v54H0z"/></g></g></svg>