<svg width="180" height="80" viewBox="0 0 180 80" preserveAspectRatio="xMidYMid meet" xmlns="http://www.w3.org/2000/svg"><g fill-rule="nonzero"><path d="M55.228 29.4v3.23H44.53v5.002h5.965l1.647.1 1.548.313 1.438.735.62.512.72.735.618 1.047.41 1.348.2 1.67-.2 1.56-.31 1.26-.62 1.035-.718.735-.72.624-1.548.725-1.638.312-1.548.11h-9.98V29.4H55.23h-.002zM44.53 47.223h5.555l1.028-.212 1.03-.31.717-.625.31-.623.21-.836.1-.623-.1-.735-.21-.725-.31-.735-.718-.523-1.03-.413-1.028-.11H44.53v6.47z"/><path d="M55.228 29.4v3.23H44.53v5.002h5.965l1.647.1 1.548.313 1.438.735.62.512.72.735.618 1.047.41 1.348.2 1.67-.2 1.56-.31 1.26-.62 1.035-.718.735-.72.624-1.548.725-1.638.312-1.548.11h-9.98V29.4H55.23h-.002zM44.53 47.223h5.555l1.028-.212 1.03-.31.717-.625.31-.623.21-.836.1-.623-.1-.735-.21-.725-.31-.735-.718-.523-1.03-.413-1.028-.11H44.53v6.47z" stroke="#151515" stroke-width=".189" stroke-linejoin="round"/><path d="M70.77 29.4v7.71h2.778L78.9 29.4h4.735l-6.48 9.892 6.582 11.16h-4.935l-5.254-9.177H70.77v9.178h-4.115V29.4"/><path stroke="#151515" stroke-width=".189" stroke-linejoin="round" d="M70.77 29.4v7.71h2.778L78.9 29.4h4.735l-6.48 9.892 6.582 11.16h-4.935l-5.254-9.177H70.77v9.178h-4.115V29.4z"/><path d="M107.61 44.405l-1.03 1.148-1.228.834-1.338.524-1.648.202-1.85-.2-1.645-.736-1.238-1.147-1.03-1.46-.62-1.772-.2-1.87.2-1.984.62-1.67 1.03-1.46 1.24-1.147 1.644-.725 1.85-.312 1.648.2 1.338.525 1.228.936 1.03 1.047 5.045.725-1.03-1.973-1.34-1.772-1.647-1.46-1.846-1.046-2.16-.734-2.266-.2-2.468.2-2.37.835-2.056 1.36-1.645 1.67-1.24 2.082-.818 2.295-.312 2.607.31 2.495.82 2.295 1.24 2.083 1.644 1.77 2.057 1.25 2.368.834 2.468.313 2.266-.313 2.16-.624 1.846-1.147 1.648-1.46 1.338-1.77 1.03-1.983"/><path stroke="#151515" stroke-width=".189" stroke-linejoin="round" d="M107.61 44.405l-1.03 1.148-1.228.834-1.338.524-1.648.202-1.85-.2-1.645-.736-1.238-1.147-1.03-1.46-.62-1.772-.2-1.87.2-1.984.62-1.67 1.03-1.46 1.24-1.147 1.644-.725 1.85-.312 1.648.2 1.338.525 1.228.936 1.03 1.047 5.045.725-1.03-1.973-1.34-1.772-1.647-1.46-1.846-1.046-2.16-.734-2.266-.2-2.468.2-2.37.835-2.056 1.36-1.645 1.67-1.24 2.082-.818 2.295-.312 2.607.31 2.495.82 2.295 1.24 2.083 1.644 1.77 2.057 1.25 2.368.834 2.468.313 2.266-.313 2.16-.624 1.846-1.147 1.648-1.46 1.338-1.77 1.03-1.983z"/><path d="M61.2 52.426h.72V27.418h-.72"/><path stroke="#151515" stroke-width=".189" stroke-linejoin="round" d="M61.2 52.426h.72V27.418h-.72z"/><path d="M88.262 52.426h.62V27.418h-.62"/><path stroke="#151515" stroke-width=".189" stroke-linejoin="round" d="M88.262 52.426h.62V27.418h-.62z"/><path d="M115.233 52.426h.62V27.418h-.62"/><path stroke="#151515" stroke-width=".189" stroke-linejoin="round" d="M115.233 52.426h.62V27.418h-.62z"/><path d="M127.07 49.094l.098.212v.2h.102l.208.112h.2l.21.1h.518v-.1l.41-.936.72-.946 1.027-.826 1.13-.734 1.337-.523 1.34-.413 1.238-.21h1.03l.82.31.408.625.73-1.148.608-1.147.422-1.35.098-.11v-.1l-.41-.523-.72-.312-1.137-.1h-1.337l-1.44.21-1.54.414-1.546.52-1.44.726-1.338.836-1.03 1.046-.618 1.248-.31 1.36.21 1.558.002.001zm12.862-10.314l-.418-2.084-.818-1.982-.932-.835-1.23-.626-1.447-.312-1.538-.11-1.65.21-1.648.413-1.644.635-1.54.936-1.337 1.147-1.14 1.348-.818 1.572-.618 1.87-.103 1.984.312 2.294.818 2.395.103.312.106.21.2.102.11-.102h.098l.213-.11.1-.1.102-.1v-.112l-.103-2.184.31-1.882.72-1.66 1.028-1.46 1.24-1.147 1.537-.835 1.547-.735 1.65-.412 1.537-.1h1.546l1.44.2 1.228.525 1.04.734-.001.001zm-4.532-7.61v.102h.208l.102.1h.21l.097.11v-.11l-.307-.312-.31-.2-2.57-1.148-2.365-.634h-2.267l-2.16.523-1.858.837-1.747 1.248-1.44 1.57-1.137 1.77-.82 1.872-.51 2.084-.11 2.094.31 2.083.72 1.973 1.24 1.88 1.646 1.672.31.2.2.212.11.1h.1v.112h.102l.098.1h.21l.1.1.21.112h.098l.212.1h.201v-.413l-.103-.212-.2-.412-.208-.423-1.13-2.184-.83-2.295-.196-2.293v-2.295l.507-2.083.72-1.984 1.137-1.67 1.338-1.46 1.64-1.036 1.858-.735 1.956-.2 2.258.31 2.37.836v-.001z" fill-opacity=".2"/><path d="M138.697 34.714l-.413.523-.716.2h-.93l-1.14-.31-1.13-.413-1.337-.625-1.128-.635-1.237-.824-.92-.735-.83-.835-.508-.724-.11-.21h-.098v-.102l-.104.1-.11.1v1.461l.42 1.257.917 1.35 1.142 1.257 1.437 1.247 1.537 1.036 1.76.836 1.635.522 1.65.1 1.448-.31v-.312l-.418-2.084-.818-1.872.001.002zm-13.18-3.34v-.626h-.097l-.102.11-.208.202-.21.212-.92 1.77-.307 1.873.197 1.983.622 1.88 1.026 1.773 1.44 1.66 1.65 1.57 1.747 1.148 1.955.936 1.96.523h1.955l1.85-.422 1.03-1.772.62-2.083-1.13.524-1.338.21-1.65-.21-1.648-.524-1.65-.724-1.645-1.047-1.537-1.148-1.343-1.36-1.138-1.56-.818-1.558-.41-1.67.098-1.67h.001zm-1.336-1.15l.103-.1.21-.21.097-.102.11-.1h-.209l-.103.1-.308.1-.212.112-1.846 1.35-1.338 1.568-.928 1.872-.622 2.084-.2 2.083.2 2.195.622 2.183.928 1.983 1.338 1.883 1.65 1.56 2.057 1.247 2.366.836v.1h.92l1.756-.2 1.75-.424.82-.312.83-.412.818-.524.21-.1.097-.11-1.956.422-1.848-.11-1.956-.514-1.75-.946-1.646-1.147-1.55-1.46-1.227-1.66-1.03-1.772-.718-1.882-.31-1.983V35.75l.41-1.872.927-1.882 1.54-1.77-.002-.002z"/></g></svg>