<svg width="180" height="80" viewBox="0 0 180 80" preserveAspectRatio="xMidYMid meet" xmlns="http://www.w3.org/2000/svg" fill="#fff"><g fill-rule="evenodd"><path d="M45.59 27.212c6.943 0 12.567 5.482 12.567 12.28 0 6.78-5.624 12.282-12.567 12.282-6.966 0-12.59-5.503-12.59-12.28 0-6.801 5.624-12.283 12.59-12.283v.001zm.043 2.082l.001.002c-5.776 0-10.47 4.611-10.47 10.283 0 5.673 4.694 10.283 10.47 10.283 5.776 0 10.447-4.61 10.447-10.284s-4.673-10.284-10.448-10.284z" fill-rule="nonzero"/><path d="M41.35 31.461c.367-.19.714-.042.735.298l.043 3.91h7.247l.022-3.783c0-.234.173-.553.476-.404 6.12 2.89 6.857 11.898.173 15.87-.606.362-.628-.21-.628-.318l-.065-3.824-7.29.064v3.845c0 .298-.28.574-.54.447-6.857-3.165-6.793-12.429-.173-16.105zm9.474 13.598c3.246-3.74 3.006-7.436-.043-11.09l.043 11.09zm-8.802-3.548h7.398v-3.888h-7.4v3.888h.002zm-1.362-7.457v-.001l-.044 11.113c-3.244-3.762-3.006-7.458.044-11.112z"/><path d="M82.882 36.094c0-2.805-2.14-4.61-5.364-4.61H70.92V47.65h7.16c3.266 0 5.408-1.848 5.408-4.738 0-1.466-.8-2.868-2.25-3.74 1.233-.722 1.644-2.082 1.644-3.08v.002zm-7.592 1.742v-2.783h1.838c.822 0 1.363.595 1.34 1.466-.02.785-.56 1.316-1.34 1.316H75.29v.001zm0 6.204v-2.868h2.444c.735 0 1.34.595 1.34 1.466 0 .828-.605 1.402-1.34 1.402H75.29zm25.61-4.462c0-4.993-3.135-8.33-7.873-8.33-4.76 0-7.917 3.337-7.917 8.33 0 4.972 3.158 8.308 7.917 8.308 4.738 0 7.874-3.336 7.874-8.308h-.001zm-11.355 0c0-2.592 1.406-4.355 3.482-4.355 2.055 0 3.397 1.763 3.397 4.355 0 2.57-1.342 4.356-3.397 4.356-2.076 0-3.482-1.785-3.482-4.356zm13.022 2.975c-.108 3.208 2.423 5.333 6.316 5.333 3.83 0 6.34-1.955 6.34-5.057 0-3.932-2.88-4.782-6.166-5.08-1.385-.17-1.99-.68-1.99-1.4 0-.915.67-1.467 1.73-1.467s1.752.68 1.687 1.657h4.175c.107-3.166-2.272-5.29-5.928-5.29-3.613 0-6.035 1.954-6.035 5.14 0 3.358 2.812 4.718 5.624 4.91.91.084 2.488.17 2.488 1.487 0 .913-.8 1.444-1.99 1.444-1.233 0-2.055-.68-2.033-1.677h-4.218zM116.78 39.6c0 4.95 3.135 8.265 7.85 8.265 3.31 0 6.793-1.828 7.356-6.417h-4.326c-.325 1.742-1.493 2.55-3.007 2.55-2.077 0-3.44-1.785-3.44-4.42 0-2.72 1.363-4.525 3.418-4.525 1.515 0 2.554.722 3.008 2.38h4.304c-.52-4.314-4.11-6.184-7.31-6.184-4.717 0-7.853 3.335-7.853 8.35v.001zm25.957 1.593v6.46h4.477V31.482h-4.477v5.843h-4.067v-5.842h-4.456v16.17h4.456v-6.46h4.067z" fill-rule="nonzero"/></g></svg>