<svg xmlns="http://www.w3.org/2000/svg" width="180" height="80" viewBox="0 0 180 80" fill="#fff">
  <g fill-rule="nonzero">
    <path d="M30.871 25v6.553L36.452 25zM18.853 28.118c.39-.598.808-1.07 1.387-1.513l.44-.285a5.2 5.2 0 0 1 1.256-.47c.282-.049.541-.075.831-.084.388.013.72.059 1.096.148.265.08.503.17.755.285.57.3 1.003.638 1.44 1.096l.327.395c.48.673.792 1.339 1.021 2.117l.124.53c.017.084.03.167.041.249V25H18v5.6c.119-.617.309-1.428.6-2.03l.253-.452zM40.442 25.906l-9.57 11.239v2.55c.01-.083.025-.166.04-.25l.123-.528a6.857 6.857 0 0 1 1.021-2.118l.328-.397a5.624 5.624 0 0 1 1.205-.97c.242-.129.476-.234.729-.332a4.857 4.857 0 0 1 1.64-.218l.55.077c.461.11.838.254 1.252.473.23.135.436.279.646.44a6.014 6.014 0 0 1 1.435 1.808l.217.476c.175.45.3 1.112.383 1.557V25.906z"/>
    <path d="M35.675 36.214c1.912 0 3.475 2.078 3.473 4.625 0 2.548-1.562 4.626-3.473 4.626-1.913 0-3.472-2.078-3.472-4.626 0-2.548 1.56-4.625 3.472-4.625zm0 8.294c1.352 0 2.453-1.647 2.453-3.669 0-2.02-1.101-3.668-2.453-3.668-1.35 0-2.45 1.648-2.45 3.668 0 2.022 1.1 3.669 2.45 3.669z"/>
    <path d="M31.035 42.763l-.124-.531c-.014-.084-.029-.167-.04-.247v5.586h9.57v-5.559c-.12.62-.31 1.386-.6 1.988l-.255.454a5.85 5.85 0 0 1-1.385 1.51l-.441.284a5.08 5.08 0 0 1-1.251.472 5.938 5.938 0 0 1-.834.084 5.215 5.215 0 0 1-1.096-.148 6.519 6.519 0 0 1-.755-.284 5.405 5.405 0 0 1-1.44-1.096l-.327-.398c-.48-.67-.79-1.339-1.022-2.115zM27.57 32.875a4.478 4.478 0 0 1-.04.25l-.124.528a6.798 6.798 0 0 1-1.021 2.117l-.328.398a5.65 5.65 0 0 1-1.207.97 6.635 6.635 0 0 1-.728.33 4.722 4.722 0 0 1-1.637.216l-.549-.072a5.082 5.082 0 0 1-1.256-.474 6.806 6.806 0 0 1-.646-.44 5.955 5.955 0 0 1-1.433-1.809c-.303-.663-.466-1.289-.601-2.005v13.78l9.57-11.236v-2.553z"/>
    <path d="M22.767 27.106c1.91 0 3.47 2.077 3.47 4.625 0 2.547-1.56 4.623-3.47 4.623-1.913 0-3.473-2.076-3.473-4.623 0-2.548 1.56-4.625 3.473-4.625zm0 8.292c1.349 0 2.448-1.647 2.448-3.667 0-2.02-1.1-3.67-2.448-3.67-1.351 0-2.454 1.65-2.454 3.67s1.103 3.667 2.454 3.667zM27.571 41.02l-5.582 6.551h5.582zM40.164 25h-2.689L18.288 47.571h2.65zM28.405 46.018h1.641v1.554h-1.641z"/>
    <path d="M41.27 46.018v1.553c1.121 0 2.032.86 2.032 1.919 0 1.06-.911 1.92-2.033 1.92-.825 0-1.58-.177-3.148-.545-3.039-.711-6.78-1.589-9.775-2.291-5.384-1.261-10.324.17-10.344 3.512h1.641c0-1.243 2.519-2.068 7.913-.805l9.933 2.328c2.32.543 4.222.412 5.588-.21l.005.004c1.367-.634 2.307-1.961 2.307-3.494 0-2.15-1.846-3.891-4.12-3.891zM97.83 41.97h4.812v2.15H97.83zM123.49 40.542h-4.547v-4.246h-2.55v11.276h2.55v-4.889h4.547v4.889h2.55V36.296h-2.55zM106.497 43.393v-7.097h-2.55v11.276h1.96l5.929-7.131v7.131h2.551V36.296h-1.986zM151.395 36.049c-1.663-.001-3.14.422-4.326 1.489-1.01.895-1.893 2.37-1.893 4.404-.002 1.642.535 3.062 1.892 4.304.983.892 2.26 1.575 4.31 1.572 1.267 0 2.208-.304 2.915-.659l.083-.042v-2.996l-.274.308a3.388 3.388 0 0 1-2.569 1.15c-.928 0-1.865-.318-2.566-.925-.7-.607-1.17-1.5-1.172-2.68 0-.977.362-1.901 1-2.578.635-.676 1.54-1.108 2.652-1.11a3.619 3.619 0 0 1 2.656 1.185l.272.299v-2.988l-.08-.042a6.182 6.182 0 0 0-2.9-.691zM95.993 37.172c.975.828 1.224 1.945 1.224 2.762 0 .442-.065 1.666-.993 2.557-.67.642-1.666 1.016-3.02 1.015H91.91v4.066h-2.55V36.296h3.498c.651 0 1.21.032 1.722.16a3.4 3.4 0 0 1 1.412.716zm-1.955 3.879c.37-.28.56-.73.559-1.167 0-.558-.278-.921-.573-1.13-.416-.281-.965-.32-1.493-.318h-.62v2.93h.758c.432 0 .937-.005 1.37-.315zM155.109 36.296v2.14h2.584v9.136h2.551v-9.136h2.582v-2.14zM61.662 47.571h6.685V45.43h-4.135v-2.698h3.963v-2.141h-3.963v-2.156h4.135v-2.14h-6.685zM134.021 41.495c.577.153.957.422 1.21.651.735.67.875 1.57.876 2.166 0 .666-.197 1.62-1.035 2.334-.9.758-1.998.926-3.013.925h-4.014V36.295h2.998c.64.002 1.917-.007 2.902.722.717.53 1.128 1.428 1.129 2.39.001.74-.26 1.276-.563 1.639a2.516 2.516 0 0 1-.49.45zm-.665 3.234c.096-.2.133-.417.133-.615 0-.156-.029-.369-.135-.571-.107-.204-.287-.401-.618-.545l.005.002-.007-.002c-.44-.196-.986-.201-1.468-.2h-.67v2.731h.809c.408.002 1.002-.02 1.453-.274a1.19 1.19 0 0 0 .498-.526zm-2.76-6.392v2.518h.481c.124 0 .387-.005.66-.079.274-.074.55-.212.726-.472.118-.173.198-.406.199-.732-.004-.465-.178-.752-.456-.948-.278-.195-.677-.287-1.112-.287h-.499zM137.489 47.571h6.685V45.43h-4.135v-2.698h3.963v-2.141h-3.963v-2.156h4.135v-2.14h-6.685zM59.218 36.296h-2.551v9.135H52.43v-9.135h-2.55v11.276h8.338v2.469h2.377v-4.61h-1.377zM77.105 40.542h-4.547v-4.246h-2.55v11.276h2.55v-4.889h4.547v4.889h2.55V36.296h-2.55zM80.649 38.436h2.584v9.136h2.55v-9.136h2.584v-2.14h-7.718zM72.263 28.391h-3.542v-3.37h-2.089v9.011h2.089v-3.88h3.543v3.88h2.089v-9.011h-2.089v3.37zM60.377 25.021h1.707l3.891 9.011h-2.25l-.807-1.83h-3.47l-.806 1.83h-2.268l4.003-9.01zm-.241 5.5h2.138l-1.058-2.581-1.08 2.58zM79.791 29.198l4.003-4.177h-2.668l-3.122 3.434v-3.434h-2.088v9.011h2.088v-3.798l.035-.033 3.178 3.831h2.759zM55.43 29.226c.553.471.914 1.182.914 2.044 0 .62-.202 1.185-.534 1.64l.002-.002-.003.003c-.37.5-.861.784-1.355.937-.495.155-.992.184-1.397.184h-3.176v-9.01h5.587v1.76H51.97v1.7h1.074c.698 0 1.63.106 2.386.744zm-1.496 2.703c.206-.186.264-.422.266-.646-.001-.249-.07-.5-.279-.693-.21-.193-.58-.346-1.233-.346h-.718v2.027h.69c.69 0 1.068-.156 1.274-.342z"/>
  </g>
</svg>
