<svg width="180" height="80" viewBox="0 0 180 80" preserveAspectRatio="xMidYMid meet" xmlns="http://www.w3.org/2000/svg" fill="#fff"><path d="M130.587 57.062c-.867 1.485-2.062 5.794-5.045 6.615-1.575.435-2.838.132-4.005.333-1.297.223-1.79 1.126-3.285 1.2-3.026.146-2.172-1.483-4.82.758-3.257 2.753-6.27.716-6.13-3.626.137-4.19-5.13-4.6-3.915-9.728 1.407-5.944-1.244-10.38 2.82-13.552 2.61-2.035 2.785-3.39 6.163-5.39 2.737-1.62 7.264-2.567 10.916-.956 2.4 1.06 3.902 2.973 5.715 5.004 1.608 1.8 3.8 3.99 4.45 6.45 1.082 4.11.29 7.498-2.863 12.892h-.001zM123.9 61.61c1.542-.187 2.536-.87 3.082-2.173.195-.467.107-.838-.35-.37-.848.87-2.186 1.624-3.242 2.05-1.376.56-.24.583.51.492v.001zm-5.07 1.248c1.42-.49.83-.54-.248-.645-.53-.05-1.043-.015-1.79.015-1.98.08.647 1.11 2.04.63h-.002zm-13.17-7.933c-.2-.565-.013-2.082-.662-2.124-.575-.038-.61.9-.593 1.3.182 3.982 4.35 1.888 4.45 7.883.037 2.13.517 2.856.98 2.816.465-.04.914-.848.89-1.782-.105-3.876-4.195-5.644-5.065-8.093zm17.57-20.82c-1.804-1.257-4.247-1.426-6.026-1.1-1.73.313-1.43 1.583-.095 1.236.487-.124 3.358-.838 5.504.02 1.64.655 1.37.366.618-.156h-.001zm-4.843 1.987c-6.65 0-12.04 5.45-12.04 12.173 0 6.722 5.39 12.173 12.04 12.173 6.653 0 12.044-5.45 12.044-12.173 0-6.724-5.392-12.173-12.045-12.173h.001zm0 23.846c-6.37 0-11.537-5.22-11.537-11.662 0-6.44 5.166-11.663 11.537-11.663 6.374 0 11.54 5.222 11.54 11.663 0 6.442-5.166 11.662-11.54 11.662zm-.636-1.34l5.183-9.15h-.885l-5.185 9.15h.887zm-2.984-.547l4.876-8.6h-.885l-4.703 8.298c.233.11.47.21.712.303v-.001zm-3.267-2.003a10.455 10.455 0 0 0 4.276-6.512c-.924-.273-1.9-.42-2.91-.42-1.662 0-3.232.397-4.624 1.102a10.46 10.46 0 0 0 3.258 5.83zm6.885-18.205c-5.498 0-9.992 4.345-10.302 9.825.357.038.72.057 1.09.057 5.5 0 9.992-4.345 10.304-9.824a9.83 9.83 0 0 0-1.092-.058zm3.537 1.29l-4.846 8.552h.886l4.847-8.552h-.888.001zm3.15 1.196a10.453 10.453 0 0 0-3.767 6.57c1.116.417 2.323.645 3.583.645 1.313 0 2.568-.25 3.723-.7a10.44 10.44 0 0 0-3.537-6.515h-.002zm.26 9.12l-5.162 9.106c4.477-.788 7.963-4.494 8.473-9.105h-3.313l.002-.001zm-4.177 8.367l4.46-7.87h2.464c-.628 3.75-3.342 6.81-6.925 7.87h.001zm.65-.543c.39-.15.77-.327 1.13-.526l-.345-.856-.784 1.382h-.001zm5.914-7.025h-.53l.326.806a9.79 9.79 0 0 0 .203-.806h.001zm-.35 1.252l-.502-1.253h-.767l.883 2.195c.146-.307.275-.62.388-.943l-.002.001zm-.567 1.3l-1.02-2.542-.45.792 1.014 2.525c.165-.252.316-.51.456-.776v.001zm-.66 1.075l-1-2.49-.448.792.945 2.35c.176-.21.345-.428.503-.652zm-.726.906l-.91-2.27-.45.793.816 2.033c.19-.177.37-.363.544-.555v-.001zm-.78.77l-.77-1.912-.45.792.64 1.59c.2-.147.392-.306.58-.47zm-1.41-.786l-.448.79.418 1.042c.208-.123.413-.255.61-.393l-.58-1.44v.001zm-1.368-8.197a9.938 9.938 0 0 1 3.203-5.586 9.961 9.961 0 0 1 3 5.537 9.73 9.73 0 0 1-3.175.53c-1.03 0-2.05-.16-3.03-.48l.002-.001zm2.327.15l.434-1.473-.996.53-.25.85c.27.043.54.075.813.094l-.001-.001zm-1.11-.146l.177-.597-.836.444c.218.06.438.11.66.154l-.001-.001zm-.824-.408l1.197-.636-.975-.125c-.084.25-.157.505-.222.762v-.001zm.325-1.054l1.334.172 1.05-.56-2.112-.27c-.1.215-.19.434-.272.658zm.41-.946l2.436.312 1.05-.56-3.132-.4c-.126.21-.244.426-.354.648zm2.07-2.77c-.313.29-.603.6-.873.924l1.873.24c-.3-.41-.635-.8-1-1.164zm1.235 1.5l-2.328-.298a9.664 9.664 0 0 0-.447.635l3.23.416a9.71 9.71 0 0 0-.455-.753zm1.426 3.42a9.696 9.696 0 0 0-.39-1.375l-.472 1.6c.29-.06.578-.137.86-.225h.002zm-1.193.29l.624-2.12a7.916 7.916 0 0 0-.215-.47l-.576.306-.706 2.396c.293-.024.584-.062.873-.112zm-.538-2.086l-.998.53-.497 1.69a10.18 10.18 0 0 0 .84-.002l.654-2.218h.001zm-16.814 2.712c-.187 0-.375-.008-.562-.017.527-5.02 4.732-8.876 9.775-8.876.19 0 .377.006.564.015-.527 5.02-4.734 8.877-9.777 8.877v.001zm2.19-.56l-1.747-.12-.44.377c.752 0 1.483-.09 2.187-.257zm-2.38.027l.81-.694.06-2.027a9.597 9.597 0 0 0-.87 2.72v.001zm3.232-.273a9.518 9.518 0 0 0 1.63-.735l-2.986-.203-.916.783 2.27.154.002.001zm-2.047-3.038l-.067 2.354.987-.845.087-2.92c-.374.438-.71.91-1.006 1.41l-.001.001zm1.315-1.754l-.088 3 .987-.846.09-3.067c-.35.28-.68.584-.99.912l.001.001zm1.297-1.147l-.09 3.037.987-.845.084-2.826c-.34.192-.667.404-.98.635l-.001-.001zm1.285-.798l-.08 2.727.988-.846.07-2.316a9.318 9.318 0 0 0-.978.435zm1.28-.544l-.064 2.163.988-.847.047-1.59c-.33.072-.653.164-.97.273l-.001.001zm3.04-.503c-.603 0-1.193.057-1.768.166l-.04 1.39 1.818-1.556h-.01zm.192.242l-1.18 1.01.94.062c.1-.35.18-.707.24-1.072zm-.33 1.37l-1.18-.08-.912.782 1.79.12c.112-.267.214-.542.303-.823l-.001.001zm-.433 1.117l-1.987-.136-.915.783 2.475.167c.154-.264.297-.534.427-.815v.001zm-.604 1.106l-2.626-.18-.913.784 2.97.202c.204-.26.394-.527.57-.806h-.001zm-.804 1.093l-3.064-.21-.913.782 3.218.22c.267-.25.52-.515.758-.793l.001.001zm-4.306.854l-.914.78 3.107.213c.363-.234.71-.494 1.04-.774l-3.233-.22v.001zm3.093 5.466a9.97 9.97 0 0 1-3.652 5.518 9.95 9.95 0 0 1-2.738-4.912 9.706 9.706 0 0 1 4.064-.887 9.76 9.76 0 0 1 2.327.28l-.001.001zm-1.698.043l-.263.952 1.36-.815a9.34 9.34 0 0 0-1.097-.137zm1.265.39l-.933.557.71.085c.08-.21.155-.425.223-.642zm-.343.932l-1.013-.12-1.118.67 1.767.21c.132-.248.253-.5.364-.76zm-.524 1.045l-2.032-.242-1.117.67 2.672.318c.17-.24.33-.49.478-.746h-.001zm-2.328 2.706c.267-.213.522-.44.762-.68l-1.497-.176c.228.3.473.584.736.856h-.001zm-.978-1.19l2.006.237c.218-.23.423-.475.617-.727l-2.892-.345-.188.114c.142.247.293.486.457.722v-.001zm-1.435-3.144c.16.642.39 1.264.678 1.854l.638-2.306a9.25 9.25 0 0 0-1.316.452zm1.65-.533l-.73 2.636 1.207-.722.577-2.088a8.956 8.956 0 0 0-1.055.173l.001.001zm.85 1.69l1.207-.722.33-1.19a9.357 9.357 0 0 0-1.014.019l-.524 1.894.001-.001zm8.92-25.24l-2.868.106a.258.258 0 0 1-.263-.266V20.98c0-.302.067-.72.156-1.192l-.104-.027s-1.675 3.242-2.716 5.06c-1.038 1.82-1.956 1.738-2.192 1.738h-.986a.28.28 0 0 1-.277-.28v-7.614l-1.1-.134c-.155-.02-.285-.114-.285-.267v-.83c0-.153.128-.27.286-.287l3.13-.312a.264.264 0 0 1 .286.267V21.9c0 .484-.092 1.09-.214 1.702l.122.027s2.868-5.757 3.098-6.165c.23-.41.52-.47.663-.47h2.176c.153 0 .278.128.278.282V25.2l.814.26c.137.042.262.114.262.265v.582c0 .152-.118.28-.262.284l-.004-.004zm-7.717-12.947c-.062-.205.053-.3.173-.338l.996-.29c.067-.018.24-.048.297.124.42 1.237 2.05 1.237 2.472 0 .058-.172.23-.142.297-.123l.994.29c.12.037.234.132.174.337-.784 2.662-4.622 2.662-5.404 0h.001zm-8.617 13.163c-3.205 0-4.528-1.8-4.528-5.035 0-3.236 1.322-5.034 4.527-5.034s4.526 1.798 4.526 5.034c0 3.235-1.32 5.035-4.526 5.035h.001zm0-8.26c-1.75 0-2.187 1.296-2.187 3.225 0 1.93.436 3.226 2.187 3.226 1.75 0 2.185-1.296 2.185-3.226s-.436-3.225-2.185-3.225zM99.38 45.21h-.733s-1.237.012-1.996-.853c-.758-.865-1.087-2.47-1.765-2.93-.376-.255-.86-.32-1.172-.332v3.72a.28.28 0 0 1-.278.28h-1.763a.281.281 0 0 1-.278-.28v-7.717l-.94-.16c-.146-.024-.27-.123-.27-.276v-.83a.28.28 0 0 1 .27-.276l2.985-.192c.15-.008.273.126.273.277v3.557h.555s.34.016.788-.737c.447-.755.984-2.03 1.717-2.506.734-.474 1.498-.484 1.76-.484h.73c.093 0 .165.076.165.167v1.624a.165.165 0 0 1-.165.168h-.73c-.608 0-1.212 1.128-1.36 1.375-.148.248-1.002 1.118-1.002 1.118v.093s.83.46 1.222 1.242c.392.78.74 1.438 1.125 1.757.188.154.407.217.583.24h.28c.088 0 .164.075.164.167v1.623a.167.167 0 0 1-.165.166v-.001zm-1.226-18.54h-.73s-1.237.012-1.996-.853c-.762-.866-1.09-2.473-1.767-2.93-.377-.255-.862-.32-1.174-.332v3.72a.28.28 0 0 1-.28.28H90.45a.28.28 0 0 1-.276-.28v-7.72l-.94-.157c-.146-.024-.27-.123-.27-.275l-.002-.832c0-.15.123-.266.273-.275l2.982-.19c.15-.01.274.122.274.275v3.559h.556s.34.015.786-.74c.448-.753.986-2.03 1.72-2.503.733-.476 1.496-.484 1.758-.484h.73c.092 0 .166.075.166.166v1.623a.165.165 0 0 1-.165.166h-.73c-.608 0-1.212 1.128-1.36 1.376-.148.247-1 1.116-1 1.116v.094s.826.46 1.218 1.24c.394.78.74 1.44 1.126 1.757.19.155.406.217.582.24h.28c.09 0 .164.076.164.168v1.625c0 .09-.073.167-.165.167l-.003-.001zm-8.82 17.53v.588c-.005.213-.16.293-.383.305l-2.245.09c-.35.012-.44-.504-.464-1.286-.768.907-1.66 1.535-2.876 1.436-1.895-.1-2.51-1.214-2.637-2.718-.092-2.346 1.68-3.377 5.276-3.122 0-2.835-1.55-2.67-3.652-2.068-.24.07-.688.317-.788.013l-.193-1.076c-.027-.173.035-.287.16-.357 2.764-1.25 6.7-1.235 6.7 2.802v4.903c.272.06.546.12.82.183.17.044.275.14.282.306v.001zm-3.33-3.16c-1.002-.063-3.082-.114-3.086 1.36-.005 1.542 2.295 1.48 3.086.177V41.04zm1.734-14.7c-.968.283-1.967.45-2.84.447-3.186-.008-4.664-2.217-4.673-4.916-.013-4.566 3.39-5.893 7.178-4.73.24.064.3.21.296.435l-.082 2.016c-.004.205-.067.327-.187.35h-.79c-.09.007-.152-.06-.186-.188l-.17-.823c-.036-.18-.232-.266-.474-.296-1.998-.382-3.147.776-3.183 2.863-.055 3.158 1.998 4.11 4.61 3.105.263-.1.498-.128.546.174l.17 1.074c.042.268.012.422-.214.487l-.001.002zm-12.215 9.17c1.916 0 4.013 1.533 4.013 5.007 0 3.47-2.2 4.85-4.594 4.85-2.392 0-4.426-1.73-4.426-5.565 0-3.838 1.184-5.79 2.38-6.675 1.198-.884 2.664-1.234 3.372-1.586.708-.35.87-.877.914-1 .044-.124.164-.313.418-.23.255.085 1.535.553 1.583.575.048.022.282.114.11.448-.175.335-.708 1.573-1.878 2.1-1.173.528-2.55.5-3.546 1.295-1 .793-1.488 2.354-1.488 2.354s1.223-1.573 3.14-1.573h.002zm-.5 7.992c1.556 0 2.118-1.362 2.118-3.038 0-1.677-.56-3.037-2.118-3.037-1.554 0-2.115 1.36-2.115 3.037 0 1.676.56 3.038 2.115 3.038zm2.96-16.944H76.22a.282.282 0 0 1-.277-.28v-3.55h-3.316v3.55a.28.28 0 0 1-.276.28h-1.762a.28.28 0 0 1-.278-.28v-7.72l-.94-.157c-.146-.024-.27-.123-.27-.275v-.832c0-.15.12-.266.27-.275l2.985-.19c.15-.01.272.122.272.275v3.769h3.316v-3.6c0-.155.125-.28.277-.28h1.764a.28.28 0 0 1 .276.28v9.004a.28.28 0 0 1-.276.28l-.002.001zM69.39 44.202v.588c-.004.213-.158.293-.384.305l-2.245.09c-.35.012-.44-.504-.462-1.286-.767.907-1.66 1.535-2.875 1.436-1.895-.1-2.512-1.214-2.64-2.718-.09-2.346 1.68-3.377 5.277-3.122 0-2.835-1.548-2.67-3.65-2.068-.243.07-.69.317-.79.013l-.192-1.076c-.028-.173.034-.287.16-.357 2.764-1.25 6.7-1.235 6.7 2.802v4.903c.272.06.545.12.82.183.17.044.274.14.28.306l.001.001zm-3.33-3.16c-1.002-.063-3.08-.114-3.087 1.36-.003 1.542 2.296 1.48 3.087.177v-1.537zm-2.692-14.237c-3.204 0-4.527-1.8-4.527-5.035 0-3.236 1.324-5.034 4.528-5.034 3.205 0 4.527 1.798 4.527 5.034 0 3.235-1.322 5.035-4.527 5.035h-.001zm0-8.26c-1.75 0-2.185 1.296-2.185 3.225 0 1.93.436 3.226 2.185 3.226 1.75 0 2.186-1.296 2.186-3.226s-.437-3.225-2.186-3.225zM57.604 29.43h-1.6a.252.252 0 0 1-.25-.252v-2.616H48.1v2.616c0 .14-.112.253-.25.253h-1.6a.252.252 0 0 1-.25-.252v-3.835c0-.105.066-.198.158-.235 2.754-1.85 2.207-5.364 2.575-8.375.27-2.198 1.265-3.117 3.403-3.117h4.234a.28.28 0 0 1 .275.28V24.67h.96c.136 0 .25.115.25.254v4.254c0 .14-.114.253-.25.253l-.001-.001zM54.328 15.9c0-.228-.158-.356-.3-.356h-1.73c-.786 0-1.26.49-1.36 1.4-.242 2.235.122 5.67-1.415 7.726h4.805V15.9zm-3.592 16.256h9.54c.105 0 .192.088.192.195v2.922c0 .1-.08.182-.18.182h-1.07c-.096 0-.15-.085-.176-.182l-.28-1.113h-2.078v9.076l1.327.376c.108.03.204.095.204.21v1.066a.206.206 0 0 1-.203.207h-5.009a.207.207 0 0 1-.203-.207V43.82c0-.113.094-.178.202-.208l1.326-.376V34.16h-2.076l-.282 1.11c-.024.097-.08.182-.177.182h-1.07a.18.18 0 0 1-.177-.182v-2.92c0-.107.085-.195.19-.195v.001z" fill-rule="nonzero"/></svg>