<svg width="180" height="80" viewBox="0 0 180 80" preserveAspectRatio="xMidYMid meet" xmlns="http://www.w3.org/2000/svg"><path d="M131.333 45.463c.402.787.942 1.127.942 1.127h-11.063s.454-.497.294-1.1l-.722-1.783h-4.412l-.722 1.782c-.158.603.295 1.1.295 1.1h-8.917s.5-.42.823-1.127l4.73-12.23c.319-.772-.209-1.222-.209-1.222h14.192s-.503.457-.236 1.244l5.003 12.21.002-.001zm-12.673-7.076c-.133-.307-.15-.75-.15-.75h-.016s-.018.443-.153.75c-.04.1-1.102 2.672-1.102 2.672h2.527l-1.106-2.673v.001zm-30.042 6.865V32.92c0-.655-.437-.92-.437-.92h17.104v4.713s-.633-.654-1.563-.654H97.42v1.165h4.837c.27 0 1.096-.07 1.312-.368l-.006 4.45c-.206-.267-1.035-.36-1.305-.36h-4.837l.002 1.163h6.3c.93 0 1.566-.65 1.566-.65v5.13h-17.2c.57-.275.532-1.214.532-1.338l-.003.001zm-14.267.434l-3.13-5.072v4.638c0 .125-.128 1.063.44 1.338H61.59c.568-.276.53-1.213.53-1.338V32.92c0-.655-.436-.92-.436-.92h9.976s-.44.265-.44.92l.004 4.888 3.446-4.713c.494-.705-.067-1.095-.067-1.095H84.7c0 .027-.477.285-.923.854l-3.757 5.093 4.734 7.424c.412.54.764.796 1.053 1.01.178.133.298.21.298.21H74.312s.334-.196.04-.904l-.001-.001zM47 46.59c.568-.275.53-1.214.53-1.338V32.92c0-.656-.438-.92-.438-.92h10.252s-.434.266-.434.92v12.33c0 .124-.038 1.063.53 1.338H47v.002z" fill-rule="nonzero"/></svg>