<svg width="180" height="80" viewBox="0 0 180 80" preserveAspectRatio="xMidYMid meet" xmlns="http://www.w3.org/2000/svg"><path d="M87.248 37.26c-.516.345-.516.775-.516 1.077v5.38c0 .304 0 .733.516 1.078h-2.186c.518-.345.518-.774.518-1.077v-5.38c0-.303 0-.733-.518-1.078h2.186zm.822 7.535c.328-.216.398-.475.398-.754V40.33c0-.28-.07-.538-.398-.754h.848a.966.966 0 0 0 .596-.172v.838c.45-.74 1.15-.88 1.69-.88.463 0 1.388.074 1.873 1.01.552-.85 1.34-1.01 1.94-1.01 1.926 0 2.073 1.41 2.073 2.162v2.52c0 .278.068.537.394.753h-1.86c.327-.216.396-.475.396-.754v-2.26c0-.667-.136-1.603-1.32-1.603-1.33 0-1.388 1.045-1.388 1.54v2.324c0 .28.07.54.395.755H91.85c.326-.216.392-.475.392-.754v-2.336c0-.387-.044-1.527-1.34-1.527-1.365 0-1.365 1.14-1.365 1.302v2.56c0 .28.067.54.395.755H88.07v-.004zm9.657 2.377c.327-.214.394-.473.394-.753v-6.092c0-.28-.066-.538-.393-.754h.822a.967.967 0 0 0 .597-.172v.85c.62-.73 1.41-.893 2.018-.893 1.94 0 2.84 1.248 2.84 2.614 0 1.572-.958 2.98-2.918 2.98-.304 0-.61-.043-.913-.116l-.688-.96c.428.185.8.26 1.353.26.3 0 1.993-.01 1.993-2.056 0-1.292-.923-1.852-1.904-1.852-.925 0-1.738.432-1.738 1.53v4.66c0 .27.08.538.452.752h-1.917l.002.002zm8.08-5.844c.16-.7.8-1.15 1.656-1.15.848 0 1.423.45 1.49 1.15h-3.146zm4.43.7c.034-1.14-.595-2.67-2.715-2.67-1.86 0-2.998 1.174-2.998 2.768 0 1.817 1.34 2.83 3.324 2.83.61 0 1.116-.055 1.725-.237l.744-1.12c-.675.354-1.363.537-2.232.537-1.7 0-2.445-.97-2.388-2.11h4.54v.002zm.305 2.767c.327-.216.394-.475.394-.754V40.33c0-.28-.067-.538-.394-.754h.822c.237 0 .408-.043.588-.172v.86c.26-.398.767-.903 1.52-.903.137 0 .262.01.395.042v1.054c-.18-.118-.37-.17-.618-.17-.578 0-1.243.3-1.243 1.537v2.218c0 .27.08.54.45.755h-1.915l.001-.002zm5.09-5.22a.968.968 0 0 0 .597-.173v4.64c0 .278.067.537.392.753h-1.86c.33-.216.396-.475.396-.754V40.33c0-.28-.067-.538-.395-.754h.87v-.001zm0-2.13c.384 0 .72.32.72.687 0 .366-.336.69-.72.69-.385 0-.722-.324-.722-.69 0-.366.337-.688.722-.688v.001zm2.828 2.01a6.087 6.087 0 0 1 1.026-.096c1.87 0 2.05 1.14 2.05 1.85v2.1c0 .623.362.742.812.763h.214l-.54.722h-.17c-.36 0-1.386-.022-1.386-1.206v-1.692c-.35.228-.63.26-1.195.388-.506.12-1.137.29-1.137.947 0 .238.102.904 1.138.904.306 0 .644-.043.98-.14l-.72.862a2.736 2.736 0 0 1-.722.095c-1.093 0-1.825-.7-1.825-1.7 0-1.162 1.07-1.378 1.916-1.56.968-.216 1.52-.302 1.52-.84 0-.42-.36-.678-1.035-.678-.237 0-.948.032-1.635.398l.71-1.12-.001.003zm5.22-2.195a.972.972 0 0 0 .598-.172v6.953c0 .28.067.54.394.755h-1.858c.327-.216.394-.475.394-.754v-6.026c0-.28-.067-.538-.394-.754h.866v-.002zM86.762 54.687c0 .31 0 .752.508 1.107h-2.145c.51-.355.51-.797.51-1.107v-5.75l-1.318-.01c-.265 0-.74.043-1.15.463l.442-1.38c.265.042.42.042.707.042h4.28c.23 0 .475-.022.674-.043l-.385 1.293c-.212-.377-.61-.377-.886-.377l-1.238.01v5.75l.001.002zm4.225-3.637c1.306 0 1.948.995 1.948 2.033 0 1.23-.775 2.036-1.904 2.036-1.303 0-1.944-.997-1.944-2.037 0-1.227.775-2.033 1.9-2.033v.001zm.067-.84c-1.748 0-3.118 1.204-3.118 2.873 0 1.472 1.106 2.877 3.02 2.877 1.757 0 3.13-1.195 3.13-2.877 0-1.47-1.108-2.874-3.032-2.874v.001zm4.326-2.158a.92.92 0 0 0 .587-.176v7.11c.31.066.74.133 1.104.133 1.305 0 2.102-.785 2.102-2.037 0-1.204-.708-2.033-1.768-2.033-.377 0-.775.1-1.128.276l.507-.82c.09-.143.244-.297.974-.297 1.538 0 2.566 1.073 2.566 2.697 0 3.018-3.142 3.053-3.53 3.053-.816 0-1.646-.1-2.232-.19.288-.22.354-.463.354-.75v-6.193c0-.288-.066-.554-.386-.775h.852l-.002.002zm7.315 2.257c.31-.057.642-.1 1.007-.1 1.834 0 2.012 1.17 2.012 1.9v2.158c0 .64.354.762.796.784h.21l-.53.742h-.167c-.353 0-1.358-.023-1.358-1.24V52.82c-.344.23-.62.263-1.173.396-.5.122-1.118.3-1.118.973 0 .242.098.93 1.118.93.3 0 .628-.046.96-.146l-.707.886c-.233.065-.463.1-.707.1-1.073 0-1.79-.72-1.79-1.748 0-1.194 1.05-1.416 1.878-1.605.952-.22 1.494-.307 1.494-.86 0-.433-.356-.697-1.018-.697-.233 0-.93.034-1.603.41l.695-1.15h.001zm8.986 1.27a2.282 2.282 0 0 0-1.468-.53c-.996 0-2.013.586-2.013 1.923 0 1.25.84 2.146 2.4 2.146 1.06 0 1.568-.32 1.823-.51-.642 1.217-.863 1.35-2.09 1.35-.785 0-1.758-.08-2.543-.897-.4-.408-.74-1.05-.74-1.935 0-.85.34-1.56.83-2.044.717-.72 1.578-.875 2.498-.875.773 0 .397.064 1.303.153V51.579zm5.62 0c-.3-.243-.785-.53-1.472-.53-.994 0-2.013.586-2.013 1.923 0 1.25.84 2.146 2.4 2.146 1.06 0 1.57-.32 1.826-.51-.64 1.217-.863 1.35-2.09 1.35-.784 0-1.758-.08-2.544-.897-.398-.408-.74-1.05-.74-1.935 0-.85.342-1.56.83-2.044.72-.72 1.58-.875 2.498-.875.774 0 .398.064 1.306.153v1.218l-.001.001zm4.09-.53c1.305 0 1.946.995 1.946 2.033 0 1.23-.774 2.036-1.9 2.036-1.306 0-1.948-.997-1.948-2.037 0-1.227.774-2.033 1.903-2.033l-.001.001zm.066-.84c-1.747 0-3.116 1.204-3.116 2.873 0 1.472 1.105 2.877 3.02 2.877 1.755 0 3.127-1.195 3.127-2.877 0-1.47-1.106-2.874-3.03-2.874l-.001.001zM68.146 26.182c3.994 0 11.105 4.158 11.105 4.158s-2.132.165-3.282.546c-1.15.384-1.697 2.464-1.697 2.464s-5.25 20.297-5.797 22.266c-.547 1.97-1.587 2.408-1.587 2.408H74c3.064 0 3.5-2.19 3.5-2.19l6.128-23.196c5.362 2.078 8.918.382 13.73-4.103-3.554 1.204-5.415.054-5.415.054C85.816 27.057 83.573 20 73.34 20c-10.23 0-13.4 8.7-13.4 8.7s3.28-2.517 8.205-2.517l.001-.001zm6.51 4.21H68.69c-2.353 0-3.612.493-3.612.493-1.148.384-1.695 2.464-1.695 2.464s-5.25 20.297-5.8 22.266C57.04 57.586 56 58.024 56 58.024h7.11c3.066 0 3.503-2.19 3.503-2.19l6.127-23.196c.494-1.696 1.915-2.244 1.915-2.244l.001-.002z" fill-rule="nonzero"/></svg>