<svg width="180" height="80" xmlns="http://www.w3.org/2000/svg"><path d="M58.11 64.097c-1.82 2.845-2.55 4.222-2.46 4.956 0 .276.092.643 1.003.55 2.278-.182 5.83-2.385 5.65-4.955-.092-1.193-1.185-1.652-3.827-1.377-.82.093-1.64.277-2.46.552-.274.092-.456.183-.638.367v.09c.182.093.364.184.546.184-.637.276-1.275.55-1.913.735-.09.09-.272.09-.363 0a.508.508 0 0 1-.274-.46c-.182-1.47.183-1.836 1.458-2.478 1.186-.55 2.46-.918 3.828-1.01 1.093-.092 3.918-.184 4.19 2.845.365 4.13-4.737 6.7-7.288 6.976a.947.947 0 0 1-1.093-.735v-.367c-.09-1.375 1.913-4.22 3.37-6.79l.274.917h-.003zm8.292 2.754v.46c-.09.367-.182.826-.364 1.193v.092c0 .183.182.183.364.183l.547-.275c.09 0 .18 0 .18.092-.272.458-.728.826-1.274.917h-.274c-.364.643-.91 1.01-1.64 1.102-1.002.09-1.55-1.01-1.55-1.744-.09-1.193 1.55-3.212 2.917-3.304.272-.092.546.092.728.275v.368c.182 0 .364.276.364.643l.002-.002zm-1.55 1.836c0-.275 0-.55.092-.826.183-.734.365-.918.274-1.01 0-.09-.09-.09-.182-.09-.456.182-.82.55-1.094.917-.455.46-.638 1.01-.638 1.652 0 .274.274.55.547.55h.092c.456-.092.82-.276 1.094-.643-.092-.275-.183-.367-.183-.55h-.002zm8.84-3.396a.692.692 0 0 1 .455.643c-.09.367-.365.734-.638 1.01-.274.367-.457.734-.457 1.193 0 .183.183.367.365.46h.09c.274-.093.548-.277.73-.552.09-.184.273-.367.455-.46.09 0 .09 0 .183.093-.092.275-.183.55-.456.734-.456.643-1.093 1.194-1.822 1.47-.365.09-.638-.092-.73-.46v-.183c-.09-.826.64-1.377.912-2.386-1.913 1.47-2.733 3.03-3.098 3.03-.273-.184-.364-.46-.364-.735.09-.46.182-.826.455-1.1.274-.368.456-.735.456-1.194-.092-.917-1.732 3.03-3.008 3.12a.878.878 0 0 1-.638-.825c0-.734.365-1.377.912-1.744.09 0 .09 0 .09.093-.09.367-.09.734-.09 1.193 0 .092 0 .276.09.367.183 0 .82-1.285 1.732-2.202a10.2 10.2 0 0 1 1.822-1.65c.182 0 .456.09.456.64a.84.84 0 0 1-.274.644c-.364.458-.638.917-.638 1.468v.092c2.37-2.478 2.825-2.754 3.007-2.754l.003-.005zm6.377 4.773c-.64 1.47-1.186 2.845-1.823 2.845-.09 0-.456 0-.547-1.01-.182-1.835.547-2.02 2.004-2.845l.82-1.927c-1.093 1.193-1.73 1.744-2.186 1.836-.547.09-1.276-1.194-1.276-1.652-.182-1.47 3.19-3.396 4.465-3.488.364 0 .73.183.82 1.193 0 .184 0 .367-.09.46l-1.64 3.21 2.094-1.192c.092-.092.274-.183.366 0 0 .092 0 .184-.092.184l-2.642 1.744-.273.643v-.001zm-1.732-2.11c.638-.093 3.19-2.387 3.098-2.938 0-.092-.092-.092-.183-.092-.82.276-1.55.643-2.186 1.193-.547.276-1.003.918-1.003 1.56 0 .092 0 .184.092.184 0 .092.09.092.182.092v.001zm-.274 3.854v.183c.456-.09.638-.55 1.003-1.56l.273-.642c-.73.367-1.276 1.1-1.276 2.02v-.001zm5.194-3.212c-.365-.092-.547-.368-.547-.735-.09-.55.366-1.835.82-1.835.092 0 .183 0 .183.09 0 .093 0 .093-.09.185-.092.275-.092.642-.092.918 0 .092 0 .275.092.275.182 0 .73-1.1 1.73-2.11.548-.55 1.095-1.102 1.824-1.47.273.092.364.368.455.643-.18.367-.363.734-.637 1.102-.273.367-.455.734-.455 1.193 0 .184.182.276.364.276.73-.092.638-.918 1.185-.918.09 0 .09.092.09.092-.18.46-.455.826-.82 1.193a2.73 2.73 0 0 1-1.366 1.102.821.821 0 0 1-.82-.827v-.09c.092-.736.366-1.47.82-2.02-1.912 1.01-.454 2.66-2.732 2.937l-.004-.001zm9.475-4.314s.09.093.09.184v.184c.093.275 0 .642-.363.734-.364.276-.638.643-.638 1.102 0 .09.09.275.274.275h.09a2 2 0 0 0 .73-.46c.09-.092.182-.184.364-.184.09 0 .182 0 .182.184 0 .367-1.55 1.56-2.004 1.56-.274.092-.547-.092-.638-.367 0-.092-.09-.275 0-.367.09-.46.182-.918.456-1.285-.183.185-.365.276-.547.368-1.277 2.387-2.188 3.12-2.917 3.12-.182.093-.455 0-.546-.183.09-.46.364-1.01.637-1.377a.696.696 0 0 0 .456.184c.547-.092 1.184-1.01 1.55-1.468-.274.183-.64.367-1.003.367-.456 0-.638.092-.73-1.1 0-.276 0-.735 1.185-2.02a3.885 3.885 0 0 1 2.096-1.285c.455 0 .638.367.73 1.193 0 .55-.275 1.102-.73 1.47.364-.185.82-.46 1.275-.827l.001-.002zm-1.457-.366c0-.184-.274-.184-.274-.184-.73.092-2.186 1.102-2.186 1.652.09.184.273.367.455.276.366 0 .82-.092 1.186-.276.82-.918.91-1.193.82-1.468h-.001zm10.115-3.856c-1.823 2.844-2.552 4.22-2.46 4.955 0 .275.09.643 1 .55 2.28-.183 5.832-2.386 5.65-4.955-.09-1.194-1.184-1.652-3.827-1.377-.82.092-1.64.275-2.46.55-.273.092-.455.184-.637.368v.092c.182.092.364.184.546.184-.638.275-1.275.55-1.913.734a.277.277 0 0 1-.366 0 .506.506 0 0 1-.273-.46c-.18-1.467.183-1.834 1.46-2.477 1.183-.55 2.46-.918 3.826-1.01 1.093-.09 3.917-.183 4.19 2.846.365 4.13-4.737 6.7-7.288 6.974a.946.946 0 0 1-1.094-.734v-.367c-.09-1.377 1.914-4.222 3.372-6.792l.273.92.001-.001zm8.29 2.66v.46c-.09.367-.182.825-.364 1.193v.09c0 .093.182.185.273.185.272 0 .272-.275.546-.275.09 0 .182 0 .182.09-.274.46-.73.827-1.276.92h-.273c-.366.642-.912 1.01-1.64 1.1-1.003.092-1.55-1.01-1.55-1.743-.09-1.193 1.55-3.213 2.916-3.304.273-.092.546.09.728.275v.368a.69.69 0 0 1 .456.643l.002-.002zm-1.55 1.928c0-.275 0-.55.092-.826.182-.734.274-.918.274-1.01 0-.09-.092-.09-.183-.09-.455.182-.82.55-1.093.916-.456.46-.638 1.01-.638 1.652 0 .276.274.55.547.55h.09c.456-.09.82-.274 1.093-.64-.09-.277-.182-.46-.182-.552zm8.84-3.488a.69.69 0 0 1 .454.643c-.09.367-.364.734-.637 1.01-.274.366-.456.734-.456 1.192 0 .184.183.368.366.46h.09c.274-.092.547-.276.73-.55.09-.185.273-.368.455-.46.092 0 .092 0 .183.092-.09.275-.182.55-.455.734-.456.643-1.094 1.194-1.822 1.47-.365.09-.638-.092-.73-.46v-.183c-.09-.826.638-1.377.912-2.386-1.914 1.47-2.734 3.03-3.098 3.03-.273-.184-.364-.46-.364-.735.09-.367.182-.826.455-1.1.274-.368.457-.736.457-1.194-.09-.917-1.73 3.03-3.007 3.12a.878.878 0 0 1-.638-.825c0-.734.365-1.377.91-1.744.092 0 .092 0 .092.093-.09.367-.09.734-.09 1.193 0 .092 0 .276.09.367.183 0 .82-1.285 1.64-2.202a10.29 10.29 0 0 1 1.823-1.652c.182 0 .455.092.455.643 0 .276-.09.46-.273.643-.366.46-.64.918-.64 1.47v.09c2.46-2.386 2.917-2.66 3.1-2.753l-.002-.006zm5.557.184c-.09.367-.183.642-.365.918-.273.367-.364.734-.455 1.193 0 .275.182.46.455.46h.09c.366-.093.64-.277.912-.552.183-.184.274-.275.456-.367 0 0 .09 0 .09.092-.18.367-.454.734-.728.917-.364.55-.91 1.01-1.55 1.194-.363.09-.728-.185-.728-.552 0-.55.092-1.193.365-1.652-1.732 2.11-2.188 2.294-2.46 2.294-.457 0-.82-.917-.912-1.468-.09-.918.82-1.927 1.55-2.57.728-.642 1.64-1.1 2.55-1.377.273-.09.546.092.638.367-.092.184-.183.368-.365.46.366.183.457.366.457.642v.001zm-3.827 2.753h.182c.82-.275 2.55-2.11 2.55-2.66 0-.185-.18-.185-.272-.185-1.093.092-2.733 1.47-2.642 2.478 0 .184 0 .367.182.367zm5.467.367c0-.46.182-.826.546-1.1.365 0 .638.183.73.55 0 .46-.183.826-.456 1.1-.365-.09-.73-.274-.82-.55zm3.644-8.352c.274 0 .64.184.73.367 0 .275-.547.734-2.004 3.395-.82 1.47-.73 2.57-1.185 2.57-.363 0-.728-.367-.728-.734-.09-1.01 1.73-4.13 2.55-5.23.092-.184.366-.276.64-.368h-.003zm-70.338 0h64.507L89.727 23.53 57.473 56.112zm41.547 14.41c-.273.092-.364.46-.273.642.09.276.455.368.73.276 5.283-2.387 16.58-5.324 26.056-3.763.274.09.547-.184.638-.46.092-.275-.18-.55-.454-.642-9.658-1.468-21.23 1.56-26.696 3.947h-.001zM56.38 54.92l5.01-5.05-1.64-1.65-3.097 3.12-5.83-5.782L49 47.393l7.38 7.526v.001zm2.004-13.952l1.276 1.285 2.55-2.57 1.46 1.56-2.552 2.57 1.64 1.653 3.19-3.213 1.456 1.47-5.102 5.14-7.38-7.436 5.102-5.14 1.458 1.47-3.098 3.21v.001zm16.4-4.68l-5.01-1.47c.546-1.192.273-2.66-.73-3.67-1.184-1.1-3.097-1.01-4.19.184l-3.736 3.763 7.38 7.434 1.822-1.93-5.922-5.964 1.184-1.194c.547-.55 1.367-.55 1.914 0a1.34 1.34 0 0 1 0 1.928l-1.094 1.1 6.378 1.837 2.004-2.02v.002zm-3.37-11.748c1.822-2.02 5.01-2.203 7.106-.367.182.09.273.275.364.367 2.096 1.835 2.278 5.048.456 7.16l-.364.366c-1.823 2.02-5.012 2.202-7.107.367-.183-.092-.274-.275-.366-.367-2.095-1.836-2.277-5.048-.455-7.16a.705.705 0 0 1 .363-.366h.003zm1.457 1.468c-1.183 1.193-.82 2.57.64 4.04 1.457 1.467 2.823 1.834 4.008.64 1.184-1.192.82-2.57-.638-4.037-1.458-1.468-2.916-1.835-4.01-.642v-.001zm8.2-5.415l-1.366-4.222 2.185-2.201 1.823 7.16 2.916 2.936-1.823 1.928-2.825-2.937-6.833-2.203 2.003-2.11 3.918 1.65.002-.001zM115.057 46.2l7.38-7.434-1.914-2.02-7.38 7.435 1.914 2.02V46.2zM86.993 17.748l5.74-2.753-4.19 4.22 1.73 1.745 7.38-7.434-2.37-2.386-5.556 2.753 2.733-5.507L90 6l-7.38 7.434 1.73 1.744 4.192-4.222-2.733 5.782 1.183 1.01h.001zm12.665 1.1l-1.276 1.286 2.825 2.845-1.458 1.56-2.826-2.937-1.64 1.652 3.463 3.487-1.458 1.47-5.286-5.324 7.38-7.435 5.285 5.324-1.46 1.468-3.552-3.396h.003zm7.106 19l5.012 5.048 1.64-1.652-3.098-3.12 5.65-5.69-1.824-1.837-7.38 7.25v.001zm19.772 5.14l-2.37 7.893 5.103-5.14L131 47.486l-7.38 7.434-2.278-2.295 2.005-8.077-5.01 5.048-1.733-1.744 7.38-7.434 2.552 2.57zm-21.138-6.61l1.458-5.046a3.069 3.069 0 0 0 3.553-.735c1.092-1.193 1-3.12-.183-4.222l-3.918-4.038-7.38 7.526 1.82 1.927 5.923-5.965 1.458 1.468c.548.46.548 1.377.092 1.928-.455.55-1.366.55-1.913.092l-.092-.09-1.367-1.378-1.548 6.608 2.096 1.927.001-.002z" fill-rule="nonzero"/></svg>