<svg width="180" height="80" viewBox="0 0 180 80" preserveAspectRatio="xMidYMid meet" xmlns="http://www.w3.org/2000/svg" fill="#fff"><g fill-rule="evenodd"><path d="M84.276 65.477h-2.86l-.11-.004-.106-.022-.1-.04-.09-.06-.08-.073-.062-.086-.05-.096-.028-.105-.01-.107.01-.108.03-.102.048-.097.063-.087.08-.075.09-.06.1-.04.106-.022.11-.003h2.86v1.187h-.001zm10.04-6.572h-6.483v2.62h3.27l3.212-2.62h.001zm-4.386 8.982h6.48V65.21h-3.004l-3.476 2.677zm10.145-2.666v-3.657h2.268l.188.005.19.016.186.03.184.04.125.042.113.06.103.082.09.094.077.13.06.154.054.17.04.184.03.196.03.205.01.217v.225l-.01.216-.04.41-.04.196-.048.185-.05.166-.068.146-.08.12-.077.096-.08.077-.11.06-.122.047-.13.037-.138.028-.156.014-.16.006h-.167l-2.268.003h-.004zm13.035-.94v1.2h-2.79l-.126-.005-.12-.03-.112-.05-.098-.075-.08-.093-.062-.106-.038-.118-.013-.123.014-.123.038-.117.06-.108.08-.093.1-.075.11-.052.12-.03.125-.002h2.793-.001zm-16.09 3.607h6.875l.26-.015.255-.037.253-.062.245-.082.237-.105.225-.126.213-.15.21-.173.19-.193.174-.21.122-.184.11-.19.093-.198.078-.205.064-.212.052.19.067.185.08.18.092.175.102.17.116.16.126.15.136.142.146.132.156.12.164.11.17.1.178.086.184.073.187.06.195.047.192.035.197.02.198.005h6.764v-6.085l-.005-.21-.02-.205-.037-.203-.05-.202-.067-.198-.08-.19-.094-.186-.108-.178-.12-.17-.133-.16-.14-.15-.156-.14-.164-.128-.173-.115-.18-.103-.19-.088-.193-.075-.2-.06-.203-.045-.204-.03-.208-.017h-6.23v2.428h5.023l.13.005.124.05.1.084.066.112.025.128-.018.13-.06.116-.093.09-.118.056-.13.014h-2.868l-.207.007-.205.022-.206.037-.2.052-.197.065-.192.08-.183.097-.177.108-.167.12-.16.133-.15.146-.136.153-.126.164-.113.175-.027-.714-.014-.207-.015-.215-.015-.27-.03-.266-.04-.267-.055-.263-.06-.216-.07-.212-.08-.21-.09-.203-.11-.187-.123-.176-.138-.166-.147-.148-.157-.137-.164-.127-.173-.115-.18-.105-.19-.09-.194-.08-.202-.07-.21-.058-.21-.047-.213-.032h-8.5l-8.22 6.526V61.79l-.01-.234-.03-.232-.05-.23-.066-.227-.086-.22-.103-.21-.12-.203-.135-.193-.15-.18-.165-.167-.18-.155-.19-.14-.2-.123-.21-.106-.218-.09-.225-.073-.23-.054-.232-.036-.237-.016-.236.005h-5.93v2.47h5.565l.08.02.077.033.065.05.056.062.042.072.025.077.007.082-.007.082-.025.078-.04.072-.057.06-.065.05-.076.035-.08.017-.085.002-3.322.003-.23.01-.23.028-.227.045-.22.065-.216.08-.21.1-.2.115-.19.132-.18.143-.165.16-.154.17-.14.186-.125.195-.107.204V61.91l-.006-.334-.043-.332-.083-.323-.117-.312-.155-.297-.187-.276-.218-.254-.247-.226-.27-.198-.29-.164-.31-.13-.322-.095-.33-.055-.336-.018H64.264v8.977h3.052v-6.267h2.237v6.268h2.973v-6.267h1.44l.14.012.136.038.128.06.114.084.097.102.08.116.053.13.03.136.005.143v5.446h3.115v-1.59l.106.202.122.194.136.186.154.17.168.16.18.144.19.13.2.113.21.095.217.08.224.06.228.04.23.025.23.003 8.17.004 8.39-6.63v6.63l.001-.002z" fill-rule="nonzero"/><path d="M105.025 48.85c5.925-6.507 6.393-17.01 3.848-20.6 0 0 1.314-.988 2.211-2.065 1.168 2.962 2.603 15.395-6.059 22.666m-3.837 1.032c-8.416 3.972-20.175 1.391-22.33.853-2.154-.539-6.965-2.262-9.494-8.258-3.521-8.349-1.09-12.4-1.09-12.4 3.897 2.436 10.21 3.172 13.634 4.455 4.698 1.762 6.08 6.412 6.478 8.171.036.16.263.165.304.006 2.978-11.533 16.264-8.982 19.587-13.563 1.865 6.194-.69 17.716-7.09 20.736m-35.86-22.89c.899 1.077 2.213 2.064 2.213 2.064-2.546 3.591-1.967 14.026 5.304 19.794-9.627-5.902-8.683-18.896-7.516-21.858m3.401-5.05s-.53 3.636 6.74 5.589c-2.625.336-7-1.347-8.617-3.838.943-1.75 1.877-1.75 1.877-1.75m12.08-5.723c6.33-1.688 14.541-1.616 20.466 2.155 4.309 2.692 4.847 4.847 4.847 4.847s-.808 1.346-6.732 3.5c-6.403 2.33-9.31 4.803-10.86 9.426 0 0-1.594-6.261-8.529-8.348-5.26-1.583-7.002-1.414-9.695-4.309 0 0 2.424-5.116 10.503-7.27m26.775 6.328s1.289-.27 1.93 1.3c-2.082 3.463-7.9 2.907-7.9 2.907 5.094-1.414 5.97-4.207 5.97-4.207m4.097.216c-7.027-11.385-23.32-10.76-23.32-10.76s-10.802.065-17.561 4.62c-4.264 2.871-8.076 7.283-8.54 15.282-.56 9.694 3.583 15.89 8.046 18.762 0 0 5.159 4.307 17.858 4.33 13.428.024 17.377-2.976 20.631-6.284 2.738-2.782 8.9-16.209 2.886-25.95"/></g></svg>