<svg width="180" height="80" xmlns="http://www.w3.org/2000/svg"><g fill-rule="nonzero"><path d="M158.79 34.057v4.922h-6.42v-4.923h-3.21v12.907h3.21v-5.2h6.42v5.2H162V34.057h-3.21zm-52.83 1.486c-.55-1.207-1.56-1.764-2.57-1.764-1.008 0-2.108.556-2.567 1.763l-5.228 11.42h3.394l1.1-2.692h6.603l1.1 2.694h3.394l-5.226-11.42v-.001zm-4.862 6.128l1.926-4.64c.092-.187.184-.187.275-.187.09 0 .183 0 .275.186l1.926 4.64h-4.4l-.002.001zM68.17 31.736c-1.56 0-2.476.835-3.21 2.414l-4.127 9.657-4.127-9.657c-.734-1.58-1.65-2.414-3.12-2.414-1.375 0-2.842 1.02-2.842 3.157V46.87h3.21V35.265l4.128 9.565c.55 1.3 1.467 2.134 2.75 2.134 1.285 0 2.202-.835 2.753-2.135l4.127-9.566V46.87h3.21V34.987c0-2.23-1.376-3.25-2.75-3.25l-.002-.001zm8.347 12.444c-.183 0-.275-.094-.275-.28v-2.32h7.888v-2.51h-7.888v-1.95c0-.184.092-.277.275-.277h7.796v-2.786h-9.355c-1.1 0-1.926.93-1.926 1.95v9.007c0 1.022.825 1.95 1.926 1.95h9.355V44.27h-7.796v-.09zm13.208 2.784V37.12c0-.184.092-.277.275-.277h7.796v-2.786H88.44c-1.1 0-1.925.93-1.925 1.95v10.957h3.21zm57.415-6.5c0-4.457-1.833-6.593-7.244-6.593-5.412 0-7.246 2.137-7.246 6.594 0 4.457 1.834 6.593 7.246 6.593 5.41 0 7.245-2.136 7.245-6.593l-.001-.001zm-7.336 3.9c-3.21 0-4.22-1.207-4.22-3.9 0-2.6.826-3.9 4.22-3.9 3.302 0 4.22 1.3 4.22 3.9 0 2.693-1.01 3.9-4.22 3.9zm-16.051-12.257h-6.33c-4.677 0-6.603 2.414-6.603 6.593 0 4.83 2.385 6.593 6.788 6.593h1.375v1.67h3.21v-1.67h1.376c4.402 0 6.787-1.857 6.787-6.593-.092-4.27-1.926-6.593-6.604-6.593h.001zm-4.77 10.493h-1.467c-2.293 0-3.577-.93-3.577-3.9 0-2.693 1.283-3.9 3.117-3.9h1.926v7.8h.001zm4.586 0H122.1v-7.8h1.926c1.834 0 3.118 1.114 3.118 3.9 0 2.88-1.284 3.9-3.577 3.9h.002zM33.225 27.093V40.37c0 .56-.458 1.023-1.008 1.023h-1.56c-.09 0-.183.093-.183.186v11.14c6.787.744 13.85-4.827 13.85-12.813 0-6.593-4.862-12.07-11.1-12.814l.001.001zM32.95 46.87c-.917 0-1.56-.74-1.56-1.577 0-.93.735-1.58 1.56-1.58.918 0 1.56.744 1.56 1.58 0 .928-.642 1.578-1.56 1.578v-.001zm3.76.001c-.916 0-1.558-.74-1.558-1.577 0-.93.733-1.58 1.56-1.58.916 0 1.558.744 1.558 1.58 0 .928-.734 1.578-1.56 1.578v-.001zm3.67.001c-.918 0-1.56-.74-1.56-1.577 0-.93.734-1.58 1.56-1.58.917 0 1.56.744 1.56 1.58.09.928-.643 1.578-1.56 1.578v-.001z"/><path d="M18.917 39.907c-.092 6.13 4.31 11.33 9.998 12.63V40.928c0-.56.458-1.023 1.01-1.023h1.558c.092 0 .092-.093.183-.093V27c-6.88 0-12.656 5.48-12.75 12.907m10.274-2.32c-.917 0-1.56-.744-1.56-1.58 0-.928.734-1.578 1.56-1.578.917 0 1.56.74 1.56 1.577 0 .93-.643 1.58-1.56 1.58"/></g></svg>