<svg width="180" height="80" viewBox="0 0 180 80" preserveAspectRatio="xMidYMid meet" xmlns="http://www.w3.org/2000/svg"><g fill-rule="nonzero"><path d="M25.233 28.106v13.378c0 .559-.468 1.028-1.012 1.028h-1.572c-.09 0-.18.09-.18.181v11.231c6.828.756 13.943-4.867 13.943-12.909 0-6.651-4.894-12.168-11.18-12.91zm-.272 19.923c-.922 0-1.571-.74-1.571-1.587 0-.937.74-1.587 1.57-1.587.922 0 1.572.755 1.572 1.587 0 .937-.65 1.587-1.571 1.587zm3.792 0c-.922 0-1.571-.74-1.571-1.587 0-.937.74-1.587 1.57-1.587.922 0 1.572.755 1.572 1.587 0 .937-.74 1.587-1.571 1.587zm3.686 0c-.921 0-1.571-.74-1.571-1.587 0-.937.74-1.587 1.571-1.587.922 0 1.571.755 1.571 1.587.09.937-.65 1.587-1.57 1.587z"/><path d="M10.82 41.015c-.09 6.183 4.336 11.413 10.077 12.728v-11.7c0-.56.468-1.028 1.012-1.028h1.571c.091 0 .091-.09.182-.09V28c-6.92 0-12.736 5.533-12.842 13.015m10.349-2.343c-.922 0-1.571-.756-1.571-1.587 0-.937.74-1.587 1.571-1.587.922 0 1.571.74 1.571 1.587 0 .937-.65 1.587-1.571 1.587M100.452 43.026l1.995-4.49a.268.268 0 0 1 .256-.181c.091 0 .197.03.257.181l1.994 4.49h-4.502zm4.925-5.896a2.942 2.942 0 0 0-2.659-1.678 2.916 2.916 0 0 0-2.658 1.678l-5.303 10.99H98.2l1.149-2.615h6.707l1.148 2.615h3.445l-5.273-10.99zM59.874 33.512c-1.51 0-2.478.77-3.203 2.328l-4.23 9.311-4.215-9.311c-.725-1.557-1.692-2.328-3.203-2.328-1.42 0-2.885.967-2.885 3.083V48.13h3.233V36.913l4.245 9.236c.574 1.285 1.496 2.101 2.825 2.101 1.33 0 2.251-.816 2.825-2.101l4.245-9.236v11.216h3.233V36.595c.016-2.116-1.45-3.083-2.87-3.083M69.12 45.505c-.151 0-.272-.121-.272-.257V43.04h8.067v-2.525h-8.067v-1.89a.27.27 0 0 1 .272-.271h7.992V35.74h-9.579c-1.117 0-1.933.891-1.933 1.844v8.692c0 .952.8 1.844 1.933 1.844h9.579v-2.615H69.12zM89.62 41.469v3.824a.27.27 0 0 1-.272.272h-3.157c-2.538-.045-3.565-1.164-3.596-3.598.046-2.373.952-3.552 3.611-3.582h6.632V35.77h-6.632c-4.728.03-6.677 1.95-6.768 6.046v.333c.106 3.975 2.04 5.925 6.632 5.986h4.865c1.118 0 1.933-.892 1.933-1.844v-4.807H89.62v-.015zM115.968 33.76V45.05c0 .197.03.348.241.348h7.69v2.72h-9.155c-1.163 0-1.904-.755-1.904-2.085V33.759h3.128zM133.22 42.965h-2.175l1.934-4.429c.09-.196.15-.242.241-.257h.015c.046 0 .106 0 .212.257l1.964 4.43h-2.19zm2.538-5.774c-.513-1.134-1.374-1.754-2.553-1.754h-.015c-1.178 0-2.01.544-2.553 1.678L125.53 48.12h3.323l1.179-2.676h6.375l1.224 2.676h3.217l-5.09-10.93zM150.684 45.535h-4.894c-.212 0-.242-.121-.242-.302v-2.207h5.136c.952 0 1.345.377 1.345 1.254 0 .862-.423 1.255-1.345 1.255zm-5.136-6.833c0-.181.03-.332.242-.332h4.668c.816 0 1.148.317 1.148 1.088 0 .74-.363 1.073-1.148 1.073h-4.91v-1.829zm7.312 3.084v-.106c1.586-.483 1.692-1.663 1.692-2.917 0-1.225-.922-3.023-3.203-3.023l-6.904-.016c-1.103 0-1.843.726-1.843 2.01v8.375c0 1.27.725 2.026 1.843 2.026h7.1c2.342 0 3.43-1.572 3.43-3.19-.015-1.224-.242-2.705-2.115-3.159zM165.112 40.512h-.015-4.17c-.785 0-1.163-.332-1.163-1.073 0-.756.332-1.088 1.148-1.088h7.72v-2.615h-7.931c-2.765 0-3.883 1.088-3.883 3.628 0 2.509 1.239 3.643 3.898 3.643h4.185c.951 0 1.329.377 1.329 1.254 0 .862-.423 1.255-1.345 1.255h-7.795v2.63h7.977c2.795 0 4.094-1.179 4.094-3.81.03-2.675-1.133-3.824-4.049-3.824"/></g></svg>