<svg xmlns="http://www.w3.org/2000/svg" width="180" height="80" viewBox="0 0 180 80">
  <g fill-rule="evenodd">
    <path d="M134.26 44.61s-2.069.267-4.438.267c-2.897 0-3.466-.93-3.466-3.217V38.91c0-2.355.503-3.25 3.466-3.25 2.138 0 4.201.298 4.201.298l.3-4.24s-2.63-.37-4.9-.37c-6.035 0-8.237 1.992-8.237 6.831v4.207c0 5.338 2.666 6.834 8.202 6.834 2.235 0 5.204-.37 5.204-.37l-.332-4.24M104.051 36.035h5.002v12.923h5.204V36.035h5.001l.3-4.383h-15.811l.304 4.383M93.442 47.22l2.77-6.632h.305l.572 8.37h5.032l-1.148-17.306h-4.859l-4.185 9.832h-.305l-4.357-9.832h-4.795l-1.148 17.306h4.9l.504-8.37h.3l3.108 6.632h3.306M69.192 23H41.464A3.46 3.46 0 0 0 38 26.457v27.69a3.465 3.465 0 0 0 3.464 3.464h27.728a3.47 3.47 0 0 0 3.466-3.463V26.457A3.466 3.466 0 0 0 69.192 23m1.728 31.148c0 .954-.778 1.726-1.728 1.726H41.464a1.732 1.732 0 0 1-1.735-1.726V26.457c0-.952.78-1.727 1.735-1.727h27.728c.95 0 1.728.775 1.728 1.727v27.69"/>
    <path d="M55.328 52.437c-6.003 0-8.684-4.804-8.684-9.567 0-3.256 1.102-7.004 2.95-10.03 1.773-2.925 3.922-4.664 5.734-4.664 1.808 0 3.956 1.74 5.744 4.663 1.838 3.027 2.94 6.775 2.94 10.031 0 4.763-2.686 9.567-8.684 9.567"/>
  </g>
</svg>
