<svg xmlns="http://www.w3.org/2000/svg" width="180" height="80" viewBox="0 0 180 80">
    <path d="M43.021 32.734C44.836 29.767 47.039 28 48.896 28c1.852 0 4.054 1.764 5.885 4.734 1.883 3.074 3.013 6.88 3.013 10.185 0 4.84-2.752 9.72-8.896 9.72-6.152 0-8.898-4.88-8.898-9.72 0-3.303 1.127-7.109 3.021-10.185zM103.169 35.259h-6.227v-5.94h19.127v5.94h-6.227v16.06h-6.673V35.26zM130.303 35.259h9.788v-5.94h-9.788c-8.992 0-13.794 4.422-13.794 11 0 6.58 4.799 11 13.794 11h9.788v-5.94h-9.788c-4.161 0-6.897-1.471-6.897-5.06 0-3.588 2.739-5.06 6.897-5.06zM79.812 42.451l3.557-13.132H95.16v22h-6.672V33.412l-4.85 17.907h-7.65l-4.85-17.894v17.894h-6.672v-22h11.789l3.557 13.132z"/>
</svg>
