<svg width="180" height="80" xmlns="http://www.w3.org/2000/svg"><path d="M121.858 29.863h9.805v2.18h-.71s-.095-1.138-1.232-1.138h-1.704v10.09H125.6v-10.09h-1.753c-.947 0-1.184.758-1.23 1.137h-.712v-2.18h-.047v.001zm20.462 0h1.754v11.132h-2.37V33.18l-5.825 7.767h-1.754V31.9c0-1.28-1.137-1.468-1.137-1.468v-.57h3.457v7.864l5.874-7.863h.001zM91.163 40.995h-3.08l-2.178-4.12s-.663-1.233-1.373-1.233h-.9v5.353h-2.37V31.9c0-1.28-1.183-1.42-1.183-1.42v-.664h3.6v4.642h1.04s.712-.047 1.28-.995c1.895-3.08 1.658-3.647 2.463-3.647h2.37v.758c-1.66 0-2.133 3.363-3.696 4.405.758.283 1.042.994 2.747 4.12 0 0 .427 1.042 1.232 1.042v.853h.047l.001.001zm65.842-2.415c-1.137 1.515-2.747 2.604-4.973 2.604-2.937 0-5.78-2.32-5.78-5.305v-.664c0-3.22 2.606-5.542 5.78-5.542 3.173 0 5.636 2.605 5.636 5.73h-8.526v1.85c0 1.61 1.28 2.888 3.174 2.888 1.658 0 2.747-.71 3.647-1.658l1.042.095v.002zm-7.863-4.312h5.78V33.7c0-1.61-1.28-2.89-2.89-2.89s-2.89 1.28-2.89 2.89v.568zm-47.416 2.89c0 1.42-.994 2.747-2.558 2.842h-.236c-1.374 0-2.558-.995-2.7-2.084v-4.784c.094-1.137 1.23-2.37 2.7-2.37h.473s2.227.143 2.32 2.843v3.553h.001zm-2.273-7.484c-1.374 0-2.653.568-3.22 1.42v-1.23h-3.554v.662s1.136.19 1.136 1.42v14.165h2.416v-6.3c1.136 1.28 2.605 1.374 3.08 1.374 3.125-.047 5.256-2.463 5.256-5.495v-.71c-.047-3.27-2.036-5.306-5.115-5.306h.001zM65.82 37.11c0 1.61-1.23 2.985-3.078 2.985-1.847 0-2.984-1.42-2.984-2.984V33.56c0-1.61 1.374-2.842 2.984-2.842 1.847 0 3.08 1.28 3.08 2.89v3.505l-.002-.003zm-3.078-7.436c-4.168 0-5.874 3.22-5.874 5.352v.948c0 2.463 2.416 5.21 5.874 5.21 3.22 0 5.97-2.416 5.97-5.258v-.758c0-2.842-2.275-5.494-5.97-5.494zm57.458.189h-3.553v.663s1.185.19 1.185 1.47v9h2.368V29.862v.001zm-10.374 9.995v-4.642h2.085c1.137 0 1.99.9 1.99 2.18v.472c0 1.043-.995 1.99-2.084 1.99H109.826zm0-5.78v-4.261h-3.552v.663s1.042.094 1.042 1.42v9.095h5.495c2.132 0 3.648-1.28 3.648-3.127v-.52c0-1.99-1.47-3.222-3.79-3.222h-2.842v-.047l-.001-.001zM69.09 29.863h9.805v2.18h-.71s-.096-1.138-1.232-1.138h-1.706v10.09h-2.415v-10.09H71.08c-.948 0-1.185.758-1.233 1.137h-.71v-2.18h-.048l.001.001zm-23.874 6.205c0 3.174-1.658 6.016-4.31 7.39l-.617.284c-.19.095-.427.142-.616.142-.427 0-.758-.19-.948-.473-.142-.284-.19-.568-.142-.9.095-.473.427-.663.57-.757 1.562-.71 2.557-2.32 2.557-4.074v-4.596c0-1.752-.994-3.363-2.557-4.073 0 0-.474-.236-.57-.757-.046-.332 0-.616.143-.853.19-.332.52-.474.948-.474.19 0 .426.048.615.142 0 0 .568.285.615.285 2.653 1.42 4.31 4.263 4.31 7.39v1.325l.002-.001zM33.706 41.8c.094.047.473.284.568.758.047.33 0 .616-.142.9-.19.33-.52.474-.948.474-.19 0-.426-.048-.616-.143l-.615-.285c-2.653-1.42-4.31-4.263-4.31-7.39V34.79c0-3.174 1.657-6.016 4.31-7.39.047 0 .615-.284.615-.284.19-.095.427-.142.616-.142.427 0 .758.19.948.473.142.285.19.57.142.853-.095.52-.57.758-.57.758-1.562.71-2.557 2.274-2.557 4.074v4.594c-.047 1.753.995 3.363 2.558 4.074h.001zm2.7-19.374c-7.2 0-12.98 5.827-12.98 12.98 0 7.2 5.827 12.978 12.98 12.978 7.2 0 12.978-5.826 12.978-12.98.048-7.15-5.78-12.978-12.98-12.978h.002zM59.52 57.668h-1.8v-7.436h3.838l.142.947h-2.984v2.083h.947c1.563 0 2.51.758 2.51 2.132.048 1.516-.994 2.273-2.652 2.273l-.001.001zm.144-3.506h-.9v2.605h.853c.995 0 1.61-.426 1.61-1.326 0-.853-.568-1.28-1.563-1.28v.001zm6.583-3.93h.995l2.842 7.342-.995.237-.853-2.32h-3.032l-.852 2.226H63.31l2.937-7.484v-.001zm-.71 4.357h2.368l-1.184-3.174-1.183 3.173-.001.001zm10.989 3.079v-3.41h-3.742v3.41h-.995v-7.39h.994v3.08h3.742v-3.08h1.042v7.39h-1.041zm7.674.095l-3.41-3.837v3.742h-1.043v-7.39h1.042v3.317l3.078-3.316h1.28l-3.27 3.457 3.46 3.79-1.137.237z" fill-rule="nonzero"/></svg>