<svg xmlns="http://www.w3.org/2000/svg" width="180" height="80" viewBox="0 0 180 80" fill="#fff">
  <path fill-rule="nonzero" d="M109.89 19.2l7.735 1.732-3.603 3.978.205 1.21c4.769.678 9.28 1.53 13.389 2.507 10.403 2.488 18.213 5.65 21.454 8.891a5.855 5.855 0 0 1 1.93 4.078v16.447c.003 2.732-2.19 4.95-4.9 4.957H35.9a4.846 4.846 0 0 1-3.467-1.449A5 5 0 0 1 31 58.043V41.596a5.837 5.837 0 0 1 1.931-4.078c3.238-3.24 11.043-6.404 21.453-8.892 4.15-.986 8.709-1.846 13.53-2.526l-.24 1.419c-4.624.665-8.998 1.496-12.983 2.443-10.272 2.423-18.031 5.682-20.803 8.526a4.48 4.48 0 0 0-1.532 3.108v16.447c-.003 1.977 1.583 3.582 3.544 3.587h110.2c1.958-.01 3.54-1.613 3.54-3.587V41.596a4.46 4.46 0 0 0-1.528-3.108c-2.776-2.844-10.53-6.103-20.805-8.526-3.944-.937-8.267-1.76-12.839-2.422l.566 3.329-11.193-1.82.278-.79c-2.964-.29-8.983-.835-12.259-.835-.277 0-.539.008-.771.01l-.021.007-.02-.007c-.23-.002-.486-.01-.765-.01-3.282 0-9.302.546-12.267.835-1.066.104-1.74.174-1.744.174l-.453.047.453-.046c.004 0 .679-.071 1.745-.175l.278.79-11.187 1.821.567-3.35.24-1.42.2-1.189-3.6-3.978 7.736-1.732.032.084-.032-.084-.488-1.268.201-.272c.214-.259 2.944-3.654 19.104-3.661 16.345.008 18.898 3.395 19.123 3.68l.182.263-.483 1.258zm-.117.305l-.326.849-3.027 7.88-.094.245.094-.246 7.138 1.163-.819-4.866 2.59-2.861-5.882-1.315.326-.849zm-37.08.849l-5.879 1.315 2.59 2.862-.824 4.865 7.143-1.163-3.03-7.88zm3.912 6.815c1.957-.194 9.682-.962 13.678-.962.279 0 .545.004.789.013.242-.008.503-.013.789-.013 3.993 0 11.72.768 13.677.962l3.451-8.988-.25-.183a9.654 9.654 0 0 0-2.435-1.099c-2.538-.827-7.14-1.681-15.236-1.681-12.989-.003-16.988 2.253-17.909 2.97l3.446 8.98zm61.966 12.102c-.295-.209-.756-.35-.756-.773-.074-.306.098-.492.196-.701.424-.287.98-.278 1.395.023.28.23.403.605.315.96-.12.658-.807 1.148-1.32 1.597-.147-.094-.39-.287-.194-.47.123-.208.417-.354.364-.636zm-103.1 6.708V42.3a37.344 37.344 0 0 1 10.545-4.865v3.483c-.486.29-.44.921-.44 1.387v10.756c0 .464-.046.932.44 1.223v3.219H41.08v-3.219c.488-.291.438-.76.438-1.223V42.632l-1.544.694-.012 9.735c0 .464-.038.932.45 1.223v3.219H35.47v-3.219a.83.83 0 0 0 .438-.724v-6.352c0-.97.045-.931-.438-1.229zm22.363-8.296l-.165-3.126c3.524-.95 11.818-2.029 11.818-2.029v3.22c-.45.272-.727.76-.734 1.287l-.364 16.026c0 .464-.05.932.438 1.223v3.219h-4.94v-3.219c.486-.291.753-.291.753-.76V36.47l-2.131.329.048 16.751c0 .464.17.444.663.735v3.219h-4.946v-3.219c.485-.291.444-.76.444-1.223V38.982a1.744 1.744 0 0 0-.884-1.299zm-.758 16.601v3.219h-4.599v-3.219c.325-.113.471-1.353.471-1.686l-.059-1.867h-1.96l-.06 1.867c0 .35.179 1.602.53 1.686v3.219H46.92v-3.219c.437-.291.712-2.435.835-2.917l1.77-14.97c1.673-.54 3.39-.93 5.13-1.166l1.517 16.324c.072.395.453 2.598.904 2.73zm-4.549-6.488l-.667-7.298h-.034l-.637 7.298h1.338zm28.412 6.488v3.219h-5.062v-3.219c.328-.114.477-1.353.477-1.686l-.062-2.866h-2.481l-.064 2.866c0 .351.185 1.602.537 1.686v3.219h-4.488v-3.219c.441-.29.716-2.435.84-2.917l1.636-19.193c1.982-.24 5.155-.532 5.155-.532l2.599 19.914c.076.395.457 2.597.913 2.728zm-5.01-7.99l-.935-8.69h-.034l-.894 8.69h1.863zm21.558 7.99v4.457h-3.78v-.85c0-.57-.14-.388-.713-.388h-3.007c-.577 0-.714-.183-.714.389v.85h-4.544v-4.529c1.504-.013 1.488-1.46 1.488-2.335V35.53c0-.464.044-.934-.438-1.224V31.21c5.04-.262 10.74 0 10.74 0v3.096c-.485.29-.445.76-.445 1.229v17.527c0 .61.636.958 1.412 1.222zm-5.172-20.026H90.24v16.676a5.056 5.056 0 0 1-.35 2.132h2.425V34.258zm18.277 1.08V32.14c1.361.111 4.414.536 4.414.536v3.165a1.883 1.883 0 0 0-1.213 1.31l-2.678 7.767 1.952 8.005a1.97 1.97 0 0 0 1.705 1.336l-.007 3.745h-4.652l-.006-3.745c.297-.47.122-.658-.112-1.595l-1.49-5.558h-.03v5.785c0 .465-.028 1.075.46 1.368l-.022 3.745h-4.94l.02-3.745c.488-.293.42-.952.42-1.42V48.07l-.032-.965-1.516 5.479c-.234 1.025-.382 1.264-.131 1.674l.035 3.745h-4.494v-3.62c.668-.21 1.216-.7 1.503-1.343l1.86-8.025-2.425-8.069c-.612-2.361-.922-2.207-1.369-2.582v-3.133c.93-.007 4.925.23 4.925.23l-.01 3.155c-.172.163-1.106.368-.143 3.157l1.798 4.762.118-6.493c0-.473.042-1.116-.443-1.406v-3.083c.737.012 4.944.399 4.944.399v3.208c-.492.293-.442.756-.442 1.222l-.116 6.153 2.064-5.102a2.364 2.364 0 0 0 .053-2.096zm4.89 18.202V37.49c0-3.016 1.939-4.51 4.737-4.348 3.782.207 4.726 1.867 4.726 4.883V53.54c-.02 2.62-2.132 4.733-4.731 4.733-2.6 0-4.712-2.113-4.732-4.733zm3.962-15.735v15.918c0 .083-.046.948.775.948.808 0 .765-.865.765-.948V37.805c0-.085.043-.94-.765-.94-.821 0-.775.855-.775.94zm11.93 16.48v3.218h-4.943v-3.219c.492-.291.445-.76.445-1.725V38.724a.824.824 0 0 0-.445-.724v-3.36l4.943 1.207v3.335c-.484.291-.444.64-.444 1.11v5.99h1.553v-5.685c0-.463.047-.931-.44-1.226v-3.385l4.942 1.285v3.554a.817.817 0 0 0-.44.723v11.011c0 .966-.048 1.434.44 1.725v3.219h-4.942v-3.219c.487-.291.44-.76.44-1.223v-4.344h-1.553v4.344c0 .464-.04.932.444 1.223zm6.815-10.257c0-1.12.154-2.534 1.104-3.294.884-.698 2.332-.671 3.868-.612 1.55.06 2.664 1.253 3.98 2.082v3.758h-3.118v-1.273c0-.508-.183-1.383-1.03-1.383-.852 0-.747.875-.747 1.383v8.978c0 .51-.105 1.388.747 1.388.847 0 1.03-.878 1.03-1.388V52.25h3.117v4.174a7.151 7.151 0 0 1-7.87.295c-1.128-1.008-1.081-2.322-1.081-3.692v-8.999zm-60.62-23.917c-.059-.474-.234-.524-.651-.521l-.025-.19c1.71-.347 5.086-.799 5.086-.799l.04.28c-.405.103-.561.206-.503.679l.41 3.38c.07.55.207.672.663.616l.033.281-2.29.303-.027-.27c.568-.093.532-.42.501-.664l-.432-3.51c-.043-.35-.153-.518-.482-.469l-.835.114c-.333.051-.393.243-.352.584l.426 3.514c.058.455.235.558.645.508l.06.255-2.304.389-.04-.32c.577-.095.526-.436.502-.67l-.425-3.49zm5.886-.73c-.033-.474-.2-.538-.617-.559l-.018-.28 2.277-.217.033.336c-.421.1-.562.172-.534.636l.216 3.472.068-.01 1.462-4.498 1.765-.093.021.284c-.409.074-.572.166-.544.64l.214 3.472c.028.473.197.542.617.558l.016.28-2.303.146-.011-.264c.482-.05.56-.285.536-.636l-.22-3.613-.07.007-1.473 4.601-1.755.156-.015-.309c.413-.07.578-.163.549-.636l-.214-3.473zm5.657 3.631c.412-.009.582-.132.582-.582v-3.42c0-.464-.17-.543-.582-.586v-.245l2.31-.034v.279c-.417.043-.584.122-.584.586v3.489c0 .258.036.513.426.513h.845c.383 0 .425-.255.425-.513v-3.49c0-.463-.17-.542-.582-.585v-.28l2.31.058v.222c-.415.043-.583.122-.583.586v3.453c0 .465.213.566.631.55l.11 1.882h-.36a2.257 2.257 0 0 0-.36-1.168 1.166 1.166 0 0 0-1.022-.436s-2.682-.056-3.561.026l-.005-.305zm10.265 1.154a1.185 1.185 0 0 0-.993-.51s-2.707-.268-3.562-.266l.016-.272c.418.02.592-.088.618-.537l.224-3.4c.031-.457-.13-.545-.54-.627l.018-.273 2.306.172-.024.274c-.413.014-.587.079-.618.544l-.222 3.465c-.015.254 0 .508.387.54l.848.062c.385.025.437-.22.457-.474l.224-3.471c.028-.461-.132-.544-.545-.626l.02-.275 2.3.221-.015.223c-.418.017-.587.084-.613.541l-.227 3.435c-.03.456.178.573.596.586l-.013 1.879-.36-.025a2.282 2.282 0 0 0-.282-1.186zm2.68-.05l-1.563-.237.04-.278c.452-.103.71-.626.852-.93l1.697-3.735 1.022.159.74 4.147c.077.444.193 1.137.592 1.102l-.037.281c-1.023-.206-2.457-.374-2.457-.374l.041-.28c.293.025.669.051.714-.278l-.01-.27-.153-.958-1.563-.232-.269.622-.1.306a.6.6 0 0 0 .488.675l-.034.28zm.064-2.236l1.35.201-.371-2.137-.106-.018-.873 1.954z"/>
</svg>
