<svg xmlns="http://www.w3.org/2000/svg" width="180" height="80" viewBox="0 0 180 80">
  <path fill-rule="nonzero" d="M110.06 17.497l8.242 1.83-3.84 4.205.218 1.278v.001c5.081.716 9.888 1.617 14.266 2.65 11.085 2.63 19.407 5.972 22.86 9.397a6.17 6.17 0 0 1 2.057 4.31v17.384a5.234 5.234 0 0 1-5.221 5.24H31.222a5.184 5.184 0 0 1-3.696-1.532A5.262 5.262 0 0 1 26 58.552V41.168a6.15 6.15 0 0 1 2.058-4.31c3.45-3.426 11.766-6.769 22.858-9.398 4.421-1.043 9.28-1.952 14.418-2.67l-.256 1.5c-4.928.702-9.588 1.58-13.835 2.581-10.945 2.562-19.212 6.006-22.166 9.012a4.722 4.722 0 0 0-1.632 3.285v17.384a3.785 3.785 0 0 0 3.777 3.791h117.42a3.79 3.79 0 0 0 3.772-3.79V41.167a4.7 4.7 0 0 0-1.628-3.285c-2.959-3.006-11.22-6.45-22.169-9.012-4.202-.99-8.808-1.86-13.68-2.56l.603 3.519-11.926-1.924.297-.835c-3.159-.306-9.572-.882-13.063-.882-.295 0-.574.008-.822.01l-.022.007-.021-.007c-.245-.002-.518-.01-.815-.01-3.498 0-9.912.576-13.07.882-1.137.11-1.856.185-1.86.185l-.483.049.484-.049c.004 0 .723-.075 1.859-.185l.296.835-11.92 1.925.604-3.542.256-1.5.214-1.256-3.837-4.205 8.243-1.83.034.088-.034-.089-.52-1.34.214-.287c.228-.274 3.137-3.862 20.356-3.87 17.416.008 20.137 3.588 20.376 3.89l.194.278-.515 1.33zm-.125.322l-.348.897-3.225 8.329-.1.26.1-.26 7.605 1.228-.872-5.143 2.759-3.024-6.266-1.39.347-.897zm-39.51.897l-6.264 1.39 2.76 3.025-.878 5.142 7.61-1.229-3.227-8.328zm4.169 7.203c2.085-.204 10.315-1.016 14.574-1.016.296 0 .58.004.84.013.258-.008.536-.013.84-.013 4.255 0 12.49.812 14.574 1.016l3.678-9.5-.267-.193a10.327 10.327 0 0 0-2.595-1.162c-2.704-.874-7.607-1.777-16.234-1.777-13.84-.002-18.101 2.382-19.082 3.14l3.672 9.492zM140.62 38.71c-.315-.22-.806-.37-.806-.817-.079-.324.104-.52.208-.741a1.303 1.303 0 0 1 1.487.024c.3.244.43.64.336 1.014-.129.696-.86 1.215-1.406 1.688-.157-.098-.417-.302-.207-.496.13-.22.444-.374.388-.672zm-109.857 7.09v-3.888A39.942 39.942 0 0 1 42 36.77v3.682c-.517.305-.468.973-.468 1.466v11.369c0 .49-.05.985.468 1.292v3.402h-5.258V54.58c.52-.307.467-.802.467-1.292V42.263l-1.646.734-.013 10.29c0 .49-.04.985.48 1.292v3.402h-5.266V54.58a.877.877 0 0 0 .466-.765V47.1c0-1.026.049-.984-.466-1.299zm23.83-8.768l-.176-3.305c3.755-1.005 12.592-2.144 12.592-2.144v3.404a1.611 1.611 0 0 0-.783 1.36l-.387 16.939c0 .49-.053.985.467 1.292v3.402h-5.264V54.58c.518-.307.802-.307.802-.803V35.75l-2.27.348.05 17.705c0 .49.182.47.708.777v3.402h-5.27V54.58c.515-.307.473-.802.473-1.292V38.405a1.843 1.843 0 0 0-.942-1.372zm-.808 17.546v3.402h-4.9V54.58c.346-.12.502-1.43.502-1.782l-.064-1.973h-2.088l-.065 1.973c0 .37.191 1.693.566 1.782v3.402h-4.773V54.58c.466-.308.76-2.574.89-3.083l1.886-15.823a32.033 32.033 0 0 1 5.467-1.233l1.616 17.255c.076.417.482 2.745.963 2.884zm-4.847-6.857l-.712-7.714h-.035l-.68 7.714h1.427zm30.274 6.857v3.402h-5.394V54.58c.35-.12.508-1.43.508-1.782l-.066-3.03h-2.644l-.068 3.03c0 .371.197 1.694.572 1.782v3.402h-4.782V54.58c.47-.307.763-2.574.895-3.083l1.743-20.287c2.112-.252 5.493-.562 5.493-.562l2.769 21.049c.08.417.488 2.745.973 2.883zm-5.339-8.445l-.996-9.184h-.036l-.953 9.184h1.985zm22.97 8.445v4.711h-4.028v-.898c0-.604-.149-.41-.76-.41h-3.203c-.615 0-.76-.194-.76.41v.898H83.25v-4.785c1.602-.015 1.585-1.544 1.585-2.469v-17.28c0-.49.047-.986-.466-1.293V30.19c5.37-.276 11.444 0 11.444 0v3.273c-.517.307-.474.804-.474 1.299v18.525c0 .644.677 1.013 1.504 1.292zm-5.51-21.167h-2.21v17.626c.04.77-.088 1.538-.375 2.253h2.584v-19.88zm19.474 1.142v-3.38c1.45.117 4.703.566 4.703.566v3.346a1.997 1.997 0 0 0-1.292 1.383l-2.853 8.21 2.08 8.461c.27.791.983 1.346 1.816 1.413l-.007 3.958h-4.957l-.007-3.958c.317-.496.13-.696-.119-1.686l-1.587-5.874h-.032v6.114c0 .492-.03 1.136.49 1.446l-.023 3.958h-5.264l.021-3.958c.52-.31.448-1.007.448-1.502v-5.039l-.035-1.02-1.615 5.791c-.25 1.083-.407 1.336-.14 1.77l.038 3.958h-4.79v-3.826a2.61 2.61 0 0 0 1.603-1.42l1.982-8.482-2.584-8.528c-.652-2.497-.983-2.333-1.459-2.73v-3.31c.991-.01 5.248.24 5.248.24l-.012 3.337c-.182.172-1.178.389-.151 3.336l1.915 5.034.126-6.863c0-.5.045-1.18-.472-1.486v-3.259c.785.013 5.268.422 5.268.422v3.391c-.525.31-.471.799-.471 1.29l-.124 6.505 2.2-5.392a2.48 2.48 0 0 0 .056-2.216zm5.211 19.238V36.828c0-3.188 2.065-4.766 5.047-4.596 4.03.22 5.036 1.974 5.036 5.162v16.398a5.041 5.041 0 0 1-10.083 0zm4.221-16.63v16.824c0 .088-.049 1.002.826 1.002.861 0 .816-.914.816-1.002V37.162c0-.091.045-.994-.816-.994-.875 0-.826.903-.826.994zm12.712 17.417v3.402h-5.267V54.58c.525-.307.475-.803.475-1.823V38.133a.87.87 0 0 0-.475-.765v-3.552l5.267 1.276v3.525c-.516.307-.473.676-.473 1.173v6.33h1.655v-6.007c0-.49.05-.985-.469-1.296v-3.579l5.265 1.36v3.755a.862.862 0 0 0-.468.764v11.639c0 1.02-.052 1.516.468 1.823v3.402h-5.265V54.58c.519-.307.469-.802.469-1.292v-4.592h-1.655v4.592c0 .49-.043.985.472 1.292zm7.262-10.84c0-1.184.164-2.679 1.176-3.482.942-.738 2.485-.71 4.121-.647 1.651.064 2.838 1.324 4.24 2.201v3.972h-3.32v-1.345c0-.538-.197-1.462-1.099-1.462-.907 0-.796.924-.796 1.462v9.49c0 .538-.111 1.466.796 1.466.902 0 1.098-.928 1.098-1.467V52.43h3.321v4.412a7.671 7.671 0 0 1-8.387.312c-1.2-1.065-1.15-2.455-1.15-3.903v-9.51zM75.62 18.46c-.062-.5-.249-.553-.693-.55l-.027-.202c1.823-.366 5.42-.844 5.42-.844l.041.296c-.43.109-.597.218-.534.717l.436 3.573c.074.581.22.71.706.651l.035.298-2.44.32-.028-.285c.605-.099.567-.444.534-.702l-.46-3.711c-.046-.37-.163-.547-.514-.495l-.89.12c-.354.054-.418.257-.375.618l.454 3.714c.062.48.25.59.687.537l.064.269-2.455.411-.043-.339c.616-.1.561-.46.536-.708l-.454-3.688zm6.272-.77c-.035-.502-.212-.57-.657-.592l-.02-.296 2.427-.23.035.356c-.45.105-.6.182-.57.672l.23 3.67.074-.01 1.558-4.755 1.88-.098.022.3c-.435.078-.61.175-.58.677l.23 3.669c.028.5.209.573.656.59l.017.297-2.453.152-.013-.279c.514-.052.597-.3.572-.672l-.234-3.818-.076.007-1.569 4.864-1.87.165-.016-.327c.44-.075.616-.173.585-.673l-.228-3.67zm6.028 3.837c.439-.01.62-.14.62-.616v-3.615c0-.49-.181-.573-.62-.62v-.258l2.462-.036v.295c-.445.046-.624.129-.624.619v3.688c0 .273.04.543.454.543h.902c.407 0 .452-.27.452-.543v-3.688c0-.49-.182-.573-.62-.62v-.294l2.46.06v.235c-.441.046-.62.129-.62.619v3.65c0 .492.227.599.672.58l.118 1.99h-.384a2.372 2.372 0 0 0-.383-1.234 1.246 1.246 0 0 0-1.09-.46s-2.858-.06-3.794.027l-.005-.322zm10.938 1.22a1.266 1.266 0 0 0-1.06-.54s-2.883-.284-3.794-.281l.018-.287c.445.022.63-.093.658-.568l.238-3.594c.034-.483-.139-.576-.575-.663l.019-.288 2.457.181-.025.29c-.44.015-.626.084-.659.576l-.236 3.662c-.016.269 0 .536.412.57l.903.066c.41.027.467-.233.488-.501l.238-3.67c.03-.487-.141-.574-.58-.66l.02-.292 2.452.235-.017.235c-.445.018-.626.088-.653.572l-.242 3.63c-.032.482.19.607.636.62l-.015 1.986-.383-.026a2.396 2.396 0 0 0-.3-1.253zm2.855-.053l-1.665-.25.042-.295c.481-.108.757-.662.908-.984l1.808-3.947 1.09.168.788 4.383c.082.47.205 1.203.63 1.165l-.039.297c-1.09-.218-2.618-.395-2.618-.395l.044-.296c.312.026.712.054.76-.293l-.01-.286-.163-1.012-1.665-.246-.287.657-.106.324a.636.636 0 0 0 .52.713l-.037.297zm.069-2.364l1.437.213-.395-2.26-.113-.019-.93 2.066z"/>
</svg>
