<svg width="180" height="80" xmlns="http://www.w3.org/2000/svg"><path d="M129.265 31.17a1.387 1.387 0 0 0-.177.644c0 .165.043.322.143.44.145.17.22.362.22.55a.707.707 0 0 1-.025.187c-.08.288-.337.52-.73.658-.138.05-.27.075-.392.087.136.353.275.837.275 1.306 0 .256-.04.506-.143.73-.332.715-.546 1.27-.592 1.707-.038.337-.232 1.01.517 1.203.75.194.286.652.126.724-.16.07-1.08.627-1.736.69a1.379 1.379 0 0 1-1.06-.35c-.76-.682-1.03-2.364-1.03-3.46l.002-.015c-.775-.815-1.804-2-1.804-3.207 0-.493.173-.99.607-1.465l.023-.024.028-.02c.05-.032.074-.058.092-.077-.067-.05-.193-.112-.26-.146l-.146-.072c-.155-.083-1.41-.518-2.42-.027-.69.336-1.126 1.04-1.302 2.1-.12.87-.32 2.3 1.42 3.84.117-.153.247-.308.392-.47.183-.202.403-.4.666-.333.27.07.333.344.378.547l.037.15.07.22c.085.286.228.765.313.96.04.09.117.198.214.23.08.024.178 0 .297-.073.244-.147.463-.176.65-.084.3.148.337.52.356.7v.034c.02.145.246 1.132.35 1.518.123.466.215.588.394.523.322-.115 1.302-.468 1.67.14.54.894-1.164 3.106-1.57 3.464-.128.113-.555.763-.726 1.156l-.03.07c-.19.44-.504 1.168-.96 1.72-1.69 2.008-3.67 1.644-4.752 1.274.344.41.723.815 1.116 1.13l.14.108c.435.318 1.334.983 1.235 1.815-.034.274-.044 1.533-.044 1.935 0 .142.1.653.18 1.06.08.41.16.798.18 1.017.027.26-.003.873-.09 1.464h8.058s-2.082 3.568-2.23 3.827c.137.268 2.062 3.98 2.062 3.98h-18.635l-1.066 3.607c-5.86-2.12-12.85-3.327-19.186-3.327h-.033c-6.333 0-13.31 1.213-19.17 3.33l-1.07-3.61h-18.93s1.926-3.712 2.063-3.98L51 57.445h7.024l.05-.14s.007-.01.01-.02a3.848 3.848 0 0 0-.407-.02l-.63-.04c-.25-.03-.436-.135-.556-.306a.824.824 0 0 1-.13-.476c0-.216.052-.446.104-.66.038-.16.082-.36.09-.48.014-.192.065-.427.11-.643.12-.554.282-1.31.19-2.69-.07-1.04-.004-1.55.235-1.818.187-.212.438-.223.62-.234l.154-.01.2-.022c.612-.06 1.754-.17 2.427-1.234.25-.392.412-.78.526-1.375-2.757-.007-3.864-1.067-4.307-1.957-.733-1.48-.184-3.56 1.512-5.716l.422-.558.175-.21c.344-.418.79-1.25.66-1.704-.025-.087-.084-.21-.303-.286-.283-.096-.667-.267-.715-.62-.052-.393.337-.652.624-.843l.12-.083c.367-.273.937-.398 1.42-.313l.222.058c.055.018.15.047.176.04.004 0 .138-.07.29-.75.04-.173.06-.374.06-.593 0-.62-.184-1.364-.61-1.975-.49-.712-1.54-1.423-2.212-1.31-.33.056-.553.307-.68.77-.176.642.166 1.636.476 1.874.245.19.49.422.42.703-.07.285-.375.343-.597.385l-.12.024a.98.98 0 0 1-.378-.003 3.033 3.033 0 0 0-.217-.01c.152 1.06-.535 2.36-1.045 3.112l-.286.433c-.436.725-.8 1.44-1.062 1.962l-.108.222c-.194.41-.435.924-1.082.777a.551.551 0 0 1-.373-.252c-.146-.234-.075-.513-.006-.782.04-.158.083-.32.073-.443-.028-.37-.72-1.426-1.054-1.935l-.084-.128c-.408-.622-.317-1.557-.256-2.175l.01-.095-.01-.002c-.557-.093-.87-.29-.925-.586a.46.46 0 0 1-.01-.09c0-.178.103-.345.278-.448.188-.13 1.09-1.106 1.312-1.46-.102-.12-.307-.293-.78-.504-.41-.185-.733-.33-.733-.626 0-.007 0-.013.003-.02.013-.273.27-.36.46-.422.06-.02 1.488-.487 2.075-.573.924-.132 1.553-.497 2.225-.878.68-.39 1.386-.79 2.452-1.03 1.867-.42 3.244.96 4.218 2.455 1.4 2.137.437 5.15.2 5.616l-.076.15c-.257.49-.278.594.016.793.745.508.857 1.028.382 1.796l-.45.704c-.273.42-.516.825-.644 1.06-.6 1.106-.824.875-.958.857-.096-.014-.33-.084-.406-.438l-.104-.405-.118-.51-.042-.215c-.02.035-.284.36-.284.36l-.3.4-.302.41c-.963 1.295-1.63 2.372-.747 3.45.413.51 1.18.568 2.338.176l.008-.137c.142-2.52 2.104-4.43 2.765-4.803l.417-.23c.685-.38 1.72-.945 2.152-1.39.122-.315.23-.64.382-.977.21-.467.443-.996.637-1.702.12-.443.17-.886.17-1.32 0-1.685-.772-3.22-1.287-3.91-.033-.038-.06-.067-.086-.095l-.01.12c-.016.156-.03.316-.068.463-.074.297-.202.493-.39.597-.26.148-.553.077-.81.002-1.42-.422-1.788-1.46-1.964-1.96l-.008-.03a4.3 4.3 0 0 0-.126-.307l-.01.016c-.116.136-.296.317-.55.33-.175.006-.343-.07-.5-.226-.258-.256-.707-.976-.89-1.43a1.58 1.58 0 0 1-.095-.59c0-.374.078-.778.138-1.106l.027-.14.03-.14c.022-.076.044-.18.064-.256l-.187.05-.087.024c-.47.13-.742.162-.92-.005-.17-.157-.127-.37-.1-.496l.01-.056c.273-1.432.157-2.14-.385-2.37-.54-.23-.872-.594-.82-.903a.37.37 0 0 1 .336-.31c1.278-.163 2.605-.8 3.626-1.7l.228-.24c.17-.177.364-.375.57-.55l.108-.076c-.197-.142-.417-.31-.67-.52-.674-.566-1.02-1.248-.947-1.874.056-.446.336-.826.772-1.04.727-.36 1.614-.217 2.24-.04l-.17-.52 1.47-.47.31-.098.156.48c.405-.493 1.023-1.084 1.796-1.208.48-.077.932.07 1.24.4.43.463.553 1.218.334 2.068-.193.767-.39 1.33-.56 1.714l.042.008.025-.008a.73.73 0 0 1 .077.016l.036.008.085-.008c.144-.02.414-.054.577.16.156.197.09.472 0 .704.108.15.36.438.518.57.17.143.705.665 1.382 1.326.855.834 1.92 1.87 2.29 2.182.728.608.776 1.345.514 1.77-.223.36-.652.665-1.11.535l-.265-.108c-.017-.008-.036-.017-.06-.026.016.05.033.105.06.18.034.09.108.29.108.494 0 .153-.042.31-.175.42-.303.254-1.03.305-1.47.063-.156-.086-.44-.328-.857-.684l-.49-.41c-.364-.278-1.056-.52-1.512-.592-.03-.005-.065-.017-.096-.024.01.013.02.024.035.04l.284.36c.404.53 1.018 1.337 2.288 2.056l.813.42c1.57.777 3.925 1.766 5.038 4.384.346.82.45 1.78.316 2.87.616-1.76 1.49-3.416 2.594-4.845a13.933 13.933 0 0 1 2.98-2.884c.637-1.412.497-3.29-.277-3.865a1.095 1.095 0 0 1-1.739-.88c0-.148.03-.288.085-.415a1.272 1.272 0 0 1-1.623-1.219c0-.228.062-.44.168-.626a1.525 1.525 0 0 1-1.8-1.495c0-.585.338-1.094.832-1.347a1.525 1.525 0 0 1-1.09-1.452c0-.837.69-1.517 1.535-1.517.248 0 .478.057.684.16a1.642 1.642 0 0 1-.095-.548c0-.906.745-1.642 1.66-1.642.624 0 1.166.34 1.45.847.148-.54.642-.937 1.233-.937.66 0 1.203.497 1.272 1.133a1.1 1.1 0 0 1 1.842.285h.248c.626 0 .754-.504.754-.638 0-.4.37-.68.896-.68h1.326c.525 0 .893.28.893.68 0 .134.128.638.755.638h.29a1.098 1.098 0 0 1 1.842-.284A1.278 1.278 0 0 1 96.04 12c.588 0 1.085.398 1.23.937.285-.506.83-.847 1.45-.847.917 0 1.66.736 1.66 1.642 0 .194-.034.377-.095.55a1.524 1.524 0 0 1 2.214 1.353c0 .684-.455 1.262-1.087 1.452.495.253.835.762.835 1.348a1.527 1.527 0 0 1-1.799 1.494c.104.185.166.398.166.626a1.275 1.275 0 0 1-1.624 1.219c.055.127.084.267.084.415a1.094 1.094 0 0 1-1.686.915c-.738.573-1.04 2.38-.355 3.865a14.037 14.037 0 0 1 3.228 3.248l.044.012c.334.083.71.125 1.113.095v-.003c0-2.546 1.67-2.637 4.174-2.772l1.258-.076c2.01-.148 3.315-1.08 3.884-2.77l.023-.07c.045-.13.062-.343.062-.56 0-.062-.003-.12-.004-.18-.555.167-1.416.377-1.787.402-.44.03-1.094.126-1.696.567a.715.715 0 0 1-.53.265c-.184.003-.463-.073-.732-.446-.26-.364-.484-.613-.615-.762l-.137-.163c-.09-.134-.1-.345-.026-.538.082-.217.305-.504.894-.653l.468-.102c.514-.1.552-.115.566-.433.002-.05-.007-.1-.09-.165-.31-.242-1.148-.28-1.534-.173l.025-.01c-.21.076-.394.074-.557-.007-.254-.128-.364-.415-.424-.62-.06-.19-.23-.768.196-1.124.08-.07.02-.24-.11-.51 0 0-.08-.168-.08-.174-.076-.19-.235-.583-.046-.93.12-.22.348-.368.678-.434.47-.096.913-.072 1.27-.054.24.015.452.026.614 0 .164-.028.388-.14.605-.25.314-.157.64-.32.968-.338.323-.018.972-.002 1.545.01l.755.015c.42 0 1.958-.51 2.393-.944.058-.062.35-.368.71-.337.132.01.32.072.464.3.15.238.22.6.294.982.07.366.148.78.3 1.032.177.3.468.58.753.854.206.197.417.404.584.615.194.24.365.646.562 1.113.224.523.474 1.116.72 1.346.606.57 1.385 1.183 2.048.862l-.023.014a.363.363 0 0 1 .47.086.64.64 0 0 1 .118.393.924.924 0 0 1-.236.612l-.348.313c-.163.14-.497.42-.522.54.022.258.097.415.16.52l.015.022c.052.084.16.254.16.495 0 .216-.087.49-.394.81-.26.268-.336.38-.336.496 0 .058.018.116.045.195l.014.044c.05.143.117.347.117.55a.583.583 0 0 1-.323.55l-.098.054c-.214.117-.323.175-.54.228l-.07.016c-.353.078-.55.187-.55.528 0 .02 0 .04.003.064l.012.21c.01.14.02.265.02.376 0 .357-.094.568-.553.708l-.213.056c-.354.08-.57.132-.602.794l-.014.428c-.03.867-.06 1.765-.866 1.862-.17.02-.33.007-.48-.028.715 1.488 1.696 3.76 1.832 6.15.124 2.166.644 2.66.983 2.987.106.1.203.193.283.314.174.27.545 1.232.642 2.36.156.57.782 1.078 1.846 1.078 1.235 0 2.162-1.243 2.162-2.355 0-1.184-1.11-1.6-1.697-1.654a1.937 1.937 0 0 0-1.228.31.361.361 0 0 1-.355.045c-.175-.074-.282-.27-.318-.59a2.777 2.777 0 0 1-.024-.393c0-.574.13-1.586.99-1.932l.022-.008a.239.239 0 0 1-.063-.06c-.603-.82-1.75-2.738-2.072-3.327-.785-1.44-1.193-3.832-.227-5.682.488-.94 1.287-1.636 2.34-2.06.73-.278 1.78-.514 2.927-.078.414.17.884.358 1.225.398.37.046.842-.076 1.256-.183.393-.1.732-.19 1.012-.155.334.042.818.235 1.245.406.238.097.48.195.578.213h.21c.355-.012.84-.03 1.05.326.056.098.08.2.08.305 0 .257-.138.523-.263.724v.006zm-3.172 8.13a.71.71 0 0 0 .583.2c.27-.016.67-.16.863-.278l.208-.117c.062-.038.068-.09.014-.12-.274-.104-.59-.577-.583-.926.02-.67.237-1.522.71-2.54.06-.138.088-.303.088-.477 0-.522-.233-1.133-.367-1.394-.083-.03-.155-.062-.216-.087l-.034-.015-.044-.015c-.058.116-.105.47-.13.672-.092.73-.375 1.938-.55 2.354l-.05.207c-.04.22-.09.518-.378.603-.248.074-.512-.054-.93-.463.066.925.328 1.957.815 2.394l.001.002zm2.18 25.353l-1.765-3.398 1.874-3.217h-7.125c-.054.23-.12.433-.2.575-.16.293-.464.492-.838.545-.368.053-.74-.046-.948-.253l-.005-.004-.255.182c-.6.37-1.193.053-1.518-.33a.955.955 0 0 1-.222-.447c-.26.094-.635.168-.86 0a1.336 1.336 0 0 1-.273-.267h-5.533c-.04.028-.58.456-1.118.88.838.26 1.667.54 2.474.833l.25.105-1.417 4.798h17.475l.004-.002zm-21.385-23.8l-.334.16-.214.09c-.256.1-.374.144-.408.516-.07.743-.483 1.58-1.024 1.632-.424.042-.88-.217-1.115-.495 0 0-.032-.047-.07-.092a.916.916 0 0 1-.25.057c-.242 2.197-.858 4.263-1.774 6.077l.17.16c.343.323.744.7 1.136 1.175.793-.13 1.606-.1 2.22-.076l.48.014c.544 0 .99-.122 1.132-.306.034-.046.07-.114.03-.255-.096-.342-.398-.66-.75-1.028a7.79 7.79 0 0 1-.802-.944c-.673-.953-.72-2.342-.128-3.713.233-.547.512-.876.845-1.005.39-.155.742 0 1 .114l.126.054c1.52.516 3.634.018 4.248-.146a2.168 2.168 0 0 0-.074-.668 6.098 6.098 0 0 0-1.54-.566c-.663-.14-1.853-.456-2.378-1.032-.003-.003-.004-.006-.006-.01-.596.307-.04.05-.522.284l.002.003zm-4.63 14.2c-.01.3-.117.537-.325.706-.5.408-1.423.26-2.237.132a8.371 8.371 0 0 0-.75-.1c-.466-.024-1.02.354-1.37.617 1.74.204 3.486.476 5.208.814.236-.137.584-.382.667-.478.327-.387.508-1.065.59-1.644a.877.877 0 0 1-.923-.625l-.023-.088c-.026-.09-.056-.202-.084-.285a.87.87 0 0 1-.82-.193c.07.354.098.735.07 1.14l-.003.004zm-3.278.147c.236.013.515.057.808.104.622.098 1.473.233 1.76-.005.046-.037.104-.102.11-.28.126-1.75-.98-3-1.593-3.623-1.74 2.25-4.023 3.9-6.597 4.65h-.204c1.137.058 2.285.147 3.436.266.062-.062.135-.134.2-.193.288-.266 1.05-.978 2.08-.92v.001zm1.936-3.764c.08-.313.3-.63.75-.87.21-.12.445-.205.682-.275-.312-.35-.623-.64-.89-.894l-.05-.046c-.3.545-.627 1.067-.982 1.56.14.14.31.318.49.526v-.001zm6.035-7.888l-.16-.067c-.23-.1-.392-.162-.54-.105-.17.066-.347.304-.51.684-.508 1.182-.483 2.356.068 3.142a7.3 7.3 0 0 0 .748.874c.388.41.756.795.893 1.28.1.363-.016.622-.133.772-.362.47-1.165.54-1.61.54l-.502-.015c-.503-.017-1.147-.04-1.78.03-.172.02-.464.044-.667.11-.286.065-.56.16-.805.293-.402.22-.55.502-.437.82.097.273.334.415.41.4a.952.952 0 0 1 .135-.015l-.002-.002c.58-.06.84-.082.47.586 0 0-.118.23-.13.248-.07.138.09.29.235.38.054.033.142.07.31.002h-.002c.59-.422.5-.16.61.33l.145.488a.294.294 0 0 0 .21.183.26.26 0 0 0 .187-.038c.093-.07.44-.544.537-.696.406-.594.902-1.3 1.466-1.54.66-.28 1.946-.672 2.538-.672l.133.002c.45.004 1.647.016 1.84-.46.132-.33.03-.433-.175-.637-.094-.096-.205-.204-.276-.343l-.06-.108c-.177-.302-.62-1.06-.2-1.908-.592-.12-1.164-.588-1.463-.8l-.044-.028c-1.135-1.054-.426-.927.346-.34l.042.032c.357.25 1.08.756 1.566.54.087-.087.187-.17.297-.257-.012-.043-.027-.086-.035-.122-.206-.762.26-2.75.57-3.31a1.64 1.64 0 0 0 .132-.333c-.87.208-2.842.578-4.356.063l-.001-.003zm3.814 4.407c-.017.012-.034.018-.053.028-.688.72-.323 1.34-.095 1.73l.08.14c.028.054.093.12.163.19.22.22.587.585.307 1.277-.345.854-1.737.84-2.405.835h-.126c-.45 0-1.64.342-2.302.623-.428.18-.908.893-1.26 1.41l-.363.512c-.01.01-.018.015-.024.023-.044.724-.25 1.79-.773 2.404a2.011 2.011 0 0 1-.304.27c1.766.37 3.504.81 5.188 1.313l1.61-1.266h5.53c-.002-.047-.01-.087-.01-.135-.003-.698.91-1.752 1.732-2.23.474-.278.682-.8.62-1.556-.035-.437-.382-.86-.52-.906-.223-.074-1.002-.21-1.555-.255-.337-.028-1.564-.216-3.186-1.45-1.08-.818-1.796-2.156-2.165-3.06a.31.31 0 0 1-.09.102l.001.001zM71.557 68.103c5.8-2.012 12.59-3.167 18.78-3.167h.033c6.187 0 12.985 1.152 18.78 3.16l2.343-7.873c-6.468-2.323-14.14-3.655-21.12-3.655h-.037c-6.98 0-14.63 1.324-21.102 3.648l2.323 7.887zm3.2-26.08a.913.913 0 0 1 .66.003c.12.04.18.058.323.007.364-.13.426-.25.662-.68.185-.336.035-1.332.06-1.764l.01-.174c.01-.08.013-.15.016-.217l-.066.122c-.463.88-1.55 2.24-2.073 2.683-.88.748-1.953 1.418-3.17 1.512-1.034.08-1.924.428-2.668 1.037 1.1.124 2.903-.08 3.66-.25.797-.18 1.458.078 1.808.704l.284.487c.36.62.582 1.012.627 1.293.155.946-1.634 2.46-2.255 2.79-.61.323-1.123.573-1.23.715-.092.126-.17.278-.136.395.03.11.172.226.398.328.678.3 1.535.657 2.172.748.644.09 1.295.396 1.882.882.182.15.333.24.464.304.545-2.066 1.75-3.2 2.593-3.99l.143-.138a17.609 17.609 0 0 1-1.58-4.724c-.385.154-.86.314-1.27.454-.307.104-.598.202-.69.246-.252.12-.633.172-.946-.024a1.145 1.145 0 0 1-.29-.316 1.423 1.423 0 0 1-.157-.65l-.02-.407c-.042-.62-.07-1.07.787-1.378l.002.002zM67.8 50.074c.568-.732.806-.98.99-1.097-.06.005-.135.014-.228.027-1.04.172-1.723-.127-2.38-.418l-.06-.026c-.2.483-.376.868-.582 1.115-.386.456-1.394 1.1-2.237 1.036-.114.51-.527.963-1.106 1.192-.537.214-1.21.162-1.908.085-.44-.048-.78.07-.86.135l-.05.22c-.05.227-.124.538-.165.875-.01.07-.012.144-.012.223 0 .45.133.98.22 1.083.11.107.47.406.79.673l.57.48.085.07c.296.25.703.587.703 1.65v.048h8.697l1.687 1.252a63.71 63.71 0 0 1 5.127-1.297c-.147-.117-.344-.27-.345-.273a2.69 2.69 0 0 1-.466-.854l-.27-.06-.24-.032c-.547-.07-1.377-.175-1.48-.95-.01-.063-.03-.217-.053-.32l-.053.012c-.474.118-.877-.033-1.6-.412-.392-.205-.67-.445-.915-.655-.24-.204-.443-.38-.71-.494l-.766-.287c-.493-.176-1-.356-1.422-.58l-.066-.035c-.473-.25-1.123-.59-1.258-1.21a1.02 1.02 0 0 1-.023-.222c0-.302.128-.62.384-.95l.002-.004zm-1.376-2.032c.604.267 1.176.518 2.04.375.825-.136 1.067.125 1.147.362.097.282-.304.614-.416.667-.07.08-.2.07-.92.99-.206.267-.29.498-.25.687.08.348.584.615.954.81l.067.033c.385.205.87.377 1.34.545l.803.3c.35.152.612.377.865.593.23.2.473.405.803.58.725.38.94.416 1.173.36.03-.01.065-.017.098-.026.454-.16.42-.612.678.425.026.114.047.248.07.406.04.3.423.37.96.44l.263.036.182.04.225.053c.218.052.484.112.59.045.048-.033.075-.124.086-.194a.88.88 0 0 0 .012-.14c0-.606-.508-1.58-.697-1.76l-.307-.076c-.22-.07-.506-.205-.852-.492-.496-.408-1.057-.676-1.584-.748-.554-.078-1.273-.324-2.332-.796-.4-.178-.65-.416-.732-.705a.85.85 0 0 1-.03-.22c0-.305.168-.563.247-.67.126-.176 1.26-.803 1.438-.92.763-.407 2.01-1.72 1.94-2.16-.03-.183-.307-.66-.554-1.083l-.284-.5c-.273-.483-.77-.486-1.138-.404-.954.214-3.206.455-4.332.182l-.17.187c-.246.3-.472.635-.672 1.01a18.525 18.525 0 0 0-.79 1.733l.08.035h-.001zm10.347 5.093c.475.27 1.14 1.74 1.007 2.53-.046.276-.165.477-.353.6a.825.825 0 0 1-.457.12c.067.135.142.258.23.36.163.19.433.37.652.494a67.93 67.93 0 0 1 5.252-.826c-.385-.28-.97-.644-1.4-.62-.204.01-.47.052-.75.098-.816.128-1.74.276-2.238-.133-.205-.17-.316-.408-.324-.708-.147-2.05 1.148-3.454 1.81-4.12a16.061 16.061 0 0 1-.984-1.56l-.024.024c-.79.74-1.92 1.813-2.42 3.74l-.001.001zm2.22 1.884c.005.178.065.243.107.28.29.237 1.14.102 1.76.004.297-.047.576-.09.81-.104 1.03-.058 1.793.654 2.08.92l.05.05c.012.01.084.08.155.15 1.16-.12 2.316-.213 3.462-.27h-.262c-2.57-.75-4.85-2.39-6.59-4.634-.618.63-1.696 1.87-1.573 3.604h.001zM57.962 58.49a.75.75 0 0 1-.096-.377c0-.025.005-.05.006-.075h-5.83l1.873 3.217s-1.415 2.725-1.762 3.398H69.92l-1.426-4.81.252-.092a59.385 59.385 0 0 1 2.507-.844l-1.187-.868h-8.573c-.242.85-1.036.88-1.753.905l-.127.002c-.204.01-.732-.01-1.018-.068-.303-.052-.515-.183-.632-.386l-.001-.002zm-5.03-21.646l.085.127c.584.892 1.11 1.733 1.15 2.215.002.026.002.054.002.082 0 .19-.05.382-.093.553-.025.097-.06.237-.062.31.13.027.178.007.394-.453l.113-.236c.268-.53.636-1.256 1.086-2l.3-.46c.472-.693 1.11-1.946.934-2.78-.05 0-.083.006-.09.012l-.02.024v.032c.003.322-.044.714-.605 1.662-.435.738-.776 1.03-1.137.98-.417-.053-.545-.522-.624-.804l-.03-.11a4.195 4.195 0 0 1-.214-1.236v-.06c-.647.437-1.033.367-1.354.34v.01c-.02.22-.05.504-.05.793 0 .372.048.748.212 1l.003-.001zm5.518 8.276c-1.245-1.525-.055-3.122.733-4.18l.294-.4.272-.35.26-.426.27-.456a.384.384 0 0 1 .403-.228c.245.037.397.225.552 1.15l.1.43.06.227c.02.074.21-.23.24-.295.13-.282.4-.7.684-1.14l.444-.694c.134-.217.2-.37.2-.497 0-.18-.138-.31-.41-.495-.36-.244-.475-.507-.475-.764 0-.285.144-.563.265-.794l.074-.14c.173-.346.48-1.384.48-2.54 0-.84-.12-1.753-.64-2.476-1.31-1.83-2.38-2.48-3.587-2.208-.98.22-1.645.598-2.288.963-.723.41-1.402.844-2.44.977-.338.045-1.084.294-1.59.452.717.328.968.615 1.12.853.03.05.063.215.04.297-.09.383-1.067 1.435-1.494 1.812.062.02.147.024.265.062.153.05.418.144.592.166.28.036.432.036.906-.27.573-.367.804-.612 1.06-.42.106.078.14.176.14.276 0 .127-.054.258-.1.368-.037.092-.043.284-.048.352a1.11 1.11 0 0 0-.003.083c0 .324.038.71.128.98l.044.143c.017.072.057.214.098.3.076-.06.226-.218.47-.632.49-.826.514-1.127.514-1.302v-.066c.136-.907 1.305-.656 1.668-.616.054.006.132.017.158.013.01 0 .08-.017.118-.023l-.046-.04c-.394-.3-.79-1.125-.79-1.897 0-.23.053-.418.11-.633.242-.875.754-1.104 1.152-1.17 1.058-.18 2.297.82 2.805 1.552.683.985.83 2.222.645 3.043-.146.647-.317.985-.575 1.133-.243.142-.48.07-.655.017l-.156-.04c-.316-.058-.715.027-.95.2l-.146.1c-.09.06-.274.19-.34.272.04.028.12.078.292.136.356.12.594.36.686.685.032.108.045.224.045.34 0 .705-.505 1.523-.82 1.903l-.18.217s-.41.548-.41.544c-1.52 1.94-2.06 3.84-1.443 5.086.52 1.046 1.953 1.605 3.858 1.623.04-.32.076-.687.105-1.122-.684.213-1.997.5-2.765-.44l.001-.001zm11.232-29.667c0-.374-.096-.686-.286-.89-.175-.19-.43-.27-.72-.222-.552.087-1.125.542-1.7 1.342-.075.124-.19.257-.315.365l-.103.093-.3-.918c-.124.04-.548.176-.674.214l.296.908-.133-.005c-.21-.006-.364-.028-.45-.063-.997-.35-1.737-.396-2.256-.138-.26.13-.42.342-.45.596-.054.424.226.934.744 1.366.293.244.573.46.838.65.05-.02.1-.035.15-.046a1.16 1.16 0 0 1 .447.002.1.1 0 0 0 .062-.01 10.48 10.48 0 0 1-1.232-.91c-.373-.31-.605-.675-.605-.95l.005-.05c.013-.12.086-.21.224-.278.414-.205 1.09-.14 2.014.185l.01.002c.29.065.523.09.73.082l.072-.004.312 1.022s.02.053.038.123c.244.038.525.09.85.15.017.002.037 0 .056 0-.06-.167-.126-.364-.126-.364l-.384-1.11c.15-.108.303-.247.483-.463.554-.794 1.048-1.227 1.478-1.295.18-.03.243.043.265.066.102.11.154.308.154.55 0 .16-.023.34-.07.53-.308 1.21-.575 1.708-.646 1.824.03-.002.06-.006.09-.006.096-.005.196 0 .302.02l.156.03c.122-.254.348-.8.59-1.746.056-.227.084-.446.084-.648v-.004zm-4.57 2.74a.288.288 0 0 1 .04-.07c.117-.172.3-.247.558-.26h.056l-.172-.53a3.719 3.719 0 0 1-.486-.08l-.018-.005-.02-.006c-.79-.284-1.21-.304-1.43-.267.053.095.152.222.333.375.518.43.892.69 1.138.843h.001zm12.07 13.83c-.914-2.455-3.186-3.305-4.752-4.083l-.845-.434c-1.375-.778-2.032-1.643-2.468-2.215l-.258-.324c-.255-.29-.435-.51-.52-.69-.573-.912-.45-1.572-.432-1.788.02-.22.13-.147.168.018.035.16.182.928.762 1.247.088.025.18.06.274.097.126.05.272.107.36.12.43.07 1.263.317 1.78.71l.516.43c.273.232.645.55.776.622.247.138.625.13.724-.046a1.22 1.22 0 0 0-.064-.218c-.072-.2-.134-.4-.134-.578 0-.14.043-.266.146-.362.237-.217.568-.067.807.044l.174.074c.147.042.333-.11.434-.273.08-.124.158-.547-.388-1.005-.39-.325-1.417-1.328-2.324-2.21-.616-.602-1.2-1.17-1.353-1.3-.01-.008-.81-.708-.758-1.064a.237.237 0 0 1 .05-.115c.02-.05.03-.086.045-.118h-.243l-.054-.01c-.187-.044-.45-.08-.816-.14a1.257 1.257 0 0 0-.406 0l-.258.052c-.184.047-.363.108-.537.15.808.67-.662 0-1.198-.132l.028.004c-.662-.124-.772-.027-.775-.026-.076.114.144.64.514 1.092.195.24.018.418-.003.44-.207.192-.4.022-.585-.144-.11-.098-.278-.248-.36-.302-.308-.21-.566-.296-.767-.255-.348.07-.743.483-1.06.81l-.237.252c-1.013.897-2.305 1.55-3.592 1.8.067.047.15.096.26.143.687.29.895.94.895 1.692 0 .406-.06.842-.14 1.27l.247-.062.085-.023c.442-.123.686-.19.875-.003.193.19.13.45-.007.937l-.02.09-.027.145c-.052.275-.13.68-.13 1.003 0 .142.015.268.053.363.16.398.576 1.05.758 1.23.023.023.04.035.05.043.013-.01.044-.03.113-.108l.042-.052c.035-.045.075-.094.123-.14h-.003c.47-.524.306-1.108.872.344.043.095.084.205.127.326l.008.028c.158.438.444 1.25 1.57 1.587.246.074.32.062.343.05.02-.01.063-.07.104-.223.024-.102.037-.24.048-.37.01-.09.018-.174.03-.257.143-1.093-.134-1.654 1.04-.203h-.003c.033.035.065.072.097.11l.006.007.006.006c.203.274.433.645.646 1.088.194.14.403.236.625.26.23.025.266-.048.316-.28.14-.652.024-.96.623-.19.205.28.23.304.714.486.834.317 1.293.302 1.4.222.08-.457-.36-.926.613-.165v.002c.12.09.225.223.296.316.09.113.42.362.862.67l.566-.26c.36-.223.56-.43.597-.62.055-.277-.252-.624-.56-1.116-.72-1.14-2.64-1.48-3.853-1.628l-.848-.125c-1.49-.28-3.363-1.01-4.458-1.978-1.674-1.484-1.014-4.183-.817-4.976.128-.378.166-.02.133.143-.147.717-.34 3.127 1.084 4.388 1.007.888 2.686 1.555 4.09 1.813l.895.14c1.324.167 3.382.476 4.25 1.855.373.592.78 1.066.674 1.6-.07.365-.347.684-.867 1.007l-.303.154c.457.31.962.64 1.425.945.793.522 1.605 1.055 2.224 1.49.266-1.286.216-2.39-.125-3.306l.005.002zm.516 4.337c-.532-.442-1.75-1.242-2.93-2.018-1.7-1.12-2.756-1.823-3.007-2.146-.023-.03-.043-.053-.063-.077-.42.366-1.295.155-1.993-.11-.354-.133-.538-.216-.704-.37-.163.293-.432.426-.808.386a1.574 1.574 0 0 1-.225-.04c.392 1.103.604 2.47.232 3.846-.208.752-.453 1.3-.67 1.79-.164.36-.313.668-.412.975-.166.425-.472.507-.633.624-.55.332-1.21.75-1.75 1.048l-.41.226c-.674.38-2.342 2.168-2.462 4.32-.13 2.3-.27 3.22-.863 4.155-.83 1.312-2.267 1.45-2.88 1.51l-.177.018-.202.016c-.11.006-.18.01-.2.034-.04.042-.11.196-.11.746 0 .17.004.38.024.636.02.304.028.576.028.827 0 .957-.13 1.56-.23 2.026-.04.2-.063.413-.074.57a4.27 4.27 0 0 1-.08.58c-.045.185-.128.537-.072.62.006.004.033.022.106.032l.56.033c.148.002.29.007.418.02l-.004-.005c1.266.015.807-.008.646.68h-.003c-.007.06-.024.12-.044.186-.043.122-.335.5-.154.617.08.09.436.256 1.038.235l.132-.005c.93-.03 1.222-.076 1.247-.84.023-.877-.237-1.094-.49-1.305l-.096-.082-.557-.47a18.342 18.342 0 0 1-.83-.707c-.31-.31-.442-1.29-.38-1.8.048-.367.124-.695.18-.934l.052-.243c.078-.474.925-.637 1.505-.573.47.052 1.178.13 1.617-.045.316-.126.685-.408.748-.806-.512-.198-.648-.124-.814-.03-.31.178-.205.286-1.128.21-.164-.013-.586-.163-.573-.328.014-.164.61-.13.775-.116.474.04.386-.145.628-.283.44-.25.826-.23 1.525.073.514.222 1.56-.32 1.945-.776.195-.233.397-.733.63-1.314.23-.565.512-1.27.894-1.983 1.01-1.884 2.532-2.92 4.53-3.074 1.072-.084 2.03-.69 2.82-1.362.48-.406 1.515-1.71 1.937-2.514.106-.203.205-.4.3-.597a.72.72 0 0 0-.168-.075c-2.44-.75-3.25-.985-3.508-1.026-.5-.082-1.336-.34-1.605-.617a.3.3 0 0 1 0-.42.283.283 0 0 1 .41 0c.106.11.737.36 1.285.448.406.067 1.578.41 3.59 1.048 1.184.376.94 1.006.9 1.454l-.036.607c-.054.89.067 1.375-.153 1.776-.254.462-.406.742-.975.947-.327.12-.538.05-.69 0-.117-.037-.17-.053-.293-.01-.443.16-.44.195-.402.78l.023.426c.005.17.038.393.17.476.118.075.305.036.402-.01.116-.055.35-.133.747-.268.576-.195 1.362-.462 1.69-.646.15-.087.205-.21.205-.426 0-.096-.013-.21-.028-.347l-.026-.313c0-.38-.122-1.084-.064-2.027.032-.603.106-1.324.237-1.935.08-.368.15-.72.182-.97.013-.113.022-.21.022-.29 0-.318-.115-.428-.41-.674l.006.006zm5.01-13.677a.496.496 0 0 0 .498-.493.498.498 0 1 0-.996 0c0 .27.225.493.498.493zm-1.36-1.454c.377 0 .68-.303.68-.674a.677.677 0 0 0-.68-.673.679.679 0 0 0-.68.673c0 .37.306.673.68.673v.001zm-2.31-2.794c0 .512.42.925.932.925a.928.928 0 0 0 .933-.924.93.93 0 0 0-.933-.923.93.93 0 0 0-.932.923v-.001zm.68-3.723a.929.929 0 0 0-.934.923c0 .51.418.924.933.924a.931.931 0 0 0 .934-.924.93.93 0 0 0-.933-.923zm2.246-2.03c-.584 0-1.058.47-1.058 1.05 0 .58.474 1.05 1.058 1.05.585 0 1.06-.47 1.06-1.05 0-.58-.475-1.05-1.06-1.05zm2.684-.09a.678.678 0 0 0-.68.674c0 .37.306.67.68.67.375 0 .68-.3.68-.67a.678.678 0 0 0-.68-.674zm2.103.753a.497.497 0 0 0-.497.495c0 .27.223.492.498.492s.5-.22.5-.49a.5.5 0 0 0-.5-.496l-.001-.001zm1.03.88l-.004-.003c-.156.41-.556.703-1.025.703-.54 0-.992-.39-1.08-.903-.232.31-.603.51-1.022.51-.433 0-.814-.215-1.047-.54a1.665 1.665 0 0 1-2.422 1.187c.046.144.072.297.072.456a1.52 1.52 0 0 1-.834 1.35c.628.19 1.09.767 1.09 1.45 0 .32-.102.614-.273.86a1.275 1.275 0 0 1 1.395 1.259c0 .205-.05.398-.14.57a1.096 1.096 0 0 1 1.29 1.307c.05.06.115.144.19.254.45-.193.907-.366 1.37-.518l-.023-.022c-.515-.373-1.34-1.195-2.377-2.602-.807-1.093-1.006-2.203-.55-3.045.334-.613.984-1.013 1.828-1.122 1.55-.2 3.086.574 3.992 1.124l-.428-2.277-.002.002zm-3.195 10.148a13.88 13.88 0 0 1 5.723-1.226c2.024 0 3.973.425 5.802 1.263.07-.43.203-.828.392-1.16a15.429 15.429 0 0 0-6.172-1.276c-2.117 0-4.17.42-6.1 1.248.175.326.295.72.355 1.152v-.001zm-.133 2.03a11.377 11.377 0 0 1 5.856-1.62c2.094 0 4.1.566 5.9 1.647a5.12 5.12 0 0 1-.157-1.388 13.2 13.2 0 0 0-5.742-1.3 13.26 13.26 0 0 0-5.678 1.266 5.34 5.34 0 0 1-.178 1.395h-.001zm12.775-7.13c.698-.942.884-1.876.513-2.562-.247-.453-.734-.75-1.373-.832-1.637-.21-3.36.902-4.037 1.343l-.788 4.198-.005.006c1.063.076 2.107.26 3.128.545l.01-.02c.322-.186 1.28-.95 2.552-2.675v-.003zm-8.092 2.152l-.004-.005-.785-4.197c-.676-.44-2.4-1.554-4.036-1.343-.64.083-1.13.38-1.375.832-.37.686-.186 1.62.513 2.563 1.27 1.723 2.232 2.488 2.554 2.676l.017.015a15.916 15.916 0 0 1 3.115-.54l.001-.001zm2.144-8.645c0-.15-.186-.17-.294-.17H89.66c-.11 0-.295.02-.295.17 0 .417-.323.986-1.037 1.12l1.405 7.488v.004a14.898 14.898 0 0 1 1.215.001l-.008-.005 1.406-7.484c-.733-.122-1.067-.7-1.067-1.124h.001zm2.656.566a.497.497 0 0 0-.498.495c0 .27.222.492.498.492.275 0 .498-.22.498-.49a.498.498 0 0 0-.498-.496v-.001zm2.104-.753a.678.678 0 0 0-.68.674c0 .37.305.67.68.67.373 0 .678-.3.678-.67a.678.678 0 0 0-.68-.674h.002zm2.68.09c-.584 0-1.058.47-1.058 1.05 0 .58.474 1.05 1.06 1.05.585 0 1.06-.47 1.06-1.05 0-.58-.475-1.05-1.06-1.05h-.002zm3.182 2.953a.93.93 0 0 0-.933-.923.928.928 0 0 0-.933.923c0 .51.417.924.932.924a.93.93 0 0 0 .932-.924h.002zm-1.187 3.724a.93.93 0 0 0 .934-.924.931.931 0 0 0-.935-.923.93.93 0 0 0-.933.923c0 .512.42.925.933.925l.001-.001zm-1.378 1.87a.68.68 0 0 0 .682-.674.68.68 0 0 0-.683-.673.678.678 0 0 0-.678.673c0 .37.304.673.677.673l.002.001zm-1.36 1.453a.496.496 0 0 0 .498-.493.496.496 0 0 0-.993 0c0 .27.222.493.496.493h-.001zm-1.276.01a5.59 5.59 0 0 1 .22-.218 1.093 1.093 0 0 1 1.278-1.35 1.237 1.237 0 0 1-.138-.57 1.273 1.273 0 0 1 1.391-1.26 1.514 1.514 0 0 1 .819-2.31 1.52 1.52 0 0 1-.763-1.806 1.659 1.659 0 0 1-.786.196c-.823 0-1.51-.6-1.634-1.383a1.287 1.287 0 0 1-2.071.03 1.1 1.1 0 1 1-2.11.193l-.012.01-.428 2.276c.908-.55 2.443-1.325 3.992-1.124.846.11 1.494.51 1.83 1.123.455.843.255 1.953-.55 3.046-1.038 1.407-1.862 2.23-2.376 2.602l-.024.028c.46.15.916.324 1.363.516l-.001.001zm2.79 7.488c-2.395-3.098-5.657-4.803-9.182-4.803-3.528 0-6.792 1.705-9.185 4.804-1.315 1.698-2.292 3.73-2.878 5.88.38.357.497.666.415 1.34-.033.277-.11.638-.19 1.02a12.934 12.934 0 0 0-.227 1.845c-.054.932.067 1.62.067 1.992l.022.238c.045.372.116.988-.427 1.335 1.225 6.88 6.318 12.076 12.403 12.076 6.424 0 11.743-5.796 12.567-13.257-.038-.013-.075-.023-.11-.036-.574-.226-.685-.573-.685-.804 0-.033.003-.066.006-.094.003-.015.003-.032.003-.048 0-.12-.04-.277-.085-.28a.905.905 0 0 1-.67-.46.726.726 0 0 1-.1-.384c0-.248.094-.54.224-.95l.016-.042c.163-.513.607-.908.997-1.256l.31-.287c-.444-2.862-1.59-5.625-3.292-7.83l.001.001zm3.83 7.39c.475-.286 1.045-.418 1.368-.518.262-.08.572-.212.843-.354-.24-.774-.337-1.398-.345-1.91l-2.638-.165c.337.957.594 1.944.772 2.947zm-2.583-6.66c.624.966 1.155 2.01 1.58 3.103l2.905.18c.072-.515.24-.883.41-1.165a1.189 1.189 0 0 1-.628-.28c-.205-.18-.325-.435-.362-.76-.396.405-.85.7-1.365.687-.917-.024-1.634-.88-1.812-1.757-.255.02-.496.016-.728-.007v-.001zm14.5 2.556c.265-.032.306-.435.334-1.29l.02-.437c.054-1.112.662-1.253 1.064-1.346l.17-.044a.61.61 0 0 0 .125-.046.359.359 0 0 0 .005-.075 5.89 5.89 0 0 0-.016-.354l-.016-.213c-.004-.035-.004-.07-.004-.106 0-.587.345-.96 1.027-1.106l.05-.012c.14-.033.196-.063.395-.17l.098-.056.012-.007a.094.094 0 0 0 .005-.03c0-.083-.058-.254-.09-.35l-.015-.047a1.187 1.187 0 0 1-.082-.393c0-.25.127-.5.508-.897.175-.182.226-.303.226-.396a.307.307 0 0 0-.067-.177l-.02-.035c-.09-.15-.215-.4-.248-.79v-.042c0-.366.373-.68.735-.987l.29-.262c.017-.016.02-.035.034-.052-1.01.203-1.986-.712-2.38-1.082-.335-.318-.6-.942-.856-1.546-.168-.395-.34-.8-.48-.977-.144-.18-.334-.363-.533-.555-.31-.3-.63-.612-.85-.978-.204-.34-.294-.81-.374-1.224-.06-.31-.122-.634-.213-.778l-.012-.018a.506.506 0 0 0-.21.148c-.59.583-2.305 1.13-2.832 1.13l-.77-.015c-.532-.013-1.197-.028-1.498-.012-.203.01-.47.146-.728.276-.258.13-.52.264-.778.305-.23.037-.48.022-.75.01-.338-.022-.72-.042-1.112.04-.142.027-.24.075-.272.132a.215.215 0 0 0-.016.085c0 .11.06.26.095.345l.06.133c.078.16.206.424.206.69a.666.666 0 0 1-.25.532c-.022.02-.068.056-.068.18 0 .074.017.177.058.32.064.21.117.254.12.256.01 0 .03 0 .08-.018l.01-.004.015-.002c.454-.122 1.535-.133 2.064.283a.78.78 0 0 1 .318.622v.03c-.03.8-.548.9-1.05.998l-.432.093c-.39.1-.48.246-.49.316l.057.066c.132.147.374.423.652.81.107.146.19.198.233.197.032 0 .076-.038.093-.063l.028-.044.044-.03c.816-.61 1.73-.672 2.03-.695.38-.027 1.613-.336 1.99-.487l.365-.142.045.385c.01.092.104.913-.062 1.377l-.02.062c-.813 2.415-2.847 3.06-4.412 3.173l-1.27.077c-2.593.14-3.667.198-3.603 2.353 0 .717.556 1.565 1.273 1.583.615.016 1.24-.86 1.513-1.243a2.31 2.31 0 0 1 1.656-1.384c.78-.154 3.646-.457 4.883-.564.912-.08 2.568-.422 3.413-1.84.304-.507.995-2.787.706-4.026-.292-1.292.184-.587.286-.135.32 1.422-.12 3.866-.474 4.462-.982 1.647-2.852 2.04-3.88 2.13-1.253.108-4.085.41-4.818.554-.554.11-1.373.67-1.35 1.76.007.24.066.412.176.512.217.19.64.154.946.128l.18-.014.572-.03c1.2-.115.86-.267.652.455-.003.016-.006.028-.008.045-.024.08-.023.126-.023.143.003.114.447.082.578.026.374-.152 1.695-.732 1.922-.87.122-.076.342-.22.342-.22 1.736-1.37.877-.532.91.27.045.552.138 1.14.242 1.58.06.266.153.39.22.416a.19.19 0 0 0 .127-.008l.127-.068c.184-.133.453-.24.887-1.034.122-.223.2-.41.283-.547.54-1.008.417-1.282.795-.138.017.05.11.426.16.538.055.12.42.545.922.486v-.001zm2.742 12.483a1.6 1.6 0 0 1-.052-.392c0-.012.003-.024.003-.035-.123-.85-.39-1.54-.51-1.72-.042-.062-.11-.127-.19-.208-.34-.32-.818-.78-1.054-2.264l-.114-1.115c-.154-2.658-1.42-5.214-2.098-6.585l-.104-.21-.094-.198c-.013-.033-.018-.05-.03-.077-.032.067-.073.143-.118.236-.48 1.004-.97 1.18-1.203 1.318l-.067.032a.715.715 0 0 1-.648.053c-.19-.08-.444-.287-.57-.827a14.107 14.107 0 0 1-.23-1.466c-.107.05-.23.12-.345.194-.326.214-2.007.92-2.022.927-.254.106-.894.174-1.227-.144a.62.62 0 0 1-.188-.48l-.555.03-.162.015c-.02 0-.038.003-.06.003l-.025.04c-.343.513-.852 1.283-.254 3.304.044-.034.084-.067.114-.095.356-.353 1.507-.74 2.173-.992.504-.142.524-.033.212.11-.686.316-1.718 1.06-1.96 1.303-.338.332-1.168.743-1.733.918-.605.188-1.1.317-1.445.62-.158.15-.382.344-.547.5-.35.31-.715.632-.83.99l-.01.044c-.144.45-.24.748-.177.857.068.12.15.196.264.176.776-.214.772-.16.567.878-.05.2.12.302.243.355.122.04.5.16.597.04.32-.39.41-.39.6.125.038.072.125.17.125.17.127.15.398.303.59.285.19-.02.43-.474.49-1.098.068-.736.5-.903.786-1.012l.165-.07.34-.164c.674-.324.766-.38 1.205-.66.636-.41 1.358-.93 1.455-1.054l-.007.012a.309.309 0 0 1 .415-.093c.138.088.183.26.1.4a1.128 1.128 0 0 1-.2.21c.07.114.218.26.343.29.172.042.624-.04.765-.24.124-.174.22-.403.306-.608l.173-.375c.203-.357 1.348-.668 1.668-.716.274-.037.346.022.07.147-.207.092-1.083.713-1.222.873l-.135.3c-.09.22-.206.495-.367.723-.306.43-1.023.568-1.4.475-.27-.067-.52-.28-.673-.5-.44.32-.928.633-.963.656-.055.037-.12.074-.197.118.347.29 1.06.568 1.957.756.924.192 1.78.628 2.236.942.505.35.92.913 1.184 1.276.565.78.756 1.265-.332.206a10.56 10.56 0 0 0-.998-.848c.005.052.005.104.005.158 0 .478-.108.972-.31 1.342-.204.37-.55 1.78-.55 2.545 0 .128.01.24.033.324.16.587.9 2.482 2.197 3.468 1.535 1.165 2.663 1.31 2.873 1.328.52.043 1.374.176 1.696.283.392.13.876.765.93 1.422.007.105.013.208.013.304 0 1.042-.495 1.56-.93 1.813-.74.43-1.433 1.328-1.433 1.71 0 .305.058.384.216.507.06.04.354-.062.43-.108l-.01.005a.534.534 0 0 1 .114-.062c.674-.376.717-.457.558.395h-.003c0 .024.003.05 0 .08 0 .077.033.153.116.248.09.103.4.42.742.21l.125-.09c.317-.527.46-1.034.804-.085l.076.08c.055.054.226.116.436.085.11-.014.302-.067.4-.24.225-.408.37-1.863.326-2.29-.018-.192-.097-.583-.17-.96-.12-.606-.194-.99-.194-1.176 0-.014.003-1.63.048-2.004.057-.49-.654-1.017-.996-1.27l-.16-.12c-1.046-.84-1.958-2.226-2.46-2.94-1.615-2.28-.193-1.375.504-.318.09.13.207.307.347.51.208-.586.247-1.222.202-1.81l-.005-.005zm1.58-3.658c0 .136.008.24.012.287a2.49 2.49 0 0 1 1.362-.264c1.078.1 2.242.846 2.242 2.247 0 1.393-1.18 2.95-2.762 2.95-.804 0-1.427-.25-1.845-.618-.038.418-.128.84-.294 1.237l.068.028c.852.35 2.847 1.174 4.593-.9.4-.483.694-1.164.872-1.572l.03-.07c.173-.404.646-1.166.878-1.37.526-.467 1.69-2.323 1.452-2.71-.03-.052-.41-.126-1.087.143-.965.387-.65.48-.95-.674-.085-.324-.432-1.68-.454-1.89l-.004-.04a3.107 3.107 0 0 0-.03-.2c-.02.01-.035.013-.062.03l-.246.1c-.932.403-.816.298-1.135-.528-.086-.23-.235-.687-.34-1.022l-.062-.216s-.03-.116-.04-.162l-.02.018c-.51.566-.686.946-.792 1.312-.06.2-.085.342-.148.56-.067.21-.214.694-.214.94 0 .057.01.103.03.126.007.01.015.018.023.027.03.024.055.034.09.06.61.436.643.443-.26.676-.08.02-.22.075-.298.107-.532.212-.612.96-.612 1.39l.003-.002zm9.366-11.848c-.08-.05-.377-.04-.505-.037-.134.006-.25.01-.35-.01-.152-.03-.39-.124-.684-.243-.373-.15-.84-.336-1.093-.37-.168-.02-.482.062-.786.142-.467.12-.996.257-1.482.2-.42-.05-.93-.258-1.38-.44-1.272-.42-2.123-.05-2.597.126-.86.37-1.502.95-1.91 1.735-.827 1.583-.512 3.777.223 5.126.257.465 1.082 1.85 1.686 2.76.046-.21.113-.428.176-.638.06-.188.113-.365.13-.48a2.11 2.11 0 0 1 .22-.638c-2.056-1.776-1.807-3.56-1.688-4.428l.003-.024c.21-1.26.76-2.113 1.64-2.536 1.257-.602 2.745-.074 2.965.047l.12.06c.253.123.6.293.63.634v.04c0 .19-.116.37-.337.536-.31.345-.447.707-.447 1.078 0 .97.91 2.02 1.882 3.028l.213.22c.213.223.346.336.43.396a.418.418 0 0 0 .012-.064l.088-.335c.14-.333.415-1.483.505-2.2.02-.158.04-.306.065-.442.157-1.036-.254-1.136.857-.717.03.008.054.018.086.03l.04.018c.2.085.472.204.86.068.23-.08.33-.183.35-.253.002-.01.004-.02.004-.03 0-.06-.044-.123-.08-.17a1.26 1.26 0 0 1-.282-.827c0-.295.083-.613.247-.917l.005-.01.005-.007c.164-.267.182-.39.182-.427v-.002l-.003.001zm-18.204-11.042c-.254.063-.395.11-.585.187-.187.077-.535.06-.723-.064-.19-.124-.52-.42-.52-.577 0-.156.188-.265.267-.265.238-.08.98-.066 1.325.233.126.11.314.203.376.25.066.047.112.17-.138.234l-.002.002zM90.342 53.08h-.007c-5.736-.004-10.4-5.558-10.4-12.382 0-6.827 4.664-12.38 10.4-12.384h.006c5.735.005 10.4 5.557 10.4 12.384 0 6.824-4.665 12.378-10.4 12.382h.001zm-.005-24.17c-5.405.002-9.8 5.29-9.8 11.788s4.395 11.784 9.8 11.785c5.405 0 9.8-5.287 9.8-11.785s-4.395-11.786-9.8-11.788zm3.58 12.688l-.013.025c-.16.514-.6 2.532-.893 3.868-.138.624-.236 1.075-.26 1.155l-.03.13c-.02.087-.03.13-.07.13-.047.002-.06-.033-.13-.257-.07-.218-.456-1.7-.766-2.895a108.93 108.93 0 0 0-.434-1.65.789.789 0 0 0-.064-.163c-.01.015-.026.05-.026.05l-.237.74c-.455 1.467-1.023 3.293-2.425 4.232-.34.252-.395.245-.43.212-.048-.044.003-.132.12-.305 1.943-3.873 2.81-10.558 2.232-13.512-.03-.16-.028-.216.015-.232.05-.02.093.044.185.2l.042.067c.918 1.337 2.236 5.764 2.247 5.806.02.075.032.097.04.107.017-.02.038-.082.05-.11.468-1.667 1.867-5.23 2.407-5.988.186-.263.248-.3.298-.28.057.023.04.11.012.25l-.016.085c-.213 1.51-.423 8.55 1.314 13.928.07.21.058.265.02.288-.054.033-.126-.037-.203-.113 0 0-.017-.02-.012-.016-1.914-1.262-2.89-5.26-2.92-5.573-.013-.143-.045-.173-.052-.18l-.001.001zm-7.696.084l-.063.02c-.265.103-.29.333-.308.537l-.007.057c-.416 3.61-1.842 4.77-2.27 5.04-.12.075-.2.09-.252.048-.03-.026-.038-.064-.038-.104 0-.07.03-.147.04-.18.514-1.486.695-6.013.695-9.27 0-1.406-.034-2.576-.09-3.16a4.731 4.731 0 0 1-.018-.338c0-.452.14-.528.43-.637l.027-.01c.28-.09.57-.186.7-.446.253-.754.99-1.034 1.393-1.034.583 0 2.774.783 2.774 4.618 0 2.458-1.072 4.183-3.013 4.858v.001zm.568-8.677c-.168-.175-.352-.273-.52-.273h-.004c-.45.033-.486.53-.486.99 0 .563-.06 5.312-.114 6.417-.028.535.033.82.197.923.177.113.45-.01.735-.16.602-.312.722-.84.926-4.04.166-2.608-.456-3.567-.732-3.858l-.002.001zm3.473-16.39a1.094 1.094 0 0 1-1.096-1.087c0-.598.494-1.087 1.097-1.087.606 0 1.098.49 1.098 1.088 0 .6-.492 1.087-1.097 1.087l-.002-.001zm0-1.58a.495.495 0 0 0-.497.493c0 .273.224.494.498.494.275 0 .498-.22.498-.494a.496.496 0 0 0-.497-.494l-.002.001zm-21.244 5.513c.3-.034.725-.058.887-.058.162 0 .416 0 .288.41-.126.412-.183.594-.61.423-.428-.17-.61-.353-.75-.41-.137-.058-.437-.298.185-.366v.001zm4.428 39.712c.182.085.313.258.39.525.087.29.075.517-.032.677-.108.164-.297.28-.563.36l-.51.148.26.88-.52.15-.725-2.454 1.06-.305c.242-.073.456-.066.64.02v-.001zm-.842 1.283l.457-.132c.116-.034.2-.09.244-.166.046-.078.052-.18.013-.307-.037-.127-.095-.21-.176-.245a.423.423 0 0 0-.293-.002l-.456.132.213.72h-.002zm1.285 4.52l-.52.152-.73-2.45.517-.153.733 2.45v.001zm2.33-1.432l-.44-1.717.487-.122.635 2.478-.523.13-1.45-1.497.45 1.748-.486.12-.634-2.474.547-.138 1.414 1.47v.002zm-.367-3.727l.26 1.107-.526.122L75 59.645l.527-.12.223.945.963-.22-.22-.95.525-.122.586 2.49-.525.12-.26-1.107-.964.223h-.003zm3.504 1.704l-.757.15.42 2.07-.53.105-.42-2.07-.756.15-.088-.435 2.044-.405.088.435h-.001zm-.88-3.715l.532-.097.473 2.51-.533.1-.472-2.513zm3.698 3.287l-1.322.2.08.53 1.213-.183.064.44-1.213.18.1.65 1.388-.206.07.453-1.91.285-.385-2.526 1.846-.277.07.452-.001.002zm-1.682-3.637l.534-.077.3 2.077 1.272-.182.067.453-1.81.257-.363-2.528zm4.395 2.95c.097.03.183.083.255.153a.722.722 0 0 1 .226.465.76.76 0 0 1-.057.366.524.524 0 0 1-.282.277.479.479 0 0 1 .273.177c.058.082.095.212.114.39l.015.17c.012.115.024.195.038.234.02.064.06.11.112.136l.006.064-.59.056a2.67 2.67 0 0 1-.048-.13 1.503 1.503 0 0 1-.044-.218l-.026-.235c-.02-.162-.057-.266-.117-.316-.06-.047-.163-.065-.314-.05l-.52.05.097.996-.525.05-.253-2.54 1.228-.12c.175-.015.312-.007.412.025zm-1.07.483l.067.684.578-.057a.542.542 0 0 0 .252-.067c.096-.057.138-.157.123-.3-.014-.154-.074-.253-.177-.295a.536.536 0 0 0-.252-.023l-.59.058h-.001zm3.587-3.926c.16.123.247.323.263.598.017.302-.045.52-.186.653-.144.134-.355.208-.632.225l-.53.03.053.913-.54.033-.15-2.55 1.102-.063c.255-.016.46.04.62.162v-.001zm-1.155.312l.044.75.475-.027c.122-.005.214-.04.276-.108.064-.065.092-.164.084-.296-.008-.132-.047-.225-.117-.28a.432.432 0 0 0-.286-.067l-.473.027-.003.001zm1.848 4.64l-.082-1.77.502-.02.117 2.552-.537.024-1.114-1.755.084 1.8-.5.024-.12-2.554.563-.025 1.088 1.725-.001-.001zM91.02 61.2l.897 2.56-.583-.004-.167-.524-.95-.006-.176.522-.57-.003.936-2.55.615.004-.002.001zm.006 1.587l-.318-1.007-.343 1.003.66.004h.001zm1.393-1.564l2.08.104-.022.445-.77-.04-.11 2.108-.54-.027.11-2.11-.772-.038.023-.442h.001zm2.86-3.024c.212-.18.502-.254.868-.222.365.034.637.158.81.374.24.256.336.616.292 1.08-.04.458-.203.795-.485 1.014-.21.18-.5.254-.866.22-.367-.033-.64-.158-.814-.372-.235-.266-.335-.63-.293-1.083.043-.465.205-.802.488-1.01v-.001zm.18 1.735c.11.165.272.255.484.275.21.02.384-.043.52-.184.14-.144.22-.356.247-.642.027-.28-.014-.507-.123-.672a.619.619 0 0 0-.48-.28.629.629 0 0 0-.525.188c-.14.143-.223.355-.248.64-.026.283.015.51.126.675h-.001zm.465 1.51l-.223 2.547-.54-.046.224-2.546.54.046-.001-.001zm1.398.36c.218-.174.508-.237.874-.19.363.047.63.18.8.402.226.265.31.63.25 1.093-.058.453-.233.785-.524.995-.216.17-.51.234-.872.188-.365-.046-.63-.18-.798-.402-.228-.272-.312-.637-.254-1.092.06-.463.237-.793.525-.993l-.001-.001zm.114 1.74c.107.17.263.268.473.293a.61.61 0 0 0 .53-.164c.142-.14.232-.35.27-.632.036-.282.002-.508-.1-.678a.616.616 0 0 0-.47-.295.621.621 0 0 0-.532.166c-.145.14-.236.347-.273.63-.035.284 0 .51.102.68zm1.505-2.592l-.52-.08.384-2.525 1.22.183c.173.03.304.074.393.126a.645.645 0 0 1 .208.214c.046.073.076.15.097.23.018.084.02.175.007.274a.817.817 0 0 1-.146.34.525.525 0 0 1-.34.202c.11.065.182.142.22.237.033.093.038.23.012.405l-.026.17a1.04 1.04 0 0 0-.022.236c.002.068.028.12.074.158l-.01.063-.586-.087-.013-.14c-.003-.073 0-.145.01-.22l.032-.236c.024-.16.013-.272-.034-.335-.046-.06-.142-.103-.29-.124l-.52-.078-.15.988v-.001zm.79-1.323c.11.017.197.017.26-.002.107-.034.172-.12.192-.262.024-.153-.008-.263-.096-.33a.487.487 0 0 0-.24-.08l-.588-.09-.102.678.573.086h.001zm1.288 2.49l.668 1.923.325-1.74.493.09-.47 2.51-.526-.096-.687-1.957-.33 1.772-.492-.09.47-2.514.55.103-.001-.001zm.82-.69l.532-2.5 1.206.253c.17.038.3.087.384.146a.616.616 0 0 1 .2.224.933.933 0 0 1 .083.236.794.794 0 0 1-.01.273.782.782 0 0 1-.168.332.526.526 0 0 1-.35.182c.106.07.173.153.203.25.032.094.027.23-.008.405l-.038.166a1.376 1.376 0 0 0-.035.236c0 .066.022.12.064.16l-.014.065-.577-.123a.902.902 0 0 1-.005-.14c0-.072.006-.146.024-.22l.045-.232c.03-.16.027-.273-.016-.336-.04-.067-.136-.113-.282-.144l-.515-.107-.208.977-.515-.108v.005zm1.38-1.168a.61.61 0 0 0 .26.012c.108-.028.18-.11.21-.25.03-.15.003-.263-.08-.336a.545.545 0 0 0-.233-.094l-.582-.123-.144.674.57.118-.001-.001zm1.75 2.685l.284 2.695-.568-.135-.043-.547-.923-.22-.292.468-.554-.13 1.498-2.273.598.142zm-.36 1.55l-.08-1.054-.56.9.64.153v.001zm1.203-4.798l.522.133-.645 2.475-.522-.133.645-2.476v.001zm1.5 3.868l-.597 2.013 1.233.36-.13.44-1.753-.513.726-2.45.52.15h.001zm-.078-1.01c-.14-.202-.17-.428-.092-.684l.5.15a.515.515 0 0 0 .013.278c.055.127.18.22.386.28.12.038.224.055.307.05.16-.008.26-.08.303-.217a.216.216 0 0 0-.05-.22 1.17 1.17 0 0 0-.3-.214l-.246-.138c-.238-.136-.398-.252-.476-.35-.135-.163-.165-.365-.09-.605a.739.739 0 0 1 .41-.473c.207-.096.466-.096.78-.002.26.08.465.215.607.407.143.193.178.42.11.683l-.5-.15c.037-.15.004-.275-.1-.374a.714.714 0 0 0-.285-.154.588.588 0 0 0-.344-.017.26.26 0 0 0-.188.185.221.221 0 0 0 .056.232c.043.044.14.11.295.2l.397.23c.174.1.298.202.367.304.113.162.135.35.07.57a.748.748 0 0 1-.433.477c-.218.097-.484.097-.8 0-.322-.096-.554-.247-.695-.448h-.002zM92.903 60.4l.052-1.73c0-.048.004-.118.007-.207.005-.09.01-.157.01-.208l-.55 2.13-.523-.016-.42-2.156c-.002.05-.003.116-.004.206 0 .09-.002.16-.005.21l-.05 1.727-.5-.016.075-2.553.78.023.408 2.02.525-1.992.772.022-.075 2.554-.502-.013V60.4zm-9.283-2.26l.537-.054.26 2.543-.537.053-.26-2.542z" fill-rule="nonzero"/></svg>