<svg width="180" height="80" viewBox="0 0 180 80" preserveAspectRatio="xMidYMid meet" xmlns="http://www.w3.org/2000/svg"><g fill-rule="nonzero"><path d="M26 23.58h33.593v33.416H26V23.58zm2.65 26.088l9.875-9.682-1.942-1.932v-3.845l-.992-.744v2.939l-1.598 1.328-4.472-4.791-1.457 1.207c.142-4.87 4.25-9.863 8.257-6.582l5.322 5.112-1.255 1.128 2.388 2.335 2.47-2.395-.993-1.188 4.858-4.79c4.168-4.026 9.208 3.24 8.337 6.441l-1.477-1.127-4.594 4.57-1.538-1.249v-3.059l-1.194 1.006v3.905l-1.902 1.832 9.896 9.842-4.189 4.127-9.997-9.964-9.673 9.763-4.13-4.187zm-1.678-25.121v31.482h31.65V24.547h-31.65zM118.28 28.713h3.704v9.119h-3.703v-9.119zm-53.668 9.12V24.709h5.222c4.554.06 6.173 5.777 1.842 7.87l3.743 5.254h-4.21l-3.035-4.268v4.268h-3.562zm3.562-10.247v2.9h1.254c1.72-.323 1.255-2.779 0-2.9h-1.254zm12.162.785a4.6 4.6 0 0 1 2.63.845v-.503h3.481l.02 9.119h-3.52l.02-.564a4.583 4.583 0 0 1-2.631.826c-2.59 0-4.715-2.174-4.715-4.851 0-2.678 2.125-4.872 4.715-4.872zm.75 2.899c-1.154 0-2.106.885-2.106 1.973 0 1.086.952 1.972 2.105 1.972 1.173 0 2.124-.886 2.124-1.972 0-1.088-.95-1.973-2.124-1.973zm7.224-2.557h3.703v9.119H88.31v-9.119zm1.86-5.213c1.074 0 1.944.885 1.944 1.952s-.87 1.953-1.943 1.953a1.96 1.96 0 0 1-1.963-1.953 1.96 1.96 0 0 1 1.963-1.952zm29.952 0a1.96 1.96 0 0 1 1.963 1.952 1.96 1.96 0 0 1-1.963 1.953 1.955 1.955 0 0 1-1.942-1.953c0-1.066.87-1.952 1.942-1.952zm-27.42 5.213v2.9h1.274v6.219h3.583v-6.22h3.359v6.22h3.703v-6.26h2.307v-2.818h-2.409v-2.033c-.06-.744 1.7-1.047 2.308-.443v-2.98c-3.4-1.066-6.152.846-6.132 3.805v1.61h-3.158v-1.992c-.04-.744 1.499-1.047 2.388-.443v-2.98c-2.955-.864-6.111.564-6.09 3.785v1.61l-1.134.02zm19.507 9.38c3.178-.02 4.351-1.327 5.04-3.24h-3.218c-1.457 1.852-3.582.503-3.48-1.006h6.8c0-3.704-1.984-5.455-5.14-5.455-3.157 0-5.14 2.214-5.14 4.911 0 2.698 2.306 4.811 5.138 4.79zm-1.194-6.4c.041-1.107 2.47-1.107 2.63 0h-2.63zm26.41 6.4c3.197-.02 4.371-1.327 5.059-3.24h-3.238c-1.457 1.852-3.582.503-3.48-1.006h6.8c0-3.704-1.963-5.455-5.14-5.455-3.158 0-5.14 2.214-5.14 4.911 0 2.698 2.305 4.811 5.139 4.79zm-1.194-6.4c.04-1.107 2.469-1.107 2.63 0h-2.63zm-4.918-2.798l-1.093 2.214c-1.376-.423-2.712-.342-2.67.04.04.242-.183.664 1.962.967 3.197.502 2.935 6.42-2.428 5.978-1.477-.1-2.672-.483-3.663-1.067l1.194-2.376c1.68.826 3.298 1.309 3.42.483.142-1.026-1.76-.664-2.914-1.53-2.064-1.268-.891-5.193 2.49-5.233 1.193-.08 2.428.121 3.702.524zm12.669-.182v9.119h3.46v-5.576c.102-1.389 2.854-1.63 2.874 0v5.576h3.5v-5.716c-.08-3.2-3.46-4.751-6.516-2.718v-.685h-3.318zM64.349 56.935l2.307-13.527 5.748-.06c2.893.04 4.27 3.764 1.578 6.24 3.157 1.872 1.336 7.347-3.096 7.347h-6.537zm4.492-3.22h1.518c1.72.08 1.518-2.235.527-2.235h-1.58l-.465 2.234zm.85-5.274l.466.02c1.396.08 2.206-1.832.526-1.832h-.607l-.384 1.812zm5.768 8.514l7.062-13.467h3.744l3.177 13.508H85.78l-.668-2.417H80.62l-1.195 2.376H75.46zm8.925-5.213l-.79-3.564-1.68 3.564h2.47zm6.313 5.254h3.664l.93-8.475 5.241 8.434h3.926l1.64-13.548h-3.663l-1.032 8.475-5.242-8.515h-3.784l-1.68 13.629zm18.032-13.629l-2.57 13.588h3.865l1.032-5.073 3.46 5.073h5.08l-4.958-7.126 6.334-6.482h-4.917l-4.331 4.79.688-4.79-3.683.02z"/></g></svg>