<svg xmlns="http://www.w3.org/2000/svg" width="180" height="80" viewBox="0 0 180 80" fill="#fff">
  <path d="M40.092 33.54a4.708 4.708 0 0 1-.34 1.78 3.998 3.998 0 0 1-.94 1.38c-.418.39-.907.696-1.44.9a4.999 4.999 0 0 1-1.86.32h-1.82v5.5h-2.26V29.07h4.06a4.39 4.39 0 0 1 4.6 4.47zm-6.4 2h2.1a2 2 0 0 0 1.42-.54 1.9 1.9 0 0 0 .58-1.44 2 2 0 0 0-.54-1.42 1.878 1.878 0 0 0-1.42-.58h-2.14v4-.02zM55.301 37.04h4.88v-3.81h2.18v10.19h-2.18v-4.06h-4.88v4.06h-2.18V33.28h2.18v3.76zM70.211 41.52a4.07 4.07 0 0 0 3.14-1.34l.64 1.7a5 5 0 0 1-3.82 1.86 5.73 5.73 0 0 1-2.12-.36 4.791 4.791 0 0 1-1.7-1.06 4.69 4.69 0 0 1-1.12-1.68 6 6 0 0 1-.4-2.22c.001-.683.123-1.36.36-2a5.43 5.43 0 0 1 1-1.7 4.69 4.69 0 0 1 1.6-1.18 5 5 0 0 1 2.1-.42 4.638 4.638 0 0 1 3.54 1.56 5 5 0 0 1 1 1.68 6.18 6.18 0 0 1 .34 2c.003.268-.017.535-.06.8h-7.66a3 3 0 0 0 3.16 2.36zm-.4-6.16a2.64 2.64 0 0 0-2.75 2h5.52a2.68 2.68 0 0 0-2.75-2h-.02zM46.221 41.52a4.07 4.07 0 0 0 3.14-1.34l.64 1.7a5 5 0 0 1-3.82 1.86 5.72 5.72 0 0 1-2.12-.36 4.78 4.78 0 0 1-1.7-1.06 4.658 4.658 0 0 1-1.12-1.68 6 6 0 0 1-.4-2.22c0-.683.123-1.36.36-2 .227-.623.566-1.2 1-1.7a4.7 4.7 0 0 1 1.6-1.18 5 5 0 0 1 2.1-.42 4.638 4.638 0 0 1 3.54 1.56 5 5 0 0 1 1 1.68c.222.644.337 1.32.34 2 .003.268-.017.535-.06.8h-7.66a3 3 0 0 0 3.16 2.36zm-.4-6.16a2.65 2.65 0 0 0-2.75 2h5.51a2.68 2.68 0 0 0-2.75-2h-.01zM92.581 43.72a5.22 5.22 0 0 1-5.23-5.34 5.17 5.17 0 0 1 5.23-5.32 4.629 4.629 0 0 1 3.72 1.72l-.59 1.8a4.7 4.7 0 0 0-2.8-1.2 3.09 3.09 0 0 0-3.38 3 2.79 2.79 0 0 0 .94 2.18 3.54 3.54 0 0 0 2.46.84 4.49 4.49 0 0 0 2.95-1.17l.64 1.8a5.299 5.299 0 0 1-3.94 1.69zM81.711 43.72a5.221 5.221 0 0 1-5.24-5.34 5.17 5.17 0 0 1 5.26-5.32 4.629 4.629 0 0 1 3.72 1.72l-.6 1.8a4.69 4.69 0 0 0-2.8-1.2 3.09 3.09 0 0 0-3.38 3 2.789 2.789 0 0 0 .91 2.16 3.54 3.54 0 0 0 2.46.84 4.49 4.49 0 0 0 2.95-1.15l.64 1.8a5.299 5.299 0 0 1-3.92 1.69zM128.261 43.72a5.225 5.225 0 0 1-4.876-3.3 5.227 5.227 0 0 1-.364-2.04 5.166 5.166 0 0 1 3.219-4.94 5.165 5.165 0 0 1 2.041-.38 4.629 4.629 0 0 1 3.72 1.72l-.59 1.8a4.698 4.698 0 0 0-2.8-1.2 3.086 3.086 0 0 0-3.093 1.775 3.092 3.092 0 0 0-.287 1.225 2.787 2.787 0 0 0 .94 2.18 3.54 3.54 0 0 0 2.46.84 4.49 4.49 0 0 0 2.95-1.17l.64 1.8a5.297 5.297 0 0 1-3.96 1.69zM106.341 43.42v-1.06a4.168 4.168 0 0 1-3.06 1.34 5.14 5.14 0 0 1-5.2-5.32 5 5 0 0 1 5-5.36 4.64 4.64 0 0 1 3.18 1.29v-1h2.12v10.11h-2.04zm-6.1-5a3 3 0 0 0 3.2 3 3.539 3.539 0 0 0 2.82-1.21v-3.66a3.686 3.686 0 0 0-2.82-1.19 2.999 2.999 0 0 0-3.2 3v.06zM113.801 37.04h4.88v-3.81h2.18v10.19h-2.18v-4.06h-4.88v4.06h-2.22V33.28h2.18v3.76h.04zM34.171 55.74c-.42 0-.838-.077-1.23-.23a3.002 3.002 0 0 1-1-.65 3.22 3.22 0 0 1 0-4.55 3 3 0 0 1 1-.65 3.38 3.38 0 0 1 1.24-.23 3.445 3.445 0 0 1 1.54.36c.2.096.386.22.55.37.141.124.263.27.36.43l-.25.74a2.166 2.166 0 0 0-.38-.4 2.714 2.714 0 0 0-.51-.34 2.614 2.614 0 0 0-.59-.23 2.687 2.687 0 0 0-.66-.13c-.34-.004-.678.05-1 .16a2.16 2.16 0 0 0-.78.46 2.12 2.12 0 0 0-.49.72 2.45 2.45 0 0 0-.17 1c-.008.342.054.682.18 1 .119.252.29.477.5.66.228.2.493.353.78.45.322.11.66.164 1 .16.458.01.911-.094 1.32-.3a2.38 2.38 0 0 0 .87-.72l.24.73a3.37 3.37 0 0 1-2.52 1.19zM42.361 49.52v.84h-2.06v5.26h-.8v-5.26h-2.09v-.84h5-.05zM47.411 51.38c.004.254-.043.505-.14.74a1.832 1.832 0 0 1-.39.58 1.64 1.64 0 0 1-.6.38 2.26 2.26 0 0 1-.78.13h-1.12v2.4h-.8v-6.1h1.92a1.85 1.85 0 0 1 1.91 1.87zm-.83 0a.93.93 0 0 0-.08-.39 1.001 1.001 0 0 0-.2-.31 1.002 1.002 0 0 0-.3-.21.92.92 0 0 0-.42-.08h-1.22v2h1.22a.92.92 0 0 0 1-1v-.01zM49.051 54.23l-.58 1.42h-.89l2.51-6.1h.88l2.51 6.1h-.83l-.57-1.42h-3.03zm2.67-.84l-1.14-2.85-1.16 2.81h2.33l-.03.04zM54.071 55.61l2.17-3.16-2-2.94h1l1.54 2.19 1.55-2.19h1l-2 2.94 2.19 3.16h-1l-1.77-2.38-1.66 2.4h-1l-.02-.02zM63.251 55.73a3.18 3.18 0 0 1-1.24-.24 3.469 3.469 0 0 1-1-.66 2.999 2.999 0 0 1-.71-1 3.26 3.26 0 0 1 0-2.54 3 3 0 0 1 .71-1c.292-.277.631-.5 1-.66a3.35 3.35 0 0 1 3.53.66c.303.28.545.621.71 1 .174.4.262.833.26 1.27a3.25 3.25 0 0 1-3.26 3.17zm2.43-3.15c0-.311-.068-.618-.2-.9a2.29 2.29 0 0 0-1.29-1.22 2.73 2.73 0 0 0-1.94 0 2.29 2.29 0 0 0-1.483 2.125 2.289 2.289 0 0 0 1.484 2.125 2.73 2.73 0 0 0 1.94 0 2.29 2.29 0 0 0 1.29-1.22c.13-.282.2-.59.2-.9v-.01zM71.071 52.36c.246.127.453.316.6.55.17.269.257.582.25.9.003.267-.048.532-.15.78a1.541 1.541 0 0 1-.41.56 1.71 1.71 0 0 1-.61.34c-.242.078-.495.119-.75.12h-2v-6.1h1.78c.254-.003.507.035.75.11a1.7 1.7 0 0 1 .6.32c.165.144.298.32.39.52a1.7 1.7 0 0 1 0 1.4 1.43 1.43 0 0 1-.39.49l-.06.01zm-.94 2.4a1.1 1.1 0 0 0 .38-.06.84.84 0 0 0 .31-.2 1 1 0 0 0 .22-.3.938.938 0 0 0 .09-.39.87.87 0 0 0-.27-.64.93.93 0 0 0-.69-.28h-1.43v1.85h1.39v.02zm-.25-2.7a1 1 0 0 0 .65-.23.76.76 0 0 0 .28-.6.8.8 0 0 0-.23-.63.919.919 0 0 0-.66-.25h-1.18v1.72l1.14-.01zM74.201 54.23l-.62 1.38h-.83l2.51-6.1h.88l2.51 6.1h-.86l-.57-1.38h-3.02zm2.67-.84l-1.16-2.81-1.13 2.77h2.33l-.04.04zM80.651 49.52v2.53h3.63v-2.53h.8v6.1h-.8v-2.73h-3.63v2.73h-.79v-6.1h.79zM91.491 55.61v-4.83l-3.6 4.84h-.89v-6.1h.79v4.85l3.62-4.85h.87v6.1h-.79v-.01zM97.641 49.52v.84h-2.64v1.69h2.37v.84h-2.37v1.88h2.64v.84h-3.44v-6.09h3.44zM137.141 40.63h-2.79v2.79h2.79v-2.79zM142.061 39.36L134.351 25h15.42l-7.71 14.36z"/>
</svg>
