<svg xmlns="http://www.w3.org/2000/svg" width="180" height="80" viewBox="0 0 180 80">
    <path d="M42.857 34.816c-2.068 0-2.832 1.457-2.937 2.062h5.866c-.249-1.031-1.242-2.062-2.93-2.062zm.426 6.404c1.92 0 3.052-1.018 3.35-1.393l.683 1.768c-.15.25-1.687 1.933-4.075 1.933-3.321 0-5.697-2.117-5.697-5.53 0-2.585 1.765-5.552 5.42-5.552 3.181 0 5.163 2.527 5.163 5.468 0 .312-.022.583-.064.832h-8.15c.106.811 1.039 2.474 3.37 2.474zm25.16-6.404c-2.069 0-2.833 1.457-2.938 2.062h5.866c-.249-1.031-1.242-2.062-2.929-2.062zm.426 6.404c1.92 0 3.051-1.018 3.35-1.393l.682 1.768c-.15.25-1.687 1.933-4.075 1.933-3.321 0-5.697-2.117-5.697-5.53 0-2.585 1.765-5.552 5.42-5.552 3.181 0 5.163 2.527 5.163 5.468 0 .312-.021.583-.064.832h-8.15c.106.811 1.039 2.474 3.37 2.474zm61.943 2.287c-2.626 0-5.59-1.943-5.59-5.551 0-3.181 2.442-5.53 5.612-5.53 2.23 0 3.691 1.31 3.968 1.787l-.64 1.872s-1.365-1.248-2.987-1.248c-2.505 0-3.606 1.713-3.606 3.098 0 1.942 1.537 3.14 3.627 3.14 1.518 0 2.82-.891 3.119-1.224l.683 1.872s-1.491 1.784-4.186 1.784zm-38.068 0c-2.626 0-5.59-1.943-5.59-5.551 0-3.181 2.442-5.53 5.612-5.53 2.23 0 3.69 1.31 3.968 1.787l-.64 1.872s-1.365-1.248-2.987-1.248c-2.505 0-3.606 1.713-3.606 3.098 0 1.942 1.537 3.14 3.627 3.14 1.518 0 2.82-.891 3.119-1.224l.682 1.872s-1.49 1.784-4.185 1.784zm-11.608 0c-2.627 0-5.59-1.943-5.59-5.551 0-3.181 2.441-5.53 5.61-5.53 2.232 0 3.692 1.31 3.97 1.787l-.64 1.872s-1.366-1.248-2.988-1.248c-2.505 0-3.606 1.713-3.606 3.098 0 1.942 1.537 3.14 3.628 3.14 1.518 0 2.82-.891 3.118-1.224l.683 1.872s-1.491 1.784-4.185 1.784zm-51.283-8.483h2.285c.598 0 1.11-.187 1.515-.561.406-.374.62-.873.62-1.497 0-.582-.193-1.081-.577-1.476-.384-.396-.896-.603-1.515-.603h-2.328v4.137zm6.873-2.1c0 2.43-1.743 4.554-4.887 4.554h-1.941v5.718h-2.411v-14.93h4.331c2.773 0 4.908 1.903 4.908 4.658zM137.31 43.196h2.98v-2.904h-2.98v2.904zm-21.932-6.633h5.206v-3.91h2.326v10.543h-2.326v-4.221h-5.206v4.22h-2.325V32.655h2.325v3.909zm-14.466 1.351c0 1.379 1.09 3.078 3.414 3.078 2.067 0 3.009-1.253 3.009-1.253v-3.723c-.728-.8-1.798-1.241-3.009-1.241-2.022 0-3.414 1.34-3.414 3.14zm6.508 5.24v-1.102s-1.18 1.393-3.265 1.393c-2.707 0-5.547-1.937-5.547-5.53 0-4.04 2.997-5.573 5.381-5.573 2.106 0 3.393 1.34 3.393 1.34v-1.07h2.257v10.542h-2.219zm-54.468-6.591h5.206v-3.91h2.326v10.543h-2.326v-4.221h-5.206v4.22h-2.326V32.655h2.326v3.909zm8.429 18.53c-1.521 0-2.618-1.067-2.618-2.383s1.1-2.384 2.618-2.384c1.477 0 2.618 1.068 2.618 2.384 0 1.316-1.14 2.384-2.618 2.384zm.02-5.684c-2.002 0-3.454 1.473-3.454 3.29s1.448 3.29 3.453 3.29c1.949 0 3.453-1.473 3.453-3.29s-1.504-3.29-3.453-3.29zm7.067 2.764c.494 0 .987-.307.987-.873 0-.525-.414-.895-.976-.895h-1.217v1.768h1.206zm.264 2.809c.73 0 1.056-.565 1.056-.985 0-.475-.395-.951-1.022-.951H67.25v1.925l1.482.01zm1.01-2.496c.405.2.908.666.908 1.51 0 1.186-.878 1.87-2.056 1.87h-2.182v-6.334h1.895c1.527 0 2.021.982 2.021 1.7 0 .785-.432 1.12-.586 1.254zm-26.12-1.04c0-.573-.469-1.041-1.033-1.041h-1.332v2.092h1.332c.57 0 1.034-.486 1.034-1.052zm-1.17-1.914c1.232 0 2.055.805 2.055 1.902 0 1.11-.804 1.903-2.033 1.903H41.28v2.529h-.85v-6.334h2.021zM30.398 56C28.492 56 27 54.617 27 52.71c0-1.89 1.489-3.29 3.41-3.29 1.132 0 2.193.495 2.607 1.197l-.264.773c-.338-.455-1.17-1.086-2.273-1.086-1.554 0-2.607.902-2.607 2.395 0 1.413.992 2.395 2.63 2.395 1.38 0 2.135-.773 2.342-1.064l.236.711C32.823 55.268 31.96 56 30.4 56zm67.669-6.468v.873h-2.814v1.757h2.526v.873h-2.526v1.958h2.814v.873h-3.664v-6.334h3.664zm-6.56 6.334V50.84l-3.835 5.025h-.953v-6.334h.85v5.036l3.858-5.036h.93v6.334h-.85zm-11.554-6.334v2.63h3.87v-2.63h.85v6.334h-.85v-2.831h-3.87v2.83h-.85v-6.333h.85zm-4.032 3.984l-1.24-2.921-1.24 2.92h2.48zm-2.848.873l-.62 1.477h-.919l2.676-6.334h.942l2.675 6.334h-.918l-.609-1.477h-3.227zm-21.456 1.477l2.308-3.28-2.182-3.054h1.068l1.642 2.272 1.654-2.272h1.057l-2.182 3.055 2.33 3.279H56.27l-1.803-2.496-1.768 2.496h-1.08zm-2.505-2.35l-1.24-2.921-1.24 2.92h2.48zm-2.848.873l-.62 1.477h-.919l2.676-6.334h.942l2.675 6.334h-.918l-.609-1.477h-3.227zm-7.134-4.857v.873h-2.204v5.46h-.85v-5.46h-2.228v-.873h5.282zM145.702 38.933L137.403 24H154l-8.298 14.933"/>
</svg>
