<svg xmlns="http://www.w3.org/2000/svg" width="180" height="80" viewBox="0 0 180 80">
    <path d="M108.99 24.174v1.303h11.441c.758 0 1.904 0 2.665.754.761.744.761 1.866.761 2.617v11.213c0 .744 0 1.87-.76 2.615-.762.749-1.908.749-2.666.749h-5.526c-.953 0-2.192 0-2.668-1.031-.476-1.025.189-1.96.763-2.709l7.431-9.712H108.99l-4.564 5.98c-.761 1-1.426 1.866-1.426 2.986 0 1.122.61 1.932 1.426 2.993l1.148 1.493c1.134 1.493 2.282 2.991 3.804 3.74 1.526.744 3.335.744 5.814.744h4.954c2.854 0 7.146 0 9.998-2.8C133 42.303 133 38.192 133 36.694v-4.486c0-1.496 0-5.607-2.856-8.407C127.292 21 123 21 120.146 21h-7.91c-.757 0-1.715 0-2.473.744-.773.747-.773 1.679-.773 2.43"/>
    <path d="M94.213 31.091h12.12l-14.546 18.5h-12.12zM48 34.397c0-.74 0-1.67.767-2.415.767-.735 1.728-.735 2.5-.735H70.57c2.497 0 4.326 0 5.857.735 1.54.745 2.694 2.234 3.852 3.718l1.146 1.492c.815 1.052 1.442 1.855 1.442 2.969 0 1.115-.668 1.978-1.442 2.976l-4.61 5.947h-11.53l7.495-9.665c.579-.74 1.25-1.67.772-2.696-.485-1.023-1.733-1.023-2.697-1.023H61.83V58h-9.22V35.7H48v-1.303"/>
</svg>
