<svg  width="180" height="80" viewBox="0 0 180 80" preserveAspectRatio="xMidYMid meet" xmlns="http://www.w3.org/2000/svg">
  <g fill="none" fill-rule="evenodd">
    <path fill="#282423" fill-rule="nonzero" d="M148.225 30.775h-9.319V24.87h-2.594v14.35h2.594v-6.068h9.319v6.068h2.593V24.87h-2.593v5.905zM12.972 59.394c0-.328.406-.492 1.216-.492.567 0 1.216.164 1.783.41l.324-.738c-.648-.328-1.378-.492-2.188-.492-1.378 0-2.107.574-2.107 1.312 0 1.886 3.728 1.066 3.728 2.132 0 .41-.486.656-1.378.656-.73 0-1.378-.164-2.107-.574l-.243.738c.81.41 1.54.574 2.431.574 1.54 0 2.27-.656 2.27-1.476 0-1.886-3.729-1.148-3.729-2.05zM20.104 58c-1.459 0-2.674.984-2.674 2.46s1.215 2.46 2.674 2.46c1.459 0 2.674-.984 2.674-2.46 0-1.394-1.215-2.46-2.674-2.46zm0 4.182c-1.135 0-1.783-.738-1.783-1.722 0-.902.73-1.64 1.783-1.64 1.135 0 1.783.738 1.783 1.64 0 .984-.73 1.722-1.783 1.722zm6.238 0c-1.134 0-1.864-.738-1.864-1.64 0-.984.73-1.64 1.864-1.64.73 0 1.216.246 1.702.574l.486-.656c-.567-.41-1.215-.738-2.188-.738-1.54 0-2.674.984-2.674 2.46s1.135 2.46 2.674 2.46c.892 0 1.621-.246 2.188-.656l-.486-.656c-.486.246-1.053.492-1.702.492zm3.971-4.018h-.891v4.674h.891v-4.674zm2.027 2.706h2.594v-.82H32.34v-1.148h3.322v-.738H31.45v4.674h4.376V62.1h-3.484v-1.23h-.002zm3.89-1.968h1.864v3.936h.892v-3.936h1.864v-.738h-4.62v.738zm6.161 1.968h2.594v-.82H42.39v-1.148h3.323v-.738H41.5v4.674h4.376V62.1h-3.485v-1.23zm10.209.984c-.414.16-.853.244-1.297.246-1.134 0-1.864-.656-1.864-1.64 0-.902.73-1.64 1.864-1.64.73 0 1.216.246 1.702.574l.486-.656c-.567-.41-1.296-.656-2.188-.656-1.54 0-2.674.984-2.674 2.46s1.135 2.46 2.674 2.46c.81 0 1.621-.246 2.188-.656v-1.804h-.81v1.312H52.6zm2.838-.984h2.593v-.82h-2.593v-1.148h3.323v-.738h-4.214v4.674h4.376V62.1h-3.485v-1.23zm8.264-1.476c0 .656 0 1.394.081 2.296l-2.998-3.526h-.972v4.674h.81v-3.526l2.998 3.526h.892v-4.674h-.81v1.23h-.001zm2.92 1.476h2.593v-.82h-2.593v-1.148h3.322v-.738H65.73v4.674h4.377V62.1h-3.485v-1.23zm8.993-1.23c0-.902-.648-1.476-1.62-1.476h-2.999v4.674h.892v-1.722h1.377l1.297 1.722h1.053l-1.377-1.722c.729-.164 1.377-.656 1.377-1.476zm-3.727.738v-1.394h2.107c.486 0 .729.246.729.738 0 .41-.324.656-.81.656h-2.026zm6.322-2.214l-2.269 4.674h.892l.567-1.148h2.512l.568 1.148h.891l-2.27-4.674h-.891zm-.486 2.788l.892-1.886.891 1.886h-1.783zm5.105-2.788h-.891v4.674h3.97V62.1h-3.08v-3.936h.001zm4.617 2.706h2.593v-.82h-2.593v-1.148h3.323v-.738h-4.214v4.674h4.376V62.1h-3.485v-1.23zm10.294.984c-.324.164-.81.246-1.296.246-1.135 0-1.783-.656-1.783-1.64 0-.902.73-1.64 1.783-1.64.73 0 1.215.246 1.62.574l.487-.656c-.567-.41-1.216-.656-2.107-.656-1.54 0-2.675.984-2.675 2.46s1.135 2.46 2.675 2.46c.81 0 1.62-.246 2.188-.656v-1.804h-.81v1.312h-.082zm6.482-2.132c0-.902-.648-1.476-1.621-1.476h-2.917v4.592h.81v-1.722h1.378l1.296 1.722h1.054l-1.378-1.722c.81-.082 1.378-.574 1.378-1.394zm-3.647.656v-1.394h2.107c.486 0 .73.246.73.738 0 .41-.325.656-.811.656h-2.026zm7.052-2.296c-1.458 0-2.674.984-2.674 2.46s1.216 2.46 2.674 2.46c1.46 0 2.675-.984 2.675-2.46s-1.216-2.46-2.675-2.46zm0 4.1c-1.134 0-1.782-.738-1.782-1.64 0-.902.729-1.64 1.782-1.64 1.054 0 1.783.738 1.783 1.64 0 .902-.648 1.64-1.783 1.64zM115 60.87c0 .738-.486 1.312-1.458 1.312-.973 0-1.459-.574-1.459-1.312v-2.624h-.892v2.706c0 1.148.892 2.05 2.269 2.05 1.459 0 2.27-.82 2.27-2.05v-2.706h-.811v2.624H115zm4.864-2.624h-2.837v4.592h.811V61.28h2.026c.972 0 1.62-.574 1.62-1.476.082-.902-.567-1.558-1.62-1.558zm.081 2.296h-2.026v-1.558h2.026c.486 0 .729.41.729.82a.73.73 0 0 1-.729.738zm-69.938-35.67V39.22h2.594v-4.838h6.159c3.079 0 5.024-1.722 5.024-4.673 0-2.87-1.945-4.92-5.024-4.92h-8.753v.083zm11.184 4.92c0 1.311-.892 2.213-2.188 2.213h-6.321V27.25h6.159c1.458 0 2.35 1.148 2.35 2.541v.001zm12.399-5.33c-4.539 0-8.266 3.116-8.266 7.625 0 4.51 3.727 7.626 8.266 7.626 4.538 0 8.266-3.034 8.266-7.626-.081-4.51-3.728-7.625-8.266-7.625zm0 12.791c-3.404 0-5.51-2.214-5.51-5.166 0-2.87 2.268-5.165 5.51-5.165 3.403 0 5.51 2.295 5.51 5.165s-2.188 5.166-5.51 5.166zm19.207-.083c-3.484 0-5.673-2.132-5.673-5.083 0-2.87 2.189-5.084 5.592-5.084 2.188 0 3.809.738 5.106 1.804l1.377-2.132c-1.783-1.312-3.809-2.132-6.645-2.132-4.7 0-8.347 3.116-8.347 7.626 0 4.591 3.566 7.625 8.347 7.625 2.836 0 4.943-.738 6.726-2.132l-1.377-2.131c-1.216.902-2.918 1.64-5.106 1.64v-.001zm31.766-12.298l-6.888 14.35h2.836l1.621-3.445h7.699l1.62 3.444h2.837l-6.97-14.35h-2.755v.001zm-1.297 8.527l2.756-5.821 2.674 5.821h-5.43zm44.492-8.528h-3.241l-7.132 6.724V24.87h-2.674v14.35h2.674v-6.97l7.132 6.97h3.484l-7.617-7.38 7.374-6.97v.001zm-56.566 5.33h-6.16v-3.034h10.131v-2.212h-12.805v14.349h8.834c3.079 0 5.267-1.722 5.267-4.51 0-2.952-2.188-4.592-5.267-4.592v-.001zm.162 6.724h-6.321V32.58h6.32c1.622 0 2.594.902 2.594 2.132 0 1.476-.729 2.214-2.593 2.214v-.001zM14 44h25V19H14v25zm-2-27h29v29H12V17z"/>
    <path stroke="#282423" d="M14 31.5h25"/>
    <path stroke="#282423" stroke-width="3" d="M17 31.5h19"/>
  </g>
</svg>
