<svg xmlns="http://www.w3.org/2000/svg" width="180" height="80" viewBox="0 0 180 80">
  <g fill-rule="evenodd">
    <path fill-rule="nonzero" d="M65.791 28.926c2.234-.19 4.177 1.423 4.274 3.605v.474c0 2.467-1.651 3.89-4.274 3.89h-5.244v3.984h-2.234V28.926h7.478zm.097 5.882c.972.095 1.846-.664 1.943-1.613v-.285a1.926 1.926 0 0 0-1.748-2.087H60.45v3.985h5.438zM78.417 41.07c-3.885 0-7.09-2.562-7.09-6.262 0-3.7 3.205-6.262 7.09-6.262s7.09 2.562 7.09 6.262c0 3.7-3.205 6.261-7.09 6.261m0-10.53c-2.428-.19-4.564 1.612-4.759 3.984v.285c0 2.466 1.846 4.269 4.76 4.269 2.913 0 4.758-1.803 4.758-4.27 0-2.466-1.845-4.269-4.759-4.269"/>
    <path d="M94.83 41.07c-4.078 0-7.089-2.562-7.089-6.262 0-3.7 3.108-6.262 7.09-6.262 2.04-.095 3.982.57 5.633 1.803l-1.165 1.707c-1.263-.948-2.817-1.518-4.37-1.518-3.012 0-4.857 1.803-4.857 4.175s1.845 4.27 4.856 4.27c1.651 0 3.205-.475 4.468-1.424l1.165 1.708a9.968 9.968 0 0 1-5.73 1.802"/>
    <path fill-rule="nonzero" d="M119.986 37.844l-1.36 2.846h-2.428l5.924-11.86h2.331l5.925 11.86h-2.428l-1.36-2.846h-6.604zm.97-1.898h4.663l-2.331-4.838-2.331 4.838z"/>
    <path d="M142.227 40.785v-5.123h-7.964v5.123h-2.234V28.926h2.234v4.838h7.964v-4.838h2.233v11.859zM147.86 40.785V28.926h2.234v5.502l6.118-5.502h2.72l-6.216 5.692 6.507 6.167h-3.011l-6.118-5.788v5.788z"/>
    <path fill-rule="nonzero" d="M110.565 33.195h-5.245v-2.467h8.644v-1.897h-10.975V40.69h7.479c2.622 0 4.467-1.423 4.467-3.795s-1.65-3.7-4.37-3.7m.194 5.502h-5.439v-3.51h5.439c1.36 0 2.234.76 2.234 1.803s-.68 1.802-2.234 1.707"/>
    <path d="M100.658 55.87v.094a2.54 2.54 0 0 1-.582 1.613c-.389.38-.972.664-1.554.664-1.263 0-2.234-1.044-2.234-2.182 0-.57.291-1.138.68-1.613.388-.38.97-.57 1.554-.57.777 0 1.456.38 1.845.95l-.583.38c-.291-.38-.777-.57-1.262-.57-.389 0-.777.095-1.069.38-.291.284-.485.663-.388 1.043 0 .38.097.759.388 1.044.292.284.68.38 1.069.38.582 0 1.165-.38 1.36-.95h-1.555v-.759l2.331.095z"/>
    <path fill-rule="nonzero" d="M105.612 58.146h-.777l-.875-1.518h-1.65v1.518h-.68v-4.08h2.719c.291 0 .68.096.874.38.194.285.291.57.291.949a1.074 1.074 0 0 1-.874 1.233l.972 1.518zm-1.36-2.182c.291 0 .583-.19.583-.38v-.19c0-.379-.195-.568-.583-.568h-1.943v1.138h1.943zM110.759 56.059c0 1.233-.971 2.182-2.234 2.182-1.262 0-2.234-.949-2.234-2.182 0-.57.292-1.138.68-1.613.389-.38.971-.57 1.554-.57.583 0 1.069.19 1.457.57.486.475.777 1.044.777 1.613m-.777 0c0-.38-.097-.759-.388-1.044-.292-.284-.68-.38-1.069-.38-.388 0-.777.096-1.068.38-.292.285-.486.664-.389 1.044 0 .38.097.759.389 1.044.68.569 1.554.569 2.234 0 .194-.285.388-.665.291-1.044"/>
    <path d="M115.518 56.818c0 .38-.194.759-.486 1.044-.874.569-1.942.569-2.816 0-.292-.285-.583-.665-.583-1.044v-2.751h.68v2.561c0 .57.388.949 1.263.949.874 0 1.262-.285 1.262-.949v-2.561h.68v2.75z"/>
    <path fill-rule="nonzero" d="M119.306 54.067c.291 0 .68.095.874.38.194.284.291.568.291.948s-.097.664-.291.949c-.292.284-.583.38-.971.38h-1.943v1.517h-.68v-4.08h2.72v-.094zm-.097 1.897c.388 0 .582-.19.582-.57 0-.379-.194-.568-.68-.568h-1.942v1.138h2.04z"/>
    <path d="M29.37 55.015c-.388-.284-.874-.38-1.456-.38-.777 0-1.069.19-1.069.475s.097.285.389.38l1.165.095c.389 0 .777.19 1.166.38.291.189.388.568.388.853 0 .38-.194.759-.485 1.044-.389.284-.874.379-1.36.379-.777 0-1.457-.19-2.04-.759l.389-.57c.485.38 1.068.57 1.748.57.291 0 .583 0 .874-.19a.52.52 0 0 0 .292-.474c0-.19-.195-.38-.389-.474-.194-.095-.388-.095-.68-.095l-.874-.095c-.291 0-.68-.095-.874-.285-.194-.19-.291-.474-.291-.759 0-.38.194-.759.485-.948.389-.285.874-.38 1.36-.38.68 0 1.36.19 1.845.57l-.582.663z"/>
    <path fill-rule="nonzero" d="M35.004 56.059c.097 1.138-.875 2.087-2.04 2.182h-.194c-1.263 0-2.234-1.044-2.234-2.182 0-.57.291-1.138.68-1.613a2.275 2.275 0 0 1 3.01 0c.486.475.778 1.044.778 1.613m-.68 0c0-.38-.097-.759-.389-1.044-.291-.284-.68-.38-1.068-.38-.389 0-.777.096-1.068.38-.292.285-.486.664-.389 1.044 0 .38.097.759.389 1.044.68.569 1.554.569 2.233 0 .097-.285.292-.665.292-1.044"/>
    <path d="M39.957 55.015l-.583.285c-.291-.38-.874-.664-1.36-.664-.388 0-.874.095-1.165.38a1.464 1.464 0 0 0 0 2.087c.291.284.777.474 1.165.38.583 0 1.069-.286 1.36-.665l.583.38c-.389.664-1.166 1.043-1.943 1.043-.582 0-1.165-.19-1.65-.57-.39-.379-.68-.948-.583-1.612 0-.57.194-1.233.68-1.613.388-.38.97-.57 1.456-.57.874 0 1.651.475 2.04 1.14M40.928 54.067h1v4.079h-1zM46.27 58.146h-3.594v-4.079h3.497v.664h-2.817v.948h1.943v.665h-1.943v1.043h2.914zM50.543 54.731h-1.554v3.415h-.68v-3.415h-1.554v-.664h3.788zM54.914 58.146H51.32v-4.079h3.497v.664H52v.948h1.942v.665H52v1.043h2.914zM61.615 55.87v.094a2.54 2.54 0 0 1-.583 1.613c-.388.38-.97.664-1.554.664-1.262 0-2.233-1.044-2.233-2.182 0-.57.291-1.138.68-1.613.388-.38.97-.57 1.553-.57.777 0 1.457.38 1.846.95l-.583.38c-.291-.38-.777-.57-1.263-.57-.388 0-.777.095-1.068.38a1.464 1.464 0 0 0 0 2.087c.291.284.68.38 1.068.38.68 0 1.166-.38 1.36-.95h-1.554v-.759l2.331.095zM66.18 58.146h-3.691v-4.079h3.497v.664h-2.817v.948h1.943v.665h-1.943v1.043h3.011zM70.939 58.146h-.971l-2.331-3.415v3.415h-.68v-4.079h.971l2.331 3.415v-3.415h.68zM75.698 58.146h-3.691v-4.079h3.497v.664h-2.817v.948h1.942v.665h-1.942v1.043h3.011z"/>
    <path fill-rule="nonzero" d="M80.457 58.146h-.777l-.874-1.518h-1.651v1.518h-.68v-4.08h2.72c.29 0 .68.096.873.38.195.285.292.57.292.949a1.074 1.074 0 0 1-.874 1.233l.97 1.518zm-1.36-2.182c.389 0 .583-.19.583-.57 0-.379-.194-.568-.68-.568h-1.942v1.138h2.04zM85.313 58.146h-.68l-.388-.854H82.01l-.389.854h-.68l1.846-4.08h.777l1.748 4.08zm-1.36-1.613l-.777-1.802-.777 1.802h1.554z"/>
    <path d="M89.198 58.146h-3.205v-4.079h.68v3.32h2.525zM93.568 58.146h-3.593v-4.079h3.496v.664h-2.816v.948h1.942v.665h-1.942v1.043h2.913zM25.777 22.854h24.378v24H25.777v-24zm4.176 11.195v1.423h15.831v-1.423h-15.83z"/>
  </g>
</svg>
