<svg width="157" height="47" fill="none" xmlns="http://www.w3.org/2000/svg"><path d="M136.225 13.775h-9.319V7.87h-2.594v14.35h2.594v-6.068h9.319v6.068h2.593V7.87h-2.593v5.904zM.972 42.394c0-.328.406-.492 1.216-.492.567 0 1.216.164 1.783.41l.324-.738c-.648-.328-1.378-.492-2.188-.492-1.378 0-2.107.574-2.107 1.312 0 1.886 3.728 1.066 3.728 2.132 0 .41-.486.656-1.378.656-.73 0-1.378-.164-2.107-.574L0 45.346c.81.41 1.54.574 2.431.574 1.54 0 2.27-.656 2.27-1.476 0-1.886-3.729-1.148-3.729-2.05zM8.104 41c-1.459 0-2.674.984-2.674 2.46s1.215 2.46 2.674 2.46c1.459 0 2.674-.984 2.674-2.46 0-1.394-1.215-2.46-2.674-2.46zm0 4.182c-1.135 0-1.783-.738-1.783-1.722 0-.902.73-1.64 1.783-1.64 1.135 0 1.783.738 1.783 1.64 0 .984-.73 1.722-1.783 1.722zM14.342 45.182c-1.134 0-1.864-.738-1.864-1.64 0-.984.73-1.64 1.864-1.64.73 0 1.216.246 1.702.574l.486-.656c-.567-.41-1.215-.738-2.188-.738-1.54 0-2.674.984-2.674 2.46s1.135 2.46 2.674 2.46c.892 0 1.621-.246 2.188-.656l-.486-.656c-.486.246-1.053.492-1.702.492zM18.313 41.164h-.891v4.674h.891v-4.674zM20.34 43.87h2.594v-.82H20.34v-1.148h3.322v-.738H19.45v4.674h4.376V45.1h-3.484v-1.23zM24.23 41.902h1.864v3.936h.892v-3.936h1.864v-.738h-4.62v.738zM30.391 43.87h2.594v-.82H30.39v-1.148h3.323v-.738H29.5v4.674h4.376V45.1h-3.485v-1.23zM40.6 44.854a3.632 3.632 0 0 1-1.297.246c-1.134 0-1.864-.656-1.864-1.64 0-.902.73-1.64 1.864-1.64.73 0 1.216.246 1.702.574l.486-.656c-.567-.41-1.296-.656-2.188-.656-1.54 0-2.674.984-2.674 2.46s1.135 2.46 2.674 2.46c.81 0 1.621-.246 2.188-.656v-1.804h-.81v1.312M43.438 43.87h2.593v-.82h-2.593v-1.148h3.323v-.738h-4.214v4.674h4.376V45.1h-3.485v-1.23zM51.702 42.394c0 .656 0 1.394.081 2.296l-2.998-3.526h-.972v4.674h.81v-1.23-2.296l2.998 3.526h.892v-4.674h-.81v1.23zM54.622 43.87h2.593v-.82h-2.593v-1.148h3.322v-.738H53.73v4.674h4.377V45.1h-3.485v-1.23zM63.615 42.64c0-.902-.648-1.476-1.62-1.476h-2.999v4.674h.892v-1.722h1.377l1.297 1.722h1.053l-1.377-1.722c.729-.164 1.377-.656 1.377-1.476zm-3.727.738v-1.394h2.107c.486 0 .729.246.729.738 0 .41-.324.656-.81.656h-2.026zM66.21 41.164l-2.269 4.674h.892l.567-1.148h2.512l.568 1.148h.891l-2.27-4.674h-.89zm-.486 2.788l.892-1.886.891 1.886h-1.783zM70.829 41.164h-.891v4.674h3.97V45.1h-3.08v-3.936zM75.446 43.87h2.593v-.82h-2.593v-1.148h3.323v-.738h-4.214v4.674h4.376V45.1h-3.485v-1.23zM85.74 44.854c-.324.164-.81.246-1.296.246-1.135 0-1.783-.656-1.783-1.64 0-.902.73-1.64 1.783-1.64.73 0 1.215.246 1.62.574l.487-.656c-.567-.41-1.216-.656-2.107-.656-1.54 0-2.675.984-2.675 2.46s1.135 2.46 2.675 2.46c.81 0 1.62-.246 2.188-.656v-1.804h-.81v1.312M92.222 42.722c0-.902-.648-1.476-1.621-1.476h-2.917v4.592h.81v-1.722h1.378l1.296 1.722h1.054l-1.378-1.722c.81-.082 1.378-.574 1.378-1.394zm-3.647.656v-1.394h2.107c.486 0 .73.246.73.738 0 .41-.325.656-.811.656h-2.026zM95.627 41.082c-1.458 0-2.674.984-2.674 2.46s1.216 2.46 2.674 2.46c1.46 0 2.675-.984 2.675-2.46s-1.216-2.46-2.675-2.46zm0 4.1c-1.134 0-1.782-.738-1.782-1.64 0-.902.729-1.64 1.782-1.64 1.054 0 1.783.738 1.783 1.64 0 .902-.648 1.64-1.783 1.64zM103 43.87c0 .738-.486 1.312-1.458 1.312-.973 0-1.459-.574-1.459-1.312v-2.624h-.892v2.706c0 1.148.892 2.05 2.269 2.05 1.459 0 2.27-.82 2.27-2.05v-2.706h-.811v2.624M107.864 41.246h-2.837v4.592h.811V44.28h2.026c.972 0 1.62-.574 1.62-1.476.082-.902-.567-1.558-1.62-1.558zm.081 2.296h-2.026v-1.558h2.026c.486 0 .729.41.729.82a.73.73 0 0 1-.729.738zM38.007 7.872V22.22h2.594v-4.838h6.159c3.079 0 5.024-1.722 5.024-4.673 0-2.87-1.945-4.92-5.024-4.92h-8.753v.082zm11.184 4.92c0 1.311-.892 2.213-2.188 2.213h-6.321V10.25h6.159c1.458 0 2.35 1.148 2.35 2.541zM61.59 7.462c-4.539 0-8.266 3.116-8.266 7.625 0 4.51 3.727 7.626 8.266 7.626 4.538 0 8.266-3.034 8.266-7.626-.081-4.51-3.728-7.625-8.266-7.625zm0 12.791c-3.404 0-5.51-2.214-5.51-5.166 0-2.87 2.268-5.165 5.51-5.165 3.403 0 5.51 2.295 5.51 5.165s-2.188 5.166-5.51 5.166zM80.797 20.17c-3.484 0-5.673-2.132-5.673-5.083 0-2.87 2.189-5.084 5.592-5.084 2.188 0 3.809.738 5.106 1.804l1.377-2.132c-1.783-1.312-3.809-2.132-6.645-2.132-4.7 0-8.347 3.116-8.347 7.626 0 4.591 3.566 7.625 8.347 7.625 2.836 0 4.943-.738 6.726-2.132l-1.377-2.131c-1.216.902-2.918 1.64-5.106 1.64zM112.563 7.872l-6.888 14.35h2.836l1.621-3.445h7.699l1.62 3.444h2.837l-6.97-14.35h-2.755zm-1.297 8.527l2.756-5.821 2.674 5.821h-5.43zM155.758 7.871h-3.241l-7.132 6.724V7.87h-2.674v14.35h2.674v-6.97l7.132 6.97h3.484l-7.617-7.38 7.374-6.97zM99.192 13.201h-6.16v-3.034h10.131V7.955H90.358v14.349h8.834c3.079 0 5.267-1.722 5.267-4.51 0-2.952-2.188-4.592-5.267-4.592zm.162 6.724h-6.321V15.58h6.32c1.622 0 2.594.902 2.594 2.132 0 1.476-.729 2.214-2.593 2.214z" fill="#282423"/><path d="M1 28V1h27v27H1z" stroke="#282423" stroke-width="2"/><path d="M2 14.5h25" stroke="#282423"/><path d="M5 14.5h19" stroke="#282423" stroke-width="3"/></svg>