<svg xmlns="http://www.w3.org/2000/svg" width="180" height="80" fill="none" viewBox="0 0 180 80">
  <path fill-rule="evenodd" d="M30.117 29.775H46.16v3.644c-4.572 4.536-6.763 10.697-6.926 17.33h-7.06c.432-6.319 2.326-11.117 5.843-16.124h-7.9v-4.85zM98.237 34.757h3.707v12.976h6.655V34.757h3.707v-4.982H98.237v4.982zM64.61 29.775h-6.655v13.108h-3.76V29.775h-6.682v17.958H66.26v-4.824h-1.65V29.775zM91.42 40.995h5.303v-4.587H91.42v-1.704h5.87v-4.929H84.874v17.958H97.4v-4.85H91.42v-1.888zM146.068 38.453c1.028-.393 2.948-1.357 2.976-4.195.013-1.363-.917-4.483-6.114-4.483h-8.901v17.958h8.874c4.599 0 6.925-1.73 6.925-5.217 0-2.123-1.271-3.46-3.76-4.063zm-5.816-4.378h1.352s1.369-.055 1.38 1.153c.012 1.322-1.38 1.311-1.38 1.311h-1.352v-2.464zm1.352 9.201h-1.352v-2.805s.232-.003 1.352 0c1.121.004 1.845.472 1.84 1.39-.008 1.496-1.84 1.415-1.84 1.415zM133.083 38.794c-.036-1.21-1.306-1.766-1.518-2.513-.234-.819-.075-1.375-.078-1.892-.006-.849-.483-2.22-2.03-2.202-1.109 0-2.028.656-3.165 1.757.676-.892.92-1.757.92-2.413 0-.68-.244-1.337-.676-1.782-.46-.446-.92-.655-1.597-.655-1.238-.02-1.332.662-2.407.655-1.157-.117-1.438-.706-2.381-.682-.501-.039-1.136.236-1.596.656-1.277 1.126-.526 3.265.216 4.194-1.035-1.198-3.126-2.528-4.697-1.308-1.176.914-.293 2.49-.518 3.463-.173.743-1.535 1.153-1.602 2.695-.029.655.49 2.235 2.705 2.176.46-.012.92 0 1.84-.21-2.056.866-2.946 1.967-2.976 3.068-.061 2.284 2.537 2.072 3.258 2.651.908.68.798 2.334 2.883 2.2 1.485-.097 2.408-.971 2.678-3.147 0 0 .135.471.19.63.487 1.808 1.327 2.602 2.569 2.542 2.064-.1 2.075-1.41 2.968-2.125.633-.422 1.578-.497 1.578-.497 1.136-.236 1.596-1.1 1.596-1.992 0-1.31-.92-2.202-2.706-3.093.677.236 1.353.236 1.786.236.92 0 2.712-.447 2.76-2.412zm-10.565 3.285c-1.596.01-2.888-1.253-2.888-2.799s1.293-2.799 2.888-2.799c1.596 0 2.885 1.253 2.889 2.8.003 1.398-1.198 2.79-2.889 2.798zM79.747 38.453c1.027-.393 2.948-1.357 2.976-4.195.013-1.363-.918-4.483-6.115-4.483h-8.9v17.958h8.874c4.598 0 6.925-1.73 6.925-5.217 0-2.123-1.271-3.46-3.76-4.063zm-5.817-4.378h1.353s1.369-.055 1.38 1.153c.012 1.322-1.38 1.311-1.38 1.311H73.93v-2.464zm1.353 9.201H73.93v-2.805s.233-.003 1.353 0c1.12.004 1.844.472 1.84 1.39-.008 1.496-1.84 1.415-1.84 1.415z" clip-rule="evenodd"/>
</svg>
