<svg xmlns="http://www.w3.org/2000/svg" width="180" height="80" fill="none" viewBox="0 0 180 80" fill="#fff">
  <path d="M67.914 36.252h13.6v7.88H62.545l5.368-7.88z"/>
  <path d="M87.954 38.006l-9.91-15.64c-.732-.651-2.224-.651-2.894.094l-1.715-6.448h6.358c1.089 0 2.103.557 2.685 1.476L95.61 38.212a3.175 3.175 0 0 1 .056 3.309L82.13 61.49c-1.333 1.967-3.534 3.019-5.91 3.019h-3.36l15.054-22.608a3.58 3.58 0 0 0 .041-3.895zM54.149 42.766l9.91 15.64c.414.728 2.404.909 2.776.185l1.777 5.909h-6.358a3.178 3.178 0 0 1-2.686-1.478L46.493 42.561a3.176 3.176 0 0 1-.056-3.309l13.537-19.971c1.332-1.966 3.577-3.253 5.952-3.253h3.36L54.189 38.87a3.582 3.582 0 0 0-.04 3.896z"/>
  <path d="M66.885 58.505l14.719-22.38 1.522 3.212a7.16 7.16 0 0 1-.5 7.021L71.38 63.34c-1.125 1.676-.63 1.52-2.712 1.52H62.31l4.575-6.355zM75.11 22.523l-14.72 22.38-1.522-3.213a7.16 7.16 0 0 1 .5-7.02L70.63 17.52A3.18 3.18 0 0 1 73.341 16H79.7l-4.59 6.523zM101.072 51.105v1.572c-1.27-1.723-3.024-1.934-4.022-1.934-4.202 0-6.5 3.447-6.5 7.045 0 3.597 2.388 7.105 6.47 7.105 2.298 0 3.508-1.18 4.052-1.814v1.39h3.084V51.106h-3.084zm-3.568 2.42c1.935 0 3.749 1.42 3.749 4.293 0 2.449-1.39 4.293-3.749 4.293-2.389 0-3.75-1.995-3.75-4.263 0-2.389 1.482-4.324 3.75-4.324zm20.251-.848c-1.27-1.723-3.024-1.934-4.022-1.934-4.202 0-6.5 3.477-6.5 7.014 0 3.72 2.449 7.136 6.379 7.136 2.42 0 3.629-1.21 4.143-1.814v1.39h3.084V42.247h-3.084v10.431zm-3.598.847c1.935 0 3.779 1.391 3.779 4.354 0 2.358-1.36 4.233-3.779 4.233-2.359 0-3.719-1.965-3.719-4.233 0-2.449 1.481-4.354 3.719-4.354zm18.225-.151c-1.058-2.48-3.054-2.63-3.81-2.63-2.812 0-4.173 1.904-4.173 3.99 0 1.512.545 2.268 1.573 2.934.756.484 1.753.846 2.661 1.3 1.028.514 1.391.937 1.391 1.693 0 .877-.515 1.451-1.482 1.451-1.482 0-2.026-1.149-2.208-1.723l-2.6 1.18c.817 2.267 2.752 3.325 4.626 3.325 2.208 0 4.868-1.482 4.868-4.535 0-.907-.241-1.996-1.602-2.994-.756-.574-1.844-1.058-2.54-1.36-1.179-.545-1.784-.847-1.784-1.603 0-.877.968-.877 1.028-.877.756 0 1.27.575 1.482 1.21l2.57-1.361z"/>
</svg>
