<svg width="180" height="80" viewBox="0 0 180 80" preserveAspectRatio="xMidYMid meet" xmlns="http://www.w3.org/2000/svg" fill="#fff"><g fill-rule="nonzero"><path d="M60.536 38.66s.437-5.173.478-5.68c.067-.815-.56-2.297-2.066-2.297h-4.45v.002h-8.004c-1.505 0-2.238 1.074-2.333 2.1-.055.605-1.084 13.115-1.151 13.835-.106 1.16.656 2.472 2.043 2.472h12.38c1.644 0 2.28-.912 2.422-2.32.083-.84.49-5.934.49-5.934h-7.483l-.323 3.936h-1.897l.817-9.773h1.894l-.3 3.658h7.482l.001.001zM72.086 32.264c-.266.807-2.446 7.957-2.446 7.957l.97-9.534-7.48-.003-1.567 18.411H67.2c1.416 0 1.9-.844 2.135-1.518.283-.808 2.358-6.82 2.358-6.82l-.763 8.337h7.485l1.543-18.41-5.876.003c-1.296 0-1.807 1.005-1.996 1.577M109.995 30.686l-.7 8.395h-1.898l.7-8.394h-7.483s-.718 8.887-.793 9.745c-.09 1.026.463 2.48 2.12 2.48h7.034l-.156 1.866h-9.36l-.36 4.317h14.891c1.007 0 1.983-.69 2.116-2.166.085-.948 1.37-16.24 1.37-16.24h-7.48l-.001-.003zM129.524 30.687h-10.162l-1.537 18.406h7.483l.476-5.697h2.68l-.5.002h5.09c1.285 0 2.14-.688 2.278-2.267.055-.613.646-7.59.686-8.207.088-1.36-.943-2.24-2.225-2.24h-4.268l-.001.003zm-3.42 8.883l.382-4.566h1.874l-.38 4.566h-1.876zM88.832 36.87l.156-1.87h9.374l.36-4.318H81.863l-1.534 18.41H95.26c.95 0 1.978-.59 2.112-2.13.1-1.155.562-6.63.645-7.622.11-1.327-.692-2.473-2.268-2.473h-6.92l.003.003zm1.21 8.395h-1.91l.38-4.567h1.91l-.38 4.567z"/></g></svg>