<svg xmlns="http://www.w3.org/2000/svg" width="180" height="80" viewBox="0 0 180 80">
  <g fill-rule="evenodd">
    <path d="M47.007 46.614a1.488 1.488 0 0 0-.36-.034h-.233l-2.173.106c-1.053 0-1.98-.114-2.782-.34A6.606 6.606 0 0 1 39 45.084a6.072 6.072 0 0 1-1.731-2.25 6.796 6.796 0 0 1-.583-2.818c0-.808.149-1.575.448-2.305a4.523 4.523 0 0 1 1.337-1.822 5.48 5.48 0 0 1 2.03-1.05 8.907 8.907 0 0 1 2.43-.32l1.975.16.576.054a.99.99 0 0 0 .43-.081.615.615 0 0 0 .27-.294l.826 3.36-.144.055a3.603 3.603 0 0 0-1.562-1.716 4.726 4.726 0 0 0-2.37-.614c-.634 0-1.187.09-1.661.268-.472.178-.896.486-1.273.925a4.588 4.588 0 0 0-.862 1.504 5.204 5.204 0 0 0-.299 1.75c0 1.603.492 2.965 1.475 4.09 1.03 1.187 2.34 1.782 3.93 1.782.91 0 1.696-.246 2.36-.74.666-.492 1.201-1.17 1.608-2.036l.181.07-1.383 3.558zm3.842-1.564a5.98 5.98 0 0 1-1.42-2.012 5.943 5.943 0 0 1-.502-2.399c0-1.766.607-3.23 1.823-4.386 1.215-1.156 2.72-1.734 4.515-1.734 1.842 0 3.37.584 4.586 1.75 1.216 1.17 1.82 2.668 1.82 4.493 0 1.696-.644 3.118-1.937 4.27-1.244 1.103-2.734 1.653-4.469 1.653a7.074 7.074 0 0 1-2.397-.399 5.806 5.806 0 0 1-2.02-1.236zm4.829.712c1.196 0 2.148-.458 2.853-1.373.657-.84.988-1.87.988-3.094 0-1.577-.461-2.945-1.383-4.107-.921-1.165-2.016-1.743-3.285-1.743-1.207 0-2.153.468-2.836 1.404-.62.855-.935 1.903-.935 3.15.003 1.47.39 2.761 1.167 3.876.874 1.258 2.017 1.887 3.43 1.887zm14.02-11.011c.826 0 1.437.064 1.83.194.707.227 1.06.665 1.06 1.318 0 .604-.313 1.145-.933 1.617-.205.156-.784.487-1.741.997 1.101.356 1.986.834 2.656 1.44.826.748 1.238 1.619 1.238 2.615 0 1.507-.688 2.52-2.063 3.042a6.802 6.802 0 0 1-2.146.428c-.783.035-1.446.053-1.984.053H63.11v-.16c.393-.059.686-.216.88-.473.19-.254.286-.778.286-1.574V37.08c0-.839-.089-1.397-.27-1.672-.18-.272-.477-.438-.896-.498v-.158h6.588zm-3.447 9.48c0 .605.078.99.231 1.156.159.167.546.251 1.17.251.552 0 1.07-.042 1.56-.127a3.488 3.488 0 0 0 1.303-.48c.377-.237.679-.572.907-1.014a2.86 2.86 0 0 0 .34-1.335c0-.767-.286-1.475-.863-2.116-.49-.557-1.136-1-1.937-1.333l-2.71 1.014v3.983zm0-4.819c1.018-.298 1.86-.618 2.532-.963 1.111-.58 1.67-1.196 1.67-1.849 0-.45-.283-.753-.845-.908-.311-.082-.784-.124-1.417-.124-.456 0-.83.017-1.124.054-.293.035-.505.137-.637.303-.073.081-.12.244-.144.48-.022.236-.035.45-.035.64v2.367zm9.89-2.333c0-.828-.09-1.384-.268-1.663-.18-.278-.478-.447-.897-.507v-.159h4.307v.159c-.393.035-.687.186-.879.446-.192.261-.288.794-.288 1.603v2.174l1.548-1.23c.825-.676 1.412-1.2 1.757-1.568.429-.449.646-.782.646-.997 0-.154-.039-.258-.117-.31-.079-.056-.2-.094-.368-.118v-.159h4.325v.159c-.61 0-1.213.186-1.812.553-.154.095-.67.49-1.545 1.192l-1.345 1.103a13.87 13.87 0 0 1 2.316 2.793c.621.96 1.173 2.039 1.652 3.237l.339.816c.24.582.395.933.467 1.05.241.38.539.596.899.641v.163H82.93v-.163c.417-.058.627-.29.627-.693 0-.438-.156-1.04-.467-1.797a14.226 14.226 0 0 0-.855-1.698 15.691 15.691 0 0 0-1.086-1.637 21.184 21.184 0 0 0-1.327-1.575l-1.706 1.352v3.878c0 .69.048 1.162.144 1.423.168.45.51.702 1.023.747v.163h-4.307v-.163c.502-.083.837-.326 1.004-.73.108-.26.162-.699.162-1.316v-7.17zm12.8 7.97a6.007 6.007 0 0 1-1.418-2.01 5.93 5.93 0 0 1-.5-2.4c0-1.766.607-3.23 1.82-4.386 1.215-1.156 2.72-1.734 4.514-1.734 1.845 0 3.372.584 4.587 1.75 1.217 1.17 1.822 2.668 1.822 4.493 0 1.696-.646 3.118-1.94 4.27-1.242 1.103-2.73 1.653-4.469 1.653-.848 0-1.649-.132-2.395-.399a5.797 5.797 0 0 1-2.02-1.236zm4.83.713c1.195 0 2.149-.458 2.854-1.373.658-.84.987-1.87.987-3.094 0-1.577-.46-2.945-1.383-4.107-.922-1.165-2.015-1.743-3.283-1.743-1.21 0-2.155.468-2.837 1.404-.622.855-.933 1.903-.933 3.15 0 1.47.388 2.761 1.167 3.876.872 1.258 2.016 1.887 3.428 1.887zm9.8-9.784v8.146c0 .689.048 1.162.144 1.423.168.451.51.701 1.023.748v.16h-3.498v-.16c.502-.071.837-.308 1.004-.712.109-.26.162-.705.162-1.334v-7.17c0-.84-.09-1.398-.272-1.672-.177-.272-.477-.438-.894-.498v-.159h4.54v.16c-.203.047-.305.167-.305.356 0 .155.08.372.236.658l2.056 3.726 2.049-3.285c.314-.497.471-.857.471-1.084 0-.198-.108-.324-.324-.372v-.159h4.31v.16c-.504.082-.839.327-1.006.73-.107.262-.161.7-.161 1.315v7.17c0 .83.088 1.384.27 1.662.177.28.477.45.896.508v.16h-4.309v-.16c.505-.059.838-.29 1.006-.695.107-.273.162-.722.162-1.351v-8.271l-3.931 6.316-3.629-6.316zm-78.657 9.407h.318v2.972a8.26 8.26 0 0 1-.318.008c-4.37 0-7.914-3.51-7.914-7.843 0-4.331 3.543-7.842 7.914-7.842.105 0 .213.002.318.007v2.974h-.318c-2.71 0-4.907 2.177-4.907 4.86 0 2.686 2.197 4.864 4.907 4.864z"/>
    <path d="M118.817 44.307c0 .673.054 1.064.161 1.17.107.106.569.161 1.382.161 1.114 0 1.988-.244 2.622-.729.634-.485.95-1.105.95-1.863 0-.944-.382-1.726-1.149-2.34-.908-.734-2.23-1.099-3.966-1.099v4.7zm-1.976-7.352c0-.615-.045-1.048-.145-1.298-.165-.427-.5-.675-1.002-.748v-.158h7.808c.182 0 .328-.017.442-.047a.494.494 0 0 0 .277-.186l.879 3.52-.16.056c-.334-.854-.846-1.47-1.533-1.848-.685-.381-1.582-.57-2.692-.57-.883 0-1.422.031-1.613.096-.19.067-.285.255-.285.564V38.806c2.297 0 4.104.444 5.422 1.332 1.186.791 1.778 1.78 1.778 2.964 0 1.076-.389 1.892-1.167 2.447-.838.604-2.106.907-3.807.907h-5.367v-.162c.394-.058.688-.215.878-.472.191-.255.287-.778.287-1.574v-7.293zm12.36 7.118a7.505 7.505 0 0 0-.221.693c-.05.19-.071.38-.071.57 0 .283.095.515.285.691.19.179.423.268.701.268v.16h-3.664v-.16c.217-.046.394-.11.53-.187.14-.078.274-.213.413-.402.14-.19.285-.45.44-.782.108-.237.228-.523.359-.853l2.89-7.56c.097-.26.167-.457.206-.586.043-.13.063-.281.063-.444 0-.155-.05-.28-.153-.375a.816.816 0 0 0-.401-.197v-.159h3.984v.159c-.348.096-.52.31-.52.642 0 .093.016.202.044.32.032.117.068.242.116.375l3.07 8.75c.083.213.173.425.273.642.179.342.453.561.824.657v.16h-4.075v-.16c.311-.07.533-.214.67-.425.139-.216.21-.487.21-.82 0-.877-.462-1.713-1.38-2.506-1.005-.865-2.187-1.297-3.55-1.297l-1.043 2.826zm2.935-7.978l-1.627 4.26c.704 0 1.366.113 1.985.345a4.316 4.316 0 0 1 1.634 1.077l-1.992-5.682zm10.038 8.03c0 .688.047 1.162.144 1.422.167.45.507.702 1.023.747l.001.162h-4.31v-.162c.395-.058.688-.215.88-.472.19-.255.287-.778.287-1.574V37.08c0-.84-.09-1.397-.27-1.672-.178-.272-.48-.438-.898-.498v-.158h4.311v.158c-.504.06-.84.292-1.006.694-.11.274-.162.726-.162 1.352v1.05h5.352v-.926c0-.71-.05-1.202-.146-1.476-.158-.46-.497-.694-1.022-.694v-.158h4.307v.158c-.502.06-.838.299-1.005.713-.107.272-.162.718-.162 1.333v7.17c0 .675.048 1.143.143 1.403.169.452.51.708 1.024.766v.162h-4.307v-.162c.5 0 .836-.213 1.005-.64.107-.273.163-.74.163-1.406V38.86h-5.352v5.265zm10.951-7.046c0-.828-.09-1.384-.27-1.663-.18-.278-.478-.447-.896-.507v-.159h4.306v.159c-.392.035-.688.186-.878.446-.191.261-.287.794-.287 1.603v2.174l1.547-1.23c.826-.676 1.411-1.2 1.758-1.568.43-.449.643-.782.643-.997 0-.154-.04-.258-.113-.31a.89.89 0 0 0-.37-.118v-.159h4.327v.159c-.611 0-1.215.186-1.815.553-.156.095-.668.49-1.542 1.192l-1.348 1.103a13.967 13.967 0 0 1 2.318 2.793c.62.96 1.172 2.039 1.65 3.237l.341.816c.24.582.396.933.466 1.05.24.38.54.596.898.641v.163h-3.948v-.163c.418-.058.628-.29.628-.693 0-.438-.157-1.04-.466-1.797a16.252 16.252 0 0 0-1.94-3.335 21.615 21.615 0 0 0-1.33-1.575l-1.704 1.352v3.878c0 .69.047 1.162.14 1.423.172.45.513.702 1.025.747v.163h-4.306v-.163c.501-.083.838-.326 1.004-.73.108-.26.162-.699.162-1.316v-7.17zM26.498 32.836c3.613.728 6.33 3.893 6.33 7.686s-2.717 6.96-6.33 7.685V44.13h-1.585c-2.008 0-3.64-1.616-3.64-3.609 0-1.993 1.632-3.607 3.64-3.607h1.585v-4.079z"/>
  </g>
</svg>
