<svg width="180" height="80" viewBox="0 0 180 80" preserveAspectRatio="xMidYMid meet" xmlns="http://www.w3.org/2000/svg" fill="#fff"><path d="M49 22.4a108.859 108.859 0 0 1 41.692-8.396A105.264 105.264 0 0 1 132 22.432s-17.288-6.372-41.308-6.372S49 22.4 49 22.4zm0 34.202a108.856 108.856 0 0 0 41.692 8.393A105.246 105.246 0 0 0 132 56.568s-17.284 6.372-41.308 6.372S49 56.602 49 56.602zm16.182-20.677a11.101 11.101 0 0 0-5.314-1.402 6.738 6.738 0 0 0-2.754.446 1.36 1.36 0 0 0-.955 1.23 1.277 1.277 0 0 0 1.02 1.194c.773.23 1.574.358 2.38.377 1.62.115 2.69.206 3.208.274a6.76 6.76 0 0 1 3.257 1.147 2.868 2.868 0 0 1 1.052 2.376 3.427 3.427 0 0 1-1.656 3.042 8.697 8.697 0 0 1-4.743 1.072c-2.992 0-5.32-.695-6.982-2.085l1.068-1.483a10.736 10.736 0 0 0 5.93 1.775 6.952 6.952 0 0 0 3.193-.598 1.758 1.758 0 0 0 1.086-1.596 1.604 1.604 0 0 0-1.426-1.57 29.283 29.283 0 0 0-4.018-.428 11.208 11.208 0 0 1-4.067-.816 2.512 2.512 0 0 1-1.36-2.41 3.126 3.126 0 0 1 1.545-2.753 7.97 7.97 0 0 1 4.365-1.008c2.26-.08 4.484.56 6.35 1.828l-1.178 1.387-.001.001zm16.572-1.06h-5.606v10.527h-1.944V34.866H68.6v-1.848h13.153v1.847h.001zM95.44 45.392h-2.123l-1.35-2.77h-7.903l-1.353 2.77H80.59l6.204-12.373h2.448l6.2 12.372-.002.001zm-4.418-4.614l-2.995-5.993-3.024 5.993h6.019zm14.122-7.76a6.716 6.716 0 0 1 4.852 1.72 6.091 6.091 0 0 1 1.788 4.606 5.771 5.771 0 0 1-1.896 4.41 6.186 6.186 0 0 1-4.374 1.64h-7.79V33.02h7.42v-.002zm.534 10.528a3.777 3.777 0 0 0 2.874-1.19 4.286 4.286 0 0 0 1.125-3.06 4.36 4.36 0 0 0-1.206-3.207 4.264 4.264 0 0 0-3.164-1.22H99.67v8.68h6.01l-.002-.004v.001zm21.82 1.847h-2.123l-1.352-2.77h-7.903l-1.35 2.768h-2.124l6.205-12.37h2.447l6.2 12.373v-.001zm-4.422-4.613l-2.992-5.995-3.024 5.993h6.015v.002h.001z" fill-rule="nonzero"/></svg>