<svg xmlns="http://www.w3.org/2000/svg" width="180" height="80" viewBox="0 0 180 80" fill="#fff">
  <path fill-rule="nonzero" d="M75.913 32.643v1.948H71.77v11.952h-2.29V34.59h-4.105v-1.948h10.537zm7.283 13.58l.002.001a4.79 4.79 0 0 1-2.223.51c-1.405 0-2.544-.464-3.416-1.389-.873-.926-1.308-2.16-1.308-3.7v-.286a6.443 6.443 0 0 1 .569-2.764 4.478 4.478 0 0 1 1.602-1.895 4.093 4.093 0 0 1 2.297-.679c1.346 0 2.383.449 3.116 1.345.733.899 1.1 2.168 1.1 3.81v.937h-6.45c.067.852.34 1.527.817 2.024a2.393 2.393 0 0 0 1.802.745 2.957 2.957 0 0 0 2.48-1.29l1.196 1.195a4.05 4.05 0 0 1-1.584 1.435zm-1.043-7.743h-.002c-.344-.397-.825-.596-1.44-.596a1.83 1.83 0 0 0-1.473.668c-.375.445-.612 1.066-.716 1.861h4.223v-.17c-.049-.778-.246-1.364-.592-1.763zm10.635 8.064l.002-.001-2.928-4.43-.986 1.06v3.37h-2.217V31.879h2.218v8.459l.694-.907 2.726-3.218h2.662l-3.665 4.305 4.059 6.026h-2.565zm4.18-12.842V33.7h2.216v2.512h1.743v1.721h-1.743v5.765c0 .394.075.68.224.854.149.176.415.263.799.263.26 0 .521-.033.775-.095v1.793a5.187 5.187 0 0 1-1.461.22c-1.701 0-2.554-.982-2.554-2.95v-5.852h-1.624v-1.718h1.624v-2.51zm13.812 12.84h-2.262a3.72 3.72 0 0 1-.257-.963 3.38 3.38 0 0 1-2.59 1.154c-.992 0-1.8-.296-2.427-.887a2.9 2.9 0 0 1-.94-2.196c0-1.1.39-1.946 1.173-2.534.782-.588 1.899-.884 3.352-.884h1.36v-.678a1.861 1.861 0 0 0-.43-1.284c-.286-.32-.72-.481-1.304-.481-.445-.02-.884.12-1.24.395-.31.237-.49.611-.485 1.007h-2.216a2.654 2.654 0 0 1 .539-1.588 3.61 3.61 0 0 1 1.463-1.161 4.946 4.946 0 0 1 2.067-.42c1.155 0 2.076.305 2.765.912.686.608 1.039 1.462 1.057 2.563v4.66c0 .929.124 1.67.375 2.223v.163zm-5.835-2.066c.315.276.721.418 1.136.396.433 0 .86-.115 1.235-.335.37-.206.673-.517.871-.897v-1.948h-1.195c-.82 0-1.438.15-1.851.45-.404.28-.639.762-.62 1.27-.017.4.138.79.424 1.064zm22.83-5.065h.001v5.328a4.424 4.424 0 0 1-1.998 1.488 7.825 7.825 0 0 1-2.901.506 5.518 5.518 0 0 1-2.956-.792 5.197 5.197 0 0 1-1.985-2.266 8.24 8.24 0 0 1-.723-3.443v-1.087c0-2.1.479-3.742 1.44-4.923.96-1.179 2.302-1.77 4.023-1.77 1.479 0 2.652.383 3.521 1.15.87.767 1.393 1.87 1.57 3.31h-2.262c-.257-1.674-1.184-2.512-2.784-2.512-1.033 0-1.82.39-2.357 1.168-.539.78-.817 1.921-.835 3.43v1.067c0 1.5.303 2.665.909 3.496.603.83 1.444 1.244 2.522 1.244 1.179 0 2.019-.281 2.517-.84v-2.721h-2.738V39.41h5.036zm7.5-3.255l-.01 2.176a5.338 5.338 0 0 0-.904-.076c-1.015 0-1.7.408-2.052 1.223v7.065h-2.216V36.213h2.116l.055 1.156c.534-.898 1.276-1.347 2.226-1.347.267-.008.534.037.784.134zm.646 5.24v-.114a6.32 6.32 0 0 1 .577-2.735 4.329 4.329 0 0 1 1.613-1.87 4.396 4.396 0 0 1 2.39-.656c1.332 0 2.413.45 3.242 1.347.83.898 1.28 2.087 1.348 3.57l.008.546a6.381 6.381 0 0 1-.561 2.73 4.279 4.279 0 0 1-1.606 1.862 4.425 4.425 0 0 1-2.412.657c-1.392 0-2.508-.485-3.344-1.455-.837-.971-1.255-2.263-1.255-3.881zm2.856-2.61c-.426.602-.638 1.5-.638 2.696-.001 1.064.209 1.895.628 2.496.4.593 1.06.933 1.753.904a1.996 1.996 0 0 0 1.746-.916c.417-.611.625-1.505.625-2.684 0-1.043-.214-1.871-.643-2.48a2.138 2.138 0 0 0-1.732-.919 2.136 2.136 0 0 0-1.74.902zm14.232 7.756l-.057-1.011c-.648.801-1.572 1.202-2.772 1.202-1.069.002-1.88-.327-2.431-.982-.55-.655-.826-1.604-.826-2.845v-6.693h2.217v6.664c.001 1.31.521 1.966 1.56 1.966 1.078 0 1.804-.404 2.18-1.212v-7.418h2.218v10.33h-2.09zm12.991-5.2v-.003.143c0 1.598-.348 2.873-1.04 3.824-.65.928-1.694 1.462-2.791 1.427-1.084 0-1.95-.371-2.6-1.117v4.898h-2.218v-14.3h2.044l.09 1.05c.65-.827 1.536-1.241 2.656-1.241 1.203 0 2.148.47 2.831 1.41.685.935 1.028 2.24 1.028 3.908zm-2.805 2.647c.398-.595.596-1.497.596-2.707 0-1.03-.197-1.848-.588-2.454a1.89 1.89 0 0 0-1.683-.906c-.907 0-1.557.392-1.951 1.175v4.583c.4.801 1.057 1.202 1.97 1.202a1.886 1.886 0 0 0 1.656-.893zM40.903 39.787v17.21h-1.734v-20.17h11.129v2.96h-9.395zm-3.72-3.83h-.005v21.04H35.44v-24h14.855v2.96H37.183zm-22.18-2.96h14.72v24h-1.735v-21.04H15.003v-2.96zm35.295-.87H33.445v24.87h-1.724V32.129H15v-3.48h35.296v3.48l.002-.002zm-35.295 8.532h7.273V57H20.47V43.605l-.022.002v-.002h-5.446v-2.947zm0-3.83H26V57h-1.736V39.842l-.025.004v-.06h-9.235v-2.96.002zm0 7.66h3.614V57h-1.765V46.288h-1.849v-1.799zm0-16.716V23h35.293v4.773H15.001h.002zm29.621 15.833v13.392h-1.732V40.66h7.406v2.947h-5.674zm5.674 2.682H48.37v10.71h-1.754V44.49h3.68v1.799z"/>
</svg>
