<svg width="180" height="80" viewBox="0 0 180 80" preserveAspectRatio="xMidYMid meet" xmlns="http://www.w3.org/2000/svg" fill="#fff"><path d="M109.37 54.31l-.005-6.016 19.397-.593v6.61H109.37zm10.736-7.38l-9.56.317s6.66-6.13 9.165-9.123c1.626-1.94 2.313-4.035 1.646-5.432-.423-.885-1.37-1.323-2.54-1.257v-6.318c2.887-.418 5.527.288 7.332 2.013 1.644 1.575 2.476 3.81 2.277 6.126-.376 4.38-2.474 7.89-8.319 13.673l-.001.001zm-4.48-9.943l-6.008.54c-.32-6.852 2.448-11.05 8.082-12.267l.003 6.433c-1.18.506-2.35 1.424-2.077 5.294zm-16.404 11.62l8.3-.253v5.956h-8.3v-5.703zm0-20.014l8.3-1.184v5.95l-8.3.925v-5.69zm-6.764.96l5.7-.81V54.31h-5.7V29.554zM83.76 49.08l7.187-.22v5.45H83.76v-5.23zm-5.875-17.447l4.952-.702v23.38h-4.952V31.633zm-7.937 17.87l6.275-.192v5h-6.275v-4.807zm0-16.737l6.275-.893v4.98l-6.275.7v-4.786zm-5.158.734l4.344-.617V54.31H64.79V33.5zM52 35.32l11.266-1.603v4.58L52 39.554V35.32zm7.72 18.99h-4.125v-14.5l4.127-.426V54.31h-.002zm14.35-8.545l-4.123.225v-4.872l4.122-.36v5.007h.001zm30.595-1.698l-5.443.3v-5.8l5.443-.47v5.97z" fill-rule="nonzero"/></svg>