<svg xmlns="http://www.w3.org/2000/svg" width="180" height="80" viewBox="0 0 180 80">
  <g fill-rule="evenodd">
    <path fill="none" d="M23 10h135v60H23z"/>
    <path fill-rule="nonzero" d="M58.393 41.366L53.973 52H50.75l4.854-11.372c-2.282-1.242-3.804-3.493-3.804-7.645 0-5.822 3.442-8.733 7.535-8.733H63.5V52h-2.789V41.366h-2.318zm2.318-14.593h-1.485c-2.246 0-4.42 1.591-4.42 6.21 0 4.463 1.993 5.899 4.42 5.899h1.485v-12.11zM78.199 32.767v19.21h-2.898v-8.614h-4.366v8.614H68v-19.21h2.935v8.156h4.366v-8.156h2.898zM93.29 55.75h-2.634v-3.773h-8.13v3.773h-2.634v-6.213h1.167c1.731-4.078 1.92-10.024 1.92-15.131v-1.64h8.806v16.771h1.505v6.213zm-4.403-20.582h-3.274v.343c0 4.04-.188 9.948-1.769 14.026h5.043V35.168zm12.495 17.075c-3.914 0-6.323-3.163-6.323-9.07 0-6.175 1.694-10.673 5.721-10.673 3.161 0 5.231 2.401 5.231 8.919v1.639h-7.903c0 4.345 1.204 6.632 3.538 6.632 1.655 0 2.972-.762 3.725-1.296l.678 2.287a7.409 7.409 0 0 1-4.667 1.562zm-3.237-11.625H103c0-3.277-.527-5.679-2.22-5.679-1.807 0-2.446 2.25-2.635 5.68zm13.813 1.792v9.567h-2.936v-19.21h2.936v8.88l4.553-8.88h2.973L114.78 41.8l5.382 10.177h-3.2l-5.004-9.567zm8.58-.038c0-6.022 2.296-9.872 6.737-9.872 1.693 0 2.672.457 3.5.99l-.414 2.821c-.79-.686-1.92-1.334-3.124-1.334-2.107 0-3.613 2.402-3.613 7.242 0 4.803 1.13 7.547 3.5 7.547a4.757 4.757 0 0 0 3.199-1.182l.677 2.211a5.699 5.699 0 0 1-3.952 1.448c-4.064 0-6.51-3.315-6.51-9.871z"/>
  </g>
</svg>
