<svg width="180" height="80" viewBox="0 0 180 80" preserveAspectRatio="xMidYMid meet" xmlns="http://www.w3.org/2000/svg" fill="#fff"><path d="M111.624 68.882a1.085 1.085 0 0 1-.996 1.503c-.443 0-.83-.263-1.005-.665l-.856-2.086h-4.787l-.857 2.086c-.22.54-.88.803-1.42.582a1.093 1.093 0 0 1-.585-1.42l4.23-10.242c.255-.606.7-.747 1.023-.747.46 0 .833.258 1.03.75l4.224 10.24-.001-.001zm-3.743-3.41l-1.51-3.65-1.5 3.65h3.01zm-16.78-1.22c0 3.144-1.72 6.314-5.56 6.314h-.022c-1.82 0-3.312-.642-4.324-1.86-.922-1.108-1.41-2.655-1.407-4.493.015-3.95 2.267-6.505 5.754-6.505 3.486.01 5.56 2.46 5.56 6.545l-.001-.001zm-2.29 0c0-2.815-1.098-4.248-3.26-4.258-3.017 0-3.463 2.65-3.477 4.228-.01 1.287.296 2.33.874 3.02.578.683 1.44 1.036 2.576 1.04h.018c2.41 0 3.27-2.084 3.27-4.03h-.001zm11.567-6.343h-7.352c-.607 0-1.105.5-1.105 1.11 0 .61.498 1.11 1.105 1.11h2.555v9.12c0 .614.497 1.12 1.114 1.12.305 0 .58-.12.782-.333.223-.212.33-.496.33-.786l-.004-9.12h2.575c.614 0 1.106-.5 1.106-1.11 0-.61-.492-1.11-1.106-1.11v-.001zm-22.214.145a1.112 1.112 0 0 0-1.518.407l-2.787 4.83-2.787-4.83a1.108 1.108 0 0 0-1.515-.407 1.101 1.101 0 0 0-.402 1.514l3.6 6.238v3.48c0 .616.494 1.114 1.105 1.114a1.11 1.11 0 0 0 1.11-1.113v-3.482l3.597-6.24a1.1 1.1 0 0 0-.402-1.513l-.001.002zM100 9a2.428 2.428 0 0 1 2.423 2.436v2.396c0 3.217-1.23 6.252-3.47 8.527a11.753 11.753 0 0 1-5.77 3.25l-.216.046v6.19l.216.052a11.805 11.805 0 0 1 5.78 3.248c2.23 2.28 3.46 5.303 3.46 8.525v2.396a2.428 2.428 0 0 1-2.422 2.438 2.43 2.43 0 0 1-2.428-2.438V43.67a7.25 7.25 0 0 0-2.078-5.11 6.905 6.905 0 0 0-4.95-2.102c-1.872.004-3.628.75-4.963 2.102a7.283 7.283 0 0 0-2.073 5.11v2.396a2.432 2.432 0 0 1-2.423 2.438 2.437 2.437 0 0 1-2.43-2.438V43.67a12.06 12.06 0 0 1 3.466-8.524 11.77 11.77 0 0 1 5.764-3.248l.222-.053v-6.19l-.222-.044a11.774 11.774 0 0 1-5.764-3.25 12.074 12.074 0 0 1-3.467-8.528v-2.397A2.434 2.434 0 0 1 81.083 9a2.432 2.432 0 0 1 2.424 2.436v2.396c0 1.926.74 3.748 2.074 5.118 1.336 1.348 3.092 2.093 4.965 2.094 1.866 0 3.62-.746 4.95-2.094a7.282 7.282 0 0 0 2.077-5.118v-2.396A2.429 2.429 0 0 1 100.003 9H100zm-9.457 29.792a4.712 4.712 0 0 0-4.707 4.712 4.708 4.708 0 0 0 4.707 4.713c2.59 0 4.698-2.11 4.698-4.713 0-2.596-2.108-4.712-4.697-4.712h-.001z" fill-rule="nonzero"/></svg>