<svg width="180" height="80" xmlns="http://www.w3.org/2000/svg"><path d="M54.008 30.393c.615.01 1.2.265 1.627.71.427.446.66 1.045.645 1.664 0 .37-.092.734-.265 1.06l-4.517 10.526c-1.928 3.587-4.464 4.667-7.133 4.667-1.77 0-2.616-.747-2.616-2.073 0-1.14.873-1.94 2.217-1.94a3.306 3.306 0 0 0 2.65-1.114L41.65 33.827a2.264 2.264 0 0 1-.266-1.06 2.318 2.318 0 0 1 1.766-2.303 2.299 2.299 0 0 1 2.612 1.243l3.2 6.9h.092l2.768-6.754V31.8l.053-.1a2.317 2.317 0 0 1 2.106-1.333l.028.026h-.001zm79.053 5.82c2.14 0 4.704 1.067 4.704 2.58.03.47-.133.93-.454 1.274-.32.343-.768.536-1.235.533-.663 0-1.875-.613-2.65-.613a2.339 2.339 0 0 0-1.848.704 2.38 2.38 0 0 0-.662 1.877c0 1.886.928 2.666 2.616 2.666 1.08 0 1.93-.586 2.59-.586.467 0 .913.19 1.24.525.327.334.508.786.503 1.255 0 1.46-1.82 2.526-4.57 2.526-4.12 0-6.79-2.26-6.79-6.406 0-4.147 3.04-6.354 6.578-6.354l-.02.02-.002-.001zm-14.61-.02c3.882 0 6.624 2.874 6.624 6.38 0 3.507-2.75 6.38-6.623 6.38a6.45 6.45 0 0 1-4.627-1.805 6.536 6.536 0 0 1-1.995-4.575 6.44 6.44 0 0 1 1.97-4.6 6.358 6.358 0 0 1 4.653-1.78h-.002zm0 9.147c1.325 0 2.3-.96 2.3-2.767 0-1.593-.743-2.766-2.3-2.766-1.556 0-2.324 1.173-2.324 2.766 0 1.807.98 2.767 2.325 2.767h-.001zm-10.596-9.147c1.152.01 2.087.94 2.112 2.1v8.667c0 1.182-.95 2.14-2.126 2.14a2.133 2.133 0 0 1-2.126-2.14v-2.393h-3.975v2.42a2.104 2.104 0 0 1-2.086 2.046 2.137 2.137 0 0 1-2.165-2.046V38.32a2.15 2.15 0 0 1 2.164-2.1 2.113 2.113 0 0 1 2.087 2.1v2.34h3.974v-2.313a2.128 2.128 0 0 1 2.14-2.1v-.054h.001zm-18.803.054c3.882 0 6.624 2.873 6.624 6.38 0 3.506-2.75 6.38-6.623 6.38a6.456 6.456 0 0 1-4.627-1.806 6.528 6.528 0 0 1-1.995-4.573c.01-1.74.722-3.4 1.97-4.6a6.358 6.358 0 0 1 4.653-1.78l-.002-.001zm0 9.146c1.325 0 2.3-.96 2.3-2.766 0-1.594-.743-2.767-2.3-2.767-1.556 0-2.324 1.173-2.324 2.767 0 1.806.98 2.766 2.325 2.766h-.001zm-9.637-9.153c.55.01 1.074.245 1.448.65.375.408.57.95.54 1.503a2.633 2.633 0 0 1-.743 1.62L78.81 42.3v.187l2.114 2.666c.455.495.722 1.134.755 1.807a2.057 2.057 0 0 1-.617 1.464 2.034 2.034 0 0 1-1.47.583 1.986 1.986 0 0 1-1.662-.8l-2.768-3.774h-.927v2.554a2.105 2.105 0 0 1-2.086 2.046 2.138 2.138 0 0 1-2.167-2.046V38.32a2.153 2.153 0 0 1 2.166-2.1 2.113 2.113 0 0 1 2.085 2.1v2.34h.907c.696-.967 2.292-3.18 2.583-3.507a2.09 2.09 0 0 1 1.69-.933v.02h.002zm-12.968.293c.514.01 1.002.228 1.354.605.353.376.54.88.52 1.395a1.893 1.893 0 0 1-1.874 1.887H64.12v6.567a2.103 2.103 0 0 1-2.085 2.046 2.138 2.138 0 0 1-2.166-2.046V40.42H57.49a1.887 1.887 0 0 1-1.848-1.913 1.915 1.915 0 0 1 1.848-2h8.954v.026h.003zM54.008 28a4.685 4.685 0 0 0-4.12 2.44 2.356 2.356 0 0 0-.172.34l-.046.107-.788 1.88-.98-2.08a2.55 2.55 0 0 0-.133-.247 4.677 4.677 0 0 0-5.276-2.237A4.714 4.714 0 0 0 39 32.767c.002.71.165 1.41.477 2.046l.04.087 3.84 7.733c-2.234.174-3.962 2.044-3.973 4.3 0 2.06 1.325 4.474 4.994 4.474 4.014 0 7.12-2 9.226-5.907.035-.062.066-.124.093-.187l1.397-3.26a4.15 4.15 0 0 0 2.404.767v4.167c.093 2.438 2.084 4.366 4.507 4.366 2.424 0 4.414-1.928 4.507-4.366v-4.174a4.172 4.172 0 0 0 1.1-.153v4.32a4.54 4.54 0 0 0 3.234 4.24 4.5 4.5 0 0 0 5.005-1.787l.133.187a4.342 4.342 0 0 0 3.59 1.813 4.432 4.432 0 0 0 3.77-2 9.258 9.258 0 0 0 12.172-.533 4.532 4.532 0 0 0 4.152 2.566 4.534 4.534 0 0 0 4.067-2.7 4.536 4.536 0 0 0 4.15 2.657 4.538 4.538 0 0 0 4.116-2.71 9.23 9.23 0 0 0 12.902.127 8.62 8.62 0 0 0 .8-.907c1.564 2.194 4.22 3.467 7.604 3.467a9.224 9.224 0 0 0 4.477-1.02 4.472 4.472 0 0 0 2.477-3.907 4.19 4.19 0 0 0-2.437-3.813 4.115 4.115 0 0 0 2.358-3.84c0-1.633-1.045-3.087-2.867-4a9.713 9.713 0 0 0-4.215-.973 9.23 9.23 0 0 0-6.205 2.253 8.098 8.098 0 0 0-1.166 1.287 8.635 8.635 0 0 0-.835-.947 9.32 9.32 0 0 0-12.928.087 4.522 4.522 0 0 0-4.113-2.658 4.519 4.519 0 0 0-4.113 2.657 4.476 4.476 0 0 0-4.08-2.667 4.558 4.558 0 0 0-4.12 2.593 9.345 9.345 0 0 0-12.384-.413 4.353 4.353 0 0 0-3.71-2.147 4.477 4.477 0 0 0-3.49 1.76l-.125.147a4.455 4.455 0 0 0-3.648-1.907 4.56 4.56 0 0 0-3.087 1.147 4.164 4.164 0 0 0-2.65-.9h-7.993c.138-.445.21-.907.212-1.373.018-2.6-2.053-4.727-4.636-4.76L54.008 28z" fill-rule="nonzero"/></svg>