<svg width="25" height="14" xmlns="http://www.w3.org/2000/svg"><path d="M23.057 10.91c-.525-.63-1.121-1.194-1.698-1.74-.205-.194-.417-.395-.621-.595-.587-.573-.609-.789-.144-1.44.322-.45.662-.9.992-1.335.299-.395.608-.803.905-1.212l.06-.084c.567-.784 1.152-1.594 1.464-2.572.081-.258.166-.637-.028-.955-.194-.317-.571-.414-.838-.459a2.288 2.288 0 0 0-.384-.025L19.056.49h-.03c-.561 0-.94.264-1.156.808-.207.52-.434 1.073-.693 1.599-.516 1.047-1.17 2.254-2.119 3.26l-.04.043c-.112.12-.238.256-.331.256a.158.158 0 0 1-.047-.008c-.197-.077-.328-.552-.322-.773v-.01l-.003-4.286a.341.341 0 0 0-.003-.044C14.218.638 14.01.204 13.22.049a.327.327 0 0 0-.064-.006H9.3c-.629 0-.975.255-1.3.638-.088.102-.271.315-.18.573.092.262.39.318.487.336.483.092.755.387.832.902.134.896.15 1.852.052 3.008-.028.322-.082.57-.172.782-.021.05-.095.211-.171.211-.024 0-.093-.01-.22-.096-.3-.205-.518-.498-.773-.859-.868-1.227-1.597-2.578-2.228-4.133C5.392.833 4.955.513 4.395.503 3.779.493 3.22.49 2.689.49c-.581 0-1.12.006-1.647.017C.592.514.28.649.116.907c-.165.26-.154.6.031 1.011 1.484 3.3 2.83 5.698 4.363 7.778 1.075 1.456 2.152 2.464 3.392 3.171 1.305.747 2.768 1.11 4.472 1.11.193 0 .393-.005.594-.014.99-.049 1.357-.407 1.404-1.37.022-.494.076-1.01.318-1.45.153-.278.295-.278.342-.278.09 0 .202.041.322.119.216.14.4.329.552.494.143.156.284.314.425.472.304.341.62.694.948 1.028.72.733 1.514 1.055 2.425.985h3.4a.99.99 0 0 0 .827-.516c.214-.379.21-.861-.011-1.291-.252-.487-.577-.903-.863-1.245z" fill-rule="nonzero"/></svg>