<svg width="24" height="24" xmlns="http://www.w3.org/2000/svg"><g fill-rule="nonzero"><path d="M15.54 4H8.398A4.4 4.4 0 0 0 4 8.391v7.13a4.4 4.4 0 0 0 4.398 4.39h7.142a4.4 4.4 0 0 0 4.398-4.39V8.39A4.4 4.4 0 0 0 15.54 4zm2.984 11.52a2.985 2.985 0 0 1-2.984 2.98H8.398a2.985 2.985 0 0 1-2.984-2.98V8.392a2.985 2.985 0 0 1 2.984-2.98h7.142a2.985 2.985 0 0 1 2.984 2.98v7.13z"/><path d="M11.969 7.856a4.108 4.108 0 0 0-4.107 4.1 4.108 4.108 0 0 0 8.214 0c0-2.26-1.843-4.1-4.107-4.1zm0 6.788a2.693 2.693 0 0 1-2.693-2.688 2.694 2.694 0 0 1 5.386 0 2.693 2.693 0 0 1-2.693 2.688zM16.248 6.659a1.04 1.04 0 0 0-1.037 1.035c0 .272.111.54.304.732.193.192.46.304.733.304.273 0 .54-.112.733-.304.194-.192.304-.46.304-.732a1.039 1.039 0 0 0-1.037-1.035z"/></g></svg>