<svg width="24" height="24" xmlns="http://www.w3.org/2000/svg"><path d="M19.857 15.2a1.09 1.09 0 0 0-.054-.103c-.277-.497-.805-1.108-1.585-1.831l-.017-.017-.008-.008-.008-.008h-.009c-.354-.337-.578-.564-.672-.68-.172-.221-.21-.445-.116-.671.066-.172.315-.533.747-1.086.227-.293.406-.527.539-.704.957-1.27 1.372-2.083 1.245-2.436l-.05-.083c-.033-.05-.118-.095-.257-.137a1.309 1.309 0 0 0-.53-.02l-2.391.016a.31.31 0 0 0-.166.004l-.108.025-.042.021-.033.025a.369.369 0 0 0-.091.087.568.568 0 0 0-.083.145 13.52 13.52 0 0 1-.888 1.864c-.205.343-.393.64-.565.891a4.287 4.287 0 0 1-.431.555 3.009 3.009 0 0 1-.316.286c-.094.072-.166.102-.215.091a6.09 6.09 0 0 1-.142-.033.551.551 0 0 1-.186-.203.908.908 0 0 1-.096-.323 3.557 3.557 0 0 1-.029-.336 7 7 0 0 1 .004-.398c.006-.17.009-.287.009-.348 0-.21.004-.437.012-.683l.02-.584c.007-.144.01-.296.01-.456 0-.16-.01-.286-.03-.377a1.288 1.288 0 0 0-.087-.265.447.447 0 0 0-.17-.2.96.96 0 0 0-.278-.111A5.532 5.532 0 0 0 11.67 7c-1.03-.01-1.691.055-1.984.2-.117.06-.222.143-.316.248-.1.121-.113.188-.041.198.332.05.567.169.705.357l.05.1c.039.071.077.198.116.38.039.183.064.384.075.605a6.44 6.44 0 0 1 0 1.036c-.028.287-.054.511-.079.671a1.342 1.342 0 0 1-.212.572.143.143 0 0 1-.041.041.623.623 0 0 1-.224.042c-.078 0-.172-.039-.282-.116a1.99 1.99 0 0 1-.345-.32 4.265 4.265 0 0 1-.402-.567 9.9 9.9 0 0 1-.465-.862l-.133-.24c-.083-.155-.196-.38-.34-.675a13.01 13.01 0 0 1-.382-.858.546.546 0 0 0-.2-.265l-.04-.025a.882.882 0 0 0-.324-.124l-2.275.016c-.232 0-.39.053-.473.158l-.033.05A.268.268 0 0 0 4 7.754c0 .06.017.135.05.224.332.779.693 1.53 1.083 2.254.39.723.729 1.306 1.017 1.748.287.442.58.86.88 1.251.298.392.496.644.593.754.097.11.173.194.228.249l.208.199c.133.132.328.291.585.476.257.185.542.368.855.547.312.18.676.326 1.091.44a3.78 3.78 0 0 0 1.212.136h.955c.193-.017.34-.077.44-.182l.033-.042a.549.549 0 0 0 .062-.153.84.84 0 0 0 .029-.228 2.726 2.726 0 0 1 .054-.642c.041-.19.088-.334.14-.43a1.06 1.06 0 0 1 .32-.365.542.542 0 0 1 .067-.03c.133-.043.289 0 .469.13s.348.29.506.48c.158.19.347.405.569.642.221.238.415.414.58.53l.167.1c.11.066.254.127.432.182a.932.932 0 0 0 .464.042l2.125-.033c.21 0 .374-.035.49-.104.116-.07.185-.145.207-.228a.64.64 0 0 0 .004-.282 1.039 1.039 0 0 0-.058-.22z" fill-rule="nonzero"/></svg>