<svg width="120" height="54" viewBox="0 0 120 54" fill="none" xmlns="http://www.w3.org/2000/svg">
<path fill-rule="evenodd" clip-rule="evenodd" d="M4.686 26.106C7.274 26.106 9.371 23.941 9.371 21.271C9.371 18.601 7.274 16.436 4.686 16.436C2.098 16.436 0 18.6 0 21.27C0 23.94 2.098 26.105 4.686 26.105V26.106ZM19.073 21.271C19.073 23.362 17.43 25.058 15.403 25.058C13.376 25.058 11.733 23.362 11.733 21.271C11.733 19.179 13.376 17.484 15.403 17.484C17.43 17.484 19.073 19.179 19.073 21.271ZM15.403 38.213C18.553 38.213 21.105 35.579 21.105 32.33C21.105 29.08 18.552 26.446 15.403 26.446C12.254 26.446 9.702 29.08 9.702 32.33C9.702 35.579 12.254 38.213 15.403 38.213V38.213ZM4.686 35.068C6.151 35.068 7.34 33.842 7.34 32.33C7.34 30.817 6.151 29.591 4.686 29.591C3.22 29.591 2.032 30.817 2.032 32.33C2.032 33.842 3.22 35.068 4.686 35.068ZM38.888 35.036H35.928L34.881 32.096H32.954L30.608 29.779H34.056L32.333 24.936L30.608 29.779L32.953 32.097H29.783L28.737 35.037H25.777L31.259 19.636H33.406L38.888 35.036V35.036ZM32.953 32.096L35.928 35.036L32.953 32.096ZM46.225 24.522L43.501 32.172L40.778 24.522H37.998L41.742 35.036H45.261L49.004 24.522H46.224H46.225ZM52.949 24.522H50.169V35.036H52.949V24.522V24.522ZM51.569 23.328C52.557 23.328 53.359 22.501 53.359 21.48C53.359 20.46 52.557 19.633 51.569 19.633C50.579 19.633 49.778 20.46 49.778 21.48C49.778 22.5 50.579 23.328 51.568 23.328H51.569ZM62.769 24.522V26.839H59.437V31.186C59.437 32.363 60.385 32.73 61.21 32.73C61.883 32.73 62.43 32.56 62.43 32.56L62.768 34.831C62.768 34.831 61.791 35.253 60.676 35.253C57.788 35.253 56.658 33.696 56.658 31.363V26.839H54.458V24.522H56.658V21.622H59.437V24.522H62.768H62.769ZM69.145 24.254C66.131 24.254 63.687 26.721 63.687 29.762C63.687 32.804 66.131 35.27 69.145 35.27C72.158 35.27 74.602 32.804 74.602 29.762C74.602 26.721 72.158 24.253 69.145 24.253V24.254ZM66.339 29.8C66.339 31.364 67.595 32.633 69.145 32.633C70.695 32.633 71.952 31.365 71.952 29.8C71.952 28.237 70.696 26.968 69.145 26.968C67.595 26.968 66.339 28.237 66.339 29.8V29.8Z" fill="white"/>
</svg>
