<svg width="120" height="53" viewBox="0 0 120 53" fill="none" xmlns="http://www.w3.org/2000/svg">
<path d="M14.313 27.206L8.02 33.15H0L9.989 23.504C13.703 19.927 15.486 19.342 21.819 19.342H46.821L41.393 24.51H22.53C17.801 24.51 16.797 24.865 14.314 27.205L14.313 27.206ZM35.601 30.179H22.736C20.381 30.179 19.859 30.284 18.687 31.425L16.914 33.151H9.477L14.973 27.801C17.131 25.701 17.879 25.346 22.637 25.346H40.576L35.6 30.179H35.601ZM33.719 33.142L47.905 19.333H56.741L42.516 33.142H33.72H33.719ZM46.161 31.425V31.684H46.723V33.151H47.038V31.684H47.599V31.425H46.161V31.425ZM49.205 31.425H49.648V33.151H49.353V31.818H49.343L48.85 33.151H48.594L48.102 31.818H48.092V33.151H47.796V31.425H48.23L48.722 32.777H48.732L49.205 31.425V31.425ZM92.105 33.189H59.105V32.998H92.105C92.125 32.998 94.47 32.959 94.47 30.696V19.381H94.667V30.696C94.667 33.17 92.125 33.189 92.105 33.189ZM59.332 20.254H61.43V20.82H60.04V21.3H61.43V21.865H60.04V22.843H59.332V20.253V20.254ZM63.952 21.922C63.952 22.498 63.587 22.872 62.917 22.872H62.671C62.011 22.872 61.637 22.507 61.637 21.922V21.673C61.637 21.098 62.011 20.723 62.671 20.723H62.917C63.577 20.723 63.952 21.088 63.952 21.673V21.923V21.922ZM62.908 21.222H62.671C62.405 21.222 62.316 21.347 62.316 21.616V21.97C62.316 22.239 62.406 22.373 62.671 22.373H62.908C63.173 22.373 63.252 22.248 63.252 21.97V21.616C63.252 21.356 63.173 21.222 62.908 21.222ZM64.966 20.772H65.587V21.27H65.114C64.878 21.27 64.809 21.347 64.809 21.548V22.843H64.139V21.539C64.149 21.146 64.375 20.772 64.966 20.772V20.772ZM65.715 20.772H68.237C68.887 20.772 69.153 21.088 69.153 21.616V22.843H68.483V21.596C68.483 21.386 68.424 21.299 68.217 21.299H67.774V22.833H67.104V21.3H66.394V22.834H65.724V20.773H65.715V20.772ZM70.955 20.772H71.625V22.842H70.305C69.685 22.842 69.419 22.517 69.419 21.999V20.772H70.089V22.018C70.089 22.229 70.148 22.316 70.355 22.316H70.945V20.772H70.955V20.772ZM72.62 20.254V22.843H71.95V20.253H72.62V20.254ZM74.945 22.834H73.487C73.054 22.834 72.827 22.642 72.827 22.344C72.827 22.028 73.083 21.874 73.399 21.664L73.999 21.261H72.877V20.762H73.812C74.63 20.762 74.945 21.107 74.945 21.712V22.833V22.834ZM74.305 22.334V21.644L73.665 22.134C73.585 22.191 73.556 22.21 73.556 22.258C73.556 22.306 73.596 22.335 73.684 22.335H74.305V22.334ZM75.861 22.306H76.531V20.926C76.531 20.848 76.491 20.81 76.423 20.81H75.891V20.254H76.571C76.975 20.254 77.231 20.513 77.231 20.887V22.316H77.811V22.843H75.851V22.306H75.861V22.306ZM61.411 26.286H59.213V25.863C59.213 25.423 59.381 25.193 59.982 24.885L60.543 24.598C60.671 24.54 60.711 24.492 60.711 24.396C60.711 24.272 60.612 24.233 60.465 24.233H59.273V23.687H60.523C61.154 23.687 61.44 23.927 61.44 24.31C61.44 24.742 61.174 24.895 60.681 25.163L60.169 25.432C60.011 25.518 59.982 25.576 59.982 25.662V25.729H61.41V26.285L61.411 26.286ZM63.085 26.324H62.819C62.021 26.324 61.637 25.854 61.637 25.164V24.809C61.637 24.128 62.021 23.677 62.819 23.677H63.085C63.883 23.677 64.267 24.137 64.267 24.818V25.173C64.267 25.863 63.883 26.323 63.085 26.323V26.324ZM62.868 25.768H63.036C63.39 25.768 63.528 25.633 63.528 25.278V24.713C63.528 24.358 63.4 24.223 63.036 24.223H62.868C62.513 24.223 62.376 24.358 62.376 24.713V25.269C62.376 25.633 62.513 25.768 62.868 25.768ZM64.592 25.758H65.262V24.378C65.262 24.3 65.222 24.262 65.154 24.262H64.622V23.706H65.302C65.705 23.706 65.962 23.965 65.962 24.339V25.768H66.542V26.295H64.582V25.758H64.592V25.758ZM66.828 24.598V24.483C66.828 23.965 67.143 23.687 67.892 23.687H68.03C68.867 23.687 69.222 24.013 69.222 24.751V25.201C69.222 25.863 68.838 26.285 67.952 26.285H66.946V25.768H67.971C68.385 25.768 68.493 25.653 68.493 25.346V25.307H67.873C67.153 25.307 66.828 25.067 66.828 24.597V24.598ZM68.493 24.799V24.589C68.493 24.262 68.394 24.185 68.05 24.185H67.961C67.626 24.185 67.547 24.281 67.547 24.454V24.531C67.547 24.732 67.636 24.799 67.931 24.799H68.493ZM72.443 25.749H71.202L70.985 26.295H70.266L71.153 24.205C71.291 23.879 71.468 23.658 71.823 23.658C72.197 23.658 72.384 23.868 72.513 24.195L73.389 26.285H72.65L72.443 25.748V25.749ZM71.409 25.211H72.236L71.892 24.32C71.882 24.281 71.862 24.262 71.832 24.262C71.793 24.262 71.783 24.291 71.773 24.32L71.409 25.211V25.211ZM74.157 26.285C73.645 26.285 73.409 26.045 73.409 25.72C73.409 25.394 73.655 25.202 73.999 25.106L74.749 24.876C74.807 24.856 74.837 24.828 74.837 24.789C74.837 24.742 74.807 24.713 74.738 24.713H73.488V24.214H74.728C75.3 24.214 75.497 24.434 75.497 24.77C75.497 25.116 75.28 25.288 74.935 25.394L74.157 25.624C74.098 25.643 74.059 25.662 74.059 25.71C74.059 25.758 74.099 25.787 74.157 25.787H75.457V26.285H74.157V26.285ZM76.315 25.451V25.461C76.315 25.72 76.413 25.787 76.709 25.787H77.782V26.285H76.748C75.911 26.285 75.635 25.911 75.635 25.355V25.096C75.635 24.55 75.93 24.195 76.679 24.195H76.817C77.615 24.195 77.832 24.579 77.832 25.154V25.451H76.315V25.451ZM76.62 24.655C76.393 24.655 76.315 24.742 76.315 24.972V25.02H77.201V24.972C77.201 24.752 77.112 24.655 76.896 24.655H76.62V24.655ZM78.866 24.224H79.486V24.722H79.014C78.777 24.722 78.708 24.799 78.708 25V26.295H78.038V24.991C78.038 24.598 78.275 24.224 78.866 24.224V24.224ZM79.605 23.706H80.275V24.186H81.112C81.644 24.186 81.949 24.559 81.949 25.116V25.356C81.949 25.921 81.634 26.286 81.112 26.286H79.605V23.706ZM80.275 24.694V25.777H80.885C81.181 25.777 81.27 25.653 81.27 25.384V25.077C81.27 24.809 81.18 24.694 80.885 24.694H80.275ZM84.165 26.285H82.708C82.274 26.285 82.048 26.094 82.048 25.796C82.048 25.48 82.304 25.326 82.619 25.116L83.22 24.713H82.097V24.214H83.033C83.85 24.214 84.166 24.559 84.166 25.164V26.285H84.165ZM83.535 25.787V25.097L82.895 25.585C82.816 25.643 82.787 25.662 82.787 25.71C82.787 25.758 82.826 25.787 82.915 25.787H83.535ZM84.481 24.042V23.639H85.151V24.042H84.481ZM84.481 24.224H85.151V26.295H84.481V24.224ZM86.146 24.224V26.132C86.146 26.592 85.88 26.812 85.436 26.812H85.151V26.372H85.318C85.417 26.372 85.476 26.324 85.476 26.189V24.224H86.146V24.224ZM85.476 24.042V23.639H86.146V24.042H85.476ZM88.461 26.285H87.003C86.569 26.285 86.343 26.094 86.343 25.796C86.343 25.48 86.599 25.326 86.914 25.116L87.514 24.713H86.392V24.214H87.328C88.145 24.214 88.461 24.559 88.461 25.164V26.285ZM87.821 25.787V25.097L87.18 25.585C87.101 25.643 87.072 25.662 87.072 25.71C87.072 25.758 87.112 25.787 87.2 25.787H87.82H87.821ZM88.727 24.224H90.047C90.667 24.224 90.933 24.55 90.933 25.068V26.295H90.263V25.048C90.263 24.838 90.204 24.751 89.997 24.751H89.407V26.285H88.737V24.224H88.727V24.224ZM61.913 27.724H60.563C60.12 27.724 59.992 27.877 59.992 28.27V28.663C59.992 29.076 60.13 29.229 60.514 29.229H60.947C61.213 29.229 61.322 29.153 61.322 28.989V28.759H60.602V28.213H61.962V29.028C61.962 29.546 61.597 29.776 60.928 29.776H60.543C59.676 29.776 59.253 29.354 59.253 28.626V28.261C59.253 27.589 59.686 27.158 60.533 27.158H61.913V27.724V27.724ZM63.026 27.676H63.646V28.174H63.173C62.937 28.174 62.868 28.251 62.868 28.453V29.747H62.198V28.443C62.198 28.05 62.435 27.676 63.026 27.676V27.676ZM65.784 29.737H64.326C63.893 29.737 63.666 29.546 63.666 29.248C63.666 28.932 63.922 28.778 64.237 28.568L64.838 28.165H63.715V27.666H64.651C65.469 27.666 65.784 28.011 65.784 28.616V29.737ZM65.144 29.239V28.549L64.504 29.037C64.424 29.095 64.395 29.114 64.395 29.162C64.395 29.21 64.435 29.239 64.523 29.239H65.143H65.144ZM66.06 27.676H67.38C68 27.676 68.266 28.002 68.266 28.52V29.747H67.596V28.5C67.596 28.29 67.537 28.203 67.331 28.203H66.74V29.737H66.07V27.676H66.06V27.676ZM70.808 29.737H69.3C68.768 29.737 68.462 29.363 68.462 28.807V28.597C68.462 28.031 68.778 27.667 69.3 27.667H70.137V27.148H70.807V29.738L70.808 29.737ZM70.128 29.229V28.184H69.518C69.222 28.184 69.133 28.309 69.133 28.577V28.846C69.133 29.114 69.222 29.229 69.517 29.229H70.128ZM74.216 28.136C74.216 28.702 73.881 28.874 73.143 28.874H72.522V29.737H71.812V27.148H73.142C73.882 27.148 74.216 27.35 74.216 27.878V28.136V28.136ZM73.507 27.916C73.507 27.753 73.418 27.656 73.162 27.656H72.522V28.366H73.162C73.418 28.366 73.507 28.27 73.507 28.116V27.916ZM75.221 27.676H75.841V28.174H75.369C75.132 28.174 75.063 28.251 75.063 28.453V29.747H74.393V28.443C74.403 28.05 74.63 27.676 75.221 27.676V27.676ZM76.009 27.494V27.091H76.679V27.494H76.009ZM76.009 27.676H76.679V29.747H76.009V27.676ZM78.029 29.191L77.625 29.747H76.895L77.684 28.759L76.876 27.676H77.625L78.038 28.27C78.088 28.337 78.128 28.337 78.176 28.27L78.59 27.676H79.319L78.57 28.702L79.349 29.747H78.599L78.196 29.191C78.136 29.124 78.078 29.114 78.029 29.191V29.191Z" fill="white"/>
</svg>
