<svg width="121" height="54" viewBox="0 0 121 54" fill="none" xmlns="http://www.w3.org/2000/svg">
<path d="M56.503 30.4599C56.773 30.9869 57.134 31.2149 57.134 31.2149H49.722C49.722 31.2149 50.026 30.8819 49.919 30.4779L49.435 29.2839H46.48L45.997 30.4779C45.891 30.8819 46.194 31.2149 46.194 31.2149H40.22C40.22 31.2149 40.555 30.9329 40.771 30.4599L43.941 22.2649C44.154 21.7479 43.801 21.4469 43.801 21.4469H53.309C53.309 21.4469 52.972 21.7529 53.151 22.2799L56.503 30.4599H56.504H56.503ZM48.013 25.7199C47.923 25.5139 47.912 25.2169 47.912 25.2169H47.9C47.9 25.2169 47.888 25.5139 47.797 25.7189C47.771 25.7859 47.059 27.5089 47.059 27.5089H48.752L48.012 25.7189L48.013 25.7199ZM27.884 30.3189V22.0559C27.884 21.6179 27.591 21.4399 27.591 21.4399H39.051V24.5979C39.051 24.5979 38.627 24.1599 38.004 24.1599H33.78V24.9399H37.021C37.202 24.9399 37.756 24.8929 37.901 24.6939L37.896 27.6749C37.758 27.4959 37.203 27.4339 37.022 27.4339H33.782V28.2129H38.003C38.627 28.2129 39.053 27.7779 39.053 27.7779V31.2149H27.53C27.912 31.0299 27.886 30.4009 27.886 30.3179H27.884V30.3189ZM18.325 30.6089L16.228 27.2109V30.3189C16.228 30.4029 16.142 31.0309 16.523 31.2149H9.775C10.155 31.0299 10.13 30.4029 10.13 30.3189V22.0559C10.13 21.6179 9.838 21.4399 9.838 21.4399H16.522C16.522 21.4399 16.227 21.6179 16.227 22.0559L16.23 25.3309L18.539 22.1739C18.869 21.7009 18.494 21.4399 18.494 21.4399H25.259C25.259 21.4579 24.939 21.6299 24.641 22.0119L22.123 25.4239L25.295 30.3989C25.571 30.7599 25.807 30.9319 26.001 31.0749C26.12 31.1649 26.201 31.2159 26.201 31.2159H18.299C18.299 31.2159 18.523 31.0849 18.326 30.6099L18.325 30.6089ZM0 31.2159C0.38 31.0319 0.355 30.4029 0.355 30.3199V22.0569C0.355 21.6169 0.062 21.4409 0.062 21.4409H6.93C6.93 21.4409 6.64 21.6189 6.64 22.0569V30.3179C6.64 30.4019 6.614 31.0309 6.995 31.2149H0V31.2159Z" fill="white"/>
</svg>
