<svg width="180" height="81" viewBox="0 0 180 81" fill="none" xmlns="http://www.w3.org/2000/svg">
<path d="M8.265 29.5318C6.54 29.5318 4.494 31.1738 2.807 33.9318C1.047 36.7878 0 40.3238 0 43.3938C0 47.8908 2.552 52.4238 8.268 52.4238C13.977 52.4238 16.533 47.8908 16.533 43.3938C16.533 40.3218 15.483 36.7858 13.733 33.9298C12.033 31.1698 9.986 29.5308 8.265 29.5308V29.5318ZM52.908 36.2768H58.694V51.1998H64.894V36.2768H70.68V30.7578H52.908V36.2778V36.2768ZM83.906 36.2768H93V30.7578H83.906C75.55 30.7578 71.088 34.8658 71.088 40.9788C71.088 47.0918 75.548 51.1988 83.906 51.1988H93V45.6808H83.906C80.039 45.6808 77.497 44.3128 77.497 40.9788C77.497 37.6448 80.042 36.2768 83.906 36.2768ZM40.297 30.7578L36.99 42.9598L33.685 30.7578H22.733V51.1998H28.933V34.5728L33.438 51.1998H40.547L45.053 34.5608V51.1998H51.253V30.7578H40.296H40.297Z" fill="white"/>
</svg>
