<svg width="120" height="54" viewBox="0 0 120 54" fill="none" xmlns="http://www.w3.org/2000/svg">
<path d="M35.0629 17.4969V18.3089H41.9369C42.3959 18.3089 43.0829 18.3089 43.5419 18.7729C43.9999 19.2379 43.9999 19.9329 43.9999 20.3979V27.3579C43.9999 27.8229 43.9999 28.5179 43.5419 28.9829C43.0829 29.4469 42.3959 29.4469 41.9369 29.4469H38.6149C38.0419 29.4469 37.2969 29.4469 37.0109 28.8089C36.7239 28.1709 37.1249 27.5909 37.4689 27.1269L41.9379 21.0939H35.0619L32.3119 24.8059C31.8519 25.4279 31.4529 25.9659 31.4529 26.6619C31.4529 27.3579 31.8239 27.8599 32.3129 28.5189L32.9999 29.4469C33.6869 30.3749 34.3749 31.3029 35.2919 31.7669C36.2079 32.2309 37.2969 32.2309 38.7859 32.2309H41.7659C43.4839 32.2309 46.0629 32.2309 47.7809 30.4909C49.5009 28.7509 49.5009 26.1979 49.5009 25.2709V22.4859C49.5009 21.5579 49.5009 19.0059 47.7809 17.2659C46.0629 15.5249 43.4839 15.5269 41.7659 15.5259L37.0099 15.5249C36.5519 15.5249 35.9799 15.5249 35.5199 15.9889C35.0619 16.4529 35.0619 17.0329 35.0619 17.4969H35.0629Z" fill="white"/>
<path d="M26.813 21.0938H33.688L25.438 32.2307H18.563L26.813 21.0938ZM0 23.0658C0 22.6018 0 22.0218 0.458 21.5578C0.917 21.0938 1.49 21.0938 1.948 21.0938H13.464C14.954 21.0938 16.042 21.0938 16.958 21.5578C17.875 22.0218 18.563 22.9498 19.25 23.8778L19.938 24.8057C20.426 25.4657 20.797 25.9658 20.797 26.6618C20.797 27.3578 20.398 27.8967 19.937 28.5187L17.187 32.2307H10.312L14.782 26.1978C15.125 25.7338 15.526 25.1538 15.24 24.5158C14.953 23.8778 14.208 23.8778 13.635 23.8778H8.25V37.7997H2.75V23.8778H0V23.0658Z" fill="white"/>
</svg>
