<svg width="120" height="54" viewBox="0 0 120 54" fill="none" xmlns="http://www.w3.org/2000/svg">
<path fill-rule="evenodd" clip-rule="evenodd" d="M16.5409 31.6601C15.8159 31.6601 15.0179 31.5171 14.3649 31.1591C13.7119 30.8001 13.2039 30.2981 12.9139 29.7241C12.5568 29.063 12.3698 28.3235 12.3698 27.5721C12.3698 26.8208 12.5568 26.0812 12.9139 25.4201C13.2759 24.7741 13.7839 24.2721 14.3639 23.9851C15.0179 23.6261 15.7439 23.4111 16.5409 23.4831C17.7749 23.4831 18.9349 23.9851 19.7329 24.9171C19.7329 24.9171 19.8059 24.9891 19.8779 24.9891C19.9509 24.9891 19.9509 24.9891 20.0239 24.9171L21.6919 23.3391C21.7649 23.2671 21.7649 23.1961 21.6919 23.1241C21.0389 22.3341 20.3139 21.7611 19.5159 21.4741C18.5566 21.0479 17.5186 20.8278 16.4689 20.8281C15.2349 20.8281 13.9289 21.1151 12.8409 21.6891C11.8249 22.2631 10.8819 23.0521 10.3019 24.0571C9.64889 25.1331 9.35889 26.2801 9.35889 27.5001C9.35889 28.7201 9.64889 29.8671 10.3019 30.9431C10.9045 31.9592 11.7861 32.7811 12.8419 33.3111C13.9289 33.8851 15.2349 34.1711 16.4689 34.1711C17.5111 34.1682 18.5438 33.974 19.5159 33.5981C20.2633 33.2973 20.933 32.8314 21.4749 32.2351C21.5469 32.1631 21.5469 32.0911 21.4749 32.0201L19.9509 30.2981C19.9509 30.2261 19.8779 30.2261 19.8059 30.2261C19.7329 30.2261 19.7329 30.2261 19.6609 30.2981C18.9349 31.1581 17.7749 31.6611 16.5409 31.6611V31.6601Z" fill="white"/>
<path d="M35.5487 32.3071C34.2427 33.3111 32.6467 33.8131 30.9787 33.8131V36.3231C30.9787 36.3961 30.9057 36.4671 30.8327 36.4671H28.7297C28.6577 36.4671 28.5847 36.3961 28.5847 36.3241V33.8131C26.9167 33.8131 25.3927 33.2391 24.0147 32.3071C22.9257 31.3741 22.3457 30.0111 22.4187 28.6471C22.3457 27.2851 22.9257 25.9221 24.0147 25.0611C25.3207 24.1281 26.9167 23.6261 28.5847 23.5541V20.8281C28.5847 20.7571 28.6577 20.6851 28.7297 20.6851H30.8337C30.9067 20.6851 30.9787 20.7571 30.9787 20.8281V23.5541C32.5757 23.5541 34.1717 24.1281 35.4767 25.0611C36.4927 25.9211 37.0737 27.2851 37.0007 28.6481C37.2187 30.0111 36.6377 31.3741 35.5497 32.3071H35.5487ZM26.0447 30.6571C26.7707 31.2301 27.6407 31.5171 28.5847 31.5891V25.8501C27.7137 25.8501 26.7707 26.2091 26.0447 26.7101C25.5339 27.2258 25.2471 27.9222 25.2467 28.6481C25.2467 29.3651 25.5367 30.1541 26.0447 30.6571V30.6571ZM33.5897 30.6571C34.1038 30.0863 34.3881 29.3452 34.3877 28.5771C34.4607 27.8591 34.1707 27.1411 33.5897 26.6391C32.8647 26.1371 31.9937 25.8501 31.0507 25.7791V31.5171C31.9937 31.5171 32.8647 31.2301 33.5907 30.6571H33.5897ZM48.9697 29.5091H41.3527C41.4977 30.0831 41.7877 30.6571 42.2957 31.0151C42.8757 31.3741 43.5287 31.5891 44.1817 31.5891C44.6733 31.588 45.162 31.5155 45.6327 31.3741C45.9957 31.2301 46.2857 31.0151 46.5757 30.7281C46.5757 30.7281 46.6487 30.6571 46.7217 30.6571C46.7937 30.6571 46.7937 30.6571 46.8667 30.7281L48.1727 32.1631C48.2447 32.2351 48.2447 32.3071 48.1727 32.3781C47.6494 32.8934 47.0241 33.2937 46.337 33.5532C45.6499 33.8128 44.9161 33.9258 44.1827 33.8851C43.1667 33.8851 42.0777 33.6701 41.2077 33.2391C40.3377 32.8091 39.6837 32.1631 39.1757 31.3741C38.6687 30.5841 38.4507 29.6521 38.4507 28.6481C38.4507 27.7151 38.6687 26.7831 39.1757 25.9931C39.6202 25.1834 40.305 24.5317 41.1357 24.1281C42.8037 23.2681 44.8357 23.2681 46.5037 24.1281C47.3017 24.5581 47.9537 25.1331 48.3897 25.9221C48.8977 26.7821 49.1157 27.7151 49.1157 28.7201C49.0427 28.7201 48.9707 29.0071 48.9707 29.5091H48.9697ZM42.1507 26.2091C41.7157 26.6391 41.4247 27.1411 41.3527 27.7871H46.3587C46.2857 27.2131 45.9957 26.6391 45.5607 26.2801C45.088 25.9007 44.4978 25.6981 43.8917 25.7071C43.2681 25.64 42.643 25.8203 42.1507 26.2091V26.2091ZM58.9817 24.2001C59.7077 24.6301 60.3607 25.2041 60.7957 25.9931C61.2307 26.7831 61.4487 27.7151 61.4487 28.6481C61.4487 29.5801 61.2307 30.5131 60.7957 31.3741C60.3432 32.1082 59.7211 32.7231 58.9817 33.1671C58.2022 33.5899 57.3296 33.8119 56.4427 33.8131C55.8758 33.8521 55.3073 33.7627 54.7798 33.5514C54.2522 33.3402 53.7791 33.0126 53.3957 32.5931V36.3231C53.3957 36.3961 53.3237 36.4671 53.2507 36.4671H50.7837C50.7117 36.4671 50.6387 36.3961 50.6387 36.3241V23.8401C50.6387 23.7691 50.7117 23.6971 50.7837 23.6971H53.1057C53.1777 23.6971 53.2507 23.7691 53.2507 23.8401V24.8451C54.0487 23.9841 55.2097 23.4821 56.3707 23.5531C57.3857 23.5531 58.2567 23.7691 58.9817 24.1991V24.2001ZM57.8217 30.6571C58.3287 30.0831 58.5467 29.3651 58.5467 28.6471C58.6197 27.9301 58.3287 27.2131 57.8217 26.6391C57.3271 26.156 56.6631 25.8856 55.9717 25.8856C55.2804 25.8856 54.6164 26.156 54.1217 26.6391C53.6137 27.2131 53.3957 27.9301 53.3957 28.6481C53.3237 29.3651 53.6137 30.0831 54.1217 30.6571C54.6164 31.1401 55.2804 31.4105 55.9717 31.4105C56.6631 31.4105 57.3271 31.1401 57.8217 30.6571ZM73.6367 23.8411V33.3831C73.6367 33.4541 73.5647 33.5261 73.4917 33.5261H71.1707C71.0977 33.5261 71.0247 33.4541 71.0247 33.3831V32.3781C70.2267 33.2391 69.0667 33.7411 67.9047 33.6701C67.0347 33.6701 66.0917 33.4541 65.3667 33.0241C64.6407 32.5941 63.9877 32.0201 63.5527 31.2301C63.1162 30.3882 62.8921 29.4524 62.8997 28.5041C62.8997 27.5721 63.1177 26.6391 63.5527 25.8501C63.9645 25.0845 64.5964 24.4599 65.3667 24.0571C66.1463 23.6342 67.0189 23.4122 67.9057 23.4111C69.0657 23.3391 70.1547 23.7701 70.8797 24.6311V23.6981C70.8797 23.6261 70.9527 23.5541 71.0247 23.5541H73.4197C73.5647 23.6981 73.6367 23.7701 73.6367 23.8411ZM70.1547 30.6571C70.6627 30.0831 70.8797 29.3651 70.8797 28.6471C70.9527 27.9301 70.6627 27.2131 70.1547 26.6391C69.6467 26.1371 68.9947 25.8501 68.3407 25.9221C67.6157 25.9221 66.9627 26.1371 66.5267 26.6391C66.0197 27.2131 65.8017 27.9301 65.8017 28.6481C65.7287 29.3651 66.0197 30.0831 66.5267 30.6571C67.0347 31.1591 67.6877 31.3741 68.3407 31.3741C68.9937 31.3741 69.7197 31.1591 70.1547 30.6571Z" fill="white"/>
<path fill-rule="evenodd" clip-rule="evenodd" d="M24.667 20.254L23.216 21.617C23.216 21.617 23.143 21.689 23.071 21.689C22.998 21.689 22.998 21.689 22.925 21.617C20.169 18.461 15.525 17.6 11.753 19.537C7.97998 21.474 6.09398 25.707 7.10998 29.796C8.19798 33.813 11.898 36.611 16.106 36.611C16.178 36.611 16.251 36.611 16.251 36.683C16.251 37.185 16.178 38.691 16.178 38.691C16.178 38.763 16.106 38.835 16.033 38.835C11.1 38.907 6.67498 35.75 5.15098 31.087C4.57592 29.3862 4.42073 27.5715 4.69863 25.7976C4.97654 24.0238 5.67929 22.3435 6.74698 20.9C8.92398 17.959 12.333 16.165 16.033 16.165C19.298 16.165 22.418 17.528 24.594 20.039C24.739 20.111 24.739 20.254 24.667 20.254V20.254Z" fill="white"/>
<path fill-rule="evenodd" clip-rule="evenodd" d="M15.6699 43.3542C8.70688 43.1402 2.68488 38.5482 0.725878 31.9482C-1.23212 25.3482 1.37888 18.2462 7.11088 14.3722C9.72288 12.5782 12.9149 11.6462 16.1069 11.7172C16.1789 11.7172 16.2519 11.7892 16.2519 11.8612V13.8702C16.2519 13.9412 16.1789 13.9412 16.1789 13.9412C13.4471 13.8686 10.7602 14.6457 8.48888 16.1652C3.48288 19.4652 1.23388 25.5632 2.97588 31.3022C4.71588 37.0422 9.93988 40.9152 15.9619 40.9872H16.1069C18.4646 40.9871 20.7845 40.395 22.8539 39.2652C22.9259 39.1932 23.0719 39.2652 23.0719 39.3372L24.0869 40.9872V41.1302C24.0869 41.2022 24.0149 41.2022 24.0149 41.2742C21.6209 42.6372 18.9359 43.2832 16.1789 43.2832L15.6719 43.3542H15.6699Z" fill="white"/>
</svg>
