<svg width="120" height="54" viewBox="0 0 120 54" fill="none" xmlns="http://www.w3.org/2000/svg">
<path fill-rule="evenodd" clip-rule="evenodd" d="M0.002 16V19.13H23.142V16H0.002ZM23.142 21.984H12.092V38.289H10.962V21.985H0V19.703H23.141V21.983L23.142 21.984ZM51.002 31.435L51 31.436H52.682L50.021 27.486L52.424 24.663H50.678L48.891 26.773L48.436 27.367V21.821H46.982V31.435H48.435V29.226L49.082 28.531L51.002 31.436V31.435ZM39.936 23.6V22.323H33.027V23.6H35.719V31.437H37.22V23.6H39.936ZM44.713 31.227H44.712V31.226C45.136 31.011 45.494 30.686 45.75 30.286L44.966 29.502C44.7856 29.766 44.5428 29.9813 44.2591 30.1287C43.9754 30.2761 43.6597 30.3511 43.34 30.347C43.1198 30.3532 42.9007 30.313 42.697 30.2289C42.4934 30.1448 42.3097 30.0188 42.158 29.859C41.846 29.533 41.667 29.091 41.623 28.532H45.852V27.918C45.852 26.841 45.612 26.009 45.131 25.42C44.65 24.832 43.97 24.538 43.088 24.538C42.5529 24.5329 42.0284 24.6878 41.582 24.983C41.122 25.29 40.757 25.721 40.532 26.225C40.2748 26.7942 40.147 27.4134 40.158 28.038V28.225C40.158 29.235 40.443 30.044 41.016 30.651C41.588 31.258 42.334 31.561 43.256 31.561C43.7615 31.5686 44.2613 31.454 44.713 31.227V31.227ZM44.028 26.15H44.026C43.801 25.89 43.486 25.76 43.082 25.76C42.8983 25.754 42.7156 25.7903 42.5481 25.866C42.3806 25.9418 42.2328 26.055 42.116 26.197C41.871 26.489 41.716 26.897 41.646 27.417H44.416V27.306C44.384 26.796 44.254 26.412 44.028 26.15ZM53.741 23.018V23.016H55.194V24.663H56.336V25.792H55.194V29.572C55.194 29.83 55.243 30.017 55.34 30.132C55.438 30.247 55.612 30.304 55.864 30.304C56.034 30.304 56.206 30.282 56.372 30.241V31.417C56.0612 31.5105 55.7386 31.559 55.414 31.561C54.299 31.561 53.74 30.917 53.74 29.627V25.79H52.675V24.664H53.74V23.018H53.741ZM61.313 31.436H62.796V31.329C62.632 30.967 62.55 30.481 62.55 29.872V26.817C62.539 26.095 62.307 25.535 61.857 25.137C61.406 24.738 60.802 24.538 60.044 24.538C59.5777 24.5315 59.1156 24.6257 58.689 24.814C58.3082 24.9789 57.9775 25.241 57.73 25.574C57.5027 25.874 57.3789 26.2396 57.377 26.616H58.83C58.828 26.4888 58.8557 26.3629 58.9109 26.2484C58.9661 26.1338 59.0473 26.0337 59.148 25.956C59.3797 25.7759 59.6678 25.6837 59.961 25.696C60.343 25.696 60.628 25.802 60.816 26.012C61.012 26.248 61.112 26.548 61.097 26.854V27.299H60.206C59.253 27.299 58.521 27.493 58.008 27.879C57.495 28.264 57.239 28.819 57.239 29.539C57.229 30.086 57.453 30.61 57.855 30.979C58.266 31.367 58.796 31.561 59.447 31.561C60.097 31.57 60.717 31.293 61.145 30.804C61.172 31.021 61.229 31.234 61.313 31.436V31.436ZM58.971 30.081C59.177 30.262 59.443 30.355 59.716 30.341C59.999 30.341 60.279 30.266 60.526 30.121C60.768 29.986 60.966 29.782 61.096 29.533V28.256H60.313C59.775 28.256 59.37 28.354 59.099 28.551C58.9671 28.6448 58.8608 28.7702 58.7898 28.9158C58.7189 29.0613 58.6856 29.2223 58.693 29.384C58.6874 29.5132 58.7092 29.6422 58.7572 29.7623C58.8051 29.8825 58.878 29.9911 58.971 30.081V30.081ZM73.939 26.761V26.76H70.637V27.962H72.432V29.746C72.105 30.112 71.555 30.296 70.782 30.296C70.075 30.296 69.524 30.026 69.128 29.481C68.731 28.936 68.532 28.173 68.532 27.189V26.489C68.544 25.5 68.726 24.752 69.08 24.241C69.432 23.731 69.948 23.475 70.625 23.475C71.674 23.475 72.282 24.025 72.45 25.122H73.933C73.817 24.178 73.474 23.455 72.904 22.952C72.334 22.449 71.565 22.198 70.596 22.198C69.467 22.198 68.587 22.585 67.958 23.358C67.328 24.132 67.014 25.209 67.014 26.586V27.299C67.0078 28.0767 67.1694 28.8465 67.488 29.556C67.766 30.169 68.218 30.686 68.789 31.042C69.3732 31.3942 70.045 31.5742 70.727 31.561C71.377 31.571 72.022 31.459 72.629 31.229C73.1502 31.0359 73.6049 30.6971 73.939 30.253V26.76V26.761ZM78.856 24.626L78.849 26.053C78.6534 26.0196 78.4554 26.0028 78.257 26.003C77.591 26.003 77.142 26.271 76.911 26.805V31.437H75.458V24.664H76.846L76.882 25.422C77.232 24.832 77.718 24.538 78.342 24.538C78.516 24.533 78.692 24.563 78.855 24.626H78.856ZM79.28 27.987V28.062C79.28 29.123 79.554 29.971 80.102 30.607C80.65 31.243 81.382 31.561 82.295 31.561C82.8524 31.5726 83.4013 31.4233 83.876 31.131C84.339 30.835 84.706 30.411 84.929 29.91C85.1821 29.3477 85.3078 28.7365 85.297 28.12L85.292 27.762C85.247 26.789 84.952 26.01 84.408 25.422C83.864 24.833 83.156 24.538 82.282 24.538C81.7292 24.5281 81.1853 24.6773 80.715 24.968C80.2512 25.2654 79.8839 25.6914 79.658 26.194C79.3994 26.7559 79.2699 27.3685 79.279 27.987H79.28ZM81.152 26.351C80.872 26.745 80.734 27.334 80.734 28.118C80.734 28.816 80.871 29.361 81.146 29.755C81.408 30.144 81.84 30.366 82.295 30.347C82.755 30.363 83.19 30.135 83.439 29.747C83.713 29.347 83.849 28.76 83.849 27.987C83.849 27.303 83.709 26.76 83.428 26.361C83.3004 26.1773 83.1307 26.0268 82.9331 25.9221C82.7355 25.8174 82.5156 25.7615 82.292 25.759C82.0686 25.7594 81.8486 25.8133 81.6502 25.9161C81.4519 26.0189 81.2811 26.1677 81.152 26.35V26.351ZM90.445 30.773L90.483 31.436H91.853V24.664H90.398V29.527C90.152 30.057 89.676 30.322 88.969 30.322C88.288 30.322 87.947 29.892 87.946 29.033V24.664H86.493V29.052C86.493 29.866 86.673 30.488 87.034 30.918C87.395 31.347 87.927 31.563 88.628 31.561C89.415 31.561 90.021 31.298 90.445 30.773V30.773ZM99 28.026V28.117C99 29.165 98.772 30.001 98.318 30.625C98.115 30.921 97.8413 31.1615 97.5217 31.3248C97.2021 31.4881 96.8468 31.5689 96.488 31.56C95.778 31.56 95.21 31.317 94.784 30.828V34.039H93.33V24.664H94.67L94.729 25.352C95.155 24.81 95.736 24.538 96.47 24.538C97.259 24.538 97.878 24.847 98.326 25.463C98.776 26.076 99 26.931 99 28.025V28.026ZM97.552 27.986C97.552 28.78 97.422 29.371 97.161 29.761C97.0472 29.9453 96.887 30.0964 96.6964 30.1992C96.5058 30.3021 96.2915 30.353 96.075 30.347C95.477 30.347 95.046 30.084 94.784 29.559V26.554C95.042 26.04 95.468 25.784 96.063 25.784C96.511 25.767 96.933 25.994 97.166 26.377C97.423 26.775 97.552 27.311 97.552 27.987V27.986ZM16.982 27.006V38.29H15.846V25.065H23.142V27.006H16.982ZM14.541 24.496H23.141V22.554H13.4V38.29H14.54V24.495L14.541 24.496ZM0 22.553H9.652V38.29H8.515V24.495H0.002V22.555L0 22.553ZM0 27.577H4.77V38.29H3.585V29.51L3.571 29.512V29.51H0.002V27.578L0 27.577ZM0.001 25.066V25.065V25.066ZM0.001 27.004V25.066H7.211V38.29H6.073V27.04L6.057 27.044V27.004H0.002H0.001ZM0.001 30.088H2.371V38.29H1.213V31.267H0.002V30.087L0.001 30.088ZM19.421 29.509V38.289H18.286V27.578H23.142V29.51H19.422L19.421 29.509ZM21.877 31.268H23.14V30.088H20.727V38.289H21.877V31.27V31.268Z" fill="white"/>
</svg>
