<svg width="121" height="54" viewBox="0 0 121 54" fill="none" xmlns="http://www.w3.org/2000/svg">
<path d="M75.784 30.7299C75.891 30.6739 75.97 30.5369 76.048 29.9159L76.151 29.0429H77.852V30.7289H78.212V31.1589L78.147 32.0049H77.572V31.2419H76.282V32.0049H75.705L75.642 31.1599V30.7299H75.784V30.7299ZM76.44 30.7299H77.183V29.5539H76.681L76.625 30.0639C76.592 30.3489 76.529 30.5669 76.44 30.7289V30.7299ZM33.766 20.8099V22.2029H27.114V22.9999H33.785C33.785 23.4099 33.817 23.7729 33.774 24.1269C33.746 24.3599 33.524 24.4349 33.284 24.4339C32.188 24.4289 31.092 24.4319 29.997 24.4319H27.105V25.0619H33.771V26.4759C33.655 26.4839 33.533 26.4999 33.411 26.4999C31.418 26.5009 29.425 26.4949 27.432 26.5039C26.833 26.5059 26.024 25.8939 25.775 25.4099C25.599 25.0679 25.622 24.7539 25.613 24.4229C25.596 23.8439 25.641 23.2629 25.6 22.6859C25.545 21.9219 25.983 21.4339 26.537 21.0339C26.764 20.8709 27.105 20.7949 27.396 20.7919C29.435 20.7719 31.474 20.7809 33.514 20.7819C33.598 20.7879 33.682 20.7979 33.766 20.8119V20.8099ZM79.323 26.4999H75.596C74.838 26.4999 74.08 26.4849 73.323 26.5039C72.534 26.5239 71.907 26.2109 71.453 25.6179C71.278 25.3879 71.196 25.0479 71.181 24.7539C71.1335 24.028 71.1338 23.2997 71.182 22.5739C71.23 21.9789 71.44 21.4469 72.072 21.1339C72.5261 20.895 73.0318 20.7707 73.545 20.7719C75.456 20.7879 77.368 20.7789 79.313 20.7789V22.2249H78.892C76.98 22.2249 75.069 22.2299 73.157 22.2199C72.921 22.2189 72.745 22.3019 72.653 22.4839C72.539 22.7089 72.771 22.9879 73.061 22.9969C73.352 23.0059 73.644 22.9989 73.935 22.9989H79.345C79.345 23.4189 79.347 23.8029 79.345 24.1859C79.344 24.4329 79.169 24.4329 78.982 24.4319C77.782 24.4289 76.581 24.4309 75.38 24.4309C74.634 24.4309 73.888 24.4299 73.142 24.4319C72.992 24.4319 72.842 24.4459 72.668 24.4549V25.0379H79.323V26.4999V26.4999ZM56.876 26.4919C56.211 26.4919 55.546 26.4799 54.882 26.4949C54.272 26.5179 53.682 26.2899 53.252 25.8659C53.103 25.709 52.9868 25.5241 52.91 25.3219C52.662 24.7339 52.75 24.1079 52.713 23.4939C52.681 22.9579 52.725 22.4239 52.932 21.9469C53.062 21.6459 53.37 21.3669 53.669 21.1949C54.43 20.7579 55.291 20.7649 56.149 20.7899C56.789 20.8079 57.434 20.8339 58.071 20.7819C58.693 20.7299 59.273 20.9069 59.863 21.0079C60.081 21.0449 60.274 21.2759 60.456 21.4429C60.809 21.7669 60.922 22.1759 60.906 22.6489C60.876 23.4769 60.908 24.3079 60.873 25.1359C60.855 25.5709 60.543 25.8459 60.198 26.1099C59.621 26.5519 58.965 26.4909 58.31 26.4919H56.876V26.4919ZM54.372 25.0319H59.386V22.4099H54.372V25.0329V25.0319ZM89.224 26.4759V23.3459C89.224 22.6419 89.23 21.9379 89.222 21.2339C89.219 20.9349 89.388 20.8129 89.657 20.7969C89.9135 20.7845 90.1704 20.7838 90.427 20.7949C90.711 20.8049 90.862 20.9629 90.867 21.2349C90.875 21.6999 90.874 22.1649 90.867 22.6319C90.864 22.8919 90.942 23.0089 91.249 23.0069C92.88 22.9959 94.512 23.0069 96.144 23.0149C96.7 23.0179 97.087 23.3429 97.388 23.7379C97.578 23.9879 97.736 24.3079 97.765 24.6109C97.792 24.8939 97.646 25.1989 97.545 25.4829C97.4881 25.6286 97.398 25.759 97.282 25.8639C97.122 26.0269 96.938 26.1639 96.734 26.2689C96.488 26.3809 96.21 26.4869 95.945 26.4889C93.824 26.5069 91.703 26.4989 89.581 26.4989C89.478 26.4989 89.375 26.4859 89.224 26.4759V26.4759ZM90.886 25.0479H96.136V24.4539H90.886V25.0479ZM70.331 25.0309V26.4649C70.2769 26.4813 70.2213 26.4923 70.165 26.4979C67.915 26.4979 65.665 26.5119 63.415 26.4809C62.805 26.4729 62.279 26.1589 61.954 25.6479C61.804 25.4119 61.741 25.0899 61.736 24.8049C61.712 23.6229 61.725 22.4409 61.726 21.2589C61.726 20.9409 61.872 20.7999 62.203 20.7939C62.401 20.7909 62.603 20.8159 62.797 20.7889C63.147 20.7399 63.208 20.9179 63.207 21.2009C63.199 22.2919 63.203 23.3829 63.204 24.4739C63.204 24.9289 63.322 25.0449 63.786 25.0449C65.138 25.0449 66.491 25.0349 67.843 25.0529C68.159 25.0569 68.247 24.9469 68.245 24.6649C68.237 23.5399 68.241 22.4149 68.242 21.2899C68.242 20.9359 68.39 20.7969 68.762 20.7939C68.96 20.7919 69.158 20.7919 69.357 20.7939C69.696 20.7959 69.869 20.9659 69.87 21.3099C69.873 22.3999 69.873 23.4919 69.87 24.5829C69.87 24.8659 69.87 25.1409 70.33 25.0309H70.331ZM42.831 26.4879H41.35V26.1149C41.35 24.9569 41.344 23.7979 41.355 22.6399C41.358 22.3419 41.275 22.2159 40.939 22.2189C39.356 22.2329 37.772 22.2249 36.132 22.2249V26.4699H34.625C34.62 26.3609 34.608 26.2419 34.608 26.1229V21.2849C34.608 20.7939 34.61 20.7939 35.109 20.7939L42.449 20.7919C42.644 20.7919 42.833 20.7719 42.833 21.0449V26.4879H42.831ZM52.045 26.4779H50.4V26.0939C50.4 24.9459 50.394 23.7979 50.404 22.6499C50.407 22.3479 50.338 22.2069 49.978 22.2159C48.964 22.2419 47.949 22.2239 46.935 22.2259C46.574 22.2259 46.419 22.3769 46.417 22.7289C46.415 23.3879 46.373 24.0499 46.426 24.7049C46.476 25.3409 46.099 25.7219 45.697 26.0989C45.131 26.6309 44.409 26.4949 43.693 26.4929V25.0769H44.93C44.93 24.3399 44.947 23.6389 44.926 22.9399C44.902 22.1629 45.286 21.6149 45.884 21.1659C46.2226 20.9195 46.6323 20.7903 47.051 20.7979C48.531 20.7859 50.012 20.7929 51.493 20.7939C51.921 20.7939 52.046 20.9139 52.046 21.3219V26.4779H52.045ZM86.909 22.2279C85.613 22.2279 84.391 22.2259 83.169 22.2289C82.909 22.2289 82.923 22.4239 82.922 22.5959C82.92 23.2999 82.91 24.0059 82.922 24.7099C82.932 25.2999 82.6 25.7099 82.202 26.0889C81.626 26.6349 80.907 26.4899 80.197 26.4939V25.0779H81.42C81.43 24.9429 81.442 24.8449 81.442 24.7469C81.444 24.1099 81.488 23.4699 81.431 22.8379C81.369 22.1699 81.701 21.6669 82.127 21.2699C82.412 21.0029 82.898 20.8269 83.301 20.8139C84.885 20.7639 86.472 20.7989 88.058 20.7879C88.308 20.7859 88.392 20.8829 88.392 21.0999V26.4749H86.91V22.2279H86.909ZM21.414 26.4929H19.941V26.1289V22.7539C19.941 22.2259 19.941 22.2249 19.415 22.2249H16.615V20.7939H16.992C19.452 20.7939 21.912 20.8009 24.371 20.7849C24.71 20.7829 24.794 20.8999 24.781 21.1929C24.767 21.5199 24.778 21.8479 24.778 22.2249H24.348C23.508 22.2249 22.668 22.2389 21.83 22.2179C21.506 22.2099 21.405 22.3119 21.409 22.6229C21.423 23.7819 21.414 24.9409 21.414 26.0999V26.4929ZM1.27698 20.7699C1.52098 20.7699 1.76598 20.7679 2.00998 20.7699C2.34998 20.7749 2.51598 20.9329 2.51798 21.2619C2.52198 21.7159 2.52098 22.1689 2.51898 22.6229C2.51798 23.0979 2.39198 23.2229 1.90698 23.2249C1.47698 23.2269 1.04598 23.2269 0.614977 23.2249C0.134977 23.2219 0.00297656 23.0929 0.000976562 22.6249V21.3309C0.00297656 20.9009 0.136977 20.7719 0.577977 20.7699H1.27698V20.7699ZM10.052 31.8189H9.35198C8.96698 31.8149 8.81998 31.6689 8.81798 31.2829C8.81498 30.8289 8.81498 30.3739 8.81798 29.9189C8.81998 29.4959 8.95798 29.3649 9.40098 29.3639C9.85598 29.3619 10.311 29.3619 10.766 29.3639C11.202 29.3649 11.334 29.4969 11.336 29.9339V31.2639C11.334 31.6879 11.198 31.8169 10.752 31.8189H10.052V31.8189ZM1.67998 31.8189H0.944977C0.594977 31.8149 0.423977 31.6509 0.421977 31.3069C0.418944 30.8409 0.418944 30.3749 0.421977 29.9089C0.422977 29.5109 0.571977 29.3649 0.980977 29.3639C1.44698 29.3619 1.91298 29.3619 2.37998 29.3639C2.78798 29.3649 2.93698 29.5099 2.93898 29.9099C2.94098 30.3639 2.94098 30.8199 2.93898 31.2739C2.93698 31.6729 2.78898 31.8159 2.37898 31.8179C2.14598 31.8199 1.91298 31.8179 1.67898 31.8179L1.67998 31.8189ZM10.069 28.9539H9.40398C8.94198 28.9519 8.81898 28.8289 8.81698 28.3669V27.0709C8.81898 26.6209 8.94698 26.5009 9.41998 26.4989H10.75C11.211 26.5009 11.334 26.6239 11.336 27.0869V28.3829C11.334 28.8329 11.208 28.9529 10.733 28.9539H10.069V28.9539ZM4.18298 28.9539C3.93898 28.9539 3.69298 28.9559 3.44898 28.9539C3.11098 28.9499 2.94398 28.7899 2.94098 28.4619C2.93698 27.9959 2.93798 27.5299 2.93998 27.0639C2.94198 26.6299 3.07398 26.5009 3.51498 26.4989H4.87898C5.32398 26.5009 5.45598 26.6289 5.45898 27.0599V28.3899C5.45598 28.8259 5.32698 28.9519 4.88298 28.9539H4.18298ZM4.18998 20.7699C4.44598 20.7699 4.70198 20.7669 4.95798 20.7699C5.28998 20.7749 5.45498 20.9379 5.45798 21.2699C5.46098 21.7349 5.45998 22.1999 5.45798 22.6659C5.45598 23.0829 5.31098 23.2219 4.87298 23.2239C4.42998 23.2269 3.98798 23.2269 3.54498 23.2239C3.07798 23.2219 2.94198 23.0929 2.93998 22.6499C2.93798 22.2069 2.93798 21.7649 2.93998 21.3219C2.94198 20.9169 3.08698 20.7729 3.49098 20.7699C3.72398 20.7679 3.95698 20.7699 4.18998 20.7699ZM11.336 24.8649C11.336 25.1029 11.339 25.3409 11.336 25.5799C11.331 25.9099 11.152 26.0849 10.804 26.0879C10.35 26.0915 9.89597 26.0918 9.44198 26.0889C8.94498 26.0869 8.81898 25.9589 8.81698 25.4649V24.2049C8.81898 23.7569 8.94698 23.6349 9.41898 23.6349C9.87298 23.6329 10.327 23.6339 10.781 23.6349C11.187 23.6369 11.333 23.7819 11.336 24.1839C11.338 24.4109 11.336 24.6379 11.336 24.8639V24.8649ZM8.39698 24.8499C8.39698 25.0879 8.39998 25.3269 8.39698 25.5649C8.39198 25.9349 8.23698 26.0849 7.84598 26.0889C7.37998 26.0929 6.91398 26.0929 6.44898 26.0889C6.02298 26.0849 5.88098 25.9399 5.87898 25.5139C5.87698 25.0709 5.87698 24.6289 5.87898 24.1859C5.88098 23.7819 6.02598 23.6359 6.42998 23.6349C6.89598 23.6329 7.36198 23.6329 7.82698 23.6349C8.26298 23.6359 8.39398 23.7679 8.39698 24.2029V24.8499V24.8499ZM8.39698 21.9999C8.39698 22.2389 8.39998 22.4769 8.39698 22.7149C8.39198 23.0459 8.21298 23.2199 7.86598 23.2239C7.41198 23.2279 6.95798 23.2269 6.50398 23.2239C6.00698 23.2229 5.87998 23.0939 5.87898 22.6009V21.3409C5.88098 20.8929 6.00898 20.7709 6.47998 20.7699H7.84298C8.24798 20.7719 8.39298 20.9169 8.39698 21.3199C8.39898 21.5459 8.39698 21.7729 8.39698 21.9999V21.9999ZM10.108 20.7699C10.353 20.7699 10.597 20.7669 10.841 20.7699C11.151 20.7749 11.331 20.9449 11.334 21.2419C11.339 21.7179 11.338 22.1949 11.335 22.6719C11.334 23.0719 11.185 23.2199 10.779 23.2239C10.337 23.2279 9.89398 23.2259 9.45198 23.2239C8.93098 23.2229 8.81898 23.1139 8.81698 22.6099C8.81698 22.1789 8.81498 21.7479 8.81698 21.3159C8.81998 20.9189 8.96998 20.7729 9.37498 20.7699H10.108V20.7699ZM16.588 30.1429C16.588 29.4099 17.143 28.9879 17.738 28.9879C18.334 28.9879 18.889 29.4099 18.889 30.1429C18.889 30.8729 18.334 31.2939 17.739 31.2939C17.143 31.2939 16.588 30.8719 16.588 30.1429ZM18.204 30.1429C18.204 29.7609 18.047 29.5149 17.739 29.5149C17.43 29.5149 17.273 29.7609 17.273 30.1429C17.273 30.5229 17.43 30.7679 17.739 30.7679C18.047 30.7679 18.204 30.5229 18.204 30.1429ZM20.691 29.5529H19.891V29.0419H22.163V29.5529H21.363V31.2409H20.691V29.5529V29.5529ZM23.164 30.1429C23.164 29.4099 23.72 28.9879 24.315 28.9879C24.91 28.9879 25.465 29.4099 25.465 30.1429C25.465 30.8729 24.91 31.2939 24.315 31.2939C23.72 31.2939 23.165 30.8719 23.165 30.1429H23.164ZM24.781 30.1429C24.781 29.7609 24.623 29.5149 24.315 29.5149C24.007 29.5149 23.85 29.7609 23.85 30.1429C23.85 30.5229 24.007 30.7679 24.315 30.7679C24.623 30.7679 24.781 30.5229 24.781 30.1429ZM26.567 29.0419H28.64V31.2419H27.97V29.5529H27.236V31.2409H26.566V29.0409L26.567 29.0419ZM29.861 29.0419H30.507V29.6519C30.507 29.8729 30.474 30.1649 30.451 30.4329H30.465C30.538 30.2999 30.658 30.1019 30.727 29.9729L31.315 29.0419H31.923V31.2419H31.277V30.6299C31.277 30.4099 31.309 30.1209 31.336 29.8479H31.318C31.246 29.9809 31.128 30.1839 31.06 30.3089L30.469 31.2409H29.861V29.0409V29.0419ZM33.845 29.5529H33.043V29.0419H35.316V29.5529H34.516V31.2409H33.845V29.5529V29.5529ZM36.354 30.1399C36.354 29.4199 36.924 28.9879 37.528 28.9879C38.224 28.9879 38.59 29.4459 38.59 30.0439C38.589 30.1419 38.58 30.2399 38.562 30.3359H36.85V29.8999H38.11L38.004 30.0239C38.004 29.6709 37.847 29.4859 37.55 29.4859C37.22 29.4859 37.003 29.7039 37.003 30.1409C37.003 30.5969 37.257 30.7979 37.696 30.7979C37.9 30.7939 38.099 30.7419 38.277 30.6449L38.499 31.0379C38.2294 31.2022 37.9206 31.291 37.605 31.2949C36.901 31.2949 36.354 30.8719 36.354 30.1409V30.1399ZM39.455 31.2459L39.567 30.6579C39.604 30.6689 39.642 30.6749 39.68 30.6759C39.802 30.6759 39.892 30.5859 39.923 30.3489C39.983 29.9149 40.027 29.4789 40.079 29.0419H41.779V31.2419H41.109V29.5529H40.609C40.569 29.8749 40.529 30.2099 40.483 30.5309C40.409 31.0229 40.16 31.2939 39.725 31.2939C39.6327 31.2953 39.5411 31.279 39.455 31.2459V31.2459ZM43.049 29.0419H43.719V29.7419H44.196C44.766 29.7419 45.202 29.9319 45.202 30.4799C45.202 31.0489 44.766 31.2409 44.196 31.2409H43.05V29.0409L43.049 29.0419ZM44.166 30.7439C44.433 30.7439 44.56 30.6579 44.56 30.4799C44.56 30.3089 44.433 30.2249 44.166 30.2249H43.718V30.7439H44.166ZM46.296 29.0419H46.966V29.8349H47.7V29.0419H48.37V31.2419H47.7V30.4049H46.966V31.2409H46.296V29.0409V29.0419ZM49.471 30.1419C49.471 29.4099 50.026 28.9879 50.621 28.9879C51.217 28.9879 51.771 29.4099 51.771 30.1429C51.771 30.8729 51.217 31.2939 50.621 31.2939C50.026 31.2939 49.471 30.8719 49.471 30.1429V30.1419ZM51.087 30.1419C51.087 29.7619 50.929 29.5149 50.621 29.5149C50.313 29.5149 50.156 29.7609 50.156 30.1429C50.156 30.5229 50.313 30.7679 50.621 30.7679C50.929 30.7679 51.087 30.5229 51.087 30.1429V30.1419ZM52.795 30.1399C52.795 29.4199 53.365 28.9879 53.969 28.9879C54.665 28.9879 55.031 29.4459 55.031 30.0439C55.03 30.1419 55.021 30.2399 55.003 30.3359H53.291V29.8999H54.551L54.445 30.0239C54.445 29.6709 54.288 29.4849 53.991 29.4849C53.661 29.4849 53.444 29.7039 53.444 30.1409C53.444 30.5969 53.699 30.7979 54.137 30.7979C54.341 30.7939 54.541 30.7419 54.719 30.6449L54.94 31.0379C54.6704 31.2022 54.3616 31.2909 54.046 31.2949C53.343 31.2949 52.796 30.8719 52.796 30.1409L52.795 30.1399ZM59.335 30.1429C59.335 29.4099 59.891 28.9879 60.486 28.9879C61.081 28.9879 61.636 29.4099 61.636 30.1429C61.636 30.8729 61.081 31.2939 60.486 31.2939C59.891 31.2939 59.336 30.8719 59.336 30.1429H59.335ZM60.952 30.1429C60.952 29.7609 60.794 29.5149 60.486 29.5149C60.178 29.5149 60.021 29.7609 60.021 30.1429C60.021 30.5229 60.178 30.7679 60.486 30.7679C60.794 30.7679 60.952 30.5229 60.952 30.1429ZM62.682 29.8659C62.682 28.5539 63.27 28.2459 64.113 28.1339C64.391 28.0979 64.518 28.0679 64.662 28.0039L64.789 28.5709C64.669 28.6629 64.459 28.7109 64.253 28.7379C63.443 28.8419 63.322 28.8669 63.322 30.0199C63.322 30.5179 63.5 30.7679 63.8 30.7679C64.059 30.7679 64.188 30.5359 64.188 30.1689C64.188 29.7769 64.038 29.6319 63.796 29.6319C63.7001 29.6336 63.6061 29.6595 63.5229 29.7072C63.4397 29.7549 63.3699 29.8229 63.32 29.9049L63.29 29.4899C63.372 29.3812 63.4789 29.2938 63.6018 29.2351C63.7247 29.1765 63.8599 29.1482 63.996 29.1529C64.474 29.1529 64.874 29.4949 64.874 30.1689C64.874 30.8469 64.427 31.2939 63.808 31.2939C63.088 31.2939 62.682 30.7599 62.682 29.8659V29.8659ZM65.912 30.1429C65.912 29.4099 66.467 28.9879 67.062 28.9879C67.658 28.9879 68.213 29.4099 68.213 30.1429C68.213 30.8729 67.658 31.2939 67.063 31.2939C66.467 31.2939 65.912 30.8719 65.912 30.1429ZM67.528 30.1429C67.528 29.7609 67.371 29.5149 67.063 29.5149C66.755 29.5149 66.597 29.7609 66.597 30.1429C66.597 30.5229 66.754 30.7679 67.063 30.7679C67.371 30.7679 67.528 30.5229 67.528 30.1429ZM69.314 29.0419H69.86L69.908 29.2649H69.925C70.107 29.0969 70.346 28.9979 70.597 28.9879C71.16 28.9879 71.502 29.4279 71.502 30.1079C71.502 30.8609 71.029 31.2939 70.522 31.2939C70.3137 31.2883 70.1154 31.2031 69.968 31.0559H69.952L69.984 31.4129V32.0569H69.314V29.0419V29.0419ZM70.816 30.1129C70.816 29.7189 70.684 29.5229 70.4 29.5229C70.257 29.5229 70.125 29.5819 69.984 29.7269V30.6139C70.0911 30.7071 70.228 30.7589 70.37 30.7599C70.617 30.7599 70.816 30.5689 70.816 30.1129V30.1129ZM72.579 32.0559L72.699 31.5589C72.7553 31.5765 72.8139 31.586 72.873 31.5869C73.133 31.5869 73.273 31.4699 73.347 31.2999L73.391 31.1849L72.416 29.0419H73.08L73.459 29.9869C73.539 30.1929 73.611 30.4169 73.683 30.6469H73.701C73.761 30.4269 73.838 30.2009 73.908 29.9869L74.238 29.0419H74.871L73.981 31.2649C73.761 31.8149 73.494 32.0999 72.923 32.0999C72.807 32.1009 72.691 32.0859 72.579 32.0559V32.0559ZM79.065 30.1429C79.065 29.4099 79.62 28.9879 80.215 28.9879C80.811 28.9879 81.366 29.4099 81.366 30.1429C81.366 30.8729 80.811 31.2939 80.216 31.2939C79.62 31.2939 79.065 30.8719 79.065 30.1429ZM80.681 30.1429C80.681 29.7609 80.524 29.5149 80.216 29.5149C79.908 29.5149 79.75 29.7609 79.75 30.1429C79.75 30.5229 79.907 30.7679 80.216 30.7679C80.524 30.7679 80.681 30.5229 80.681 30.1429ZM82.521 29.0419H83.587C84.116 29.0419 84.541 29.1839 84.541 29.6219C84.541 29.8099 84.427 30.0019 84.158 30.0769V30.0929C84.44 30.1619 84.627 30.3109 84.627 30.6089C84.627 31.0599 84.179 31.2409 83.643 31.2409H82.52V29.0409L82.521 29.0419ZM83.546 29.8989C83.798 29.8989 83.902 29.8219 83.902 29.6889C83.902 29.5569 83.802 29.4809 83.55 29.4809H83.174V29.8989H83.546V29.8989ZM83.605 30.8009C83.877 30.8009 83.978 30.7079 83.978 30.5639C83.978 30.4339 83.864 30.3359 83.598 30.3359H83.174V30.8009H83.605ZM85.706 30.6309C85.706 30.1379 86.124 29.8869 87.19 29.8239C87.167 29.6279 87.015 29.5069 86.712 29.5069C86.494 29.5069 86.278 29.5889 86.024 29.7129L85.785 29.2859C86.105 29.0989 86.469 28.9959 86.841 28.9879C87.476 28.9879 87.86 29.3099 87.86 29.9839V31.2409H87.313L87.265 30.9929H87.248C87.02 31.1599 86.738 31.2939 86.448 31.2939C85.991 31.2939 85.706 31.0009 85.706 30.6309ZM87.19 30.5789V30.2189C86.526 30.2509 86.348 30.3909 86.348 30.5789C86.348 30.7209 86.471 30.7889 86.66 30.7889C86.86 30.7889 87.03 30.6989 87.19 30.5789ZM89.044 29.0419H89.714V29.8349H90.447V29.0419H91.117V31.2419H90.447V30.4049H89.713V31.2409H89.043V29.0409L89.044 29.0419ZM92.337 29.0419H92.984V29.6519C92.984 29.8729 92.951 30.1649 92.927 30.4329H92.942C93.014 30.2999 93.135 30.1019 93.204 29.9729L93.791 29.0419H94.4V31.2419H93.754V30.6299C93.754 30.4099 93.786 30.1209 93.813 29.8479H93.795C93.723 29.9809 93.605 30.1839 93.536 30.3089L92.946 31.2409H92.337V29.0409V29.0419ZM95.542 30.1399C95.542 29.4199 96.112 28.9879 96.716 28.9879C97.412 28.9879 97.779 29.4459 97.779 30.0439C97.777 30.1419 97.768 30.2399 97.751 30.3359H96.039V29.8999H97.298L97.193 30.0239C97.193 29.6709 97.035 29.4859 96.739 29.4859C96.409 29.4859 96.191 29.7039 96.191 30.1409C96.191 30.5969 96.446 30.7979 96.885 30.7979C97.088 30.7939 97.288 30.7419 97.465 30.6449L97.688 31.0379C97.4181 31.2024 97.109 31.2911 96.793 31.2949C96.09 31.2949 95.543 30.8719 95.543 30.1409L95.542 30.1399Z" fill="white"/>
</svg>
