<svg width="121" height="54" viewBox="0 0 121 54" fill="none" xmlns="http://www.w3.org/2000/svg">
<g clip-path="url(#clip0)">
<path d="M28.557 46.1498C28.5939 46.2378 28.6131 46.3323 28.6135 46.4278C28.6139 46.5232 28.5955 46.6178 28.5593 46.7062C28.5231 46.7946 28.4699 46.8749 28.4027 46.9427C28.3354 47.0105 28.2555 47.0644 28.1675 47.1013C28.0794 47.1382 27.985 47.1574 27.8895 47.1578C27.794 47.1582 27.6994 47.1398 27.6111 47.1036C27.5227 47.0674 27.4423 47.0142 27.3745 46.947C27.3068 46.8798 27.2529 46.7998 27.216 46.7118L26.642 45.3148H23.435L22.861 46.7118C22.7839 46.8876 22.6415 47.0265 22.4638 47.0993C22.2862 47.172 22.0873 47.1729 21.909 47.1018C21.7317 47.0267 21.5912 46.8847 21.5178 46.7067C21.4444 46.5287 21.4441 46.329 21.517 46.1508L24.352 39.2888C24.522 38.8828 24.821 38.7888 25.037 38.7888C25.345 38.7888 25.595 38.9608 25.727 39.2908L28.557 46.1508V46.1498ZM26.049 43.8658L25.037 41.4208L24.032 43.8658H26.049ZM14.806 43.0488C14.806 45.1548 13.654 47.2788 11.081 47.2788H11.066C9.84597 47.2788 8.84697 46.8488 8.16897 46.0328C7.55097 45.2908 7.22397 44.2538 7.22597 43.0228C7.23597 40.3758 8.74597 38.6638 11.082 38.6638C13.417 38.6708 14.807 40.3128 14.807 43.0498V43.0488H14.806ZM13.272 43.0488C13.272 41.1628 12.536 40.2028 11.088 40.1958C9.06597 40.1958 8.76797 41.9708 8.75797 43.0288C8.75097 43.8908 8.95597 44.5888 9.34397 45.0518C9.73097 45.5098 10.308 45.7458 11.07 45.7488H11.082C12.696 45.7488 13.272 44.3528 13.272 43.0488V43.0488ZM21.022 38.7988H16.096C15.9069 38.8108 15.7296 38.8944 15.6 39.0325C15.4704 39.1706 15.3982 39.3529 15.3982 39.5423C15.3982 39.7317 15.4704 39.914 15.6 40.0521C15.7296 40.1902 15.9069 40.2738 16.096 40.2858H17.808V46.3958C17.808 46.8078 18.141 47.1468 18.554 47.1468C18.758 47.1468 18.943 47.0668 19.078 46.9238C19.1488 46.8559 19.205 46.7742 19.243 46.6837C19.281 46.5932 19.3 46.4959 19.299 46.3978L19.296 40.2878H21.022C21.1195 40.2875 21.216 40.268 21.306 40.2304C21.396 40.1929 21.4777 40.1379 21.5464 40.0687C21.6151 39.9995 21.6696 39.9174 21.7065 39.8272C21.7435 39.737 21.7624 39.6403 21.762 39.5428C21.7622 39.3462 21.6845 39.1575 21.5457 39.0182C21.407 38.8789 21.2186 38.8003 21.022 38.7998V38.7988V38.7988ZM6.13797 38.8958C5.96688 38.7972 5.76367 38.7706 5.57298 38.8218C5.38229 38.873 5.21971 38.9978 5.12097 39.1688L3.25397 42.4048L1.38697 39.1688C1.33904 39.0829 1.27451 39.0074 1.19714 38.9467C1.11977 38.886 1.0311 38.8413 0.936284 38.8151C0.841471 38.789 0.742408 38.7819 0.644854 38.7944C0.5473 38.8069 0.453202 38.8387 0.368031 38.8879C0.28286 38.937 0.208317 39.0027 0.148734 39.0809C0.0891516 39.1592 0.0457193 39.2485 0.0209626 39.3437C-0.00379405 39.4388 -0.0093811 39.538 0.00452633 39.6354C0.0184338 39.7327 0.0515581 39.8263 0.101973 39.9108L2.51397 44.0898V46.4218C2.50874 46.5225 2.52406 46.6232 2.55899 46.7177C2.59392 46.8123 2.64773 46.8988 2.71714 46.9719C2.78656 47.045 2.87012 47.1032 2.96276 47.143C3.05539 47.1828 3.15516 47.2033 3.25597 47.2033C3.35679 47.2033 3.45655 47.1828 3.54919 47.143C3.64182 47.1032 3.72539 47.045 3.79481 46.9719C3.86422 46.8988 3.91803 46.8123 3.95296 46.7177C3.98789 46.6232 4.0032 46.5225 3.99797 46.4218V44.0898L6.40797 39.9098C6.45753 39.8257 6.4899 39.7326 6.5032 39.6359C6.51649 39.5393 6.51045 39.4409 6.48543 39.3466C6.4604 39.2522 6.41689 39.1638 6.35742 39.0864C6.29794 39.009 6.22369 38.9442 6.13897 38.8958V38.8968L6.13797 38.8958ZM20.768 6.02979C21.668 6.02979 22.392 6.76179 22.392 7.66179V9.26679C22.4015 11.4037 21.5658 13.4577 20.067 14.9808C19.0136 16.062 17.6717 16.8176 16.201 17.1578L16.056 17.1878V21.3358L16.201 21.3708C17.6733 21.7113 19.0173 22.4664 20.074 23.5468C21.568 25.0717 22.4008 27.124 22.392 29.2588V30.8638C22.392 31.7658 21.668 32.4978 20.769 32.4978C20.5548 32.4977 20.3427 32.4553 20.1449 32.373C19.9471 32.2908 19.7675 32.1703 19.6163 32.0185C19.4652 31.8667 19.3455 31.6866 19.2641 31.4884C19.1827 31.2903 19.1412 31.078 19.142 30.8638V29.2598C19.1473 27.9796 18.6471 26.7491 17.75 25.8358C17.3195 25.3912 16.8042 25.0376 16.2347 24.7957C15.6651 24.5539 15.0528 24.4288 14.434 24.4278C13.8137 24.429 13.2 24.5542 12.6288 24.796C12.0576 25.0378 11.5406 25.3913 11.108 25.8358C10.2144 26.7511 9.71601 27.9807 9.71997 29.2598V30.8648C9.72104 31.2966 9.55073 31.7111 9.24645 32.0175C8.94216 32.3238 8.52876 32.4969 8.09697 32.4988C7.66457 32.4975 7.25034 32.3247 6.94515 32.0184C6.63995 31.7121 6.46871 31.2972 6.46897 30.8648V29.2598C6.45777 27.1241 7.29261 25.0708 8.79097 23.5488C9.84377 22.4691 11.1841 21.7139 12.653 21.3728L12.802 21.3368V17.1898L12.653 17.1598C11.184 16.8182 9.84375 16.0627 8.79097 14.9828C7.29243 13.4596 6.45733 11.4055 6.46797 9.26878V7.66179C6.46744 7.22983 6.63839 6.81532 6.94327 6.50932C7.24814 6.20332 7.66202 6.03084 8.09397 6.02979C8.52558 6.03137 8.93894 6.20408 9.24339 6.51003C9.54783 6.81597 9.71851 7.23017 9.71797 7.66179V9.26679C9.71797 10.5568 10.214 11.7788 11.108 12.6968C11.5395 13.1412 12.0558 13.4944 12.6264 13.7357C13.1969 13.9769 13.81 14.1012 14.4295 14.1012C15.0489 14.1012 15.662 13.9769 16.2326 13.7357C16.8031 13.4944 17.3194 13.1412 17.751 12.6968C18.6472 11.7805 19.1468 10.5484 19.142 9.26679V7.66179C19.142 6.76179 19.866 6.02979 20.77 6.02979H20.768V6.02979ZM14.432 25.9898C13.5946 25.9898 12.7914 26.3224 12.1993 26.9146C11.6071 27.5067 11.2745 28.3099 11.2745 29.1473C11.2745 29.9847 11.6071 30.7878 12.1993 31.38C12.7914 31.9721 13.5946 32.3048 14.432 32.3048C15.2679 32.3029 16.0689 31.9694 16.6591 31.3775C17.2493 30.7856 17.5805 29.9837 17.58 29.1478C17.58 28.3122 17.2487 27.5107 16.6588 26.919C16.069 26.3272 15.2685 25.9934 14.433 25.9908L14.432 25.9898Z" fill="white"/>
</g>
<defs>
<clipPath id="clip0">
<rect width="121" height="54" fill="white"/>
</clipPath>
</defs>
</svg>
