<svg width="140px" height="28px" viewBox="0 0 140 28" version="1.1" xmlns="http://www.w3.org/2000/svg" xmlns:xlink="http://www.w3.org/1999/xlink">
    <g id="Components" stroke="none" stroke-width="1" fill="none" fill-rule="evenodd">
        <g id="icon-7">
            <rect id="white-copy" x="0" y="0" width="140" height="28"></rect>
            <path d="M12.7728,20.2158 C11.699328,20.2158 10.7669706,20.0691681 9.9757,19.7759 C9.18442938,19.4826319 8.52873593,19.0704027 8.0086,18.5392 C7.48846407,18.0079973 7.10113461,17.3689037 6.8466,16.6219 C6.59206539,15.8748963 6.4648,15.0476712 6.4648,14.1402 L6.4648,14.0074 C6.4648,13.0888621 6.61973178,12.2561037 6.9296,11.5091 C7.23946822,10.7620963 7.66829726,10.1257693 8.2161,9.6001 C8.76390274,9.07443071 9.4140629,8.66773477 10.1666,8.38 C10.9191371,8.09226523 11.732529,7.9484 12.6068,7.9484 C13.403604,7.9484 14.1339967,8.04246573 14.798,8.2306 C15.4620033,8.41873427 16.0374642,8.70369809 16.5244,9.0855 C17.0113358,9.46730191 17.4041985,9.95146373 17.703,10.538 C18.0018015,11.1245363 18.1843997,11.8217293 18.2508,12.6296 L14.3664,12.6296 C14.3110664,12.0762639 14.1395348,11.6529681 13.8518,11.3597 C13.5640652,11.0664319 13.1546027,10.9198 12.6234,10.9198 C11.9372632,10.9198 11.4005353,11.1798641 11.0132,11.7 C10.6258647,12.2201359 10.4322,12.9837283 10.4322,13.9908 L10.4322,14.1236 C10.4322,15.119605 10.6258647,15.8804307 11.0132,16.4061 C11.4005353,16.9317693 11.9593963,17.1946 12.6898,17.1946 C13.2210027,17.1946 13.6636649,17.0535014 14.0178,16.7713 C14.3719351,16.4890986 14.5821997,16.049203 14.6486,15.4516 L18.4002,15.4516 C18.3448664,16.2373373 18.1705681,16.9262304 17.8773,17.5183 C17.5840319,18.1103696 17.1884025,18.605598 16.6904,19.004 C16.1923975,19.402402 15.6114033,19.7039656 14.9474,19.9087 C14.2833967,20.1134344 13.5585373,20.2158 12.7728,20.2158 Z M26.775,17.261 C27.5164704,17.261 28.1057645,16.9871027 28.5429,16.4393 C28.9800355,15.8914973 29.1986,15.119605 29.1986,14.1236 L29.1986,13.9908 C29.1986,12.9837283 28.9772689,12.2146027 28.5346,11.6834 C28.0919311,11.1521973 27.4943371,10.8866 26.7418,10.8866 C26.0113963,10.8866 25.4276355,11.1494307 24.9905,11.6751 C24.5533645,12.2007693 24.3348,12.9726616 24.3348,13.9908 L24.3348,14.1236 C24.3348,15.1417384 24.5533645,15.919164 24.9905,16.4559 C25.4276355,16.992636 26.0224629,17.261 26.775,17.261 Z M26.6754,20.2158 C25.7015284,20.2158 24.8272705,20.0691681 24.0526,19.7759 C23.2779294,19.4826319 22.6194694,19.067636 22.0772,18.5309 C21.5349306,17.994164 21.1199348,17.3523037 20.8322,16.6053 C20.5444652,15.8582963 20.4006,15.0366045 20.4006,14.1402 L20.4006,14.0074 C20.4006,13.0888621 20.5638317,12.2561037 20.8903,11.5091 C21.2167683,10.7620963 21.6649638,10.1257693 22.2349,9.6001 C22.8048362,9.07443071 23.4771294,8.66773477 24.2518,8.38 C25.0264705,8.09226523 25.8564622,7.9484 26.7418,7.9484 C27.6492712,7.9484 28.4930961,8.08396531 29.2733,8.3551 C30.0535039,8.62623469 30.7285638,9.01633079 31.2985,9.5254 C31.8684362,10.0344692 32.313865,10.656963 32.6348,11.3929 C32.9557349,12.128837 33.1162,12.9671286 33.1162,13.9078 L33.1162,14.0406 C33.1162,14.9702046 32.9640348,15.8140295 32.6597,16.5721 C32.3553651,17.3301705 31.9210028,17.977564 31.3566,18.5143 C30.7921972,19.051036 30.1143706,19.4687985 29.3231,19.7676 C28.5318294,20.0664015 27.6492715,20.2158 26.6754,20.2158 Z M35.9134,8.131 L40.1298,8.131 L43.4996,14.4058 L43.4996,8.131 L46.803,8.131 L46.803,20 L43.2008,20 L39.2334,12.8952 L39.2334,20 L35.9134,20 L35.9134,8.131 Z M54.7129999,20.2158 C53.0308582,20.2158 51.7499043,19.8810367 50.8700999,19.2115 C49.9902955,18.5419633 49.5282668,17.5376734 49.4839999,16.1986 L53.0529999,16.1986 C53.0640667,16.3867343 53.100033,16.5637992 53.1608999,16.7298 C53.2217669,16.8958008 53.3158326,17.0396661 53.4430999,17.1614 C53.5703672,17.2831339 53.7363656,17.3799663 53.9410999,17.4519 C54.1458343,17.5238337 54.4031317,17.5598 54.7129999,17.5598 C55.1556688,17.5598 55.4848989,17.4685009 55.7006999,17.2859 C55.916501,17.1032991 56.0243999,16.8681348 56.0243999,16.5804 C56.0243999,16.2705318 55.9026678,16.046434 55.6591999,15.9081 C55.4157321,15.769766 54.9730698,15.6563338 54.3311999,15.5678 C53.4790623,15.4681995 52.7597362,15.3298676 52.1731999,15.1528 C51.5866637,14.9757324 51.1135684,14.7350349 50.7538999,14.4307 C50.3942315,14.1263651 50.1369341,13.7556355 49.9819999,13.3185 C49.8270658,12.8813645 49.7495999,12.3584697 49.7495999,11.7498 C49.7495999,11.2075306 49.8574989,10.7040023 50.0732999,10.2392 C50.289101,9.77439768 50.6017312,9.37323502 51.0111999,9.0357 C51.4206687,8.69816498 51.9186637,8.43533427 52.5051999,8.2472 C53.0917362,8.05906573 53.7557296,7.965 54.4971999,7.965 C55.9801407,7.965 57.1227626,8.26933029 57.9250999,8.878 C58.7274373,9.48666971 59.1783994,10.4439268 59.2779999,11.7498 L55.7919999,11.7498 C55.7477331,11.3845982 55.6204677,11.102401 55.4101999,10.9032 C55.1999322,10.703999 54.8956019,10.6044 54.4971999,10.6044 C54.1098647,10.6044 53.8166009,10.6846325 53.6173999,10.8451 C53.4181989,11.0055675 53.3185999,11.2130654 53.3185999,11.4676 C53.3185999,11.6114674 53.3434997,11.7359661 53.3932999,11.8411 C53.4431002,11.9462339 53.5316326,12.0375329 53.6588999,12.115 C53.7861672,12.1924671 53.9549322,12.2588664 54.1651999,12.3142 C54.3754677,12.3695336 54.6465983,12.4193331 54.9785999,12.4636 C55.7200703,12.5410671 56.381297,12.6544993 56.9622999,12.8039 C57.5433028,12.9533007 58.0302313,13.1690986 58.4230999,13.4513 C58.8159686,13.7335014 59.1147656,14.0931645 59.3194999,14.5303 C59.5242343,14.9674355 59.6265999,15.5179967 59.6265999,16.182 C59.6265999,16.7353361 59.518701,17.2554642 59.3028999,17.7424 C59.0870989,18.2293358 58.771702,18.6553982 58.3566999,19.0206 C57.9416979,19.3858018 57.4298697,19.6762989 56.8211999,19.8921 C56.2125302,20.1079011 55.5098039,20.2158 54.7129999,20.2158 Z M67.5531999,20.2158 C65.8046578,20.2158 64.4628379,19.7897376 63.5276999,18.9376 C62.5925619,18.0854624 62.1249999,16.8072752 62.1249999,15.103 L62.1249999,8.131 L65.8765999,8.131 L65.8765999,14.9536 C65.8765999,15.3409353 65.9014997,15.6784652 65.9512999,15.9662 C66.0011002,16.2539348 66.086866,16.4946324 66.2085999,16.6883 C66.3303339,16.8819676 66.5018655,17.0258329 66.7231999,17.1199 C66.9445344,17.2139671 67.2211983,17.261 67.5531999,17.261 C68.2172032,17.261 68.6598655,17.0701019 68.8811999,16.6883 C69.1025344,16.3064981 69.2131999,15.7227373 69.2131999,14.937 L69.2131999,8.131 L72.9979999,8.131 L72.9979999,15.0698 C72.9979999,15.9662045 72.8707345,16.7380968 72.6161999,17.3855 C72.3616653,18.0329032 71.996469,18.5668646 71.5205999,18.9874 C71.0447309,19.4079354 70.4720366,19.717799 69.8024999,19.917 C69.1329632,20.116201 68.3832041,20.2158 67.5531999,20.2158 Z M76.3429999,8.131 L80.1111999,8.131 L80.1111999,17.095 L84.4271999,17.095 L84.4271999,20 L76.3429999,20 L76.3429999,8.131 Z M88.1871999,11.0194 L85.1991999,11.0194 L85.1991999,8.131 L94.9765999,8.131 L94.9765999,11.0194 L91.9719999,11.0194 L91.9719999,20 L88.1871999,20 L88.1871999,11.0194 Z M97.7073999,8.131 L101.5088,8.131 L101.5088,20 L97.7073999,20 L97.7073999,8.131 Z M105.0032,8.131 L109.2196,8.131 L112.5894,14.4058 L112.5894,8.131 L115.8928,8.131 L115.8928,20 L112.2906,20 L108.3232,12.8952 L108.3232,20 L105.0032,20 L105.0032,8.131 Z M125.0146,20.2158 C123.985395,20.2158 123.077937,20.0664015 122.2922,19.7676 C121.506463,19.4687985 120.848002,19.051036 120.3168,18.5143 C119.785597,17.977564 119.384435,17.3384704 119.1133,16.597 C118.842165,15.8555296 118.7066,15.0366045 118.7066,14.1402 L118.7066,14.0074 C118.7066,13.0999288 118.867065,12.2727037 119.188,11.5257 C119.508935,10.7786963 119.951597,10.1396027 120.516,9.6084 C121.080403,9.07719734 121.747163,8.66773477 122.5163,8.38 C123.285437,8.09226523 124.118195,7.9484 125.0146,7.9484 C125.733937,7.9484 126.42283,8.03416581 127.0813,8.2057 C127.73977,8.37723419 128.326297,8.64283153 128.8409,9.0025 C129.355502,9.36216846 129.773265,9.82419718 130.0942,10.3886 C130.415135,10.9530028 130.603266,11.633596 130.6586,12.4304 L126.9402,12.4304 C126.873799,11.9323975 126.685668,11.553368 126.3758,11.2933 C126.065932,11.033232 125.617736,10.9032 125.0312,10.9032 C124.278663,10.9032 123.689369,11.1798639 123.2633,11.7332 C122.837231,12.2865361 122.6242,13.0667283 122.6242,14.0738 L122.6242,14.2066 C122.6242,14.6382022 122.665699,15.0476647 122.7487,15.435 C122.8317,15.8223353 122.967266,16.1570986 123.1554,16.4393 C123.343534,16.7215014 123.598065,16.9455992 123.919,17.1116 C124.239935,17.2776008 124.643864,17.3606 125.1308,17.3606 C125.507068,17.3606 125.825232,17.3191004 126.0853,17.2361 C126.345368,17.1530996 126.561166,17.0396674 126.7327,16.8958 C126.904234,16.7519326 127.031499,16.5914676 127.1145,16.4144 C127.1975,16.2373324 127.250066,16.049201 127.2722,15.85 L125.247,15.85 L125.247,13.3766 L130.9408,13.3766 L130.9408,14.9038 C130.9408,15.6452704 130.819068,16.3369301 130.5756,16.9788 C130.332132,17.6206699 129.964169,18.1822976 129.4717,18.6637 C128.979231,19.1451024 128.36227,19.524132 127.6208,19.8008 C126.879329,20.0774681 126.010605,20.2158 125.0146,20.2158 Z" id="text"></path>
        </g>
    </g>
</svg>