<svg width="80px" height="28px" viewBox="0 0 80 28" version="1.1" xmlns="http://www.w3.org/2000/svg" xmlns:xlink="http://www.w3.org/1999/xlink">
    <!-- Generator: Sketch 49.3 (51167) - http://www.bohemiancoding.com/sketch -->
    <g id="Components" stroke="none" stroke-width="1" fill-rule="evenodd">
        <g id="icon-6">
            <rect id="white-copy" x="0" fill="none" y="0" width="80" height="28"></rect>
            <path d="M12.7562,20.2158 C11.7269949,20.2158 10.8195373,20.0664015 10.0338,19.7676 C9.24806274,19.4687985 8.58960266,19.051036 8.0584,18.5143 C7.52719734,17.977564 7.12603469,17.3384704 6.8549,16.597 C6.58376531,15.8555296 6.4482,15.0366045 6.4482,14.1402 L6.4482,14.0074 C6.4482,13.0999288 6.60866506,12.2727037 6.9296,11.5257 C7.25053494,10.7786963 7.69319718,10.1396027 8.2576,9.6084 C8.82200282,9.07719734 9.48876282,8.66773477 10.2579,8.38 C11.0270372,8.09226523 11.8597955,7.9484 12.7562,7.9484 C13.4755369,7.9484 14.16443,8.03416581 14.8229,8.2057 C15.48137,8.37723419 16.0678974,8.64283153 16.5825,9.0025 C17.0971026,9.36216846 17.5148651,9.82419718 17.8358,10.3886 C18.1567349,10.9530028 18.3448664,11.633596 18.4002,12.4304 L14.6818,12.4304 C14.6153997,11.9323975 14.4272682,11.553368 14.1174,11.2933 C13.8075318,11.033232 13.3593363,10.9032 12.7728,10.9032 C12.0202629,10.9032 11.4309688,11.1798639 11.0049,11.7332 C10.5788312,12.2865361 10.3658,13.0667283 10.3658,14.0738 L10.3658,14.2066 C10.3658,14.6382022 10.4072996,15.0476647 10.4903,15.435 C10.5733004,15.8223353 10.7088657,16.1570986 10.897,16.4393 C11.0851343,16.7215014 11.3396651,16.9455992 11.6606,17.1116 C11.9815349,17.2776008 12.3854642,17.3606 12.8724,17.3606 C13.2486685,17.3606 13.566832,17.3191004 13.8269,17.2361 C14.086968,17.1530996 14.3027658,17.0396674 14.4743,16.8958 C14.6458342,16.7519326 14.7730996,16.5914676 14.8561,16.4144 C14.9391004,16.2373324 14.9916666,16.049201 15.0138,15.85 L12.9886,15.85 L12.9886,13.3766 L18.6824,13.3766 L18.6824,14.9038 C18.6824,15.6452704 18.5606679,16.3369301 18.3172,16.9788 C18.0737321,17.6206699 17.7057691,18.1822976 17.2133,18.6637 C16.7208309,19.1451024 16.1038704,19.524132 15.3624,19.8008 C14.6209296,20.0774681 13.752205,20.2158 12.7562,20.2158 Z M21.4796,8.131 L26.3268,8.131 C27.9757416,8.131 29.2151958,8.45469676 30.0452,9.1021 C30.8752041,9.74950324 31.2902,10.709527 31.2902,11.9822 L31.2902,12.0486 C31.2902,12.8675374 31.1020685,13.5232309 30.7258,14.0157 C30.3495314,14.5081691 29.8681362,14.8871987 29.2816,15.1528 L31.9874,20 L28.0366,20 L25.8288,15.933 L25.2312,15.933 L25.2312,20 L21.4796,20 L21.4796,8.131 Z M26.111,13.5094 C27.1402051,13.5094 27.6548,13.0778043 27.6548,12.2146 L27.6548,12.1482 C27.6548,11.7165978 27.5275346,11.4095009 27.273,11.2269 C27.0184654,11.0442991 26.6366692,10.953 26.1276,10.953 L25.2312,10.953 L25.2312,13.5094 L26.111,13.5094 Z M40.1132,17.261 C40.8546703,17.261 41.4439644,16.9871027 41.8811,16.4393 C42.3182355,15.8914973 42.5368,15.119605 42.5368,14.1236 L42.5368,13.9908 C42.5368,12.9837283 42.3154688,12.2146027 41.8728,11.6834 C41.4301311,11.1521973 40.8325371,10.8866 40.08,10.8866 C39.3495963,10.8866 38.7658355,11.1494307 38.3287,11.6751 C37.8915644,12.2007693 37.673,12.9726616 37.673,13.9908 L37.673,14.1236 C37.673,15.1417384 37.8915644,15.919164 38.3287,16.4559 C38.7658355,16.992636 39.3606629,17.261 40.1132,17.261 Z M40.0136,20.2158 C39.0397284,20.2158 38.1654705,20.0691681 37.3908,19.7759 C36.6161294,19.4826319 35.9576693,19.067636 35.4154,18.5309 C34.8731306,17.994164 34.4581347,17.3523037 34.1704,16.6053 C33.8826652,15.8582963 33.7388,15.0366045 33.7388,14.1402 L33.7388,14.0074 C33.7388,13.0888621 33.9020317,12.2561037 34.2285,11.5091 C34.5549683,10.7620963 35.0031638,10.1257693 35.5731,9.6001 C36.1430361,9.07443071 36.8153294,8.66773477 37.59,8.38 C38.3646705,8.09226523 39.1946622,7.9484 40.08,7.9484 C40.9874712,7.9484 41.8312961,8.08396531 42.6115,8.3551 C43.3917039,8.62623469 44.0667638,9.01633079 44.6367,9.5254 C45.2066361,10.0344692 45.652065,10.656963 45.973,11.3929 C46.2939349,12.128837 46.4544,12.9671286 46.4544,13.9078 L46.4544,14.0406 C46.4544,14.9702046 46.3022348,15.8140295 45.9979,16.5721 C45.6935651,17.3301705 45.2592028,17.977564 44.6948,18.5143 C44.1303971,19.051036 43.4525706,19.4687985 42.6613,19.7676 C41.8700293,20.0664015 40.9874715,20.2158 40.0136,20.2158 Z M54.6133999,20.2158 C52.8648579,20.2158 51.523038,19.7897376 50.5878999,18.9376 C49.6527619,18.0854624 49.1851999,16.8072752 49.1851999,15.103 L49.1851999,8.131 L52.9367999,8.131 L52.9367999,14.9536 C52.9367999,15.3409353 52.9616997,15.6784652 53.0114999,15.9662 C53.0613002,16.2539348 53.147066,16.4946324 53.2687999,16.6883 C53.3905339,16.8819676 53.5620655,17.0258329 53.7833999,17.1199 C54.0047344,17.2139671 54.2813983,17.261 54.6133999,17.261 C55.2774033,17.261 55.7200655,17.0701019 55.9413999,16.6883 C56.1627344,16.3064981 56.2733999,15.7227373 56.2733999,14.937 L56.2733999,8.131 L60.0581999,8.131 L60.0581999,15.0698 C60.0581999,15.9662045 59.9309345,16.7380968 59.6763999,17.3855 C59.4218653,18.0329032 59.056669,18.5668646 58.5807999,18.9874 C58.1049309,19.4079354 57.5322366,19.717799 56.8626999,19.917 C56.1931633,20.116201 55.4434041,20.2158 54.6133999,20.2158 Z M63.4031999,8.131 L68.1341999,8.131 C69.8384751,8.131 71.0779294,8.49066307 71.8525999,9.21 C72.6272705,9.92933693 73.0145999,10.925327 73.0145999,12.198 L73.0145999,12.2644 C73.0145999,13.5038729 72.6162039,14.4583633 71.8193999,15.1279 C71.0225959,15.7974367 69.849541,16.1322 68.3001999,16.1322 L67.1547999,16.1322 L67.1547999,20 L63.4031999,20 L63.4031999,8.131 Z M67.9349999,13.609 C68.9420716,13.609 69.4455999,13.1663378 69.4455999,12.281 L69.4455999,12.2146 C69.4455999,11.7497977 69.3211012,11.4205676 69.0720999,11.2269 C68.8230987,11.0332324 68.4496024,10.9364 67.9515999,10.9364 L67.1547999,10.9364 L67.1547999,13.609 L67.9349999,13.609 Z" id="text"></path>
        </g>
    </g>
</svg>