<svg width="126px" height="28px" viewBox="0 0 126 28" version="1.1" xmlns="http://www.w3.org/2000/svg" xmlns:xlink="http://www.w3.org/1999/xlink">
    <g id="Components" stroke="none" stroke-width="1" fill="none" fill-rule="evenodd">
        <g id="icon-2">
            <rect id="white-copy" fill="#FFFFFF" x="0" y="0" width="126" height="28"></rect>
            <path d="M7.079,8.131 L10.8472,8.131 L10.8472,12.5134 L14.3332,12.5134 L14.3332,8.131 L18.1014,8.131 L18.1014,20 L14.3332,20 L14.3332,15.435 L10.8472,15.435 L10.8472,20 L7.079,20 L7.079,8.131 Z M24.3348,8.131 L29.1986,8.131 L32.917,20 L28.933,20 L28.3852,18.0246 L24.6336,18.0246 L24.1024,20 L20.5998,20 L24.3348,8.131 Z M25.3474,15.4682 L27.688,15.4682 L26.526,11.1688 L25.3474,15.4682 Z M35.4154,8.131 L39.6318,8.131 L43.0016,14.4058 L43.0016,8.131 L46.305,8.131 L46.305,20 L42.7028,20 L38.7354,12.8952 L38.7354,20 L35.4154,20 L35.4154,8.131 Z M54.1485999,17.1116 C55.0782046,17.1116 55.7477312,16.873669 56.1571999,16.3978 C56.5666687,15.921931 56.7713999,15.1638719 56.7713999,14.1236 L56.7713999,13.9908 C56.7713999,12.9062612 56.5583687,12.1399022 56.1322999,11.6917 C55.7062311,11.2434978 55.0394711,11.0194 54.1319999,11.0194 L53.5177999,11.0194 L53.5177999,17.1116 L54.1485999,17.1116 Z M49.7495999,8.131 L54.2813999,8.131 C56.4172773,8.131 58.0191613,8.62346174 59.0870999,9.6084 C60.1550386,10.5933383 60.6889999,12.0319905 60.6889999,13.9244 L60.6889999,14.0406 C60.6889999,15.9440762 60.1467387,17.4131615 59.0621999,18.4479 C57.9776612,19.4826385 56.3840771,20 54.2813999,20 L49.7495999,20 L49.7495999,8.131 Z M63.4861999,8.131 L69.0969999,8.131 C69.8274036,8.131 70.4498974,8.21123253 70.9644999,8.3717 C71.4791025,8.53216747 71.896865,8.75073195 72.2177999,9.0274 C72.5387349,9.30406805 72.7738992,9.63053145 72.9232999,10.0068 C73.0727007,10.3830685 73.1473999,10.7925311 73.1473999,11.2352 L73.1473999,11.3016 C73.1473999,11.9988035 72.970335,12.5604312 72.6161999,12.9865 C72.2620648,13.4125688 71.7530032,13.7030659 71.0889999,13.858 C71.7862034,13.9797339 72.356131,14.2646978 72.7987999,14.7129 C73.2414688,15.1611022 73.4627999,15.8001959 73.4627999,16.6302 L73.4627999,16.6966 C73.4627999,17.7479386 73.1114368,18.5613305 72.4086999,19.1368 C71.7059631,19.7122695 70.5910076,20 69.0637999,20 L63.4861999,20 L63.4861999,8.131 Z M68.3499999,17.5266 C68.8369357,17.5266 69.1938321,17.4187011 69.4206999,17.2029 C69.6475677,16.9870989 69.7609999,16.680002 69.7609999,16.2816 L69.7609999,16.2152 C69.7609999,15.8278647 69.6448011,15.5290677 69.4123999,15.3188 C69.1799988,15.1085323 68.7982026,15.0034 68.2669999,15.0034 L67.1547999,15.0034 L67.1547999,17.5266 L68.3499999,17.5266 Z M68.3001999,12.7624 C68.7650022,12.7624 69.0969989,12.6794008 69.2961999,12.5134 C69.4954009,12.3473992 69.5949999,12.0818018 69.5949999,11.7166 L69.5949999,11.6502 C69.5949999,11.2960649 69.4926343,11.0304676 69.2878999,10.8534 C69.0831656,10.6763324 68.7484022,10.5878 68.2835999,10.5878 L67.1547999,10.5878 L67.1547999,12.7624 L68.3001999,12.7624 Z M82.0367999,17.261 C82.7782703,17.261 83.3675644,16.9871027 83.8046999,16.4393 C84.2418354,15.8914973 84.4603999,15.119605 84.4603999,14.1236 L84.4603999,13.9908 C84.4603999,12.9837283 84.2390688,12.2146027 83.7963999,11.6834 C83.353731,11.1521973 82.756137,10.8866 82.0035999,10.8866 C81.2731963,10.8866 80.6894354,11.1494307 80.2522999,11.6751 C79.8151644,12.2007693 79.5965999,12.9726616 79.5965999,13.9908 L79.5965999,14.1236 C79.5965999,15.1417384 79.8151644,15.919164 80.2522999,16.4559 C80.6894354,16.992636 81.2842628,17.261 82.0367999,17.261 Z M81.9371999,20.2158 C80.9633284,20.2158 80.0890704,20.0691681 79.3143999,19.7759 C78.5397294,19.4826319 77.8812693,19.067636 77.3389999,18.5309 C76.7967305,17.994164 76.3817347,17.3523037 76.0939999,16.6053 C75.8062651,15.8582963 75.6623999,15.0366045 75.6623999,14.1402 L75.6623999,14.0074 C75.6623999,13.0888621 75.8256316,12.2561037 76.1520999,11.5091 C76.4785682,10.7620963 76.9267637,10.1257693 77.4966999,9.6001 C78.0666361,9.07443071 78.7389294,8.66773477 79.5135999,8.38 C80.2882704,8.09226523 81.1182621,7.9484 82.0035999,7.9484 C82.9110711,7.9484 83.754896,8.08396531 84.5350999,8.3551 C85.3153038,8.62623469 85.9903637,9.01633079 86.5602999,9.5254 C87.1302361,10.0344692 87.575665,10.656963 87.8965999,11.3929 C88.2175348,12.128837 88.3779999,12.9671286 88.3779999,13.9078 L88.3779999,14.0406 C88.3779999,14.9702046 88.2258348,15.8140295 87.9214999,16.5721 C87.617165,17.3301705 87.1828027,17.977564 86.6183999,18.5143 C86.0539971,19.051036 85.3761705,19.4687985 84.5848999,19.7676 C83.7936293,20.0664015 82.9110714,20.2158 81.9371999,20.2158 Z M96.9187999,17.261 C97.6602703,17.261 98.2495644,16.9871027 98.6866999,16.4393 C99.1238354,15.8914973 99.3423999,15.119605 99.3423999,14.1236 L99.3423999,13.9908 C99.3423999,12.9837283 99.1210688,12.2146027 98.6783999,11.6834 C98.235731,11.1521973 97.638137,10.8866 96.8855999,10.8866 C96.1551962,10.8866 95.5714354,11.1494307 95.1342999,11.6751 C94.6971644,12.2007693 94.4785999,12.9726616 94.4785999,13.9908 L94.4785999,14.1236 C94.4785999,15.1417384 94.6971644,15.919164 95.1342999,16.4559 C95.5714354,16.992636 96.1662628,17.261 96.9187999,17.261 Z M96.8191999,20.2158 C95.8453283,20.2158 94.9710704,20.0691681 94.1963999,19.7759 C93.4217293,19.4826319 92.7632693,19.067636 92.2209999,18.5309 C91.6787305,17.994164 91.2637347,17.3523037 90.9759999,16.6053 C90.6882651,15.8582963 90.5443999,15.0366045 90.5443999,14.1402 L90.5443999,14.0074 C90.5443999,13.0888621 90.7076316,12.2561037 91.0340999,11.5091 C91.3605682,10.7620963 91.8087637,10.1257693 92.3786999,9.6001 C92.9486361,9.07443071 93.6209293,8.66773477 94.3955999,8.38 C95.1702704,8.09226523 96.0002621,7.9484 96.8855999,7.9484 C97.7930711,7.9484 98.636896,8.08396531 99.4170999,8.3551 C100.197304,8.62623469 100.872364,9.01633079 101.4423,9.5254 C102.012236,10.0344692 102.457665,10.656963 102.7786,11.3929 C103.099535,12.128837 103.26,12.9671286 103.26,13.9078 L103.26,14.0406 C103.26,14.9702046 103.107835,15.8140295 102.8035,16.5721 C102.499165,17.3301705 102.064803,17.977564 101.5004,18.5143 C100.935997,19.051036 100.258171,19.4687985 99.4668999,19.7676 C98.6756293,20.0664015 97.7930714,20.2158 96.8191999,20.2158 Z M106.0572,8.131 L109.8254,8.131 L109.8254,12.6296 L113.1122,8.131 L117.0132,8.131 L112.8466,13.609 L117.2456,20 L112.913,20 L109.8254,15.2524 L109.8254,20 L106.0572,20 L106.0572,8.131 Z" id="text" fill="#000000"></path>
        </g>
    </g>
</svg>