<svg width="60px" height="28px" viewBox="0 0 60 28" version="1.1" xmlns="http://www.w3.org/2000/svg" xmlns:xlink="http://www.w3.org/1999/xlink">
    <g id="Components" stroke="none" stroke-width="1" fill-rule="evenodd">
        <g id="icon-1">
            <rect id="white-copy" fill="none" x="0" y="0" width="60" height="28"></rect>
            <path d="M7.079,8.131 L10.8472,8.131 L10.8472,17.095 L15.1632,17.095 L15.1632,20 L7.079,20 L7.079,8.131 Z M20.9816,8.131 L25.8454,8.131 L29.5638,20 L25.5798,20 L25.032,18.0246 L21.2804,18.0246 L20.7492,20 L17.2466,20 L20.9816,8.131 Z M21.9942,15.4682 L24.3348,15.4682 L23.1728,11.1688 L21.9942,15.4682 Z M32.0622,8.131 L37.673,8.131 C38.4034036,8.131 39.0258974,8.21123253 39.5405,8.3717 C40.0551025,8.53216747 40.472865,8.75073195 40.7938,9.0274 C41.1147349,9.30406805 41.3498992,9.63053145 41.4993,10.0068 C41.6487007,10.3830685 41.7234,10.7925311 41.7234,11.2352 L41.7234,11.3016 C41.7234,11.9988035 41.5463351,12.5604312 41.1922,12.9865 C40.8380649,13.4125688 40.3290033,13.7030659 39.665,13.858 C40.3622034,13.9797339 40.9321311,14.2646978 41.3748,14.7129 C41.8174688,15.1611022 42.0388,15.8001959 42.0388,16.6302 L42.0388,16.6966 C42.0388,17.7479386 41.6874368,18.5613305 40.9847,19.1368 C40.2819631,19.7122695 39.1670076,20 37.6398,20 L32.0622,20 L32.0622,8.131 Z M36.926,17.5266 C37.4129357,17.5266 37.7698322,17.4187011 37.9967,17.2029 C38.2235678,16.9870989 38.337,16.680002 38.337,16.2816 L38.337,16.2152 C38.337,15.8278647 38.2208011,15.5290677 37.9884,15.3188 C37.7559988,15.1085323 37.3742026,15.0034 36.843,15.0034 L35.7308,15.0034 L35.7308,17.5266 L36.926,17.5266 Z M36.8762,12.7624 C37.3410023,12.7624 37.672999,12.6794008 37.8722,12.5134 C38.071401,12.3473992 38.171,12.0818018 38.171,11.7166 L38.171,11.6502 C38.171,11.2960649 38.0686343,11.0304676 37.8639,10.8534 C37.6591656,10.6763324 37.3244023,10.5878 36.8596,10.5878 L35.7308,10.5878 L35.7308,12.7624 L36.8762,12.7624 Z" id="text"></path>
        </g>
    </g>
</svg>