<svg width="2018" height="280" viewBox="0 0 2018 280" fill="none" xmlns="http://www.w3.org/2000/svg">
<path class="Logo__text" fill-rule="evenodd" clip-rule="evenodd" d="M35.109 197.275C43.0217 200.208 52.3453 201.674 63.08 201.674C70.9374 201.674 78.186 200.65 84.826 198.603C91.466 196.556 97.276 193.54 102.256 189.556C107.236 185.572 111.192 180.62 114.125 174.699C117.058 168.778 118.801 161.889 119.354 154.032H81.838C81.174 160.008 79.0714 164.407 75.53 167.229C71.9886 170.051 67.562 171.462 62.25 171.462C54.946 171.462 49.3574 168.834 45.484 163.577C41.6106 158.32 39.674 150.712 39.674 140.752V139.424C39.674 129.353 41.6106 121.717 45.484 116.516C49.3574 111.315 54.7246 108.714 61.586 108.714C66.898 108.714 70.9927 110.18 73.87 113.113C76.7474 116.046 78.4627 120.279 79.016 125.812H117.86C117.196 117.733 115.37 110.761 112.382 104.896C109.394 99.0306 105.465 94.189 100.596 90.371C95.7266 86.553 89.972 83.7033 83.332 81.822C76.692 79.9407 69.388 79 61.42 79C52.6773 79 44.5434 80.4387 37.018 83.316C29.4926 86.1933 22.991 90.2603 17.513 95.517C12.035 100.774 7.74668 107.137 4.648 114.607C1.54932 122.077 0 130.405 0 139.59V140.918C0 149.993 1.27265 158.265 3.818 165.735C6.36335 173.205 10.2366 179.596 15.438 184.908C20.6394 190.22 27.1963 194.342 35.109 197.275ZM317.036 81H279.354V199.69H317.036V154.04H351.896V199.69H389.578V81H351.896V124.824H317.036V81ZM614.86 200.848C597.375 200.848 583.956 196.587 574.605 188.066C565.254 179.545 560.578 166.763 560.578 149.72V80H598.094V148.226C598.094 152.099 598.343 155.475 598.841 158.352C599.339 161.229 600.197 163.636 601.414 165.573C602.631 167.51 604.347 168.948 606.56 169.889C608.773 170.83 611.54 171.3 614.86 171.3C621.5 171.3 625.927 169.391 628.14 165.573C630.353 161.755 631.46 155.917 631.46 148.06V80H669.308V149.388C669.308 158.352 668.035 166.071 665.49 172.545C662.945 179.019 659.293 184.359 654.534 188.564C649.775 192.769 644.048 195.868 637.353 197.86C630.658 199.852 623.16 200.848 614.86 200.848ZM877.99 81H840.308V199.69H921.15V170.64H877.99V81ZM1163.14 81H1114.5L1077.15 199.69H1112.18L1117.49 179.936H1155L1160.48 199.69H1200.32L1163.14 81ZM1150.56 154.168H1127.15L1138.94 111.174L1150.56 154.168ZM1406 81H1368.32V199.69H1406V152.214L1436.88 199.69H1480.21L1436.22 135.78L1477.88 81H1438.87L1406 125.986V81ZM1660.73 197.275C1668.47 200.208 1677.22 201.674 1686.95 201.674C1696.69 201.674 1705.52 200.18 1713.43 197.192C1721.34 194.204 1728.12 190.026 1733.77 184.659C1739.41 179.292 1743.75 172.818 1746.8 165.237C1749.84 157.656 1751.36 149.218 1751.36 139.922V138.594C1751.36 129.187 1749.76 120.804 1746.55 113.445C1743.34 106.086 1738.88 99.8607 1733.19 94.77C1727.49 89.6793 1720.74 85.7783 1712.93 83.067C1705.13 80.3557 1696.69 79 1687.62 79C1678.76 79 1670.46 80.4387 1662.72 83.316C1654.97 86.1933 1648.25 90.2603 1642.55 95.517C1636.85 100.774 1632.37 107.137 1629.1 114.607C1625.84 122.077 1624.21 130.405 1624.21 139.59V140.918C1624.21 149.882 1625.64 158.099 1628.52 165.569C1631.4 173.039 1635.55 179.458 1640.97 184.825C1646.39 190.192 1652.98 194.342 1660.73 197.275ZM1705.29 163.527C1700.92 169.005 1695.02 171.744 1687.61 171.744C1680.08 171.744 1674.13 169.06 1669.76 163.693C1665.39 158.326 1663.21 150.551 1663.21 140.37V139.042C1663.21 128.861 1665.39 121.142 1669.76 115.885C1674.13 110.628 1679.97 108 1687.28 108C1694.8 108 1700.78 110.656 1705.2 115.968C1709.63 121.28 1711.84 128.971 1711.84 139.042V140.37C1711.84 150.33 1709.66 158.049 1705.29 163.527ZM1938.03 81H1897.36L1936.54 199.69H1979.03L2017.38 81H1982.19L1960.11 160.514L1938.03 81Z" fill="#151515"/>
</svg>
