<svg width="1265" height="295" viewBox="0 0 1260 295" xmlns="http://www.w3.org/2000/svg"><path d="M0 0h1264.005v294.934H0V0zm137.7 211.887c8.277 0 15.912-1.078 22.907-3.235 6.994-2.156 13.114-5.333 18.36-9.53 5.245-4.196 9.412-9.412 12.501-15.649 3.09-6.236 4.925-13.492 5.508-21.769H157.46c-.7 6.295-2.914 10.928-6.644 13.901-3.73 2.973-8.393 4.459-13.989 4.459-7.693 0-13.58-2.769-17.66-8.306-4.08-5.537-6.12-13.55-6.12-24.042v-1.399c0-10.608 2.04-18.651 6.12-24.13 4.08-5.479 9.734-8.218 16.961-8.218 5.595 0 9.908 1.545 12.94 4.634 3.03 3.089 4.837 7.547 5.42 13.376h40.916c-.7-8.51-2.623-15.853-5.77-22.032-3.148-6.178-7.286-11.278-12.415-15.3-5.13-4.021-11.19-7.023-18.185-9.004-6.994-1.982-14.688-2.973-23.08-2.973-9.21 0-17.778 1.516-25.704 4.546-7.927 3.031-14.776 7.315-20.546 12.852s-10.287 12.24-13.55 20.108c-3.265 7.869-4.897 16.64-4.897 26.316v1.399c0 9.558 1.34 18.272 4.022 26.14 2.68 7.869 6.76 14.6 12.24 20.196 5.478 5.595 12.385 9.938 20.72 13.027 8.335 3.089 18.155 4.633 29.463 4.633zm86.254-127.293v125.02h39.692V161.53h36.72v48.085h39.691V84.594h-39.692v46.161h-36.719V84.594h-39.692zm207.952 127.293c8.743 0 16.64-1.049 23.693-3.147 7.052-2.098 13.085-5.362 18.097-9.792 5.013-4.43 8.86-10.054 11.54-16.873 2.682-6.82 4.022-14.95 4.022-24.393V84.594h-39.866v71.69c0 8.276-1.166 14.425-3.497 18.447-2.332 4.021-6.995 6.032-13.989 6.032-3.497 0-6.411-.495-8.742-1.486-2.332-.99-4.139-2.506-5.42-4.546-1.283-2.04-2.187-4.576-2.711-7.606-.525-3.031-.787-6.587-.787-10.666V84.594h-39.517v73.438c0 17.952 4.925 31.416 14.775 40.391 9.85 8.976 23.984 13.464 42.402 13.464zm91.85-127.293v125.02h85.153v-30.6h-45.462v-94.42h-39.692zm145.703 0l-39.342 125.02h36.894l5.595-20.807h39.517l5.77 20.807h41.966L720.69 84.594H669.46zm10.666 77.285l12.415-45.287 12.24 45.287h-24.655zm105.313-77.285v125.02h39.692v-50.008l32.523 50.008h45.636l-46.336-67.319 43.888-57.701h-41.09l-34.621 47.385V84.594h-39.692zm192.74 127.293c10.258 0 19.554-1.573 27.889-4.72 8.334-3.148 15.474-7.549 21.42-13.202 5.944-5.654 10.52-12.473 13.725-20.458 3.206-7.985 4.809-16.874 4.809-26.665v-1.4c0-9.908-1.69-18.738-5.07-26.49-3.381-7.752-8.073-14.309-14.077-19.67-6.003-5.363-13.114-9.472-21.332-12.328s-17.106-4.284-26.665-4.284c-9.326 0-18.068 1.516-26.228 4.546-8.16 3.031-15.242 7.315-21.245 12.852s-10.724 12.24-14.163 20.108c-3.439 7.869-5.158 16.64-5.158 26.316v1.399c0 9.442 1.515 18.097 4.546 25.965 3.03 7.869 7.402 14.63 13.114 20.284 5.712 5.653 12.648 10.025 20.808 13.114 8.16 3.089 17.368 4.633 27.627 4.633zm1.049-31.124c-7.927 0-14.193-2.827-18.797-8.48-4.605-5.654-6.907-13.843-6.907-24.567v-1.399c0-10.724 2.302-18.855 6.907-24.392 4.604-5.537 10.753-8.306 18.447-8.306 7.927 0 14.221 2.798 18.884 8.393 4.663 5.596 6.994 13.697 6.994 24.305v1.399c0 10.491-2.302 18.622-6.906 24.392-4.605 5.77-10.812 8.655-18.622 8.655zm85.729-96.17l41.265 125.021h44.763l40.391-125.02h-37.069l-23.256 83.755-23.255-83.755h-42.84z" fill-rule="nonzero"/></svg>