<svg width="120" height="28" xmlns="http://www.w3.org/2000/svg"><g fill="none" fill-rule="evenodd"><path fill="#FFF" d="M0 0h120v28H0z"/><path d="M13.073 20.116c-1.074 0-2.006-.147-2.797-.44-.792-.293-1.447-.706-1.967-1.237a5.005 5.005 0 0 1-1.162-1.917c-.255-.747-.382-1.574-.382-2.482v-.133c0-.918.155-1.75.465-2.498A5.562 5.562 0 0 1 8.516 9.5a5.743 5.743 0 0 1 1.95-1.22 6.776 6.776 0 0 1 2.44-.432 8.02 8.02 0 0 1 2.192.283 4.95 4.95 0 0 1 1.726.854c.487.382.88.866 1.179 1.453.299.587.481 1.284.548 2.092h-3.885c-.055-.554-.226-.977-.514-1.27-.288-.294-.697-.44-1.229-.44-.686 0-1.222.26-1.61.78-.387.52-.58 1.284-.58 2.29v.134c0 .996.193 1.756.58 2.282.388.526.946.789 1.677.789.531 0 .974-.141 1.328-.424.354-.282.564-.722.63-1.32H18.7c-.055.786-.23 1.475-.523 2.067a4.344 4.344 0 0 1-1.187 1.486 5.22 5.22 0 0 1-1.743.905 7.35 7.35 0 0 1-2.174.307zM21.26 8.03h3.769v4.382h3.486V8.031h3.768V19.9h-3.768v-4.565H25.03V19.9H21.26V8.031zm19.743 12.085c-1.749 0-3.09-.426-4.026-1.278-.935-.853-1.403-2.13-1.403-3.835V8.031h3.752v6.823c0 .387.025.724.075 1.012.05.288.135.529.257.722.122.194.293.338.515.432.22.094.498.141.83.141.664 0 1.106-.19 1.328-.573.22-.382.332-.965.332-1.751V8.031h3.784v6.939c0 .896-.127 1.668-.381 2.315a4.096 4.096 0 0 1-1.096 1.602c-.476.42-1.049.73-1.718.93-.67.2-1.42.299-2.25.299zm8.72-12.085h3.768v8.964h4.316V19.9h-8.085V8.031zm13.832 0h4.864L72.138 19.9h-3.984l-.548-1.975h-3.751l-.531 1.975H59.82l3.735-11.869zm1.013 7.337h2.34l-1.162-4.3-1.178 4.3zm9.998-7.337h3.768v4.499l3.287-4.499h3.9l-4.166 5.478 4.399 6.391h-4.333l-3.087-4.748V19.9h-3.768V8.031zm18.397 9.13c.742 0 1.331-.274 1.768-.822.437-.548.656-1.32.656-2.315v-.133c0-1.007-.222-1.776-.664-2.308-.443-.53-1.04-.796-1.793-.796-.73 0-1.314.262-1.751.788-.437.526-.656 1.298-.656 2.316v.133c0 1.018.219 1.795.656 2.332.437.537 1.032.805 1.784.805zm-.1 2.955c-.973 0-1.848-.147-2.622-.44a5.569 5.569 0 0 1-1.976-1.245 5.406 5.406 0 0 1-1.245-1.926c-.287-.747-.431-1.568-.431-2.465v-.133c0-.918.163-1.75.49-2.498A5.627 5.627 0 0 1 88.423 9.5a6.04 6.04 0 0 1 2.017-1.22 7.094 7.094 0 0 1 2.49-.432c.907 0 1.751.136 2.532.407.78.271 1.455.661 2.025 1.17a5.316 5.316 0 0 1 1.336 1.868c.32.736.481 1.574.481 2.515v.133c0 .93-.152 1.773-.456 2.531a5.437 5.437 0 0 1-1.303 1.942 5.972 5.972 0 0 1-2.034 1.254c-.791.298-1.674.448-2.647.448zm8.239-12.085h4.067l2.208 7.951 2.208-7.951h3.519L109.27 19.9h-4.25l-3.917-11.869z" fill="#002E7B"/></g></svg>