<svg width="2306" height="280" viewBox="0 0 2306 280" fill="none" xmlns="http://www.w3.org/2000/svg">
<rect width="2306" height="280" fill="white"/>
<path fill-rule="evenodd" clip-rule="evenodd" d="M166.109 197.275C174.022 200.208 183.345 201.674 194.08 201.674C201.937 201.674 209.186 200.65 215.826 198.603C222.466 196.556 228.276 193.54 233.256 189.556C238.236 185.572 242.192 180.62 245.125 174.699C248.058 168.778 249.801 161.889 250.354 154.032H212.838C212.174 160.008 210.071 164.407 206.53 167.229C202.989 170.051 198.562 171.462 193.25 171.462C185.946 171.462 180.357 168.834 176.484 163.577C172.611 158.32 170.674 150.712 170.674 140.752V139.424C170.674 129.353 172.611 121.717 176.484 116.516C180.357 111.315 185.725 108.714 192.586 108.714C197.898 108.714 201.993 110.18 204.87 113.113C207.747 116.046 209.463 120.279 210.016 125.812H248.86C248.196 117.733 246.37 110.761 243.382 104.896C240.394 99.0306 236.465 94.189 231.596 90.371C226.727 86.553 220.972 83.7033 214.332 81.822C207.692 79.9407 200.388 79 192.42 79C183.677 79 175.543 80.4387 168.018 83.316C160.493 86.1933 153.991 90.2603 148.513 95.517C143.035 100.774 138.747 107.137 135.648 114.607C132.549 122.077 131 130.405 131 139.59V140.918C131 149.993 132.273 158.265 134.818 165.735C137.363 173.205 141.237 179.596 146.438 184.908C151.639 190.22 158.196 194.342 166.109 197.275ZM448.036 81H410.354V199.69H448.036V154.04H482.896V199.69H520.578V81H482.896V124.824H448.036V81ZM745.86 200.848C728.375 200.848 714.956 196.587 705.605 188.066C696.254 179.545 691.578 166.763 691.578 149.72V80H729.094V148.226C729.094 152.099 729.343 155.475 729.841 158.352C730.339 161.229 731.197 163.636 732.414 165.573C733.631 167.51 735.347 168.948 737.56 169.889C739.773 170.83 742.54 171.3 745.86 171.3C752.5 171.3 756.927 169.391 759.14 165.573C761.353 161.755 762.46 155.917 762.46 148.06V80H800.308V149.388C800.308 158.352 799.035 166.071 796.49 172.545C793.945 179.019 790.293 184.359 785.534 188.564C780.775 192.769 775.048 195.868 768.353 197.86C761.658 199.852 754.16 200.848 745.86 200.848ZM1008.99 81H971.308V199.69H1052.15V170.64H1008.99V81ZM1294.14 81H1245.5L1208.15 199.69H1243.18L1248.49 179.936H1286L1291.48 199.69H1331.32L1294.14 81ZM1281.56 154.168H1258.15L1269.94 111.174L1281.56 154.168ZM1537 81H1499.32V199.69H1537V152.214L1567.88 199.69H1611.21L1567.22 135.78L1608.88 81H1569.87L1537 125.986V81ZM1791.73 197.275C1799.47 200.208 1808.22 201.674 1817.95 201.674C1827.69 201.674 1836.52 200.18 1844.43 197.192C1852.34 194.204 1859.12 190.026 1864.77 184.659C1870.41 179.292 1874.75 172.818 1877.8 165.237C1880.84 157.656 1882.36 149.218 1882.36 139.922V138.594C1882.36 129.187 1880.76 120.804 1877.55 113.445C1874.34 106.086 1869.88 99.8607 1864.19 94.77C1858.49 89.6793 1851.74 85.7783 1843.93 83.067C1836.13 80.3557 1827.69 79 1818.62 79C1809.76 79 1801.46 80.4387 1793.72 83.316C1785.97 86.1933 1779.25 90.2603 1773.55 95.517C1767.85 100.774 1763.37 107.137 1760.1 114.607C1756.84 122.077 1755.21 130.405 1755.21 139.59V140.918C1755.21 149.882 1756.64 158.099 1759.52 165.569C1762.4 173.039 1766.55 179.458 1771.97 184.825C1777.39 190.192 1783.98 194.342 1791.73 197.275ZM1836.29 163.527C1831.92 169.005 1826.02 171.744 1818.61 171.744C1811.08 171.744 1805.13 169.06 1800.76 163.693C1796.39 158.326 1794.21 150.551 1794.21 140.37V139.042C1794.21 128.861 1796.39 121.142 1800.76 115.885C1805.13 110.628 1810.97 108 1818.28 108C1825.8 108 1831.78 110.656 1836.2 115.968C1840.63 121.28 1842.84 128.971 1842.84 139.042V140.37C1842.84 150.33 1840.66 158.049 1836.29 163.527ZM2069.03 81H2028.36L2067.54 199.69H2110.03L2148.38 81H2113.19L2091.11 160.514L2069.03 81Z" fill="#151515"/>
</svg>
