<svg width="80px" height="28px" viewBox="0 0 80 28" version="1.1" xmlns="http://www.w3.org/2000/svg" xmlns:xlink="http://www.w3.org/1999/xlink">
    <g id="Components" stroke="none" stroke-width="1" fill="none" fill-rule="evenodd">
        <g id="icon-5">
            <rect id="white-copy" x="0" y="0" width="80" height="28"></rect>
            <path d="M7.079,8.131 L11.9594,8.131 L13.968,13.8912 L16.0098,8.131 L20.7906,8.131 L20.7906,20 L17.0556,20 L17.0556,12.9948 L14.3498,20 L13.0882,20 L10.4322,12.9948 L10.4322,20 L7.079,20 L7.079,8.131 Z M24.2518,8.131 L32.6846,8.131 L32.6846,11.0194 L28.0034,11.0194 L28.0034,12.696 L31.7218,12.696 L31.7218,15.3354 L28.0034,15.3354 L28.0034,17.1116 L32.9502,17.1116 L32.9502,20 L24.2518,20 L24.2518,8.131 Z M40.2128,17.1116 C41.1424046,17.1116 41.8119312,16.873669 42.2214,16.3978 C42.6308687,15.921931 42.8356,15.1638719 42.8356,14.1236 L42.8356,13.9908 C42.8356,12.9062612 42.6225688,12.1399022 42.1965,11.6917 C41.7704312,11.2434978 41.1036712,11.0194 40.1962,11.0194 L39.582,11.0194 L39.582,17.1116 L40.2128,17.1116 Z M35.8138,8.131 L40.3456,8.131 C42.4814773,8.131 44.0833613,8.62346174 45.1513,9.6084 C46.2192386,10.5933383 46.7532,12.0319905 46.7532,13.9244 L46.7532,14.0406 C46.7532,15.9440762 46.2109387,17.4131615 45.1264,18.4479 C44.0418612,19.4826385 42.4482771,20 40.3456,20 L35.8138,20 L35.8138,8.131 Z M49.6001999,8.131 L53.4015999,8.131 L53.4015999,20 L49.6001999,20 L49.6001999,8.131 Z M59.7013999,8.131 L64.5651999,8.131 L68.2835999,20 L64.2995999,20 L63.7517999,18.0246 L60.0001999,18.0246 L59.4689999,20 L55.9663999,20 L59.7013999,8.131 Z M60.7139999,15.4682 L63.0545999,15.4682 L61.8925999,11.1688 L60.7139999,15.4682 Z" id="text" fill="#000000"></path>
        </g>
    </g>
</svg>