<svg width="90px" height="28px" viewBox="0 0 90 28" version="1.1" xmlns="http://www.w3.org/2000/svg" xmlns:xlink="http://www.w3.org/1999/xlink">
    <g id="Components" stroke="none" stroke-width="1" fill="none" fill-rule="evenodd">
        <g id="icon-4">
            <rect id="white-copy" fill="#FFFFFF" x="0" y="0" width="90" height="28"></rect>
            <path d="M7.079,8.131 L11.9594,8.131 L13.968,13.8912 L16.0098,8.131 L20.7906,8.131 L20.7906,20 L17.0556,20 L17.0556,12.9948 L14.3498,20 L13.0882,20 L10.4322,12.9948 L10.4322,20 L7.079,20 L7.079,8.131 Z M29.9954,17.261 C30.7368704,17.261 31.3261645,16.9871027 31.7633,16.4393 C32.2004355,15.8914973 32.419,15.119605 32.419,14.1236 L32.419,13.9908 C32.419,12.9837283 32.1976689,12.2146027 31.755,11.6834 C31.3123311,11.1521973 30.7147371,10.8866 29.9622,10.8866 C29.2317963,10.8866 28.6480355,11.1494307 28.2109,11.6751 C27.7737645,12.2007693 27.5552,12.9726616 27.5552,13.9908 L27.5552,14.1236 C27.5552,15.1417384 27.7737645,15.919164 28.2109,16.4559 C28.6480355,16.992636 29.2428629,17.261 29.9954,17.261 Z M29.8958,20.2158 C28.9219284,20.2158 28.0476705,20.0691681 27.273,19.7759 C26.4983294,19.4826319 25.8398694,19.067636 25.2976,18.5309 C24.7553306,17.994164 24.3403348,17.3523037 24.0526,16.6053 C23.7648652,15.8582963 23.621,15.0366045 23.621,14.1402 L23.621,14.0074 C23.621,13.0888621 23.7842317,12.2561037 24.1107,11.5091 C24.4371683,10.7620963 24.8853638,10.1257693 25.4553,9.6001 C26.0252362,9.07443071 26.6975294,8.66773477 27.4722,8.38 C28.2468705,8.09226523 29.0768622,7.9484 29.9622,7.9484 C30.8696712,7.9484 31.7134961,8.08396531 32.4937,8.3551 C33.2739039,8.62623469 33.9489638,9.01633079 34.5189,9.5254 C35.0888362,10.0344692 35.534265,10.656963 35.8552,11.3929 C36.1761349,12.128837 36.3366,12.9671286 36.3366,13.9078 L36.3366,14.0406 C36.3366,14.9702046 36.1844348,15.8140295 35.8801,16.5721 C35.5757651,17.3301705 35.1414028,17.977564 34.577,18.5143 C34.0125972,19.051036 33.3347706,19.4687985 32.5435,19.7676 C31.7522294,20.0664015 30.8696715,20.2158 29.8958,20.2158 Z M39.1338,8.131 L44.7446,8.131 C45.4750036,8.131 46.0974974,8.21123253 46.6121,8.3717 C47.1267025,8.53216747 47.544465,8.75073195 47.8654,9.0274 C48.1863349,9.30406805 48.4214992,9.63053145 48.5709,10.0068 C48.7203007,10.3830685 48.795,10.7925311 48.795,11.2352 L48.795,11.3016 C48.795,11.9988035 48.6179351,12.5604312 48.2638,12.9865 C47.9096649,13.4125688 47.4006033,13.7030659 46.7366,13.858 C47.4338034,13.9797339 48.0037311,14.2646978 48.4464,14.7129 C48.8890688,15.1611022 49.1104,15.8001959 49.1104,16.6302 L49.1104,16.6966 C49.1104,17.7479386 48.7590368,18.5613305 48.0563,19.1368 C47.3535631,19.7122695 46.2386076,20 44.7114,20 L39.1338,20 L39.1338,8.131 Z M43.9976,17.5266 C44.4845357,17.5266 44.8414322,17.4187011 45.0683,17.2029 C45.2951678,16.9870989 45.4086,16.680002 45.4086,16.2816 L45.4086,16.2152 C45.4086,15.8278647 45.2924011,15.5290677 45.06,15.3188 C44.8275988,15.1085323 44.4458026,15.0034 43.9146,15.0034 L42.8024,15.0034 L42.8024,17.5266 L43.9976,17.5266 Z M43.9478,12.7624 C44.4126023,12.7624 44.744599,12.6794008 44.9438,12.5134 C45.143001,12.3473992 45.2426,12.0818018 45.2426,11.7166 L45.2426,11.6502 C45.2426,11.2960649 45.1402343,11.0304676 44.9355,10.8534 C44.7307656,10.6763324 44.3960023,10.5878 43.9312,10.5878 L42.8024,10.5878 L42.8024,12.7624 L43.9478,12.7624 Z M51.9075999,8.131 L55.7089999,8.131 L55.7089999,20 L51.9075999,20 L51.9075999,8.131 Z M59.2033999,8.131 L62.9715999,8.131 L62.9715999,17.095 L67.2875999,17.095 L67.2875999,20 L59.2033999,20 L59.2033999,8.131 Z M70.1345999,8.131 L78.5673999,8.131 L78.5673999,11.0194 L73.8861999,11.0194 L73.8861999,12.696 L77.6045999,12.696 L77.6045999,15.3354 L73.8861999,15.3354 L73.8861999,17.1116 L78.8329999,17.1116 L78.8329999,20 L70.1345999,20 L70.1345999,8.131 Z" id="text" fill="#000000"></path>
        </g>
    </g>
</svg>