<svg width="110px" height="28px" viewBox="0 0 110 28" version="1.1" xmlns="http://www.w3.org/2000/svg" xmlns:xlink="http://www.w3.org/1999/xlink">
    <g id="Components" stroke="none" stroke-width="1" fill="none" fill-rule="evenodd">
        <g id="icon-3">
            <rect id="white-copy" x="0" y="0" width="110" height="28"></rect>
            <path d="M7.079,8.131 L11.81,8.131 C13.5142752,8.131 14.7537295,8.49066307 15.5284,9.21 C16.3030705,9.92933693 16.6904,10.925327 16.6904,12.198 L16.6904,12.2644 C16.6904,13.5038729 16.292004,14.4583633 15.4952,15.1279 C14.698396,15.7974367 13.5253411,16.1322 11.976,16.1322 L10.8306,16.1322 L10.8306,20 L7.079,20 L7.079,8.131 Z M11.6108,13.609 C12.6178717,13.609 13.1214,13.1663378 13.1214,12.281 L13.1214,12.2146 C13.1214,11.7497977 12.9969012,11.4205676 12.7479,11.2269 C12.4988988,11.0332324 12.1254025,10.9364 11.6274,10.9364 L10.8306,10.9364 L10.8306,13.609 L11.6108,13.609 Z M21.3468,8.131 L26.2106,8.131 L29.929,20 L25.945,20 L25.3972,18.0246 L21.6456,18.0246 L21.1144,20 L17.6118,20 L21.3468,8.131 Z M22.3594,15.4682 L24.7,15.4682 L23.538,11.1688 L22.3594,15.4682 Z M32.4274,8.131 L37.2746,8.131 C38.9235415,8.131 40.1629958,8.45469676 40.993,9.1021 C41.8230041,9.74950324 42.238,10.709527 42.238,11.9822 L42.238,12.0486 C42.238,12.8675374 42.0498685,13.5232309 41.6736,14.0157 C41.2973314,14.5081691 40.8159362,14.8871987 40.2294,15.1528 L42.9352,20 L38.9844,20 L36.7766,15.933 L36.179,15.933 L36.179,20 L32.4274,20 L32.4274,8.131 Z M37.0588,13.5094 C38.0880051,13.5094 38.6026,13.0778043 38.6026,12.2146 L38.6026,12.1482 C38.6026,11.7165978 38.4753346,11.4095009 38.2208,11.2269 C37.9662654,11.0442991 37.5844692,10.953 37.0754,10.953 L36.179,10.953 L36.179,13.5094 L37.0588,13.5094 Z M47.3923999,11.0194 L44.4043999,11.0194 L44.4043999,8.131 L54.1817999,8.131 L54.1817999,11.0194 L51.1771999,11.0194 L51.1771999,20 L47.3923999,20 L47.3923999,11.0194 Z M56.8627999,8.131 L61.0791999,8.131 L64.4489999,14.4058 L64.4489999,8.131 L67.7523999,8.131 L67.7523999,20 L64.1501999,20 L60.1827999,12.8952 L60.1827999,20 L56.8627999,20 L56.8627999,8.131 Z M71.1969999,8.131 L79.6297999,8.131 L79.6297999,11.0194 L74.9485999,11.0194 L74.9485999,12.696 L78.6669999,12.696 L78.6669999,15.3354 L74.9485999,15.3354 L74.9485999,17.1116 L79.8953999,17.1116 L79.8953999,20 L71.1969999,20 L71.1969999,8.131 Z M82.7589999,8.131 L87.6061999,8.131 C89.2551415,8.131 90.4945957,8.45469676 91.3245999,9.1021 C92.154604,9.74950324 92.5695999,10.709527 92.5695999,11.9822 L92.5695999,12.0486 C92.5695999,12.8675374 92.3814684,13.5232309 92.0051999,14.0157 C91.6289313,14.5081691 91.1475362,14.8871987 90.5609999,15.1528 L93.2667999,20 L89.3159999,20 L87.1081999,15.933 L86.5105999,15.933 L86.5105999,20 L82.7589999,20 L82.7589999,8.131 Z M87.3903999,13.5094 C88.419605,13.5094 88.9341999,13.0778043 88.9341999,12.2146 L88.9341999,12.1482 C88.9341999,11.7165978 88.8069345,11.4095009 88.5523999,11.2269 C88.2978653,11.0442991 87.9160691,10.953 87.4069999,10.953 L86.5105999,10.953 L86.5105999,13.5094 L87.3903999,13.5094 Z M100.1144,20.2158 C98.4322581,20.2158 97.1513043,19.8810367 96.2714999,19.2115 C95.3916955,18.5419633 94.9296668,17.5376734 94.8853999,16.1986 L98.4543999,16.1986 C98.4654666,16.3867343 98.5014329,16.5637992 98.5622999,16.7298 C98.6231668,16.8958008 98.7172326,17.0396661 98.8444999,17.1614 C98.9717672,17.2831339 99.1377655,17.3799663 99.3424999,17.4519 C99.5472342,17.5238337 99.8045317,17.5598 100.1144,17.5598 C100.557069,17.5598 100.886299,17.4685009 101.1021,17.2859 C101.317901,17.1032991 101.4258,16.8681348 101.4258,16.5804 C101.4258,16.2705318 101.304068,16.046434 101.0606,15.9081 C100.817132,15.769766 100.37447,15.6563338 99.7325999,15.5678 C98.8804623,15.4681995 98.1611361,15.3298676 97.5745999,15.1528 C96.9880636,14.9757324 96.5149683,14.7350349 96.1552999,14.4307 C95.7956314,14.1263651 95.538334,13.7556355 95.3833999,13.3185 C95.2284658,12.8813645 95.1509999,12.3584697 95.1509999,11.7498 C95.1509999,11.2075306 95.2588988,10.7040023 95.4746999,10.2392 C95.6905009,9.77439768 96.0031312,9.37323502 96.4125999,9.0357 C96.8220686,8.69816498 97.3200636,8.43533427 97.9065999,8.2472 C98.4931361,8.05906573 99.1571295,7.965 99.8985999,7.965 C101.381541,7.965 102.524163,8.26933029 103.3265,8.878 C104.128837,9.48666971 104.579799,10.4439268 104.6794,11.7498 L101.1934,11.7498 C101.149133,11.3845982 101.021868,11.102401 100.8116,10.9032 C100.601332,10.703999 100.297002,10.6044 99.8985999,10.6044 C99.5112646,10.6044 99.2180009,10.6846325 99.0187999,10.8451 C98.8195989,11.0055675 98.7199999,11.2130654 98.7199999,11.4676 C98.7199999,11.6114674 98.7448996,11.7359661 98.7946999,11.8411 C98.8445001,11.9462339 98.9330326,12.0375329 99.0602999,12.115 C99.1875672,12.1924671 99.3563321,12.2588664 99.5665999,12.3142 C99.7768676,12.3695336 100.047998,12.4193331 100.38,12.4636 C101.12147,12.5410671 101.782697,12.6544993 102.3637,12.8039 C102.944703,12.9533007 103.431631,13.1690986 103.8245,13.4513 C104.217368,13.7335014 104.516166,14.0931645 104.7209,14.5303 C104.925634,14.9674355 105.028,15.5179967 105.028,16.182 C105.028,16.7353361 104.920101,17.2554642 104.7043,17.7424 C104.488499,18.2293358 104.173102,18.6553982 103.7581,19.0206 C103.343098,19.3858018 102.83127,19.6762989 102.2226,19.8921 C101.61393,20.1079011 100.911204,20.2158 100.1144,20.2158 Z" id="text" fill="#000000"></path>
        </g>
    </g>
</svg>