<svg width="90" height="90" viewBox="0 0 90 90" xmlns="http://www.w3.org/2000/svg"><title>icon/services/analytics</title><g fill="#06F" fill-rule="nonzero"><path d="M38.5 58.5a22 22 0 1 1 0-44 22 22 0 0 1 0 44zm0-3a19 19 0 1 0 0-38 19 19 0 0 0 0 38z"/><path d="M38.46 53.46a17 17 0 1 1 0-34 17 17 0 0 1 0 34zm0-2a15 15 0 1 0 0-30 15 15 0 0 0 0 30z"/><path d="M38.62 39.95a6 6 0 1 1 0-12 6 6 0 0 1 0 12zm0-2a4 4 0 1 0 0-8 4 4 0 0 0 0 8z"/><path d="M29.62 48.9a9 9 0 1 1 18 0 1 1 0 1 0 2 0 11 11 0 1 0-22 0 1 1 0 1 0 2 0zM46.76 56.12l15.56 15.56a5.5 5.5 0 1 0 7.78-7.78L54.54 48.34l-2.12 2.12 15.56 15.56a2.5 2.5 0 1 1-3.54 3.54L48.9 54l-2.13 2.12z"/></g></svg>