<svg width="90" height="90" viewBox="0 0 90 90" xmlns="http://www.w3.org/2000/svg"><title>icon/services/creative</title><g transform="translate(20 12)" fill="none" fill-rule="evenodd"><path d="M10.29 50.23C1.75 36 1.49 24.15 9.03 17.09c3.44-3.24 7.32-4.55 12.33-4.1l.28-2.98c-5.87-.54-10.6 1.06-14.67 4.9-8.73 8.18-8.45 21.55.74 36.86l2.58-1.54z" fill="#06F" fill-rule="nonzero"/><path d="M32 58.03l2.1-.05c1.94-.35 2.9-1.5 2.9-3.41 0-1.24-.52-2.2-1.5-2.89a4.38 4.38 0 0 0-1.35-.64l-.17-.05-.16-.09c-4.27-2.4-7.13-7.24-8.25-13.45-.2-1.09-.34-2.19-.4-3.21L25 31.09l2.48 1.94c1.15.9 2.87 1.26 5.13 1.02L33 34l.37.18c3.25 1.57 5.77 2.5 7.67 2.83 1.27.3 2.54-1.11 3.96-5.09A238.99 238.99 0 0 1 37 25c-.4-.4-.84-.96-2-2.5L33.86 21l-.67-.85.65-.87c.24-.33 2.67-5.1 3.94-7.02l2.2-4.02-9.18 7.95-2.16 1.08c-1.35.68-2.48-.02-3.26-1.32a14.5 14.5 0 0 1-1.22-2.97 304.57 304.57 0 0 1-.6-1.85 4.26 4.26 0 0 0-.78 1.83c-.16.76-.2 1.44-.19 2.68 0 .6 0 .8-.02 1.07-.02.22-.05.42-.12.62-.15.42-.42.79-.91.99-6.84 2.77-10.55 7.7-11.71 14.32-.92 5.21-.18 11.21 1.65 16.86l.4 1.24-1.2.5C9.63 51.7 9 52.8 9 54.57c0 1.88 1.04 3.05 3.12 3.43H14v6h18v-5.97zm-4.64-43.3c.2-.1.47-.08.64.02 0 0-.07-.08-.17-.26l-.47.24zm7.49 52.12h-23.7V60.7c-3.11-.74-5-2.98-5-6.13 0-2.32.81-4.17 2.28-5.29-1.7-5.73-2.35-11.75-1.4-17.13 1.28-7.32 5.4-12.95 12.72-16.17v-.32c-.01-1.44.03-2.27.24-3.29a6.31 6.31 0 0 1 3.37-4.64l.3-.15H24c1.15 0 1.51.59 2.05 2.03a311.87 311.87 0 0 0 .82 2.5c.38 1.15.67 1.9.95 2.38l1.38-.68L43.65 1.29a1.52 1.52 0 0 1 2.33 1.88l-5.73 10.51c-.93 1.4-2.64 4.67-3.56 6.33l.59.78A25.28 25.28 0 0 0 39 23c.59.58 3.3 2.92 7.83 6.76l1.5 1.28-.66 1.86c-1.87 5.2-4.06 7.64-7.2 6.9-2.06-.34-4.68-1.3-7.98-2.87a11.6 11.6 0 0 1-4.2-.34l.07.36c.97 5.37 3.34 9.43 6.7 11.4.7.2 1.4.55 2.06 1.01a6.18 6.18 0 0 1 2.72 5.22c0 3.23-1.87 5.5-5 6.17v6.1z" fill="#06F" fill-rule="nonzero"/><rect fill="#06F" fill-rule="nonzero" x="28" y="24" width="5" height="2" rx="1"/><path fill="#06F" fill-rule="nonzero" d="M13 58h20v2H13zM11 49h23v2H11z"/><path d="M29 15a13.08 13.08 0 0 0 6 6M34 12c.67 2 2 3 4 3" stroke="#06F" stroke-width="2"/><path fill="#06F" fill-rule="nonzero" d="M6.55 16.82l3 9 1.9-.64-3-9zM13.02 12.7l1.5 7.5 1.96-.4-1.5-7.5zM2.1 24.45l5 10 1.8-.9-5-10z"/></g></svg>