<svg width="90" height="90" viewBox="0 0 90 90" xmlns="http://www.w3.org/2000/svg"><title>icon/services/design</title><g fill="#06F" fill-rule="nonzero"><path d="M23.57 17.54a1.6 1.6 0 0 1 2.62-1.5l20.93 18.08 17.8-11.88 9.64 5.35a1.6 1.6 0 0 1-.12 2.86L64.2 35.1l-4.96 13.88-40.08 26.05a1.6 1.6 0 0 1-2.26-2.12l12.53-22.18-5.86-33.2zm9 33.73L22.32 69.4l34.44-22.38L61.8 32.9l8.87-4.03-5.6-3.11-18.19 12.12L27.21 20.9l5.36 30.38z"/><path d="M28.85 34.99l.3-1.98-12.75-1.96a1.1 1.1 0 0 0-1.03 1.77l14.85 18.8 1.56-1.24-13.42-17 10.49 1.6zM42.32 33.73l15.5 14.51 1.37-1.46-15.5-14.51zM61.96 38.27l4-14-1.92-.54-4 14z"/><path d="M31.15 51.99l27-4-.3-1.98-27 4z"/></g></svg>