<svg width="90" height="90" viewBox="0 0 90 90" xmlns="http://www.w3.org/2000/svg"><title>icon/services/development</title><g fill="#06F" fill-rule="nonzero"><path d="M46 66h23v-9H46v9zm-3-12h29v15H43V54z"/><path d="M20 66h23v-9H20v9zm-3-12h29v15H17V54z"/><path d="M37 54h23v-9H37v9zm-3-12h29v15H34V42z"/><path d="M51 33v9h9v-9h-9zm-3-3h15v15H48V30zM30 33h9v-9h-9v9zm-3-12h15v15H27V21z"/><path d="M57 28h3v3h-3zM36 19h3v3h-3zM27 52h3v3h-3zM66 52h3v3h-3zM37 40h3v3h-3zM43 40h3v3h-3zM51 28h3v3h-3zM30 19h3v3h-3zM20 52h3v3h-3z"/></g></svg>