<svg width="90" height="90" viewBox="0 0 90 90" xmlns="http://www.w3.org/2000/svg"><title>icon/services/support</title><path d="M69.4 73.3c-.3-.5-.9-.7-1.4-.4l-2.3 1.3c-.7.4-1.6.4-2.4 0l-1.6-1c-.8-.5-1.7-.8-2.7-.7v-7c0-.6-.4-1-1-1h-2.8l-3.8-29.1v-8.9H54c.6 0 1-.4 1-1s-.4-1-1-1h-2.9l-5.2-6.1-.3-.3-.1-.1v-4.5h-3V18c-.1.1-.3.2-.4.4l-5.2 6.1H34c-.6 0-1 .4-1 1s.4 1 1 1h2.5v8.9l-3.7 29.1H30c-.6 0-1 .4-1 1v7c-.7 0-1.4.2-2 .6l-1.5 1c-.8.4-1.7.4-2.5 0l-1.5-1c-.5-.3-1.1-.2-1.4.3-.2.5-.1 1.1.4 1.4l1.5 1c1.4.8 3.2.8 4.6 0l1.5-1c.8-.4 1.7-.4 2.5 0l1.5 1c1.4.8 3.2.8 4.6 0l1.5-1c.7-.4 1.5-.4 2.2-.1l.1.1 1.5 1c.3.2.7.4 1.1.5.5.2 1 .2 1.5.2.7 0 1.5-.2 2.1-.5l2.3-1.3c.1 0 .1-.1.2-.2.5 0 .9.1 1.4.3l1.5 1c1.4.8 3.2.8 4.6 0l1.5-1c.8-.4 1.7-.4 2.5 0l1.6 1c.7.4 1.5.7 2.3.6.7 0 1.5-.2 2.1-.5l2.3-1.3c.5-.2.6-.8.4-1.3zM44 20.8l3.2 3.7h-6.3l3.1-3.7zm-4.5 5.7h9v8h-9v-8zm-.1 10h9.2l.6 4.3-11.1 6 1.3-10.3zm-1.7 12.7l11.7-6.3 1.2 9.2L36.3 60l1.4-10.8zM36 62.5l14.9-8.3 1.3 10.3H35.8l.2-2zm20 11.3l-.5.3c-.8.4-1.7.4-2.5 0l-1.5-1c-1.4-.9-3.2-.9-4.6 0l-1.5 1c-.6.3-1.2.4-1.8.2-.1 0-.3-.1-.4-.2l-1.6-1a4.7 4.7 0 0 0-4.6 0l-1.5 1c-.8.4-1.7.4-2.5 0l-1-.7v-5.9h24v6.3zM24 27.5v-.2c.1-.5.6-.9 1.1-.8l6 1c.5.1.8.5.8 1v.2c-.1.5-.5.8-1 .8h-.2l-6-1c-.3-.1-.7-.5-.7-1zm7.8 6c.6-.1 1.1.2 1.2.8.1.6-.2 1.1-.8 1.2l-4 1c-.6.1-1.1-.2-1.2-.8-.1-.6.2-1.1.8-1.2l4-1zM56 28.7v-.2c0-.5.4-.9.8-1l6-1c.5-.1 1.1.3 1.1.8v.2c0 .5-.3.9-.8 1l-6 1H57c-.5 0-.9-.3-1-.8zm-1 5.5c.1-.6.7-.9 1.3-.7l3.5 1c.6.1.9.7.7 1.3-.1.6-.7.9-1.3.7l-3.5-1c-.5-.1-.8-.7-.7-1.3z" fill="#06F" fill-rule="nonzero"/></svg>