<svg xmlns="http://www.w3.org/2000/svg" width="180" height="80" fill="none" viewBox="0 0 180 80">
  <path fill="#222631" fill-rule="evenodd" d="M50.58 49.842l21.277-20.713h13.254L63.774 49.842H50.58zm-38.552.014l9.442-8.918c3.724-3.51 5.23-4.041 12.323-4.041H62.09l8.142-7.753H32.73c-9.502 0-12.176.877-17.747 6.242L0 49.856h12.028zm22.076-4.459H53.4l7.462-7.25H33.957c-7.137 0-8.26.533-11.496 3.683l-8.245 8.026H25.37l2.66-2.589c1.758-1.712 2.541-1.87 6.073-1.87zm35.138 2.258v-.388h2.157v.388h-.842v2.201h-.473v-2.2h-.842zm4.566-.388l-.71 2.028h-.014l-.74-2.028h-.65v2.59h.444v-2h.014l.74 2h.384l.738-2h.015v2h.443v-2.59h-.664zm14.85 2.647h49.5c.03 0 3.842-.03 3.842-3.74V29.2h-.296v16.973c0 3.394-3.516 3.452-3.546 3.452h-49.5v.288zm.34-19.404h3.147v.849H90.06v.719h2.084v.849H90.06v1.467h-1.064V30.51zm5.378 3.927c1.005 0 1.552-.561 1.552-1.424v-.374c0-.877-.562-1.424-1.552-1.424h-.37c-.99 0-1.55.561-1.55 1.424v.374c0 .877.56 1.424 1.55 1.424h.37zm-.015-2.474h-.354c-.4 0-.532.187-.532.59v.532c0 .403.133.604.532.604h.354c.4 0 .517-.187.517-.604v-.532c0-.389-.118-.59-.517-.59zm4.02-.676h-.931c-.887 0-1.227.56-1.242 1.15v1.957h1.005v-1.942c0-.302.104-.417.458-.417h.71v-.748zm.206 0h3.768c.975 0 1.374.475 1.374 1.266v1.84h-1.004v-1.87c0-.316-.089-.445-.399-.445h-.665v2.301h-1.005v-2.301h-1.064v2.301h-1.005v-3.092zm8.851 0h-1.019v2.316h-.887c-.31 0-.399-.13-.399-.446v-1.87h-1.005v1.841c0 .777.399 1.266 1.33 1.266h1.98v-3.107zm1.493 3.107h-1.005V30.51h1.005v3.884zm1.3-.015h2.187v-1.682c0-.907-.473-1.425-1.699-1.425h-1.404v.748h1.684l-.901.605-.072.048c-.439.292-.785.523-.785.973 0 .446.34.733.99.733zm1.226-.748v-1.035l-.96.733-.016.012c-.106.078-.147.107-.147.175 0 .072.06.115.193.115h.93zm3.34-.043H113.777v.806h2.941v-.791h-.872v-2.144c0-.56-.384-.949-.99-.949h-1.02v.834h.798c.104 0 .163.058.163.173v2.071zm-22.682 5.97H88.82v-.633c0-.662.251-1.007 1.153-1.467l.842-.432c.192-.086.251-.158.251-.302 0-.187-.148-.245-.37-.245H88.91v-.82h1.876c.946 0 1.375.36 1.375.935 0 .648-.4.878-1.138 1.28l-.769.403c-.236.13-.28.216-.28.346v.1h2.142v.834zm2.113.057h.4c1.196 0 1.772-.69 1.772-1.726v-.532c0-1.021-.576-1.712-1.773-1.712h-.399c-1.197 0-1.773.676-1.773 1.697v.533c0 1.035.576 1.74 1.773 1.74zm.074-.834h.251c.532 0 .74-.202.74-.734V37.2c0-.533-.193-.734-.74-.734h-.25c-.533 0-.74.201-.74.734v.834c0 .546.207.748.74.748zm3.59-.015h-1.019v.806h2.94v-.791h-.871v-2.143c0-.561-.384-.95-.99-.95h-1.02v.834h.798c.104 0 .163.058.163.173v2.071zm2.35-1.74v-.173c0-.776.473-1.194 1.596-1.194h.207c1.256 0 1.788.49 1.788 1.597v.676c0 .993-.576 1.625-1.906 1.625h-1.507v-.776h1.536c.621 0 .783-.173.783-.633v-.058h-.93c-1.079 0-1.567-.36-1.567-1.064zm2.497-.014v.316h-.842c-.443 0-.576-.1-.576-.403v-.115c0-.259.118-.403.621-.403h.133c.517 0 .664.116.664.605zm5.926 1.74h-1.862l-.325.82h-1.079l1.33-3.136c.207-.489.473-.82 1.005-.82.561 0 .842.317 1.034.806l1.315 3.136h-1.108l-.31-.806zm-.311-.806h-1.241l.547-1.337c.015-.043.029-.087.089-.087.044 0 .073.03.088.087l.517 1.337zm2.882 1.611c-.769 0-1.123-.36-1.123-.848 0-.49.369-.777.886-.92l1.123-.346c.089-.029.133-.072.133-.13 0-.071-.044-.114-.147-.114h-1.877v-.748h1.862c.857 0 1.152.33 1.152.834 0 .518-.325.777-.842.935l-1.167.345c-.089.029-.148.058-.148.13 0 .071.059.114.148.114h1.95v.748h-1.95zm3.236-1.236v-.015h2.275v-.446c0-.863-.325-1.438-1.522-1.438h-.206c-1.123 0-1.567.532-1.567 1.352v.388c0 .834.414 1.395 1.67 1.395h1.551v-.748h-1.61c-.443 0-.591-.1-.591-.488zm.458-1.209c-.34 0-.458.13-.458.475v.072h1.33v-.072c0-.33-.133-.475-.458-.475h-.414zm4.3-.647h-.931c-.887 0-1.241.561-1.241 1.15v1.957h1.004V37.63c0-.302.104-.417.459-.417h.709v-.748zm.177-.777h1.005v.72h1.256c.798 0 1.256.56 1.256 1.395v.36c0 .848-.473 1.395-1.256 1.395h-2.261v-3.87zm1.005 3.107V37.17h.916c.443 0 .576.172.576.575v.46c0 .403-.133.59-.576.59h-.916zm5.836.762h-2.186c-.651 0-.99-.287-.99-.733 0-.45.345-.68.784-.973l.073-.048.901-.604h-1.685v-.748h1.404c1.227 0 1.699.517 1.699 1.424v1.682zm-.945-1.783v1.035h-.931c-.133 0-.192-.043-.192-.114 0-.07.04-.098.146-.176l.016-.011.961-.734zm1.418-1.582v-.604h1.005v.604h-1.005zm1.005.273h-1.005v3.107h1.005v-3.107zm1.493 0v2.862c0 .69-.399 1.022-1.064 1.022h-.429v-.662h.251c.148 0 .237-.072.237-.273v-2.949h1.005zm-1.005-.877v.604h1.005v-.604h-1.005zm4.477 3.97h-2.187c-.65 0-.99-.288-.99-.734 0-.45.346-.68.785-.973l.072-.048.901-.604h-1.684v-.748h1.404c1.226 0 1.699.517 1.699 1.424v1.682zm-.961-1.784v1.035h-.93c-.133 0-.193-.043-.193-.114 0-.07.041-.098.147-.176l.016-.011.96-.734zm1.375-1.309h1.965c.931 0 1.33.49 1.33 1.266v1.84h-1.005v-1.869c0-.316-.089-.446-.399-.446h-.887v2.301h-1.004v-3.092zm-42.26 5.25h2.024v-.849H90.8c-1.27 0-1.92.648-1.92 1.654v.547c0 1.093.635 1.726 1.935 1.726h.576c1.005 0 1.552-.345 1.552-1.122V42.45h-2.04v.82h1.08v.345c0 .244-.163.36-.562.36h-.65c-.577 0-.784-.23-.784-.85v-.59c0-.589.193-.819.858-.819zm3.694-.072h.93v.748h-.709c-.354 0-.458.115-.458.417v1.942h-1.005v-1.956c0-.59.355-1.15 1.242-1.15zm1.95 3.093h2.187v-1.683c0-.906-.473-1.424-1.7-1.424h-1.403v.748h1.684l-.9.604-.073.048c-.44.293-.785.523-.785.973 0 .446.34.734.99.734zm1.227-.748v-1.036l-.961.734-.016.011c-.106.078-.147.107-.147.175 0 .072.06.116.193.116h.93zm3.354-2.345h-1.965v3.093h1.004v-2.302h.887c.31 0 .399.13.399.446v1.87h1.005v-1.841c0-.777-.399-1.266-1.33-1.266zm5.142 3.093h-2.261c-.798 0-1.256-.561-1.256-1.396v-.316c0-.849.473-1.395 1.256-1.395h1.256v-.777h1.005v3.884zm-1.02-2.33v1.567h-.916c-.443 0-.576-.172-.576-.575v-.403c0-.403.133-.59.576-.59h.916zm6.132-.072c0 .848-.502 1.107-1.61 1.107h-.931v1.295h-1.064v-3.884h1.995c1.108 0 1.61.302 1.61 1.093v.389zm-1.581-.72c.385 0 .518.144.518.389v.302c0 .23-.133.374-.518.374h-.96v-1.065h.96zm3.089.03h.931v.747h-.71c-.354 0-.458.115-.458.417v1.942h-1.005v-1.956c.015-.59.355-1.15 1.242-1.15zm1.182-.878v.604h1.005v-.604h-1.005zm0 .877h1.005v3.107h-1.005v-3.107zm2.423 3.107l.606-.834c.074-.115.162-.101.251 0l.606.834h1.123l-1.167-1.568 1.123-1.539h-1.094l-.62.892c-.074.1-.133.1-.207 0l-.621-.892h-1.123l1.212 1.625-1.182 1.482h1.093z" clip-rule="evenodd"/>
</svg>
