<svg xmlns="http://www.w3.org/2000/svg" width="180" height="80" fill="none" viewBox="0 0 180 80">
  <path fill="#151515" d="M14.974 25c8.236-.053 14.982 6.94 15.012 15.584.03 8.254-6.72 15.476-15.028 15.416C6.708 55.938.006 49.045 0 40.54-.006 31.989 6.78 24.945 14.974 25zM4.15 48.767c1.037.518 2.499.698 4.671.616a6.842 6.842 0 0 0 3.871-1.339c2.73-2.006 2.813-5.243.421-7.178-1.105-.893-2.29-1.682-3.426-2.535a1.652 1.652 0 0 1-.63-1.69c.036-.278.157-.538.346-.745.188-.206.436-.348.708-.407.47-.143.953-.238 1.442-.285.962-.049 1.93 0 2.891-.047a.896.896 0 0 0 .676-.389c.337-.729.589-1.5.951-2.463-2.239.153-4.396.056-6.446.495-2.808.601-4.414 2.978-3.692 5.862.36 1.45 1.478 2.233 2.581 3.014.814.576 1.669 1.102 2.438 1.737.93.772.848 1.977-.061 2.753-.701.596-1.541.514-2.327.547-1.082.041-2.17-.104-3.256-.127a.678.678 0 0 0-.541.312c-.245.607-.417 1.246-.615 1.868H4.15zm17.14-13.603l-4.116 10.832c.815 0 1.466-.073 2.096.018.78.112 1.079-.289 1.329-.952 1.496-3.966 3.01-7.925 4.539-11.88.215-.56.066-.754-.485-.752-2.198.007-4.4-.002-6.598.01-.175 0-.459.059-.508.172-.348.806-.646 1.635-.997 2.552h4.74zm14.575-2.597c2.37 0 4.67-.126 6.954.037 2.175.154 3.535 2.167 3.45 4.468-.11 2.919-2.35 4.185-4.312 4.129-1.083-.03-2.166-.007-3.329-.007v4.754h-2.763v-13.38zm2.787 6.314c1.14 0 2.247.063 3.345-.019.875-.066 1.473-.907 1.505-1.888.033-1.036-.503-1.943-1.412-2.034-1.135-.115-2.29-.029-3.438-.029v3.97zm28.365 2.28c-.053 3.141-2.09 5.183-5.144 5.111-2.717-.064-4.832-2.247-4.715-5.51.072-2.762 2.277-4.952 4.95-4.914 2.91.021 4.96 2.24 4.909 5.314v-.002zm-2.57-.106c0-.206.014-.412-.002-.617-.118-1.465-1.034-2.52-2.256-2.602-1.123-.078-2.014.753-2.372 2.192a4.345 4.345 0 0 0 .305 2.979c.225.508.636.91 1.148 1.118.51.21 1.082.21 1.594.004 1.112-.446 1.59-1.37 1.582-3.074h.002zM93 36.12c-.539 1.661-1.027 3.182-1.523 4.7-.612 1.88-1.19 3.774-1.857 5.636-.83 2.317-1.942 2.888-4.742 2.537v-1.887c.47-.034.935-.101 1.395-.2.757-.21 1.039-.654.824-1.43-.354-1.27-.78-2.517-1.204-3.765-.316-.938-.68-1.858-1.016-2.79-.323-.902-.636-1.809-.985-2.8.816 0 1.554-.04 2.283.027.197.018.462.326.536.556.58 1.838 1.12 3.69 1.677 5.535.045.1.102.192.169.277.583-1.973 1.173-3.898 1.707-5.843.122-.441.294-.579.708-.56.639.028 1.281.007 2.028.007zm-13.853 1.773l-1.269-.069v-1.676l1.258-.06v-3.01h2.461v3.02h1.55v1.672a2.118 2.118 0 0 1-.383.078c-1.138.05-1.138.047-1.138 1.203 0 1.231-.004 2.464 0 3.693.006 1.164.095 1.248 1.236 1.276.118.003.236.02.398.031v1.907c-.815 0-1.631.084-2.425-.021-.995-.132-1.675-1.049-1.682-2.117-.016-1.948-.004-3.894-.004-5.925l-.002-.002zm-29.402-1.709v1.49c.718-1.285 1.609-1.859 2.926-1.528v2.24c-.194.01-.36.019-.524.025-1.297.036-2.124.713-2.24 2.047-.12 1.399-.087 2.812-.116 4.22-.008.405 0 .81 0 1.266h-2.45v-9.76h2.404zm20.79 9.772h-2.467v-9.779h2.314l.08 1.545c.754-1.291 1.62-1.964 2.975-1.555v2.187c-.42.009-.837.05-1.25.127-.99.262-1.632 1.287-1.647 2.617-.018 1.607-.004 3.212-.004 4.857v.001zm-16.882-9.8h2.47v9.792h-2.47v-9.792zm23.205 9.806h-2.42v-9.798h2.42v9.798zm.018-11.22h-2.443v-2.272h2.443v2.271zm-23.218-2.289h2.46v2.272h-2.46v-2.272z"/>
</svg>
