<svg xmlns="http://www.w3.org/2000/svg" width="180" height="80" fill="none" viewBox="0 0 180 80">
  <path fill="#222631" d="M57.37 54.31l-.005-6.016 19.397-.593v6.61H57.37zM68.106 46.93l-9.56.317s6.66-6.13 9.165-9.123c1.626-1.94 2.313-4.035 1.646-5.432-.423-.885-1.37-1.323-2.54-1.257v-6.318c2.887-.418 5.527.288 7.332 2.013 1.644 1.575 2.476 3.81 2.277 6.126-.376 4.38-2.474 7.89-8.32 13.673v.001z"/>
  <path fill="#222631" d="M63.626 36.987l-6.008.54c-.32-6.852 2.448-11.05 8.082-12.267l.003 6.433c-1.18.506-2.35 1.424-2.077 5.294zM47.222 48.607l8.3-.253v5.956h-8.3v-5.703zM47.222 28.593l8.3-1.184v5.95l-8.3.925v-5.69zM40.458 29.553l5.7-.81V54.31h-5.7V29.554zM31.76 49.08l7.187-.22v5.45H31.76v-5.23zM25.885 31.633l4.952-.702v23.38h-4.952V31.633zM17.948 49.503l6.275-.192v5h-6.275v-4.807zM17.948 32.766l6.275-.893v4.98l-6.275.7v-4.786zM12.79 33.5l4.344-.617V54.31H12.79V33.5zM0 35.32l11.266-1.603v4.58L0 39.554V35.32zM7.72 54.31H3.595v-14.5l4.127-.426V54.31H7.72zM22.07 45.765l-4.123.225v-4.872l4.122-.36v5.007zM52.665 44.067l-5.443.3v-5.8l5.443-.47v5.97z"/>
</svg>
