<svg xmlns="http://www.w3.org/2000/svg" width="180" height="80" fill="none" viewBox="0 0 180 80">
  <path fill="#222631" d="M42.155 42.296c-1.327-.658-2.167-2.402-2.37-3.03-.22 3.46-1.902 5.86-3.868 8.17-1.02 1.197-1.377 2.362-1.377 2.362s.197-1.32 1.079-2.394c1.835-2.21 3.58-4.966 3.708-8.15.09-2.223-.48-4.025-1.368-5.51.498 1.546.426 3.44-1.261 5.21 0 0 3.36-4.042-1.338-8.185-1.88-1.577-3.938-2.55-4.996-3.24 3.826 1.253 5.694-.126 5.694-.126-1.221 1.062-2.803 1.045-3.784.891.266.13.543.266.84.427 3.227 1.76 6.126 4.653 6.62 8.66v-.03c.75 3.935 2.42 4.945 2.42 4.945z"/>
  <path fill="#222631" d="M20.61 45.065a.148.148 0 0 0-.159.138.145.145 0 0 0 .083.145.146.146 0 0 0 .057.014.15.15 0 0 0 .122-.248.15.15 0 0 0-.103-.049zm6.739 11.508l-.664-1.833c.79-.241 2.148-.761 2.757-1.106l-.406 1.334 1.376.459c-.832.42-1.84.81-3.063 1.146zm-4.123 1.648c-1.6 0-3.427-.369-3.966-.562l.818-2.22c.678.2 2.09.41 3.113.404h.065c1.024.007 2.433-.205 3.115-.403l.816 2.22c-.538.192-2.364.561-3.961.561zm-7.191-2.794l1.378-.46-.408-1.333c.608.345 1.969.865 2.757 1.106l-.665 1.833c-1.218-.336-2.23-.727-3.062-1.146zm14.439-.408l-.838-.321.232-.87.255-.945s-1.485.808-3.576 1.414c-.593.17-1.042.248-1.042.248v.645s-1.12.195-2.25.195h-.064c-1.131 0-2.248-.195-2.248-.195v-.645s-.45-.078-1.042-.248c-2.092-.606-3.574-1.414-3.574-1.414l.25.945.237.87-.84.321-.933.35c1.068.518 2.548 1.27 3.902 1.643l-.319.876s1.719.786 4.58.793v.001h.039v-.001c2.865-.007 4.581-.793 4.581-.793l-.321-.876c1.355-.373 2.837-1.125 3.9-1.642l-.93-.35.001-.001zM19.727 19.682l.38.04.164-.348.48-1.03.89.463.345.177.275-.274.961-.956.963.956.276.274.344-.177.886-.463.486 1.03.162.348.38-.04.365-.044c-.167.377-.29.735-.378 1.031-.96-.537-2.21-.844-3.484-.844-1.269 0-2.516.307-3.48.844a8.765 8.765 0 0 0-.378-1.031l.363.044zm3.495.68c1.705 0 3.069.567 3.823 1.172 0 0 .224-1.352.988-2.546l-1.373.157-.72-1.532-1.379.714L23.222 17l-1.335 1.327-1.382-.714-.718 1.532-1.373-.157c.765 1.194.988 2.546.988 2.546.758-.605 2.117-1.171 3.82-1.171v-.001zm21.608 22.75s-.593 1.036-1.956 1.036h-.016c-1.635-.01-2.295-1.01-2.295-1.01s.096 1.302-.493 3.059c-.71 2.118.006 3.631.006 3.631s-.382.104-.821.104a2.01 2.01 0 0 1-.51-.06c-1.365-.326-1.706-1.574-1.706-1.574s.126 4.214-4.77 4.214h-.038s.432-.589.558-2.283c.234-3.127 2.343-3.556 2.343-3.556s-1.126-.142-1.614-.58c-.763-.694-.709-1.496-.709-1.496 1.722-.025 2.851-.613 3.71-1.611.932-1.08 1.085-2.245 1.085-2.245s-.926.842-2.717.842c-.157 0-.325-.007-.498-.024a2.636 2.636 0 0 1-1.434-.61c1.865-1.2 3.172-3.293 2.013-6.445-.93-2.527-3.161-4.414-5.41-5.835-.748-.469-1.165-.99-1.165-1.438 0-1.056 1.497-1.09 2.11-1.799.708-.824.264-2.16-.35-2.966 0 0 .207-.042.533-.042.647 0 1.766.163 2.686 1.12 1.222 1.27.716 2.651.716 2.651l.327.065c.196.041.39.048.593.06l.131.002c1.776 0 2.57-1.863 2.57-1.863s1.887 2.33-.892 4.155c-.478.312-.69.602-.634.91l.043.203.198.035c2.014.549 3.034 1.943 4.278 3.529 1.89 2.41 4.563 2.488 4.894 2.488h.035s-.61 1.933-2.408 1.933c-.03 0-.055 0-.085-.002-.826-.03-1.25-.347-1.25-.347s-.322 4.389 2.942 5.749zm-1.607-4.808c2.205 0 2.943-2.25 2.973-2.347l.246-.793-.826.026h-.003c-.291 0-2.725-.065-4.45-2.265l-.161-.204c-1.128-1.438-2.196-2.807-4.107-3.43.076-.067.157-.128.243-.182 1.014-.67 1.603-1.483 1.752-2.426.217-1.42-.686-2.552-.726-2.598l-.614-.762-.383.903c-.026.057-.67 1.504-2.028 1.504h-.1c-.093-.005-.183-.009-.27-.016.048-.645-.07-1.643-.972-2.581-1.085-1.128-2.416-1.297-3.111-1.297-.372 0-.62.046-.646.048l-.927.185.572.757c.449.584.855 1.66.373 2.221-.155.18-.472.324-.775.47-.624.288-1.478.691-1.478 1.714 0 .662.513 1.354 1.44 1.942 2.745 1.733 4.438 3.54 5.17 5.536 1.132 3.07-.345 4.82-1.779 5.745l-.643.414.563.519c.076.067.764.676 1.781.764.193.012.377.023.55.023a5.67 5.67 0 0 0 1.66-.241 4.234 4.234 0 0 1-.47.664c-.82.953-1.828 1.387-3.278 1.41l-.539.009-.04.542c-.006.11-.046 1.116.902 1.97.145.133.32.243.505.33-.644.582-1.298 1.595-1.424 3.329-.107 1.447-.45 1.982-.455 1.988l-.595.913 1.076.014c1.778 0 3.14-.492 4.083-1.468a4.651 4.651 0 0 0 1.065-1.806c.524.447 1.19.692 1.878.692.501 0 .922-.107.97-.119l.686-.182-.303-.644c-.023-.051-.596-1.344.02-3.186.266-.797.402-1.51.468-2.067a3.77 3.77 0 0 0 1.76.416c1.702 0 2.452-1.275 2.486-1.329l.334-.586-.62-.256c-2.028-.845-2.476-3.113-2.566-4.34.183.035.392.068.629.075l.104.002z"/>
  <path fill="#222631" d="M40.746 28.674c.41 0 .89.14 1.342.61 1.42 1.447 2.742 1.528 2.742 1.528-.24.534-.936 1.002-1.657 1.002-.167 0-.334-.025-.5-.083-.978-.33-1.327-1.802-3.044-2.72 0 0 .479-.337 1.117-.337zm-1.397.862c.822.439 1.302 1.028 1.721 1.55.414.51.805 1 1.418 1.205a2.1 2.1 0 0 0 .685.11c.92 0 1.843-.564 2.194-1.346l.352-.785-.852-.05c-.04-.001-1.138-.102-2.357-1.354-.503-.513-1.11-.782-1.764-.782-.8 0-1.392.4-1.458.442l-.783.554.844.456zm.386 7.815v.03c-.494-4.007-3.394-6.901-6.62-8.66-.277-.148-.558-.29-.841-.427.981.153 2.563.172 3.785-.891 0 0-1.869 1.38-5.695.126 1.058.69 3.117 1.663 4.997 3.24 4.697 4.143 1.336 8.184 1.336 8.184 1.689-1.768 1.759-3.663 1.262-5.21.889 1.486 1.457 3.288 1.369 5.51-.13 3.185-1.874 5.939-3.708 8.15-.883 1.075-1.08 2.395-1.08 2.395s.357-1.165 1.377-2.363c1.966-2.31 3.648-4.71 3.868-8.17.203.629 1.042 2.373 2.37 3.03 0 0-1.67-1.01-2.42-4.944zM14.178 52.51c-4.896 0-4.771-4.213-4.771-4.213s-.342 1.248-1.706 1.573c-.163.044-.338.06-.508.06-.44 0-.82-.103-.82-.103s.712-1.513.002-3.631c-.586-1.757-.491-3.06-.491-3.06s-.658 1-2.295 1.01h-.016c-1.362 0-1.956-1.035-1.956-1.035 3.262-1.36 2.943-5.75 2.943-5.75s-.424.319-1.251.348c-.03.002-.057.002-.086.002-1.8 0-2.409-1.933-2.409-1.933H.85c.333 0 3.003-.078 4.893-2.488 1.245-1.586 2.265-2.98 4.276-3.53l.202-.034.043-.202c.056-.31-.154-.6-.632-.91-2.779-1.827-.892-4.156-.892-4.156s.79 1.863 2.57 1.863c.042 0 .083-.003.129-.003.2-.01.397-.018.593-.06l.327-.064s-.509-1.382.717-2.65c.92-.958 2.039-1.121 2.685-1.121.328 0 .532.042.532.042-.612.806-1.056 2.142-.348 2.966.612.71 2.107.743 2.107 1.799 0 .447-.416.97-1.163 1.438-2.25 1.42-4.482 3.308-5.41 5.835-1.16 3.152.148 5.245 2.015 6.445 0 0-.587.54-1.436.61-.172.017-.34.024-.5.024-1.789 0-2.715-.842-2.715-.842s.154 1.164 1.08 2.245c.865.998 1.993 1.586 3.715 1.61 0 0 .054.803-.707 1.496-.49.439-1.616.58-1.616.58s2.111.43 2.344 3.557c.126 1.694.554 2.283.554 2.283h-.035zm.52-.336c-.002-.006-.343-.54-.453-1.99-.128-1.732-.781-2.745-1.426-3.326.186-.088.359-.198.504-.33.948-.855.908-1.861.901-1.97l-.036-.543-.543-.01c-1.446-.022-2.456-.456-3.275-1.41a4.397 4.397 0 0 1-.47-.663 5.612 5.612 0 0 0 1.658.24c.175 0 .358-.01.55-.022a3.241 3.241 0 0 0 1.783-.764l.564-.52-.643-.413c-1.44-.924-2.91-2.675-1.78-5.745.732-1.995 2.423-3.803 5.172-5.536.928-.588 1.435-1.28 1.435-1.942 0-1.023-.85-1.426-1.475-1.714-.304-.146-.62-.29-.775-.47-.483-.561-.076-1.637.373-2.22l.576-.758-.932-.185c-.027-.002-.272-.048-.645-.048-.696 0-2.024.17-3.108 1.297-.904.938-1.023 1.936-.976 2.58-.088.008-.176.01-.268.017h-.1c-1.36 0-2.003-1.447-2.028-1.504l-.383-.903-.619.762c-.035.046-.94 1.178-.72 2.598.146.943.737 1.757 1.75 2.426.111.07.187.132.243.182-1.913.623-2.98 1.992-4.107 3.43l-.163.204C3.56 35.125 1.122 35.19.83 35.19L0 35.164l.253.793c.029.096.764 2.347 2.97 2.347l.107-.002a3.87 3.87 0 0 0 .628-.076c-.09 1.227-.54 3.496-2.568 4.34l-.62.257.335.586c.033.054.785 1.33 2.489 1.33a3.776 3.776 0 0 0 1.757-.416c.066.555.202 1.269.468 2.066.617 1.842.042 3.135.02 3.186l-.304.644.688.182c.046.012.47.119.97.119a2.885 2.885 0 0 0 1.878-.691 4.644 4.644 0 0 0 1.063 1.805c.946.976 2.305 1.468 4.083 1.468l1.077-.015-.596-.912z"/>
  <path fill="#222631" d="M4.358 29.284c.454-.47.932-.61 1.345-.61.396.007.782.124 1.115.338-1.715.917-2.068 2.39-3.048 2.72-.162.057-.33.082-.497.082-.72 0-1.417-.468-1.655-1.002 0 0 1.32-.08 2.74-1.528zm-1.085 3.117a2.1 2.1 0 0 0 .685-.11c.615-.204 1.006-.694 1.42-1.205.421-.522.896-1.11 1.719-1.55l.846-.456-.786-.555c-.066-.04-.655-.44-1.454-.44-.656 0-1.263.268-1.766.782-1.22 1.251-2.315 1.352-2.355 1.353l-.852.05.35.785c.352.782 1.275 1.346 2.193 1.346zm3.848 6.853c-.092-2.223.477-4.025 1.367-5.51-.496 1.546-.43 3.44 1.261 5.21 0 0-3.36-4.042 1.339-8.185 1.879-1.577 3.935-2.55 4.995-3.24-3.826 1.253-5.694-.126-5.694-.126 1.22 1.062 2.803 1.044 3.784.891-.265.13-.544.266-.84.427-3.228 1.76-6.126 4.653-6.623 8.66v-.03c-.75 3.935-2.418 4.945-2.418 4.945 1.327-.658 2.164-2.402 2.367-3.03.222 3.46 1.903 5.86 3.87 8.17 1.02 1.197 1.38 2.362 1.38 2.362s-.2-1.32-1.086-2.394c-1.831-2.21-3.574-4.966-3.702-8.15zm14.997-8.108v.795c.273-.333.8-.266.8-.266v1.146s-.018.563-.218.807h1.142c-.197-.244-.217-.807-.217-.807v-1.147s.53-.067.8.266v-.795h-2.307v.001zm-.49-4.713c.365.291.575.34.582.344l.143.066v-.748l-1.342-.566s.011.434.616.904h.001zm3.19 0c.606-.47.618-.904.618-.904l-1.342.566v.748l.142-.066c.007-.004.218-.053.582-.344z"/>
  <path fill="#222631" d="M23.222 24.44l-3.233-1.281c.276-.654 1.543-1.209 3.233-1.21 1.693.001 2.96.556 3.233 1.21l-3.233 1.281zm2.41 4.016l-2.172 1.149v-4.653l2.948-1.005-.775 4.51-.001-.001zm1.346 1.235l.994.58h.014l.25.145c-.561.156-.99.438-1.35.807-.014.012-.025.025-.04.039a5.234 5.234 0 0 0-.242.282l-.047.06c-.076.098-.15.2-.218.306-.011.018-.025.037-.037.054a7.307 7.307 0 0 0-.24.391c-.707 1.223-1.836 1.955-2.84 1.957-1.003-.002-2.133-.734-2.84-1.957a7.977 7.977 0 0 0-.235-.385c-.016-.023-.03-.048-.046-.068a6.85 6.85 0 0 0-.21-.295c-.018-.025-.035-.045-.052-.067a5.825 5.825 0 0 0-.236-.275c-.017-.013-.03-.03-.043-.044a2.932 2.932 0 0 0-1.35-.805l.25-.146h.013l.995-.579 1.02-.587 2.729 1.49.005-.006.008.006 2.727-1.49 1.02.587zm3.92 4.139c-.223.59-.406 1.227-.406 1.861v4.096c-.852-.143-.952-1.065-.955-1.105l-.016-.188-.184-.016a1.298 1.298 0 0 1-.823-.395c-.418-.42-.42-1.1-.418-1.105-.006.034-.46.673.067 1.37.222.294.543.475.96.547.097.51.475 1.233 1.37 1.343v2.003h-2.515c-1.16-.647-.668-1.787-.645-1.836l.098-.217-.222-.084c-1.257-.467-.91-1.725-.894-1.78l.05-.182-.17-.082c-1.037-.483-.897-1.782-.883-1.837-.32.26-.435.79-.215 1.309-.118.136-.278.301-.453.482a1.412 1.412 0 0 1-1.108-1.31l-.002-.153-.141-.054c-.42-.157-.708-.39-.85-.705-.16-.347-.103-.712-.06-.887.24.051.485.077.73.077h.02c.124 0 .246-.007.368-.02.67-.067 1.419-.355 2.2-1.132h5.097zm-3.143 17.846l.28-1.469c.015-.087.033-.188.046-.272.079.033.163.06.253.077.106.02.202.03.29.03.429 0 .68-.226.845-.419l.215-.252-.175-.276a26.73 26.73 0 0 0-.706-1.07 5.468 5.468 0 0 1-.172-.255c-.34-.512-.767-1.153-1.624-1.153l-.076.002c-.14.008-.262.036-.36.073a1.95 1.95 0 0 0-.835-.191c-.354 0-.651.097-.85.166-.058.016-.108.034-.148.042l-1.6-.159c-.02-.003-.085-.042-.164-.136v-.008l.346-.139c-.098-1.158-1.205-1.87-1.822-2.11a.65.65 0 0 0-.18-.325l-.343-.328-.302.363-.15.186-2.24-.924 1.458 1.836-.574.875c-.21.224.02.449.02.449l.596.41.615-.23c.022 0 .04.005.06.007-.03.094-.067.463-.093.566l-1.07-.211-1.122.636a1.338 1.338 0 0 0-.442 1.611l.125.274.178.386.392-.163a.03.03 0 0 0 .014-.007c-.141.453-.083.883.168 1.166l.239.3.317.404.349-.377c.102-.102.435-.476.537-.796l.076-.244-.17-.187-.028-.035.19-.316 1.396.33.314.072.167-.276.09-.151c.018-.032.022-.037.087-.037.05 0 .099.005.152.017.527.1 1.012.15 1.443.15.418 0 .668-.017.966-.116 0 0 .749.854.774.886l-.46 1.422-.02.085c-.87.07-1.29.262-1.802.774-.742-.739-1.268-.817-3.263-.817-2.39 0-4.008-1.405-4.008-3.65v-5.488h14.54l.002 5.488c0 1.82-1.064 3.09-2.741 3.504zm-8.956-3.103l.076.19c-.05.166-.617.4-.617.4l-.123-.27a.899.899 0 0 1 .293-1.066l.92-.563.975.208a.874.874 0 0 0 .167.543l-1.022-.197-.612.424c-.103.073-.11.206-.057.331zm8.802 1.55l-.314 1.643c-.2.028-.412.042-.63.051l.33-1.578c.1-.468-1.155-.615-1.775-1.536-.302.34-.872.443-1.445.443A7.367 7.367 0 0 1 22.405 49a1.412 1.412 0 0 0-.233-.022c-.184 0-.35.057-.466.251l-.09.155-1.71-.404-.425.706c-.06.115-.065.21.032.318l.115.127c-.08.25-.435.628-.435.628l-.254-.319c-.2-.225-.168-.639.042-1.021l.678-1.149 1.448.21-.225-.515c-.302-.68.158-1.546.207-2.045-.016.15-.154.185-.315.185-.146 0-.31-.028-.417-.028-.043 0-.08.004-.1.019l-.392.239-.31-.275c-.036-.052-.048-.176.043-.27l.716-.805-.846-.992 1.185.597.362-.44c.1.098.056.354.056.354.37.008 1.407.583 1.462 1.928.003.04.003.087.003.131l.028.044c.073.102.276.36.532.385l1.638.163h.006c.18 0 .537-.212.996-.212.25 0 .528.064.824.251 0 0 .15-.118.39-.13.019-.003.04-.003.057-.003.735 0 1.04.667 1.435 1.22.296.422.692 1.047.692 1.047-.146.174-.282.271-.51.271-.062 0-.133-.005-.211-.02-.788-.146-.901-1.772-1.351-1.9a.274.274 0 0 0-.072-.01c-.145 0-.208.13-.208.13.205.554.085.778.307 1.205.165.316.458.577.58.7 0 0-.033.24-.068.42v-.001zm-1.508 1.705c-.22 0-.424.003-.606.01l.48-1.5c.075-.207-.305-.474-.461-.708.236.149.848.475 1.143.605-.03.049-.556 1.593-.556 1.593zm-7.134-13.514l.069-2.607.583-.619.366.77-.722 2.502-.296-.046zm.42.808c.095.201.266.334.387.41a4.733 4.733 0 0 1-.072.738 1.69 1.69 0 0 1-.041.163c-.01.034-.02.061-.026.084a2.61 2.61 0 0 1-.814-.127c-.317-.118-.79-.7-.68-1.344.136-.084.454-.263.752-.263.228 0 .385.108.494.34v-.001zm6.75.7c-.447.332-1.602 1.178-2.022 1.473l-4.031-.728.027-.108c.053-.21.108-.497.11-.834l3.39.055.065-.067c.05-.05 1.125-1.093 1.672-1.691.13.164.293.32.506.457-.073.399-.041.966.284 1.443zm-5.482-5.992c.484.483.96.784 1.41.95-.06.233-.135.714.08 1.194.179.388.5.686.966.884a1.83 1.83 0 0 0 1.186 1.515c-.365.37-.72.718-.864.858l-3.383-.053a.608.608 0 0 1-.266-.248c-.006-.017-.017-.027-.024-.043l.552.09a.34.34 0 0 0 .035 0c.107 0 .2-.074.217-.183a.222.222 0 0 0-.182-.254l-.68-.108.754-2.611-.714-1.508-1.143 1.214-.07 2.715-.77-.122c-.117-.023-.231.063-.252.184a.224.224 0 0 0 .184.254l.322.05c-.069.038-.136.08-.2.125l-.066.046-.018.08c-.187.763.236 1.485.693 1.81l-.016.095a.427.427 0 0 0 .078.327.422.422 0 0 0 .354.183c.198 0 .37-.137.418-.338.17.02.326.025.433.025h.09l4.438.804.075-.05c.354-.248 1.702-1.233 2.144-1.56.122.105.258.2.42.278-.142.482-.151 1.223.414 1.808H15.954v-6.55c0-.634-.185-1.272-.404-1.861h5.097zm-.611-9.883l2.95 1.005v4.653l-2.172-1.149-.778-4.509zm7.2-.561c0-1.136-1.905-2.157-4.007-2.157h-.012c-2.102 0-4.006 1.021-4.006 2.157l.042.279.839 4.836-.844.49-2.18 1.28h.008s-.491.252-.72.407c-.83.58-1.006 1.424-.523 1.773.118-.689.66-1.409 1.677-1.409.73 0 1.29.38 1.738.948.117.143.227.297.33.46.125.209.252.392.378.567h-5.618c.414.833.806 1.715.806 2.674v12.48c0 3.022 2.314 4.464 4.819 4.464 1.935 0 2.196-.09 3.263.98 1.063-1.07 1.324-.98 3.26-.98 2.506 0 4.818-1.442 4.818-4.463v-12.48c0-.96.392-1.842.806-2.675h-5.62c.126-.175.252-.358.378-.566.104-.164.214-.318.328-.461.453-.57 1.01-.948 1.742-.948 1.014 0 1.556.72 1.677 1.409.482-.349.308-1.194-.528-1.773-.223-.155-.715-.408-.715-.408h.007l-2.183-1.279-.84-.49.84-4.836.04-.28v.001zm40.128 10.215c.163-.257.33-.51.504-.762h.102v5.688h2.574v-9.656H67.97l-2.882 4.403c-.159.245-.32.488-.485.729-.16.238-.324.49-.484.75h-.101V28.87h-2.574v9.656h2.574c.485-.672.96-1.359 1.42-2.063.466-.705.933-1.4 1.403-2.085.188-.26.363-.522.524-.778l-.001.001zm8.183.918h3.83v4.008h2.574v-9.656h-2.573v3.673h-3.83v-3.673h-2.574v9.656h2.574v-4.008h-.001zm14.079 1.797c-.257.184-.593.277-1.008.277h-1.662v-2.37h1.64c.43 0 .773.099 1.03.295.253.198.38.495.38.89 0 .42-.127.724-.38.908zm2.955-.887c0-.99-.343-1.756-1.023-2.304-.684-.545-1.6-.819-2.747-.819h-1.855v-3.435H84.38v9.657h4.544c1.109 0 1.997-.25 2.66-.741.665-.496.996-1.28.996-2.358zm30.493 1.164a2.9 2.9 0 0 1-.995.255v-6.24c.844.067 1.495.385 1.95.957.457.574.686 1.282.686 2.123 0 .503-.075.943-.223 1.325a2.99 2.99 0 0 1-.583.967 2.63 2.63 0 0 1-.835.613zm-3.412.237a3.096 3.096 0 0 1-1.03-.257 2.568 2.568 0 0 1-.853-.614 2.885 2.885 0 0 1-.577-.957c-.143-.375-.214-.811-.214-1.314 0-.84.234-1.549.7-2.123.466-.572 1.125-.89 1.974-.957v6.222zm6.04.432a4.73 4.73 0 0 0 1.07-1.56c.262-.605.395-1.296.395-2.074 0-.722-.129-1.38-.385-1.973a4.589 4.589 0 0 0-1.06-1.53 4.909 4.909 0 0 0-1.614-1.007 6.61 6.61 0 0 0-2.029-.425v-3.632l-2.417.93v2.702a6.233 6.233 0 0 0-2.016.445c-.627.258-1.173.6-1.632 1.027-.458.426-.82.935-1.083 1.52a4.673 4.673 0 0 0-.395 1.943c0 .778.122 1.472.366 2.085a4.472 4.472 0 0 0 1.043 1.578 4.73 4.73 0 0 0 1.62 1.03c.672.25 1.38.393 2.097.422v4.091l2.437-.929v-3.181a6.212 6.212 0 0 0 1.998-.434 4.937 4.937 0 0 0 1.604-1.028h.001zm12.773-2.25a3.04 3.04 0 0 1-.583.968c-.24.262-.521.468-.835.612-.314.144-.651.23-.996.256v-6.24c.843.066 1.494.385 1.95.957.457.574.684 1.282.684 2.124 0 .5-.071.942-.22 1.324v-.001zm-4.828 1.817a3.082 3.082 0 0 1-1.034-.257 2.557 2.557 0 0 1-.85-.613 2.867 2.867 0 0 1-.579-.958c-.142-.374-.212-.811-.212-1.312 0-.842.232-1.55.699-2.124.466-.572 1.125-.89 1.976-.957v6.221zm7.109-1.126c.262-.606.393-1.297.393-2.074 0-.723-.128-1.382-.384-1.974a4.586 4.586 0 0 0-1.06-1.53 4.913 4.913 0 0 0-1.615-1.007 6.566 6.566 0 0 0-2.029-.425v-3.632l-2.414.93v2.702a6.235 6.235 0 0 0-2.018.445 5.335 5.335 0 0 0-1.63 1.027 4.645 4.645 0 0 0-1.48 3.464c0 .777.12 1.472.366 2.084a4.49 4.49 0 0 0 1.044 1.58c.452.442.992.784 1.62 1.027a6.783 6.783 0 0 0 2.098.423v4.09l2.435-.927v-3.182a6.254 6.254 0 0 0 1.998-.433 4.974 4.974 0 0 0 1.604-1.03 4.747 4.747 0 0 0 1.072-1.559v.001zm-89.742-8.689h3.747v11.524h2.677V27.014h3.622v-2.248H51.014v2.248zm52.28 1.907h-2.936l-3.45 4.103v-4.153h-2.552v9.666h2.553v-4.7l3.368 4.7h3.036l-3.788-5.172 3.768-4.444h.001zm7.172 5.963a3.26 3.26 0 0 1-.406.939c-.179.27-.399.48-.664.631a1.78 1.78 0 0 1-.906.228c-.691 0-1.22-.262-1.588-.78-.367-.52-.551-1.254-.551-2.203 0-.841.179-1.54.53-2.092.355-.553.87-.83 1.548-.83.719 0 1.262.274 1.63.82.367.547.549 1.26.549 2.143 0 .408-.047.788-.142 1.144zm1.412-4.838a4.099 4.099 0 0 0-1.487-.997 5.1 5.1 0 0 0-1.9-.346c-.688 0-1.322.115-1.9.346-.582.23-1.08.56-1.5.987-.416.428-.74.956-.97 1.58-.228.625-.343 1.332-.343 2.124 0 .763.112 1.454.334 2.073.201.586.521 1.123.94 1.58.406.433.893.77 1.468 1.008.572.236 1.215.354 1.93.354a5.129 5.129 0 0 0 1.902-.346 4.213 4.213 0 0 0 1.496-.996c.419-.436.746-.965.98-1.59.237-.625.355-1.334.355-2.124 0-.763-.115-1.455-.345-2.073a4.576 4.576 0 0 0-.96-1.58zM60.541 50.418c0-.555-.17-.988-.51-1.3-.34-.311-.813-.467-1.417-.467H55.81v3.521h2.803c.614 0 1.088-.148 1.424-.446.335-.297.503-.733.503-1.308zm-1.984-2.72c.95 0 1.694.227 2.236.679.54.452.812 1.135.812 2.049 0 .885-.263 1.563-.79 2.034-.528.472-1.266.708-2.215.708h-3.84v-9.394h5.968v.995H55.81v2.93h2.746v-.001zm8.67 2.454a4.88 4.88 0 0 0-.86-.39 3.261 3.261 0 0 0-1.03-.144c-.46 0-.845.122-1.16.368-.316.245-.473.599-.473 1.06 0 .462.133.813.4 1.054.268.24.655.36 1.16.36a2.49 2.49 0 0 0 1.068-.303c.33-.176.63-.399.895-.663v-1.342zm-1.51-4.156c.815 0 1.44.19 1.876.57.437.38.655.95.655 1.71v4.891h-1.021v-.692h-.03c-.373.337-.745.558-1.114.664a3.835 3.835 0 0 1-1.056.159c-.278 0-.556-.042-.834-.123a2.214 2.214 0 0 1-.755-.388 1.973 1.973 0 0 1-.546-.683c-.14-.279-.21-.62-.21-1.022 0-.345.066-.657.195-.934.13-.279.31-.516.547-.713.246-.203.53-.357.834-.453.32-.105.673-.158 1.056-.158.307 0 .616.03.928.093.31.06.64.186.985.375v-.873c0-.543-.137-.94-.41-1.186-.271-.248-.68-.371-1.223-.371a3.41 3.41 0 0 0-.96.13c-.304.09-.601.205-.887.345l-.345-.802c.336-.16.69-.29 1.064-.39.374-.1.79-.149 1.25-.149zm8.814 7.171v-3.246h-3.68v3.246h-1.023v-7.056h1.02v2.915h3.68v-2.915h1.023v7.056H74.53zm7.778-7.027l-3.177 3.247 3.264 3.78h-1.223l-3.048-3.593v3.594h-1.02V46.14h1.02v3.117l3.02-3.117h1.164z"/>
</svg>
