<svg width="112" height="33" viewBox="0 0 112 33" fill="none" xmlns="http://www.w3.org/2000/svg">
<path fill-rule="evenodd" clip-rule="evenodd" d="M7.02857 14.6755C10.9103 14.6755 14.0571 11.4685 14.0571 7.51255C14.0571 3.55657 10.9103 0.349609 7.02857 0.349609C3.1468 0.349609 0 3.55657 0 7.51255C0 11.4685 3.1468 14.6755 7.02857 14.6755ZM28.6095 7.51255C28.6095 10.6109 26.145 13.1226 23.1048 13.1226C20.0646 13.1226 17.6 10.6109 17.6 7.51255C17.6 4.41423 20.0646 1.90255 23.1048 1.90255C26.145 1.90255 28.6095 4.41423 28.6095 7.51255ZM23.1048 32.612C27.8281 32.612 31.6571 28.7097 31.6571 23.8961C31.6571 19.0824 27.8281 15.1802 23.1048 15.1802C18.3814 15.1802 14.5524 19.0824 14.5524 23.8961C14.5524 28.7097 18.3814 32.612 23.1048 32.612ZM7.02857 27.9531C9.22719 27.9531 11.0095 26.1367 11.0095 23.8961C11.0095 21.6554 9.22719 19.839 7.02857 19.839C4.82995 19.839 3.04762 21.6554 3.04762 23.8961C3.04762 26.1367 4.82995 27.9531 7.02857 27.9531ZM58.3314 27.9058H53.8918L53.8914 27.9054L52.3215 23.5513H49.4303L45.9124 20.1178H51.0842L48.499 12.9432L45.9124 20.1178L49.43 23.5513H44.6758L43.1055 27.9065H38.6655L46.8891 5.08996H50.1093L58.3314 27.9058ZM49.43 23.5513H49.4303L53.8914 27.9054L53.8918 27.9065L49.43 23.5513ZM69.3371 12.329L65.2514 23.6631L61.1676 12.329H56.9962L62.6122 27.9058H67.8914L73.5067 12.329H69.3371ZM79.424 12.329H75.2526V27.9058H79.424V12.329ZM77.3524 10.5602C78.8357 10.5602 80.0381 9.33477 80.0381 7.82314C80.0381 6.3115 78.8357 5.08608 77.3524 5.08608C75.8691 5.08608 74.6667 6.3115 74.6667 7.82314C74.6667 9.33477 75.8691 10.5602 77.3524 10.5602ZM94.1524 12.329V15.7614H89.1554V22.2018C89.1554 23.945 90.5779 24.4885 91.8152 24.4885C92.8248 24.4885 93.6457 24.2385 93.6457 24.2385L94.1524 27.6018C94.1524 27.6018 92.6857 28.2276 91.0133 28.2276C86.6827 28.2276 84.9867 25.9203 84.9867 22.4635V15.7618H81.6876V12.329H84.9867V8.03201H89.1554V12.329H94.1524ZM103.717 11.9314C99.1965 11.9318 95.5303 15.5869 95.5303 20.0922C95.5303 24.5996 99.197 28.2529 103.718 28.2529C108.237 28.2529 111.903 24.5996 111.903 20.0922C111.903 15.5867 108.237 11.9314 103.717 11.9314ZM99.5078 20.1484C99.5078 22.4662 101.392 24.3452 103.718 24.3452V24.3456C106.044 24.3456 107.928 22.4665 107.928 20.1488C107.928 17.833 106.044 15.9531 103.717 15.9531C101.392 15.9531 99.5078 17.8326 99.5078 20.1484Z" fill="#222631"/>
</svg>
