<svg xmlns="http://www.w3.org/2000/svg" width="115" height="25" fill="none" viewBox="0 0 115 25">
  <path fill-rule="evenodd" d="M25.157 12.492c0-6.798-5.624-12.28-12.567-12.28V.21C5.624.21 0 5.693 0 12.494c0 6.777 5.624 12.28 12.59 12.28 6.943 0 12.567-5.502 12.567-12.282zm-2.076.086c0-5.674-4.673-10.284-10.448-10.284l.001.002c-5.776 0-10.47 4.61-10.47 10.283 0 5.673 4.694 10.283 10.47 10.283 5.776 0 10.447-4.61 10.447-10.284zM8.35 4.46c.367-.19.714-.042.735.298l.043 3.91h7.247l.022-3.783c0-.234.173-.553.476-.404 6.12 2.89 6.857 11.898.173 15.87-.606.362-.628-.21-.628-.318l-.065-3.824-7.29.064v3.845c0 .298-.28.574-.54.447C1.666 17.4 1.73 8.136 8.35 4.46zm9.474 13.598l-.043-11.09c3.049 3.654 3.289 7.35.043 11.09zM9.022 14.51h7.398v-3.888h-7.4v3.888h.002zM44.518 4.484c3.224 0 5.363 1.804 5.364 4.609 0 .998-.411 2.357-1.644 3.079 1.45.872 2.25 2.274 2.25 3.74 0 2.89-2.142 4.738-5.408 4.738h-7.16V4.484h6.598zm-2.228 6.35V8.054h1.838c.822 0 1.363.595 1.34 1.466-.02.785-.56 1.316-1.34 1.316H42.29zm0 3.338v2.868h2.444c.735 0 1.34-.574 1.34-1.402 0-.871-.605-1.466-1.34-1.466H42.29zm25.61-1.594c0-4.993-3.135-8.33-7.873-8.33-4.76 0-7.917 3.337-7.917 8.33 0 4.972 3.158 8.308 7.917 8.308 4.738 0 7.874-3.336 7.874-8.308H67.9zm-7.873-4.355c-2.076 0-3.482 1.763-3.482 4.355 0 2.57 1.406 4.356 3.482 4.356 2.055 0 3.397-1.786 3.397-4.356 0-2.592-1.342-4.355-3.397-4.355zm9.54 7.33c-.108 3.208 2.423 5.333 6.316 5.333 3.83 0 6.34-1.955 6.34-5.057 0-3.932-2.88-4.782-6.166-5.08-1.385-.17-1.99-.68-1.99-1.4 0-.915.67-1.467 1.73-1.467s1.752.68 1.687 1.657h4.175c.107-3.166-2.272-5.29-5.928-5.29-3.613 0-6.035 1.954-6.035 5.14 0 3.358 2.812 4.718 5.624 4.91l.114.01c.921.083 2.374.213 2.374 1.477 0 .913-.8 1.444-1.99 1.444-1.233 0-2.055-.68-2.033-1.677h-4.218zm22.063 5.312c-4.715 0-7.85-3.315-7.85-8.265v-.001c0-5.015 3.136-8.35 7.853-8.35 3.2 0 6.79 1.87 7.31 6.184h-4.304c-.454-1.658-1.493-2.38-3.008-2.38-2.055 0-3.418 1.805-3.418 4.525 0 2.635 1.363 4.42 3.44 4.42 1.514 0 2.682-.808 3.007-2.55h4.326c-.563 4.589-4.046 6.417-7.356 6.417zm18.107-6.672v6.46h4.477V4.482h-4.477v5.843h-4.067V4.483h-4.456v16.17h4.456v-6.46h4.067zM7.66 7.053c-3.05 3.655-3.288 7.35-.044 11.113L7.66 7.054z" clip-rule="evenodd"/>
</svg>
