<svg xmlns="http://www.w3.org/2000/svg" width="133" height="34" fill="none" viewBox="0 0 133 34">
  <path fill="#151515" d="M32.816 23.584c-.636-1.201-1.534-4.178-1.586-5.592-.043-1.183-.014-3.922.849-5.981.698-1.658 2.621-4.259 2.607-5.554-.023-2.095-.744-3.289-2.056-4.577C31.393.668 29.839-.06 28.043.004c-1.491.05-2.828 1.156-4.453 2.03-1.628.875-3.094 1.285-4.93 1.44-1.835.155-3.723-.052-5.662-.67C11.058 2.186 9.413.967 8.178.44 7.39.107 6.211-.311 4.285.413c-.809.306-2.504 1.516-3.237 2.653C.31 4.196 0 5.279 0 5.924c0 1.032.26 1.909.754 2.68.472.741 1.804 3.293 2.074 4.232.287.96.682 2.724.633 4.062-.054 1.34-.154 3.13-.733 4.577-.59 1.457-1.413 3.124-2.095 4.254-.676 1.13-.706 3.065-.293 4.027.392.925 1.61 2.44 2.657 3.109 1.046.67 1.922 1.172 3.493 1.122 1.574-.051 3.103-1.25 4.042-1.709.95-.465 2.686-1.381 4.144-1.597 1.461-.211 4.186-.307 5.412.028 1.211.332 2.78.848 3.965 1.51 1.17.657 2.863 1.837 4.061 1.779 1.377-.07 3.031-.441 4.279-1.669 1.26-1.24 2.293-2.674 2.307-4.116.017-1.704-1.208-3.348-1.885-4.63zm14.389.847h3.445v-5.949h7.476v-3.075H50.65v-3.27h8.483V9.062H47.206v15.368h-.001zm17.163.22c1.656 0 2.798-.592 3.625-1.494v1.274h3.29v-6.828c0-1.58-.402-2.876-1.297-3.754-.85-.835-2.194-1.318-4.051-1.318-2.036 0-3.334.374-4.654.944l.85 2.548c1.096-.395 2.014-.637 3.312-.637 1.7 0 2.573.768 2.573 2.15v.198a8.674 8.674 0 0 0-2.932-.482c-2.841 0-4.834 1.185-4.834 3.754 0 2.37 1.858 3.645 4.118 3.645zm1.03-2.306c-1.096 0-1.857-.526-1.857-1.427 0-1.098.895-1.669 2.349-1.669.829 0 1.59.176 2.17.44v.592c0 1.208-1.072 2.064-2.662 2.064zm8.816 2.086h3.402v-6.565c0-1.58.828-2.393 2.125-2.393 1.298 0 2.059.813 2.059 2.393v6.565h3.402v-7.619c0-2.7-1.499-4.37-4.072-4.37-1.724 0-2.731.902-3.514 1.89v-1.668h-3.402V24.43zm17.992.197c1.142 0 1.97-.263 2.686-.68v-2.679a3.51 3.51 0 0 1-1.68.417c-.76 0-1.096-.373-1.096-1.141v-5.026h2.82v-2.854h-2.82v-3.01h-3.4v3.009h-1.433v2.854h1.433v5.576c0 2.722 1.41 3.534 3.49 3.534zm8.637.023c1.656 0 2.799-.592 3.626-1.494v1.274h3.29v-6.828c0-1.58-.403-2.876-1.299-3.754-.849-.835-2.193-1.318-4.05-1.318-2.036 0-3.333.374-4.654.944l.849 2.548c1.097-.395 2.014-.637 3.313-.637 1.701 0 2.574.768 2.574 2.15v.198a8.672 8.672 0 0 0-2.932-.482c-2.843 0-4.834 1.185-4.834 3.754 0 2.37 1.857 3.645 4.117 3.645zm1.03-2.306c-1.096 0-1.857-.526-1.857-1.427 0-1.098.895-1.669 2.349-1.669.829 0 1.589.176 2.171.44v.592c0 1.208-1.074 2.064-2.663 2.064zm13.023 2.306c2.597 0 4.589-1.186 4.589-3.8 0-2.194-1.948-2.985-3.625-3.533-1.299-.44-2.44-.747-2.44-1.405 0-.505.424-.856 1.253-.856.873 0 2.059.416 3.244 1.097l1.299-2.305c-1.299-.857-2.955-1.362-4.475-1.362-2.417 0-4.388 1.34-4.388 3.733 0 2.327 1.903 3.096 3.582 3.579 1.321.395 2.483.637 2.483 1.36 0 .571-.446.924-1.431.924-1.12 0-2.485-.484-3.784-1.406l-1.453 2.195a8.504 8.504 0 0 0 5.146 1.779zm9.556 3.359c2.037 0 3.021-.9 3.939-3.293L133 12.664h-3.535l-2.618 8.013-2.731-8.013h-3.602l4.699 11.812c-.291.592-.605.767-1.186.767-.447 0-1.007-.197-1.454-.461l-1.143 2.416a5.715 5.715 0 0 0 3.022.812z"/>
</svg>
