<svg xmlns="http://www.w3.org/2000/svg" width="107" height="36" fill="none" viewBox="0 0 107 36">
  <path fill="#151515" d="M106.168 16.819a.84.84 0 0 0 .59-1.427.825.825 0 0 0-1.231.06.841.841 0 0 0-.154.774.83.83 0 0 0 .21.348.82.82 0 0 0 .586.245h-.001zM0 16.004V.335h2.655v6.651h6.42V.336h2.656v15.67H9.076v-6.67h-6.42v6.67H0v-.002zm18.816-6.109h4.25L20.963 3.92l-2.147 5.976zm-4.649 6.109v-.894L19.701.334h2.614l5.534 14.776v.894h-2.612l-1.374-3.87H18.02l-1.396 3.87h-2.457zM32.94 7.702h3.52c1.639 0 2.458-.832 2.458-2.508 0-1.677-.82-2.507-2.457-2.507H32.94v5.015zm-2.657 8.302V.335h6.664c3.01 0 4.67 1.772 4.67 4.815 0 2.082-.929 3.738-2.721 4.523l2.9 5.438v.894h-2.613l-3.188-6.022H32.94v6.022h-2.657v-.001zm17.27-2.352h4.027c1.483 0 2.214-.715 2.214-2.146 0-1.477-.731-2.216-2.214-2.216h-4.03v4.363h.003zm0-6.6h3.43c1.46 0 2.192-.74 2.192-2.194 0-1.456-.732-2.171-2.192-2.171H47.55v4.365h.003zm-2.658 8.952V.335h6.53c2.766 0 4.426 1.435 4.426 4.212 0 1.59-.619 2.685-1.857 3.332 1.636.606 2.456 1.861 2.456 3.787 0 2.84-1.617 4.34-4.429 4.34h-7.128l.002-.002zM68.626 5.508c0-1.769-1.219-3.045-3.431-3.045-2.213 0-3.432 1.276-3.432 3.045v5.328c0 1.767 1.217 3.044 3.432 3.044 2.214 0 3.431-1.277 3.431-3.044V5.508zm-9.521.134c0-3.517 2.348-5.642 6.09-5.642 3.741 0 6.086 2.125 6.086 5.642V10.7c0 3.514-2.345 5.642-6.086 5.642-3.742 0-6.089-2.128-6.089-5.642V5.642h-.001zM83.68.335h2.655V10.9c0 1.702-.53 3.046-1.594 4.007-1.04.961-2.48 1.432-4.272 1.432-1.794 0-3.232-.47-4.296-1.432-1.038-.963-1.572-2.305-1.572-4.007V.337h2.658v10.697c0 1.635 1.15 2.845 3.21 2.845 2.058 0 3.21-1.21 3.21-2.845V.335zM92.754 7.7h3.521c1.638 0 2.457-.831 2.457-2.508s-.82-2.506-2.457-2.506h-3.52V7.7zM90.1 16.003V.335h6.663c3.01 0 4.671 1.772 4.671 4.815 0 2.082-.931 3.738-2.722 4.523l2.898 5.438v.894h-2.61L95.81 9.983h-3.054v6.022h-2.657v-.002zM1.703 34.613C.578 33.672 0 32.328 0 30.58h2.657c0 .741.2 1.324.575 1.793.796.92 1.792 1.165 2.944 1.165 1.86 0 2.9-.852 2.9-2.038 0-.559-.243-.985-.73-1.276-.486-.313-1.373-.715-2.656-1.208l-.2-.067-.355-.136c-1.681-.648-2.899-1.277-3.63-1.88C.775 26.308.42 25.413.42 24.228c0-1.365.489-2.483 1.484-3.312C2.9 20.085 4.272 19.66 6 19.66c3.476 0 5.756 1.681 5.756 5.285H9.098c0-1.97-1.328-2.821-3.121-2.821-1.75 0-2.878.804-2.878 1.903 0 .605.22 1.073.686 1.363.465.294 1.35.671 2.656 1.142l.31.112c.84.292 1.505.561 1.993.785a9.442 9.442 0 0 1 1.572.894c1.084.74 1.57 1.724 1.57 3.043 0 2.754-2.08 4.635-5.863 4.635-1.729 0-3.168-.47-4.32-1.388zm16.161-7.343h3.588c1.216 0 2.125-.873 2.125-2.462 0-1.589-.908-2.462-2.125-2.462h-3.588v4.924zm-2.657 8.393V19.995h6.708c2.723 0 4.36 1.862 4.36 4.814 0 2.954-1.636 4.815-4.36 4.815h-4.051v6.04H15.207zm16.05-6.108h4.252l-2.103-5.977-2.148 5.977zm-4.648 6.108v-.894l5.535-14.774h2.61l5.536 14.774v.894h-2.61l-1.373-3.87h-5.845l-1.395 3.87H26.61zm15.673-5.304v-5.058c0-3.58 2.192-5.642 6.022-5.642 1.639 0 2.987.449 4.073 1.367 1.085.916 1.638 2.26 1.638 4.052v.223H51.36v-.223c0-.964-.31-1.7-.953-2.194a3.302 3.302 0 0 0-2.125-.761c-2.237 0-3.343 1.096-3.343 3v5.417c0 1.901 1.106 3 3.343 3 .771 0 1.52-.26 2.124-.741.643-.514.954-1.253.954-2.218v-.223h2.655v.223c0 1.793-.552 3.136-1.637 4.052C51.293 35.55 49.944 36 48.305 36c-3.83 0-6.021-2.06-6.021-5.64h-.002zm15.054 5.304V19.995h9.94v2.352h-7.283v4.343h6.242v2.237h-6.242v4.388h7.305v2.35h-9.962v-.002z"/>
</svg>
