<svg xmlns="http://www.w3.org/2000/svg" width="68" height="45" fill="none" viewBox="0 0 68 45">
  <path fill="#222631" d="M22.519 28.843l-2.384-3.67h-2.386v3.67h-3.126V16.178h5.493c3.125 0 5.214 1.714 5.214 4.45 0 1.66-.795 2.999-2.125 3.781l2.957 4.434h-3.643zm-4.77-6.5h2.312c1.202 0 2.144-.67 2.144-1.714 0-1.024-.942-1.676-2.144-1.676h-2.312v3.39zm13.069-3.427v2.31h5.584v2.68h-5.584v2.198h6.38v2.739h-9.505V16.178h9.505v2.738h-6.38zm20.314 3.558c0 3.761-2.828 6.369-6.785 6.369h-5.05V16.178h5.05c3.957 0 6.785 2.588 6.785 6.296zm-3.162 0c0-1.957-1.572-3.465-3.623-3.465h-1.924v7.002h1.924c2.051 0 3.623-1.526 3.623-3.537zm4.881 6.369V16.178h3.126v12.665h-3.126zm15.095-9.852h-3.607v9.852h-3.106V18.99h-3.606v-2.813h10.32v2.813l-.001.001zM9.53 24.284h3.31c-.65 2.893-3.01 4.8-6.184 4.8C2.866 29.084 0 26.328 0 22.51s2.865-6.575 6.656-6.575c3.173 0 5.535 1.908 6.184 4.801H9.53c-.482-1.166-1.488-1.858-2.893-1.858-2.052 0-3.476 1.527-3.476 3.632 0 2.105 1.424 3.632 3.476 3.632 1.405 0 2.411-.69 2.893-1.858zm2.198 16.673c0 2.108-1.686 3.525-4.519 3.525H.874V31.798h5.964c2.741 0 4.334 1.305 4.334 3.376 0 1.175-.65 2.388-1.74 2.78 1.536.335 2.296 1.64 2.296 3.003zm-7.724-6.585v2.649h2.353c1.185 0 1.834-.596 1.834-1.417 0-.803-.63-1.232-1.834-1.232H4.004zm4.668 6.175c0-.784-.648-1.232-1.815-1.232H4.004v2.556H6.8c1.297 0 1.87-.578 1.87-1.324h.002zM21.397 42.3h-5.333l-.835 2.182h-3.333l5.352-12.684h3.001l5.334 12.684h-3.334l-.852-2.182zm-1.018-2.63l-1.65-4.272-1.648 4.271h3.298v.001zM38.2 31.797v12.684h-2.409l-6.037-6.958v6.958h-3.13V31.798h2.39l6.074 7.144v-7.144H38.2v-.001zm7.574 7.947l-1.852 2.162v2.575h-3.13V31.798h3.13v5.82l5.02-5.82h3.704l-4.796 5.559 5.204 7.125h-3.908l-3.372-4.737v-.001zM12.097.557v12.665H8.99v-4.75H3.868v4.75H.743V.557h3.125v5.085H8.99V.557h3.107zm35.931 12.665h-3.125v-6.35L42.11 11.21v.019h-1.738v-.02l-2.81-4.375.017 6.388h-3.124V.557h2.33l4.456 6.761 4.457-6.76h2.33v12.664zm5.717-9.927v2.31h5.586v2.682h-5.586v2.196h6.38v2.739h-9.504V.557h9.504v2.738h-6.38zM23.276 0c4.974 0 9.004 3.867 9.004 8.64a8.34 8.34 0 0 1-1.37 4.582h-4.342a5.504 5.504 0 0 0 2.174-4.389c0-3.04-2.447-5.505-5.466-5.505-3.02 0-5.467 2.465-5.467 5.505 0 1.794.856 3.383 2.175 4.389h-4.343a8.344 8.344 0 0 1-1.37-4.582c0-4.773 4.033-8.64 9.005-8.64zm-2.953 10.055h5.906c-.423 1.266-1.585 2.175-2.954 2.175-1.368 0-2.529-.909-2.952-2.175z"/>
</svg>
