<svg width="144" height="26" viewBox="0 0 144 26" fill="none" xmlns="http://www.w3.org/2000/svg">
<path d="M139.875 7.05715V11.9792H133.455V7.05615H130.245V19.9632H133.455V14.7632H139.875V19.9632H143.085V7.05715H139.875Z" fill="#222631"/>
<path fill-rule="evenodd" clip-rule="evenodd" d="M84.4742 6.77905C85.4842 6.77905 86.4942 7.33605 87.0442 8.54305V8.54405L92.2702 19.9641H88.8762L87.7762 17.2701H81.1732L80.0732 19.9621H76.6792L81.9072 8.54205C82.3662 7.33505 83.4662 6.77905 84.4742 6.77905ZM84.1086 10.031L82.1826 14.671L82.1846 14.67H86.5846L84.6586 10.03C84.5666 9.84399 84.4736 9.84399 84.3836 9.84399C84.2926 9.84399 84.2006 9.84399 84.1086 10.031Z" fill="#222631"/>
<path d="M49.2546 4.73584C47.6946 4.73584 46.7786 5.57084 46.0446 7.14984L41.9176 16.8068L37.7906 7.14984C37.0566 5.56984 36.1406 4.73584 34.6706 4.73584C33.2956 4.73584 31.8286 5.75584 31.8286 7.89284V19.8698H35.0386V8.26484L39.1666 17.8298C39.7166 19.1298 40.6336 19.9638 41.9166 19.9638C43.2016 19.9638 44.1186 19.1288 44.6696 17.8288L48.7966 8.26284V19.8698H52.0066V7.98684C52.0066 5.75684 50.6306 4.73684 49.2566 4.73684L49.2546 4.73584Z" fill="#222631"/>
<path d="M57.6012 17.1801C57.4182 17.1801 57.3262 17.0861 57.3262 16.9001V14.5801H65.2142V12.0701H57.3262V10.1201C57.3262 9.93613 57.4182 9.84313 57.6012 9.84313H65.3972V7.05713H56.0422C54.9422 7.05713 54.1162 7.98713 54.1162 9.00713V18.0141C54.1162 19.0361 54.9412 19.9641 56.0422 19.9641H65.3972V17.2701H57.6012V17.1801Z" fill="#222631"/>
<path d="M70.8096 19.9641V10.1201C70.8096 9.93613 70.9016 9.84313 71.0846 9.84313H78.8806V7.05713H69.5246C68.4246 7.05713 67.5996 7.98713 67.5996 9.00713V19.9641H70.8096Z" fill="#222631"/>
<path fill-rule="evenodd" clip-rule="evenodd" d="M120.98 6.87109C126.391 6.87109 128.224 9.00709 128.224 13.4641L128.225 13.4651C128.225 17.9221 126.39 20.0581 120.98 20.0581C115.568 20.0581 113.734 17.9221 113.734 13.4651C113.734 9.00809 115.568 6.87109 120.98 6.87109ZM116.668 13.4641C116.668 16.1571 117.678 17.3641 120.888 17.3641C124.098 17.3641 125.108 16.1571 125.108 13.4641C125.108 10.8641 124.19 9.56409 120.888 9.56409C117.494 9.56409 116.668 10.8641 116.668 13.4641Z" fill="#222631"/>
<path fill-rule="evenodd" clip-rule="evenodd" d="M104.836 5.10693H98.5073C93.8303 5.10693 91.9043 7.52093 91.9043 11.6999C91.9043 16.5299 94.2893 18.2929 98.6923 18.2929H100.067V19.9629H103.277V18.2929H104.653C109.055 18.2929 111.44 16.4359 111.44 11.6999C111.348 7.42993 109.514 5.10693 104.836 5.10693ZM100.066 15.5999H98.6004C96.3074 15.5999 95.0234 14.6699 95.0234 11.6999C95.0234 9.00693 96.3064 7.79993 98.1404 7.79993H100.066V15.5999ZM103.185 15.5999H104.652C106.945 15.5999 108.229 14.5799 108.229 11.6999C108.229 8.91393 106.945 7.79993 105.111 7.79993H103.185V15.5999Z" fill="#222631"/>
<path fill-rule="evenodd" clip-rule="evenodd" d="M14.3096 13.37V0.093041L14.3086 0.092041C20.5466 0.836041 25.4086 6.31304 25.4086 12.906C25.4086 20.892 18.3456 26.463 11.5586 25.719V14.579C11.5586 14.486 11.6516 14.393 11.7416 14.393H13.3016C13.8516 14.393 14.3096 13.93 14.3096 13.37ZM12.4746 18.293C12.4746 19.13 13.1176 19.87 14.0346 19.87V19.871C14.9526 19.871 15.5946 19.221 15.5946 18.293C15.5946 17.457 14.9526 16.713 14.0346 16.713C13.2096 16.713 12.4746 17.363 12.4746 18.293ZM17.7943 19.871C16.8783 19.871 16.2363 19.131 16.2363 18.294C16.2363 17.364 16.9693 16.714 17.7963 16.714C18.7123 16.714 19.3543 17.458 19.3543 18.294C19.3543 19.222 18.6203 19.872 17.7943 19.872V19.871ZM19.9043 18.295C19.9043 19.132 20.5463 19.872 21.4643 19.872V19.873C22.3813 19.873 23.1143 19.223 23.0243 18.295C23.0243 17.459 22.3813 16.715 21.4643 16.715C20.6383 16.715 19.9043 17.365 19.9043 18.295Z" fill="#222631"/>
<path fill-rule="evenodd" clip-rule="evenodd" d="M9.99942 25.537C4.31142 24.237 -0.090584 19.037 0.00141601 12.907H0.000416009C0.094416 5.48 5.87042 0 12.7504 0V12.812C12.705 12.812 12.6823 12.8351 12.6595 12.8583C12.6365 12.8816 12.6135 12.905 12.5674 12.905H11.0094C10.4574 12.905 9.99942 13.368 9.99942 13.928V25.537ZM8.71436 9.00696C8.71436 9.84295 9.35736 10.587 10.2744 10.587V10.586C11.1914 10.586 11.8344 9.93596 11.8344 9.00595C11.8344 8.16895 11.1914 7.42896 10.2744 7.42896C9.44836 7.42896 8.71436 8.07895 8.71436 9.00696Z" fill="#222631"/>
</svg>
