<svg xmlns="http://www.w3.org/2000/svg" width="93" height="24" fill="none" viewBox="0 0 93 24">
  <path fill="#222631" d="M8.265.532c-1.725 0-3.771 1.642-5.458 4.4C1.047 7.788 0 11.324 0 14.394c0 4.497 2.552 9.03 8.268 9.03 5.709 0 8.265-4.533 8.265-9.03 0-3.072-1.05-6.608-2.8-9.464-1.7-2.76-3.747-4.399-5.468-4.399zM52.908 7.278h5.786V22.2h6.2V7.278h5.786v-5.52H52.908v5.52zM83.906 7.278H93v-5.52h-9.094c-8.356 0-12.818 4.109-12.818 10.221 0 6.113 4.46 10.221 12.818 10.221H93v-5.519h-9.094c-3.867 0-6.409-1.368-6.409-4.702 0-3.334 2.545-4.701 6.409-4.701zM40.297 1.759l-3.306 12.2-3.305-12.2H22.733V22.2h6.2V5.573L33.438 22.2h7.109l4.506-16.639V22.2h6.2V1.759H40.296z"/>
</svg>
