<svg xmlns="http://www.w3.org/2000/svg" width="104" height="30" fill="none" viewBox="0 0 104 30">
  <path fill="#151515" fill-rule="evenodd" d="M41.99 22.683v-9.792a.407.407 0 0 0-.108-.308.4.4 0 0 0-.303-.1h-.164a1.021 1.021 0 0 1-.923-1.019.999.999 0 0 1 .89-.999h1.56c.329-.028.658.062.926.255a.844.844 0 0 1 .275.653v.374h.037s.032-.056.1-.154a3.15 3.15 0 0 1 .904-.819c.265-.168.553-.297.855-.382a4.347 4.347 0 0 1 3.412.482 4.107 4.107 0 0 1 1.47 1.744c.361.823.541 1.713.526 2.61a5.883 5.883 0 0 1-.575 2.645 4.277 4.277 0 0 1-1.55 1.736 4.172 4.172 0 0 1-2.248.618c-.416 0-.829-.064-1.222-.19a3.502 3.502 0 0 1-.85-.436 2.954 2.954 0 0 1-.497-.427 1.835 1.835 0 0 1-.161-.2h-.038l.02.227c.012.145.017.354.018.6v2.89a1.18 1.18 0 0 1-1.181 1.026 1.189 1.189 0 0 1-1.172-1.035v.001zm5.86-4.8c.378-.246.68-.593.871-1.001a3.71 3.71 0 0 0 .334-1.61 3.93 3.93 0 0 0-.303-1.589 2.442 2.442 0 0 0-.831-1.037 2.129 2.129 0 0 0-1.242-.372 2.211 2.211 0 0 0-2.047 1.29 4.315 4.315 0 0 0-.197 2.81c.092.336.242.652.443.936.19.274.442.502.735.663.315.172.67.26 1.03.255.427.003.847-.117 1.207-.346v.002zm5.036 1.827a1.332 1.332 0 0 1-.298-.973v-9.59a.421.421 0 0 0-.108-.31.445.445 0 0 0-.303-.1h-.29a1.02 1.02 0 0 1-.849-1.083 1.015 1.015 0 0 1 1.011-.935h1.643a1.1 1.1 0 0 1 1.239.753c.052.168.063.347.03.52v9.6a.392.392 0 0 0 .107.3.409.409 0 0 0 .306.11h.273a1.026 1.026 0 0 1 .829 1.01 1.02 1.02 0 0 1-.843.997h-1.778a1.34 1.34 0 0 1-.972-.3h.003zm5.798.317a3.094 3.094 0 0 1-1.036-.572 2.682 2.682 0 0 1-.72-.937 2.978 2.978 0 0 1-.275-1.262c-.007-.448.1-.889.312-1.282a2.75 2.75 0 0 1 .813-.892c.347-.24.728-.433 1.128-.573a7.87 7.87 0 0 1 1.254-.318c.425-.073.821-.117 1.2-.145.38-.028.696-.037.96-.027h.299v-.082a1.994 1.994 0 0 0-.425-1.444 1.754 1.754 0 0 0-1.334-.42 2.097 2.097 0 0 0-.796.117.899.899 0 0 0-.337.193.425.425 0 0 0-.139.318v.291a1.12 1.12 0 0 1-1.124.874 1.125 1.125 0 0 1-1.079-.93v-.733c-.006-.318.087-.63.267-.891.176-.24.408-.434.677-.564.28-.147.58-.258.89-.328.3-.073.604-.121.913-.145.292-.028.538-.037.744-.037a5.903 5.903 0 0 1 1.983.291c.482.162.916.44 1.265.81.313.343.54.755.668 1.2.136.488.203.993.194 1.5v3.554a.374.374 0 0 0 .413.41h.282a1.026 1.026 0 0 1 .862.984 1.02 1.02 0 0 1-.814 1.024h-1.703a1.541 1.541 0 0 1-.705-.154.836.836 0 0 1-.39-.382 1.046 1.046 0 0 1-.12-.518c0-.119 0-.218.01-.291.005-.04.008-.08.008-.119h-.036s-.031.064-.092.174a3.021 3.021 0 0 1-.3.418 3.463 3.463 0 0 1-.54.5c-.253.176-.53.317-.822.418a3.539 3.539 0 0 1-1.126.172 3.667 3.667 0 0 1-1.226-.2l-.003-.002zm2.682-1.882c.267-.146.5-.35.685-.59.191-.244.343-.518.448-.809.104-.282.157-.58.159-.881v-.219h-.41a8.053 8.053 0 0 0-1.02.045c-.354.032-.702.1-1.041.2a2.018 2.018 0 0 0-.814.455 1.078 1.078 0 0 0-.324.79c0 .215.053.423.157.61.113.19.278.346.478.446.247.127.525.19.804.181a1.8 1.8 0 0 0 .878-.228zm5.898 5.637a3.747 3.747 0 0 1-.758-.336 4.331 4.331 0 0 1-.4-.263.972.972 0 0 1 .462-1.587.98.98 0 0 1 .647.04c.118.079.247.143.38.192a1.48 1.48 0 0 0 1.448-.19 2.14 2.14 0 0 0 .67-.92l.314-.735-1.1-2.473-2.076-4.692a.427.427 0 0 0-.506-.335 1.04 1.04 0 0 1-.88-1 1.01 1.01 0 0 1 .624-.94 1.02 1.02 0 0 1 .388-.078h1.157c.277-.02.553.05.787.2.222.177.385.418.467.69l1.228 3.137.637 1.637c.062.172.118.354.171.544.05.2.092.364.121.51l.042.218h.041l.045-.218c.028-.146.067-.31.115-.51s.1-.372.155-.545l1.63-4.772c.077-.275.243-.518.472-.69.239-.15.518-.22.799-.201h1.164a1.02 1.02 0 0 1 .937.63c.05.122.076.254.075.387a1.033 1.033 0 0 1-.891 1 .64.64 0 0 0-.292.055.565.565 0 0 0-.208.281l-3.422 8.628a4.18 4.18 0 0 1-.876 1.41 3.423 3.423 0 0 1-1.187.816 3.552 3.552 0 0 1-2.38.11zm10.09-4.763h-.016V9.147a.407.407 0 0 0-.11-.31.436.436 0 0 0-.302-.1h-.206a1.02 1.02 0 0 1-.848-1.083 1.015 1.015 0 0 1 1.01-.935h1.56c.243-.006.486.022.721.083a.73.73 0 0 1 .416.326c.1.21.147.44.135.673v6.028h.71c.163 0 .326-.021.483-.065a.762.762 0 0 0 .414-.29l1.976-3.073a1.114 1.114 0 0 1 1.865 1.136l-1.672 2.518a2.984 2.984 0 0 1-.509.59c-.06.06-.128.112-.2.155v.038a.636.636 0 0 1 .207.145c.191.17.349.372.464.599l1.082 2.064a.56.56 0 0 0 .282.282c.161.064.334.089.506.073h.244c.48.094.829.511.833 1a.986.986 0 0 1-.091.41 1.034 1.034 0 0 1-.76.598h-1.352a3.291 3.291 0 0 1-.663-.063 1.06 1.06 0 0 1-.456-.246 1.947 1.947 0 0 1-.375-.518l-.082-.154-1.506-2.846a.614.614 0 0 0-.4-.3 1.479 1.479 0 0 0-.48-.055h-.523V19.2a1.182 1.182 0 0 1-1.262.98 1.188 1.188 0 0 1-1.094-1.162h-.002zm8.81-3.791a5.085 5.085 0 0 0 .408 2.028 4.619 4.619 0 0 0 1.112 1.572c.48.448 1.043.8 1.658 1.036a5.918 5.918 0 0 0 4.087 0 5.158 5.158 0 0 0 1.662-1.036 4.65 4.65 0 0 0 1.117-1.572 5.221 5.221 0 0 0 0-4.037 4.754 4.754 0 0 0-1.117-1.582 4.93 4.93 0 0 0-1.664-1.027 5.783 5.783 0 0 0-4.085 0 4.902 4.902 0 0 0-1.657 1.027 4.77 4.77 0 0 0-1.113 1.582 5.065 5.065 0 0 0-.407 2.009zm2.392 0a3.12 3.12 0 0 1 .39-1.545 2.765 2.765 0 0 1 2.434-1.427 2.785 2.785 0 0 1 2.452 1.427 3.283 3.283 0 0 1 0 3.108 2.83 2.83 0 0 1-1.025 1.047 2.923 2.923 0 0 1-1.427.372 2.745 2.745 0 0 1-2.434-1.419 3.114 3.114 0 0 1-.39-1.563zm12.954 4.8c-.358-.05-.71-.141-1.046-.273a3.118 3.118 0 0 1-.98-.61 2.838 2.838 0 0 1-.73-1.035 4.167 4.167 0 0 1-.287-1.609v-4.155h-.772a.96.96 0 0 1-.832-.907.953.953 0 0 1 .752-.974h.917v-1.82a1.16 1.16 0 0 1 1.1-1.111 1.169 1.169 0 0 1 1.217.986v1.945h1.825a.958.958 0 0 1 .755.975.956.956 0 0 1-.836.907h-1.742V16.2c-.011.327.058.651.203.945.113.224.285.412.497.546.188.119.398.202.618.245.186.042.379.063.57.064.089.003.179-.003.268-.018a1.01 1.01 0 0 1 .991.954 1.063 1.063 0 0 1-.889 1.108.496.496 0 0 1-.143.019 5.809 5.809 0 0 1-1.449-.037h-.007zM12.131 23.61a2.317 2.317 0 0 1 .372-2.855 1.794 1.794 0 0 1 2.584.582c1.573 2.2 2.373 4.573 4.218 5.418 4.556 2.09 9.574.018 13.272-6.39l.514-.901c2.873-4.972 2.988-9.2 1.315-12.1-1.67-2.899-5.382-4.908-11.124-4.908h-1.036c-6.711 0-10.925 2.728-11.964 7.027-.472 1.954-.155 4.227 2.53 3.881l.054-.018a30.346 30.346 0 0 1 2.9-.136h.575a2.63 2.63 0 0 1-.028-.517 3.67 3.67 0 0 1 .77-1.873c.428-.54.998-.95 1.648-1.182.291-1.488.9-2.896 1.788-4.128a8.27 8.27 0 0 1 2.694 3.518c.41.052.816.127 1.216.228.253.073.492.146.72.218a6.755 6.755 0 0 1 2.294-1.419 6.702 6.702 0 0 1 .605 3.31 3.28 3.28 0 0 1 .843 2.155 3.11 3.11 0 0 1-1.152 2.299l-.137.109c.814.447 1.58.98 2.286 1.58 1.67 1.448.266 2.41-3.855.402 4.397 2.327 3.616 3.89 1.834 3.18a28.32 28.32 0 0 0-10.2-1.799c-5.657 0-10.842 1.218-14.057 3.536-1.245.9-2.165 1.1-2.228.356-.12-1.391 1.393-2.982 5.012-5.137a11.62 11.62 0 0 0-4.573 2.072c-2.158 1.383-2.394-.627-.73-2.098a16.834 16.834 0 0 1 7.742-3.984c-1.156-1.055-1.412-3.118-.936-5.109C9.187 3.554 14.371.008 22.246.008L23.278 0C36.233 0 41.682 9.473 35.21 20.69l-.517.89c-6.01 10.428-15.974 11.246-22.566 2.028l.003.002zm13.066-8.736a1.371 1.371 0 0 0-1.367-.146 1.131 1.131 0 0 0 .62.91 1.37 1.37 0 0 0 .752-.764h-.005zm-1.053-.784a4.367 4.367 0 0 0-.323-1.743 1.189 1.189 0 0 1-.167.227 1.003 1.003 0 0 1-1.151.243 1.004 1.004 0 0 1-.337-.243 1.18 1.18 0 0 1 .008-1.591c.098-.105.216-.188.347-.245a3.402 3.402 0 0 0-3.586.054c-.927 2.382 2.197 3.854 5.21 3.3v-.002zm3.778-2.089a1.434 1.434 0 0 0-.158-.145 1.06 1.06 0 0 1-.164.972.632.632 0 0 1-1.022 0 1.05 1.05 0 0 1-.06-1.164c-.452.19-.823.533-1.048.969-.225.435-.29.935-.183 1.413 1.535.127 3.222-.89 2.635-2.045z" clip-rule="evenodd"/>
</svg>
