<svg xmlns="http://www.w3.org/2000/svg" width="78" height="49" fill="none" viewBox="0 0 78 49">
  <path fill="#151515" d="M36.737 12.872c-.163-.498-.042-1.083.166-1.632-.148.298-.285.601-.412.908-.12.275-.224.557-.31.844v.004c-.06.221-.196.737-.131.997a.953.953 0 0 0 .19-.072c.102-.054.199-.116.29-.185.047-.293.115-.581.207-.864zm2.09-3.099c.276-.474.562-.944.854-1.408.337-.526.679-1.05.994-1.584-.77.904-1.805 2.13-1.847 2.992zm5.615-7.325l-.03.076a9.519 9.519 0 0 1-.726 1.52 1.071 1.071 0 0 1-.079.331 9.259 9.259 0 0 1-.524 1.175c.034.241.021.486-.036.722a1.886 1.886 0 0 1-.042.125c.934-1.213 2.268-3.07 2.164-3.81-.027-.233-.436-.18-.593-.159l-.133.018v.002zm-1.4-.328a6.43 6.43 0 0 1 .83-.252c.016-.307-.255-.337-.551-.246a1.58 1.58 0 0 0-.281.122c.007.122.007.246.002.376zm-.75.332l.044-.024c.006-.058.01-.117.01-.175-.055.058-.119.117-.178.18.042.002.083.009.124.019zm-2.843 2.3a5.71 5.71 0 0 1 1.099-1.394c.474-.685 1.08-1.452 1.76-1.953a1.409 1.409 0 0 0-.113-.372.632.632 0 0 0-.327-.316.88.88 0 0 0-.34-.04l-.019.004c-.833.106-1.799 3.2-2.004 3.874l-.056.198zm3.481-3.708c.06-.025.121-.046.184-.062.305-.104.635-.108.942-.01a.903.903 0 0 1 .208.11l.088.072a.83.83 0 0 1 .215.594c.596-.064 1.19.068 1.285.75.171 1.272-2.195 4.183-3.012 5.21-.149.189-.305.378-.448.573l-.002.007c-.233.317-.444.642-.66.97-.375.605-.79 1.186-1.242 1.736-.077.116-.157.23-.24.341-.196.277-.41.542-.639.794-.096.133-.202.26-.315.379l-.035.064c-.234.412-.694 1.21-1.08 1.507-.183.134-.402.224-.593.123-.06.059-.124.115-.19.167-.23.171-.565.324-.752.102a.874.874 0 0 1-.09.047c-.186.107-.4.159-.614.15a.63.63 0 0 1-.346-.146.613.613 0 0 1-.198-.316c-.126-.396.018-1.001.127-1.388.09-.314.202-.623.33-.923.159-.378.329-.746.508-1.108a28.164 28.164 0 0 1 1.615-2.796c.009-.065.023-.134.034-.2-.084.124-.171.245-.253.367-.29.415-.575.83-.874 1.232v.004l-.089.132-.563-.401.094-.125c.292-.4.576-.813.864-1.224.39-.558.777-1.113 1.182-1.659.143-.587.302-1.174.48-1.752.303-1.01 1.297-4.19 2.57-4.355.231-.027.466 0 .685.078.313.117.565.35.705.65.049.099.09.201.119.308v-.002zm2.413 33.961c.058-.968.12-1.936.178-2.904l-.178 2.904zm-4.581 6.826l-.085.595c-.032.278.023.947.132 1.694-.008-.766-.028-1.528-.046-2.289h-.001zm1.25-7.466c-.076.365-.149.73-.222 1.096-.018.808-.028 1.615-.028 2.428 0 .345-.032 1.701-.077 3.258.028.922.064 1.839.126 2.75.426-2.743.387-6.145.203-9.53l-.002-.002zm1.425-6.947l-.133.754-.106.601-.002.014a536.69 536.69 0 0 0-.506 2.387l-.206.937c.338 4.96.532 10.28-.505 13.868.038.433.112.86.22 1.28.18-.487.32-.985.422-1.494.636-2.895 1.23-8.192 1.23-9.486 0-.319.005-1.007.01-1.726 0-.49 0-.973.004-1.455-.065-.839-.13-1.673-.192-2.51-.08-1.06-.163-2.114-.236-3.17zm2.028-10.245l.106.044c.032-.163.05-.24.018-.24-.028 0-.073.069-.124.196zm1.1 5.029c.34-.587.285-1.45.046-2.264-.014.755-.028 1.51-.047 2.264zM41.23 29.58l-.347.508c.04 1.712.11 3.409.188 5.11l.013-.443c.04-1.746.093-3.462.146-5.175zm1.6-2.247c-.212.282-.417.567-.625.857l.089 1.248.032.483c.096-.431.187-.857.27-1.258l.003-.011.102-.58.127-.74h.001zm1.4-1.746l-.095.09c.038.218.067.442.095.663v-.753zm1.244-1.41c-.222.23-.438.463-.65.701v15.583c0 .484.01.964.03 1.419l.006.103.008-.117c.16-2.29.324-4.574.474-6.86.083-3.61.127-7.219.13-10.829h.002zm-1.449.69c.065-.073.124-.145.186-.215V23.1c-.085.46-.169.918-.246 1.36.02.138.042.268.06.406zm-3.78 2.806l-.267.39c-3.029 4.455-6.177 9.09-8.414 13.42 2.757-2.565 5.009-5.979 7.246-9.374.486-.738.97-1.472 1.456-2.199-.01-.667-.016-1.335-.016-2.002l-.004-.236h-.001zm1.068-1.576l-.478.708.007.277c.008.417.018.725.018.826 0 .376.002.75.007 1.125.131-.189.262-.381.394-.57.02-.783.04-1.576.052-2.368v.002zm1.824-2.735c-.281.433-.57.861-.86 1.3a535.14 535.14 0 0 1-.134 2.575c.304-.409.608-.81.918-1.201.066-.365.14-.755.217-1.155a50.686 50.686 0 0 1-.058-1.116c-.025-.132-.05-.27-.083-.403zm2.337-3.707c-.21.363-.441.737-.65 1.078v3.241c.212-.225.43-.446.65-.663v-3.656zm-1.263.405c-.16.263-.315.534-.467.8l.01.442.358-.576.099-.44v-.226zm1.263-1.708c-.15.148-.29.305-.422.47-.04.182-.079.364-.116.547l.112-.194c.124-.196.267-.38.426-.547v-.276zm-4.144 5.914c-.183.228-.361.456-.54.694.004.274.009.543.016.798l.52-.77c.002-.24.004-.48.004-.722zm1.078-1.31v.003l-.058.061-.018.462c.208-.317.417-.63.622-.947l-.056-.242c-.15.228-.312.448-.486.658l-.004.006zm.154-1.867l-.149.232-.02.632c.096-.147.19-.302.287-.46-.04-.137-.076-.27-.12-.404h.002zm.567-.917l-.141.23c.035.12.073.242.113.362l.03-.055v-.518h-.002v-.02.001zm1.12-1.811l-.593.965c.022.138.039.264.056.384.161-.267.326-.527.5-.78.004-.21.015-.4.037-.57zm-1.623 1.026c.112-.16.224-.314.332-.466a12.54 12.54 0 0 0-.476-1.7v.229c0 .515-.004 1.034-.014 1.556.05.116.104.242.156.38h.002zm-1.336 3.727a9.155 9.155 0 0 1-.21.494l.25-.308v-.242l-.04.056zm.04-3.89c-.148.27-.304.554-.48.85a45.39 45.39 0 0 0-.077 2.69c.086-.228.152-.464.197-.703.027-.139.162-.401.36-.73v-2.106zm-1.654.056c-1.243 1.11-1.87 3.23-2.406 5.193.87-1.252 2.081-3.051 2.926-4.485.056-.093.105-.18.154-.267.037-.369.096-.735.177-1.098a4.836 4.836 0 0 0-.851.657zm-3.16 7.764c-.63 1.742-1.385 3.468-2.18 5.194l.643-.832c.662-.85 1.362-1.752 2.043-2.655.557-.887 1.118-1.775 1.674-2.661l1.479-2.347c.002-.876.018-1.798.067-2.649-1.26 2.02-2.922 4.376-3.4 5.052h-.002l-.003.002v.003h-.002l-.056.081c-.084.284-.168.552-.26.802l-.001.008h-.002v.002zm-3.413 7.848l-.304.654c.3-.494.602-.989.908-1.487a43.62 43.62 0 0 0-.604.833zm-.534-.303l.346-.737c.78-1.666 1.557-3.33 2.247-5.005-.633 1.13-1.247 2.328-1.87 3.54a95.8 95.8 0 0 1-2.217 4.168c.398-.448.769-.918 1.113-1.407l.004-.007c.116-.175.242-.358.378-.552h-.001zm-1.299-18.13c.184-.548.582-.088.461 1.12l-.46-1.12zm-2.785 28.45l.042.093.004-.016c0-.088 0-.193.006-.317l.006-.25c-.016.164-.035.327-.058.49zm-.863-3.6c.101.687.225 1.352.382 1.99a36.14 36.14 0 0 1-.01-.905c0-.488.003-.982.01-1.48-.123.136-.25.267-.382.395zm2.509 1.214l-.007-.303-.124.166c-.04.124-.083.249-.12.373.085-.079.17-.155.25-.235v-.001zm.584-1.144l.011.405.005-.007c2.265-4.52 5.57-9.378 8.74-14.052l.746-1.099c-.006-.267-.014-.563-.019-.88-2.227 3.001-4.525 6.613-6.454 10.006-.485.856-.959 1.719-1.42 2.588A72.98 72.98 0 0 0 31.1 40.75v.001a6.436 6.436 0 0 1-.384.63zm-.129-3.35l.042.93c.26-.641.536-1.272.815-1.903-.265.31-.558.641-.857.973zm-1.973 3.157c.017-.346.043-.689.067-1.035l-.05.05c-.009.325-.012.655-.017.985zm.622 3.863l-.033.116-.021.076a.847.847 0 0 1-.016.057c.045.255.028.226-.02.06-.052.2-.127.393-.224.577.2.377.39.625.566.75a.284.284 0 0 0 .197.073.326.326 0 0 0 .164-.147c.19-.286.31-.85.31-1.644 0-.506-.005-1.013-.012-1.525a7.306 7.306 0 0 1-.225.158v.002l-.364.26-.059.213-.002.005-.037.146-.224.823zm-.358-7.986a69.472 69.472 0 0 0-.143-1.343l-.01.456c-.028 1.01-.056 2.012-.077 3.012l.084-.114c.045-.67.093-1.34.146-2.011zm.773 2.29c.018.475.032.948.037 1.422l.372-.647c-.015-.481-.037-.965-.056-1.452l-.32.351-.005.042-.028.283zm-2.473-21.656c.002-.036-.024-.07-.066-.083v-.003c-.087 0-.028.065.056.212l.011-.126h-.001zm.83 5.987c.093 1.276.132 2.548.137 3.816l.075.487a65.923 65.923 0 0 0-.21-4.302l-.002-.001zm-.735 10.923c.14-2.226.253-4.444.26-6.659l-.032.655c-.112 2-.188 4-.228 6.002v.002zm.474 2.133c-.078 1.24-.162 2.48-.23 3.727l.504-.535c.02-1.242.059-2.503.094-3.768.037-1.413.08-2.83.101-4.245l-.14-.914a208.83 208.83 0 0 1-.33 5.735zM2.999 43.76c.337.766.458 1.483.364 2.14-.288-.78-.408-1.492-.364-2.14zm.972-7.74l.07 1.17.117.98c-.074.75-.076 1.506-.007 2.258l-.2-.101.085-.177-.066-.534-.006-.72.02-.635-.088-.712a7.251 7.251 0 0 1-.034-1.807l.11.276v.002zm-.96-3.43c.182.926.297 1.862.342 2.803.011.57.055 1.138.132 1.7a5.1 5.1 0 0 0 .174 1.444 10.565 10.565 0 0 0-.064 1.788c.036.304.04.61.007.913l-.024 1.969-.159-.443-.014-.988-.112-.913.032-.436-.149-.535c.12-.38.134-.785.035-1.17l-.042-.357.06-.195-.132-1.075.04-.538a3.294 3.294 0 0 0-.06-1.265l.019-.539-.084-2.162H3.01zm4.077-.355c.113.09.192.215.221.356.003.424.028.847.077 1.269l.109.26c-.049.209-.083.42-.103.633.097.686.12 1.379.073 2.07l.098.809c.024.182.012.304-.037.352-.015.392 0 .783.039 1.173l.001.81-.004.639-.05.452.036.976a2.94 2.94 0 0 1-.01.729l-.138.997-.108 1.427-.206-.184c.016-.42-.036-.84-.155-1.245.05-.182.032-.31-.042-.376.04-.242.009-.49-.089-.715.075-.291.101-.593.078-.893a1.9 1.9 0 0 1-.028-.992 5.778 5.778 0 0 1-.175-1.443 5.389 5.389 0 0 1 0-1.53 2.711 2.711 0 0 1-.076-1.252l.058-.355-.145-.358.026-.635L6.4 32.59c.205-.16.439-.28.688-.356zM4.86 30.53c.249.146.44.37.542.637l-.036.353.196.996-.03.36.087.707-.06.363.133 1.088-.131 1.244c.053.425.09.968.112 1.634.026.602.006 1.203-.059 1.8.042.344.055.69.034 1.036-.021.284-.014.569.017.852l-.127 1.963-.052.277-.074.993a4.616 4.616 0 0 0-.27 1.424l-.197-.079-.19-2.243a4.85 4.85 0 0 1-.006-.905l.004-1.43a5.515 5.515 0 0 1-.028-.912l.042-.443-.062-.532.101-2.161-.02-.993c.084-.444.117-.896.098-1.347-.043-.362-.034-.572.02-.64l-.098-.81a3.228 3.228 0 0 1 .01-.609l.025-.638a6.484 6.484 0 0 1 .019-1.985zm2.035-.717c.292.424.161.637-.391.637-.264-.182-.14-.4.39-.636v-.001zm-3.4-.71c-.042.115-.015.324.075.614l-.047.28.218 1.799-.048 1.08c-.487-1.443-.589-2.799-.315-4.049l.117.277zm7.942-.915a.137.137 0 0 1-.03.131.141.141 0 0 1-.13.045l-.672.463-2.32 1.17c-.168-.36-.109-.632.167-.816l1.076-.261.155-.194 1.754-.54v.002zm1.564-.71c.093.183-.016.305-.312.35a.425.425 0 0 1 .312-.35zm5.764-.1c-2.148 2.456-4.778 3.685-7.89 3.688.186-.147.39-.268.608-.36l.982-.175.246-.182c1.082-.184 1.982-.515 2.726-.99l.17-.083.959-.356.416-.276a9.62 9.62 0 0 0 1.783-1.266zM3.518 25.773c.175.59.224 1.211.14 1.823-.107-.42-.149-.74-.117-.95l-.025-.873h.002zm13.607-1.272c-.36 1.081-1.124 1.777-2.309 2.082l.155-.18.5-.371.343-.363.17-.08c.438-.3.823-.666 1.141-1.086V24.5zm1.496-.436c.042.296.053.595.036.895-1.322 2.222-3.429 3.512-6.318 3.867l.271-.1.32-.363.193.102c.214-.145.444-.266.686-.359l.941-.534.273-.095.672-.46.611-.259c.21-.152.441-.271.686-.357l.414-.37c.17-.335.464-.592.821-.722a2.4 2.4 0 0 0 .394-1.244zm-13.878.176l.042.362c.055.387.076.779.062 1.169l.126.355c-.006.452.02.903.08 1.35.04.894.099 1.646.173 2.24a.668.668 0 0 1-.418.356l-.127-.355.04-.36-.148-3.509c0-.207.036-.415.105-.612a3.915 3.915 0 0 1-.074-1.45l.139.454zM2.485 22.26c.128.192.216.408.257.636l.062.536c.12.407.171.83.154 1.253.14.636.235 1.28.281 1.929.034.466.014.936-.056 1.399l-.124-.357c-.165-.778-.233-1.32-.198-1.623l-.22-1.792.05-.276-.225-1.171.019-.534zm15.988-2.417c.506.655.867 1.288 1.056 1.88-.51-.663-.86-1.283-1.055-1.88zM6.927 19.66l.005.717-.032.535-.042 1.174c-.31-.971-.372-1.812-.207-2.52l.276.094zm-.9.08l.089.718.126.373-.028.437.043.353c.095.324.136.66.119.995.22.778.305 1.472.253 2.069l.16.626-.018.538.076.633c.234.903.267 1.682.107 2.347a2.27 2.27 0 0 0-.731.092c-.225-.365-.31-.846-.262-1.442l-.144-.36c.067-.42.077-.848.03-1.271l-.182-3.13.021-.54.018-.632a6.365 6.365 0 0 1 .019-1.98l.306.173h-.002zm-2.117-.174l-.433.277-.03.534a4.901 4.901 0 0 0-.206 1.984l-.201-.183-.193-.733-.29-1.706.331-.256 1.022.083zm6.474 0c.83.305 1.134.241.912-.185a5.796 5.796 0 0 0-.944-.093l.032.278zm-1.51-1.172c.263.11.554.14.837.093l.202.182c.686.19 1.358.427 2.008.712.214.235.246.481.088.718.323.083.625.239.88.453l.802.46.217.256c.242.24.51.453.799.634.286.192.537.434.735.714.337.093.64.28.871.538-.213.664-.485 1.169-.804 1.531l-.19.095-.979.89-1.363.732-.274.08a4.804 4.804 0 0 1-1.387.72 7.2 7.2 0 0 0-1.479.627 7.601 7.601 0 0 1-1.756.46l-.06-1.17-.413-4.86.083-.173-.219-2.426a5.152 5.152 0 0 1 2.726-.177 3.633 3.633 0 0 0-1.998-.636c-.183-.066-.256-.155-.215-.279a1.96 1.96 0 0 0 .888-.174zm-5.28 2.064c-.168-.055-.203-.134-.113-.244l.114.244zm-.53-1.709c-.46.183-.685.036-.68-.438l.68.438zm9.96-.893c3.563 1.199 5.072 2.818 4.526 4.86l-.194-.1c-1.068-1.26-2.242-2.154-3.537-2.703-1.059-.777-2.034-1.285-2.926-1.52.854-.057 1.564-.234 2.132-.537zm-10.253-.81c.388.27.817.482 1.27.628l-.148.26c-.64-.172-1.144-.078-1.52.276-.106-.354.009-.589.358-.712l.042-.452H2.77zm8.986-.639a10.99 10.99 0 0 1 4.372 1.449l-.347.077-.208-.178-1.504-.257-.191-.102-2.084-.707-.037-.28-.001-.002zm-1.564.102l1.444.537a4.619 4.619 0 0 1-1.521.275H9.57a5.431 5.431 0 0 1-1.005.075 6.265 6.265 0 0 1-1.63 0l-.136.36c-.99-.595-.892-1.01.29-1.245h1.557c.455.004.909-.057 1.344-.184l.203.182zm51.15 26.204c.28.096.57.155.867.177l-.042.457.62.474c.64.613 1.059.975 1.266 1.09h-.286l-.805-.45-.2-.182-1.852-1.286.432-.28zm2.61-.936c.906.252 1.727.317 2.463.197l1.28.563c1.137.17 2.07.44 2.8.81l-.17.096-.293-.096c-.458-.09-.91-.209-1.352-.356a3.297 3.297 0 0 1-1.426-.278 4.537 4.537 0 0 1-3.303-.936zm-9.067-14.442c1.72 5.397 4.593 9.757 8.62 13.08-.25.049-.505.049-.755 0-.933 0-1.602-.065-1.993-.18l-.194-.102-.621-.455-1.383-1.385c-2.382-3.675-3.607-7.328-3.675-10.957h.002zm-1.205-2.293c.073.182.091.307.042.373l-.12.636-.27 1.561c.023.19 0 .306-.06.362l.135 1.108-.04.38-.005.733c.107.762.14 1.535.094 2.302-1.366-3.07-1.291-5.554.225-7.457l-.001.002zm-.689-1.015l-.178.18-.297.558-.162.176-.317.556-.115-.176c.378-.496.643-.918.784-1.293l.487-.66-.202.659zm7.374-4.779c.097.305-.431.546-1.594.73a4.335 4.335 0 0 1 1.594-.73zm1.124-1.489a2.986 2.986 0 0 1 1.415 0l-.357.277a4.54 4.54 0 0 0-1.71.482c-1.162.169-2.088.534-2.774 1.087l-.478-.082-1.855 1.018-.045-.377c1.37-1.601 3.054-2.434 5.05-2.48l.754.075zm13.934-.076c-.502.422-.717.385-.653-.1l.653.1zm-9.092-1.746c.192 0 .309-.032.352-.102.72.118 1.45.152 2.177.102.337.108.692.169 1.048.178.223.014.445.047.661.1l.669.083 2.107.373c-.713.304-1.392.398-2.028.277-1.27.356-2.439.261-3.497-.277a6.992 6.992 0 0 0-1.688-.01 2.636 2.636 0 0 0-1.082.365l-1.846.197c-4.303-.553-7.19.825-8.658 4.13a6.97 6.97 0 0 0-1.018.929 6.57 6.57 0 0 0-1.172 1.189 2.182 2.182 0 0 1 .014-.727c2.671-4.729 6.604-7.031 11.794-6.91l2.165.103h.002zm-.457-.658c-8.029-.304-12.859 2.86-14.49 9.488-1.255 2.943-1.454 5.89-.602 8.82l.66.4-.505.155c.756 2.16 1.987 3.82 3.691 4.983.276.737 1.053 1.412 2.325 2.016.242 0 .38-.121.416-.37-.422-.357-.843-.509-1.29-.46a3.66 3.66 0 0 0-1.11-1.563c-.886-.612-.778-.76.321-.455l.07-.1c-2.318-2.14-3.725-4.467-4.217-6.983l.337.453c.099.426.277.83.526 1.192.644 1.18 1.311 2.071 2.005 2.674l.117.183c.433.974.9 1.776 1.401 2.396l-.183.64a.98.98 0 0 0 .772.196l.202.18 1.528 1.742a.78.78 0 0 0-.295.737l1.582.553.318.28c2.73 2.58 5.655 4.358 8.776 5.334l.205-.634-.205-.199c-.26-.055-.596-.236-1.016-.553a3.607 3.607 0 0 1-1.105-.64c-.206-.113-.512-.363-.914-.728l-.534-.38-1.558-1.37c.13-.013.261.016.373.082h.284c.272.101.537.225.787.373l1.279.361c.469.056.929.184 1.36.38l1.194-.1.178-.083c.878.052 1.59.018 2.143-.097l.08-.183-.066-.553c.182-.305.267-.657.244-1.01a4.43 4.43 0 0 1-2.022-.46c1.294-.127 2.081-.564 2.37-1.285a4.261 4.261 0 0 0-1.347-.277l-4.278.174a3.748 3.748 0 0 0-1.048-.174c-4.773-3.747-7.836-8.136-9.19-13.17a5.826 5.826 0 0 1-.052-1.092c1.702-3.439 4.287-5.647 7.73-6.627l.374.08h2.72c.444-.003.886.03 1.326.097a5.855 5.855 0 0 1 1.517.181l.166-.1c.462.177.952.272 1.448.28l.295.1c.4.117.815.177 1.232.178.858.145 1.7.363 2.519.655l.27-.105c.348.18.744.243 1.13.184.507-.492.435-.918-.234-1.293a.437.437 0 0 0 .07.559l-.258.2h-.47l-.403-.2h-.468l-1.07-.363h-.564l-1.53-.276a3.785 3.785 0 0 0-1.318-.097l-.477-.08-.59-.195-2.563-.184.644-.174.292.08h2.805c.9.041 1.794.166 2.67.37.197-.215.359-.461.477-.728a9.233 9.233 0 0 1 2.62 0c1.155-.253 1.907-.713 2.248-1.39l-.312-.278-.368-.078a8.262 8.262 0 0 0-1.532-.277l-.395-.097-.378-.1h-.38c-2.026-.677-3.833-.95-5.448-.815l-1.06-.278-2.252-.102zm-58.591.514c-1.514.597-2.985.802-4.404.615l.039-.36c-.499.36-.98.395-1.44.103-.254.474-.743.685-1.479.636.23.476.689.741 1.37.793l-.042.354.079.633c-.014.756.018 1.511.097 2.263l.042.36-.028.616.122.986-.05.278.296 2.424a3.07 3.07 0 0 0 .069 1.346c-.028.363-.035.805-.025 1.349l-.008 2.262-.007.615.218 1.811-.028.531c-.038.602-.028 1.204.031 1.804l-.018.458.064.534-.06.355c.023.248.087.488.191.715a2.534 2.534 0 0 0-.022 1.347c-.014.484.014.968.083 1.449-.009.394.038.788.14 1.17l-.038.36.047 1.245.196 1.626c.215 2.277.592 3.112 1.136 2.519.171-.062.208-.242.12-.537.22-.723.26-1.388.122-1.982l.303-.454c.083.664.169 1.112.268 1.347l-.082.184.423 2.613h.262c.191-.278.338-.584.436-.906l-.091-.719.081-.988c.087-.446.12-.901.096-1.355l.182-1.522.016-.715.101-.634c.194.115.278.388.284.815L6.844 46c.014.699.126 1.393.332 2.062.27-.304.45-.678.515-1.076a.717.717 0 0 0 .436.615c.028-.486.125-.967.29-1.426l-.034-.277-.016-.991-.032-.256.044-1.809-.038-1.17-.047-.986c-.107-.415-.108-.949-.01-1.614l-.104-.177a6.005 6.005 0 0 0 .065-1.626l.037-.531c-.027-.512 0-1.023.075-1.53l-.123-.362c.133-.376.145-.782.034-1.164.059-.48.061-.968.01-1.449l.438-.184 1.33-.35c6.101.06 9.695-2.487 10.78-7.637l-.526-2.797c-2.94-4.19-6.635-5.987-11.087-5.395l-1.93-.08v.002zm18.743 30.558c-1.806-5.369-1.92-19.058-1.667-26.363.056-1.648.134-2.973.214-3.802.195-2.037.487-2.471.839-.866.049.228.092.76.129 1.634l.538 13.84c.066 1.666.467 6.389.801 10.115l.02-.413c-.426-3.736-.214-7.982-.011-11.918.075-1.534.151-3.02.184-4.421-.219-1.8-.333-3.61-.343-5.423 0-1.236.144-1.721.37-1.721v-.002a.151.151 0 0 1 .113.075c.019-.163.04-.324.062-.487.031-.203.136-.29.35-.262.077.01.145.116.197.294a.046.046 0 0 1 .048.008.044.044 0 0 1 .012.047l-.018.105c.104.43.169 1.122.242 1.884.104 1.078.22 2.322.317 3.081h-.003l.003.014h.002c.403 3.266.455 6.684.4 10.109.111.708.21 1.406.31 2.111l.027-.327c.121-1.401.246-2.8.349-4.208-.143-2.816-.256-5.636-.256-8.453v-.014c0-.932.15-3.118.295-4.268.024-.234.064-.465.117-.695.278-.958.516-1.042.686.078.049.553.067 1.11.056 1.666v4.991c0 2.255-.12 4.49-.284 6.712l.065 1.236c.181-1.178.358-2.358.517-3.536.035-1.902.173-5.84.302-8.102.037-.675.073-1.206.107-1.49.02-.195.043-.378.067-.545.005-.194.034-.387.087-.575.203-1.187.387-.952.536 1.113.025.374.045 1.24.045 2.776 0 2.222-.225 4.535-.531 6.866-.007.284-.01.519-.01.694 0 2.374-.419 4.699-.883 7.02l.073 1.406c.78-1.352 1.518-2.793 2.247-4.217 1.129-2.201 2.238-4.365 3.479-6.147.12-.412.24-.855.36-1.305.58-2.137 1.23-4.535 2.682-5.83 1.435-1.284 2.252-1.826 2.614-1.847.004-.207.046-.413.125-.605.197-.374.436-.363.7-.06v-.003c.126.172.229.36.3.562.175.454.318.92.428 1.393.171-.224.313-.406.41-.52l.002-.004c.049-.06.094-.109.137-.163.127-.304.277-.415.392-.406.246-.219.362-.2.318.092a.706.706 0 0 1 .395-.171c.177-.462.346-.729.483-.729.222 0 .381.263.463.867.242-.1.376-.073.421.043h.172l-.003 1.132c.087.157.173.324.252.5.61 1.352.85 3.152-.17 4.062-.057.055-.111.102-.17.156-.111 3.999-.332 7.965-.59 11.924a320.138 320.138 0 0 1-.221 6.543c-.08 1.774-.19 2.765-.308 3.183-.032.136-.09.264-.169.38l-.066.951a.697.697 0 0 1-.03.188c-.245.689-.425.741-.549.28-.074-.046-.112-.154-.064-.346a4.056 4.056 0 0 1-.03-.197c-.021-.163-.04-.414-.063-.705-.069-.916-.125-1.832-.169-2.75a37.65 37.65 0 0 1-.045-.87l-.001-.031v-.011a22.813 22.813 0 0 1-.018-.567h-.003c0-.519-.007-1.043-.016-1.563-.233 2.083-.599 4.636-.978 6.35-.163.734-.326 1.328-.497 1.678-.318.673-.655.8-.991.166-.08-.176-.14-.36-.18-.549a.437.437 0 0 1-.111.167c-.004.63-.077 1.01-.174 1.165-.12.709-.228.654-.333-.317-.068-.312-.1-.63-.095-.949a.91.91 0 0 1-.095-.18h.003a4.29 4.29 0 0 1-.206-.69c-.282-1.235-.53-3.43-.47-4.021.136-1.29.326-2.605.548-3.923l-.098-2.048c-.085-1.808-.172-3.614-.225-5.425-.326.486-.647.977-.97 1.465-2.582 3.92-5.18 7.86-8.573 10.553.012.66.017 1.323.016 1.984 0 .913-.155 1.591-.408 1.972a.87.87 0 0 1-.555.406.868.868 0 0 1-.676-.175c-.36-.263-.752-.84-1.116-1.773h.003l-.003-.006a15.304 15.304 0 0 1-.623-2.046c-.03.862-.044 1.724-.043 2.586v.04l-.01.037c-.196.77-.378.867-.518.308-.11.064-.177-.034-.087-.414l.003-.052c-.026-.179-.049-.359-.068-.539-.038-.422-.095-1.023-.16-1.75-.343-3.72-.953-10.65-1.036-12.748l-.462-11.82c-.014.317-.025.66-.04 1.013-.25 7.26-.137 20.86 1.64 26.154l-.581.188z"/>
</svg>
