<svg xmlns="http://www.w3.org/2000/svg" width="75" height="33" fill="none" viewBox="0 0 75 33">
  <path fill="#151515" d="M52.594 2.922v1.203h10.312c.688 0 1.719 0 2.407.687C66 5.5 66 6.532 66 7.22V17.53c0 .688 0 1.719-.688 2.407-.687.687-1.718.687-2.406.687h-4.984c-.86 0-1.977 0-2.406-.945-.43-.946.171-1.805.687-2.492l6.703-8.938H52.594l-4.125 5.5c-.691.921-1.29 1.719-1.29 2.75s.557 1.774 1.29 2.75l1.031 1.375c1.031 1.375 2.062 2.75 3.438 3.438 1.374.687 3.007.687 5.242.687h4.468c2.579 0 6.446 0 9.024-2.578 2.578-2.578 2.578-6.36 2.578-7.735v-4.124c0-1.375 0-5.157-2.578-7.735C69.094 0 65.227.003 62.649.002L55.515 0c-.688 0-1.547 0-2.235.688-.687.687-.687 1.547-.687 2.234z"/>
  <path fill="#151515" d="M40.219 8.25H50.53l-12.375 16.5H27.844l12.375-16.5zM0 11.172c0-.688 0-1.547.687-2.235.688-.687 1.547-.687 2.235-.687h17.273c2.235 0 3.868 0 5.242.687 1.375.688 2.407 2.063 3.438 3.438l1.031 1.375c.732.976 1.29 1.719 1.29 2.75 0 1.03-.599 1.828-1.29 2.75l-4.125 5.5H15.47l6.703-8.938c.515-.687 1.117-1.547.687-2.492-.43-.945-1.547-.945-2.406-.945h-8.078V33h-8.25V12.375H0v-1.203z"/>
</svg>
