<svg xmlns="http://www.w3.org/2000/svg" width="134" height="36" fill="none" viewBox="0 0 134 36">
  <path fill="#222631" d="M40.014 6.072c2.234-.19 4.177 1.423 4.274 3.605v.474c0 2.467-1.65 3.89-4.274 3.89H34.77v3.984h-2.234V6.072h7.478zm.097 5.882c.972.095 1.846-.664 1.943-1.613v-.285a1.926 1.926 0 0 0-1.748-2.087h-5.633v3.985h5.438zm12.53 6.262c-3.886 0-7.09-2.562-7.09-6.262 0-3.7 3.204-6.262 7.09-6.262 3.884 0 7.09 2.562 7.09 6.262 0 3.7-3.206 6.26-7.09 6.26v.002zm0-10.531c-2.429-.19-4.565 1.612-4.76 3.984v.285c0 2.466 1.846 4.269 4.76 4.269 2.913 0 4.758-1.803 4.758-4.27 0-2.466-1.845-4.27-4.759-4.27"/>
  <path fill="#222631" fill-rule="evenodd" d="M69.053 18.216c-4.078 0-7.09-2.562-7.09-6.262 0-3.7 3.109-6.262 7.09-6.262 2.04-.095 3.983.57 5.634 1.803l-1.165 1.707c-1.263-.948-2.817-1.518-4.37-1.518-3.012 0-4.857 1.803-4.857 4.175s1.845 4.27 4.856 4.27c1.65 0 3.205-.475 4.468-1.424l1.165 1.708a9.97 9.97 0 0 1-5.73 1.802" clip-rule="evenodd"/>
  <path fill="#222631" d="M94.209 14.99l-1.36 2.846H90.42l5.924-11.86h2.33l5.926 11.86h-2.428l-1.36-2.846h-6.604zm.97-1.898h4.663L97.51 8.254l-2.331 4.838h-.001z"/>
  <path fill="#222631" fill-rule="evenodd" d="M116.45 17.93v-5.122h-7.964v5.123h-2.234V6.07h2.234v4.839h7.964V6.072h2.233V17.93h-2.233zm5.633 0V6.073h2.234v5.502l6.118-5.502h2.72l-6.216 5.692 6.507 6.167h-3.011l-6.118-5.788v5.788h-2.234z" clip-rule="evenodd"/>
  <path fill="#222631" d="M84.788 10.341h-5.245V7.874h8.644V5.977H77.212v11.86h7.479c2.622 0 4.467-1.424 4.467-3.796s-1.65-3.7-4.37-3.7zm.194 5.502h-5.44v-3.51h5.44c1.36 0 2.234.76 2.234 1.803s-.68 1.802-2.234 1.707z"/>
  <path fill="#222631" fill-rule="evenodd" d="M74.881 33.016v.094a2.54 2.54 0 0 1-.582 1.613c-.389.38-.972.664-1.554.664-1.263 0-2.234-1.044-2.234-2.182 0-.57.291-1.138.68-1.613.388-.38.97-.57 1.554-.57.777 0 1.456.38 1.845.95l-.583.38c-.29-.38-.777-.57-1.262-.57-.389 0-.777.095-1.069.38-.29.284-.485.663-.388 1.043 0 .38.097.759.388 1.044.292.284.68.38 1.07.38.581 0 1.164-.38 1.36-.95H72.55v-.759l2.331.095v.001z" clip-rule="evenodd"/>
  <path fill="#222631" d="M79.835 35.292h-.777l-.875-1.518h-1.65v1.518h-.68v-4.08h2.719c.291 0 .68.096.874.38.194.285.291.57.291.949a1.074 1.074 0 0 1-.874 1.233l.972 1.518zm-1.36-2.182c.291 0 .583-.19.583-.38v-.19c0-.379-.195-.568-.583-.568h-1.943v1.138h1.943zm6.507.095c0 1.233-.971 2.182-2.234 2.182-1.262 0-2.234-.949-2.234-2.182 0-.57.292-1.138.68-1.613.389-.38.971-.57 1.554-.57.583 0 1.069.19 1.457.57.486.475.777 1.044.777 1.613zm-.777 0c0-.38-.097-.759-.388-1.044-.292-.284-.68-.38-1.069-.38-.388 0-.777.096-1.068.38-.292.285-.486.664-.389 1.044 0 .38.097.759.389 1.044.68.569 1.554.569 2.234 0 .194-.285.388-.665.291-1.044z"/>
  <path fill="#222631" fill-rule="evenodd" d="M89.741 33.964c0 .38-.194.759-.486 1.044a2.536 2.536 0 0 1-2.816 0c-.292-.285-.583-.665-.583-1.044v-2.751h.68v2.56c0 .57.388.95 1.263.95.874 0 1.262-.285 1.262-.95v-2.56h.68v2.75z" clip-rule="evenodd"/>
  <path fill="#222631" d="M93.53 31.213c.29 0 .68.095.873.38.194.284.291.568.291.948s-.097.664-.29.949c-.293.284-.584.38-.972.38H91.49v1.517h-.68v-4.08h2.72v-.094zm-.098 1.897c.388 0 .582-.19.582-.57 0-.38-.194-.568-.68-.568h-1.942v1.138h2.04z"/>
  <path fill="#222631" fill-rule="evenodd" d="M3.593 32.161c-.388-.284-.874-.38-1.456-.38-.777 0-1.069.19-1.069.475s.097.285.389.38l1.165.095c.389 0 .777.19 1.166.38.291.19.388.568.388.853 0 .38-.194.76-.485 1.044-.389.284-.874.38-1.36.38-.777 0-1.457-.19-2.04-.76l.389-.57c.485.38 1.068.57 1.748.57.291 0 .583 0 .874-.19a.52.52 0 0 0 .292-.474c0-.19-.195-.38-.389-.474-.194-.095-.388-.095-.68-.095l-.874-.095c-.291 0-.68-.095-.874-.285-.194-.19-.291-.474-.291-.759 0-.38.194-.759.485-.948.389-.285.874-.38 1.36-.38.68 0 1.36.19 1.845.57l-.582.663h-.001z" clip-rule="evenodd"/>
  <path fill="#222631" d="M9.227 33.205c.097 1.138-.875 2.087-2.04 2.182h-.194c-1.263 0-2.234-1.044-2.234-2.182 0-.57.29-1.138.68-1.613a2.275 2.275 0 0 1 3.01 0c.486.475.778 1.044.778 1.613zm-.68 0c0-.38-.097-.76-.39-1.044-.29-.284-.68-.38-1.067-.38-.39 0-.777.096-1.068.38-.292.285-.486.664-.39 1.044 0 .38.098.759.39 1.044.68.569 1.554.569 2.233 0 .097-.285.292-.665.292-1.044z"/>
  <path fill="#222631" fill-rule="evenodd" d="M14.18 32.161l-.583.285c-.29-.38-.874-.664-1.36-.664-.388 0-.874.095-1.165.38a1.463 1.463 0 0 0 0 2.087c.291.284.777.474 1.165.38.583 0 1.07-.286 1.36-.665l.583.38c-.389.664-1.166 1.043-1.943 1.043-.582 0-1.165-.19-1.65-.57-.39-.379-.68-.948-.583-1.612 0-.57.194-1.233.68-1.613.388-.38.97-.57 1.456-.57.874 0 1.651.475 2.04 1.14v-.001zm.971-.948h1v4.079h-1v-4.079zm5.342 4.079H16.9v-4.079h3.497v.664H17.58v.948h1.943v.665H17.58v1.043h2.914v.759zm4.273-3.415h-1.554v3.415h-.68v-3.415h-1.554v-.664h3.788v.664zm4.371 3.415h-3.594v-4.079h3.497v.664h-2.817v.948h1.942v.665h-1.942v1.043h2.914v.759zm6.701-2.276v.094a2.54 2.54 0 0 1-.583 1.613c-.388.38-.97.664-1.554.664-1.262 0-2.233-1.044-2.233-2.182 0-.57.291-1.138.68-1.613.388-.38.97-.57 1.553-.57.777 0 1.457.38 1.846.95l-.583.38c-.29-.38-.777-.57-1.263-.57-.388 0-.777.095-1.068.38a1.463 1.463 0 0 0 0 2.087c.291.284.68.38 1.068.38.68 0 1.166-.38 1.36-.95h-1.554v-.759l2.331.095v.001zm4.565 2.276h-3.69v-4.079h3.496v.664h-2.817v.948h1.943v.665h-1.943v1.043h3.011v.759zm4.76 0h-.972l-2.33-3.415v3.415h-.68v-4.079h.97l2.331 3.415v-3.415h.68v4.079zm4.758 0h-3.69v-4.079h3.496v.664H46.91v.948h1.942v.665H46.91v1.043h3.011v.759z" clip-rule="evenodd"/>
  <path fill="#222631" d="M54.68 35.292h-.777l-.874-1.518h-1.65v1.518h-.68v-4.08h2.72c.29 0 .68.096.872.38.195.285.292.57.292.949a1.074 1.074 0 0 1-.874 1.233l.97 1.518h.001zm-1.36-2.182c.39 0 .583-.19.583-.57 0-.38-.194-.568-.68-.568h-1.942v1.138h2.04zm6.216 2.182h-.68l-.388-.854h-2.235l-.389.854h-.68l1.846-4.08h.777l1.748 4.08h.001zm-1.36-1.613l-.777-1.802-.777 1.802h1.554z"/>
  <path fill="#222631" fill-rule="evenodd" d="M63.421 35.292h-3.205v-4.079h.68v3.32h2.525v.759zm4.37 0h-3.593v-4.079h3.496v.664h-2.816v.948h1.942v.665h-1.942v1.043h2.913v.759zM0 0h24.378v24H0V0zm4.176 11.195v1.423h15.831v-1.423H4.176z" clip-rule="evenodd"/>
</svg>
