<svg xmlns="http://www.w3.org/2000/svg" width="103" height="45" fill="none" viewBox="0 0 103 45">
  <path fill="#151515" fill-rule="evenodd" d="M22.931 27.79c-1.01 0-2.122-.2-3.031-.698-.91-.5-1.618-1.2-2.022-2a6.308 6.308 0 0 1 0-5.996c.505-.9 1.212-1.6 2.02-1.999.911-.5 1.923-.8 3.033-.7 1.72 0 3.336.7 4.447 1.998 0 0 .102.1.202.1.102 0 .102 0 .204-.1l2.324-2.198c.101-.1.101-.2 0-.3-.91-1.1-1.92-1.898-3.032-2.298a10.446 10.446 0 0 0-4.245-.9c-1.72 0-3.539.4-5.055 1.2-1.415.799-2.729 1.898-3.537 3.298-.91 1.5-1.314 3.098-1.314 4.797 0 1.7.404 3.298 1.314 4.797a8.6 8.6 0 0 0 3.539 3.3c1.514.799 3.334 1.197 5.053 1.197a11.864 11.864 0 0 0 4.245-.798 7.442 7.442 0 0 0 2.73-1.899c.1-.1.1-.2 0-.3l-2.124-2.399c0-.1-.102-.1-.202-.1-.102 0-.102 0-.202.1-1.011 1.198-2.627 1.9-4.347 1.9v-.002z" clip-rule="evenodd"/>
  <path fill="#151515" d="M49.413 28.691c-1.82 1.4-4.043 2.099-6.367 2.099v3.496c0 .102-.101.201-.203.201h-2.93c-.1 0-.202-.099-.202-.2V30.79c-2.324 0-4.447-.8-6.367-2.099-1.517-1.3-2.325-3.198-2.223-5.099-.102-1.897.706-3.796 2.223-4.996 1.82-1.3 4.043-2 6.367-2.1V12.7c0-.1.102-.2.202-.2h2.931c.102 0 .202.1.202.2v3.798c2.225 0 4.449.8 6.267 2.1 1.415 1.197 2.225 3.098 2.123 4.997.304 1.898-.505 3.797-2.021 5.097h-.002zm-13.24-2.299c1.01.799 2.223 1.199 3.538 1.299v-7.996c-1.213 0-2.527.5-3.539 1.198a3.84 3.84 0 0 0-1.111 2.7c0 1 .404 2.099 1.111 2.8zm10.511 0a4.327 4.327 0 0 0 1.112-2.897c.102-1-.303-2.001-1.112-2.7-1.01-.7-2.223-1.1-3.537-1.199v7.995c1.314 0 2.527-.4 3.538-1.199zm21.428-1.599H57.5c.202.8.605 1.6 1.313 2.098.808.5 1.718.8 2.628.8a7.074 7.074 0 0 0 2.021-.3c.506-.2.91-.5 1.314-.9 0 0 .102-.099.204-.099.1 0 .1 0 .202.1l1.82 1.999c.1.1.1.2 0 .3a7.343 7.343 0 0 1-5.56 2.099c-1.415 0-2.932-.3-4.145-.9-1.212-.6-2.123-1.5-2.83-2.599-.707-1.1-1.01-2.399-1.01-3.797 0-1.3.303-2.599 1.01-3.7a6.212 6.212 0 0 1 2.73-2.598 8.23 8.23 0 0 1 7.479 0c1.112.6 2.02 1.4 2.627 2.5.708 1.198 1.012 2.498 1.012 3.898-.102 0-.202.4-.202 1.1h-.001zm-9.5-4.597c-.607.599-1.012 1.298-1.113 2.198h6.975c-.102-.8-.506-1.6-1.112-2.1a3.63 3.63 0 0 0-2.325-.798 3.338 3.338 0 0 0-2.426.7zm23.448-2.8c1.012.6 1.921 1.4 2.528 2.499.606 1.1.91 2.399.91 3.699a8.415 8.415 0 0 1-.91 3.797 7.507 7.507 0 0 1-2.528 2.498 7.44 7.44 0 0 1-3.537.9 5.262 5.262 0 0 1-4.245-1.7v5.197c0 .102-.1.201-.202.201h-3.437c-.1 0-.202-.099-.202-.2V16.896c0-.099.102-.2.202-.2h3.235c.1 0 .202.101.202.2v1.4c1.112-1.2 2.73-1.899 4.347-1.8 1.414 0 2.627.301 3.637.9v.002zm-1.616 8.996c.706-.8 1.01-1.8 1.01-2.8.102-.999-.303-1.998-1.01-2.797a3.69 3.69 0 0 0-5.155 0c-.707.8-1.011 1.798-1.011 2.799-.1.998.303 1.999 1.011 2.798a3.689 3.689 0 0 0 5.155 0zm22.034-9.495V30.19c0 .1-.101.2-.202.2h-3.234c-.102 0-.204-.1-.204-.2v-1.4c-1.111 1.2-2.727 1.9-4.346 1.8-1.212 0-2.526-.3-3.536-.9-1.012-.599-1.921-1.399-2.528-2.5a8.109 8.109 0 0 1-.91-3.797c0-1.299.305-2.598.91-3.698a6.057 6.057 0 0 1 2.528-2.498 7.44 7.44 0 0 1 3.537-.9c1.616-.1 3.133.5 4.144 1.7v-1.3c0-.1.101-.2.201-.2h3.337c.202.2.303.3.303.4zm-4.852 9.495c.708-.8 1.01-1.8 1.01-2.8.102-.999-.302-1.998-1.01-2.797-.707-.7-1.616-1.1-2.527-1-1.01 0-1.92.3-2.527 1-.706.8-1.01 1.798-1.01 2.799-.102.998.304 1.999 1.01 2.798.708.7 1.617 1 2.527 1 .91 0 1.921-.3 2.527-1z"/>
  <path fill="#151515" fill-rule="evenodd" d="M34.252 11.899l-2.021 1.899s-.102.1-.202.1c-.102 0-.102 0-.204-.1C27.986 9.4 21.516 8.2 16.262 10.9c-5.257 2.699-7.884 8.596-6.469 14.293 1.516 5.596 6.67 9.494 12.533 9.494.1 0 .202 0 .202.1 0 .7-.101 2.798-.101 2.798 0 .1-.1.201-.202.201-6.873.1-13.038-4.298-15.161-10.795A15.512 15.512 0 0 1 9.286 12.8c3.033-4.097 7.783-6.597 12.938-6.597 4.548 0 8.895 1.9 11.927 5.397.202.1.202.3.101.3z" clip-rule="evenodd"/>
  <path fill="#151515" fill-rule="evenodd" d="M21.718 44.082c-9.701-.298-18.091-6.696-20.82-15.89-2.728-9.196.91-19.09 8.895-24.488 3.64-2.5 8.086-3.798 12.534-3.699.1 0 .201.1.201.2v2.8c0 .099-.101.099-.101.099a18.39 18.39 0 0 0-10.714 3.098C4.74 10.8 1.605 19.295 4.033 27.292c2.424 7.996 9.702 13.392 18.092 13.492h.201c3.285 0 6.517-.825 9.4-2.399.1-.1.304 0 .304.1l1.414 2.3v.199c0 .1-.1.1-.1.2-3.335 1.899-7.076 2.799-10.917 2.799l-.706.099h-.003z" clip-rule="evenodd"/>
</svg>
