<svg width="134" height="20" viewBox="0 0 134 20" fill="none" xmlns="http://www.w3.org/2000/svg">
<path d="M17.8741 1.54181V19.9973H16.1424V1.54181H17.8754H17.8741ZM24.4113 18.3644H31.0514L30.5548 19.9891H22.6768V1.54181H24.4099V18.3644H24.4113ZM36.3591 12.0829L33.9152 19.9891H32.1071L37.8125 1.54181H41.4845L47.1858 19.9891H45.3776L42.9338 12.0829H36.3591ZM39.12 3.15704L36.8528 10.4908H42.44L40.1729 3.15704H39.12ZM91.1395 3.14072V11.9293H98.5474L98.0494 13.5282H91.1381V18.3984H99.8312L99.8256 19.9986H89.405V1.54181H99.8312L99.3332 3.14072H91.1381H91.1395ZM79.4003 18.2366L84.5605 1.54045H86.3687L80.666 19.9878L78.1332 19.9891L72.4305 1.54181H74.2387L79.3989 18.2379L79.4003 18.2366ZM8.22125 8.39565C9.24259 8.66281 10.1717 9.19345 10.9112 9.93202C12.0239 11.0473 12.6467 12.5434 12.6467 14.1013C12.6467 15.6591 12.0239 17.1553 10.9112 18.2706C9.04466 20.1292 7.20868 19.9973 4.75514 19.9973H0.825859V18.3277H5.39773C7.0668 18.3277 8.40902 18.3222 9.68447 17.0523C10.4718 16.2634 10.9125 15.2048 10.9125 14.1027C10.9125 13.0005 10.4718 11.9419 9.68447 11.153C9.00118 10.4693 8.09279 10.0437 7.11966 9.95105V13.3365H6.57443C5.6008 13.3365 4.77739 13.308 3.85523 12.9653C3.05673 12.6679 2.33358 12.205 1.7355 11.6084C0.622795 10.4932 0 8.997 0 7.43916C0 5.88131 0.622795 4.38515 1.7355 3.26988C2.37193 2.63482 3.14968 2.15187 4.00823 1.8586C4.83442 1.57716 5.68843 1.54317 6.55356 1.54317H11.0517V3.21142H7.86101C6.36162 3.21142 4.90257 3.09993 3.59791 3.97009C3.36841 4.12237 3.15561 4.2964 2.96227 4.48946C2.17496 5.27845 1.73428 6.33698 1.73428 7.43916C1.73428 8.54134 2.17496 9.59986 2.96227 10.3889C3.61182 11.0387 4.46444 11.4562 5.38799 11.5758L5.3866 8.20666H6.09457C6.83453 8.20666 7.49937 8.21074 8.22125 8.39701V8.39565ZM131.649 0C132.96 0.0135962 134.012 1.0605 134 2.33854C134 2.95581 133.755 3.54861 133.314 3.99048L132.448 3.12712C132.657 2.91638 132.774 2.63381 132.773 2.3399C132.773 2.04818 132.655 1.76841 132.444 1.56214C132.233 1.35586 131.946 1.23997 131.648 1.23997C131.349 1.23997 131.063 1.35586 130.852 1.56214C130.641 1.76841 130.523 2.04818 130.523 2.3399C130.523 2.63358 130.639 2.91638 130.85 3.12848L129.983 3.99048C129.542 3.54946 129.296 2.9567 129.297 2.3399C129.292 1.72496 129.536 1.13302 129.977 0.694241C130.418 0.255458 131.019 0.00574359 131.648 0H131.649ZM117.646 12.0829L115.202 19.9891H113.394L119.098 1.54181H122.77L128.472 19.9891H126.664L124.219 12.0829H117.646ZM120.407 3.15704L118.138 10.4908H123.728L121.46 3.15704H120.407ZM66.7974 8.39565C67.8188 8.66268 68.7479 9.19334 69.4874 9.93202C70.6001 11.0473 71.2229 12.5434 71.2229 14.1013C71.2229 15.6591 70.6001 17.1553 69.4874 18.2706C67.6208 20.1292 65.7862 19.9973 63.3313 19.9973H59.402V18.3277H63.9753C65.6443 18.3277 66.9866 18.3222 68.262 17.0523C69.0493 16.2634 69.49 15.2048 69.49 14.1027C69.49 13.0005 69.0493 11.9419 68.262 11.153C67.5787 10.4694 66.6703 10.0438 65.6972 9.95105V13.3365H65.152C64.1783 13.3365 63.3549 13.308 62.4328 12.9653C61.6343 12.6679 60.9112 12.205 60.313 11.6084C59.2003 10.4932 58.5775 8.997 58.5775 7.43916C58.5775 5.88131 59.2003 4.38515 60.313 3.26988C60.9495 2.63482 61.7272 2.15187 62.5858 1.8586C63.412 1.57716 64.266 1.54317 65.1311 1.54317H69.6293V3.21142H66.4372C64.9378 3.21142 63.4787 3.09993 62.1741 3.97009C61.9446 4.12237 61.7318 4.2964 61.5384 4.48946C60.7514 5.27862 60.311 6.33708 60.311 7.43916C60.311 8.54123 60.7514 9.5997 61.5384 10.3889C62.1882 11.0388 63.0424 11.4568 63.9641 11.5758L63.9628 8.20666H64.6707C65.4107 8.20666 66.0755 8.21074 66.7974 8.39701V8.39565ZM108.143 3.14752V20H106.41V3.14752H101.578V1.54181H112.975V3.14752H108.143Z" fill="#151515"/>
</svg>
