<svg xmlns="http://www.w3.org/2000/svg" width="77" height="30" fill="none" viewBox="0 0 77 30">
  <path fill="#222631" d="M57.37 29.31l-.005-6.016 19.397-.593v6.61H57.37zM68.106 21.93l-9.56.317s6.66-6.13 9.165-9.123c1.626-1.94 2.313-4.035 1.646-5.432-.423-.885-1.37-1.323-2.54-1.257V.117c2.887-.418 5.527.288 7.332 2.013 1.644 1.575 2.476 3.81 2.277 6.126-.376 4.38-2.474 7.89-8.32 13.673v.001z"/>
  <path fill="#222631" d="M63.626 11.987l-6.008.54C57.298 5.675 60.066 1.477 65.7.26l.003 6.433c-1.18.506-2.35 1.424-2.077 5.294zM47.222 23.608l8.3-.253v5.956h-8.3v-5.703zM47.222 3.593l8.3-1.184v5.95l-8.3.925v-5.69zM40.458 4.553l5.7-.81V29.31h-5.7V4.554zM31.76 24.08l7.187-.22v5.45H31.76v-5.23zM25.885 6.633l4.952-.702v23.38h-4.952V6.633zM17.948 24.503l6.275-.192v5h-6.275v-4.808zM17.948 7.766l6.275-.893v4.98l-6.275.7V7.766zM12.79 8.5l4.344-.617V29.31H12.79V8.5zM0 10.32l11.266-1.603v4.58L0 14.554V10.32zM7.72 29.31H3.595v-14.5l4.127-.426V29.31H7.72zM22.07 20.765l-4.123.225v-4.872l4.122-.36v5.007zM52.665 19.067l-5.443.3v-5.8l5.443-.47v5.97z"/>
</svg>
