<svg xmlns="http://www.w3.org/2000/svg" width="136" height="15" fill="none" viewBox="0 0 136 15">
  <path fill="#151515" d="M105.407 13.186c.149-.074.259-.255.367-1.077l.143-1.156h2.366v2.232h.501v.57l-.09 1.12h-.8v-1.01H106.1v1.01h-.803l-.087-1.12v-.569h.197zm.912 0h1.034V11.63h-.698l-.078.675c-.046.377-.134.666-.258.88v.001zM46.964.055v1.844h-9.252v1.055h9.278c0 .542.045 1.023-.015 1.492-.039.308-.348.407-.681.406-1.525-.007-3.05-.003-4.572-.003h-4.023v.834h9.272v1.872c-.161.01-.331.032-.5.032-2.773.001-5.545-.007-8.317.005-.833.003-1.959-.807-2.305-1.448-.245-.453-.213-.868-.225-1.307-.024-.766.039-1.535-.018-2.299-.077-1.011.532-1.657 1.303-2.187.316-.216.79-.316 1.195-.32 2.836-.027 5.672-.015 8.51-.013.116.008.233.02.35.04V.054zm63.365 7.532h-5.183c-1.055 0-2.109-.02-3.162.005-1.097.027-1.97-.388-2.601-1.173-.243-.304-.357-.754-.378-1.143-.066-.961-.066-1.925.001-2.886.067-.788.359-1.492 1.238-1.906a4.559 4.559 0 0 1 2.049-.48c2.658.022 5.317.01 8.023.01v1.914h-.586c-2.659 0-5.317.006-7.977-.007-.328-.001-.573.109-.701.35-.158.298.164.667.568.679.404.012.81.002 1.215.002h7.525c0 .556.003 1.065 0 1.572-.001.327-.245.327-.505.325-1.669-.004-3.339-.001-5.01-.001-1.038 0-2.075-.001-3.113.001-.208 0-.417.019-.659.03v.773h9.256v1.935zm-31.221-.01c-.925 0-1.85-.017-2.774.003a3.15 3.15 0 0 1-2.267-.832 2.146 2.146 0 0 1-.476-.72c-.344-.779-.222-1.608-.274-2.42-.044-.71.017-1.417.305-2.048.18-.399.61-.768 1.025-.996 1.059-.578 2.256-.569 3.45-.536.89.024 1.787.058 2.673-.01.865-.07 1.672.165 2.492.299.304.049.572.355.825.576.491.429.648.97.626 1.596-.042 1.096.003 2.196-.046 3.292-.025.576-.459.94-.939 1.29-.802.585-1.715.504-2.626.505h-1.994zm-3.483-1.933h6.974V2.173h-6.974v3.472-.001zm48.476 1.911V3.412c0-.932.008-1.864-.003-2.796-.004-.396.231-.557.605-.578a12.32 12.32 0 0 1 1.071-.003c.395.013.605.222.612.582.011.616.01 1.231 0 1.85-.004.344.104.499.531.496 2.269-.015 4.539 0 6.809.01.773.005 1.312.435 1.73.958.264.33.484.754.525 1.155.037.375-.166.779-.306 1.155-.08.192-.205.365-.366.504a2.991 2.991 0 0 1-.762.536c-.343.148-.729.289-1.098.291-2.95.024-5.9.014-8.852.014-.143 0-.286-.018-.496-.03zm2.311-1.89h7.303v-.787h-7.303v.787zm-28.59-.023v1.899a1.262 1.262 0 0 1-.23.043c-3.13 0-6.26.019-9.39-.022a2.446 2.446 0 0 1-2.031-1.103c-.209-.312-.297-.739-.303-1.116-.034-1.565-.016-3.13-.014-4.694 0-.42.203-.608.663-.615.276-.004.556.029.826-.007.487-.065.572.17.57.545-.01 1.445-.005 2.889-.004 4.333 0 .602.165.756.81.756 1.88 0 3.762-.013 5.643.01.44.006.562-.14.559-.513-.011-1.49-.006-2.979-.004-4.468 0-.468.206-.652.723-.656.275-.003.55-.003.828 0 .471.002.712.227.713.683.004 1.442.004 2.888 0 4.332 0 .375 0 .739.64.593h.001zm-38.25 1.929h-2.06v-.494c0-1.533-.008-3.067.008-4.6.004-.394-.112-.561-.58-.557-2.2.018-4.404.008-6.685.008v5.62h-2.096c-.007-.145-.024-.303-.024-.46V.684c0-.65.003-.65.697-.65L59.042.03c.27 0 .533-.027.533.335V7.57h-.003zm12.816-.013H70.1v-.509c0-1.52-.008-3.039.006-4.559.004-.4-.092-.586-.593-.574-1.41.034-2.822.01-4.232.013-.502 0-.718.2-.72.666-.004.872-.062 1.749.012 2.616.07.842-.455 1.346-1.014 1.845-.787.704-1.792.524-2.787.522V5.703h1.72c0-.975.024-1.903-.005-2.829-.034-1.028.5-1.754 1.332-2.348a2.77 2.77 0 0 1 1.623-.487c2.059-.016 4.119-.007 6.179-.005.595 0 .769.158.769.698v6.826h-.002zm48.493-5.626c-1.803 0-3.502-.003-5.202.001-.362 0-.342.258-.344.486-.002.932-.016 1.866 0 2.798.014.781-.448 1.324-1.001 1.826-.801.723-1.801.53-2.789.536V5.705h1.701c.014-.18.031-.309.031-.439.003-.843.064-1.69-.016-2.527-.086-.884.376-1.55.969-2.075.396-.354 1.072-.587 1.632-.604 2.204-.066 4.411-.02 6.617-.034.348-.003.465.125.465.413v7.115h-2.062V1.932h-.001zM29.784 7.578h-2.05v-4.95c0-.699 0-.7-.731-.7h-3.895V.034h.525c3.422 0 6.843.009 10.263-.012.472-.003.589.152.57.54-.019.433-.004.867-.004 1.366h-.598c-1.168 0-2.336.018-3.502-.01-.45-.01-.591.125-.585.537.019 1.534.006 3.068.006 4.602v.52zM1.774.002c.34 0 .681-.003 1.02 0 .473.006.704.216.707.651.005.601.004 1.2.001 1.802-.001.628-.176.794-.85.797-.599.002-1.199.002-1.798 0C.186 3.248.003 3.077 0 2.457V.744C.003.175.19.004.803.002h.972zM13.98 14.628h-.974c-.535-.005-.74-.199-.742-.71-.005-.6-.005-1.203 0-1.805.002-.56.194-.733.81-.735a231.07 231.07 0 0 1 1.9 0c.605.002.79.176.792.755v1.76c-.003.562-.192.732-.812.735h-.974zm-11.645 0H1.313c-.487-.005-.725-.222-.727-.678-.005-.617-.005-1.233 0-1.85.001-.527.208-.72.777-.722.649-.002 1.297-.002 1.946 0 .567.002.775.193.777.723.003.6.003 1.204 0 1.805-.002.529-.208.718-.778.72-.325.003-.649 0-.974 0l.001.002zm11.669-3.793h-.925c-.643-.002-.814-.165-.817-.777V8.343c.003-.596.181-.755.839-.757h1.85c.641.002.812.165.815.778v1.715c-.003.596-.178.755-.839.756h-.923zm-8.187 0c-.34 0-.682.003-1.021 0-.47-.005-.703-.217-.707-.65a136.88 136.88 0 0 1-.001-1.851c.003-.575.186-.746.8-.748h1.897c.619.002.802.172.807.742v1.76c-.005.578-.184.745-.802.747h-.973zM5.827.002c.356 0 .712-.004 1.068 0 .462.006.691.222.695.662.004.615.003 1.23 0 1.848-.003.552-.204.736-.814.738-.616.004-1.23.004-1.847 0-.65-.002-.838-.173-.841-.76-.003-.586-.003-1.171 0-1.758.003-.536.204-.726.766-.73.324-.003.648 0 .973 0zm9.939 5.42c0 .316.004.63 0 .947-.007.437-.256.669-.74.673-.631.004-1.263.005-1.894 0-.692-.002-.867-.171-.87-.825V4.549c.003-.593.181-.755.838-.755.631-.002 1.263-.001 1.894 0 .565.003.768.195.772.727.003.3 0 .601 0 .9v.002zm-4.088-.02c0 .316.004.632 0 .947-.007.49-.223.689-.766.694-.649.005-1.297.005-1.943 0-.593-.005-.79-.197-.793-.761-.003-.587-.003-1.172 0-1.758.003-.535.204-.728.766-.73.648-.002 1.296-.002 1.943 0 .607.002.789.176.793.752v.857zm0-3.772c0 .316.004.631 0 .946-.007.439-.256.669-.739.674-.631.006-1.262.004-1.894 0-.691-.001-.868-.172-.87-.824V.758c.004-.593.182-.755.837-.756h1.896c.563.002.764.194.77.728.003.299 0 .6 0 .9zm2.38-1.628c.34 0 .68-.004 1.02 0 .43.006.681.231.685.625.007.63.006 1.261.002 1.893-.002.53-.21.725-.774.73-.615.004-1.23.004-1.845 0-.725-.001-.881-.145-.884-.813 0-.57-.003-1.14 0-1.712.004-.526.213-.72.776-.723h1.02zm9.013 12.407c0-.97.772-1.529 1.6-1.529.829 0 1.6.559 1.6 1.53 0 .966-.771 1.523-1.6 1.523-.828 0-1.6-.559-1.6-1.524zm2.248 0c0-.505-.219-.831-.647-.831-.43 0-.648.326-.648.831 0 .503.218.828.648.828.428 0 .647-.325.647-.828zm3.459-.78h-1.113v-.677h3.16v.676h-1.113v2.235h-.934v-2.235zm3.44.78c0-.97.773-1.529 1.6-1.529.828 0 1.6.559 1.6 1.53 0 .966-.772 1.523-1.6 1.523-.827 0-1.6-.559-1.6-1.524zm2.249 0c0-.505-.22-.831-.648-.831-.429 0-.647.326-.647.831 0 .503.218.828.647.828.428 0 .648-.325.648-.828zm2.484-1.457h2.883v2.912h-.932v-2.236h-1.02v2.235h-.933V10.95h.002zm4.581 0h.899v.807c0 .293-.046.68-.078 1.034h.02c.101-.176.268-.438.364-.609l.818-1.232h.846v2.912h-.899v-.81c0-.291.044-.674.082-1.035h-.025c-.1.176-.264.445-.359.61l-.822 1.234h-.846V10.95zm5.542.676h-1.116v-.676h3.162v.676h-1.113v2.235h-.933v-2.235zm3.49.777c0-.953.792-1.525 1.633-1.525.968 0 1.477.607 1.477 1.398-.001.13-.014.26-.04.387h-2.38v-.577h1.752l-.147.164c0-.468-.219-.712-.632-.712-.459 0-.76.288-.76.867 0 .603.353.87.963.87.284-.006.56-.075.808-.203l.31.52a2.538 2.538 0 0 1-1.244.34c-.98 0-1.74-.56-1.74-1.527v-.002zm4.313 1.465l.156-.779a.632.632 0 0 0 .157.024c.17 0 .295-.12.338-.433.083-.575.144-1.152.217-1.73h2.364v2.912h-.932v-2.236h-.695c-.056.427-.111.87-.175 1.295-.103.651-.45 1.01-1.055 1.01a1.051 1.051 0 0 1-.375-.063zm4.999-2.918h.932v.927h.663c.793 0 1.4.251 1.4.976 0 .754-.607 1.008-1.4 1.008h-1.594V10.95h-.001zm1.553 2.253c.372 0 .548-.114.548-.35 0-.226-.176-.337-.548-.337h-.623v.687h.623zm2.963-2.253h.932v1.05h1.02v-1.05h.933v2.912h-.932v-1.108h-1.021v1.107h-.932V10.95zm4.416 1.456c0-.969.772-1.528 1.6-1.528.829 0 1.6.559 1.6 1.53 0 .966-.771 1.523-1.6 1.523-.828 0-1.6-.559-1.6-1.524v-.001zm2.248 0c0-.503-.22-.83-.648-.83-.429 0-.647.326-.647.831 0 .503.218.828.647.828.428 0 .648-.325.648-.828v-.001zm2.376-.003c0-.953.792-1.525 1.632-1.525.969 0 1.478.607 1.478 1.398-.002.13-.015.26-.04.387h-2.38v-.577h1.752l-.147.164c0-.468-.219-.714-.632-.714-.459 0-.76.29-.76.869 0 .603.354.87.963.87.284-.006.562-.075.81-.203l.307.52a2.54 2.54 0 0 1-1.244.34c-.977 0-1.738-.56-1.738-1.527l-.002-.002zm9.096.004c0-.97.773-1.529 1.601-1.529s1.6.559 1.6 1.53c0 .966-.772 1.523-1.6 1.523-.828 0-1.6-.559-1.6-1.524h-.001zm2.25 0c0-.505-.22-.831-.649-.831-.428 0-.647.326-.647.831 0 .503.219.828.647.828.428 0 .648-.325.648-.828zm2.405-.366c0-1.737.818-2.145 1.99-2.293.387-.048.564-.087.764-.172l.177.75c-.167.122-.459.186-.746.222-1.126.137-1.294.17-1.294 1.696 0 .66.247.99.664.99.36 0 .54-.306.54-.792 0-.52-.209-.711-.545-.711a.822.822 0 0 0-.38.1.775.775 0 0 0-.282.261l-.042-.55c.114-.143.263-.259.434-.336a1.23 1.23 0 0 1 .548-.11c.665 0 1.221.454 1.221 1.346 0 .897-.621 1.489-1.483 1.489-1 0-1.566-.707-1.566-1.89zm4.493.366c0-.97.772-1.529 1.6-1.529.829 0 1.6.559 1.6 1.53 0 .966-.772 1.523-1.6 1.523-.828 0-1.6-.559-1.6-1.524zm2.248 0c0-.505-.219-.831-.647-.831-.428 0-.648.326-.648.831 0 .503.218.828.648.828.428 0 .647-.325.647-.828zm2.484-1.457h.76l.066.295h.024c.253-.222.585-.353.934-.367.784 0 1.26.583 1.26 1.483 0 .997-.659 1.57-1.364 1.57a1.162 1.162 0 0 1-.77-.315h-.023l.045.473v.852h-.932v-3.991zm2.089 1.418c0-.522-.184-.781-.579-.781-.199 0-.382.078-.578.27v1.174a.85.85 0 0 0 .537.193c.343 0 .62-.253.62-.856zm2.452 2.572l.167-.658c.078.023.16.036.242.037.362 0 .556-.155.659-.38l.062-.152-1.357-2.837h.924l.527 1.25c.111.274.212.57.312.874h.025c.083-.29.19-.59.288-.873l.459-1.251h.88l-1.238 2.943c-.306.728-.677 1.105-1.471 1.105a1.872 1.872 0 0 1-.479-.058zm9.022-2.533c0-.97.772-1.529 1.599-1.529.829 0 1.601.559 1.601 1.53 0 .966-.772 1.523-1.599 1.523-.829 0-1.601-.559-1.601-1.524zm2.247 0c0-.505-.218-.831-.646-.831-.429 0-.649.326-.649.831 0 .503.219.828.649.828.428 0 .646-.325.646-.828zm2.56-1.457h1.482c.736 0 1.327.188 1.327.768 0 .248-.158.503-.533.602v.021c.393.091.653.289.653.683 0 .597-.623.837-1.369.837h-1.562V10.95h.002zm1.425 1.134c.351 0 .495-.102.495-.278 0-.174-.139-.275-.489-.275h-.523v.553h.517zm.082 1.194c.379 0 .519-.123.519-.313 0-.172-.158-.302-.528-.302h-.59v.615h.599zm2.923-.225c0-.652.581-.985 2.064-1.068-.032-.26-.244-.42-.665-.42-.303 0-.604.109-.957.273l-.333-.565a3.165 3.165 0 0 1 1.469-.395c.884 0 1.418.427 1.418 1.319v1.664h-.761l-.067-.329h-.024c-.317.222-.709.399-1.112.399-.636 0-1.032-.388-1.032-.878zm2.064-.069v-.476c-.924.042-1.171.228-1.171.476 0 .188.171.278.434.278.278 0 .514-.119.737-.277zm2.578-2.034h.932v1.05h1.02v-1.05h.932v2.912h-.932v-1.108h-1.021v1.107h-.932V10.95h.001zm4.581 0h.9v.807c0 .293-.046.68-.08 1.034h.021c.1-.176.269-.438.365-.609l.816-1.232h.847v2.912h-.898v-.81c0-.291.044-.674.082-1.035h-.025c-.101.176-.265.445-.361.61l-.82 1.234h-.847V10.95zm4.458 1.453c0-.953.792-1.525 1.632-1.525.969 0 1.479.607 1.479 1.398-.003.13-.016.26-.039.387h-2.381v-.577h1.751l-.146.164c0-.468-.22-.712-.632-.712-.459 0-.762.288-.762.867 0 .603.355.87.966.87a1.82 1.82 0 0 0 .806-.203l.31.52a2.538 2.538 0 0 1-1.244.34c-.978 0-1.739-.56-1.739-1.527l-.001-.002z"/>
</svg>
