<svg xmlns="http://www.w3.org/2000/svg" width="102" height="24" fill="none" viewBox="0 0 102 24">
  <path fill="#222631" fill-rule="evenodd" d="M10.888 2.44A4.685 4.685 0 0 1 15.008 0l.021.006c2.583.033 4.654 2.16 4.636 4.76a4.701 4.701 0 0 1-.212 1.373h7.993a4.164 4.164 0 0 1 2.65.9 4.56 4.56 0 0 1 3.087-1.147 4.455 4.455 0 0 1 3.648 1.907l.125-.147a4.477 4.477 0 0 1 3.49-1.76 4.353 4.353 0 0 1 3.71 2.147 9.345 9.345 0 0 1 12.384.413 4.558 4.558 0 0 1 4.12-2.593 4.476 4.476 0 0 1 4.08 2.667 4.519 4.519 0 0 1 4.113-2.657 4.522 4.522 0 0 1 4.113 2.658 9.32 9.32 0 0 1 12.928-.087c.301.295.58.611.835.947.342-.47.733-.902 1.166-1.287A9.23 9.23 0 0 1 94.1 5.847c1.46.003 2.9.336 4.215.973 1.822.913 2.867 2.367 2.867 4a4.115 4.115 0 0 1-2.358 3.84 4.19 4.19 0 0 1 2.437 3.813 4.472 4.472 0 0 1-2.477 3.907 9.224 9.224 0 0 1-4.477 1.02c-3.384 0-6.04-1.273-7.604-3.467a8.62 8.62 0 0 1-.8.907 9.23 9.23 0 0 1-12.902-.127 4.538 4.538 0 0 1-4.116 2.71 4.536 4.536 0 0 1-4.15-2.657 4.534 4.534 0 0 1-4.067 2.7 4.532 4.532 0 0 1-4.152-2.566 9.258 9.258 0 0 1-12.172.533 4.432 4.432 0 0 1-3.77 2 4.342 4.342 0 0 1-3.59-1.813l-.133-.187a4.5 4.5 0 0 1-5.005 1.787 4.54 4.54 0 0 1-3.234-4.24v-4.32c-.358.1-.728.151-1.1.153v4.174c-.093 2.438-2.083 4.366-4.507 4.366-2.423 0-4.414-1.928-4.507-4.366V14.82c-.86 0-1.7-.267-2.404-.767l-1.397 3.26a1.912 1.912 0 0 1-.093.187c-2.106 3.907-5.212 5.907-9.226 5.907-3.669 0-4.994-2.414-4.994-4.474.011-2.256 1.739-4.126 3.973-4.3L.517 6.9l-.04-.087A4.676 4.676 0 0 1 0 4.767 4.714 4.714 0 0 1 3.493.203 4.677 4.677 0 0 1 8.769 2.44c.049.08.093.162.133.247l.98 2.08.788-1.88.046-.107c.048-.118.106-.232.172-.34zm5.747.663a2.305 2.305 0 0 0-1.627-.71h.001l-.028-.026A2.317 2.317 0 0 0 12.875 3.7l-.053.1v.053l-2.768 6.754h-.092l-3.2-6.9A2.299 2.299 0 0 0 4.15 2.464a2.318 2.318 0 0 0-1.766 2.303c.001.37.092.734.266 1.06l4.966 10.066a3.306 3.306 0 0 1-2.65 1.114c-1.344 0-2.217.8-2.217 1.94 0 1.326.846 2.073 2.616 2.073 2.669 0 5.205-1.08 7.133-4.667l4.517-10.526c.173-.326.265-.69.265-1.06a2.326 2.326 0 0 0-.645-1.664zm77.429 5.11c2.14.001 4.701 1.068 4.701 2.58.03.47-.133.93-.454 1.274-.32.343-.768.536-1.235.533-.319 0-.764-.141-1.227-.289-.5-.159-1.02-.324-1.423-.324a2.339 2.339 0 0 0-1.848.704 2.38 2.38 0 0 0-.662 1.877c0 1.886.928 2.666 2.616 2.666.606 0 1.14-.185 1.608-.347.366-.126.692-.239.982-.239.467 0 .913.19 1.24.525.327.334.508.786.503 1.255 0 1.46-1.82 2.526-4.57 2.526-4.12 0-6.79-2.26-6.79-6.406 0-4.147 3.04-6.354 6.578-6.354l-.019.019zm-14.613-.02c3.882 0 6.624 2.874 6.624 6.38 0 3.507-2.75 6.38-6.623 6.38a6.45 6.45 0 0 1-4.627-1.805 6.536 6.536 0 0 1-1.995-4.575 6.44 6.44 0 0 1 1.97-4.6 6.358 6.358 0 0 1 4.653-1.78h-.002zm2.3 6.38c0 1.807-.975 2.767-2.3 2.767-1.344 0-2.324-.96-2.324-2.767 0-1.593.768-2.766 2.324-2.766 1.557 0 2.3 1.173 2.3 2.766zm-12.896-6.38c1.152.01 2.087.94 2.112 2.1v8.667c0 1.182-.95 2.14-2.126 2.14a2.133 2.133 0 0 1-2.126-2.14v-2.393H62.74v2.42a2.104 2.104 0 0 1-2.086 2.046 2.137 2.137 0 0 1-2.165-2.046V10.32a2.15 2.15 0 0 1 2.164-2.1 2.113 2.113 0 0 1 2.087 2.1v2.34h3.974v-2.313a2.128 2.128 0 0 1 2.14-2.1v-.054h.001zm-12.179 6.434c0-3.507-2.742-6.38-6.624-6.38l.002.001a6.358 6.358 0 0 0-4.653 1.78 6.433 6.433 0 0 0-1.97 4.6 6.528 6.528 0 0 0 1.995 4.573 6.456 6.456 0 0 0 4.627 1.806c3.873 0 6.623-2.874 6.623-6.38zm-6.623 2.766c1.324 0 2.299-.96 2.299-2.766 0-1.594-.743-2.767-2.3-2.767-1.556 0-2.324 1.173-2.324 2.767 0 1.806.98 2.766 2.325 2.766zm-8.19-8.503a2.023 2.023 0 0 0-1.448-.65h-.002v-.02a2.09 2.09 0 0 0-1.69.933c-.291.327-1.887 2.54-2.583 3.507h-.907v-2.34a2.113 2.113 0 0 0-2.085-2.1 2.153 2.153 0 0 0-2.166 2.1v8.667a2.138 2.138 0 0 0 2.167 2.046 2.105 2.105 0 0 0 2.086-2.046v-2.554h.927l2.768 3.774c.39.524 1.012.823 1.662.8a2.034 2.034 0 0 0 1.47-.583c.393-.384.615-.912.617-1.464a2.877 2.877 0 0 0-.755-1.807l-2.114-2.666V14.3l1.85-2.287c.428-.436.691-1.01.743-1.62a2.057 2.057 0 0 0-.54-1.503zm-14.416-.357c.514.01 1.002.228 1.354.605.353.376.54.88.52 1.395a1.893 1.893 0 0 1-1.874 1.887H25.12v6.567a2.103 2.103 0 0 1-2.085 2.046 2.138 2.138 0 0 1-2.166-2.046V12.42H18.49a1.887 1.887 0 0 1-1.848-1.913 1.915 1.915 0 0 1 1.848-2h8.954v.026h.003z" clip-rule="evenodd"/>
</svg>
