<svg xmlns="http://www.w3.org/2000/svg" width="43" height="62" fill="none" viewBox="0 0 43 62">
  <path fill="#222631" fill-rule="evenodd" d="M42.044 61.302c.552-.236.81-.866.578-1.42v.001L38.4 49.643c-.197-.492-.57-.75-1.03-.75-.323 0-.768.141-1.023.747l-4.23 10.242a1.093 1.093 0 0 0 .585 1.42c.54.221 1.2-.042 1.42-.582l.857-2.086h4.787l.856 2.086a1.093 1.093 0 0 0 1.423.582zm-4.675-8.48l1.51 3.65h-3.01l1.5-3.65zM16.539 61.566c3.84 0 5.56-3.17 5.56-6.314v.001c0-4.085-2.073-6.535-5.56-6.545-3.486 0-5.738 2.555-5.753 6.505-.003 1.838.485 3.385 1.407 4.493 1.012 1.218 2.504 1.86 4.324 1.86h.022zm.01-10.572c2.162.01 3.26 1.443 3.26 4.258 0 1.946-.86 4.03-3.27 4.03h-.018c-1.136-.004-1.998-.357-2.576-1.04-.578-.69-.883-1.733-.873-3.02.014-1.578.46-4.228 3.477-4.228z" clip-rule="evenodd"/>
  <path fill="#222631" d="M31.375 48.91h-7.352c-.607 0-1.104.5-1.104 1.11 0 .61.497 1.11 1.104 1.11h2.555v9.12c0 .613.498 1.12 1.114 1.12.305 0 .58-.12.782-.334.224-.212.33-.496.33-.786l-.003-9.12h2.575c.613 0 1.105-.5 1.105-1.11 0-.61-.492-1.11-1.106-1.11zM9.162 49.054a1.112 1.112 0 0 0-1.518.407l-2.787 4.83-2.787-4.83a1.108 1.108 0 0 0-1.515-.407 1.101 1.101 0 0 0-.402 1.514l3.6 6.238v3.48c0 .616.494 1.114 1.105 1.114a1.11 1.11 0 0 0 1.11-1.113v-3.482l3.597-6.24a1.1 1.1 0 0 0-.402-1.513l-.001.002zM30.998 0a2.428 2.428 0 0 1 2.423 2.436v2.396c0 3.217-1.23 6.252-3.47 8.527a11.753 11.753 0 0 1-5.77 3.25l-.216.046v6.19l.216.052a11.805 11.805 0 0 1 5.78 3.248c2.23 2.28 3.46 5.303 3.46 8.525v2.396a2.428 2.428 0 0 1-2.422 2.438 2.43 2.43 0 0 1-2.428-2.438V34.67a7.25 7.25 0 0 0-2.078-5.11 6.905 6.905 0 0 0-4.95-2.102c-1.872.004-3.628.75-4.963 2.102a7.283 7.283 0 0 0-2.073 5.11v2.396a2.432 2.432 0 0 1-2.423 2.438 2.437 2.437 0 0 1-2.43-2.438V34.67a12.06 12.06 0 0 1 3.466-8.524 11.77 11.77 0 0 1 5.764-3.248l.222-.053v-6.19l-.222-.044a11.774 11.774 0 0 1-5.764-3.25 12.074 12.074 0 0 1-3.467-8.528V2.436A2.434 2.434 0 0 1 12.08 0a2.432 2.432 0 0 1 2.424 2.436v2.396c0 1.926.74 3.748 2.074 5.118 1.336 1.348 3.092 2.093 4.965 2.094 1.866 0 3.62-.746 4.95-2.094a7.282 7.282 0 0 0 2.077-5.118V2.436A2.429 2.429 0 0 1 31 0h-.003z"/>
  <path fill="#222631" d="M21.54 29.792a4.712 4.712 0 0 0-4.706 4.712 4.708 4.708 0 0 0 4.707 4.713c2.59 0 4.697-2.11 4.697-4.713 0-2.596-2.107-4.712-4.697-4.712z"/>
</svg>
