<svg width="100" height="29" viewBox="0 0 100 29" preserveAspectRatio="xMidYMid meet" xmlns="http://www.w3.org/2000/svg"><path fill="#151515" d="M70.641 20.358h12.385v-3.984H70.641v3.984zM93.349 7.966h-1.605V6.417c0-3.544-2.979-6.416-6.651-6.416H64.446c-2.633 0-4.871 1.473-5.955 3.566l-2.299 4.434-2.31-4.453C52.797 1.458 50.545.001 47.934.001c-2.636 0-4.875 1.473-5.959 3.566l-2.299 4.434-2.308-4.455C36.283 1.457 34.032.001 31.42.001H14.906c-3.673 0-6.651 2.873-6.651 6.416v1.549H6.648c-3.674 0-6.651 2.874-6.651 6.418s2.977 6.418 6.651 6.418h1.605v1.551c0 3.544 2.978 6.416 6.651 6.416 3.674 0 6.651-2.873 6.651-6.416v-1.551h5.734a6.777 6.777 0 0 0 3.612-1.029l2.825 5.451c1.085 2.086 3.334 3.544 5.948 3.544 2.614 0 4.863-1.455 5.949-3.547l2.31-4.453 2.308 4.456c1.085 2.086 3.334 3.544 5.951 3.544 2.611 0 4.862-1.455 5.948-3.547l.258-.495c.979 2.367 3.377 4.041 6.178 4.041h16.516c3.673 0 6.651-2.873 6.651-6.416V20.8h1.605c3.671.001 6.649-2.873 6.649-6.416 0-3.544-2.978-6.418-6.651-6.418zm0 8.41h-6.193v5.977c0 1.099-.923 1.989-2.063 1.989H68.577c-1.14 0-2.064-.89-2.064-1.989v-7.968c0-1.1.925-1.992 2.064-1.992h14.451V8.409H65.725l-7.684 14.832a2.078 2.078 0 0 1-1.847 1.101 2.07 2.07 0 0 1-1.847-1.101l-6.412-12.368-6.411 12.368a2.074 2.074 0 0 1-1.848 1.101 2.07 2.07 0 0 1-1.845-1.101L30.145 8.409H16.972v3.984h10.321c1.14 0 2.064.89 2.064 1.992 0 1.101-.925 1.992-2.064 1.992H16.972v5.977c0 1.099-.925 1.989-2.064 1.989-1.141 0-2.064-.89-2.064-1.989v-5.977H6.651c-1.14 0-2.064-.89-2.064-1.992 0-1.101.925-1.992 2.064-1.992h6.193V6.418c0-1.1.923-1.992 2.064-1.992h16.514a2.07 2.07 0 0 1 1.845 1.101l6.411 12.37 6.403-12.352a2.077 2.077 0 0 1 1.855-1.119c.807 0 1.507.449 1.847 1.101l6.412 12.37 6.4-12.352a2.078 2.078 0 0 1 1.853-1.119h20.645c1.14 0 2.063.892 2.063 1.992v5.975h6.193c1.14 0 2.062.89 2.062 1.992 0 1.101-.922 1.992-2.062 1.992z"/></svg>