<svg width="24px" height="24px" viewBox="0 0 24 24" version="1.1" xmlns="http://www.w3.org/2000/svg" xmlns:xlink="http://www.w3.org/1999/xlink">
    <g id="icon-/-24px-/-bander-/-upload-2" stroke="none" stroke-width="1" fill-rule="evenodd">
        <path d="M8,5 L8,19 L17,19 L17,8.84430516 L13.3405172,5 L8,5 Z M7,3 L13.7692308,3 C14.0429911,3 14.3047817,3.11223316 14.4935343,3.31051875 L18.7243035,7.7549632 C18.9012889,7.94088722 19,8.18775093 19,8.44444444 L19,20 C19,20.5522847 18.5522847,21 18,21 L7,21 C6.44771525,21 6,20.5522847 6,20 L6,4 C6,3.44771525 6.44771525,3 7,3 Z M12,4 C12,3.10909515 13.0771419,2.66292836 13.7071068,3.29289322 L18.7071068,8.29289322 C19.3370716,8.92285808 18.8909049,10 18,10 L13,10 C12.4477153,10 12,9.55228475 12,9 L12,4 Z" id="Rectangle" fill-rule="nonzero"></path>
    </g>
</svg>
