<svg width="24px" height="24px" viewBox="0 0 24 24" version="1.1" xmlns="http://www.w3.org/2000/svg" xmlns:xlink="http://www.w3.org/1999/xlink">
    <defs>
        <path d="M14,11.4094952 L9.63132057,15.7781746 C9.24079628,16.1686989 8.6076313,16.1686989 8.21710701,15.7781746 C7.82658272,15.3876503 7.82658272,14.7544853 8.21710701,14.363961 L12.581068,10 L11,10 C10.4477153,10 10,9.55228475 10,9 C10,8.44771525 10.4477153,8 11,8 L15,8 C15.5522847,8 16,8.44771525 16,9 L16,13 C16,13.5522847 15.5522847,14 15,14 C14.4477153,14 14,13.5522847 14,13 L14,11.4094952 Z" id="path-1"></path>
    </defs>
    <g id="arrow" stroke="none" stroke-width="1" fill-rule="evenodd">
        <mask id="mask-2" fill="white">
            <use xlink:href="#path-1"></use>
        </mask>
        <use id="Mask" transform="translate(11.962107, 12.035534) rotate(45.000000) translate(-11.962107, -12.035534) " xlink:href="#path-1"></use>
    </g>
</svg>