<svg width="18" height="16" xmlns="http://www.w3.org/2000/svg"><path d="M17.271 1.657h-2.574v-.93a.728.728 0 0 0-.73-.727H4.034a.727.727 0 0 0-.73.726v.93L.73 1.658A.728.728 0 0 0 0 2.383c0 1.98 1.449 3.626 3.346 3.952a5.69 5.69 0 0 0 3.536 4.599v1.261h-.228a.73.73 0 0 0-.513.21 4.001 4.001 0 0 0-1.208 2.869c0 .4.327.726.73.726h6.674c.403 0 .73-.325.73-.726 0-1.08-.43-2.1-1.208-2.868a.731.731 0 0 0-.513-.21h-.228v-1.262a5.689 5.689 0 0 0 3.536-4.598C16.551 6.01 18 4.364 18 2.383a.727.727 0 0 0-.729-.726zM3.303 4.84a2.58 2.58 0 0 1-1.74-1.731h1.74V4.84zm8.2 9.707H6.497c.097-.326.259-.631.48-.9h4.047c.22.27.382.574.479.9zM8.34 12.196V11.3c.217.025.436.042.659.042.223 0 .442-.017.659-.042v.895H8.34zm4.897-6.524c0 2.326-1.901 4.218-4.238 4.218-2.337 0-4.238-1.892-4.238-4.218v-4.22h8.476v4.22zm1.46-.83V3.11h1.738a2.579 2.579 0 0 1-1.739 1.731z" fill-rule="nonzero"/></svg>