<svg xmlns="http://www.w3.org/2000/svg" width="24" height="24"><path fill-rule="nonzero" d="M18.977 8.52a.51.51 0 0 0-.177-.559l-1.668-1.254-.645-2.018a.49.49 0 0 0-.461-.345l-2.066-.008-1.676-1.24a.472.472 0 0 0-.57 0L10.04 4.338l-2.066.008a.49.49 0 0 0-.46.345L6.866 6.71 5.2 7.963a.508.508 0 0 0-.177.558l.633 2.023-.633 2.024a.51.51 0 0 0 .177.559l1.668 1.253.578 1.81-2.205 3.846a.514.514 0 0 0 .03.557.484.484 0 0 0 .511.184l2.42-.643.627 2.49A.49.49 0 0 0 9.3 23c.253 0 .267 0 2.681-3.89l2.088 3.643a.485.485 0 0 0 .489.242.491.491 0 0 0 .404-.371l.626-2.49 2.42.643c.19.05.393-.022.511-.184a.513.513 0 0 0 .03-.557l-2.075-3.62c.003-.008.01-.012.013-.019l.645-2.018 1.667-1.254a.51.51 0 0 0 .177-.558l-.633-2.023.633-2.024zM9.494 21.257l-.468-1.86a.487.487 0 0 0-.594-.36l-1.754.465 1.582-2.759 1.779.007 1.543 1.143-2.088 3.364zM8.343 10.544c0-2.073 1.64-3.761 3.657-3.761 2.017 0 3.657 1.688 3.657 3.76 0 2.074-1.64 3.762-3.657 3.762-2.017 0-3.657-1.688-3.657-3.761zm8.77 8.958l-1.752-.466a.488.488 0 0 0-.594.36l-.454 1.804-1.893-3.304-.003-.003 1.544-1.144 1.572-.007 1.58 2.76zM12 13.302c-1.481 0-2.682-1.235-2.682-2.758 0-1.524 1.2-2.758 2.682-2.758 1.481 0 2.682 1.234 2.682 2.758 0 1.523-1.2 2.758-2.682 2.758z"/></svg>