<svg width="45" height="57" viewBox="0 0 45 57" preserveAspectRatio="xMidYMid meet" xmlns="http://www.w3.org/2000/svg"><path fill="#151515" d="M33.764 0v15.296a3.12 3.12 0 0 1-1.643 2.749L0 35.329V20.297c0-1.618.899-3.102 2.332-3.852L33.764.001zM12.767 38.865l18.44-10.115 13.608 7.322c-.183 1.195-.756 1.701-2.258 2.603L11.125 56.91V41.614a3.12 3.12 0 0 1 1.643-2.749zm21.556 5.41v12.747l-10.986-6.374 10.986-6.374zM21.977 33.066l-9.564 5.246a3.618 3.618 0 0 0-1.904 3.19v1.675l-7.953-4.614C1.054 37.66.48 37.154.298 35.96l13.608-7.322 8.072 4.428zm-.458-27.335L10.565 0v11.461L21.519 5.73zm21.149 10.826l-8.289-4.337v3.188c0 1.295-.708 2.48-1.849 3.094l-9.506 5.115 21.975 11.824V20.409a4.348 4.348 0 0 0-2.332-3.852z"/></svg>